{
  "header": {
    "keySignatures": [],
    "meta": [],
    "name": "Elec. Piano (Classic)",
    "ppq": 384,
    "tempos": [
      {
        "bpm": 170.0000850000425,
        "ticks": 0
      }
    ],
    "timeSignatures": [
      {
        "ticks": 0,
        "timeSignature": [
          4,
          4
        ],
        "measures": 0
      }
    ]
  },
  "tracks": [
    {
      "channel": 0,
      "controlChanges": {},
      "pitchBends": [],
      "instrument": {
        "family": "piano",
        "number": 0,
        "name": "acoustic grand piano"
      },
      "name": "Elec. Piano (Classic)",
      "notes": [
        {
          "duration": 0.705882,
          "durationTicks": 768,
          "midi": 53,
          "name": "F3",
          "ticks": 0,
          "time": 0,
          "velocity": 0.3937007874015748
        },
        {
          "duration": 0.705882,
          "durationTicks": 768,
          "midi": 53,
          "name": "F3",
          "ticks": 768,
          "time": 0.705882,
          "velocity": 0.3937007874015748
        },
        {
          "duration": 1.411764,
          "durationTicks": 1536,
          "midi": 53,
          "name": "F3",
          "ticks": 1536,
          "time": 1.411764,
          "velocity": 0.3937007874015748
        },
        {
          "duration": 0.7058819999999999,
          "durationTicks": 768,
          "midi": 53,
          "name": "F3",
          "ticks": 3072,
          "time": 2.823528,
          "velocity": 0.3937007874015748
        },
        {
          "duration": 0.7058819999999999,
          "durationTicks": 768,
          "midi": 57,
          "name": "A3",
          "ticks": 3072,
          "time": 2.823528,
          "velocity": 0.3937007874015748
        },
        {
          "duration": 0.7058820000000003,
          "durationTicks": 768,
          "midi": 53,
          "name": "F3",
          "ticks": 3840,
          "time": 3.52941,
          "velocity": 0.3937007874015748
        },
        {
          "duration": 0.7058820000000003,
          "durationTicks": 768,
          "midi": 57,
          "name": "A3",
          "ticks": 3840,
          "time": 3.52941,
          "velocity": 0.3937007874015748
        },
        {
          "duration": 1.4117639999999998,
          "durationTicks": 1536,
          "midi": 53,
          "name": "F3",
          "ticks": 4608,
          "time": 4.235292,
          "velocity": 0.3937007874015748
        },
        {
          "duration": 1.4117639999999998,
          "durationTicks": 1536,
          "midi": 57,
          "name": "A3",
          "ticks": 4608,
          "time": 4.235292,
          "velocity": 0.3937007874015748
        },
        {
          "duration": 0.7058819999999999,
          "durationTicks": 768,
          "midi": 53,
          "name": "F3",
          "ticks": 6144,
          "time": 5.647056,
          "velocity": 0.3937007874015748
        },
        {
          "duration": 0.7058819999999999,
          "durationTicks": 768,
          "midi": 57,
          "name": "A3",
          "ticks": 6144,
          "time": 5.647056,
          "velocity": 0.3937007874015748
        },
        {
          "duration": 0.7058819999999999,
          "durationTicks": 768,
          "midi": 60,
          "name": "C4",
          "ticks": 6144,
          "time": 5.647056,
          "velocity": 0.3937007874015748
        },
        {
          "duration": 0.7058819999999999,
          "durationTicks": 768,
          "midi": 53,
          "name": "F3",
          "ticks": 6912,
          "time": 6.352938,
          "velocity": 0.3937007874015748
        },
        {
          "duration": 0.7058819999999999,
          "durationTicks": 768,
          "midi": 57,
          "name": "A3",
          "ticks": 6912,
          "time": 6.352938,
          "velocity": 0.3937007874015748
        },
        {
          "duration": 0.7058819999999999,
          "durationTicks": 768,
          "midi": 60,
          "name": "C4",
          "ticks": 6912,
          "time": 6.352938,
          "velocity": 0.3937007874015748
        },
        {
          "duration": 1.4117640000000007,
          "durationTicks": 1536,
          "midi": 53,
          "name": "F3",
          "ticks": 7680,
          "time": 7.05882,
          "velocity": 0.3937007874015748
        },
        {
          "duration": 1.4117640000000007,
          "durationTicks": 1536,
          "midi": 57,
          "name": "A3",
          "ticks": 7680,
          "time": 7.05882,
          "velocity": 0.3937007874015748
        },
        {
          "duration": 1.4117640000000007,
          "durationTicks": 1536,
          "midi": 60,
          "name": "C4",
          "ticks": 7680,
          "time": 7.05882,
          "velocity": 0.3937007874015748
        },
        {
          "duration": 0.705881999999999,
          "durationTicks": 768,
          "midi": 53,
          "name": "F3",
          "ticks": 9216,
          "time": 8.470584,
          "velocity": 0.3937007874015748
        },
        {
          "duration": 0.705881999999999,
          "durationTicks": 768,
          "midi": 57,
          "name": "A3",
          "ticks": 9216,
          "time": 8.470584,
          "velocity": 0.3937007874015748
        },
        {
          "duration": 0.705881999999999,
          "durationTicks": 768,
          "midi": 60,
          "name": "C4",
          "ticks": 9216,
          "time": 8.470584,
          "velocity": 0.3937007874015748
        },
        {
          "duration": 0.705881999999999,
          "durationTicks": 768,
          "midi": 65,
          "name": "F4",
          "ticks": 9216,
          "time": 8.470584,
          "velocity": 0.3937007874015748
        },
        {
          "duration": 0.7058820000000008,
          "durationTicks": 768,
          "midi": 53,
          "name": "F3",
          "ticks": 9984,
          "time": 9.176466,
          "velocity": 0.3937007874015748
        },
        {
          "duration": 0.7058820000000008,
          "durationTicks": 768,
          "midi": 57,
          "name": "A3",
          "ticks": 9984,
          "time": 9.176466,
          "velocity": 0.3937007874015748
        },
        {
          "duration": 0.7058820000000008,
          "durationTicks": 768,
          "midi": 60,
          "name": "C4",
          "ticks": 9984,
          "time": 9.176466,
          "velocity": 0.3937007874015748
        },
        {
          "duration": 0.7058820000000008,
          "durationTicks": 768,
          "midi": 65,
          "name": "F4",
          "ticks": 9984,
          "time": 9.176466,
          "velocity": 0.3937007874015748
        },
        {
          "duration": 1.4117639999999998,
          "durationTicks": 1536,
          "midi": 53,
          "name": "F3",
          "ticks": 10752,
          "time": 9.882348,
          "velocity": 0.3937007874015748
        },
        {
          "duration": 1.4117639999999998,
          "durationTicks": 1536,
          "midi": 57,
          "name": "A3",
          "ticks": 10752,
          "time": 9.882348,
          "velocity": 0.3937007874015748
        },
        {
          "duration": 1.4117639999999998,
          "durationTicks": 1536,
          "midi": 60,
          "name": "C4",
          "ticks": 10752,
          "time": 9.882348,
          "velocity": 0.3937007874015748
        },
        {
          "duration": 1.4117639999999998,
          "durationTicks": 1536,
          "midi": 65,
          "name": "F4",
          "ticks": 10752,
          "time": 9.882348,
          "velocity": 0.3937007874015748
        },
        {
          "duration": 0.3529410000000013,
          "durationTicks": 384,
          "midi": 65,
          "name": "F4",
          "ticks": 24576,
          "time": 22.588224,
          "velocity": 0.3937007874015748
        },
        {
          "duration": 0.3529410000000013,
          "durationTicks": 384,
          "midi": 60,
          "name": "C4",
          "ticks": 24576,
          "time": 22.588224,
          "velocity": 0.3937007874015748
        },
        {
          "duration": 0.3529410000000013,
          "durationTicks": 384,
          "midi": 57,
          "name": "A3",
          "ticks": 24576,
          "time": 22.588224,
          "velocity": 0.3937007874015748
        },
        {
          "duration": 0.35294099999999773,
          "durationTicks": 384,
          "midi": 41,
          "name": "F2",
          "ticks": 24960,
          "time": 22.941165,
          "velocity": 0.3937007874015748
        },
        {
          "duration": 0.7058820000000026,
          "durationTicks": 768,
          "midi": 53,
          "name": "F3",
          "ticks": 25344,
          "time": 23.294106,
          "velocity": 0.3937007874015748
        },
        {
          "duration": 0.1764704999999971,
          "durationTicks": 192,
          "midi": 41,
          "name": "F2",
          "ticks": 26112,
          "time": 23.999988000000002,
          "velocity": 0.3937007874015748
        },
        {
          "duration": 0.1764704999999971,
          "durationTicks": 192,
          "midi": 62,
          "name": "D4",
          "ticks": 26112,
          "time": 23.999988000000002,
          "velocity": 0.3937007874015748
        },
        {
          "duration": 0.1764704999999971,
          "durationTicks": 192,
          "midi": 58,
          "name": "A#3",
          "ticks": 26112,
          "time": 23.999988000000002,
          "velocity": 0.3937007874015748
        },
        {
          "duration": 0.17647050000000064,
          "durationTicks": 192,
          "midi": 53,
          "name": "F3",
          "ticks": 26304,
          "time": 24.1764585,
          "velocity": 0.3937007874015748
        },
        {
          "duration": 0.3529410000000013,
          "durationTicks": 384,
          "midi": 41,
          "name": "F2",
          "ticks": 26496,
          "time": 24.352929,
          "velocity": 0.3937007874015748
        },
        {
          "duration": 0.705881999999999,
          "durationTicks": 768,
          "midi": 55,
          "name": "G3",
          "ticks": 26880,
          "time": 24.70587,
          "velocity": 0.3937007874015748
        },
        {
          "duration": 0.705881999999999,
          "durationTicks": 768,
          "midi": 64,
          "name": "E4",
          "ticks": 26880,
          "time": 24.70587,
          "velocity": 0.3937007874015748
        },
        {
          "duration": 0.705881999999999,
          "durationTicks": 768,
          "midi": 60,
          "name": "C4",
          "ticks": 26880,
          "time": 24.70587,
          "velocity": 0.3937007874015748
        },
        {
          "duration": 0.3529410000000013,
          "durationTicks": 384,
          "midi": 41,
          "name": "F2",
          "ticks": 27648,
          "time": 25.411752,
          "velocity": 0.3937007874015748
        },
        {
          "duration": 0.3529410000000013,
          "durationTicks": 384,
          "midi": 65,
          "name": "F4",
          "ticks": 27648,
          "time": 25.411752,
          "velocity": 0.3937007874015748
        },
        {
          "duration": 0.3529410000000013,
          "durationTicks": 384,
          "midi": 60,
          "name": "C4",
          "ticks": 27648,
          "time": 25.411752,
          "velocity": 0.3937007874015748
        },
        {
          "duration": 0.3529410000000013,
          "durationTicks": 384,
          "midi": 57,
          "name": "A3",
          "ticks": 27648,
          "time": 25.411752,
          "velocity": 0.3937007874015748
        },
        {
          "duration": 0.35294099999999773,
          "durationTicks": 384,
          "midi": 41,
          "name": "F2",
          "ticks": 28032,
          "time": 25.764693,
          "velocity": 0.3937007874015748
        },
        {
          "duration": 0.5294115000000019,
          "durationTicks": 576,
          "midi": 53,
          "name": "F3",
          "ticks": 28416,
          "time": 26.117634,
          "velocity": 0.3937007874015748
        },
        {
          "duration": 0.17647050000000064,
          "durationTicks": 192,
          "midi": 53,
          "name": "F3",
          "ticks": 28992,
          "time": 26.6470455,
          "velocity": 0.3937007874015748
        },
        {
          "duration": 0.17647050000000064,
          "durationTicks": 192,
          "midi": 41,
          "name": "F2",
          "ticks": 29184,
          "time": 26.823516,
          "velocity": 0.3937007874015748
        },
        {
          "duration": 0.1764704999999971,
          "durationTicks": 192,
          "midi": 53,
          "name": "F3",
          "ticks": 29376,
          "time": 26.999986500000002,
          "velocity": 0.3937007874015748
        },
        {
          "duration": 0.3529410000000013,
          "durationTicks": 384,
          "midi": 41,
          "name": "F2",
          "ticks": 29568,
          "time": 27.176457,
          "velocity": 0.3937007874015748
        },
        {
          "duration": 0.705881999999999,
          "durationTicks": 768,
          "midi": 53,
          "name": "F3",
          "ticks": 29952,
          "time": 27.529398,
          "velocity": 0.3937007874015748
        },
        {
          "duration": 0.3529410000000013,
          "durationTicks": 384,
          "midi": 41,
          "name": "F2",
          "ticks": 30720,
          "time": 28.23528,
          "velocity": 0.3937007874015748
        },
        {
          "duration": 0.3529410000000013,
          "durationTicks": 384,
          "midi": 65,
          "name": "F4",
          "ticks": 30720,
          "time": 28.23528,
          "velocity": 0.3937007874015748
        },
        {
          "duration": 0.3529410000000013,
          "durationTicks": 384,
          "midi": 60,
          "name": "C4",
          "ticks": 30720,
          "time": 28.23528,
          "velocity": 0.3937007874015748
        },
        {
          "duration": 0.3529410000000013,
          "durationTicks": 384,
          "midi": 57,
          "name": "A3",
          "ticks": 30720,
          "time": 28.23528,
          "velocity": 0.3937007874015748
        },
        {
          "duration": 0.3529410000000013,
          "durationTicks": 384,
          "midi": 41,
          "name": "F2",
          "ticks": 31104,
          "time": 28.588221,
          "velocity": 0.3937007874015748
        },
        {
          "duration": 0.705881999999999,
          "durationTicks": 768,
          "midi": 53,
          "name": "F3",
          "ticks": 31488,
          "time": 28.941162000000002,
          "velocity": 0.3937007874015748
        },
        {
          "duration": 0.17647050000000064,
          "durationTicks": 192,
          "midi": 41,
          "name": "F2",
          "ticks": 32256,
          "time": 29.647044,
          "velocity": 0.3937007874015748
        },
        {
          "duration": 0.17647050000000064,
          "durationTicks": 192,
          "midi": 62,
          "name": "D4",
          "ticks": 32256,
          "time": 29.647044,
          "velocity": 0.3937007874015748
        },
        {
          "duration": 0.17647050000000064,
          "durationTicks": 192,
          "midi": 58,
          "name": "A#3",
          "ticks": 32256,
          "time": 29.647044,
          "velocity": 0.3937007874015748
        },
        {
          "duration": 0.1764704999999971,
          "durationTicks": 192,
          "midi": 53,
          "name": "F3",
          "ticks": 32448,
          "time": 29.8235145,
          "velocity": 0.3937007874015748
        },
        {
          "duration": 0.3529410000000013,
          "durationTicks": 384,
          "midi": 41,
          "name": "F2",
          "ticks": 32640,
          "time": 29.999985,
          "velocity": 0.3937007874015748
        },
        {
          "duration": 0.705881999999999,
          "durationTicks": 768,
          "midi": 55,
          "name": "G3",
          "ticks": 33024,
          "time": 30.352926,
          "velocity": 0.3937007874015748
        },
        {
          "duration": 0.705881999999999,
          "durationTicks": 768,
          "midi": 64,
          "name": "E4",
          "ticks": 33024,
          "time": 30.352926,
          "velocity": 0.3937007874015748
        },
        {
          "duration": 0.705881999999999,
          "durationTicks": 768,
          "midi": 60,
          "name": "C4",
          "ticks": 33024,
          "time": 30.352926,
          "velocity": 0.3937007874015748
        },
        {
          "duration": 0.3529410000000013,
          "durationTicks": 384,
          "midi": 41,
          "name": "F2",
          "ticks": 33792,
          "time": 31.058808,
          "velocity": 0.3937007874015748
        },
        {
          "duration": 0.3529410000000013,
          "durationTicks": 384,
          "midi": 65,
          "name": "F4",
          "ticks": 33792,
          "time": 31.058808,
          "velocity": 0.3937007874015748
        },
        {
          "duration": 0.3529410000000013,
          "durationTicks": 384,
          "midi": 60,
          "name": "C4",
          "ticks": 33792,
          "time": 31.058808,
          "velocity": 0.3937007874015748
        },
        {
          "duration": 0.3529410000000013,
          "durationTicks": 384,
          "midi": 57,
          "name": "A3",
          "ticks": 33792,
          "time": 31.058808,
          "velocity": 0.3937007874015748
        },
        {
          "duration": 0.3529410000000013,
          "durationTicks": 384,
          "midi": 41,
          "name": "F2",
          "ticks": 34176,
          "time": 31.411749,
          "velocity": 0.3937007874015748
        },
        {
          "duration": 0.5294115000000019,
          "durationTicks": 576,
          "midi": 53,
          "name": "F3",
          "ticks": 34560,
          "time": 31.76469,
          "velocity": 0.3937007874015748
        },
        {
          "duration": 0.17647049999999354,
          "durationTicks": 192,
          "midi": 53,
          "name": "F3",
          "ticks": 35136,
          "time": 32.294101500000004,
          "velocity": 0.3937007874015748
        },
        {
          "duration": 0.17647050000000064,
          "durationTicks": 192,
          "midi": 41,
          "name": "F2",
          "ticks": 35328,
          "time": 32.470572,
          "velocity": 0.3937007874015748
        },
        {
          "duration": 0.17647050000000064,
          "durationTicks": 192,
          "midi": 53,
          "name": "F3",
          "ticks": 35520,
          "time": 32.6470425,
          "velocity": 0.3937007874015748
        },
        {
          "duration": 0.3529410000000013,
          "durationTicks": 384,
          "midi": 41,
          "name": "F2",
          "ticks": 35712,
          "time": 32.823513,
          "velocity": 0.3937007874015748
        },
        {
          "duration": 0.7058820000000026,
          "durationTicks": 768,
          "midi": 53,
          "name": "F3",
          "ticks": 36096,
          "time": 33.176454,
          "velocity": 0.3937007874015748
        },
        {
          "duration": 0.3529410000000013,
          "durationTicks": 384,
          "midi": 43,
          "name": "G2",
          "ticks": 36864,
          "time": 33.882336,
          "velocity": 0.3937007874015748
        },
        {
          "duration": 0.3529410000000013,
          "durationTicks": 384,
          "midi": 67,
          "name": "G4",
          "ticks": 36864,
          "time": 33.882336,
          "velocity": 0.3937007874015748
        },
        {
          "duration": 0.3529410000000013,
          "durationTicks": 384,
          "midi": 62,
          "name": "D4",
          "ticks": 36864,
          "time": 33.882336,
          "velocity": 0.3937007874015748
        },
        {
          "duration": 0.3529410000000013,
          "durationTicks": 384,
          "midi": 59,
          "name": "B3",
          "ticks": 36864,
          "time": 33.882336,
          "velocity": 0.3937007874015748
        },
        {
          "duration": 0.3529409999999942,
          "durationTicks": 384,
          "midi": 43,
          "name": "G2",
          "ticks": 37248,
          "time": 34.235277,
          "velocity": 0.3937007874015748
        },
        {
          "duration": 0.7058820000000026,
          "durationTicks": 768,
          "midi": 55,
          "name": "G3",
          "ticks": 37632,
          "time": 34.588218,
          "velocity": 0.3937007874015748
        },
        {
          "duration": 0.17647050000000064,
          "durationTicks": 192,
          "midi": 43,
          "name": "G2",
          "ticks": 38400,
          "time": 35.2941,
          "velocity": 0.3937007874015748
        },
        {
          "duration": 0.17647050000000064,
          "durationTicks": 192,
          "midi": 64,
          "name": "E4",
          "ticks": 38400,
          "time": 35.2941,
          "velocity": 0.3937007874015748
        },
        {
          "duration": 0.17647050000000064,
          "durationTicks": 192,
          "midi": 60,
          "name": "C4",
          "ticks": 38400,
          "time": 35.2941,
          "velocity": 0.3937007874015748
        },
        {
          "duration": 0.17647050000000064,
          "durationTicks": 192,
          "midi": 55,
          "name": "G3",
          "ticks": 38592,
          "time": 35.4705705,
          "velocity": 0.3937007874015748
        },
        {
          "duration": 0.3529410000000013,
          "durationTicks": 384,
          "midi": 43,
          "name": "G2",
          "ticks": 38784,
          "time": 35.647041,
          "velocity": 0.3937007874015748
        },
        {
          "duration": 0.7058819999999955,
          "durationTicks": 768,
          "midi": 57,
          "name": "A3",
          "ticks": 39168,
          "time": 35.999982,
          "velocity": 0.3937007874015748
        },
        {
          "duration": 0.7058819999999955,
          "durationTicks": 768,
          "midi": 66,
          "name": "F#4",
          "ticks": 39168,
          "time": 35.999982,
          "velocity": 0.3937007874015748
        },
        {
          "duration": 0.7058819999999955,
          "durationTicks": 768,
          "midi": 62,
          "name": "D4",
          "ticks": 39168,
          "time": 35.999982,
          "velocity": 0.3937007874015748
        },
        {
          "duration": 0.3529410000000013,
          "durationTicks": 384,
          "midi": 43,
          "name": "G2",
          "ticks": 39936,
          "time": 36.705864,
          "velocity": 0.3937007874015748
        },
        {
          "duration": 0.3529410000000013,
          "durationTicks": 384,
          "midi": 67,
          "name": "G4",
          "ticks": 39936,
          "time": 36.705864,
          "velocity": 0.3937007874015748
        },
        {
          "duration": 0.3529410000000013,
          "durationTicks": 384,
          "midi": 62,
          "name": "D4",
          "ticks": 39936,
          "time": 36.705864,
          "velocity": 0.3937007874015748
        },
        {
          "duration": 0.3529410000000013,
          "durationTicks": 384,
          "midi": 59,
          "name": "B3",
          "ticks": 39936,
          "time": 36.705864,
          "velocity": 0.3937007874015748
        },
        {
          "duration": 0.3529410000000013,
          "durationTicks": 384,
          "midi": 43,
          "name": "G2",
          "ticks": 40320,
          "time": 37.058805,
          "velocity": 0.3937007874015748
        },
        {
          "duration": 0.5294115000000019,
          "durationTicks": 576,
          "midi": 55,
          "name": "G3",
          "ticks": 40704,
          "time": 37.411746,
          "velocity": 0.3937007874015748
        },
        {
          "duration": 0.17647050000000064,
          "durationTicks": 192,
          "midi": 55,
          "name": "G3",
          "ticks": 41280,
          "time": 37.9411575,
          "velocity": 0.3937007874015748
        },
        {
          "duration": 0.17647050000000064,
          "durationTicks": 192,
          "midi": 43,
          "name": "G2",
          "ticks": 41472,
          "time": 38.117628,
          "velocity": 0.3937007874015748
        },
        {
          "duration": 0.17647049999999354,
          "durationTicks": 192,
          "midi": 55,
          "name": "G3",
          "ticks": 41664,
          "time": 38.294098500000004,
          "velocity": 0.3937007874015748
        },
        {
          "duration": 0.3529410000000013,
          "durationTicks": 384,
          "midi": 43,
          "name": "G2",
          "ticks": 41856,
          "time": 38.470569,
          "velocity": 0.3937007874015748
        },
        {
          "duration": 0.7058820000000026,
          "durationTicks": 768,
          "midi": 55,
          "name": "G3",
          "ticks": 42240,
          "time": 38.82351,
          "velocity": 0.3937007874015748
        },
        {
          "duration": 0.3529410000000013,
          "durationTicks": 384,
          "midi": 43,
          "name": "G2",
          "ticks": 43008,
          "time": 39.529392,
          "velocity": 0.3937007874015748
        },
        {
          "duration": 0.3529410000000013,
          "durationTicks": 384,
          "midi": 67,
          "name": "G4",
          "ticks": 43008,
          "time": 39.529392,
          "velocity": 0.3937007874015748
        },
        {
          "duration": 0.3529410000000013,
          "durationTicks": 384,
          "midi": 62,
          "name": "D4",
          "ticks": 43008,
          "time": 39.529392,
          "velocity": 0.3937007874015748
        },
        {
          "duration": 0.3529410000000013,
          "durationTicks": 384,
          "midi": 59,
          "name": "B3",
          "ticks": 43008,
          "time": 39.529392,
          "velocity": 0.3937007874015748
        },
        {
          "duration": 0.3529410000000013,
          "durationTicks": 384,
          "midi": 43,
          "name": "G2",
          "ticks": 43392,
          "time": 39.882333,
          "velocity": 0.3937007874015748
        },
        {
          "duration": 0.7058819999999955,
          "durationTicks": 768,
          "midi": 55,
          "name": "G3",
          "ticks": 43776,
          "time": 40.235274000000004,
          "velocity": 0.3937007874015748
        },
        {
          "duration": 0.17647050000000064,
          "durationTicks": 192,
          "midi": 43,
          "name": "G2",
          "ticks": 44544,
          "time": 40.941156,
          "velocity": 0.3937007874015748
        },
        {
          "duration": 0.17647050000000064,
          "durationTicks": 192,
          "midi": 64,
          "name": "E4",
          "ticks": 44544,
          "time": 40.941156,
          "velocity": 0.3937007874015748
        },
        {
          "duration": 0.17647050000000064,
          "durationTicks": 192,
          "midi": 60,
          "name": "C4",
          "ticks": 44544,
          "time": 40.941156,
          "velocity": 0.3937007874015748
        },
        {
          "duration": 0.17647050000000064,
          "durationTicks": 192,
          "midi": 55,
          "name": "G3",
          "ticks": 44736,
          "time": 41.1176265,
          "velocity": 0.3937007874015748
        },
        {
          "duration": 0.3529410000000013,
          "durationTicks": 384,
          "midi": 43,
          "name": "G2",
          "ticks": 44928,
          "time": 41.294097,
          "velocity": 0.3937007874015748
        },
        {
          "duration": 0.7058819999999955,
          "durationTicks": 768,
          "midi": 57,
          "name": "A3",
          "ticks": 45312,
          "time": 41.647038,
          "velocity": 0.3937007874015748
        },
        {
          "duration": 0.7058819999999955,
          "durationTicks": 768,
          "midi": 66,
          "name": "F#4",
          "ticks": 45312,
          "time": 41.647038,
          "velocity": 0.3937007874015748
        },
        {
          "duration": 0.7058819999999955,
          "durationTicks": 768,
          "midi": 62,
          "name": "D4",
          "ticks": 45312,
          "time": 41.647038,
          "velocity": 0.3937007874015748
        },
        {
          "duration": 0.3529410000000013,
          "durationTicks": 384,
          "midi": 43,
          "name": "G2",
          "ticks": 46080,
          "time": 42.35292,
          "velocity": 0.3937007874015748
        },
        {
          "duration": 0.3529410000000013,
          "durationTicks": 384,
          "midi": 67,
          "name": "G4",
          "ticks": 46080,
          "time": 42.35292,
          "velocity": 0.3937007874015748
        },
        {
          "duration": 0.3529410000000013,
          "durationTicks": 384,
          "midi": 62,
          "name": "D4",
          "ticks": 46080,
          "time": 42.35292,
          "velocity": 0.3937007874015748
        },
        {
          "duration": 0.3529410000000013,
          "durationTicks": 384,
          "midi": 59,
          "name": "B3",
          "ticks": 46080,
          "time": 42.35292,
          "velocity": 0.3937007874015748
        },
        {
          "duration": 0.3529410000000013,
          "durationTicks": 384,
          "midi": 43,
          "name": "G2",
          "ticks": 46464,
          "time": 42.705861,
          "velocity": 0.3937007874015748
        },
        {
          "duration": 0.5294115000000019,
          "durationTicks": 576,
          "midi": 55,
          "name": "G3",
          "ticks": 46848,
          "time": 43.058802,
          "velocity": 0.3937007874015748
        },
        {
          "duration": 0.17647050000000064,
          "durationTicks": 192,
          "midi": 55,
          "name": "G3",
          "ticks": 47424,
          "time": 43.5882135,
          "velocity": 0.3937007874015748
        },
        {
          "duration": 0.17647050000000064,
          "durationTicks": 192,
          "midi": 43,
          "name": "G2",
          "ticks": 47616,
          "time": 43.764684,
          "velocity": 0.3937007874015748
        },
        {
          "duration": 0.17647050000000064,
          "durationTicks": 192,
          "midi": 55,
          "name": "G3",
          "ticks": 47808,
          "time": 43.9411545,
          "velocity": 0.3937007874015748
        },
        {
          "duration": 0.3529409999999942,
          "durationTicks": 384,
          "midi": 43,
          "name": "G2",
          "ticks": 48000,
          "time": 44.117625000000004,
          "velocity": 0.3937007874015748
        },
        {
          "duration": 0.7058820000000026,
          "durationTicks": 768,
          "midi": 55,
          "name": "G3",
          "ticks": 48384,
          "time": 44.470566,
          "velocity": 0.3937007874015748
        },
        {
          "duration": 0.17647050000000064,
          "durationTicks": 192,
          "midi": 50,
          "name": "D3",
          "ticks": 49152,
          "time": 45.176448,
          "velocity": 0.3937007874015748
        },
        {
          "duration": 0.17647050000000064,
          "durationTicks": 192,
          "midi": 62,
          "name": "D4",
          "ticks": 49152,
          "time": 45.176448,
          "velocity": 0.3937007874015748
        },
        {
          "duration": 0.3529410000000013,
          "durationTicks": 384,
          "midi": 50,
          "name": "D3",
          "ticks": 49536,
          "time": 45.529389,
          "velocity": 0.3937007874015748
        },
        {
          "duration": 0.17647050000000064,
          "durationTicks": 192,
          "midi": 62,
          "name": "D4",
          "ticks": 49920,
          "time": 45.88233,
          "velocity": 0.3937007874015748
        },
        {
          "duration": 0.17647049999999354,
          "durationTicks": 192,
          "midi": 50,
          "name": "D3",
          "ticks": 50112,
          "time": 46.058800500000004,
          "velocity": 0.3937007874015748
        },
        {
          "duration": 0.17647050000000064,
          "durationTicks": 192,
          "midi": 62,
          "name": "D4",
          "ticks": 50496,
          "time": 46.4117415,
          "velocity": 0.3937007874015748
        },
        {
          "duration": 0.17647050000000064,
          "durationTicks": 192,
          "midi": 50,
          "name": "D3",
          "ticks": 50688,
          "time": 46.588212,
          "velocity": 0.3937007874015748
        },
        {
          "duration": 0.17647050000000064,
          "durationTicks": 192,
          "midi": 60,
          "name": "C4",
          "ticks": 50688,
          "time": 46.588212,
          "velocity": 0.3937007874015748
        },
        {
          "duration": 0.3529410000000013,
          "durationTicks": 384,
          "midi": 50,
          "name": "D3",
          "ticks": 51072,
          "time": 46.941153,
          "velocity": 0.3937007874015748
        },
        {
          "duration": 0.17647050000000064,
          "durationTicks": 192,
          "midi": 60,
          "name": "C4",
          "ticks": 51456,
          "time": 47.294094,
          "velocity": 0.3937007874015748
        },
        {
          "duration": 0.17647050000000064,
          "durationTicks": 192,
          "midi": 50,
          "name": "D3",
          "ticks": 51648,
          "time": 47.4705645,
          "velocity": 0.3937007874015748
        },
        {
          "duration": 0.17647050000000064,
          "durationTicks": 192,
          "midi": 60,
          "name": "C4",
          "ticks": 52032,
          "time": 47.8235055,
          "velocity": 0.3937007874015748
        },
        {
          "duration": 0.17647049999999354,
          "durationTicks": 192,
          "midi": 50,
          "name": "D3",
          "ticks": 52224,
          "time": 47.999976000000004,
          "velocity": 0.3937007874015748
        },
        {
          "duration": 0.17647049999999354,
          "durationTicks": 192,
          "midi": 59,
          "name": "B3",
          "ticks": 52224,
          "time": 47.999976000000004,
          "velocity": 0.3937007874015748
        },
        {
          "duration": 0.3529410000000013,
          "durationTicks": 384,
          "midi": 50,
          "name": "D3",
          "ticks": 52608,
          "time": 48.352917,
          "velocity": 0.3937007874015748
        },
        {
          "duration": 0.17647050000000064,
          "durationTicks": 192,
          "midi": 59,
          "name": "B3",
          "ticks": 52992,
          "time": 48.705858,
          "velocity": 0.3937007874015748
        },
        {
          "duration": 0.17647050000000064,
          "durationTicks": 192,
          "midi": 50,
          "name": "D3",
          "ticks": 53184,
          "time": 48.8823285,
          "velocity": 0.3937007874015748
        },
        {
          "duration": 0.17647050000000064,
          "durationTicks": 192,
          "midi": 59,
          "name": "B3",
          "ticks": 53568,
          "time": 49.2352695,
          "velocity": 0.3937007874015748
        },
        {
          "duration": 0.17647050000000064,
          "durationTicks": 192,
          "midi": 50,
          "name": "D3",
          "ticks": 53760,
          "time": 49.41174,
          "velocity": 0.3937007874015748
        },
        {
          "duration": 0.17647050000000064,
          "durationTicks": 192,
          "midi": 57,
          "name": "A3",
          "ticks": 53760,
          "time": 49.41174,
          "velocity": 0.3937007874015748
        },
        {
          "duration": 0.3529409999999942,
          "durationTicks": 384,
          "midi": 50,
          "name": "D3",
          "ticks": 54144,
          "time": 49.764681,
          "velocity": 0.3937007874015748
        },
        {
          "duration": 0.17647050000000064,
          "durationTicks": 192,
          "midi": 57,
          "name": "A3",
          "ticks": 54528,
          "time": 50.117622,
          "velocity": 0.3937007874015748
        },
        {
          "duration": 0.17647050000000064,
          "durationTicks": 192,
          "midi": 50,
          "name": "D3",
          "ticks": 54720,
          "time": 50.2940925,
          "velocity": 0.3937007874015748
        },
        {
          "duration": 0.17647050000000064,
          "durationTicks": 192,
          "midi": 50,
          "name": "D3",
          "ticks": 55296,
          "time": 50.823504,
          "velocity": 0.3937007874015748
        },
        {
          "duration": 0.17647050000000064,
          "durationTicks": 192,
          "midi": 62,
          "name": "D4",
          "ticks": 55296,
          "time": 50.823504,
          "velocity": 0.3937007874015748
        },
        {
          "duration": 0.3529410000000013,
          "durationTicks": 384,
          "midi": 50,
          "name": "D3",
          "ticks": 55680,
          "time": 51.176445,
          "velocity": 0.3937007874015748
        },
        {
          "duration": 0.17647050000000064,
          "durationTicks": 192,
          "midi": 62,
          "name": "D4",
          "ticks": 56064,
          "time": 51.529386,
          "velocity": 0.3937007874015748
        },
        {
          "duration": 0.17647050000000064,
          "durationTicks": 192,
          "midi": 50,
          "name": "D3",
          "ticks": 56256,
          "time": 51.7058565,
          "velocity": 0.3937007874015748
        },
        {
          "duration": 0.17647050000000064,
          "durationTicks": 192,
          "midi": 62,
          "name": "D4",
          "ticks": 56640,
          "time": 52.0587975,
          "velocity": 0.3937007874015748
        },
        {
          "duration": 0.17647050000000064,
          "durationTicks": 192,
          "midi": 50,
          "name": "D3",
          "ticks": 56832,
          "time": 52.235268,
          "velocity": 0.3937007874015748
        },
        {
          "duration": 0.17647050000000064,
          "durationTicks": 192,
          "midi": 60,
          "name": "C4",
          "ticks": 56832,
          "time": 52.235268,
          "velocity": 0.3937007874015748
        },
        {
          "duration": 0.3529410000000013,
          "durationTicks": 384,
          "midi": 50,
          "name": "D3",
          "ticks": 57216,
          "time": 52.588209,
          "velocity": 0.3937007874015748
        },
        {
          "duration": 0.17647050000000064,
          "durationTicks": 192,
          "midi": 60,
          "name": "C4",
          "ticks": 57600,
          "time": 52.94115,
          "velocity": 0.3937007874015748
        },
        {
          "duration": 0.17647050000000064,
          "durationTicks": 192,
          "midi": 50,
          "name": "D3",
          "ticks": 57792,
          "time": 53.1176205,
          "velocity": 0.3937007874015748
        },
        {
          "duration": 0.17647050000000064,
          "durationTicks": 192,
          "midi": 60,
          "name": "C4",
          "ticks": 58176,
          "time": 53.4705615,
          "velocity": 0.3937007874015748
        },
        {
          "duration": 0.17647050000000064,
          "durationTicks": 192,
          "midi": 50,
          "name": "D3",
          "ticks": 58368,
          "time": 53.647032,
          "velocity": 0.3937007874015748
        },
        {
          "duration": 0.17647050000000064,
          "durationTicks": 192,
          "midi": 59,
          "name": "B3",
          "ticks": 58368,
          "time": 53.647032,
          "velocity": 0.3937007874015748
        },
        {
          "duration": 0.3529409999999942,
          "durationTicks": 384,
          "midi": 50,
          "name": "D3",
          "ticks": 58752,
          "time": 53.999973000000004,
          "velocity": 0.3937007874015748
        },
        {
          "duration": 0.17647050000000064,
          "durationTicks": 192,
          "midi": 59,
          "name": "B3",
          "ticks": 59136,
          "time": 54.352914,
          "velocity": 0.3937007874015748
        },
        {
          "duration": 0.17647050000000064,
          "durationTicks": 192,
          "midi": 50,
          "name": "D3",
          "ticks": 59328,
          "time": 54.5293845,
          "velocity": 0.3937007874015748
        },
        {
          "duration": 0.17647050000000064,
          "durationTicks": 192,
          "midi": 59,
          "name": "B3",
          "ticks": 59712,
          "time": 54.8823255,
          "velocity": 0.3937007874015748
        },
        {
          "duration": 0.17647050000000064,
          "durationTicks": 192,
          "midi": 50,
          "name": "D3",
          "ticks": 59904,
          "time": 55.058796,
          "velocity": 0.3937007874015748
        },
        {
          "duration": 0.17647050000000064,
          "durationTicks": 192,
          "midi": 57,
          "name": "A3",
          "ticks": 59904,
          "time": 55.058796,
          "velocity": 0.3937007874015748
        },
        {
          "duration": 0.3529410000000013,
          "durationTicks": 384,
          "midi": 50,
          "name": "D3",
          "ticks": 60288,
          "time": 55.411737,
          "velocity": 0.3937007874015748
        },
        {
          "duration": 0.17647050000000064,
          "durationTicks": 192,
          "midi": 57,
          "name": "A3",
          "ticks": 60672,
          "time": 55.764678,
          "velocity": 0.3937007874015748
        },
        {
          "duration": 0.17647049999999354,
          "durationTicks": 192,
          "midi": 50,
          "name": "D3",
          "ticks": 60864,
          "time": 55.941148500000004,
          "velocity": 0.3937007874015748
        },
        {
          "duration": 0.7058820000000026,
          "durationTicks": 768,
          "midi": 46,
          "name": "A#2",
          "ticks": 61440,
          "time": 56.47056,
          "velocity": 0.3937007874015748
        },
        {
          "duration": 0.7058820000000026,
          "durationTicks": 768,
          "midi": 53,
          "name": "F3",
          "ticks": 61440,
          "time": 56.47056,
          "velocity": 0.3937007874015748
        },
        {
          "duration": 0.7058820000000026,
          "durationTicks": 768,
          "midi": 58,
          "name": "A#3",
          "ticks": 61440,
          "time": 56.47056,
          "velocity": 0.3937007874015748
        },
        {
          "duration": 0.7058820000000026,
          "durationTicks": 768,
          "midi": 62,
          "name": "D4",
          "ticks": 61440,
          "time": 56.47056,
          "velocity": 0.3937007874015748
        },
        {
          "duration": 0.5294115000000019,
          "durationTicks": 576,
          "midi": 46,
          "name": "A#2",
          "ticks": 62208,
          "time": 57.176442,
          "velocity": 0.3937007874015748
        },
        {
          "duration": 0.5294115000000019,
          "durationTicks": 576,
          "midi": 53,
          "name": "F3",
          "ticks": 62208,
          "time": 57.176442,
          "velocity": 0.3937007874015748
        },
        {
          "duration": 0.5294115000000019,
          "durationTicks": 576,
          "midi": 58,
          "name": "A#3",
          "ticks": 62208,
          "time": 57.176442,
          "velocity": 0.3937007874015748
        },
        {
          "duration": 0.5294115000000019,
          "durationTicks": 576,
          "midi": 62,
          "name": "D4",
          "ticks": 62208,
          "time": 57.176442,
          "velocity": 0.3937007874015748
        },
        {
          "duration": 0.17647050000000064,
          "durationTicks": 192,
          "midi": 55,
          "name": "G3",
          "ticks": 62784,
          "time": 57.7058535,
          "velocity": 0.3937007874015748
        },
        {
          "duration": 0.17647050000000064,
          "durationTicks": 192,
          "midi": 50,
          "name": "D3",
          "ticks": 62784,
          "time": 57.7058535,
          "velocity": 0.3937007874015748
        },
        {
          "duration": 0.17647049999999354,
          "durationTicks": 192,
          "midi": 48,
          "name": "C3",
          "ticks": 62976,
          "time": 57.882324000000004,
          "velocity": 0.3937007874015748
        },
        {
          "duration": 0.17647050000000064,
          "durationTicks": 192,
          "midi": 55,
          "name": "G3",
          "ticks": 63168,
          "time": 58.0587945,
          "velocity": 0.3937007874015748
        },
        {
          "duration": 0.17647050000000064,
          "durationTicks": 192,
          "midi": 60,
          "name": "C4",
          "ticks": 63168,
          "time": 58.0587945,
          "velocity": 0.3937007874015748
        },
        {
          "duration": 0.17647050000000064,
          "durationTicks": 192,
          "midi": 64,
          "name": "E4",
          "ticks": 63168,
          "time": 58.0587945,
          "velocity": 0.3937007874015748
        },
        {
          "duration": 0.3529410000000013,
          "durationTicks": 384,
          "midi": 48,
          "name": "C3",
          "ticks": 63360,
          "time": 58.235265,
          "velocity": 0.3937007874015748
        },
        {
          "duration": 0.5294115000000019,
          "durationTicks": 576,
          "midi": 55,
          "name": "G3",
          "ticks": 63744,
          "time": 58.588206,
          "velocity": 0.3937007874015748
        },
        {
          "duration": 0.5294115000000019,
          "durationTicks": 576,
          "midi": 60,
          "name": "C4",
          "ticks": 63744,
          "time": 58.588206,
          "velocity": 0.3937007874015748
        },
        {
          "duration": 0.5294115000000019,
          "durationTicks": 576,
          "midi": 64,
          "name": "E4",
          "ticks": 63744,
          "time": 58.588206,
          "velocity": 0.3937007874015748
        },
        {
          "duration": 0.5294115000000019,
          "durationTicks": 576,
          "midi": 48,
          "name": "C3",
          "ticks": 63744,
          "time": 58.588206,
          "velocity": 0.3937007874015748
        },
        {
          "duration": 0.17647050000000064,
          "durationTicks": 192,
          "midi": 55,
          "name": "G3",
          "ticks": 64320,
          "time": 59.1176175,
          "velocity": 0.3937007874015748
        },
        {
          "duration": 0.17647050000000064,
          "durationTicks": 192,
          "midi": 64,
          "name": "E4",
          "ticks": 64320,
          "time": 59.1176175,
          "velocity": 0.3937007874015748
        },
        {
          "duration": 0.17647050000000064,
          "durationTicks": 192,
          "midi": 60,
          "name": "C4",
          "ticks": 64320,
          "time": 59.1176175,
          "velocity": 0.3937007874015748
        },
        {
          "duration": 0.17647050000000064,
          "durationTicks": 192,
          "midi": 48,
          "name": "C3",
          "ticks": 64320,
          "time": 59.1176175,
          "velocity": 0.3937007874015748
        },
        {
          "duration": 1.411763999999998,
          "durationTicks": 1536,
          "midi": 50,
          "name": "D3",
          "ticks": 64512,
          "time": 59.294088,
          "velocity": 0.3937007874015748
        },
        {
          "duration": 1.411763999999998,
          "durationTicks": 1536,
          "midi": 57,
          "name": "A3",
          "ticks": 64512,
          "time": 59.294088,
          "velocity": 0.3937007874015748
        },
        {
          "duration": 1.411763999999998,
          "durationTicks": 1536,
          "midi": 62,
          "name": "D4",
          "ticks": 64512,
          "time": 59.294088,
          "velocity": 0.3937007874015748
        },
        {
          "duration": 1.411763999999998,
          "durationTicks": 1536,
          "midi": 66,
          "name": "F#4",
          "ticks": 64512,
          "time": 59.294088,
          "velocity": 0.3937007874015748
        },
        {
          "duration": 0.17647050000000064,
          "durationTicks": 192,
          "midi": 50,
          "name": "D3",
          "ticks": 66048,
          "time": 60.705852,
          "velocity": 0.3937007874015748
        },
        {
          "duration": 0.17647050000000064,
          "durationTicks": 192,
          "midi": 57,
          "name": "A3",
          "ticks": 66048,
          "time": 60.705852,
          "velocity": 0.3937007874015748
        },
        {
          "duration": 0.17647050000000064,
          "durationTicks": 192,
          "midi": 50,
          "name": "D3",
          "ticks": 66240,
          "time": 60.8823225,
          "velocity": 0.3937007874015748
        },
        {
          "duration": 0.17647050000000064,
          "durationTicks": 192,
          "midi": 57,
          "name": "A3",
          "ticks": 66240,
          "time": 60.8823225,
          "velocity": 0.3937007874015748
        },
        {
          "duration": 0.7058819999999955,
          "durationTicks": 768,
          "midi": 50,
          "name": "D3",
          "ticks": 66816,
          "time": 61.411734,
          "velocity": 0.3937007874015748
        },
        {
          "duration": 0.7058819999999955,
          "durationTicks": 768,
          "midi": 57,
          "name": "A3",
          "ticks": 66816,
          "time": 61.411734,
          "velocity": 0.3937007874015748
        },
        {
          "duration": 0.3529410000000013,
          "durationTicks": 384,
          "midi": 41,
          "name": "F2",
          "ticks": 67584,
          "time": 62.117616,
          "velocity": 0.3937007874015748
        },
        {
          "duration": 0.3529410000000013,
          "durationTicks": 384,
          "midi": 65,
          "name": "F4",
          "ticks": 67584,
          "time": 62.117616,
          "velocity": 0.3937007874015748
        },
        {
          "duration": 0.3529410000000013,
          "durationTicks": 384,
          "midi": 60,
          "name": "C4",
          "ticks": 67584,
          "time": 62.117616,
          "velocity": 0.3937007874015748
        },
        {
          "duration": 0.3529410000000013,
          "durationTicks": 384,
          "midi": 57,
          "name": "A3",
          "ticks": 67584,
          "time": 62.117616,
          "velocity": 0.3937007874015748
        },
        {
          "duration": 0.3529410000000013,
          "durationTicks": 384,
          "midi": 41,
          "name": "F2",
          "ticks": 67968,
          "time": 62.470557,
          "velocity": 0.3937007874015748
        },
        {
          "duration": 0.7058820000000026,
          "durationTicks": 768,
          "midi": 53,
          "name": "F3",
          "ticks": 68352,
          "time": 62.823498,
          "velocity": 0.3937007874015748
        },
        {
          "duration": 0.17647050000000064,
          "durationTicks": 192,
          "midi": 41,
          "name": "F2",
          "ticks": 69120,
          "time": 63.52938,
          "velocity": 0.3937007874015748
        },
        {
          "duration": 0.17647050000000064,
          "durationTicks": 192,
          "midi": 62,
          "name": "D4",
          "ticks": 69120,
          "time": 63.52938,
          "velocity": 0.3937007874015748
        },
        {
          "duration": 0.17647050000000064,
          "durationTicks": 192,
          "midi": 58,
          "name": "A#3",
          "ticks": 69120,
          "time": 63.52938,
          "velocity": 0.3937007874015748
        },
        {
          "duration": 0.17647049999999354,
          "durationTicks": 192,
          "midi": 53,
          "name": "F3",
          "ticks": 69312,
          "time": 63.705850500000004,
          "velocity": 0.3937007874015748
        },
        {
          "duration": 0.3529410000000084,
          "durationTicks": 384,
          "midi": 41,
          "name": "F2",
          "ticks": 69504,
          "time": 63.882321,
          "velocity": 0.3937007874015748
        },
        {
          "duration": 0.7058819999999884,
          "durationTicks": 768,
          "midi": 55,
          "name": "G3",
          "ticks": 69888,
          "time": 64.235262,
          "velocity": 0.3937007874015748
        },
        {
          "duration": 0.7058819999999884,
          "durationTicks": 768,
          "midi": 64,
          "name": "E4",
          "ticks": 69888,
          "time": 64.235262,
          "velocity": 0.3937007874015748
        },
        {
          "duration": 0.7058819999999884,
          "durationTicks": 768,
          "midi": 60,
          "name": "C4",
          "ticks": 69888,
          "time": 64.235262,
          "velocity": 0.3937007874015748
        },
        {
          "duration": 0.3529410000000013,
          "durationTicks": 384,
          "midi": 41,
          "name": "F2",
          "ticks": 70656,
          "time": 64.941144,
          "velocity": 0.3937007874015748
        },
        {
          "duration": 0.3529410000000013,
          "durationTicks": 384,
          "midi": 65,
          "name": "F4",
          "ticks": 70656,
          "time": 64.941144,
          "velocity": 0.3937007874015748
        },
        {
          "duration": 0.3529410000000013,
          "durationTicks": 384,
          "midi": 60,
          "name": "C4",
          "ticks": 70656,
          "time": 64.941144,
          "velocity": 0.3937007874015748
        },
        {
          "duration": 0.3529410000000013,
          "durationTicks": 384,
          "midi": 57,
          "name": "A3",
          "ticks": 70656,
          "time": 64.941144,
          "velocity": 0.3937007874015748
        },
        {
          "duration": 0.3529410000000013,
          "durationTicks": 384,
          "midi": 41,
          "name": "F2",
          "ticks": 71040,
          "time": 65.294085,
          "velocity": 0.3937007874015748
        },
        {
          "duration": 0.529411500000009,
          "durationTicks": 576,
          "midi": 53,
          "name": "F3",
          "ticks": 71424,
          "time": 65.647026,
          "velocity": 0.3937007874015748
        },
        {
          "duration": 0.17647049999999354,
          "durationTicks": 192,
          "midi": 53,
          "name": "F3",
          "ticks": 72000,
          "time": 66.1764375,
          "velocity": 0.3937007874015748
        },
        {
          "duration": 0.17647050000000775,
          "durationTicks": 192,
          "midi": 41,
          "name": "F2",
          "ticks": 72192,
          "time": 66.352908,
          "velocity": 0.3937007874015748
        },
        {
          "duration": 0.17647049999999354,
          "durationTicks": 192,
          "midi": 53,
          "name": "F3",
          "ticks": 72384,
          "time": 66.5293785,
          "velocity": 0.3937007874015748
        },
        {
          "duration": 0.3529410000000013,
          "durationTicks": 384,
          "midi": 41,
          "name": "F2",
          "ticks": 72576,
          "time": 66.705849,
          "velocity": 0.3937007874015748
        },
        {
          "duration": 0.7058820000000026,
          "durationTicks": 768,
          "midi": 53,
          "name": "F3",
          "ticks": 72960,
          "time": 67.05879,
          "velocity": 0.3937007874015748
        },
        {
          "duration": 0.3529410000000013,
          "durationTicks": 384,
          "midi": 41,
          "name": "F2",
          "ticks": 73728,
          "time": 67.764672,
          "velocity": 0.3937007874015748
        },
        {
          "duration": 0.3529410000000013,
          "durationTicks": 384,
          "midi": 65,
          "name": "F4",
          "ticks": 73728,
          "time": 67.764672,
          "velocity": 0.3937007874015748
        },
        {
          "duration": 0.3529410000000013,
          "durationTicks": 384,
          "midi": 60,
          "name": "C4",
          "ticks": 73728,
          "time": 67.764672,
          "velocity": 0.3937007874015748
        },
        {
          "duration": 0.3529410000000013,
          "durationTicks": 384,
          "midi": 57,
          "name": "A3",
          "ticks": 73728,
          "time": 67.764672,
          "velocity": 0.3937007874015748
        },
        {
          "duration": 0.3529410000000013,
          "durationTicks": 384,
          "midi": 41,
          "name": "F2",
          "ticks": 74112,
          "time": 68.117613,
          "velocity": 0.3937007874015748
        },
        {
          "duration": 0.7058819999999884,
          "durationTicks": 768,
          "midi": 53,
          "name": "F3",
          "ticks": 74496,
          "time": 68.470554,
          "velocity": 0.3937007874015748
        },
        {
          "duration": 0.17647050000000775,
          "durationTicks": 192,
          "midi": 41,
          "name": "F2",
          "ticks": 75264,
          "time": 69.176436,
          "velocity": 0.3937007874015748
        },
        {
          "duration": 0.17647050000000775,
          "durationTicks": 192,
          "midi": 62,
          "name": "D4",
          "ticks": 75264,
          "time": 69.176436,
          "velocity": 0.3937007874015748
        },
        {
          "duration": 0.17647050000000775,
          "durationTicks": 192,
          "midi": 58,
          "name": "A#3",
          "ticks": 75264,
          "time": 69.176436,
          "velocity": 0.3937007874015748
        },
        {
          "duration": 0.17647049999999354,
          "durationTicks": 192,
          "midi": 53,
          "name": "F3",
          "ticks": 75456,
          "time": 69.3529065,
          "velocity": 0.3937007874015748
        },
        {
          "duration": 0.3529410000000013,
          "durationTicks": 384,
          "midi": 41,
          "name": "F2",
          "ticks": 75648,
          "time": 69.529377,
          "velocity": 0.3937007874015748
        },
        {
          "duration": 0.7058820000000026,
          "durationTicks": 768,
          "midi": 55,
          "name": "G3",
          "ticks": 76032,
          "time": 69.882318,
          "velocity": 0.3937007874015748
        },
        {
          "duration": 0.7058820000000026,
          "durationTicks": 768,
          "midi": 64,
          "name": "E4",
          "ticks": 76032,
          "time": 69.882318,
          "velocity": 0.3937007874015748
        },
        {
          "duration": 0.7058820000000026,
          "durationTicks": 768,
          "midi": 60,
          "name": "C4",
          "ticks": 76032,
          "time": 69.882318,
          "velocity": 0.3937007874015748
        },
        {
          "duration": 0.3529410000000013,
          "durationTicks": 384,
          "midi": 41,
          "name": "F2",
          "ticks": 76800,
          "time": 70.5882,
          "velocity": 0.3937007874015748
        },
        {
          "duration": 0.3529410000000013,
          "durationTicks": 384,
          "midi": 65,
          "name": "F4",
          "ticks": 76800,
          "time": 70.5882,
          "velocity": 0.3937007874015748
        },
        {
          "duration": 0.3529410000000013,
          "durationTicks": 384,
          "midi": 60,
          "name": "C4",
          "ticks": 76800,
          "time": 70.5882,
          "velocity": 0.3937007874015748
        },
        {
          "duration": 0.3529410000000013,
          "durationTicks": 384,
          "midi": 57,
          "name": "A3",
          "ticks": 76800,
          "time": 70.5882,
          "velocity": 0.3937007874015748
        },
        {
          "duration": 0.3529410000000013,
          "durationTicks": 384,
          "midi": 41,
          "name": "F2",
          "ticks": 77184,
          "time": 70.941141,
          "velocity": 0.3937007874015748
        },
        {
          "duration": 0.5294114999999948,
          "durationTicks": 576,
          "midi": 53,
          "name": "F3",
          "ticks": 77568,
          "time": 71.294082,
          "velocity": 0.3937007874015748
        },
        {
          "duration": 0.17647050000000775,
          "durationTicks": 192,
          "midi": 53,
          "name": "F3",
          "ticks": 78144,
          "time": 71.8234935,
          "velocity": 0.3937007874015748
        },
        {
          "duration": 0.17647049999999354,
          "durationTicks": 192,
          "midi": 41,
          "name": "F2",
          "ticks": 78336,
          "time": 71.999964,
          "velocity": 0.3937007874015748
        },
        {
          "duration": 0.17647050000000775,
          "durationTicks": 192,
          "midi": 53,
          "name": "F3",
          "ticks": 78528,
          "time": 72.1764345,
          "velocity": 0.3937007874015748
        },
        {
          "duration": 0.35294099999998707,
          "durationTicks": 384,
          "midi": 41,
          "name": "F2",
          "ticks": 78720,
          "time": 72.352905,
          "velocity": 0.3937007874015748
        },
        {
          "duration": 0.7058820000000026,
          "durationTicks": 768,
          "midi": 53,
          "name": "F3",
          "ticks": 79104,
          "time": 72.705846,
          "velocity": 0.3937007874015748
        },
        {
          "duration": 0.3529410000000013,
          "durationTicks": 384,
          "midi": 43,
          "name": "G2",
          "ticks": 79872,
          "time": 73.411728,
          "velocity": 0.3937007874015748
        },
        {
          "duration": 0.3529410000000013,
          "durationTicks": 384,
          "midi": 67,
          "name": "G4",
          "ticks": 79872,
          "time": 73.411728,
          "velocity": 0.3937007874015748
        },
        {
          "duration": 0.3529410000000013,
          "durationTicks": 384,
          "midi": 62,
          "name": "D4",
          "ticks": 79872,
          "time": 73.411728,
          "velocity": 0.3937007874015748
        },
        {
          "duration": 0.3529410000000013,
          "durationTicks": 384,
          "midi": 59,
          "name": "B3",
          "ticks": 79872,
          "time": 73.411728,
          "velocity": 0.3937007874015748
        },
        {
          "duration": 0.3529410000000013,
          "durationTicks": 384,
          "midi": 43,
          "name": "G2",
          "ticks": 80256,
          "time": 73.764669,
          "velocity": 0.3937007874015748
        },
        {
          "duration": 0.7058820000000026,
          "durationTicks": 768,
          "midi": 55,
          "name": "G3",
          "ticks": 80640,
          "time": 74.11761,
          "velocity": 0.3937007874015748
        },
        {
          "duration": 0.17647049999999354,
          "durationTicks": 192,
          "midi": 43,
          "name": "G2",
          "ticks": 81408,
          "time": 74.823492,
          "velocity": 0.3937007874015748
        },
        {
          "duration": 0.17647049999999354,
          "durationTicks": 192,
          "midi": 64,
          "name": "E4",
          "ticks": 81408,
          "time": 74.823492,
          "velocity": 0.3937007874015748
        },
        {
          "duration": 0.17647049999999354,
          "durationTicks": 192,
          "midi": 60,
          "name": "C4",
          "ticks": 81408,
          "time": 74.823492,
          "velocity": 0.3937007874015748
        },
        {
          "duration": 0.17647050000000775,
          "durationTicks": 192,
          "midi": 55,
          "name": "G3",
          "ticks": 81600,
          "time": 74.9999625,
          "velocity": 0.3937007874015748
        },
        {
          "duration": 0.3529410000000013,
          "durationTicks": 384,
          "midi": 43,
          "name": "G2",
          "ticks": 81792,
          "time": 75.176433,
          "velocity": 0.3937007874015748
        },
        {
          "duration": 0.7058820000000026,
          "durationTicks": 768,
          "midi": 57,
          "name": "A3",
          "ticks": 82176,
          "time": 75.529374,
          "velocity": 0.3937007874015748
        },
        {
          "duration": 0.7058820000000026,
          "durationTicks": 768,
          "midi": 66,
          "name": "F#4",
          "ticks": 82176,
          "time": 75.529374,
          "velocity": 0.3937007874015748
        },
        {
          "duration": 0.7058820000000026,
          "durationTicks": 768,
          "midi": 62,
          "name": "D4",
          "ticks": 82176,
          "time": 75.529374,
          "velocity": 0.3937007874015748
        },
        {
          "duration": 0.3529410000000013,
          "durationTicks": 384,
          "midi": 43,
          "name": "G2",
          "ticks": 82944,
          "time": 76.235256,
          "velocity": 0.3937007874015748
        },
        {
          "duration": 0.3529410000000013,
          "durationTicks": 384,
          "midi": 67,
          "name": "G4",
          "ticks": 82944,
          "time": 76.235256,
          "velocity": 0.3937007874015748
        },
        {
          "duration": 0.3529410000000013,
          "durationTicks": 384,
          "midi": 62,
          "name": "D4",
          "ticks": 82944,
          "time": 76.235256,
          "velocity": 0.3937007874015748
        },
        {
          "duration": 0.3529410000000013,
          "durationTicks": 384,
          "midi": 59,
          "name": "B3",
          "ticks": 82944,
          "time": 76.235256,
          "velocity": 0.3937007874015748
        },
        {
          "duration": 0.35294099999998707,
          "durationTicks": 384,
          "midi": 43,
          "name": "G2",
          "ticks": 83328,
          "time": 76.58819700000001,
          "velocity": 0.3937007874015748
        },
        {
          "duration": 0.529411500000009,
          "durationTicks": 576,
          "midi": 55,
          "name": "G3",
          "ticks": 83712,
          "time": 76.941138,
          "velocity": 0.3937007874015748
        },
        {
          "duration": 0.17647049999999354,
          "durationTicks": 192,
          "midi": 55,
          "name": "G3",
          "ticks": 84288,
          "time": 77.4705495,
          "velocity": 0.3937007874015748
        },
        {
          "duration": 0.17647050000000775,
          "durationTicks": 192,
          "midi": 43,
          "name": "G2",
          "ticks": 84480,
          "time": 77.64702,
          "velocity": 0.3937007874015748
        },
        {
          "duration": 0.17647049999999354,
          "durationTicks": 192,
          "midi": 55,
          "name": "G3",
          "ticks": 84672,
          "time": 77.8234905,
          "velocity": 0.3937007874015748
        },
        {
          "duration": 0.3529410000000013,
          "durationTicks": 384,
          "midi": 43,
          "name": "G2",
          "ticks": 84864,
          "time": 77.999961,
          "velocity": 0.3937007874015748
        },
        {
          "duration": 0.7058820000000026,
          "durationTicks": 768,
          "midi": 55,
          "name": "G3",
          "ticks": 85248,
          "time": 78.352902,
          "velocity": 0.3937007874015748
        },
        {
          "duration": 0.3529410000000013,
          "durationTicks": 384,
          "midi": 43,
          "name": "G2",
          "ticks": 86016,
          "time": 79.058784,
          "velocity": 0.3937007874015748
        },
        {
          "duration": 0.3529410000000013,
          "durationTicks": 384,
          "midi": 67,
          "name": "G4",
          "ticks": 86016,
          "time": 79.058784,
          "velocity": 0.3937007874015748
        },
        {
          "duration": 0.3529410000000013,
          "durationTicks": 384,
          "midi": 62,
          "name": "D4",
          "ticks": 86016,
          "time": 79.058784,
          "velocity": 0.3937007874015748
        },
        {
          "duration": 0.3529410000000013,
          "durationTicks": 384,
          "midi": 59,
          "name": "B3",
          "ticks": 86016,
          "time": 79.058784,
          "velocity": 0.3937007874015748
        },
        {
          "duration": 0.3529410000000013,
          "durationTicks": 384,
          "midi": 43,
          "name": "G2",
          "ticks": 86400,
          "time": 79.411725,
          "velocity": 0.3937007874015748
        },
        {
          "duration": 0.7058820000000026,
          "durationTicks": 768,
          "midi": 55,
          "name": "G3",
          "ticks": 86784,
          "time": 79.764666,
          "velocity": 0.3937007874015748
        },
        {
          "duration": 0.17647049999999354,
          "durationTicks": 192,
          "midi": 43,
          "name": "G2",
          "ticks": 87552,
          "time": 80.47054800000001,
          "velocity": 0.3937007874015748
        },
        {
          "duration": 0.17647049999999354,
          "durationTicks": 192,
          "midi": 64,
          "name": "E4",
          "ticks": 87552,
          "time": 80.47054800000001,
          "velocity": 0.3937007874015748
        },
        {
          "duration": 0.17647049999999354,
          "durationTicks": 192,
          "midi": 60,
          "name": "C4",
          "ticks": 87552,
          "time": 80.47054800000001,
          "velocity": 0.3937007874015748
        },
        {
          "duration": 0.17647049999999354,
          "durationTicks": 192,
          "midi": 55,
          "name": "G3",
          "ticks": 87744,
          "time": 80.6470185,
          "velocity": 0.3937007874015748
        },
        {
          "duration": 0.3529410000000013,
          "durationTicks": 384,
          "midi": 43,
          "name": "G2",
          "ticks": 87936,
          "time": 80.823489,
          "velocity": 0.3937007874015748
        },
        {
          "duration": 0.7058820000000026,
          "durationTicks": 768,
          "midi": 57,
          "name": "A3",
          "ticks": 88320,
          "time": 81.17643,
          "velocity": 0.3937007874015748
        },
        {
          "duration": 0.7058820000000026,
          "durationTicks": 768,
          "midi": 66,
          "name": "F#4",
          "ticks": 88320,
          "time": 81.17643,
          "velocity": 0.3937007874015748
        },
        {
          "duration": 0.7058820000000026,
          "durationTicks": 768,
          "midi": 62,
          "name": "D4",
          "ticks": 88320,
          "time": 81.17643,
          "velocity": 0.3937007874015748
        },
        {
          "duration": 0.3529410000000013,
          "durationTicks": 384,
          "midi": 43,
          "name": "G2",
          "ticks": 89088,
          "time": 81.882312,
          "velocity": 0.3937007874015748
        },
        {
          "duration": 0.3529410000000013,
          "durationTicks": 384,
          "midi": 67,
          "name": "G4",
          "ticks": 89088,
          "time": 81.882312,
          "velocity": 0.3937007874015748
        },
        {
          "duration": 0.3529410000000013,
          "durationTicks": 384,
          "midi": 62,
          "name": "D4",
          "ticks": 89088,
          "time": 81.882312,
          "velocity": 0.3937007874015748
        },
        {
          "duration": 0.3529410000000013,
          "durationTicks": 384,
          "midi": 59,
          "name": "B3",
          "ticks": 89088,
          "time": 81.882312,
          "velocity": 0.3937007874015748
        },
        {
          "duration": 0.3529410000000013,
          "durationTicks": 384,
          "midi": 43,
          "name": "G2",
          "ticks": 89472,
          "time": 82.235253,
          "velocity": 0.3937007874015748
        },
        {
          "duration": 0.5294114999999948,
          "durationTicks": 576,
          "midi": 55,
          "name": "G3",
          "ticks": 89856,
          "time": 82.588194,
          "velocity": 0.3937007874015748
        },
        {
          "duration": 0.17647050000000775,
          "durationTicks": 192,
          "midi": 55,
          "name": "G3",
          "ticks": 90432,
          "time": 83.1176055,
          "velocity": 0.3937007874015748
        },
        {
          "duration": 0.17647049999999354,
          "durationTicks": 192,
          "midi": 43,
          "name": "G2",
          "ticks": 90624,
          "time": 83.294076,
          "velocity": 0.3937007874015748
        },
        {
          "duration": 0.17647050000000775,
          "durationTicks": 192,
          "midi": 55,
          "name": "G3",
          "ticks": 90816,
          "time": 83.4705465,
          "velocity": 0.3937007874015748
        },
        {
          "duration": 0.3529410000000013,
          "durationTicks": 384,
          "midi": 43,
          "name": "G2",
          "ticks": 91008,
          "time": 83.647017,
          "velocity": 0.3937007874015748
        },
        {
          "duration": 0.7058819999999884,
          "durationTicks": 768,
          "midi": 55,
          "name": "G3",
          "ticks": 91392,
          "time": 83.999958,
          "velocity": 0.3937007874015748
        },
        {
          "duration": 0.17647050000000775,
          "durationTicks": 192,
          "midi": 50,
          "name": "D3",
          "ticks": 92160,
          "time": 84.70584,
          "velocity": 0.3937007874015748
        },
        {
          "duration": 0.17647050000000775,
          "durationTicks": 192,
          "midi": 62,
          "name": "D4",
          "ticks": 92160,
          "time": 84.70584,
          "velocity": 0.3937007874015748
        },
        {
          "duration": 0.3529410000000013,
          "durationTicks": 384,
          "midi": 50,
          "name": "D3",
          "ticks": 92544,
          "time": 85.058781,
          "velocity": 0.3937007874015748
        },
        {
          "duration": 0.17647050000000775,
          "durationTicks": 192,
          "midi": 62,
          "name": "D4",
          "ticks": 92928,
          "time": 85.411722,
          "velocity": 0.3937007874015748
        },
        {
          "duration": 0.17647049999999354,
          "durationTicks": 192,
          "midi": 50,
          "name": "D3",
          "ticks": 93120,
          "time": 85.5881925,
          "velocity": 0.3937007874015748
        },
        {
          "duration": 0.17647049999999354,
          "durationTicks": 192,
          "midi": 62,
          "name": "D4",
          "ticks": 93504,
          "time": 85.9411335,
          "velocity": 0.3937007874015748
        },
        {
          "duration": 0.17647050000000775,
          "durationTicks": 192,
          "midi": 50,
          "name": "D3",
          "ticks": 93696,
          "time": 86.117604,
          "velocity": 0.3937007874015748
        },
        {
          "duration": 0.17647050000000775,
          "durationTicks": 192,
          "midi": 60,
          "name": "C4",
          "ticks": 93696,
          "time": 86.117604,
          "velocity": 0.3937007874015748
        },
        {
          "duration": 0.3529410000000013,
          "durationTicks": 384,
          "midi": 50,
          "name": "D3",
          "ticks": 94080,
          "time": 86.470545,
          "velocity": 0.3937007874015748
        },
        {
          "duration": 0.17647049999999354,
          "durationTicks": 192,
          "midi": 60,
          "name": "C4",
          "ticks": 94464,
          "time": 86.823486,
          "velocity": 0.3937007874015748
        },
        {
          "duration": 0.17647050000000775,
          "durationTicks": 192,
          "midi": 50,
          "name": "D3",
          "ticks": 94656,
          "time": 86.9999565,
          "velocity": 0.3937007874015748
        },
        {
          "duration": 0.17647050000000775,
          "durationTicks": 192,
          "midi": 60,
          "name": "C4",
          "ticks": 95040,
          "time": 87.3528975,
          "velocity": 0.3937007874015748
        },
        {
          "duration": 0.17647049999999354,
          "durationTicks": 192,
          "midi": 50,
          "name": "D3",
          "ticks": 95232,
          "time": 87.529368,
          "velocity": 0.3937007874015748
        },
        {
          "duration": 0.17647049999999354,
          "durationTicks": 192,
          "midi": 59,
          "name": "B3",
          "ticks": 95232,
          "time": 87.529368,
          "velocity": 0.3937007874015748
        },
        {
          "duration": 0.3529410000000013,
          "durationTicks": 384,
          "midi": 50,
          "name": "D3",
          "ticks": 95616,
          "time": 87.882309,
          "velocity": 0.3937007874015748
        },
        {
          "duration": 0.17647049999999354,
          "durationTicks": 192,
          "midi": 59,
          "name": "B3",
          "ticks": 96000,
          "time": 88.23525000000001,
          "velocity": 0.3937007874015748
        },
        {
          "duration": 0.17647049999999354,
          "durationTicks": 192,
          "midi": 50,
          "name": "D3",
          "ticks": 96192,
          "time": 88.4117205,
          "velocity": 0.3937007874015748
        },
        {
          "duration": 0.17647049999999354,
          "durationTicks": 192,
          "midi": 59,
          "name": "B3",
          "ticks": 96576,
          "time": 88.7646615,
          "velocity": 0.3937007874015748
        },
        {
          "duration": 0.17647050000000775,
          "durationTicks": 192,
          "midi": 50,
          "name": "D3",
          "ticks": 96768,
          "time": 88.941132,
          "velocity": 0.3937007874015748
        },
        {
          "duration": 0.17647050000000775,
          "durationTicks": 192,
          "midi": 57,
          "name": "A3",
          "ticks": 96768,
          "time": 88.941132,
          "velocity": 0.3937007874015748
        },
        {
          "duration": 0.3529410000000013,
          "durationTicks": 384,
          "midi": 50,
          "name": "D3",
          "ticks": 97152,
          "time": 89.294073,
          "velocity": 0.3937007874015748
        },
        {
          "duration": 0.17647050000000775,
          "durationTicks": 192,
          "midi": 57,
          "name": "A3",
          "ticks": 97536,
          "time": 89.647014,
          "velocity": 0.3937007874015748
        },
        {
          "duration": 0.17647049999999354,
          "durationTicks": 192,
          "midi": 50,
          "name": "D3",
          "ticks": 97728,
          "time": 89.8234845,
          "velocity": 0.3937007874015748
        },
        {
          "duration": 0.17647049999999354,
          "durationTicks": 192,
          "midi": 50,
          "name": "D3",
          "ticks": 98304,
          "time": 90.352896,
          "velocity": 0.3937007874015748
        },
        {
          "duration": 0.17647049999999354,
          "durationTicks": 192,
          "midi": 62,
          "name": "D4",
          "ticks": 98304,
          "time": 90.352896,
          "velocity": 0.3937007874015748
        },
        {
          "duration": 0.3529410000000013,
          "durationTicks": 384,
          "midi": 50,
          "name": "D3",
          "ticks": 98688,
          "time": 90.705837,
          "velocity": 0.3937007874015748
        },
        {
          "duration": 0.17647049999999354,
          "durationTicks": 192,
          "midi": 62,
          "name": "D4",
          "ticks": 99072,
          "time": 91.058778,
          "velocity": 0.3937007874015748
        },
        {
          "duration": 0.17647050000000775,
          "durationTicks": 192,
          "midi": 50,
          "name": "D3",
          "ticks": 99264,
          "time": 91.2352485,
          "velocity": 0.3937007874015748
        },
        {
          "duration": 0.17647050000000775,
          "durationTicks": 192,
          "midi": 62,
          "name": "D4",
          "ticks": 99648,
          "time": 91.5881895,
          "velocity": 0.3937007874015748
        },
        {
          "duration": 0.17647049999999354,
          "durationTicks": 192,
          "midi": 50,
          "name": "D3",
          "ticks": 99840,
          "time": 91.76466,
          "velocity": 0.3937007874015748
        },
        {
          "duration": 0.17647049999999354,
          "durationTicks": 192,
          "midi": 60,
          "name": "C4",
          "ticks": 99840,
          "time": 91.76466,
          "velocity": 0.3937007874015748
        },
        {
          "duration": 0.35294099999998707,
          "durationTicks": 384,
          "midi": 50,
          "name": "D3",
          "ticks": 100224,
          "time": 92.11760100000001,
          "velocity": 0.3937007874015748
        },
        {
          "duration": 0.17647050000000775,
          "durationTicks": 192,
          "midi": 60,
          "name": "C4",
          "ticks": 100608,
          "time": 92.470542,
          "velocity": 0.3937007874015748
        },
        {
          "duration": 0.17647049999999354,
          "durationTicks": 192,
          "midi": 50,
          "name": "D3",
          "ticks": 100800,
          "time": 92.6470125,
          "velocity": 0.3937007874015748
        },
        {
          "duration": 0.17647049999999354,
          "durationTicks": 192,
          "midi": 60,
          "name": "C4",
          "ticks": 101184,
          "time": 92.9999535,
          "velocity": 0.3937007874015748
        },
        {
          "duration": 0.17647050000000775,
          "durationTicks": 192,
          "midi": 50,
          "name": "D3",
          "ticks": 101376,
          "time": 93.176424,
          "velocity": 0.3937007874015748
        },
        {
          "duration": 0.17647050000000775,
          "durationTicks": 192,
          "midi": 59,
          "name": "B3",
          "ticks": 101376,
          "time": 93.176424,
          "velocity": 0.3937007874015748
        },
        {
          "duration": 0.3529410000000013,
          "durationTicks": 384,
          "midi": 50,
          "name": "D3",
          "ticks": 101760,
          "time": 93.529365,
          "velocity": 0.3937007874015748
        },
        {
          "duration": 0.17647050000000775,
          "durationTicks": 192,
          "midi": 59,
          "name": "B3",
          "ticks": 102144,
          "time": 93.882306,
          "velocity": 0.3937007874015748
        },
        {
          "duration": 0.17647049999999354,
          "durationTicks": 192,
          "midi": 50,
          "name": "D3",
          "ticks": 102336,
          "time": 94.05877650000001,
          "velocity": 0.3937007874015748
        },
        {
          "duration": 0.17647050000000775,
          "durationTicks": 192,
          "midi": 59,
          "name": "B3",
          "ticks": 102720,
          "time": 94.4117175,
          "velocity": 0.3937007874015748
        },
        {
          "duration": 0.17647049999999354,
          "durationTicks": 192,
          "midi": 50,
          "name": "D3",
          "ticks": 102912,
          "time": 94.588188,
          "velocity": 0.3937007874015748
        },
        {
          "duration": 0.17647049999999354,
          "durationTicks": 192,
          "midi": 57,
          "name": "A3",
          "ticks": 102912,
          "time": 94.588188,
          "velocity": 0.3937007874015748
        },
        {
          "duration": 0.3529410000000013,
          "durationTicks": 384,
          "midi": 50,
          "name": "D3",
          "ticks": 103296,
          "time": 94.941129,
          "velocity": 0.3937007874015748
        },
        {
          "duration": 0.17647049999999354,
          "durationTicks": 192,
          "midi": 57,
          "name": "A3",
          "ticks": 103680,
          "time": 95.29407,
          "velocity": 0.3937007874015748
        },
        {
          "duration": 0.17647050000000775,
          "durationTicks": 192,
          "midi": 50,
          "name": "D3",
          "ticks": 103872,
          "time": 95.4705405,
          "velocity": 0.3937007874015748
        },
        {
          "duration": 0.7058819999999884,
          "durationTicks": 768,
          "midi": 46,
          "name": "A#2",
          "ticks": 104448,
          "time": 95.99995200000001,
          "velocity": 0.3937007874015748
        },
        {
          "duration": 0.7058819999999884,
          "durationTicks": 768,
          "midi": 53,
          "name": "F3",
          "ticks": 104448,
          "time": 95.99995200000001,
          "velocity": 0.3937007874015748
        },
        {
          "duration": 0.7058819999999884,
          "durationTicks": 768,
          "midi": 58,
          "name": "A#3",
          "ticks": 104448,
          "time": 95.99995200000001,
          "velocity": 0.3937007874015748
        },
        {
          "duration": 0.7058819999999884,
          "durationTicks": 768,
          "midi": 62,
          "name": "D4",
          "ticks": 104448,
          "time": 95.99995200000001,
          "velocity": 0.3937007874015748
        },
        {
          "duration": 0.529411500000009,
          "durationTicks": 576,
          "midi": 46,
          "name": "A#2",
          "ticks": 105216,
          "time": 96.705834,
          "velocity": 0.3937007874015748
        },
        {
          "duration": 0.529411500000009,
          "durationTicks": 576,
          "midi": 53,
          "name": "F3",
          "ticks": 105216,
          "time": 96.705834,
          "velocity": 0.3937007874015748
        },
        {
          "duration": 0.529411500000009,
          "durationTicks": 576,
          "midi": 58,
          "name": "A#3",
          "ticks": 105216,
          "time": 96.705834,
          "velocity": 0.3937007874015748
        },
        {
          "duration": 0.529411500000009,
          "durationTicks": 576,
          "midi": 62,
          "name": "D4",
          "ticks": 105216,
          "time": 96.705834,
          "velocity": 0.3937007874015748
        },
        {
          "duration": 0.17647049999999354,
          "durationTicks": 192,
          "midi": 55,
          "name": "G3",
          "ticks": 105792,
          "time": 97.2352455,
          "velocity": 0.3937007874015748
        },
        {
          "duration": 0.17647049999999354,
          "durationTicks": 192,
          "midi": 50,
          "name": "D3",
          "ticks": 105792,
          "time": 97.2352455,
          "velocity": 0.3937007874015748
        },
        {
          "duration": 0.17647050000000775,
          "durationTicks": 192,
          "midi": 48,
          "name": "C3",
          "ticks": 105984,
          "time": 97.411716,
          "velocity": 0.3937007874015748
        },
        {
          "duration": 0.17647049999999354,
          "durationTicks": 192,
          "midi": 55,
          "name": "G3",
          "ticks": 106176,
          "time": 97.5881865,
          "velocity": 0.3937007874015748
        },
        {
          "duration": 0.17647049999999354,
          "durationTicks": 192,
          "midi": 60,
          "name": "C4",
          "ticks": 106176,
          "time": 97.5881865,
          "velocity": 0.3937007874015748
        },
        {
          "duration": 0.17647049999999354,
          "durationTicks": 192,
          "midi": 64,
          "name": "E4",
          "ticks": 106176,
          "time": 97.5881865,
          "velocity": 0.3937007874015748
        },
        {
          "duration": 0.3529410000000013,
          "durationTicks": 384,
          "midi": 48,
          "name": "C3",
          "ticks": 106368,
          "time": 97.764657,
          "velocity": 0.3937007874015748
        },
        {
          "duration": 0.5294114999999948,
          "durationTicks": 576,
          "midi": 55,
          "name": "G3",
          "ticks": 106752,
          "time": 98.117598,
          "velocity": 0.3937007874015748
        },
        {
          "duration": 0.5294114999999948,
          "durationTicks": 576,
          "midi": 60,
          "name": "C4",
          "ticks": 106752,
          "time": 98.117598,
          "velocity": 0.3937007874015748
        },
        {
          "duration": 0.5294114999999948,
          "durationTicks": 576,
          "midi": 64,
          "name": "E4",
          "ticks": 106752,
          "time": 98.117598,
          "velocity": 0.3937007874015748
        },
        {
          "duration": 0.5294114999999948,
          "durationTicks": 576,
          "midi": 48,
          "name": "C3",
          "ticks": 106752,
          "time": 98.117598,
          "velocity": 0.3937007874015748
        },
        {
          "duration": 0.17647050000000775,
          "durationTicks": 192,
          "midi": 55,
          "name": "G3",
          "ticks": 107328,
          "time": 98.6470095,
          "velocity": 0.3937007874015748
        },
        {
          "duration": 0.17647050000000775,
          "durationTicks": 192,
          "midi": 64,
          "name": "E4",
          "ticks": 107328,
          "time": 98.6470095,
          "velocity": 0.3937007874015748
        },
        {
          "duration": 0.17647050000000775,
          "durationTicks": 192,
          "midi": 60,
          "name": "C4",
          "ticks": 107328,
          "time": 98.6470095,
          "velocity": 0.3937007874015748
        },
        {
          "duration": 0.17647050000000775,
          "durationTicks": 192,
          "midi": 48,
          "name": "C3",
          "ticks": 107328,
          "time": 98.6470095,
          "velocity": 0.3937007874015748
        },
        {
          "duration": 1.411763999999991,
          "durationTicks": 1536,
          "midi": 50,
          "name": "D3",
          "ticks": 107520,
          "time": 98.82348,
          "velocity": 0.3937007874015748
        },
        {
          "duration": 1.411763999999991,
          "durationTicks": 1536,
          "midi": 57,
          "name": "A3",
          "ticks": 107520,
          "time": 98.82348,
          "velocity": 0.3937007874015748
        },
        {
          "duration": 1.411763999999991,
          "durationTicks": 1536,
          "midi": 62,
          "name": "D4",
          "ticks": 107520,
          "time": 98.82348,
          "velocity": 0.3937007874015748
        },
        {
          "duration": 1.411763999999991,
          "durationTicks": 1536,
          "midi": 66,
          "name": "F#4",
          "ticks": 107520,
          "time": 98.82348,
          "velocity": 0.3937007874015748
        },
        {
          "duration": 0.17647050000000775,
          "durationTicks": 192,
          "midi": 50,
          "name": "D3",
          "ticks": 109056,
          "time": 100.235244,
          "velocity": 0.3937007874015748
        },
        {
          "duration": 0.17647050000000775,
          "durationTicks": 192,
          "midi": 57,
          "name": "A3",
          "ticks": 109056,
          "time": 100.235244,
          "velocity": 0.3937007874015748
        },
        {
          "duration": 0.17647049999999354,
          "durationTicks": 192,
          "midi": 50,
          "name": "D3",
          "ticks": 109248,
          "time": 100.4117145,
          "velocity": 0.3937007874015748
        },
        {
          "duration": 0.17647049999999354,
          "durationTicks": 192,
          "midi": 57,
          "name": "A3",
          "ticks": 109248,
          "time": 100.4117145,
          "velocity": 0.3937007874015748
        },
        {
          "duration": 0.7058820000000026,
          "durationTicks": 768,
          "midi": 50,
          "name": "D3",
          "ticks": 109824,
          "time": 100.941126,
          "velocity": 0.3937007874015748
        },
        {
          "duration": 0.7058820000000026,
          "durationTicks": 768,
          "midi": 57,
          "name": "A3",
          "ticks": 109824,
          "time": 100.941126,
          "velocity": 0.3937007874015748
        }
      ],
      "endOfTrackTicks": 110592
    },
    {
      "channel": 1,
      "controlChanges": {},
      "pitchBends": [],
      "instrument": {
        "family": "synth effects",
        "number": 99,
        "name": "fx 4 (atmosphere)"
      },
      "name": "Scifi",
      "notes": [
        {
          "duration": 0.17647050000000064,
          "durationTicks": 192,
          "midi": 41,
          "name": "F2",
          "ticks": 12288,
          "time": 11.294112,
          "velocity": 0.3937007874015748
        },
        {
          "duration": 0.3529410000000013,
          "durationTicks": 384,
          "midi": 41,
          "name": "F2",
          "ticks": 12672,
          "time": 11.647053,
          "velocity": 0.3937007874015748
        },
        {
          "duration": 0.5294114999999984,
          "durationTicks": 576,
          "midi": 53,
          "name": "F3",
          "ticks": 13056,
          "time": 11.999994000000001,
          "velocity": 0.3937007874015748
        },
        {
          "duration": 0.17647050000000064,
          "durationTicks": 192,
          "midi": 53,
          "name": "F3",
          "ticks": 13632,
          "time": 12.5294055,
          "velocity": 0.3937007874015748
        },
        {
          "duration": 0.17647050000000064,
          "durationTicks": 192,
          "midi": 41,
          "name": "F2",
          "ticks": 13824,
          "time": 12.705876,
          "velocity": 0.3937007874015748
        },
        {
          "duration": 0.17647049999999886,
          "durationTicks": 192,
          "midi": 53,
          "name": "F3",
          "ticks": 14016,
          "time": 12.8823465,
          "velocity": 0.3937007874015748
        },
        {
          "duration": 0.3529410000000013,
          "durationTicks": 384,
          "midi": 41,
          "name": "F2",
          "ticks": 14208,
          "time": 13.058817,
          "velocity": 0.3937007874015748
        },
        {
          "duration": 0.5294115000000001,
          "durationTicks": 576,
          "midi": 53,
          "name": "F3",
          "ticks": 14592,
          "time": 13.411758,
          "velocity": 0.3937007874015748
        },
        {
          "duration": 0.17647049999999886,
          "durationTicks": 192,
          "midi": 53,
          "name": "F3",
          "ticks": 15168,
          "time": 13.9411695,
          "velocity": 0.3937007874015748
        },
        {
          "duration": 0.17647050000000064,
          "durationTicks": 192,
          "midi": 41,
          "name": "F2",
          "ticks": 15360,
          "time": 14.11764,
          "velocity": 0.3937007874015748
        },
        {
          "duration": 0.3529409999999995,
          "durationTicks": 384,
          "midi": 41,
          "name": "F2",
          "ticks": 15744,
          "time": 14.470581000000001,
          "velocity": 0.3937007874015748
        },
        {
          "duration": 0.5294115000000001,
          "durationTicks": 576,
          "midi": 53,
          "name": "F3",
          "ticks": 16128,
          "time": 14.823522,
          "velocity": 0.3937007874015748
        },
        {
          "duration": 0.17647049999999886,
          "durationTicks": 192,
          "midi": 53,
          "name": "F3",
          "ticks": 16704,
          "time": 15.3529335,
          "velocity": 0.3937007874015748
        },
        {
          "duration": 0.17647050000000064,
          "durationTicks": 192,
          "midi": 41,
          "name": "F2",
          "ticks": 16896,
          "time": 15.529404,
          "velocity": 0.3937007874015748
        },
        {
          "duration": 0.17647050000000064,
          "durationTicks": 192,
          "midi": 53,
          "name": "F3",
          "ticks": 17088,
          "time": 15.7058745,
          "velocity": 0.3937007874015748
        },
        {
          "duration": 0.35294099999999773,
          "durationTicks": 384,
          "midi": 41,
          "name": "F2",
          "ticks": 17280,
          "time": 15.882345,
          "velocity": 0.3937007874015748
        },
        {
          "duration": 0.5294115000000019,
          "durationTicks": 576,
          "midi": 53,
          "name": "F3",
          "ticks": 17664,
          "time": 16.235286,
          "velocity": 0.3937007874015748
        },
        {
          "duration": 0.17647050000000064,
          "durationTicks": 192,
          "midi": 53,
          "name": "F3",
          "ticks": 18240,
          "time": 16.7646975,
          "velocity": 0.3937007874015748
        },
        {
          "duration": 0.17647050000000064,
          "durationTicks": 192,
          "midi": 41,
          "name": "F2",
          "ticks": 18432,
          "time": 16.941168,
          "velocity": 0.3937007874015748
        },
        {
          "duration": 0.3529410000000013,
          "durationTicks": 384,
          "midi": 41,
          "name": "F2",
          "ticks": 18816,
          "time": 17.294109,
          "velocity": 0.3937007874015748
        },
        {
          "duration": 0.5294114999999984,
          "durationTicks": 576,
          "midi": 53,
          "name": "F3",
          "ticks": 19200,
          "time": 17.64705,
          "velocity": 0.3937007874015748
        },
        {
          "duration": 0.17647050000000064,
          "durationTicks": 192,
          "midi": 53,
          "name": "F3",
          "ticks": 19776,
          "time": 18.1764615,
          "velocity": 0.3937007874015748
        },
        {
          "duration": 0.17647050000000064,
          "durationTicks": 192,
          "midi": 41,
          "name": "F2",
          "ticks": 19968,
          "time": 18.352932,
          "velocity": 0.3937007874015748
        },
        {
          "duration": 0.17647050000000064,
          "durationTicks": 192,
          "midi": 53,
          "name": "F3",
          "ticks": 20160,
          "time": 18.5294025,
          "velocity": 0.3937007874015748
        },
        {
          "duration": 0.3529410000000013,
          "durationTicks": 384,
          "midi": 41,
          "name": "F2",
          "ticks": 20352,
          "time": 18.705873,
          "velocity": 0.3937007874015748
        },
        {
          "duration": 0.5294114999999984,
          "durationTicks": 576,
          "midi": 53,
          "name": "F3",
          "ticks": 20736,
          "time": 19.058814,
          "velocity": 0.3937007874015748
        },
        {
          "duration": 0.17647050000000064,
          "durationTicks": 192,
          "midi": 53,
          "name": "F3",
          "ticks": 21312,
          "time": 19.5882255,
          "velocity": 0.3937007874015748
        },
        {
          "duration": 0.17647050000000064,
          "durationTicks": 192,
          "midi": 41,
          "name": "F2",
          "ticks": 21504,
          "time": 19.764696,
          "velocity": 0.3937007874015748
        },
        {
          "duration": 0.35294099999999773,
          "durationTicks": 384,
          "midi": 41,
          "name": "F2",
          "ticks": 21888,
          "time": 20.117637000000002,
          "velocity": 0.3937007874015748
        },
        {
          "duration": 0.5294115000000019,
          "durationTicks": 576,
          "midi": 53,
          "name": "F3",
          "ticks": 22272,
          "time": 20.470578,
          "velocity": 0.3937007874015748
        },
        {
          "duration": 0.1764704999999971,
          "durationTicks": 192,
          "midi": 53,
          "name": "F3",
          "ticks": 22848,
          "time": 20.9999895,
          "velocity": 0.3937007874015748
        },
        {
          "duration": 0.17647050000000064,
          "durationTicks": 192,
          "midi": 41,
          "name": "F2",
          "ticks": 23040,
          "time": 21.17646,
          "velocity": 0.3937007874015748
        },
        {
          "duration": 0.17647050000000064,
          "durationTicks": 192,
          "midi": 53,
          "name": "F3",
          "ticks": 23232,
          "time": 21.3529305,
          "velocity": 0.3937007874015748
        },
        {
          "duration": 0.3529410000000013,
          "durationTicks": 384,
          "midi": 41,
          "name": "F2",
          "ticks": 23424,
          "time": 21.529401,
          "velocity": 0.3937007874015748
        },
        {
          "duration": 0.5294114999999984,
          "durationTicks": 576,
          "midi": 53,
          "name": "F3",
          "ticks": 23808,
          "time": 21.882342,
          "velocity": 0.3937007874015748
        },
        {
          "duration": 0.17647050000000064,
          "durationTicks": 192,
          "midi": 53,
          "name": "F3",
          "ticks": 24384,
          "time": 22.4117535,
          "velocity": 0.3937007874015748
        },
        {
          "duration": 0.3529410000000013,
          "durationTicks": 384,
          "midi": 41,
          "name": "F2",
          "ticks": 24576,
          "time": 22.588224,
          "velocity": 0.3937007874015748
        }
      ],
      "endOfTrackTicks": 24960
    },
    {
      "channel": 9,
      "controlChanges": {},
      "pitchBends": [],
      "instrument": {
        "family": "drums",
        "number": 0,
        "name": "standard kit"
      },
      "name": "Drum Kit",
      "notes": [
        {
          "duration": 0.1764705,
          "durationTicks": 192,
          "midi": 36,
          "name": "C2",
          "ticks": 0,
          "time": 0,
          "velocity": 0.3937007874015748
        },
        {
          "duration": 0.1764705,
          "durationTicks": 192,
          "midi": 35,
          "name": "B1",
          "ticks": 0,
          "time": 0,
          "velocity": 0.3937007874015748
        },
        {
          "duration": 0.1764705,
          "durationTicks": 192,
          "midi": 38,
          "name": "D2",
          "ticks": 0,
          "time": 0,
          "velocity": 0.3937007874015748
        },
        {
          "duration": 0.352941,
          "durationTicks": 384,
          "midi": 36,
          "name": "C2",
          "ticks": 384,
          "time": 0.352941,
          "velocity": 0.3937007874015748
        },
        {
          "duration": 0.352941,
          "durationTicks": 384,
          "midi": 35,
          "name": "B1",
          "ticks": 384,
          "time": 0.352941,
          "velocity": 0.3937007874015748
        },
        {
          "duration": 0.352941,
          "durationTicks": 384,
          "midi": 38,
          "name": "D2",
          "ticks": 384,
          "time": 0.352941,
          "velocity": 0.3937007874015748
        },
        {
          "duration": 0.5294115,
          "durationTicks": 576,
          "midi": 43,
          "name": "G2",
          "ticks": 768,
          "time": 0.705882,
          "velocity": 0.3937007874015748
        },
        {
          "duration": 0.5294115,
          "durationTicks": 576,
          "midi": 44,
          "name": "G#2",
          "ticks": 768,
          "time": 0.705882,
          "velocity": 0.3937007874015748
        },
        {
          "duration": 0.5294115,
          "durationTicks": 576,
          "midi": 41,
          "name": "F2",
          "ticks": 768,
          "time": 0.705882,
          "velocity": 0.3937007874015748
        },
        {
          "duration": 0.17647049999999997,
          "durationTicks": 192,
          "midi": 43,
          "name": "G2",
          "ticks": 1344,
          "time": 1.2352935,
          "velocity": 0.3937007874015748
        },
        {
          "duration": 0.17647049999999997,
          "durationTicks": 192,
          "midi": 44,
          "name": "G#2",
          "ticks": 1344,
          "time": 1.2352935,
          "velocity": 0.3937007874015748
        },
        {
          "duration": 0.17647049999999997,
          "durationTicks": 192,
          "midi": 41,
          "name": "F2",
          "ticks": 1344,
          "time": 1.2352935,
          "velocity": 0.3937007874015748
        },
        {
          "duration": 0.17647049999999997,
          "durationTicks": 192,
          "midi": 36,
          "name": "C2",
          "ticks": 1536,
          "time": 1.411764,
          "velocity": 0.3937007874015748
        },
        {
          "duration": 0.17647049999999997,
          "durationTicks": 192,
          "midi": 35,
          "name": "B1",
          "ticks": 1536,
          "time": 1.411764,
          "velocity": 0.3937007874015748
        },
        {
          "duration": 0.17647049999999997,
          "durationTicks": 192,
          "midi": 38,
          "name": "D2",
          "ticks": 1536,
          "time": 1.411764,
          "velocity": 0.3937007874015748
        },
        {
          "duration": 0.17647049999999997,
          "durationTicks": 192,
          "midi": 43,
          "name": "G2",
          "ticks": 1728,
          "time": 1.5882345,
          "velocity": 0.3937007874015748
        },
        {
          "duration": 0.17647049999999997,
          "durationTicks": 192,
          "midi": 44,
          "name": "G#2",
          "ticks": 1728,
          "time": 1.5882345,
          "velocity": 0.3937007874015748
        },
        {
          "duration": 0.17647049999999997,
          "durationTicks": 192,
          "midi": 41,
          "name": "F2",
          "ticks": 1728,
          "time": 1.5882345,
          "velocity": 0.3937007874015748
        },
        {
          "duration": 0.35294100000000017,
          "durationTicks": 384,
          "midi": 36,
          "name": "C2",
          "ticks": 1920,
          "time": 1.764705,
          "velocity": 0.3937007874015748
        },
        {
          "duration": 0.35294100000000017,
          "durationTicks": 384,
          "midi": 35,
          "name": "B1",
          "ticks": 1920,
          "time": 1.764705,
          "velocity": 0.3937007874015748
        },
        {
          "duration": 0.35294100000000017,
          "durationTicks": 384,
          "midi": 38,
          "name": "D2",
          "ticks": 1920,
          "time": 1.764705,
          "velocity": 0.3937007874015748
        },
        {
          "duration": 0.5294114999999997,
          "durationTicks": 576,
          "midi": 43,
          "name": "G2",
          "ticks": 2304,
          "time": 2.117646,
          "velocity": 0.3937007874015748
        },
        {
          "duration": 0.5294114999999997,
          "durationTicks": 576,
          "midi": 44,
          "name": "G#2",
          "ticks": 2304,
          "time": 2.117646,
          "velocity": 0.3937007874015748
        },
        {
          "duration": 0.5294114999999997,
          "durationTicks": 576,
          "midi": 41,
          "name": "F2",
          "ticks": 2304,
          "time": 2.117646,
          "velocity": 0.3937007874015748
        },
        {
          "duration": 0.1764705000000002,
          "durationTicks": 192,
          "midi": 43,
          "name": "G2",
          "ticks": 2880,
          "time": 2.6470575,
          "velocity": 0.3937007874015748
        },
        {
          "duration": 0.1764705000000002,
          "durationTicks": 192,
          "midi": 44,
          "name": "G#2",
          "ticks": 2880,
          "time": 2.6470575,
          "velocity": 0.3937007874015748
        },
        {
          "duration": 0.1764705000000002,
          "durationTicks": 192,
          "midi": 41,
          "name": "F2",
          "ticks": 2880,
          "time": 2.6470575,
          "velocity": 0.3937007874015748
        },
        {
          "duration": 0.1764705000000002,
          "durationTicks": 192,
          "midi": 36,
          "name": "C2",
          "ticks": 3072,
          "time": 2.823528,
          "velocity": 0.3937007874015748
        },
        {
          "duration": 0.1764705000000002,
          "durationTicks": 192,
          "midi": 35,
          "name": "B1",
          "ticks": 3072,
          "time": 2.823528,
          "velocity": 0.3937007874015748
        },
        {
          "duration": 0.1764705000000002,
          "durationTicks": 192,
          "midi": 38,
          "name": "D2",
          "ticks": 3072,
          "time": 2.823528,
          "velocity": 0.3937007874015748
        },
        {
          "duration": 0.35294099999999995,
          "durationTicks": 384,
          "midi": 36,
          "name": "C2",
          "ticks": 3456,
          "time": 3.176469,
          "velocity": 0.3937007874015748
        },
        {
          "duration": 0.35294099999999995,
          "durationTicks": 384,
          "midi": 35,
          "name": "B1",
          "ticks": 3456,
          "time": 3.176469,
          "velocity": 0.3937007874015748
        },
        {
          "duration": 0.35294099999999995,
          "durationTicks": 384,
          "midi": 38,
          "name": "D2",
          "ticks": 3456,
          "time": 3.176469,
          "velocity": 0.3937007874015748
        },
        {
          "duration": 0.5294114999999997,
          "durationTicks": 576,
          "midi": 43,
          "name": "G2",
          "ticks": 3840,
          "time": 3.52941,
          "velocity": 0.3937007874015748
        },
        {
          "duration": 0.5294114999999997,
          "durationTicks": 576,
          "midi": 44,
          "name": "G#2",
          "ticks": 3840,
          "time": 3.52941,
          "velocity": 0.3937007874015748
        },
        {
          "duration": 0.5294114999999997,
          "durationTicks": 576,
          "midi": 41,
          "name": "F2",
          "ticks": 3840,
          "time": 3.52941,
          "velocity": 0.3937007874015748
        },
        {
          "duration": 0.17647050000000064,
          "durationTicks": 192,
          "midi": 43,
          "name": "G2",
          "ticks": 4416,
          "time": 4.0588215,
          "velocity": 0.3937007874015748
        },
        {
          "duration": 0.17647050000000064,
          "durationTicks": 192,
          "midi": 44,
          "name": "G#2",
          "ticks": 4416,
          "time": 4.0588215,
          "velocity": 0.3937007874015748
        },
        {
          "duration": 0.17647050000000064,
          "durationTicks": 192,
          "midi": 41,
          "name": "F2",
          "ticks": 4416,
          "time": 4.0588215,
          "velocity": 0.3937007874015748
        },
        {
          "duration": 0.17647049999999975,
          "durationTicks": 192,
          "midi": 36,
          "name": "C2",
          "ticks": 4608,
          "time": 4.235292,
          "velocity": 0.3937007874015748
        },
        {
          "duration": 0.17647049999999975,
          "durationTicks": 192,
          "midi": 35,
          "name": "B1",
          "ticks": 4608,
          "time": 4.235292,
          "velocity": 0.3937007874015748
        },
        {
          "duration": 0.17647049999999975,
          "durationTicks": 192,
          "midi": 38,
          "name": "D2",
          "ticks": 4608,
          "time": 4.235292,
          "velocity": 0.3937007874015748
        },
        {
          "duration": 0.17647049999999975,
          "durationTicks": 192,
          "midi": 43,
          "name": "G2",
          "ticks": 4800,
          "time": 4.4117625,
          "velocity": 0.3937007874015748
        },
        {
          "duration": 0.17647049999999975,
          "durationTicks": 192,
          "midi": 44,
          "name": "G#2",
          "ticks": 4800,
          "time": 4.4117625,
          "velocity": 0.3937007874015748
        },
        {
          "duration": 0.17647049999999975,
          "durationTicks": 192,
          "midi": 41,
          "name": "F2",
          "ticks": 4800,
          "time": 4.4117625,
          "velocity": 0.3937007874015748
        },
        {
          "duration": 0.3529410000000004,
          "durationTicks": 384,
          "midi": 36,
          "name": "C2",
          "ticks": 4992,
          "time": 4.588233,
          "velocity": 0.3937007874015748
        },
        {
          "duration": 0.3529410000000004,
          "durationTicks": 384,
          "midi": 35,
          "name": "B1",
          "ticks": 4992,
          "time": 4.588233,
          "velocity": 0.3937007874015748
        },
        {
          "duration": 0.3529410000000004,
          "durationTicks": 384,
          "midi": 38,
          "name": "D2",
          "ticks": 4992,
          "time": 4.588233,
          "velocity": 0.3937007874015748
        },
        {
          "duration": 0.5294115000000001,
          "durationTicks": 576,
          "midi": 43,
          "name": "G2",
          "ticks": 5376,
          "time": 4.941174,
          "velocity": 0.3937007874015748
        },
        {
          "duration": 0.5294115000000001,
          "durationTicks": 576,
          "midi": 44,
          "name": "G#2",
          "ticks": 5376,
          "time": 4.941174,
          "velocity": 0.3937007874015748
        },
        {
          "duration": 0.5294115000000001,
          "durationTicks": 576,
          "midi": 41,
          "name": "F2",
          "ticks": 5376,
          "time": 4.941174,
          "velocity": 0.3937007874015748
        },
        {
          "duration": 0.17647049999999975,
          "durationTicks": 192,
          "midi": 43,
          "name": "G2",
          "ticks": 5952,
          "time": 5.4705855,
          "velocity": 0.3937007874015748
        },
        {
          "duration": 0.17647049999999975,
          "durationTicks": 192,
          "midi": 44,
          "name": "G#2",
          "ticks": 5952,
          "time": 5.4705855,
          "velocity": 0.3937007874015748
        },
        {
          "duration": 0.17647049999999975,
          "durationTicks": 192,
          "midi": 41,
          "name": "F2",
          "ticks": 5952,
          "time": 5.4705855,
          "velocity": 0.3937007874015748
        },
        {
          "duration": 0.17647049999999975,
          "durationTicks": 192,
          "midi": 36,
          "name": "C2",
          "ticks": 6144,
          "time": 5.647056,
          "velocity": 0.3937007874015748
        },
        {
          "duration": 0.17647049999999975,
          "durationTicks": 192,
          "midi": 35,
          "name": "B1",
          "ticks": 6144,
          "time": 5.647056,
          "velocity": 0.3937007874015748
        },
        {
          "duration": 0.17647049999999975,
          "durationTicks": 192,
          "midi": 38,
          "name": "D2",
          "ticks": 6144,
          "time": 5.647056,
          "velocity": 0.3937007874015748
        },
        {
          "duration": 0.3529409999999995,
          "durationTicks": 384,
          "midi": 36,
          "name": "C2",
          "ticks": 6528,
          "time": 5.9999970000000005,
          "velocity": 0.3937007874015748
        },
        {
          "duration": 0.3529409999999995,
          "durationTicks": 384,
          "midi": 35,
          "name": "B1",
          "ticks": 6528,
          "time": 5.9999970000000005,
          "velocity": 0.3937007874015748
        },
        {
          "duration": 0.3529409999999995,
          "durationTicks": 384,
          "midi": 38,
          "name": "D2",
          "ticks": 6528,
          "time": 5.9999970000000005,
          "velocity": 0.3937007874015748
        },
        {
          "duration": 0.5294115000000001,
          "durationTicks": 576,
          "midi": 43,
          "name": "G2",
          "ticks": 6912,
          "time": 6.352938,
          "velocity": 0.3937007874015748
        },
        {
          "duration": 0.5294115000000001,
          "durationTicks": 576,
          "midi": 44,
          "name": "G#2",
          "ticks": 6912,
          "time": 6.352938,
          "velocity": 0.3937007874015748
        },
        {
          "duration": 0.5294115000000001,
          "durationTicks": 576,
          "midi": 41,
          "name": "F2",
          "ticks": 6912,
          "time": 6.352938,
          "velocity": 0.3937007874015748
        },
        {
          "duration": 0.17647049999999975,
          "durationTicks": 192,
          "midi": 43,
          "name": "G2",
          "ticks": 7488,
          "time": 6.8823495,
          "velocity": 0.3937007874015748
        },
        {
          "duration": 0.17647049999999975,
          "durationTicks": 192,
          "midi": 44,
          "name": "G#2",
          "ticks": 7488,
          "time": 6.8823495,
          "velocity": 0.3937007874015748
        },
        {
          "duration": 0.17647049999999975,
          "durationTicks": 192,
          "midi": 41,
          "name": "F2",
          "ticks": 7488,
          "time": 6.8823495,
          "velocity": 0.3937007874015748
        },
        {
          "duration": 0.17647050000000064,
          "durationTicks": 192,
          "midi": 36,
          "name": "C2",
          "ticks": 7680,
          "time": 7.05882,
          "velocity": 0.3937007874015748
        },
        {
          "duration": 0.17647050000000064,
          "durationTicks": 192,
          "midi": 35,
          "name": "B1",
          "ticks": 7680,
          "time": 7.05882,
          "velocity": 0.3937007874015748
        },
        {
          "duration": 0.17647050000000064,
          "durationTicks": 192,
          "midi": 38,
          "name": "D2",
          "ticks": 7680,
          "time": 7.05882,
          "velocity": 0.3937007874015748
        },
        {
          "duration": 0.17647049999999975,
          "durationTicks": 192,
          "midi": 43,
          "name": "G2",
          "ticks": 7872,
          "time": 7.2352905000000005,
          "velocity": 0.3937007874015748
        },
        {
          "duration": 0.17647049999999975,
          "durationTicks": 192,
          "midi": 44,
          "name": "G#2",
          "ticks": 7872,
          "time": 7.2352905000000005,
          "velocity": 0.3937007874015748
        },
        {
          "duration": 0.17647049999999975,
          "durationTicks": 192,
          "midi": 41,
          "name": "F2",
          "ticks": 7872,
          "time": 7.2352905000000005,
          "velocity": 0.3937007874015748
        },
        {
          "duration": 0.3529409999999995,
          "durationTicks": 384,
          "midi": 36,
          "name": "C2",
          "ticks": 8064,
          "time": 7.411761,
          "velocity": 0.3937007874015748
        },
        {
          "duration": 0.3529409999999995,
          "durationTicks": 384,
          "midi": 35,
          "name": "B1",
          "ticks": 8064,
          "time": 7.411761,
          "velocity": 0.3937007874015748
        },
        {
          "duration": 0.3529409999999995,
          "durationTicks": 384,
          "midi": 38,
          "name": "D2",
          "ticks": 8064,
          "time": 7.411761,
          "velocity": 0.3937007874015748
        },
        {
          "duration": 0.5294115000000001,
          "durationTicks": 576,
          "midi": 43,
          "name": "G2",
          "ticks": 8448,
          "time": 7.764702,
          "velocity": 0.3937007874015748
        },
        {
          "duration": 0.5294115000000001,
          "durationTicks": 576,
          "midi": 44,
          "name": "G#2",
          "ticks": 8448,
          "time": 7.764702,
          "velocity": 0.3937007874015748
        },
        {
          "duration": 0.5294115000000001,
          "durationTicks": 576,
          "midi": 41,
          "name": "F2",
          "ticks": 8448,
          "time": 7.764702,
          "velocity": 0.3937007874015748
        },
        {
          "duration": 0.17647050000000064,
          "durationTicks": 192,
          "midi": 43,
          "name": "G2",
          "ticks": 9024,
          "time": 8.2941135,
          "velocity": 0.3937007874015748
        },
        {
          "duration": 0.17647050000000064,
          "durationTicks": 192,
          "midi": 44,
          "name": "G#2",
          "ticks": 9024,
          "time": 8.2941135,
          "velocity": 0.3937007874015748
        },
        {
          "duration": 0.17647050000000064,
          "durationTicks": 192,
          "midi": 41,
          "name": "F2",
          "ticks": 9024,
          "time": 8.2941135,
          "velocity": 0.3937007874015748
        },
        {
          "duration": 0.17647049999999886,
          "durationTicks": 192,
          "midi": 36,
          "name": "C2",
          "ticks": 9216,
          "time": 8.470584,
          "velocity": 0.3937007874015748
        },
        {
          "duration": 0.17647049999999886,
          "durationTicks": 192,
          "midi": 35,
          "name": "B1",
          "ticks": 9216,
          "time": 8.470584,
          "velocity": 0.3937007874015748
        },
        {
          "duration": 0.17647049999999886,
          "durationTicks": 192,
          "midi": 38,
          "name": "D2",
          "ticks": 9216,
          "time": 8.470584,
          "velocity": 0.3937007874015748
        },
        {
          "duration": 0.3529409999999995,
          "durationTicks": 384,
          "midi": 36,
          "name": "C2",
          "ticks": 9600,
          "time": 8.823525,
          "velocity": 0.3937007874015748
        },
        {
          "duration": 0.3529409999999995,
          "durationTicks": 384,
          "midi": 35,
          "name": "B1",
          "ticks": 9600,
          "time": 8.823525,
          "velocity": 0.3937007874015748
        },
        {
          "duration": 0.3529409999999995,
          "durationTicks": 384,
          "midi": 38,
          "name": "D2",
          "ticks": 9600,
          "time": 8.823525,
          "velocity": 0.3937007874015748
        },
        {
          "duration": 0.5294115000000001,
          "durationTicks": 576,
          "midi": 43,
          "name": "G2",
          "ticks": 9984,
          "time": 9.176466,
          "velocity": 0.3937007874015748
        },
        {
          "duration": 0.5294115000000001,
          "durationTicks": 576,
          "midi": 44,
          "name": "G#2",
          "ticks": 9984,
          "time": 9.176466,
          "velocity": 0.3937007874015748
        },
        {
          "duration": 0.5294115000000001,
          "durationTicks": 576,
          "midi": 41,
          "name": "F2",
          "ticks": 9984,
          "time": 9.176466,
          "velocity": 0.3937007874015748
        },
        {
          "duration": 0.17647050000000064,
          "durationTicks": 192,
          "midi": 43,
          "name": "G2",
          "ticks": 10560,
          "time": 9.7058775,
          "velocity": 0.3937007874015748
        },
        {
          "duration": 0.17647050000000064,
          "durationTicks": 192,
          "midi": 44,
          "name": "G#2",
          "ticks": 10560,
          "time": 9.7058775,
          "velocity": 0.3937007874015748
        },
        {
          "duration": 0.17647050000000064,
          "durationTicks": 192,
          "midi": 41,
          "name": "F2",
          "ticks": 10560,
          "time": 9.7058775,
          "velocity": 0.3937007874015748
        },
        {
          "duration": 0.17647050000000064,
          "durationTicks": 192,
          "midi": 36,
          "name": "C2",
          "ticks": 10752,
          "time": 9.882348,
          "velocity": 0.3937007874015748
        },
        {
          "duration": 0.17647050000000064,
          "durationTicks": 192,
          "midi": 35,
          "name": "B1",
          "ticks": 10752,
          "time": 9.882348,
          "velocity": 0.3937007874015748
        },
        {
          "duration": 0.17647050000000064,
          "durationTicks": 192,
          "midi": 38,
          "name": "D2",
          "ticks": 10752,
          "time": 9.882348,
          "velocity": 0.3937007874015748
        },
        {
          "duration": 0.17647049999999886,
          "durationTicks": 192,
          "midi": 43,
          "name": "G2",
          "ticks": 10944,
          "time": 10.058818500000001,
          "velocity": 0.3937007874015748
        },
        {
          "duration": 0.17647049999999886,
          "durationTicks": 192,
          "midi": 44,
          "name": "G#2",
          "ticks": 10944,
          "time": 10.058818500000001,
          "velocity": 0.3937007874015748
        },
        {
          "duration": 0.17647049999999886,
          "durationTicks": 192,
          "midi": 41,
          "name": "F2",
          "ticks": 10944,
          "time": 10.058818500000001,
          "velocity": 0.3937007874015748
        },
        {
          "duration": 0.3529409999999995,
          "durationTicks": 384,
          "midi": 36,
          "name": "C2",
          "ticks": 11136,
          "time": 10.235289,
          "velocity": 0.3937007874015748
        },
        {
          "duration": 0.3529409999999995,
          "durationTicks": 384,
          "midi": 35,
          "name": "B1",
          "ticks": 11136,
          "time": 10.235289,
          "velocity": 0.3937007874015748
        },
        {
          "duration": 0.3529409999999995,
          "durationTicks": 384,
          "midi": 38,
          "name": "D2",
          "ticks": 11136,
          "time": 10.235289,
          "velocity": 0.3937007874015748
        },
        {
          "duration": 0.5294115000000001,
          "durationTicks": 576,
          "midi": 43,
          "name": "G2",
          "ticks": 11520,
          "time": 10.58823,
          "velocity": 0.3937007874015748
        },
        {
          "duration": 0.5294115000000001,
          "durationTicks": 576,
          "midi": 44,
          "name": "G#2",
          "ticks": 11520,
          "time": 10.58823,
          "velocity": 0.3937007874015748
        },
        {
          "duration": 0.5294115000000001,
          "durationTicks": 576,
          "midi": 41,
          "name": "F2",
          "ticks": 11520,
          "time": 10.58823,
          "velocity": 0.3937007874015748
        },
        {
          "duration": 0.17647050000000064,
          "durationTicks": 192,
          "midi": 43,
          "name": "G2",
          "ticks": 12096,
          "time": 11.1176415,
          "velocity": 0.3937007874015748
        },
        {
          "duration": 0.17647050000000064,
          "durationTicks": 192,
          "midi": 44,
          "name": "G#2",
          "ticks": 12096,
          "time": 11.1176415,
          "velocity": 0.3937007874015748
        },
        {
          "duration": 0.17647050000000064,
          "durationTicks": 192,
          "midi": 41,
          "name": "F2",
          "ticks": 12096,
          "time": 11.1176415,
          "velocity": 0.3937007874015748
        },
        {
          "duration": 0.17647050000000064,
          "durationTicks": 192,
          "midi": 36,
          "name": "C2",
          "ticks": 12288,
          "time": 11.294112,
          "velocity": 0.3937007874015748
        },
        {
          "duration": 0.17647050000000064,
          "durationTicks": 192,
          "midi": 35,
          "name": "B1",
          "ticks": 12288,
          "time": 11.294112,
          "velocity": 0.3937007874015748
        },
        {
          "duration": 0.17647050000000064,
          "durationTicks": 192,
          "midi": 38,
          "name": "D2",
          "ticks": 12288,
          "time": 11.294112,
          "velocity": 0.3937007874015748
        },
        {
          "duration": 0.3529410000000013,
          "durationTicks": 384,
          "midi": 36,
          "name": "C2",
          "ticks": 12672,
          "time": 11.647053,
          "velocity": 0.3937007874015748
        },
        {
          "duration": 0.3529410000000013,
          "durationTicks": 384,
          "midi": 35,
          "name": "B1",
          "ticks": 12672,
          "time": 11.647053,
          "velocity": 0.3937007874015748
        },
        {
          "duration": 0.3529410000000013,
          "durationTicks": 384,
          "midi": 38,
          "name": "D2",
          "ticks": 12672,
          "time": 11.647053,
          "velocity": 0.3937007874015748
        },
        {
          "duration": 0.5294114999999984,
          "durationTicks": 576,
          "midi": 43,
          "name": "G2",
          "ticks": 13056,
          "time": 11.999994000000001,
          "velocity": 0.3937007874015748
        },
        {
          "duration": 0.5294114999999984,
          "durationTicks": 576,
          "midi": 44,
          "name": "G#2",
          "ticks": 13056,
          "time": 11.999994000000001,
          "velocity": 0.3937007874015748
        },
        {
          "duration": 0.5294114999999984,
          "durationTicks": 576,
          "midi": 41,
          "name": "F2",
          "ticks": 13056,
          "time": 11.999994000000001,
          "velocity": 0.3937007874015748
        },
        {
          "duration": 0.17647050000000064,
          "durationTicks": 192,
          "midi": 43,
          "name": "G2",
          "ticks": 13632,
          "time": 12.5294055,
          "velocity": 0.3937007874015748
        },
        {
          "duration": 0.17647050000000064,
          "durationTicks": 192,
          "midi": 44,
          "name": "G#2",
          "ticks": 13632,
          "time": 12.5294055,
          "velocity": 0.3937007874015748
        },
        {
          "duration": 0.17647050000000064,
          "durationTicks": 192,
          "midi": 41,
          "name": "F2",
          "ticks": 13632,
          "time": 12.5294055,
          "velocity": 0.3937007874015748
        },
        {
          "duration": 0.17647050000000064,
          "durationTicks": 192,
          "midi": 36,
          "name": "C2",
          "ticks": 13824,
          "time": 12.705876,
          "velocity": 0.3937007874015748
        },
        {
          "duration": 0.17647050000000064,
          "durationTicks": 192,
          "midi": 35,
          "name": "B1",
          "ticks": 13824,
          "time": 12.705876,
          "velocity": 0.3937007874015748
        },
        {
          "duration": 0.17647050000000064,
          "durationTicks": 192,
          "midi": 38,
          "name": "D2",
          "ticks": 13824,
          "time": 12.705876,
          "velocity": 0.3937007874015748
        },
        {
          "duration": 0.17647049999999886,
          "durationTicks": 192,
          "midi": 43,
          "name": "G2",
          "ticks": 14016,
          "time": 12.8823465,
          "velocity": 0.3937007874015748
        },
        {
          "duration": 0.17647049999999886,
          "durationTicks": 192,
          "midi": 44,
          "name": "G#2",
          "ticks": 14016,
          "time": 12.8823465,
          "velocity": 0.3937007874015748
        },
        {
          "duration": 0.17647049999999886,
          "durationTicks": 192,
          "midi": 41,
          "name": "F2",
          "ticks": 14016,
          "time": 12.8823465,
          "velocity": 0.3937007874015748
        },
        {
          "duration": 0.3529410000000013,
          "durationTicks": 384,
          "midi": 36,
          "name": "C2",
          "ticks": 14208,
          "time": 13.058817,
          "velocity": 0.3937007874015748
        },
        {
          "duration": 0.3529410000000013,
          "durationTicks": 384,
          "midi": 35,
          "name": "B1",
          "ticks": 14208,
          "time": 13.058817,
          "velocity": 0.3937007874015748
        },
        {
          "duration": 0.3529410000000013,
          "durationTicks": 384,
          "midi": 38,
          "name": "D2",
          "ticks": 14208,
          "time": 13.058817,
          "velocity": 0.3937007874015748
        },
        {
          "duration": 0.5294115000000001,
          "durationTicks": 576,
          "midi": 43,
          "name": "G2",
          "ticks": 14592,
          "time": 13.411758,
          "velocity": 0.3937007874015748
        },
        {
          "duration": 0.5294115000000001,
          "durationTicks": 576,
          "midi": 44,
          "name": "G#2",
          "ticks": 14592,
          "time": 13.411758,
          "velocity": 0.3937007874015748
        },
        {
          "duration": 0.5294115000000001,
          "durationTicks": 576,
          "midi": 41,
          "name": "F2",
          "ticks": 14592,
          "time": 13.411758,
          "velocity": 0.3937007874015748
        },
        {
          "duration": 0.17647049999999886,
          "durationTicks": 192,
          "midi": 43,
          "name": "G2",
          "ticks": 15168,
          "time": 13.9411695,
          "velocity": 0.3937007874015748
        },
        {
          "duration": 0.17647049999999886,
          "durationTicks": 192,
          "midi": 44,
          "name": "G#2",
          "ticks": 15168,
          "time": 13.9411695,
          "velocity": 0.3937007874015748
        },
        {
          "duration": 0.17647049999999886,
          "durationTicks": 192,
          "midi": 41,
          "name": "F2",
          "ticks": 15168,
          "time": 13.9411695,
          "velocity": 0.3937007874015748
        },
        {
          "duration": 0.17647050000000064,
          "durationTicks": 192,
          "midi": 36,
          "name": "C2",
          "ticks": 15360,
          "time": 14.11764,
          "velocity": 0.3937007874015748
        },
        {
          "duration": 0.17647050000000064,
          "durationTicks": 192,
          "midi": 35,
          "name": "B1",
          "ticks": 15360,
          "time": 14.11764,
          "velocity": 0.3937007874015748
        },
        {
          "duration": 0.17647050000000064,
          "durationTicks": 192,
          "midi": 38,
          "name": "D2",
          "ticks": 15360,
          "time": 14.11764,
          "velocity": 0.3937007874015748
        },
        {
          "duration": 0.3529409999999995,
          "durationTicks": 384,
          "midi": 36,
          "name": "C2",
          "ticks": 15744,
          "time": 14.470581000000001,
          "velocity": 0.3937007874015748
        },
        {
          "duration": 0.3529409999999995,
          "durationTicks": 384,
          "midi": 35,
          "name": "B1",
          "ticks": 15744,
          "time": 14.470581000000001,
          "velocity": 0.3937007874015748
        },
        {
          "duration": 0.3529409999999995,
          "durationTicks": 384,
          "midi": 38,
          "name": "D2",
          "ticks": 15744,
          "time": 14.470581000000001,
          "velocity": 0.3937007874015748
        },
        {
          "duration": 0.5294115000000001,
          "durationTicks": 576,
          "midi": 43,
          "name": "G2",
          "ticks": 16128,
          "time": 14.823522,
          "velocity": 0.3937007874015748
        },
        {
          "duration": 0.5294115000000001,
          "durationTicks": 576,
          "midi": 44,
          "name": "G#2",
          "ticks": 16128,
          "time": 14.823522,
          "velocity": 0.3937007874015748
        },
        {
          "duration": 0.5294115000000001,
          "durationTicks": 576,
          "midi": 41,
          "name": "F2",
          "ticks": 16128,
          "time": 14.823522,
          "velocity": 0.3937007874015748
        },
        {
          "duration": 0.17647049999999886,
          "durationTicks": 192,
          "midi": 43,
          "name": "G2",
          "ticks": 16704,
          "time": 15.3529335,
          "velocity": 0.3937007874015748
        },
        {
          "duration": 0.17647049999999886,
          "durationTicks": 192,
          "midi": 44,
          "name": "G#2",
          "ticks": 16704,
          "time": 15.3529335,
          "velocity": 0.3937007874015748
        },
        {
          "duration": 0.17647049999999886,
          "durationTicks": 192,
          "midi": 41,
          "name": "F2",
          "ticks": 16704,
          "time": 15.3529335,
          "velocity": 0.3937007874015748
        },
        {
          "duration": 0.17647050000000064,
          "durationTicks": 192,
          "midi": 36,
          "name": "C2",
          "ticks": 16896,
          "time": 15.529404,
          "velocity": 0.3937007874015748
        },
        {
          "duration": 0.17647050000000064,
          "durationTicks": 192,
          "midi": 35,
          "name": "B1",
          "ticks": 16896,
          "time": 15.529404,
          "velocity": 0.3937007874015748
        },
        {
          "duration": 0.17647050000000064,
          "durationTicks": 192,
          "midi": 38,
          "name": "D2",
          "ticks": 16896,
          "time": 15.529404,
          "velocity": 0.3937007874015748
        },
        {
          "duration": 0.17647050000000064,
          "durationTicks": 192,
          "midi": 43,
          "name": "G2",
          "ticks": 17088,
          "time": 15.7058745,
          "velocity": 0.3937007874015748
        },
        {
          "duration": 0.17647050000000064,
          "durationTicks": 192,
          "midi": 44,
          "name": "G#2",
          "ticks": 17088,
          "time": 15.7058745,
          "velocity": 0.3937007874015748
        },
        {
          "duration": 0.17647050000000064,
          "durationTicks": 192,
          "midi": 41,
          "name": "F2",
          "ticks": 17088,
          "time": 15.7058745,
          "velocity": 0.3937007874015748
        },
        {
          "duration": 0.35294099999999773,
          "durationTicks": 384,
          "midi": 36,
          "name": "C2",
          "ticks": 17280,
          "time": 15.882345,
          "velocity": 0.3937007874015748
        },
        {
          "duration": 0.35294099999999773,
          "durationTicks": 384,
          "midi": 35,
          "name": "B1",
          "ticks": 17280,
          "time": 15.882345,
          "velocity": 0.3937007874015748
        },
        {
          "duration": 0.35294099999999773,
          "durationTicks": 384,
          "midi": 38,
          "name": "D2",
          "ticks": 17280,
          "time": 15.882345,
          "velocity": 0.3937007874015748
        },
        {
          "duration": 0.5294115000000019,
          "durationTicks": 576,
          "midi": 43,
          "name": "G2",
          "ticks": 17664,
          "time": 16.235286,
          "velocity": 0.3937007874015748
        },
        {
          "duration": 0.5294115000000019,
          "durationTicks": 576,
          "midi": 44,
          "name": "G#2",
          "ticks": 17664,
          "time": 16.235286,
          "velocity": 0.3937007874015748
        },
        {
          "duration": 0.5294115000000019,
          "durationTicks": 576,
          "midi": 41,
          "name": "F2",
          "ticks": 17664,
          "time": 16.235286,
          "velocity": 0.3937007874015748
        },
        {
          "duration": 0.17647050000000064,
          "durationTicks": 192,
          "midi": 43,
          "name": "G2",
          "ticks": 18240,
          "time": 16.7646975,
          "velocity": 0.3937007874015748
        },
        {
          "duration": 0.17647050000000064,
          "durationTicks": 192,
          "midi": 44,
          "name": "G#2",
          "ticks": 18240,
          "time": 16.7646975,
          "velocity": 0.3937007874015748
        },
        {
          "duration": 0.17647050000000064,
          "durationTicks": 192,
          "midi": 41,
          "name": "F2",
          "ticks": 18240,
          "time": 16.7646975,
          "velocity": 0.3937007874015748
        },
        {
          "duration": 0.17647050000000064,
          "durationTicks": 192,
          "midi": 36,
          "name": "C2",
          "ticks": 18432,
          "time": 16.941168,
          "velocity": 0.3937007874015748
        },
        {
          "duration": 0.17647050000000064,
          "durationTicks": 192,
          "midi": 35,
          "name": "B1",
          "ticks": 18432,
          "time": 16.941168,
          "velocity": 0.3937007874015748
        },
        {
          "duration": 0.17647050000000064,
          "durationTicks": 192,
          "midi": 38,
          "name": "D2",
          "ticks": 18432,
          "time": 16.941168,
          "velocity": 0.3937007874015748
        },
        {
          "duration": 0.3529410000000013,
          "durationTicks": 384,
          "midi": 36,
          "name": "C2",
          "ticks": 18816,
          "time": 17.294109,
          "velocity": 0.3937007874015748
        },
        {
          "duration": 0.3529410000000013,
          "durationTicks": 384,
          "midi": 35,
          "name": "B1",
          "ticks": 18816,
          "time": 17.294109,
          "velocity": 0.3937007874015748
        },
        {
          "duration": 0.3529410000000013,
          "durationTicks": 384,
          "midi": 38,
          "name": "D2",
          "ticks": 18816,
          "time": 17.294109,
          "velocity": 0.3937007874015748
        },
        {
          "duration": 0.5294114999999984,
          "durationTicks": 576,
          "midi": 43,
          "name": "G2",
          "ticks": 19200,
          "time": 17.64705,
          "velocity": 0.3937007874015748
        },
        {
          "duration": 0.5294114999999984,
          "durationTicks": 576,
          "midi": 44,
          "name": "G#2",
          "ticks": 19200,
          "time": 17.64705,
          "velocity": 0.3937007874015748
        },
        {
          "duration": 0.5294114999999984,
          "durationTicks": 576,
          "midi": 41,
          "name": "F2",
          "ticks": 19200,
          "time": 17.64705,
          "velocity": 0.3937007874015748
        },
        {
          "duration": 0.17647050000000064,
          "durationTicks": 192,
          "midi": 43,
          "name": "G2",
          "ticks": 19776,
          "time": 18.1764615,
          "velocity": 0.3937007874015748
        },
        {
          "duration": 0.17647050000000064,
          "durationTicks": 192,
          "midi": 44,
          "name": "G#2",
          "ticks": 19776,
          "time": 18.1764615,
          "velocity": 0.3937007874015748
        },
        {
          "duration": 0.17647050000000064,
          "durationTicks": 192,
          "midi": 41,
          "name": "F2",
          "ticks": 19776,
          "time": 18.1764615,
          "velocity": 0.3937007874015748
        },
        {
          "duration": 0.17647050000000064,
          "durationTicks": 192,
          "midi": 36,
          "name": "C2",
          "ticks": 19968,
          "time": 18.352932,
          "velocity": 0.3937007874015748
        },
        {
          "duration": 0.17647050000000064,
          "durationTicks": 192,
          "midi": 35,
          "name": "B1",
          "ticks": 19968,
          "time": 18.352932,
          "velocity": 0.3937007874015748
        },
        {
          "duration": 0.17647050000000064,
          "durationTicks": 192,
          "midi": 38,
          "name": "D2",
          "ticks": 19968,
          "time": 18.352932,
          "velocity": 0.3937007874015748
        },
        {
          "duration": 0.17647050000000064,
          "durationTicks": 192,
          "midi": 43,
          "name": "G2",
          "ticks": 20160,
          "time": 18.5294025,
          "velocity": 0.3937007874015748
        },
        {
          "duration": 0.17647050000000064,
          "durationTicks": 192,
          "midi": 44,
          "name": "G#2",
          "ticks": 20160,
          "time": 18.5294025,
          "velocity": 0.3937007874015748
        },
        {
          "duration": 0.17647050000000064,
          "durationTicks": 192,
          "midi": 41,
          "name": "F2",
          "ticks": 20160,
          "time": 18.5294025,
          "velocity": 0.3937007874015748
        },
        {
          "duration": 0.3529410000000013,
          "durationTicks": 384,
          "midi": 36,
          "name": "C2",
          "ticks": 20352,
          "time": 18.705873,
          "velocity": 0.3937007874015748
        },
        {
          "duration": 0.3529410000000013,
          "durationTicks": 384,
          "midi": 35,
          "name": "B1",
          "ticks": 20352,
          "time": 18.705873,
          "velocity": 0.3937007874015748
        },
        {
          "duration": 0.3529410000000013,
          "durationTicks": 384,
          "midi": 38,
          "name": "D2",
          "ticks": 20352,
          "time": 18.705873,
          "velocity": 0.3937007874015748
        },
        {
          "duration": 0.5294114999999984,
          "durationTicks": 576,
          "midi": 43,
          "name": "G2",
          "ticks": 20736,
          "time": 19.058814,
          "velocity": 0.3937007874015748
        },
        {
          "duration": 0.5294114999999984,
          "durationTicks": 576,
          "midi": 44,
          "name": "G#2",
          "ticks": 20736,
          "time": 19.058814,
          "velocity": 0.3937007874015748
        },
        {
          "duration": 0.5294114999999984,
          "durationTicks": 576,
          "midi": 41,
          "name": "F2",
          "ticks": 20736,
          "time": 19.058814,
          "velocity": 0.3937007874015748
        },
        {
          "duration": 0.17647050000000064,
          "durationTicks": 192,
          "midi": 43,
          "name": "G2",
          "ticks": 21312,
          "time": 19.5882255,
          "velocity": 0.3937007874015748
        },
        {
          "duration": 0.17647050000000064,
          "durationTicks": 192,
          "midi": 44,
          "name": "G#2",
          "ticks": 21312,
          "time": 19.5882255,
          "velocity": 0.3937007874015748
        },
        {
          "duration": 0.17647050000000064,
          "durationTicks": 192,
          "midi": 41,
          "name": "F2",
          "ticks": 21312,
          "time": 19.5882255,
          "velocity": 0.3937007874015748
        },
        {
          "duration": 0.17647050000000064,
          "durationTicks": 192,
          "midi": 36,
          "name": "C2",
          "ticks": 21504,
          "time": 19.764696,
          "velocity": 0.3937007874015748
        },
        {
          "duration": 0.17647050000000064,
          "durationTicks": 192,
          "midi": 35,
          "name": "B1",
          "ticks": 21504,
          "time": 19.764696,
          "velocity": 0.3937007874015748
        },
        {
          "duration": 0.17647050000000064,
          "durationTicks": 192,
          "midi": 38,
          "name": "D2",
          "ticks": 21504,
          "time": 19.764696,
          "velocity": 0.3937007874015748
        },
        {
          "duration": 0.35294099999999773,
          "durationTicks": 384,
          "midi": 36,
          "name": "C2",
          "ticks": 21888,
          "time": 20.117637000000002,
          "velocity": 0.3937007874015748
        },
        {
          "duration": 0.35294099999999773,
          "durationTicks": 384,
          "midi": 35,
          "name": "B1",
          "ticks": 21888,
          "time": 20.117637000000002,
          "velocity": 0.3937007874015748
        },
        {
          "duration": 0.35294099999999773,
          "durationTicks": 384,
          "midi": 38,
          "name": "D2",
          "ticks": 21888,
          "time": 20.117637000000002,
          "velocity": 0.3937007874015748
        },
        {
          "duration": 0.5294115000000019,
          "durationTicks": 576,
          "midi": 43,
          "name": "G2",
          "ticks": 22272,
          "time": 20.470578,
          "velocity": 0.3937007874015748
        },
        {
          "duration": 0.5294115000000019,
          "durationTicks": 576,
          "midi": 44,
          "name": "G#2",
          "ticks": 22272,
          "time": 20.470578,
          "velocity": 0.3937007874015748
        },
        {
          "duration": 0.5294115000000019,
          "durationTicks": 576,
          "midi": 41,
          "name": "F2",
          "ticks": 22272,
          "time": 20.470578,
          "velocity": 0.3937007874015748
        },
        {
          "duration": 0.1764704999999971,
          "durationTicks": 192,
          "midi": 43,
          "name": "G2",
          "ticks": 22848,
          "time": 20.9999895,
          "velocity": 0.3937007874015748
        },
        {
          "duration": 0.1764704999999971,
          "durationTicks": 192,
          "midi": 44,
          "name": "G#2",
          "ticks": 22848,
          "time": 20.9999895,
          "velocity": 0.3937007874015748
        },
        {
          "duration": 0.1764704999999971,
          "durationTicks": 192,
          "midi": 41,
          "name": "F2",
          "ticks": 22848,
          "time": 20.9999895,
          "velocity": 0.3937007874015748
        },
        {
          "duration": 0.17647050000000064,
          "durationTicks": 192,
          "midi": 36,
          "name": "C2",
          "ticks": 23040,
          "time": 21.17646,
          "velocity": 0.3937007874015748
        },
        {
          "duration": 0.17647050000000064,
          "durationTicks": 192,
          "midi": 35,
          "name": "B1",
          "ticks": 23040,
          "time": 21.17646,
          "velocity": 0.3937007874015748
        },
        {
          "duration": 0.17647050000000064,
          "durationTicks": 192,
          "midi": 38,
          "name": "D2",
          "ticks": 23040,
          "time": 21.17646,
          "velocity": 0.3937007874015748
        },
        {
          "duration": 0.17647050000000064,
          "durationTicks": 192,
          "midi": 43,
          "name": "G2",
          "ticks": 23232,
          "time": 21.3529305,
          "velocity": 0.3937007874015748
        },
        {
          "duration": 0.17647050000000064,
          "durationTicks": 192,
          "midi": 44,
          "name": "G#2",
          "ticks": 23232,
          "time": 21.3529305,
          "velocity": 0.3937007874015748
        },
        {
          "duration": 0.17647050000000064,
          "durationTicks": 192,
          "midi": 41,
          "name": "F2",
          "ticks": 23232,
          "time": 21.3529305,
          "velocity": 0.3937007874015748
        },
        {
          "duration": 0.3529410000000013,
          "durationTicks": 384,
          "midi": 36,
          "name": "C2",
          "ticks": 23424,
          "time": 21.529401,
          "velocity": 0.3937007874015748
        },
        {
          "duration": 0.3529410000000013,
          "durationTicks": 384,
          "midi": 35,
          "name": "B1",
          "ticks": 23424,
          "time": 21.529401,
          "velocity": 0.3937007874015748
        },
        {
          "duration": 0.3529410000000013,
          "durationTicks": 384,
          "midi": 38,
          "name": "D2",
          "ticks": 23424,
          "time": 21.529401,
          "velocity": 0.3937007874015748
        },
        {
          "duration": 0.5294114999999984,
          "durationTicks": 576,
          "midi": 43,
          "name": "G2",
          "ticks": 23808,
          "time": 21.882342,
          "velocity": 0.3937007874015748
        },
        {
          "duration": 0.5294114999999984,
          "durationTicks": 576,
          "midi": 44,
          "name": "G#2",
          "ticks": 23808,
          "time": 21.882342,
          "velocity": 0.3937007874015748
        },
        {
          "duration": 0.5294114999999984,
          "durationTicks": 576,
          "midi": 41,
          "name": "F2",
          "ticks": 23808,
          "time": 21.882342,
          "velocity": 0.3937007874015748
        },
        {
          "duration": 0.17647050000000064,
          "durationTicks": 192,
          "midi": 43,
          "name": "G2",
          "ticks": 24384,
          "time": 22.4117535,
          "velocity": 0.3937007874015748
        },
        {
          "duration": 0.17647050000000064,
          "durationTicks": 192,
          "midi": 44,
          "name": "G#2",
          "ticks": 24384,
          "time": 22.4117535,
          "velocity": 0.3937007874015748
        },
        {
          "duration": 0.17647050000000064,
          "durationTicks": 192,
          "midi": 41,
          "name": "F2",
          "ticks": 24384,
          "time": 22.4117535,
          "velocity": 0.3937007874015748
        },
        {
          "duration": 0.17647050000000064,
          "durationTicks": 192,
          "midi": 36,
          "name": "C2",
          "ticks": 24576,
          "time": 22.588224,
          "velocity": 0.3937007874015748
        },
        {
          "duration": 0.17647050000000064,
          "durationTicks": 192,
          "midi": 35,
          "name": "B1",
          "ticks": 24576,
          "time": 22.588224,
          "velocity": 0.3937007874015748
        },
        {
          "duration": 0.17647050000000064,
          "durationTicks": 192,
          "midi": 38,
          "name": "D2",
          "ticks": 24576,
          "time": 22.588224,
          "velocity": 0.3937007874015748
        },
        {
          "duration": 0.35294099999999773,
          "durationTicks": 384,
          "midi": 36,
          "name": "C2",
          "ticks": 24960,
          "time": 22.941165,
          "velocity": 0.3937007874015748
        },
        {
          "duration": 0.35294099999999773,
          "durationTicks": 384,
          "midi": 35,
          "name": "B1",
          "ticks": 24960,
          "time": 22.941165,
          "velocity": 0.3937007874015748
        },
        {
          "duration": 0.35294099999999773,
          "durationTicks": 384,
          "midi": 38,
          "name": "D2",
          "ticks": 24960,
          "time": 22.941165,
          "velocity": 0.3937007874015748
        },
        {
          "duration": 0.5294115000000019,
          "durationTicks": 576,
          "midi": 43,
          "name": "G2",
          "ticks": 25344,
          "time": 23.294106,
          "velocity": 0.3937007874015748
        },
        {
          "duration": 0.5294115000000019,
          "durationTicks": 576,
          "midi": 44,
          "name": "G#2",
          "ticks": 25344,
          "time": 23.294106,
          "velocity": 0.3937007874015748
        },
        {
          "duration": 0.5294115000000019,
          "durationTicks": 576,
          "midi": 41,
          "name": "F2",
          "ticks": 25344,
          "time": 23.294106,
          "velocity": 0.3937007874015748
        },
        {
          "duration": 0.17647050000000064,
          "durationTicks": 192,
          "midi": 43,
          "name": "G2",
          "ticks": 25920,
          "time": 23.8235175,
          "velocity": 0.3937007874015748
        },
        {
          "duration": 0.17647050000000064,
          "durationTicks": 192,
          "midi": 44,
          "name": "G#2",
          "ticks": 25920,
          "time": 23.8235175,
          "velocity": 0.3937007874015748
        },
        {
          "duration": 0.17647050000000064,
          "durationTicks": 192,
          "midi": 41,
          "name": "F2",
          "ticks": 25920,
          "time": 23.8235175,
          "velocity": 0.3937007874015748
        },
        {
          "duration": 0.1764704999999971,
          "durationTicks": 192,
          "midi": 36,
          "name": "C2",
          "ticks": 26112,
          "time": 23.999988000000002,
          "velocity": 0.3937007874015748
        },
        {
          "duration": 0.1764704999999971,
          "durationTicks": 192,
          "midi": 35,
          "name": "B1",
          "ticks": 26112,
          "time": 23.999988000000002,
          "velocity": 0.3937007874015748
        },
        {
          "duration": 0.1764704999999971,
          "durationTicks": 192,
          "midi": 38,
          "name": "D2",
          "ticks": 26112,
          "time": 23.999988000000002,
          "velocity": 0.3937007874015748
        },
        {
          "duration": 0.17647050000000064,
          "durationTicks": 192,
          "midi": 43,
          "name": "G2",
          "ticks": 26304,
          "time": 24.1764585,
          "velocity": 0.3937007874015748
        },
        {
          "duration": 0.17647050000000064,
          "durationTicks": 192,
          "midi": 44,
          "name": "G#2",
          "ticks": 26304,
          "time": 24.1764585,
          "velocity": 0.3937007874015748
        },
        {
          "duration": 0.17647050000000064,
          "durationTicks": 192,
          "midi": 41,
          "name": "F2",
          "ticks": 26304,
          "time": 24.1764585,
          "velocity": 0.3937007874015748
        },
        {
          "duration": 0.3529410000000013,
          "durationTicks": 384,
          "midi": 36,
          "name": "C2",
          "ticks": 26496,
          "time": 24.352929,
          "velocity": 0.3937007874015748
        },
        {
          "duration": 0.3529410000000013,
          "durationTicks": 384,
          "midi": 35,
          "name": "B1",
          "ticks": 26496,
          "time": 24.352929,
          "velocity": 0.3937007874015748
        },
        {
          "duration": 0.3529410000000013,
          "durationTicks": 384,
          "midi": 38,
          "name": "D2",
          "ticks": 26496,
          "time": 24.352929,
          "velocity": 0.3937007874015748
        },
        {
          "duration": 0.5294114999999984,
          "durationTicks": 576,
          "midi": 43,
          "name": "G2",
          "ticks": 26880,
          "time": 24.70587,
          "velocity": 0.3937007874015748
        },
        {
          "duration": 0.5294114999999984,
          "durationTicks": 576,
          "midi": 44,
          "name": "G#2",
          "ticks": 26880,
          "time": 24.70587,
          "velocity": 0.3937007874015748
        },
        {
          "duration": 0.5294114999999984,
          "durationTicks": 576,
          "midi": 41,
          "name": "F2",
          "ticks": 26880,
          "time": 24.70587,
          "velocity": 0.3937007874015748
        },
        {
          "duration": 0.17647050000000064,
          "durationTicks": 192,
          "midi": 43,
          "name": "G2",
          "ticks": 27456,
          "time": 25.2352815,
          "velocity": 0.3937007874015748
        },
        {
          "duration": 0.17647050000000064,
          "durationTicks": 192,
          "midi": 44,
          "name": "G#2",
          "ticks": 27456,
          "time": 25.2352815,
          "velocity": 0.3937007874015748
        },
        {
          "duration": 0.17647050000000064,
          "durationTicks": 192,
          "midi": 41,
          "name": "F2",
          "ticks": 27456,
          "time": 25.2352815,
          "velocity": 0.3937007874015748
        },
        {
          "duration": 0.17647050000000064,
          "durationTicks": 192,
          "midi": 36,
          "name": "C2",
          "ticks": 27648,
          "time": 25.411752,
          "velocity": 0.3937007874015748
        },
        {
          "duration": 0.17647050000000064,
          "durationTicks": 192,
          "midi": 35,
          "name": "B1",
          "ticks": 27648,
          "time": 25.411752,
          "velocity": 0.3937007874015748
        },
        {
          "duration": 0.17647050000000064,
          "durationTicks": 192,
          "midi": 38,
          "name": "D2",
          "ticks": 27648,
          "time": 25.411752,
          "velocity": 0.3937007874015748
        },
        {
          "duration": 0.35294099999999773,
          "durationTicks": 384,
          "midi": 36,
          "name": "C2",
          "ticks": 28032,
          "time": 25.764693,
          "velocity": 0.3937007874015748
        },
        {
          "duration": 0.35294099999999773,
          "durationTicks": 384,
          "midi": 35,
          "name": "B1",
          "ticks": 28032,
          "time": 25.764693,
          "velocity": 0.3937007874015748
        },
        {
          "duration": 0.35294099999999773,
          "durationTicks": 384,
          "midi": 38,
          "name": "D2",
          "ticks": 28032,
          "time": 25.764693,
          "velocity": 0.3937007874015748
        },
        {
          "duration": 0.5294115000000019,
          "durationTicks": 576,
          "midi": 43,
          "name": "G2",
          "ticks": 28416,
          "time": 26.117634,
          "velocity": 0.3937007874015748
        },
        {
          "duration": 0.5294115000000019,
          "durationTicks": 576,
          "midi": 44,
          "name": "G#2",
          "ticks": 28416,
          "time": 26.117634,
          "velocity": 0.3937007874015748
        },
        {
          "duration": 0.5294115000000019,
          "durationTicks": 576,
          "midi": 41,
          "name": "F2",
          "ticks": 28416,
          "time": 26.117634,
          "velocity": 0.3937007874015748
        },
        {
          "duration": 0.17647050000000064,
          "durationTicks": 192,
          "midi": 43,
          "name": "G2",
          "ticks": 28992,
          "time": 26.6470455,
          "velocity": 0.3937007874015748
        },
        {
          "duration": 0.17647050000000064,
          "durationTicks": 192,
          "midi": 44,
          "name": "G#2",
          "ticks": 28992,
          "time": 26.6470455,
          "velocity": 0.3937007874015748
        },
        {
          "duration": 0.17647050000000064,
          "durationTicks": 192,
          "midi": 41,
          "name": "F2",
          "ticks": 28992,
          "time": 26.6470455,
          "velocity": 0.3937007874015748
        },
        {
          "duration": 0.17647050000000064,
          "durationTicks": 192,
          "midi": 36,
          "name": "C2",
          "ticks": 29184,
          "time": 26.823516,
          "velocity": 0.3937007874015748
        },
        {
          "duration": 0.17647050000000064,
          "durationTicks": 192,
          "midi": 35,
          "name": "B1",
          "ticks": 29184,
          "time": 26.823516,
          "velocity": 0.3937007874015748
        },
        {
          "duration": 0.17647050000000064,
          "durationTicks": 192,
          "midi": 38,
          "name": "D2",
          "ticks": 29184,
          "time": 26.823516,
          "velocity": 0.3937007874015748
        },
        {
          "duration": 0.1764704999999971,
          "durationTicks": 192,
          "midi": 43,
          "name": "G2",
          "ticks": 29376,
          "time": 26.999986500000002,
          "velocity": 0.3937007874015748
        },
        {
          "duration": 0.1764704999999971,
          "durationTicks": 192,
          "midi": 44,
          "name": "G#2",
          "ticks": 29376,
          "time": 26.999986500000002,
          "velocity": 0.3937007874015748
        },
        {
          "duration": 0.1764704999999971,
          "durationTicks": 192,
          "midi": 41,
          "name": "F2",
          "ticks": 29376,
          "time": 26.999986500000002,
          "velocity": 0.3937007874015748
        },
        {
          "duration": 0.3529410000000013,
          "durationTicks": 384,
          "midi": 36,
          "name": "C2",
          "ticks": 29568,
          "time": 27.176457,
          "velocity": 0.3937007874015748
        },
        {
          "duration": 0.3529410000000013,
          "durationTicks": 384,
          "midi": 35,
          "name": "B1",
          "ticks": 29568,
          "time": 27.176457,
          "velocity": 0.3937007874015748
        },
        {
          "duration": 0.3529410000000013,
          "durationTicks": 384,
          "midi": 38,
          "name": "D2",
          "ticks": 29568,
          "time": 27.176457,
          "velocity": 0.3937007874015748
        },
        {
          "duration": 0.5294114999999984,
          "durationTicks": 576,
          "midi": 43,
          "name": "G2",
          "ticks": 29952,
          "time": 27.529398,
          "velocity": 0.3937007874015748
        },
        {
          "duration": 0.5294114999999984,
          "durationTicks": 576,
          "midi": 44,
          "name": "G#2",
          "ticks": 29952,
          "time": 27.529398,
          "velocity": 0.3937007874015748
        },
        {
          "duration": 0.5294114999999984,
          "durationTicks": 576,
          "midi": 41,
          "name": "F2",
          "ticks": 29952,
          "time": 27.529398,
          "velocity": 0.3937007874015748
        },
        {
          "duration": 0.17647050000000064,
          "durationTicks": 192,
          "midi": 43,
          "name": "G2",
          "ticks": 30528,
          "time": 28.0588095,
          "velocity": 0.3937007874015748
        },
        {
          "duration": 0.17647050000000064,
          "durationTicks": 192,
          "midi": 44,
          "name": "G#2",
          "ticks": 30528,
          "time": 28.0588095,
          "velocity": 0.3937007874015748
        },
        {
          "duration": 0.17647050000000064,
          "durationTicks": 192,
          "midi": 41,
          "name": "F2",
          "ticks": 30528,
          "time": 28.0588095,
          "velocity": 0.3937007874015748
        },
        {
          "duration": 0.17647050000000064,
          "durationTicks": 192,
          "midi": 36,
          "name": "C2",
          "ticks": 30720,
          "time": 28.23528,
          "velocity": 0.3937007874015748
        },
        {
          "duration": 0.17647050000000064,
          "durationTicks": 192,
          "midi": 35,
          "name": "B1",
          "ticks": 30720,
          "time": 28.23528,
          "velocity": 0.3937007874015748
        },
        {
          "duration": 0.17647050000000064,
          "durationTicks": 192,
          "midi": 38,
          "name": "D2",
          "ticks": 30720,
          "time": 28.23528,
          "velocity": 0.3937007874015748
        },
        {
          "duration": 0.3529410000000013,
          "durationTicks": 384,
          "midi": 36,
          "name": "C2",
          "ticks": 31104,
          "time": 28.588221,
          "velocity": 0.3937007874015748
        },
        {
          "duration": 0.3529410000000013,
          "durationTicks": 384,
          "midi": 35,
          "name": "B1",
          "ticks": 31104,
          "time": 28.588221,
          "velocity": 0.3937007874015748
        },
        {
          "duration": 0.3529410000000013,
          "durationTicks": 384,
          "midi": 38,
          "name": "D2",
          "ticks": 31104,
          "time": 28.588221,
          "velocity": 0.3937007874015748
        },
        {
          "duration": 0.5294114999999984,
          "durationTicks": 576,
          "midi": 43,
          "name": "G2",
          "ticks": 31488,
          "time": 28.941162000000002,
          "velocity": 0.3937007874015748
        },
        {
          "duration": 0.5294114999999984,
          "durationTicks": 576,
          "midi": 44,
          "name": "G#2",
          "ticks": 31488,
          "time": 28.941162000000002,
          "velocity": 0.3937007874015748
        },
        {
          "duration": 0.5294114999999984,
          "durationTicks": 576,
          "midi": 41,
          "name": "F2",
          "ticks": 31488,
          "time": 28.941162000000002,
          "velocity": 0.3937007874015748
        },
        {
          "duration": 0.17647050000000064,
          "durationTicks": 192,
          "midi": 43,
          "name": "G2",
          "ticks": 32064,
          "time": 29.4705735,
          "velocity": 0.3937007874015748
        },
        {
          "duration": 0.17647050000000064,
          "durationTicks": 192,
          "midi": 44,
          "name": "G#2",
          "ticks": 32064,
          "time": 29.4705735,
          "velocity": 0.3937007874015748
        },
        {
          "duration": 0.17647050000000064,
          "durationTicks": 192,
          "midi": 41,
          "name": "F2",
          "ticks": 32064,
          "time": 29.4705735,
          "velocity": 0.3937007874015748
        },
        {
          "duration": 0.17647050000000064,
          "durationTicks": 192,
          "midi": 36,
          "name": "C2",
          "ticks": 32256,
          "time": 29.647044,
          "velocity": 0.3937007874015748
        },
        {
          "duration": 0.17647050000000064,
          "durationTicks": 192,
          "midi": 35,
          "name": "B1",
          "ticks": 32256,
          "time": 29.647044,
          "velocity": 0.3937007874015748
        },
        {
          "duration": 0.17647050000000064,
          "durationTicks": 192,
          "midi": 38,
          "name": "D2",
          "ticks": 32256,
          "time": 29.647044,
          "velocity": 0.3937007874015748
        },
        {
          "duration": 0.1764704999999971,
          "durationTicks": 192,
          "midi": 43,
          "name": "G2",
          "ticks": 32448,
          "time": 29.8235145,
          "velocity": 0.3937007874015748
        },
        {
          "duration": 0.1764704999999971,
          "durationTicks": 192,
          "midi": 44,
          "name": "G#2",
          "ticks": 32448,
          "time": 29.8235145,
          "velocity": 0.3937007874015748
        },
        {
          "duration": 0.1764704999999971,
          "durationTicks": 192,
          "midi": 41,
          "name": "F2",
          "ticks": 32448,
          "time": 29.8235145,
          "velocity": 0.3937007874015748
        },
        {
          "duration": 0.3529410000000013,
          "durationTicks": 384,
          "midi": 36,
          "name": "C2",
          "ticks": 32640,
          "time": 29.999985,
          "velocity": 0.3937007874015748
        },
        {
          "duration": 0.3529410000000013,
          "durationTicks": 384,
          "midi": 35,
          "name": "B1",
          "ticks": 32640,
          "time": 29.999985,
          "velocity": 0.3937007874015748
        },
        {
          "duration": 0.3529410000000013,
          "durationTicks": 384,
          "midi": 38,
          "name": "D2",
          "ticks": 32640,
          "time": 29.999985,
          "velocity": 0.3937007874015748
        },
        {
          "duration": 0.5294115000000019,
          "durationTicks": 576,
          "midi": 43,
          "name": "G2",
          "ticks": 33024,
          "time": 30.352926,
          "velocity": 0.3937007874015748
        },
        {
          "duration": 0.5294115000000019,
          "durationTicks": 576,
          "midi": 44,
          "name": "G#2",
          "ticks": 33024,
          "time": 30.352926,
          "velocity": 0.3937007874015748
        },
        {
          "duration": 0.5294115000000019,
          "durationTicks": 576,
          "midi": 41,
          "name": "F2",
          "ticks": 33024,
          "time": 30.352926,
          "velocity": 0.3937007874015748
        },
        {
          "duration": 0.1764704999999971,
          "durationTicks": 192,
          "midi": 43,
          "name": "G2",
          "ticks": 33600,
          "time": 30.882337500000002,
          "velocity": 0.3937007874015748
        },
        {
          "duration": 0.1764704999999971,
          "durationTicks": 192,
          "midi": 44,
          "name": "G#2",
          "ticks": 33600,
          "time": 30.882337500000002,
          "velocity": 0.3937007874015748
        },
        {
          "duration": 0.1764704999999971,
          "durationTicks": 192,
          "midi": 41,
          "name": "F2",
          "ticks": 33600,
          "time": 30.882337500000002,
          "velocity": 0.3937007874015748
        },
        {
          "duration": 0.17647050000000064,
          "durationTicks": 192,
          "midi": 36,
          "name": "C2",
          "ticks": 33792,
          "time": 31.058808,
          "velocity": 0.3937007874015748
        },
        {
          "duration": 0.17647050000000064,
          "durationTicks": 192,
          "midi": 35,
          "name": "B1",
          "ticks": 33792,
          "time": 31.058808,
          "velocity": 0.3937007874015748
        },
        {
          "duration": 0.17647050000000064,
          "durationTicks": 192,
          "midi": 38,
          "name": "D2",
          "ticks": 33792,
          "time": 31.058808,
          "velocity": 0.3937007874015748
        },
        {
          "duration": 0.3529410000000013,
          "durationTicks": 384,
          "midi": 36,
          "name": "C2",
          "ticks": 34176,
          "time": 31.411749,
          "velocity": 0.3937007874015748
        },
        {
          "duration": 0.3529410000000013,
          "durationTicks": 384,
          "midi": 35,
          "name": "B1",
          "ticks": 34176,
          "time": 31.411749,
          "velocity": 0.3937007874015748
        },
        {
          "duration": 0.3529410000000013,
          "durationTicks": 384,
          "midi": 38,
          "name": "D2",
          "ticks": 34176,
          "time": 31.411749,
          "velocity": 0.3937007874015748
        },
        {
          "duration": 0.5294115000000019,
          "durationTicks": 576,
          "midi": 43,
          "name": "G2",
          "ticks": 34560,
          "time": 31.76469,
          "velocity": 0.3937007874015748
        },
        {
          "duration": 0.5294115000000019,
          "durationTicks": 576,
          "midi": 44,
          "name": "G#2",
          "ticks": 34560,
          "time": 31.76469,
          "velocity": 0.3937007874015748
        },
        {
          "duration": 0.5294115000000019,
          "durationTicks": 576,
          "midi": 41,
          "name": "F2",
          "ticks": 34560,
          "time": 31.76469,
          "velocity": 0.3937007874015748
        },
        {
          "duration": 0.17647049999999354,
          "durationTicks": 192,
          "midi": 43,
          "name": "G2",
          "ticks": 35136,
          "time": 32.294101500000004,
          "velocity": 0.3937007874015748
        },
        {
          "duration": 0.17647049999999354,
          "durationTicks": 192,
          "midi": 44,
          "name": "G#2",
          "ticks": 35136,
          "time": 32.294101500000004,
          "velocity": 0.3937007874015748
        },
        {
          "duration": 0.17647049999999354,
          "durationTicks": 192,
          "midi": 41,
          "name": "F2",
          "ticks": 35136,
          "time": 32.294101500000004,
          "velocity": 0.3937007874015748
        },
        {
          "duration": 0.17647050000000064,
          "durationTicks": 192,
          "midi": 36,
          "name": "C2",
          "ticks": 35328,
          "time": 32.470572,
          "velocity": 0.3937007874015748
        },
        {
          "duration": 0.17647050000000064,
          "durationTicks": 192,
          "midi": 35,
          "name": "B1",
          "ticks": 35328,
          "time": 32.470572,
          "velocity": 0.3937007874015748
        },
        {
          "duration": 0.17647050000000064,
          "durationTicks": 192,
          "midi": 38,
          "name": "D2",
          "ticks": 35328,
          "time": 32.470572,
          "velocity": 0.3937007874015748
        },
        {
          "duration": 0.17647050000000064,
          "durationTicks": 192,
          "midi": 43,
          "name": "G2",
          "ticks": 35520,
          "time": 32.6470425,
          "velocity": 0.3937007874015748
        },
        {
          "duration": 0.17647050000000064,
          "durationTicks": 192,
          "midi": 44,
          "name": "G#2",
          "ticks": 35520,
          "time": 32.6470425,
          "velocity": 0.3937007874015748
        },
        {
          "duration": 0.17647050000000064,
          "durationTicks": 192,
          "midi": 41,
          "name": "F2",
          "ticks": 35520,
          "time": 32.6470425,
          "velocity": 0.3937007874015748
        },
        {
          "duration": 0.3529410000000013,
          "durationTicks": 384,
          "midi": 36,
          "name": "C2",
          "ticks": 35712,
          "time": 32.823513,
          "velocity": 0.3937007874015748
        },
        {
          "duration": 0.3529410000000013,
          "durationTicks": 384,
          "midi": 35,
          "name": "B1",
          "ticks": 35712,
          "time": 32.823513,
          "velocity": 0.3937007874015748
        },
        {
          "duration": 0.3529410000000013,
          "durationTicks": 384,
          "midi": 38,
          "name": "D2",
          "ticks": 35712,
          "time": 32.823513,
          "velocity": 0.3937007874015748
        },
        {
          "duration": 0.5294115000000019,
          "durationTicks": 576,
          "midi": 43,
          "name": "G2",
          "ticks": 36096,
          "time": 33.176454,
          "velocity": 0.3937007874015748
        },
        {
          "duration": 0.5294115000000019,
          "durationTicks": 576,
          "midi": 44,
          "name": "G#2",
          "ticks": 36096,
          "time": 33.176454,
          "velocity": 0.3937007874015748
        },
        {
          "duration": 0.5294115000000019,
          "durationTicks": 576,
          "midi": 41,
          "name": "F2",
          "ticks": 36096,
          "time": 33.176454,
          "velocity": 0.3937007874015748
        },
        {
          "duration": 0.17647050000000064,
          "durationTicks": 192,
          "midi": 43,
          "name": "G2",
          "ticks": 36672,
          "time": 33.7058655,
          "velocity": 0.3937007874015748
        },
        {
          "duration": 0.17647050000000064,
          "durationTicks": 192,
          "midi": 44,
          "name": "G#2",
          "ticks": 36672,
          "time": 33.7058655,
          "velocity": 0.3937007874015748
        },
        {
          "duration": 0.17647050000000064,
          "durationTicks": 192,
          "midi": 41,
          "name": "F2",
          "ticks": 36672,
          "time": 33.7058655,
          "velocity": 0.3937007874015748
        },
        {
          "duration": 0.17647050000000064,
          "durationTicks": 192,
          "midi": 36,
          "name": "C2",
          "ticks": 36864,
          "time": 33.882336,
          "velocity": 0.3937007874015748
        },
        {
          "duration": 0.17647050000000064,
          "durationTicks": 192,
          "midi": 35,
          "name": "B1",
          "ticks": 36864,
          "time": 33.882336,
          "velocity": 0.3937007874015748
        },
        {
          "duration": 0.17647050000000064,
          "durationTicks": 192,
          "midi": 38,
          "name": "D2",
          "ticks": 36864,
          "time": 33.882336,
          "velocity": 0.3937007874015748
        },
        {
          "duration": 0.3529409999999942,
          "durationTicks": 384,
          "midi": 36,
          "name": "C2",
          "ticks": 37248,
          "time": 34.235277,
          "velocity": 0.3937007874015748
        },
        {
          "duration": 0.3529409999999942,
          "durationTicks": 384,
          "midi": 35,
          "name": "B1",
          "ticks": 37248,
          "time": 34.235277,
          "velocity": 0.3937007874015748
        },
        {
          "duration": 0.3529409999999942,
          "durationTicks": 384,
          "midi": 38,
          "name": "D2",
          "ticks": 37248,
          "time": 34.235277,
          "velocity": 0.3937007874015748
        },
        {
          "duration": 0.5294115000000019,
          "durationTicks": 576,
          "midi": 43,
          "name": "G2",
          "ticks": 37632,
          "time": 34.588218,
          "velocity": 0.3937007874015748
        },
        {
          "duration": 0.5294115000000019,
          "durationTicks": 576,
          "midi": 44,
          "name": "G#2",
          "ticks": 37632,
          "time": 34.588218,
          "velocity": 0.3937007874015748
        },
        {
          "duration": 0.5294115000000019,
          "durationTicks": 576,
          "midi": 41,
          "name": "F2",
          "ticks": 37632,
          "time": 34.588218,
          "velocity": 0.3937007874015748
        },
        {
          "duration": 0.17647050000000064,
          "durationTicks": 192,
          "midi": 43,
          "name": "G2",
          "ticks": 38208,
          "time": 35.1176295,
          "velocity": 0.3937007874015748
        },
        {
          "duration": 0.17647050000000064,
          "durationTicks": 192,
          "midi": 44,
          "name": "G#2",
          "ticks": 38208,
          "time": 35.1176295,
          "velocity": 0.3937007874015748
        },
        {
          "duration": 0.17647050000000064,
          "durationTicks": 192,
          "midi": 41,
          "name": "F2",
          "ticks": 38208,
          "time": 35.1176295,
          "velocity": 0.3937007874015748
        },
        {
          "duration": 0.17647050000000064,
          "durationTicks": 192,
          "midi": 36,
          "name": "C2",
          "ticks": 38400,
          "time": 35.2941,
          "velocity": 0.3937007874015748
        },
        {
          "duration": 0.17647050000000064,
          "durationTicks": 192,
          "midi": 35,
          "name": "B1",
          "ticks": 38400,
          "time": 35.2941,
          "velocity": 0.3937007874015748
        },
        {
          "duration": 0.17647050000000064,
          "durationTicks": 192,
          "midi": 38,
          "name": "D2",
          "ticks": 38400,
          "time": 35.2941,
          "velocity": 0.3937007874015748
        },
        {
          "duration": 0.17647050000000064,
          "durationTicks": 192,
          "midi": 43,
          "name": "G2",
          "ticks": 38592,
          "time": 35.4705705,
          "velocity": 0.3937007874015748
        },
        {
          "duration": 0.17647050000000064,
          "durationTicks": 192,
          "midi": 44,
          "name": "G#2",
          "ticks": 38592,
          "time": 35.4705705,
          "velocity": 0.3937007874015748
        },
        {
          "duration": 0.17647050000000064,
          "durationTicks": 192,
          "midi": 41,
          "name": "F2",
          "ticks": 38592,
          "time": 35.4705705,
          "velocity": 0.3937007874015748
        },
        {
          "duration": 0.3529410000000013,
          "durationTicks": 384,
          "midi": 36,
          "name": "C2",
          "ticks": 38784,
          "time": 35.647041,
          "velocity": 0.3937007874015748
        },
        {
          "duration": 0.3529410000000013,
          "durationTicks": 384,
          "midi": 35,
          "name": "B1",
          "ticks": 38784,
          "time": 35.647041,
          "velocity": 0.3937007874015748
        },
        {
          "duration": 0.3529410000000013,
          "durationTicks": 384,
          "midi": 38,
          "name": "D2",
          "ticks": 38784,
          "time": 35.647041,
          "velocity": 0.3937007874015748
        },
        {
          "duration": 0.5294114999999948,
          "durationTicks": 576,
          "midi": 43,
          "name": "G2",
          "ticks": 39168,
          "time": 35.999982,
          "velocity": 0.3937007874015748
        },
        {
          "duration": 0.5294114999999948,
          "durationTicks": 576,
          "midi": 44,
          "name": "G#2",
          "ticks": 39168,
          "time": 35.999982,
          "velocity": 0.3937007874015748
        },
        {
          "duration": 0.5294114999999948,
          "durationTicks": 576,
          "midi": 41,
          "name": "F2",
          "ticks": 39168,
          "time": 35.999982,
          "velocity": 0.3937007874015748
        },
        {
          "duration": 0.17647050000000064,
          "durationTicks": 192,
          "midi": 43,
          "name": "G2",
          "ticks": 39744,
          "time": 36.5293935,
          "velocity": 0.3937007874015748
        },
        {
          "duration": 0.17647050000000064,
          "durationTicks": 192,
          "midi": 44,
          "name": "G#2",
          "ticks": 39744,
          "time": 36.5293935,
          "velocity": 0.3937007874015748
        },
        {
          "duration": 0.17647050000000064,
          "durationTicks": 192,
          "midi": 41,
          "name": "F2",
          "ticks": 39744,
          "time": 36.5293935,
          "velocity": 0.3937007874015748
        },
        {
          "duration": 0.17647050000000064,
          "durationTicks": 192,
          "midi": 36,
          "name": "C2",
          "ticks": 39936,
          "time": 36.705864,
          "velocity": 0.3937007874015748
        },
        {
          "duration": 0.17647050000000064,
          "durationTicks": 192,
          "midi": 35,
          "name": "B1",
          "ticks": 39936,
          "time": 36.705864,
          "velocity": 0.3937007874015748
        },
        {
          "duration": 0.17647050000000064,
          "durationTicks": 192,
          "midi": 38,
          "name": "D2",
          "ticks": 39936,
          "time": 36.705864,
          "velocity": 0.3937007874015748
        },
        {
          "duration": 0.3529410000000013,
          "durationTicks": 384,
          "midi": 36,
          "name": "C2",
          "ticks": 40320,
          "time": 37.058805,
          "velocity": 0.3937007874015748
        },
        {
          "duration": 0.3529410000000013,
          "durationTicks": 384,
          "midi": 35,
          "name": "B1",
          "ticks": 40320,
          "time": 37.058805,
          "velocity": 0.3937007874015748
        },
        {
          "duration": 0.3529410000000013,
          "durationTicks": 384,
          "midi": 38,
          "name": "D2",
          "ticks": 40320,
          "time": 37.058805,
          "velocity": 0.3937007874015748
        },
        {
          "duration": 0.5294115000000019,
          "durationTicks": 576,
          "midi": 43,
          "name": "G2",
          "ticks": 40704,
          "time": 37.411746,
          "velocity": 0.3937007874015748
        },
        {
          "duration": 0.5294115000000019,
          "durationTicks": 576,
          "midi": 44,
          "name": "G#2",
          "ticks": 40704,
          "time": 37.411746,
          "velocity": 0.3937007874015748
        },
        {
          "duration": 0.5294115000000019,
          "durationTicks": 576,
          "midi": 41,
          "name": "F2",
          "ticks": 40704,
          "time": 37.411746,
          "velocity": 0.3937007874015748
        },
        {
          "duration": 0.17647050000000064,
          "durationTicks": 192,
          "midi": 43,
          "name": "G2",
          "ticks": 41280,
          "time": 37.9411575,
          "velocity": 0.3937007874015748
        },
        {
          "duration": 0.17647050000000064,
          "durationTicks": 192,
          "midi": 44,
          "name": "G#2",
          "ticks": 41280,
          "time": 37.9411575,
          "velocity": 0.3937007874015748
        },
        {
          "duration": 0.17647050000000064,
          "durationTicks": 192,
          "midi": 41,
          "name": "F2",
          "ticks": 41280,
          "time": 37.9411575,
          "velocity": 0.3937007874015748
        },
        {
          "duration": 0.17647050000000064,
          "durationTicks": 192,
          "midi": 36,
          "name": "C2",
          "ticks": 41472,
          "time": 38.117628,
          "velocity": 0.3937007874015748
        },
        {
          "duration": 0.17647050000000064,
          "durationTicks": 192,
          "midi": 35,
          "name": "B1",
          "ticks": 41472,
          "time": 38.117628,
          "velocity": 0.3937007874015748
        },
        {
          "duration": 0.17647050000000064,
          "durationTicks": 192,
          "midi": 38,
          "name": "D2",
          "ticks": 41472,
          "time": 38.117628,
          "velocity": 0.3937007874015748
        },
        {
          "duration": 0.17647049999999354,
          "durationTicks": 192,
          "midi": 43,
          "name": "G2",
          "ticks": 41664,
          "time": 38.294098500000004,
          "velocity": 0.3937007874015748
        },
        {
          "duration": 0.17647049999999354,
          "durationTicks": 192,
          "midi": 44,
          "name": "G#2",
          "ticks": 41664,
          "time": 38.294098500000004,
          "velocity": 0.3937007874015748
        },
        {
          "duration": 0.17647049999999354,
          "durationTicks": 192,
          "midi": 41,
          "name": "F2",
          "ticks": 41664,
          "time": 38.294098500000004,
          "velocity": 0.3937007874015748
        },
        {
          "duration": 0.3529410000000013,
          "durationTicks": 384,
          "midi": 36,
          "name": "C2",
          "ticks": 41856,
          "time": 38.470569,
          "velocity": 0.3937007874015748
        },
        {
          "duration": 0.3529410000000013,
          "durationTicks": 384,
          "midi": 35,
          "name": "B1",
          "ticks": 41856,
          "time": 38.470569,
          "velocity": 0.3937007874015748
        },
        {
          "duration": 0.3529410000000013,
          "durationTicks": 384,
          "midi": 38,
          "name": "D2",
          "ticks": 41856,
          "time": 38.470569,
          "velocity": 0.3937007874015748
        },
        {
          "duration": 0.5294115000000019,
          "durationTicks": 576,
          "midi": 43,
          "name": "G2",
          "ticks": 42240,
          "time": 38.82351,
          "velocity": 0.3937007874015748
        },
        {
          "duration": 0.5294115000000019,
          "durationTicks": 576,
          "midi": 44,
          "name": "G#2",
          "ticks": 42240,
          "time": 38.82351,
          "velocity": 0.3937007874015748
        },
        {
          "duration": 0.5294115000000019,
          "durationTicks": 576,
          "midi": 41,
          "name": "F2",
          "ticks": 42240,
          "time": 38.82351,
          "velocity": 0.3937007874015748
        },
        {
          "duration": 0.17647050000000064,
          "durationTicks": 192,
          "midi": 43,
          "name": "G2",
          "ticks": 42816,
          "time": 39.3529215,
          "velocity": 0.3937007874015748
        },
        {
          "duration": 0.17647050000000064,
          "durationTicks": 192,
          "midi": 44,
          "name": "G#2",
          "ticks": 42816,
          "time": 39.3529215,
          "velocity": 0.3937007874015748
        },
        {
          "duration": 0.17647050000000064,
          "durationTicks": 192,
          "midi": 41,
          "name": "F2",
          "ticks": 42816,
          "time": 39.3529215,
          "velocity": 0.3937007874015748
        },
        {
          "duration": 0.17647050000000064,
          "durationTicks": 192,
          "midi": 36,
          "name": "C2",
          "ticks": 43008,
          "time": 39.529392,
          "velocity": 0.3937007874015748
        },
        {
          "duration": 0.17647050000000064,
          "durationTicks": 192,
          "midi": 35,
          "name": "B1",
          "ticks": 43008,
          "time": 39.529392,
          "velocity": 0.3937007874015748
        },
        {
          "duration": 0.17647050000000064,
          "durationTicks": 192,
          "midi": 38,
          "name": "D2",
          "ticks": 43008,
          "time": 39.529392,
          "velocity": 0.3937007874015748
        },
        {
          "duration": 0.3529410000000013,
          "durationTicks": 384,
          "midi": 36,
          "name": "C2",
          "ticks": 43392,
          "time": 39.882333,
          "velocity": 0.3937007874015748
        },
        {
          "duration": 0.3529410000000013,
          "durationTicks": 384,
          "midi": 35,
          "name": "B1",
          "ticks": 43392,
          "time": 39.882333,
          "velocity": 0.3937007874015748
        },
        {
          "duration": 0.3529410000000013,
          "durationTicks": 384,
          "midi": 38,
          "name": "D2",
          "ticks": 43392,
          "time": 39.882333,
          "velocity": 0.3937007874015748
        },
        {
          "duration": 0.5294114999999948,
          "durationTicks": 576,
          "midi": 43,
          "name": "G2",
          "ticks": 43776,
          "time": 40.235274000000004,
          "velocity": 0.3937007874015748
        },
        {
          "duration": 0.5294114999999948,
          "durationTicks": 576,
          "midi": 44,
          "name": "G#2",
          "ticks": 43776,
          "time": 40.235274000000004,
          "velocity": 0.3937007874015748
        },
        {
          "duration": 0.5294114999999948,
          "durationTicks": 576,
          "midi": 41,
          "name": "F2",
          "ticks": 43776,
          "time": 40.235274000000004,
          "velocity": 0.3937007874015748
        },
        {
          "duration": 0.17647050000000064,
          "durationTicks": 192,
          "midi": 43,
          "name": "G2",
          "ticks": 44352,
          "time": 40.7646855,
          "velocity": 0.3937007874015748
        },
        {
          "duration": 0.17647050000000064,
          "durationTicks": 192,
          "midi": 44,
          "name": "G#2",
          "ticks": 44352,
          "time": 40.7646855,
          "velocity": 0.3937007874015748
        },
        {
          "duration": 0.17647050000000064,
          "durationTicks": 192,
          "midi": 41,
          "name": "F2",
          "ticks": 44352,
          "time": 40.7646855,
          "velocity": 0.3937007874015748
        },
        {
          "duration": 0.17647050000000064,
          "durationTicks": 192,
          "midi": 36,
          "name": "C2",
          "ticks": 44544,
          "time": 40.941156,
          "velocity": 0.3937007874015748
        },
        {
          "duration": 0.17647050000000064,
          "durationTicks": 192,
          "midi": 35,
          "name": "B1",
          "ticks": 44544,
          "time": 40.941156,
          "velocity": 0.3937007874015748
        },
        {
          "duration": 0.17647050000000064,
          "durationTicks": 192,
          "midi": 38,
          "name": "D2",
          "ticks": 44544,
          "time": 40.941156,
          "velocity": 0.3937007874015748
        },
        {
          "duration": 0.17647050000000064,
          "durationTicks": 192,
          "midi": 43,
          "name": "G2",
          "ticks": 44736,
          "time": 41.1176265,
          "velocity": 0.3937007874015748
        },
        {
          "duration": 0.17647050000000064,
          "durationTicks": 192,
          "midi": 44,
          "name": "G#2",
          "ticks": 44736,
          "time": 41.1176265,
          "velocity": 0.3937007874015748
        },
        {
          "duration": 0.17647050000000064,
          "durationTicks": 192,
          "midi": 41,
          "name": "F2",
          "ticks": 44736,
          "time": 41.1176265,
          "velocity": 0.3937007874015748
        },
        {
          "duration": 0.3529410000000013,
          "durationTicks": 384,
          "midi": 36,
          "name": "C2",
          "ticks": 44928,
          "time": 41.294097,
          "velocity": 0.3937007874015748
        },
        {
          "duration": 0.3529410000000013,
          "durationTicks": 384,
          "midi": 35,
          "name": "B1",
          "ticks": 44928,
          "time": 41.294097,
          "velocity": 0.3937007874015748
        },
        {
          "duration": 0.3529410000000013,
          "durationTicks": 384,
          "midi": 38,
          "name": "D2",
          "ticks": 44928,
          "time": 41.294097,
          "velocity": 0.3937007874015748
        },
        {
          "duration": 0.5294115000000019,
          "durationTicks": 576,
          "midi": 43,
          "name": "G2",
          "ticks": 45312,
          "time": 41.647038,
          "velocity": 0.3937007874015748
        },
        {
          "duration": 0.5294115000000019,
          "durationTicks": 576,
          "midi": 44,
          "name": "G#2",
          "ticks": 45312,
          "time": 41.647038,
          "velocity": 0.3937007874015748
        },
        {
          "duration": 0.5294115000000019,
          "durationTicks": 576,
          "midi": 41,
          "name": "F2",
          "ticks": 45312,
          "time": 41.647038,
          "velocity": 0.3937007874015748
        },
        {
          "duration": 0.17647049999999354,
          "durationTicks": 192,
          "midi": 43,
          "name": "G2",
          "ticks": 45888,
          "time": 42.176449500000004,
          "velocity": 0.3937007874015748
        },
        {
          "duration": 0.17647049999999354,
          "durationTicks": 192,
          "midi": 44,
          "name": "G#2",
          "ticks": 45888,
          "time": 42.176449500000004,
          "velocity": 0.3937007874015748
        },
        {
          "duration": 0.17647049999999354,
          "durationTicks": 192,
          "midi": 41,
          "name": "F2",
          "ticks": 45888,
          "time": 42.176449500000004,
          "velocity": 0.3937007874015748
        },
        {
          "duration": 0.17647050000000064,
          "durationTicks": 192,
          "midi": 36,
          "name": "C2",
          "ticks": 46080,
          "time": 42.35292,
          "velocity": 0.3937007874015748
        },
        {
          "duration": 0.17647050000000064,
          "durationTicks": 192,
          "midi": 35,
          "name": "B1",
          "ticks": 46080,
          "time": 42.35292,
          "velocity": 0.3937007874015748
        },
        {
          "duration": 0.17647050000000064,
          "durationTicks": 192,
          "midi": 38,
          "name": "D2",
          "ticks": 46080,
          "time": 42.35292,
          "velocity": 0.3937007874015748
        },
        {
          "duration": 0.3529410000000013,
          "durationTicks": 384,
          "midi": 36,
          "name": "C2",
          "ticks": 46464,
          "time": 42.705861,
          "velocity": 0.3937007874015748
        },
        {
          "duration": 0.3529410000000013,
          "durationTicks": 384,
          "midi": 35,
          "name": "B1",
          "ticks": 46464,
          "time": 42.705861,
          "velocity": 0.3937007874015748
        },
        {
          "duration": 0.3529410000000013,
          "durationTicks": 384,
          "midi": 38,
          "name": "D2",
          "ticks": 46464,
          "time": 42.705861,
          "velocity": 0.3937007874015748
        },
        {
          "duration": 0.5294115000000019,
          "durationTicks": 576,
          "midi": 43,
          "name": "G2",
          "ticks": 46848,
          "time": 43.058802,
          "velocity": 0.3937007874015748
        },
        {
          "duration": 0.5294115000000019,
          "durationTicks": 576,
          "midi": 44,
          "name": "G#2",
          "ticks": 46848,
          "time": 43.058802,
          "velocity": 0.3937007874015748
        },
        {
          "duration": 0.5294115000000019,
          "durationTicks": 576,
          "midi": 41,
          "name": "F2",
          "ticks": 46848,
          "time": 43.058802,
          "velocity": 0.3937007874015748
        },
        {
          "duration": 0.17647050000000064,
          "durationTicks": 192,
          "midi": 43,
          "name": "G2",
          "ticks": 47424,
          "time": 43.5882135,
          "velocity": 0.3937007874015748
        },
        {
          "duration": 0.17647050000000064,
          "durationTicks": 192,
          "midi": 44,
          "name": "G#2",
          "ticks": 47424,
          "time": 43.5882135,
          "velocity": 0.3937007874015748
        },
        {
          "duration": 0.17647050000000064,
          "durationTicks": 192,
          "midi": 41,
          "name": "F2",
          "ticks": 47424,
          "time": 43.5882135,
          "velocity": 0.3937007874015748
        },
        {
          "duration": 0.17647050000000064,
          "durationTicks": 192,
          "midi": 36,
          "name": "C2",
          "ticks": 47616,
          "time": 43.764684,
          "velocity": 0.3937007874015748
        },
        {
          "duration": 0.17647050000000064,
          "durationTicks": 192,
          "midi": 35,
          "name": "B1",
          "ticks": 47616,
          "time": 43.764684,
          "velocity": 0.3937007874015748
        },
        {
          "duration": 0.17647050000000064,
          "durationTicks": 192,
          "midi": 38,
          "name": "D2",
          "ticks": 47616,
          "time": 43.764684,
          "velocity": 0.3937007874015748
        },
        {
          "duration": 0.17647050000000064,
          "durationTicks": 192,
          "midi": 43,
          "name": "G2",
          "ticks": 47808,
          "time": 43.9411545,
          "velocity": 0.3937007874015748
        },
        {
          "duration": 0.17647050000000064,
          "durationTicks": 192,
          "midi": 44,
          "name": "G#2",
          "ticks": 47808,
          "time": 43.9411545,
          "velocity": 0.3937007874015748
        },
        {
          "duration": 0.17647050000000064,
          "durationTicks": 192,
          "midi": 41,
          "name": "F2",
          "ticks": 47808,
          "time": 43.9411545,
          "velocity": 0.3937007874015748
        },
        {
          "duration": 0.3529409999999942,
          "durationTicks": 384,
          "midi": 36,
          "name": "C2",
          "ticks": 48000,
          "time": 44.117625000000004,
          "velocity": 0.3937007874015748
        },
        {
          "duration": 0.3529409999999942,
          "durationTicks": 384,
          "midi": 35,
          "name": "B1",
          "ticks": 48000,
          "time": 44.117625000000004,
          "velocity": 0.3937007874015748
        },
        {
          "duration": 0.3529409999999942,
          "durationTicks": 384,
          "midi": 38,
          "name": "D2",
          "ticks": 48000,
          "time": 44.117625000000004,
          "velocity": 0.3937007874015748
        },
        {
          "duration": 0.5294115000000019,
          "durationTicks": 576,
          "midi": 43,
          "name": "G2",
          "ticks": 48384,
          "time": 44.470566,
          "velocity": 0.3937007874015748
        },
        {
          "duration": 0.5294115000000019,
          "durationTicks": 576,
          "midi": 44,
          "name": "G#2",
          "ticks": 48384,
          "time": 44.470566,
          "velocity": 0.3937007874015748
        },
        {
          "duration": 0.5294115000000019,
          "durationTicks": 576,
          "midi": 41,
          "name": "F2",
          "ticks": 48384,
          "time": 44.470566,
          "velocity": 0.3937007874015748
        },
        {
          "duration": 0.17647050000000064,
          "durationTicks": 192,
          "midi": 43,
          "name": "G2",
          "ticks": 48960,
          "time": 44.9999775,
          "velocity": 0.3937007874015748
        },
        {
          "duration": 0.17647050000000064,
          "durationTicks": 192,
          "midi": 44,
          "name": "G#2",
          "ticks": 48960,
          "time": 44.9999775,
          "velocity": 0.3937007874015748
        },
        {
          "duration": 0.17647050000000064,
          "durationTicks": 192,
          "midi": 41,
          "name": "F2",
          "ticks": 48960,
          "time": 44.9999775,
          "velocity": 0.3937007874015748
        },
        {
          "duration": 0.17647050000000064,
          "durationTicks": 192,
          "midi": 36,
          "name": "C2",
          "ticks": 49152,
          "time": 45.176448,
          "velocity": 0.3937007874015748
        },
        {
          "duration": 0.17647050000000064,
          "durationTicks": 192,
          "midi": 35,
          "name": "B1",
          "ticks": 49152,
          "time": 45.176448,
          "velocity": 0.3937007874015748
        },
        {
          "duration": 0.17647050000000064,
          "durationTicks": 192,
          "midi": 38,
          "name": "D2",
          "ticks": 49152,
          "time": 45.176448,
          "velocity": 0.3937007874015748
        },
        {
          "duration": 0.3529410000000013,
          "durationTicks": 384,
          "midi": 36,
          "name": "C2",
          "ticks": 49536,
          "time": 45.529389,
          "velocity": 0.3937007874015748
        },
        {
          "duration": 0.3529410000000013,
          "durationTicks": 384,
          "midi": 35,
          "name": "B1",
          "ticks": 49536,
          "time": 45.529389,
          "velocity": 0.3937007874015748
        },
        {
          "duration": 0.3529410000000013,
          "durationTicks": 384,
          "midi": 38,
          "name": "D2",
          "ticks": 49536,
          "time": 45.529389,
          "velocity": 0.3937007874015748
        },
        {
          "duration": 0.5294114999999948,
          "durationTicks": 576,
          "midi": 43,
          "name": "G2",
          "ticks": 49920,
          "time": 45.88233,
          "velocity": 0.3937007874015748
        },
        {
          "duration": 0.5294114999999948,
          "durationTicks": 576,
          "midi": 44,
          "name": "G#2",
          "ticks": 49920,
          "time": 45.88233,
          "velocity": 0.3937007874015748
        },
        {
          "duration": 0.5294114999999948,
          "durationTicks": 576,
          "midi": 41,
          "name": "F2",
          "ticks": 49920,
          "time": 45.88233,
          "velocity": 0.3937007874015748
        },
        {
          "duration": 0.17647050000000064,
          "durationTicks": 192,
          "midi": 43,
          "name": "G2",
          "ticks": 50496,
          "time": 46.4117415,
          "velocity": 0.3937007874015748
        },
        {
          "duration": 0.17647050000000064,
          "durationTicks": 192,
          "midi": 44,
          "name": "G#2",
          "ticks": 50496,
          "time": 46.4117415,
          "velocity": 0.3937007874015748
        },
        {
          "duration": 0.17647050000000064,
          "durationTicks": 192,
          "midi": 41,
          "name": "F2",
          "ticks": 50496,
          "time": 46.4117415,
          "velocity": 0.3937007874015748
        },
        {
          "duration": 0.17647050000000064,
          "durationTicks": 192,
          "midi": 36,
          "name": "C2",
          "ticks": 50688,
          "time": 46.588212,
          "velocity": 0.3937007874015748
        },
        {
          "duration": 0.17647050000000064,
          "durationTicks": 192,
          "midi": 35,
          "name": "B1",
          "ticks": 50688,
          "time": 46.588212,
          "velocity": 0.3937007874015748
        },
        {
          "duration": 0.17647050000000064,
          "durationTicks": 192,
          "midi": 38,
          "name": "D2",
          "ticks": 50688,
          "time": 46.588212,
          "velocity": 0.3937007874015748
        },
        {
          "duration": 0.17647050000000064,
          "durationTicks": 192,
          "midi": 43,
          "name": "G2",
          "ticks": 50880,
          "time": 46.7646825,
          "velocity": 0.3937007874015748
        },
        {
          "duration": 0.17647050000000064,
          "durationTicks": 192,
          "midi": 44,
          "name": "G#2",
          "ticks": 50880,
          "time": 46.7646825,
          "velocity": 0.3937007874015748
        },
        {
          "duration": 0.17647050000000064,
          "durationTicks": 192,
          "midi": 41,
          "name": "F2",
          "ticks": 50880,
          "time": 46.7646825,
          "velocity": 0.3937007874015748
        },
        {
          "duration": 0.3529410000000013,
          "durationTicks": 384,
          "midi": 36,
          "name": "C2",
          "ticks": 51072,
          "time": 46.941153,
          "velocity": 0.3937007874015748
        },
        {
          "duration": 0.3529410000000013,
          "durationTicks": 384,
          "midi": 35,
          "name": "B1",
          "ticks": 51072,
          "time": 46.941153,
          "velocity": 0.3937007874015748
        },
        {
          "duration": 0.3529410000000013,
          "durationTicks": 384,
          "midi": 38,
          "name": "D2",
          "ticks": 51072,
          "time": 46.941153,
          "velocity": 0.3937007874015748
        },
        {
          "duration": 0.5294115000000019,
          "durationTicks": 576,
          "midi": 43,
          "name": "G2",
          "ticks": 51456,
          "time": 47.294094,
          "velocity": 0.3937007874015748
        },
        {
          "duration": 0.5294115000000019,
          "durationTicks": 576,
          "midi": 44,
          "name": "G#2",
          "ticks": 51456,
          "time": 47.294094,
          "velocity": 0.3937007874015748
        },
        {
          "duration": 0.5294115000000019,
          "durationTicks": 576,
          "midi": 41,
          "name": "F2",
          "ticks": 51456,
          "time": 47.294094,
          "velocity": 0.3937007874015748
        },
        {
          "duration": 0.17647050000000064,
          "durationTicks": 192,
          "midi": 43,
          "name": "G2",
          "ticks": 52032,
          "time": 47.8235055,
          "velocity": 0.3937007874015748
        },
        {
          "duration": 0.17647050000000064,
          "durationTicks": 192,
          "midi": 44,
          "name": "G#2",
          "ticks": 52032,
          "time": 47.8235055,
          "velocity": 0.3937007874015748
        },
        {
          "duration": 0.17647050000000064,
          "durationTicks": 192,
          "midi": 41,
          "name": "F2",
          "ticks": 52032,
          "time": 47.8235055,
          "velocity": 0.3937007874015748
        },
        {
          "duration": 0.17647049999999354,
          "durationTicks": 192,
          "midi": 36,
          "name": "C2",
          "ticks": 52224,
          "time": 47.999976000000004,
          "velocity": 0.3937007874015748
        },
        {
          "duration": 0.17647049999999354,
          "durationTicks": 192,
          "midi": 35,
          "name": "B1",
          "ticks": 52224,
          "time": 47.999976000000004,
          "velocity": 0.3937007874015748
        },
        {
          "duration": 0.17647049999999354,
          "durationTicks": 192,
          "midi": 38,
          "name": "D2",
          "ticks": 52224,
          "time": 47.999976000000004,
          "velocity": 0.3937007874015748
        },
        {
          "duration": 0.3529410000000013,
          "durationTicks": 384,
          "midi": 36,
          "name": "C2",
          "ticks": 52608,
          "time": 48.352917,
          "velocity": 0.3937007874015748
        },
        {
          "duration": 0.3529410000000013,
          "durationTicks": 384,
          "midi": 35,
          "name": "B1",
          "ticks": 52608,
          "time": 48.352917,
          "velocity": 0.3937007874015748
        },
        {
          "duration": 0.3529410000000013,
          "durationTicks": 384,
          "midi": 38,
          "name": "D2",
          "ticks": 52608,
          "time": 48.352917,
          "velocity": 0.3937007874015748
        },
        {
          "duration": 0.5294115000000019,
          "durationTicks": 576,
          "midi": 43,
          "name": "G2",
          "ticks": 52992,
          "time": 48.705858,
          "velocity": 0.3937007874015748
        },
        {
          "duration": 0.5294115000000019,
          "durationTicks": 576,
          "midi": 44,
          "name": "G#2",
          "ticks": 52992,
          "time": 48.705858,
          "velocity": 0.3937007874015748
        },
        {
          "duration": 0.5294115000000019,
          "durationTicks": 576,
          "midi": 41,
          "name": "F2",
          "ticks": 52992,
          "time": 48.705858,
          "velocity": 0.3937007874015748
        },
        {
          "duration": 0.17647050000000064,
          "durationTicks": 192,
          "midi": 43,
          "name": "G2",
          "ticks": 53568,
          "time": 49.2352695,
          "velocity": 0.3937007874015748
        },
        {
          "duration": 0.17647050000000064,
          "durationTicks": 192,
          "midi": 44,
          "name": "G#2",
          "ticks": 53568,
          "time": 49.2352695,
          "velocity": 0.3937007874015748
        },
        {
          "duration": 0.17647050000000064,
          "durationTicks": 192,
          "midi": 41,
          "name": "F2",
          "ticks": 53568,
          "time": 49.2352695,
          "velocity": 0.3937007874015748
        },
        {
          "duration": 0.17647050000000064,
          "durationTicks": 192,
          "midi": 36,
          "name": "C2",
          "ticks": 53760,
          "time": 49.41174,
          "velocity": 0.3937007874015748
        },
        {
          "duration": 0.17647050000000064,
          "durationTicks": 192,
          "midi": 35,
          "name": "B1",
          "ticks": 53760,
          "time": 49.41174,
          "velocity": 0.3937007874015748
        },
        {
          "duration": 0.17647050000000064,
          "durationTicks": 192,
          "midi": 38,
          "name": "D2",
          "ticks": 53760,
          "time": 49.41174,
          "velocity": 0.3937007874015748
        },
        {
          "duration": 0.17647050000000064,
          "durationTicks": 192,
          "midi": 43,
          "name": "G2",
          "ticks": 53952,
          "time": 49.5882105,
          "velocity": 0.3937007874015748
        },
        {
          "duration": 0.17647050000000064,
          "durationTicks": 192,
          "midi": 44,
          "name": "G#2",
          "ticks": 53952,
          "time": 49.5882105,
          "velocity": 0.3937007874015748
        },
        {
          "duration": 0.17647050000000064,
          "durationTicks": 192,
          "midi": 41,
          "name": "F2",
          "ticks": 53952,
          "time": 49.5882105,
          "velocity": 0.3937007874015748
        },
        {
          "duration": 0.3529409999999942,
          "durationTicks": 384,
          "midi": 36,
          "name": "C2",
          "ticks": 54144,
          "time": 49.764681,
          "velocity": 0.3937007874015748
        },
        {
          "duration": 0.3529409999999942,
          "durationTicks": 384,
          "midi": 35,
          "name": "B1",
          "ticks": 54144,
          "time": 49.764681,
          "velocity": 0.3937007874015748
        },
        {
          "duration": 0.3529409999999942,
          "durationTicks": 384,
          "midi": 38,
          "name": "D2",
          "ticks": 54144,
          "time": 49.764681,
          "velocity": 0.3937007874015748
        },
        {
          "duration": 0.5294115000000019,
          "durationTicks": 576,
          "midi": 43,
          "name": "G2",
          "ticks": 54528,
          "time": 50.117622,
          "velocity": 0.3937007874015748
        },
        {
          "duration": 0.5294115000000019,
          "durationTicks": 576,
          "midi": 44,
          "name": "G#2",
          "ticks": 54528,
          "time": 50.117622,
          "velocity": 0.3937007874015748
        },
        {
          "duration": 0.5294115000000019,
          "durationTicks": 576,
          "midi": 41,
          "name": "F2",
          "ticks": 54528,
          "time": 50.117622,
          "velocity": 0.3937007874015748
        },
        {
          "duration": 0.17647050000000064,
          "durationTicks": 192,
          "midi": 43,
          "name": "G2",
          "ticks": 55104,
          "time": 50.6470335,
          "velocity": 0.3937007874015748
        },
        {
          "duration": 0.17647050000000064,
          "durationTicks": 192,
          "midi": 44,
          "name": "G#2",
          "ticks": 55104,
          "time": 50.6470335,
          "velocity": 0.3937007874015748
        },
        {
          "duration": 0.17647050000000064,
          "durationTicks": 192,
          "midi": 41,
          "name": "F2",
          "ticks": 55104,
          "time": 50.6470335,
          "velocity": 0.3937007874015748
        },
        {
          "duration": 0.17647050000000064,
          "durationTicks": 192,
          "midi": 36,
          "name": "C2",
          "ticks": 55296,
          "time": 50.823504,
          "velocity": 0.3937007874015748
        },
        {
          "duration": 0.17647050000000064,
          "durationTicks": 192,
          "midi": 35,
          "name": "B1",
          "ticks": 55296,
          "time": 50.823504,
          "velocity": 0.3937007874015748
        },
        {
          "duration": 0.17647050000000064,
          "durationTicks": 192,
          "midi": 38,
          "name": "D2",
          "ticks": 55296,
          "time": 50.823504,
          "velocity": 0.3937007874015748
        },
        {
          "duration": 0.17647050000000064,
          "durationTicks": 192,
          "midi": 36,
          "name": "C2",
          "ticks": 55296,
          "time": 50.823504,
          "velocity": 0.3937007874015748
        },
        {
          "duration": 0.17647050000000064,
          "durationTicks": 192,
          "midi": 35,
          "name": "B1",
          "ticks": 55296,
          "time": 50.823504,
          "velocity": 0.3937007874015748
        },
        {
          "duration": 0.17647050000000064,
          "durationTicks": 192,
          "midi": 38,
          "name": "D2",
          "ticks": 55296,
          "time": 50.823504,
          "velocity": 0.3937007874015748
        },
        {
          "duration": 0.3529410000000013,
          "durationTicks": 384,
          "midi": 36,
          "name": "C2",
          "ticks": 55680,
          "time": 51.176445,
          "velocity": 0.3937007874015748
        },
        {
          "duration": 0.3529410000000013,
          "durationTicks": 384,
          "midi": 35,
          "name": "B1",
          "ticks": 55680,
          "time": 51.176445,
          "velocity": 0.3937007874015748
        },
        {
          "duration": 0.3529410000000013,
          "durationTicks": 384,
          "midi": 38,
          "name": "D2",
          "ticks": 55680,
          "time": 51.176445,
          "velocity": 0.3937007874015748
        },
        {
          "duration": 0.3529410000000013,
          "durationTicks": 384,
          "midi": 36,
          "name": "C2",
          "ticks": 55680,
          "time": 51.176445,
          "velocity": 0.3937007874015748
        },
        {
          "duration": 0.3529410000000013,
          "durationTicks": 384,
          "midi": 35,
          "name": "B1",
          "ticks": 55680,
          "time": 51.176445,
          "velocity": 0.3937007874015748
        },
        {
          "duration": 0.3529410000000013,
          "durationTicks": 384,
          "midi": 38,
          "name": "D2",
          "ticks": 55680,
          "time": 51.176445,
          "velocity": 0.3937007874015748
        },
        {
          "duration": 0.5294114999999948,
          "durationTicks": 576,
          "midi": 43,
          "name": "G2",
          "ticks": 56064,
          "time": 51.529386,
          "velocity": 0.3937007874015748
        },
        {
          "duration": 0.5294114999999948,
          "durationTicks": 576,
          "midi": 44,
          "name": "G#2",
          "ticks": 56064,
          "time": 51.529386,
          "velocity": 0.3937007874015748
        },
        {
          "duration": 0.5294114999999948,
          "durationTicks": 576,
          "midi": 41,
          "name": "F2",
          "ticks": 56064,
          "time": 51.529386,
          "velocity": 0.3937007874015748
        },
        {
          "duration": 0.5294114999999948,
          "durationTicks": 576,
          "midi": 43,
          "name": "G2",
          "ticks": 56064,
          "time": 51.529386,
          "velocity": 0.3937007874015748
        },
        {
          "duration": 0.5294114999999948,
          "durationTicks": 576,
          "midi": 44,
          "name": "G#2",
          "ticks": 56064,
          "time": 51.529386,
          "velocity": 0.3937007874015748
        },
        {
          "duration": 0.5294114999999948,
          "durationTicks": 576,
          "midi": 41,
          "name": "F2",
          "ticks": 56064,
          "time": 51.529386,
          "velocity": 0.3937007874015748
        },
        {
          "duration": 0.17647050000000064,
          "durationTicks": 192,
          "midi": 43,
          "name": "G2",
          "ticks": 56640,
          "time": 52.0587975,
          "velocity": 0.3937007874015748
        },
        {
          "duration": 0.17647050000000064,
          "durationTicks": 192,
          "midi": 44,
          "name": "G#2",
          "ticks": 56640,
          "time": 52.0587975,
          "velocity": 0.3937007874015748
        },
        {
          "duration": 0.17647050000000064,
          "durationTicks": 192,
          "midi": 41,
          "name": "F2",
          "ticks": 56640,
          "time": 52.0587975,
          "velocity": 0.3937007874015748
        },
        {
          "duration": 0.17647050000000064,
          "durationTicks": 192,
          "midi": 43,
          "name": "G2",
          "ticks": 56640,
          "time": 52.0587975,
          "velocity": 0.3937007874015748
        },
        {
          "duration": 0.17647050000000064,
          "durationTicks": 192,
          "midi": 44,
          "name": "G#2",
          "ticks": 56640,
          "time": 52.0587975,
          "velocity": 0.3937007874015748
        },
        {
          "duration": 0.17647050000000064,
          "durationTicks": 192,
          "midi": 41,
          "name": "F2",
          "ticks": 56640,
          "time": 52.0587975,
          "velocity": 0.3937007874015748
        },
        {
          "duration": 0.17647050000000064,
          "durationTicks": 192,
          "midi": 36,
          "name": "C2",
          "ticks": 56832,
          "time": 52.235268,
          "velocity": 0.3937007874015748
        },
        {
          "duration": 0.17647050000000064,
          "durationTicks": 192,
          "midi": 35,
          "name": "B1",
          "ticks": 56832,
          "time": 52.235268,
          "velocity": 0.3937007874015748
        },
        {
          "duration": 0.17647050000000064,
          "durationTicks": 192,
          "midi": 38,
          "name": "D2",
          "ticks": 56832,
          "time": 52.235268,
          "velocity": 0.3937007874015748
        },
        {
          "duration": 0.17647050000000064,
          "durationTicks": 192,
          "midi": 36,
          "name": "C2",
          "ticks": 56832,
          "time": 52.235268,
          "velocity": 0.3937007874015748
        },
        {
          "duration": 0.17647050000000064,
          "durationTicks": 192,
          "midi": 35,
          "name": "B1",
          "ticks": 56832,
          "time": 52.235268,
          "velocity": 0.3937007874015748
        },
        {
          "duration": 0.17647050000000064,
          "durationTicks": 192,
          "midi": 38,
          "name": "D2",
          "ticks": 56832,
          "time": 52.235268,
          "velocity": 0.3937007874015748
        },
        {
          "duration": 0.17647050000000064,
          "durationTicks": 192,
          "midi": 43,
          "name": "G2",
          "ticks": 57024,
          "time": 52.4117385,
          "velocity": 0.3937007874015748
        },
        {
          "duration": 0.17647050000000064,
          "durationTicks": 192,
          "midi": 44,
          "name": "G#2",
          "ticks": 57024,
          "time": 52.4117385,
          "velocity": 0.3937007874015748
        },
        {
          "duration": 0.17647050000000064,
          "durationTicks": 192,
          "midi": 41,
          "name": "F2",
          "ticks": 57024,
          "time": 52.4117385,
          "velocity": 0.3937007874015748
        },
        {
          "duration": 0.17647050000000064,
          "durationTicks": 192,
          "midi": 43,
          "name": "G2",
          "ticks": 57024,
          "time": 52.4117385,
          "velocity": 0.3937007874015748
        },
        {
          "duration": 0.17647050000000064,
          "durationTicks": 192,
          "midi": 44,
          "name": "G#2",
          "ticks": 57024,
          "time": 52.4117385,
          "velocity": 0.3937007874015748
        },
        {
          "duration": 0.17647050000000064,
          "durationTicks": 192,
          "midi": 41,
          "name": "F2",
          "ticks": 57024,
          "time": 52.4117385,
          "velocity": 0.3937007874015748
        },
        {
          "duration": 0.3529410000000013,
          "durationTicks": 384,
          "midi": 36,
          "name": "C2",
          "ticks": 57216,
          "time": 52.588209,
          "velocity": 0.3937007874015748
        },
        {
          "duration": 0.3529410000000013,
          "durationTicks": 384,
          "midi": 35,
          "name": "B1",
          "ticks": 57216,
          "time": 52.588209,
          "velocity": 0.3937007874015748
        },
        {
          "duration": 0.3529410000000013,
          "durationTicks": 384,
          "midi": 38,
          "name": "D2",
          "ticks": 57216,
          "time": 52.588209,
          "velocity": 0.3937007874015748
        },
        {
          "duration": 0.3529410000000013,
          "durationTicks": 384,
          "midi": 36,
          "name": "C2",
          "ticks": 57216,
          "time": 52.588209,
          "velocity": 0.3937007874015748
        },
        {
          "duration": 0.3529410000000013,
          "durationTicks": 384,
          "midi": 35,
          "name": "B1",
          "ticks": 57216,
          "time": 52.588209,
          "velocity": 0.3937007874015748
        },
        {
          "duration": 0.3529410000000013,
          "durationTicks": 384,
          "midi": 38,
          "name": "D2",
          "ticks": 57216,
          "time": 52.588209,
          "velocity": 0.3937007874015748
        },
        {
          "duration": 0.5294115000000019,
          "durationTicks": 576,
          "midi": 43,
          "name": "G2",
          "ticks": 57600,
          "time": 52.94115,
          "velocity": 0.3937007874015748
        },
        {
          "duration": 0.5294115000000019,
          "durationTicks": 576,
          "midi": 44,
          "name": "G#2",
          "ticks": 57600,
          "time": 52.94115,
          "velocity": 0.3937007874015748
        },
        {
          "duration": 0.5294115000000019,
          "durationTicks": 576,
          "midi": 41,
          "name": "F2",
          "ticks": 57600,
          "time": 52.94115,
          "velocity": 0.3937007874015748
        },
        {
          "duration": 0.5294115000000019,
          "durationTicks": 576,
          "midi": 43,
          "name": "G2",
          "ticks": 57600,
          "time": 52.94115,
          "velocity": 0.3937007874015748
        },
        {
          "duration": 0.5294115000000019,
          "durationTicks": 576,
          "midi": 44,
          "name": "G#2",
          "ticks": 57600,
          "time": 52.94115,
          "velocity": 0.3937007874015748
        },
        {
          "duration": 0.5294115000000019,
          "durationTicks": 576,
          "midi": 41,
          "name": "F2",
          "ticks": 57600,
          "time": 52.94115,
          "velocity": 0.3937007874015748
        },
        {
          "duration": 0.17647050000000064,
          "durationTicks": 192,
          "midi": 43,
          "name": "G2",
          "ticks": 58176,
          "time": 53.4705615,
          "velocity": 0.3937007874015748
        },
        {
          "duration": 0.17647050000000064,
          "durationTicks": 192,
          "midi": 44,
          "name": "G#2",
          "ticks": 58176,
          "time": 53.4705615,
          "velocity": 0.3937007874015748
        },
        {
          "duration": 0.17647050000000064,
          "durationTicks": 192,
          "midi": 41,
          "name": "F2",
          "ticks": 58176,
          "time": 53.4705615,
          "velocity": 0.3937007874015748
        },
        {
          "duration": 0.17647050000000064,
          "durationTicks": 192,
          "midi": 43,
          "name": "G2",
          "ticks": 58176,
          "time": 53.4705615,
          "velocity": 0.3937007874015748
        },
        {
          "duration": 0.17647050000000064,
          "durationTicks": 192,
          "midi": 44,
          "name": "G#2",
          "ticks": 58176,
          "time": 53.4705615,
          "velocity": 0.3937007874015748
        },
        {
          "duration": 0.17647050000000064,
          "durationTicks": 192,
          "midi": 41,
          "name": "F2",
          "ticks": 58176,
          "time": 53.4705615,
          "velocity": 0.3937007874015748
        },
        {
          "duration": 0.17647050000000064,
          "durationTicks": 192,
          "midi": 36,
          "name": "C2",
          "ticks": 58368,
          "time": 53.647032,
          "velocity": 0.3937007874015748
        },
        {
          "duration": 0.17647050000000064,
          "durationTicks": 192,
          "midi": 35,
          "name": "B1",
          "ticks": 58368,
          "time": 53.647032,
          "velocity": 0.3937007874015748
        },
        {
          "duration": 0.17647050000000064,
          "durationTicks": 192,
          "midi": 38,
          "name": "D2",
          "ticks": 58368,
          "time": 53.647032,
          "velocity": 0.3937007874015748
        },
        {
          "duration": 0.3529409999999942,
          "durationTicks": 384,
          "midi": 36,
          "name": "C2",
          "ticks": 58752,
          "time": 53.999973000000004,
          "velocity": 0.3937007874015748
        },
        {
          "duration": 0.3529409999999942,
          "durationTicks": 384,
          "midi": 35,
          "name": "B1",
          "ticks": 58752,
          "time": 53.999973000000004,
          "velocity": 0.3937007874015748
        },
        {
          "duration": 0.3529409999999942,
          "durationTicks": 384,
          "midi": 38,
          "name": "D2",
          "ticks": 58752,
          "time": 53.999973000000004,
          "velocity": 0.3937007874015748
        },
        {
          "duration": 0.5294115000000019,
          "durationTicks": 576,
          "midi": 43,
          "name": "G2",
          "ticks": 59136,
          "time": 54.352914,
          "velocity": 0.3937007874015748
        },
        {
          "duration": 0.5294115000000019,
          "durationTicks": 576,
          "midi": 44,
          "name": "G#2",
          "ticks": 59136,
          "time": 54.352914,
          "velocity": 0.3937007874015748
        },
        {
          "duration": 0.5294115000000019,
          "durationTicks": 576,
          "midi": 41,
          "name": "F2",
          "ticks": 59136,
          "time": 54.352914,
          "velocity": 0.3937007874015748
        },
        {
          "duration": 0.17647050000000064,
          "durationTicks": 192,
          "midi": 43,
          "name": "G2",
          "ticks": 59712,
          "time": 54.8823255,
          "velocity": 0.3937007874015748
        },
        {
          "duration": 0.17647050000000064,
          "durationTicks": 192,
          "midi": 44,
          "name": "G#2",
          "ticks": 59712,
          "time": 54.8823255,
          "velocity": 0.3937007874015748
        },
        {
          "duration": 0.17647050000000064,
          "durationTicks": 192,
          "midi": 41,
          "name": "F2",
          "ticks": 59712,
          "time": 54.8823255,
          "velocity": 0.3937007874015748
        },
        {
          "duration": 0.17647050000000064,
          "durationTicks": 192,
          "midi": 36,
          "name": "C2",
          "ticks": 59904,
          "time": 55.058796,
          "velocity": 0.3937007874015748
        },
        {
          "duration": 0.17647050000000064,
          "durationTicks": 192,
          "midi": 35,
          "name": "B1",
          "ticks": 59904,
          "time": 55.058796,
          "velocity": 0.3937007874015748
        },
        {
          "duration": 0.17647050000000064,
          "durationTicks": 192,
          "midi": 38,
          "name": "D2",
          "ticks": 59904,
          "time": 55.058796,
          "velocity": 0.3937007874015748
        },
        {
          "duration": 0.17647050000000064,
          "durationTicks": 192,
          "midi": 43,
          "name": "G2",
          "ticks": 60096,
          "time": 55.2352665,
          "velocity": 0.3937007874015748
        },
        {
          "duration": 0.17647050000000064,
          "durationTicks": 192,
          "midi": 44,
          "name": "G#2",
          "ticks": 60096,
          "time": 55.2352665,
          "velocity": 0.3937007874015748
        },
        {
          "duration": 0.17647050000000064,
          "durationTicks": 192,
          "midi": 41,
          "name": "F2",
          "ticks": 60096,
          "time": 55.2352665,
          "velocity": 0.3937007874015748
        },
        {
          "duration": 0.3529410000000013,
          "durationTicks": 384,
          "midi": 36,
          "name": "C2",
          "ticks": 60288,
          "time": 55.411737,
          "velocity": 0.3937007874015748
        },
        {
          "duration": 0.3529410000000013,
          "durationTicks": 384,
          "midi": 35,
          "name": "B1",
          "ticks": 60288,
          "time": 55.411737,
          "velocity": 0.3937007874015748
        },
        {
          "duration": 0.3529410000000013,
          "durationTicks": 384,
          "midi": 38,
          "name": "D2",
          "ticks": 60288,
          "time": 55.411737,
          "velocity": 0.3937007874015748
        },
        {
          "duration": 0.5294114999999948,
          "durationTicks": 576,
          "midi": 43,
          "name": "G2",
          "ticks": 60672,
          "time": 55.764678,
          "velocity": 0.3937007874015748
        },
        {
          "duration": 0.5294114999999948,
          "durationTicks": 576,
          "midi": 44,
          "name": "G#2",
          "ticks": 60672,
          "time": 55.764678,
          "velocity": 0.3937007874015748
        },
        {
          "duration": 0.5294114999999948,
          "durationTicks": 576,
          "midi": 41,
          "name": "F2",
          "ticks": 60672,
          "time": 55.764678,
          "velocity": 0.3937007874015748
        },
        {
          "duration": 0.17647050000000064,
          "durationTicks": 192,
          "midi": 43,
          "name": "G2",
          "ticks": 61248,
          "time": 56.2940895,
          "velocity": 0.3937007874015748
        },
        {
          "duration": 0.17647050000000064,
          "durationTicks": 192,
          "midi": 44,
          "name": "G#2",
          "ticks": 61248,
          "time": 56.2940895,
          "velocity": 0.3937007874015748
        },
        {
          "duration": 0.17647050000000064,
          "durationTicks": 192,
          "midi": 41,
          "name": "F2",
          "ticks": 61248,
          "time": 56.2940895,
          "velocity": 0.3937007874015748
        },
        {
          "duration": 0.17647050000000064,
          "durationTicks": 192,
          "midi": 36,
          "name": "C2",
          "ticks": 61440,
          "time": 56.47056,
          "velocity": 0.3937007874015748
        },
        {
          "duration": 0.17647050000000064,
          "durationTicks": 192,
          "midi": 35,
          "name": "B1",
          "ticks": 61440,
          "time": 56.47056,
          "velocity": 0.3937007874015748
        },
        {
          "duration": 0.17647050000000064,
          "durationTicks": 192,
          "midi": 38,
          "name": "D2",
          "ticks": 61440,
          "time": 56.47056,
          "velocity": 0.3937007874015748
        },
        {
          "duration": 0.3529410000000013,
          "durationTicks": 384,
          "midi": 36,
          "name": "C2",
          "ticks": 61824,
          "time": 56.823501,
          "velocity": 0.3937007874015748
        },
        {
          "duration": 0.3529410000000013,
          "durationTicks": 384,
          "midi": 35,
          "name": "B1",
          "ticks": 61824,
          "time": 56.823501,
          "velocity": 0.3937007874015748
        },
        {
          "duration": 0.3529410000000013,
          "durationTicks": 384,
          "midi": 38,
          "name": "D2",
          "ticks": 61824,
          "time": 56.823501,
          "velocity": 0.3937007874015748
        },
        {
          "duration": 0.5294115000000019,
          "durationTicks": 576,
          "midi": 43,
          "name": "G2",
          "ticks": 62208,
          "time": 57.176442,
          "velocity": 0.3937007874015748
        },
        {
          "duration": 0.5294115000000019,
          "durationTicks": 576,
          "midi": 44,
          "name": "G#2",
          "ticks": 62208,
          "time": 57.176442,
          "velocity": 0.3937007874015748
        },
        {
          "duration": 0.5294115000000019,
          "durationTicks": 576,
          "midi": 41,
          "name": "F2",
          "ticks": 62208,
          "time": 57.176442,
          "velocity": 0.3937007874015748
        },
        {
          "duration": 0.17647050000000064,
          "durationTicks": 192,
          "midi": 43,
          "name": "G2",
          "ticks": 62784,
          "time": 57.7058535,
          "velocity": 0.3937007874015748
        },
        {
          "duration": 0.17647050000000064,
          "durationTicks": 192,
          "midi": 44,
          "name": "G#2",
          "ticks": 62784,
          "time": 57.7058535,
          "velocity": 0.3937007874015748
        },
        {
          "duration": 0.17647050000000064,
          "durationTicks": 192,
          "midi": 41,
          "name": "F2",
          "ticks": 62784,
          "time": 57.7058535,
          "velocity": 0.3937007874015748
        },
        {
          "duration": 0.17647049999999354,
          "durationTicks": 192,
          "midi": 36,
          "name": "C2",
          "ticks": 62976,
          "time": 57.882324000000004,
          "velocity": 0.3937007874015748
        },
        {
          "duration": 0.17647049999999354,
          "durationTicks": 192,
          "midi": 35,
          "name": "B1",
          "ticks": 62976,
          "time": 57.882324000000004,
          "velocity": 0.3937007874015748
        },
        {
          "duration": 0.17647049999999354,
          "durationTicks": 192,
          "midi": 38,
          "name": "D2",
          "ticks": 62976,
          "time": 57.882324000000004,
          "velocity": 0.3937007874015748
        },
        {
          "duration": 0.17647050000000064,
          "durationTicks": 192,
          "midi": 43,
          "name": "G2",
          "ticks": 63168,
          "time": 58.0587945,
          "velocity": 0.3937007874015748
        },
        {
          "duration": 0.17647050000000064,
          "durationTicks": 192,
          "midi": 44,
          "name": "G#2",
          "ticks": 63168,
          "time": 58.0587945,
          "velocity": 0.3937007874015748
        },
        {
          "duration": 0.17647050000000064,
          "durationTicks": 192,
          "midi": 41,
          "name": "F2",
          "ticks": 63168,
          "time": 58.0587945,
          "velocity": 0.3937007874015748
        },
        {
          "duration": 0.3529410000000013,
          "durationTicks": 384,
          "midi": 36,
          "name": "C2",
          "ticks": 63360,
          "time": 58.235265,
          "velocity": 0.3937007874015748
        },
        {
          "duration": 0.3529410000000013,
          "durationTicks": 384,
          "midi": 35,
          "name": "B1",
          "ticks": 63360,
          "time": 58.235265,
          "velocity": 0.3937007874015748
        },
        {
          "duration": 0.3529410000000013,
          "durationTicks": 384,
          "midi": 38,
          "name": "D2",
          "ticks": 63360,
          "time": 58.235265,
          "velocity": 0.3937007874015748
        },
        {
          "duration": 0.5294115000000019,
          "durationTicks": 576,
          "midi": 43,
          "name": "G2",
          "ticks": 63744,
          "time": 58.588206,
          "velocity": 0.3937007874015748
        },
        {
          "duration": 0.5294115000000019,
          "durationTicks": 576,
          "midi": 44,
          "name": "G#2",
          "ticks": 63744,
          "time": 58.588206,
          "velocity": 0.3937007874015748
        },
        {
          "duration": 0.5294115000000019,
          "durationTicks": 576,
          "midi": 41,
          "name": "F2",
          "ticks": 63744,
          "time": 58.588206,
          "velocity": 0.3937007874015748
        },
        {
          "duration": 0.17647050000000064,
          "durationTicks": 192,
          "midi": 43,
          "name": "G2",
          "ticks": 64320,
          "time": 59.1176175,
          "velocity": 0.3937007874015748
        },
        {
          "duration": 0.17647050000000064,
          "durationTicks": 192,
          "midi": 44,
          "name": "G#2",
          "ticks": 64320,
          "time": 59.1176175,
          "velocity": 0.3937007874015748
        },
        {
          "duration": 0.17647050000000064,
          "durationTicks": 192,
          "midi": 41,
          "name": "F2",
          "ticks": 64320,
          "time": 59.1176175,
          "velocity": 0.3937007874015748
        },
        {
          "duration": 0.17647050000000064,
          "durationTicks": 192,
          "midi": 36,
          "name": "C2",
          "ticks": 67584,
          "time": 62.117616,
          "velocity": 0.3937007874015748
        },
        {
          "duration": 0.17647050000000064,
          "durationTicks": 192,
          "midi": 35,
          "name": "B1",
          "ticks": 67584,
          "time": 62.117616,
          "velocity": 0.3937007874015748
        },
        {
          "duration": 0.17647050000000064,
          "durationTicks": 192,
          "midi": 38,
          "name": "D2",
          "ticks": 67584,
          "time": 62.117616,
          "velocity": 0.3937007874015748
        },
        {
          "duration": 0.17647050000000064,
          "durationTicks": 192,
          "midi": 36,
          "name": "C2",
          "ticks": 67584,
          "time": 62.117616,
          "velocity": 0.3937007874015748
        },
        {
          "duration": 0.17647050000000064,
          "durationTicks": 192,
          "midi": 35,
          "name": "B1",
          "ticks": 67584,
          "time": 62.117616,
          "velocity": 0.3937007874015748
        },
        {
          "duration": 0.17647050000000064,
          "durationTicks": 192,
          "midi": 38,
          "name": "D2",
          "ticks": 67584,
          "time": 62.117616,
          "velocity": 0.3937007874015748
        },
        {
          "duration": 0.3529410000000013,
          "durationTicks": 384,
          "midi": 36,
          "name": "C2",
          "ticks": 67968,
          "time": 62.470557,
          "velocity": 0.3937007874015748
        },
        {
          "duration": 0.3529410000000013,
          "durationTicks": 384,
          "midi": 35,
          "name": "B1",
          "ticks": 67968,
          "time": 62.470557,
          "velocity": 0.3937007874015748
        },
        {
          "duration": 0.3529410000000013,
          "durationTicks": 384,
          "midi": 38,
          "name": "D2",
          "ticks": 67968,
          "time": 62.470557,
          "velocity": 0.3937007874015748
        },
        {
          "duration": 0.3529410000000013,
          "durationTicks": 384,
          "midi": 36,
          "name": "C2",
          "ticks": 67968,
          "time": 62.470557,
          "velocity": 0.3937007874015748
        },
        {
          "duration": 0.3529410000000013,
          "durationTicks": 384,
          "midi": 35,
          "name": "B1",
          "ticks": 67968,
          "time": 62.470557,
          "velocity": 0.3937007874015748
        },
        {
          "duration": 0.3529410000000013,
          "durationTicks": 384,
          "midi": 38,
          "name": "D2",
          "ticks": 67968,
          "time": 62.470557,
          "velocity": 0.3937007874015748
        },
        {
          "duration": 0.5294115000000019,
          "durationTicks": 576,
          "midi": 43,
          "name": "G2",
          "ticks": 68352,
          "time": 62.823498,
          "velocity": 0.3937007874015748
        },
        {
          "duration": 0.5294115000000019,
          "durationTicks": 576,
          "midi": 44,
          "name": "G#2",
          "ticks": 68352,
          "time": 62.823498,
          "velocity": 0.3937007874015748
        },
        {
          "duration": 0.5294115000000019,
          "durationTicks": 576,
          "midi": 41,
          "name": "F2",
          "ticks": 68352,
          "time": 62.823498,
          "velocity": 0.3937007874015748
        },
        {
          "duration": 0.5294115000000019,
          "durationTicks": 576,
          "midi": 43,
          "name": "G2",
          "ticks": 68352,
          "time": 62.823498,
          "velocity": 0.3937007874015748
        },
        {
          "duration": 0.5294115000000019,
          "durationTicks": 576,
          "midi": 44,
          "name": "G#2",
          "ticks": 68352,
          "time": 62.823498,
          "velocity": 0.3937007874015748
        },
        {
          "duration": 0.5294115000000019,
          "durationTicks": 576,
          "midi": 41,
          "name": "F2",
          "ticks": 68352,
          "time": 62.823498,
          "velocity": 0.3937007874015748
        },
        {
          "duration": 0.17647050000000064,
          "durationTicks": 192,
          "midi": 43,
          "name": "G2",
          "ticks": 68928,
          "time": 63.3529095,
          "velocity": 0.3937007874015748
        },
        {
          "duration": 0.17647050000000064,
          "durationTicks": 192,
          "midi": 44,
          "name": "G#2",
          "ticks": 68928,
          "time": 63.3529095,
          "velocity": 0.3937007874015748
        },
        {
          "duration": 0.17647050000000064,
          "durationTicks": 192,
          "midi": 41,
          "name": "F2",
          "ticks": 68928,
          "time": 63.3529095,
          "velocity": 0.3937007874015748
        },
        {
          "duration": 0.17647050000000064,
          "durationTicks": 192,
          "midi": 43,
          "name": "G2",
          "ticks": 68928,
          "time": 63.3529095,
          "velocity": 0.3937007874015748
        },
        {
          "duration": 0.17647050000000064,
          "durationTicks": 192,
          "midi": 44,
          "name": "G#2",
          "ticks": 68928,
          "time": 63.3529095,
          "velocity": 0.3937007874015748
        },
        {
          "duration": 0.17647050000000064,
          "durationTicks": 192,
          "midi": 41,
          "name": "F2",
          "ticks": 68928,
          "time": 63.3529095,
          "velocity": 0.3937007874015748
        },
        {
          "duration": 0.17647050000000064,
          "durationTicks": 192,
          "midi": 36,
          "name": "C2",
          "ticks": 69120,
          "time": 63.52938,
          "velocity": 0.3937007874015748
        },
        {
          "duration": 0.17647050000000064,
          "durationTicks": 192,
          "midi": 35,
          "name": "B1",
          "ticks": 69120,
          "time": 63.52938,
          "velocity": 0.3937007874015748
        },
        {
          "duration": 0.17647050000000064,
          "durationTicks": 192,
          "midi": 38,
          "name": "D2",
          "ticks": 69120,
          "time": 63.52938,
          "velocity": 0.3937007874015748
        },
        {
          "duration": 0.17647050000000064,
          "durationTicks": 192,
          "midi": 36,
          "name": "C2",
          "ticks": 69120,
          "time": 63.52938,
          "velocity": 0.3937007874015748
        },
        {
          "duration": 0.17647050000000064,
          "durationTicks": 192,
          "midi": 35,
          "name": "B1",
          "ticks": 69120,
          "time": 63.52938,
          "velocity": 0.3937007874015748
        },
        {
          "duration": 0.17647050000000064,
          "durationTicks": 192,
          "midi": 38,
          "name": "D2",
          "ticks": 69120,
          "time": 63.52938,
          "velocity": 0.3937007874015748
        },
        {
          "duration": 0.17647049999999354,
          "durationTicks": 192,
          "midi": 43,
          "name": "G2",
          "ticks": 69312,
          "time": 63.705850500000004,
          "velocity": 0.3937007874015748
        },
        {
          "duration": 0.17647049999999354,
          "durationTicks": 192,
          "midi": 44,
          "name": "G#2",
          "ticks": 69312,
          "time": 63.705850500000004,
          "velocity": 0.3937007874015748
        },
        {
          "duration": 0.17647049999999354,
          "durationTicks": 192,
          "midi": 41,
          "name": "F2",
          "ticks": 69312,
          "time": 63.705850500000004,
          "velocity": 0.3937007874015748
        },
        {
          "duration": 0.17647049999999354,
          "durationTicks": 192,
          "midi": 43,
          "name": "G2",
          "ticks": 69312,
          "time": 63.705850500000004,
          "velocity": 0.3937007874015748
        },
        {
          "duration": 0.17647049999999354,
          "durationTicks": 192,
          "midi": 44,
          "name": "G#2",
          "ticks": 69312,
          "time": 63.705850500000004,
          "velocity": 0.3937007874015748
        },
        {
          "duration": 0.17647049999999354,
          "durationTicks": 192,
          "midi": 41,
          "name": "F2",
          "ticks": 69312,
          "time": 63.705850500000004,
          "velocity": 0.3937007874015748
        },
        {
          "duration": 0.3529410000000084,
          "durationTicks": 384,
          "midi": 36,
          "name": "C2",
          "ticks": 69504,
          "time": 63.882321,
          "velocity": 0.3937007874015748
        },
        {
          "duration": 0.3529410000000084,
          "durationTicks": 384,
          "midi": 35,
          "name": "B1",
          "ticks": 69504,
          "time": 63.882321,
          "velocity": 0.3937007874015748
        },
        {
          "duration": 0.3529410000000084,
          "durationTicks": 384,
          "midi": 38,
          "name": "D2",
          "ticks": 69504,
          "time": 63.882321,
          "velocity": 0.3937007874015748
        },
        {
          "duration": 0.3529410000000084,
          "durationTicks": 384,
          "midi": 36,
          "name": "C2",
          "ticks": 69504,
          "time": 63.882321,
          "velocity": 0.3937007874015748
        },
        {
          "duration": 0.3529410000000084,
          "durationTicks": 384,
          "midi": 35,
          "name": "B1",
          "ticks": 69504,
          "time": 63.882321,
          "velocity": 0.3937007874015748
        },
        {
          "duration": 0.3529410000000084,
          "durationTicks": 384,
          "midi": 38,
          "name": "D2",
          "ticks": 69504,
          "time": 63.882321,
          "velocity": 0.3937007874015748
        },
        {
          "duration": 0.5294114999999948,
          "durationTicks": 576,
          "midi": 43,
          "name": "G2",
          "ticks": 69888,
          "time": 64.235262,
          "velocity": 0.3937007874015748
        },
        {
          "duration": 0.5294114999999948,
          "durationTicks": 576,
          "midi": 44,
          "name": "G#2",
          "ticks": 69888,
          "time": 64.235262,
          "velocity": 0.3937007874015748
        },
        {
          "duration": 0.5294114999999948,
          "durationTicks": 576,
          "midi": 41,
          "name": "F2",
          "ticks": 69888,
          "time": 64.235262,
          "velocity": 0.3937007874015748
        },
        {
          "duration": 0.5294114999999948,
          "durationTicks": 576,
          "midi": 43,
          "name": "G2",
          "ticks": 69888,
          "time": 64.235262,
          "velocity": 0.3937007874015748
        },
        {
          "duration": 0.5294114999999948,
          "durationTicks": 576,
          "midi": 44,
          "name": "G#2",
          "ticks": 69888,
          "time": 64.235262,
          "velocity": 0.3937007874015748
        },
        {
          "duration": 0.5294114999999948,
          "durationTicks": 576,
          "midi": 41,
          "name": "F2",
          "ticks": 69888,
          "time": 64.235262,
          "velocity": 0.3937007874015748
        },
        {
          "duration": 0.17647049999999354,
          "durationTicks": 192,
          "midi": 43,
          "name": "G2",
          "ticks": 70464,
          "time": 64.7646735,
          "velocity": 0.3937007874015748
        },
        {
          "duration": 0.17647049999999354,
          "durationTicks": 192,
          "midi": 44,
          "name": "G#2",
          "ticks": 70464,
          "time": 64.7646735,
          "velocity": 0.3937007874015748
        },
        {
          "duration": 0.17647049999999354,
          "durationTicks": 192,
          "midi": 41,
          "name": "F2",
          "ticks": 70464,
          "time": 64.7646735,
          "velocity": 0.3937007874015748
        },
        {
          "duration": 0.17647049999999354,
          "durationTicks": 192,
          "midi": 43,
          "name": "G2",
          "ticks": 70464,
          "time": 64.7646735,
          "velocity": 0.3937007874015748
        },
        {
          "duration": 0.17647049999999354,
          "durationTicks": 192,
          "midi": 44,
          "name": "G#2",
          "ticks": 70464,
          "time": 64.7646735,
          "velocity": 0.3937007874015748
        },
        {
          "duration": 0.17647049999999354,
          "durationTicks": 192,
          "midi": 41,
          "name": "F2",
          "ticks": 70464,
          "time": 64.7646735,
          "velocity": 0.3937007874015748
        },
        {
          "duration": 0.17647050000000775,
          "durationTicks": 192,
          "midi": 36,
          "name": "C2",
          "ticks": 70656,
          "time": 64.941144,
          "velocity": 0.3937007874015748
        },
        {
          "duration": 0.17647050000000775,
          "durationTicks": 192,
          "midi": 35,
          "name": "B1",
          "ticks": 70656,
          "time": 64.941144,
          "velocity": 0.3937007874015748
        },
        {
          "duration": 0.17647050000000775,
          "durationTicks": 192,
          "midi": 38,
          "name": "D2",
          "ticks": 70656,
          "time": 64.941144,
          "velocity": 0.3937007874015748
        },
        {
          "duration": 0.3529410000000013,
          "durationTicks": 384,
          "midi": 36,
          "name": "C2",
          "ticks": 71040,
          "time": 65.294085,
          "velocity": 0.3937007874015748
        },
        {
          "duration": 0.3529410000000013,
          "durationTicks": 384,
          "midi": 35,
          "name": "B1",
          "ticks": 71040,
          "time": 65.294085,
          "velocity": 0.3937007874015748
        },
        {
          "duration": 0.3529410000000013,
          "durationTicks": 384,
          "midi": 38,
          "name": "D2",
          "ticks": 71040,
          "time": 65.294085,
          "velocity": 0.3937007874015748
        },
        {
          "duration": 0.529411500000009,
          "durationTicks": 576,
          "midi": 43,
          "name": "G2",
          "ticks": 71424,
          "time": 65.647026,
          "velocity": 0.3937007874015748
        },
        {
          "duration": 0.529411500000009,
          "durationTicks": 576,
          "midi": 44,
          "name": "G#2",
          "ticks": 71424,
          "time": 65.647026,
          "velocity": 0.3937007874015748
        },
        {
          "duration": 0.529411500000009,
          "durationTicks": 576,
          "midi": 41,
          "name": "F2",
          "ticks": 71424,
          "time": 65.647026,
          "velocity": 0.3937007874015748
        },
        {
          "duration": 0.17647049999999354,
          "durationTicks": 192,
          "midi": 43,
          "name": "G2",
          "ticks": 72000,
          "time": 66.1764375,
          "velocity": 0.3937007874015748
        },
        {
          "duration": 0.17647049999999354,
          "durationTicks": 192,
          "midi": 44,
          "name": "G#2",
          "ticks": 72000,
          "time": 66.1764375,
          "velocity": 0.3937007874015748
        },
        {
          "duration": 0.17647049999999354,
          "durationTicks": 192,
          "midi": 41,
          "name": "F2",
          "ticks": 72000,
          "time": 66.1764375,
          "velocity": 0.3937007874015748
        },
        {
          "duration": 0.17647050000000775,
          "durationTicks": 192,
          "midi": 36,
          "name": "C2",
          "ticks": 72192,
          "time": 66.352908,
          "velocity": 0.3937007874015748
        },
        {
          "duration": 0.17647050000000775,
          "durationTicks": 192,
          "midi": 35,
          "name": "B1",
          "ticks": 72192,
          "time": 66.352908,
          "velocity": 0.3937007874015748
        },
        {
          "duration": 0.17647050000000775,
          "durationTicks": 192,
          "midi": 38,
          "name": "D2",
          "ticks": 72192,
          "time": 66.352908,
          "velocity": 0.3937007874015748
        },
        {
          "duration": 0.17647049999999354,
          "durationTicks": 192,
          "midi": 43,
          "name": "G2",
          "ticks": 72384,
          "time": 66.5293785,
          "velocity": 0.3937007874015748
        },
        {
          "duration": 0.17647049999999354,
          "durationTicks": 192,
          "midi": 44,
          "name": "G#2",
          "ticks": 72384,
          "time": 66.5293785,
          "velocity": 0.3937007874015748
        },
        {
          "duration": 0.17647049999999354,
          "durationTicks": 192,
          "midi": 41,
          "name": "F2",
          "ticks": 72384,
          "time": 66.5293785,
          "velocity": 0.3937007874015748
        },
        {
          "duration": 0.3529410000000013,
          "durationTicks": 384,
          "midi": 36,
          "name": "C2",
          "ticks": 72576,
          "time": 66.705849,
          "velocity": 0.3937007874015748
        },
        {
          "duration": 0.3529410000000013,
          "durationTicks": 384,
          "midi": 35,
          "name": "B1",
          "ticks": 72576,
          "time": 66.705849,
          "velocity": 0.3937007874015748
        },
        {
          "duration": 0.3529410000000013,
          "durationTicks": 384,
          "midi": 38,
          "name": "D2",
          "ticks": 72576,
          "time": 66.705849,
          "velocity": 0.3937007874015748
        },
        {
          "duration": 0.5294114999999948,
          "durationTicks": 576,
          "midi": 43,
          "name": "G2",
          "ticks": 72960,
          "time": 67.05879,
          "velocity": 0.3937007874015748
        },
        {
          "duration": 0.5294114999999948,
          "durationTicks": 576,
          "midi": 44,
          "name": "G#2",
          "ticks": 72960,
          "time": 67.05879,
          "velocity": 0.3937007874015748
        },
        {
          "duration": 0.5294114999999948,
          "durationTicks": 576,
          "midi": 41,
          "name": "F2",
          "ticks": 72960,
          "time": 67.05879,
          "velocity": 0.3937007874015748
        },
        {
          "duration": 0.17647050000000775,
          "durationTicks": 192,
          "midi": 43,
          "name": "G2",
          "ticks": 73536,
          "time": 67.5882015,
          "velocity": 0.3937007874015748
        },
        {
          "duration": 0.17647050000000775,
          "durationTicks": 192,
          "midi": 44,
          "name": "G#2",
          "ticks": 73536,
          "time": 67.5882015,
          "velocity": 0.3937007874015748
        },
        {
          "duration": 0.17647050000000775,
          "durationTicks": 192,
          "midi": 41,
          "name": "F2",
          "ticks": 73536,
          "time": 67.5882015,
          "velocity": 0.3937007874015748
        },
        {
          "duration": 0.17647049999999354,
          "durationTicks": 192,
          "midi": 36,
          "name": "C2",
          "ticks": 73728,
          "time": 67.764672,
          "velocity": 0.3937007874015748
        },
        {
          "duration": 0.17647049999999354,
          "durationTicks": 192,
          "midi": 35,
          "name": "B1",
          "ticks": 73728,
          "time": 67.764672,
          "velocity": 0.3937007874015748
        },
        {
          "duration": 0.17647049999999354,
          "durationTicks": 192,
          "midi": 38,
          "name": "D2",
          "ticks": 73728,
          "time": 67.764672,
          "velocity": 0.3937007874015748
        },
        {
          "duration": 0.3529410000000013,
          "durationTicks": 384,
          "midi": 36,
          "name": "C2",
          "ticks": 74112,
          "time": 68.117613,
          "velocity": 0.3937007874015748
        },
        {
          "duration": 0.3529410000000013,
          "durationTicks": 384,
          "midi": 35,
          "name": "B1",
          "ticks": 74112,
          "time": 68.117613,
          "velocity": 0.3937007874015748
        },
        {
          "duration": 0.3529410000000013,
          "durationTicks": 384,
          "midi": 38,
          "name": "D2",
          "ticks": 74112,
          "time": 68.117613,
          "velocity": 0.3937007874015748
        },
        {
          "duration": 0.5294114999999948,
          "durationTicks": 576,
          "midi": 43,
          "name": "G2",
          "ticks": 74496,
          "time": 68.470554,
          "velocity": 0.3937007874015748
        },
        {
          "duration": 0.5294114999999948,
          "durationTicks": 576,
          "midi": 44,
          "name": "G#2",
          "ticks": 74496,
          "time": 68.470554,
          "velocity": 0.3937007874015748
        },
        {
          "duration": 0.5294114999999948,
          "durationTicks": 576,
          "midi": 41,
          "name": "F2",
          "ticks": 74496,
          "time": 68.470554,
          "velocity": 0.3937007874015748
        },
        {
          "duration": 0.17647049999999354,
          "durationTicks": 192,
          "midi": 43,
          "name": "G2",
          "ticks": 75072,
          "time": 68.9999655,
          "velocity": 0.3937007874015748
        },
        {
          "duration": 0.17647049999999354,
          "durationTicks": 192,
          "midi": 44,
          "name": "G#2",
          "ticks": 75072,
          "time": 68.9999655,
          "velocity": 0.3937007874015748
        },
        {
          "duration": 0.17647049999999354,
          "durationTicks": 192,
          "midi": 41,
          "name": "F2",
          "ticks": 75072,
          "time": 68.9999655,
          "velocity": 0.3937007874015748
        },
        {
          "duration": 0.17647050000000775,
          "durationTicks": 192,
          "midi": 36,
          "name": "C2",
          "ticks": 75264,
          "time": 69.176436,
          "velocity": 0.3937007874015748
        },
        {
          "duration": 0.17647050000000775,
          "durationTicks": 192,
          "midi": 35,
          "name": "B1",
          "ticks": 75264,
          "time": 69.176436,
          "velocity": 0.3937007874015748
        },
        {
          "duration": 0.17647050000000775,
          "durationTicks": 192,
          "midi": 38,
          "name": "D2",
          "ticks": 75264,
          "time": 69.176436,
          "velocity": 0.3937007874015748
        },
        {
          "duration": 0.17647049999999354,
          "durationTicks": 192,
          "midi": 43,
          "name": "G2",
          "ticks": 75456,
          "time": 69.3529065,
          "velocity": 0.3937007874015748
        },
        {
          "duration": 0.17647049999999354,
          "durationTicks": 192,
          "midi": 44,
          "name": "G#2",
          "ticks": 75456,
          "time": 69.3529065,
          "velocity": 0.3937007874015748
        },
        {
          "duration": 0.17647049999999354,
          "durationTicks": 192,
          "midi": 41,
          "name": "F2",
          "ticks": 75456,
          "time": 69.3529065,
          "velocity": 0.3937007874015748
        },
        {
          "duration": 0.3529410000000013,
          "durationTicks": 384,
          "midi": 36,
          "name": "C2",
          "ticks": 75648,
          "time": 69.529377,
          "velocity": 0.3937007874015748
        },
        {
          "duration": 0.3529410000000013,
          "durationTicks": 384,
          "midi": 35,
          "name": "B1",
          "ticks": 75648,
          "time": 69.529377,
          "velocity": 0.3937007874015748
        },
        {
          "duration": 0.3529410000000013,
          "durationTicks": 384,
          "midi": 38,
          "name": "D2",
          "ticks": 75648,
          "time": 69.529377,
          "velocity": 0.3937007874015748
        },
        {
          "duration": 0.529411500000009,
          "durationTicks": 576,
          "midi": 43,
          "name": "G2",
          "ticks": 76032,
          "time": 69.882318,
          "velocity": 0.3937007874015748
        },
        {
          "duration": 0.529411500000009,
          "durationTicks": 576,
          "midi": 44,
          "name": "G#2",
          "ticks": 76032,
          "time": 69.882318,
          "velocity": 0.3937007874015748
        },
        {
          "duration": 0.529411500000009,
          "durationTicks": 576,
          "midi": 41,
          "name": "F2",
          "ticks": 76032,
          "time": 69.882318,
          "velocity": 0.3937007874015748
        },
        {
          "duration": 0.17647049999999354,
          "durationTicks": 192,
          "midi": 43,
          "name": "G2",
          "ticks": 76608,
          "time": 70.4117295,
          "velocity": 0.3937007874015748
        },
        {
          "duration": 0.17647049999999354,
          "durationTicks": 192,
          "midi": 44,
          "name": "G#2",
          "ticks": 76608,
          "time": 70.4117295,
          "velocity": 0.3937007874015748
        },
        {
          "duration": 0.17647049999999354,
          "durationTicks": 192,
          "midi": 41,
          "name": "F2",
          "ticks": 76608,
          "time": 70.4117295,
          "velocity": 0.3937007874015748
        },
        {
          "duration": 0.17647049999999354,
          "durationTicks": 192,
          "midi": 36,
          "name": "C2",
          "ticks": 76800,
          "time": 70.5882,
          "velocity": 0.3937007874015748
        },
        {
          "duration": 0.17647049999999354,
          "durationTicks": 192,
          "midi": 35,
          "name": "B1",
          "ticks": 76800,
          "time": 70.5882,
          "velocity": 0.3937007874015748
        },
        {
          "duration": 0.17647049999999354,
          "durationTicks": 192,
          "midi": 38,
          "name": "D2",
          "ticks": 76800,
          "time": 70.5882,
          "velocity": 0.3937007874015748
        },
        {
          "duration": 0.3529410000000013,
          "durationTicks": 384,
          "midi": 36,
          "name": "C2",
          "ticks": 77184,
          "time": 70.941141,
          "velocity": 0.3937007874015748
        },
        {
          "duration": 0.3529410000000013,
          "durationTicks": 384,
          "midi": 35,
          "name": "B1",
          "ticks": 77184,
          "time": 70.941141,
          "velocity": 0.3937007874015748
        },
        {
          "duration": 0.3529410000000013,
          "durationTicks": 384,
          "midi": 38,
          "name": "D2",
          "ticks": 77184,
          "time": 70.941141,
          "velocity": 0.3937007874015748
        },
        {
          "duration": 0.5294114999999948,
          "durationTicks": 576,
          "midi": 43,
          "name": "G2",
          "ticks": 77568,
          "time": 71.294082,
          "velocity": 0.3937007874015748
        },
        {
          "duration": 0.5294114999999948,
          "durationTicks": 576,
          "midi": 44,
          "name": "G#2",
          "ticks": 77568,
          "time": 71.294082,
          "velocity": 0.3937007874015748
        },
        {
          "duration": 0.5294114999999948,
          "durationTicks": 576,
          "midi": 41,
          "name": "F2",
          "ticks": 77568,
          "time": 71.294082,
          "velocity": 0.3937007874015748
        },
        {
          "duration": 0.17647050000000775,
          "durationTicks": 192,
          "midi": 43,
          "name": "G2",
          "ticks": 78144,
          "time": 71.8234935,
          "velocity": 0.3937007874015748
        },
        {
          "duration": 0.17647050000000775,
          "durationTicks": 192,
          "midi": 44,
          "name": "G#2",
          "ticks": 78144,
          "time": 71.8234935,
          "velocity": 0.3937007874015748
        },
        {
          "duration": 0.17647050000000775,
          "durationTicks": 192,
          "midi": 41,
          "name": "F2",
          "ticks": 78144,
          "time": 71.8234935,
          "velocity": 0.3937007874015748
        },
        {
          "duration": 0.17647049999999354,
          "durationTicks": 192,
          "midi": 36,
          "name": "C2",
          "ticks": 78336,
          "time": 71.999964,
          "velocity": 0.3937007874015748
        },
        {
          "duration": 0.17647049999999354,
          "durationTicks": 192,
          "midi": 35,
          "name": "B1",
          "ticks": 78336,
          "time": 71.999964,
          "velocity": 0.3937007874015748
        },
        {
          "duration": 0.17647049999999354,
          "durationTicks": 192,
          "midi": 38,
          "name": "D2",
          "ticks": 78336,
          "time": 71.999964,
          "velocity": 0.3937007874015748
        },
        {
          "duration": 0.17647050000000775,
          "durationTicks": 192,
          "midi": 43,
          "name": "G2",
          "ticks": 78528,
          "time": 72.1764345,
          "velocity": 0.3937007874015748
        },
        {
          "duration": 0.17647050000000775,
          "durationTicks": 192,
          "midi": 44,
          "name": "G#2",
          "ticks": 78528,
          "time": 72.1764345,
          "velocity": 0.3937007874015748
        },
        {
          "duration": 0.17647050000000775,
          "durationTicks": 192,
          "midi": 41,
          "name": "F2",
          "ticks": 78528,
          "time": 72.1764345,
          "velocity": 0.3937007874015748
        },
        {
          "duration": 0.35294099999998707,
          "durationTicks": 384,
          "midi": 36,
          "name": "C2",
          "ticks": 78720,
          "time": 72.352905,
          "velocity": 0.3937007874015748
        },
        {
          "duration": 0.35294099999998707,
          "durationTicks": 384,
          "midi": 35,
          "name": "B1",
          "ticks": 78720,
          "time": 72.352905,
          "velocity": 0.3937007874015748
        },
        {
          "duration": 0.35294099999998707,
          "durationTicks": 384,
          "midi": 38,
          "name": "D2",
          "ticks": 78720,
          "time": 72.352905,
          "velocity": 0.3937007874015748
        },
        {
          "duration": 0.529411500000009,
          "durationTicks": 576,
          "midi": 43,
          "name": "G2",
          "ticks": 79104,
          "time": 72.705846,
          "velocity": 0.3937007874015748
        },
        {
          "duration": 0.529411500000009,
          "durationTicks": 576,
          "midi": 44,
          "name": "G#2",
          "ticks": 79104,
          "time": 72.705846,
          "velocity": 0.3937007874015748
        },
        {
          "duration": 0.529411500000009,
          "durationTicks": 576,
          "midi": 41,
          "name": "F2",
          "ticks": 79104,
          "time": 72.705846,
          "velocity": 0.3937007874015748
        },
        {
          "duration": 0.17647049999999354,
          "durationTicks": 192,
          "midi": 43,
          "name": "G2",
          "ticks": 79680,
          "time": 73.2352575,
          "velocity": 0.3937007874015748
        },
        {
          "duration": 0.17647049999999354,
          "durationTicks": 192,
          "midi": 44,
          "name": "G#2",
          "ticks": 79680,
          "time": 73.2352575,
          "velocity": 0.3937007874015748
        },
        {
          "duration": 0.17647049999999354,
          "durationTicks": 192,
          "midi": 41,
          "name": "F2",
          "ticks": 79680,
          "time": 73.2352575,
          "velocity": 0.3937007874015748
        },
        {
          "duration": 0.17647050000000775,
          "durationTicks": 192,
          "midi": 36,
          "name": "C2",
          "ticks": 79872,
          "time": 73.411728,
          "velocity": 0.3937007874015748
        },
        {
          "duration": 0.17647050000000775,
          "durationTicks": 192,
          "midi": 35,
          "name": "B1",
          "ticks": 79872,
          "time": 73.411728,
          "velocity": 0.3937007874015748
        },
        {
          "duration": 0.17647050000000775,
          "durationTicks": 192,
          "midi": 38,
          "name": "D2",
          "ticks": 79872,
          "time": 73.411728,
          "velocity": 0.3937007874015748
        },
        {
          "duration": 0.3529410000000013,
          "durationTicks": 384,
          "midi": 36,
          "name": "C2",
          "ticks": 80256,
          "time": 73.764669,
          "velocity": 0.3937007874015748
        },
        {
          "duration": 0.3529410000000013,
          "durationTicks": 384,
          "midi": 35,
          "name": "B1",
          "ticks": 80256,
          "time": 73.764669,
          "velocity": 0.3937007874015748
        },
        {
          "duration": 0.3529410000000013,
          "durationTicks": 384,
          "midi": 38,
          "name": "D2",
          "ticks": 80256,
          "time": 73.764669,
          "velocity": 0.3937007874015748
        },
        {
          "duration": 0.5294114999999948,
          "durationTicks": 576,
          "midi": 43,
          "name": "G2",
          "ticks": 80640,
          "time": 74.11761,
          "velocity": 0.3937007874015748
        },
        {
          "duration": 0.5294114999999948,
          "durationTicks": 576,
          "midi": 44,
          "name": "G#2",
          "ticks": 80640,
          "time": 74.11761,
          "velocity": 0.3937007874015748
        },
        {
          "duration": 0.5294114999999948,
          "durationTicks": 576,
          "midi": 41,
          "name": "F2",
          "ticks": 80640,
          "time": 74.11761,
          "velocity": 0.3937007874015748
        },
        {
          "duration": 0.17647050000000775,
          "durationTicks": 192,
          "midi": 43,
          "name": "G2",
          "ticks": 81216,
          "time": 74.6470215,
          "velocity": 0.3937007874015748
        },
        {
          "duration": 0.17647050000000775,
          "durationTicks": 192,
          "midi": 44,
          "name": "G#2",
          "ticks": 81216,
          "time": 74.6470215,
          "velocity": 0.3937007874015748
        },
        {
          "duration": 0.17647050000000775,
          "durationTicks": 192,
          "midi": 41,
          "name": "F2",
          "ticks": 81216,
          "time": 74.6470215,
          "velocity": 0.3937007874015748
        },
        {
          "duration": 0.17647049999999354,
          "durationTicks": 192,
          "midi": 36,
          "name": "C2",
          "ticks": 81408,
          "time": 74.823492,
          "velocity": 0.3937007874015748
        },
        {
          "duration": 0.17647049999999354,
          "durationTicks": 192,
          "midi": 35,
          "name": "B1",
          "ticks": 81408,
          "time": 74.823492,
          "velocity": 0.3937007874015748
        },
        {
          "duration": 0.17647049999999354,
          "durationTicks": 192,
          "midi": 38,
          "name": "D2",
          "ticks": 81408,
          "time": 74.823492,
          "velocity": 0.3937007874015748
        },
        {
          "duration": 0.17647050000000775,
          "durationTicks": 192,
          "midi": 43,
          "name": "G2",
          "ticks": 81600,
          "time": 74.9999625,
          "velocity": 0.3937007874015748
        },
        {
          "duration": 0.17647050000000775,
          "durationTicks": 192,
          "midi": 44,
          "name": "G#2",
          "ticks": 81600,
          "time": 74.9999625,
          "velocity": 0.3937007874015748
        },
        {
          "duration": 0.17647050000000775,
          "durationTicks": 192,
          "midi": 41,
          "name": "F2",
          "ticks": 81600,
          "time": 74.9999625,
          "velocity": 0.3937007874015748
        },
        {
          "duration": 0.3529410000000013,
          "durationTicks": 384,
          "midi": 36,
          "name": "C2",
          "ticks": 81792,
          "time": 75.176433,
          "velocity": 0.3937007874015748
        },
        {
          "duration": 0.3529410000000013,
          "durationTicks": 384,
          "midi": 35,
          "name": "B1",
          "ticks": 81792,
          "time": 75.176433,
          "velocity": 0.3937007874015748
        },
        {
          "duration": 0.3529410000000013,
          "durationTicks": 384,
          "midi": 38,
          "name": "D2",
          "ticks": 81792,
          "time": 75.176433,
          "velocity": 0.3937007874015748
        },
        {
          "duration": 0.5294114999999948,
          "durationTicks": 576,
          "midi": 43,
          "name": "G2",
          "ticks": 82176,
          "time": 75.529374,
          "velocity": 0.3937007874015748
        },
        {
          "duration": 0.5294114999999948,
          "durationTicks": 576,
          "midi": 44,
          "name": "G#2",
          "ticks": 82176,
          "time": 75.529374,
          "velocity": 0.3937007874015748
        },
        {
          "duration": 0.5294114999999948,
          "durationTicks": 576,
          "midi": 41,
          "name": "F2",
          "ticks": 82176,
          "time": 75.529374,
          "velocity": 0.3937007874015748
        },
        {
          "duration": 0.17647050000000775,
          "durationTicks": 192,
          "midi": 43,
          "name": "G2",
          "ticks": 82752,
          "time": 76.0587855,
          "velocity": 0.3937007874015748
        },
        {
          "duration": 0.17647050000000775,
          "durationTicks": 192,
          "midi": 44,
          "name": "G#2",
          "ticks": 82752,
          "time": 76.0587855,
          "velocity": 0.3937007874015748
        },
        {
          "duration": 0.17647050000000775,
          "durationTicks": 192,
          "midi": 41,
          "name": "F2",
          "ticks": 82752,
          "time": 76.0587855,
          "velocity": 0.3937007874015748
        },
        {
          "duration": 0.17647049999999354,
          "durationTicks": 192,
          "midi": 36,
          "name": "C2",
          "ticks": 82944,
          "time": 76.235256,
          "velocity": 0.3937007874015748
        },
        {
          "duration": 0.17647049999999354,
          "durationTicks": 192,
          "midi": 35,
          "name": "B1",
          "ticks": 82944,
          "time": 76.235256,
          "velocity": 0.3937007874015748
        },
        {
          "duration": 0.17647049999999354,
          "durationTicks": 192,
          "midi": 38,
          "name": "D2",
          "ticks": 82944,
          "time": 76.235256,
          "velocity": 0.3937007874015748
        },
        {
          "duration": 0.35294099999998707,
          "durationTicks": 384,
          "midi": 36,
          "name": "C2",
          "ticks": 83328,
          "time": 76.58819700000001,
          "velocity": 0.3937007874015748
        },
        {
          "duration": 0.35294099999998707,
          "durationTicks": 384,
          "midi": 35,
          "name": "B1",
          "ticks": 83328,
          "time": 76.58819700000001,
          "velocity": 0.3937007874015748
        },
        {
          "duration": 0.35294099999998707,
          "durationTicks": 384,
          "midi": 38,
          "name": "D2",
          "ticks": 83328,
          "time": 76.58819700000001,
          "velocity": 0.3937007874015748
        },
        {
          "duration": 0.529411500000009,
          "durationTicks": 576,
          "midi": 43,
          "name": "G2",
          "ticks": 83712,
          "time": 76.941138,
          "velocity": 0.3937007874015748
        },
        {
          "duration": 0.529411500000009,
          "durationTicks": 576,
          "midi": 44,
          "name": "G#2",
          "ticks": 83712,
          "time": 76.941138,
          "velocity": 0.3937007874015748
        },
        {
          "duration": 0.529411500000009,
          "durationTicks": 576,
          "midi": 41,
          "name": "F2",
          "ticks": 83712,
          "time": 76.941138,
          "velocity": 0.3937007874015748
        },
        {
          "duration": 0.17647049999999354,
          "durationTicks": 192,
          "midi": 43,
          "name": "G2",
          "ticks": 84288,
          "time": 77.4705495,
          "velocity": 0.3937007874015748
        },
        {
          "duration": 0.17647049999999354,
          "durationTicks": 192,
          "midi": 44,
          "name": "G#2",
          "ticks": 84288,
          "time": 77.4705495,
          "velocity": 0.3937007874015748
        },
        {
          "duration": 0.17647049999999354,
          "durationTicks": 192,
          "midi": 41,
          "name": "F2",
          "ticks": 84288,
          "time": 77.4705495,
          "velocity": 0.3937007874015748
        },
        {
          "duration": 0.17647050000000775,
          "durationTicks": 192,
          "midi": 36,
          "name": "C2",
          "ticks": 84480,
          "time": 77.64702,
          "velocity": 0.3937007874015748
        },
        {
          "duration": 0.17647050000000775,
          "durationTicks": 192,
          "midi": 35,
          "name": "B1",
          "ticks": 84480,
          "time": 77.64702,
          "velocity": 0.3937007874015748
        },
        {
          "duration": 0.17647050000000775,
          "durationTicks": 192,
          "midi": 38,
          "name": "D2",
          "ticks": 84480,
          "time": 77.64702,
          "velocity": 0.3937007874015748
        },
        {
          "duration": 0.17647049999999354,
          "durationTicks": 192,
          "midi": 43,
          "name": "G2",
          "ticks": 84672,
          "time": 77.8234905,
          "velocity": 0.3937007874015748
        },
        {
          "duration": 0.17647049999999354,
          "durationTicks": 192,
          "midi": 44,
          "name": "G#2",
          "ticks": 84672,
          "time": 77.8234905,
          "velocity": 0.3937007874015748
        },
        {
          "duration": 0.17647049999999354,
          "durationTicks": 192,
          "midi": 41,
          "name": "F2",
          "ticks": 84672,
          "time": 77.8234905,
          "velocity": 0.3937007874015748
        },
        {
          "duration": 0.3529410000000013,
          "durationTicks": 384,
          "midi": 36,
          "name": "C2",
          "ticks": 84864,
          "time": 77.999961,
          "velocity": 0.3937007874015748
        },
        {
          "duration": 0.3529410000000013,
          "durationTicks": 384,
          "midi": 35,
          "name": "B1",
          "ticks": 84864,
          "time": 77.999961,
          "velocity": 0.3937007874015748
        },
        {
          "duration": 0.3529410000000013,
          "durationTicks": 384,
          "midi": 38,
          "name": "D2",
          "ticks": 84864,
          "time": 77.999961,
          "velocity": 0.3937007874015748
        },
        {
          "duration": 0.5294114999999948,
          "durationTicks": 576,
          "midi": 43,
          "name": "G2",
          "ticks": 85248,
          "time": 78.352902,
          "velocity": 0.3937007874015748
        },
        {
          "duration": 0.5294114999999948,
          "durationTicks": 576,
          "midi": 44,
          "name": "G#2",
          "ticks": 85248,
          "time": 78.352902,
          "velocity": 0.3937007874015748
        },
        {
          "duration": 0.5294114999999948,
          "durationTicks": 576,
          "midi": 41,
          "name": "F2",
          "ticks": 85248,
          "time": 78.352902,
          "velocity": 0.3937007874015748
        },
        {
          "duration": 0.17647050000000775,
          "durationTicks": 192,
          "midi": 43,
          "name": "G2",
          "ticks": 85824,
          "time": 78.8823135,
          "velocity": 0.3937007874015748
        },
        {
          "duration": 0.17647050000000775,
          "durationTicks": 192,
          "midi": 44,
          "name": "G#2",
          "ticks": 85824,
          "time": 78.8823135,
          "velocity": 0.3937007874015748
        },
        {
          "duration": 0.17647050000000775,
          "durationTicks": 192,
          "midi": 41,
          "name": "F2",
          "ticks": 85824,
          "time": 78.8823135,
          "velocity": 0.3937007874015748
        },
        {
          "duration": 0.17647049999999354,
          "durationTicks": 192,
          "midi": 36,
          "name": "C2",
          "ticks": 86016,
          "time": 79.058784,
          "velocity": 0.3937007874015748
        },
        {
          "duration": 0.17647049999999354,
          "durationTicks": 192,
          "midi": 35,
          "name": "B1",
          "ticks": 86016,
          "time": 79.058784,
          "velocity": 0.3937007874015748
        },
        {
          "duration": 0.17647049999999354,
          "durationTicks": 192,
          "midi": 38,
          "name": "D2",
          "ticks": 86016,
          "time": 79.058784,
          "velocity": 0.3937007874015748
        },
        {
          "duration": 0.3529410000000013,
          "durationTicks": 384,
          "midi": 36,
          "name": "C2",
          "ticks": 86400,
          "time": 79.411725,
          "velocity": 0.3937007874015748
        },
        {
          "duration": 0.3529410000000013,
          "durationTicks": 384,
          "midi": 35,
          "name": "B1",
          "ticks": 86400,
          "time": 79.411725,
          "velocity": 0.3937007874015748
        },
        {
          "duration": 0.3529410000000013,
          "durationTicks": 384,
          "midi": 38,
          "name": "D2",
          "ticks": 86400,
          "time": 79.411725,
          "velocity": 0.3937007874015748
        },
        {
          "duration": 0.5294114999999948,
          "durationTicks": 576,
          "midi": 43,
          "name": "G2",
          "ticks": 86784,
          "time": 79.764666,
          "velocity": 0.3937007874015748
        },
        {
          "duration": 0.5294114999999948,
          "durationTicks": 576,
          "midi": 44,
          "name": "G#2",
          "ticks": 86784,
          "time": 79.764666,
          "velocity": 0.3937007874015748
        },
        {
          "duration": 0.5294114999999948,
          "durationTicks": 576,
          "midi": 41,
          "name": "F2",
          "ticks": 86784,
          "time": 79.764666,
          "velocity": 0.3937007874015748
        },
        {
          "duration": 0.17647050000000775,
          "durationTicks": 192,
          "midi": 43,
          "name": "G2",
          "ticks": 87360,
          "time": 80.2940775,
          "velocity": 0.3937007874015748
        },
        {
          "duration": 0.17647050000000775,
          "durationTicks": 192,
          "midi": 44,
          "name": "G#2",
          "ticks": 87360,
          "time": 80.2940775,
          "velocity": 0.3937007874015748
        },
        {
          "duration": 0.17647050000000775,
          "durationTicks": 192,
          "midi": 41,
          "name": "F2",
          "ticks": 87360,
          "time": 80.2940775,
          "velocity": 0.3937007874015748
        },
        {
          "duration": 0.17647049999999354,
          "durationTicks": 192,
          "midi": 36,
          "name": "C2",
          "ticks": 87552,
          "time": 80.47054800000001,
          "velocity": 0.3937007874015748
        },
        {
          "duration": 0.17647049999999354,
          "durationTicks": 192,
          "midi": 35,
          "name": "B1",
          "ticks": 87552,
          "time": 80.47054800000001,
          "velocity": 0.3937007874015748
        },
        {
          "duration": 0.17647049999999354,
          "durationTicks": 192,
          "midi": 38,
          "name": "D2",
          "ticks": 87552,
          "time": 80.47054800000001,
          "velocity": 0.3937007874015748
        },
        {
          "duration": 0.17647049999999354,
          "durationTicks": 192,
          "midi": 43,
          "name": "G2",
          "ticks": 87744,
          "time": 80.6470185,
          "velocity": 0.3937007874015748
        },
        {
          "duration": 0.17647049999999354,
          "durationTicks": 192,
          "midi": 44,
          "name": "G#2",
          "ticks": 87744,
          "time": 80.6470185,
          "velocity": 0.3937007874015748
        },
        {
          "duration": 0.17647049999999354,
          "durationTicks": 192,
          "midi": 41,
          "name": "F2",
          "ticks": 87744,
          "time": 80.6470185,
          "velocity": 0.3937007874015748
        },
        {
          "duration": 0.3529410000000013,
          "durationTicks": 384,
          "midi": 36,
          "name": "C2",
          "ticks": 87936,
          "time": 80.823489,
          "velocity": 0.3937007874015748
        },
        {
          "duration": 0.3529410000000013,
          "durationTicks": 384,
          "midi": 35,
          "name": "B1",
          "ticks": 87936,
          "time": 80.823489,
          "velocity": 0.3937007874015748
        },
        {
          "duration": 0.3529410000000013,
          "durationTicks": 384,
          "midi": 38,
          "name": "D2",
          "ticks": 87936,
          "time": 80.823489,
          "velocity": 0.3937007874015748
        },
        {
          "duration": 0.529411500000009,
          "durationTicks": 576,
          "midi": 43,
          "name": "G2",
          "ticks": 88320,
          "time": 81.17643,
          "velocity": 0.3937007874015748
        },
        {
          "duration": 0.529411500000009,
          "durationTicks": 576,
          "midi": 44,
          "name": "G#2",
          "ticks": 88320,
          "time": 81.17643,
          "velocity": 0.3937007874015748
        },
        {
          "duration": 0.529411500000009,
          "durationTicks": 576,
          "midi": 41,
          "name": "F2",
          "ticks": 88320,
          "time": 81.17643,
          "velocity": 0.3937007874015748
        },
        {
          "duration": 0.17647049999999354,
          "durationTicks": 192,
          "midi": 43,
          "name": "G2",
          "ticks": 88896,
          "time": 81.7058415,
          "velocity": 0.3937007874015748
        },
        {
          "duration": 0.17647049999999354,
          "durationTicks": 192,
          "midi": 44,
          "name": "G#2",
          "ticks": 88896,
          "time": 81.7058415,
          "velocity": 0.3937007874015748
        },
        {
          "duration": 0.17647049999999354,
          "durationTicks": 192,
          "midi": 41,
          "name": "F2",
          "ticks": 88896,
          "time": 81.7058415,
          "velocity": 0.3937007874015748
        },
        {
          "duration": 0.17647050000000775,
          "durationTicks": 192,
          "midi": 36,
          "name": "C2",
          "ticks": 89088,
          "time": 81.882312,
          "velocity": 0.3937007874015748
        },
        {
          "duration": 0.17647050000000775,
          "durationTicks": 192,
          "midi": 35,
          "name": "B1",
          "ticks": 89088,
          "time": 81.882312,
          "velocity": 0.3937007874015748
        },
        {
          "duration": 0.17647050000000775,
          "durationTicks": 192,
          "midi": 38,
          "name": "D2",
          "ticks": 89088,
          "time": 81.882312,
          "velocity": 0.3937007874015748
        },
        {
          "duration": 0.3529410000000013,
          "durationTicks": 384,
          "midi": 36,
          "name": "C2",
          "ticks": 89472,
          "time": 82.235253,
          "velocity": 0.3937007874015748
        },
        {
          "duration": 0.3529410000000013,
          "durationTicks": 384,
          "midi": 35,
          "name": "B1",
          "ticks": 89472,
          "time": 82.235253,
          "velocity": 0.3937007874015748
        },
        {
          "duration": 0.3529410000000013,
          "durationTicks": 384,
          "midi": 38,
          "name": "D2",
          "ticks": 89472,
          "time": 82.235253,
          "velocity": 0.3937007874015748
        },
        {
          "duration": 0.5294114999999948,
          "durationTicks": 576,
          "midi": 43,
          "name": "G2",
          "ticks": 89856,
          "time": 82.588194,
          "velocity": 0.3937007874015748
        },
        {
          "duration": 0.5294114999999948,
          "durationTicks": 576,
          "midi": 44,
          "name": "G#2",
          "ticks": 89856,
          "time": 82.588194,
          "velocity": 0.3937007874015748
        },
        {
          "duration": 0.5294114999999948,
          "durationTicks": 576,
          "midi": 41,
          "name": "F2",
          "ticks": 89856,
          "time": 82.588194,
          "velocity": 0.3937007874015748
        },
        {
          "duration": 0.17647050000000775,
          "durationTicks": 192,
          "midi": 43,
          "name": "G2",
          "ticks": 90432,
          "time": 83.1176055,
          "velocity": 0.3937007874015748
        },
        {
          "duration": 0.17647050000000775,
          "durationTicks": 192,
          "midi": 44,
          "name": "G#2",
          "ticks": 90432,
          "time": 83.1176055,
          "velocity": 0.3937007874015748
        },
        {
          "duration": 0.17647050000000775,
          "durationTicks": 192,
          "midi": 41,
          "name": "F2",
          "ticks": 90432,
          "time": 83.1176055,
          "velocity": 0.3937007874015748
        },
        {
          "duration": 0.17647049999999354,
          "durationTicks": 192,
          "midi": 36,
          "name": "C2",
          "ticks": 90624,
          "time": 83.294076,
          "velocity": 0.3937007874015748
        },
        {
          "duration": 0.17647049999999354,
          "durationTicks": 192,
          "midi": 35,
          "name": "B1",
          "ticks": 90624,
          "time": 83.294076,
          "velocity": 0.3937007874015748
        },
        {
          "duration": 0.17647049999999354,
          "durationTicks": 192,
          "midi": 38,
          "name": "D2",
          "ticks": 90624,
          "time": 83.294076,
          "velocity": 0.3937007874015748
        },
        {
          "duration": 0.17647050000000775,
          "durationTicks": 192,
          "midi": 43,
          "name": "G2",
          "ticks": 90816,
          "time": 83.4705465,
          "velocity": 0.3937007874015748
        },
        {
          "duration": 0.17647050000000775,
          "durationTicks": 192,
          "midi": 44,
          "name": "G#2",
          "ticks": 90816,
          "time": 83.4705465,
          "velocity": 0.3937007874015748
        },
        {
          "duration": 0.17647050000000775,
          "durationTicks": 192,
          "midi": 41,
          "name": "F2",
          "ticks": 90816,
          "time": 83.4705465,
          "velocity": 0.3937007874015748
        },
        {
          "duration": 0.3529410000000013,
          "durationTicks": 384,
          "midi": 36,
          "name": "C2",
          "ticks": 91008,
          "time": 83.647017,
          "velocity": 0.3937007874015748
        },
        {
          "duration": 0.3529410000000013,
          "durationTicks": 384,
          "midi": 35,
          "name": "B1",
          "ticks": 91008,
          "time": 83.647017,
          "velocity": 0.3937007874015748
        },
        {
          "duration": 0.3529410000000013,
          "durationTicks": 384,
          "midi": 38,
          "name": "D2",
          "ticks": 91008,
          "time": 83.647017,
          "velocity": 0.3937007874015748
        },
        {
          "duration": 0.5294114999999948,
          "durationTicks": 576,
          "midi": 43,
          "name": "G2",
          "ticks": 91392,
          "time": 83.999958,
          "velocity": 0.3937007874015748
        },
        {
          "duration": 0.5294114999999948,
          "durationTicks": 576,
          "midi": 44,
          "name": "G#2",
          "ticks": 91392,
          "time": 83.999958,
          "velocity": 0.3937007874015748
        },
        {
          "duration": 0.5294114999999948,
          "durationTicks": 576,
          "midi": 41,
          "name": "F2",
          "ticks": 91392,
          "time": 83.999958,
          "velocity": 0.3937007874015748
        },
        {
          "duration": 0.17647049999999354,
          "durationTicks": 192,
          "midi": 43,
          "name": "G2",
          "ticks": 91968,
          "time": 84.5293695,
          "velocity": 0.3937007874015748
        },
        {
          "duration": 0.17647049999999354,
          "durationTicks": 192,
          "midi": 44,
          "name": "G#2",
          "ticks": 91968,
          "time": 84.5293695,
          "velocity": 0.3937007874015748
        },
        {
          "duration": 0.17647049999999354,
          "durationTicks": 192,
          "midi": 41,
          "name": "F2",
          "ticks": 91968,
          "time": 84.5293695,
          "velocity": 0.3937007874015748
        },
        {
          "duration": 0.17647050000000775,
          "durationTicks": 192,
          "midi": 36,
          "name": "C2",
          "ticks": 92160,
          "time": 84.70584,
          "velocity": 0.3937007874015748
        },
        {
          "duration": 0.17647050000000775,
          "durationTicks": 192,
          "midi": 35,
          "name": "B1",
          "ticks": 92160,
          "time": 84.70584,
          "velocity": 0.3937007874015748
        },
        {
          "duration": 0.17647050000000775,
          "durationTicks": 192,
          "midi": 38,
          "name": "D2",
          "ticks": 92160,
          "time": 84.70584,
          "velocity": 0.3937007874015748
        },
        {
          "duration": 0.3529410000000013,
          "durationTicks": 384,
          "midi": 36,
          "name": "C2",
          "ticks": 92544,
          "time": 85.058781,
          "velocity": 0.3937007874015748
        },
        {
          "duration": 0.3529410000000013,
          "durationTicks": 384,
          "midi": 35,
          "name": "B1",
          "ticks": 92544,
          "time": 85.058781,
          "velocity": 0.3937007874015748
        },
        {
          "duration": 0.3529410000000013,
          "durationTicks": 384,
          "midi": 38,
          "name": "D2",
          "ticks": 92544,
          "time": 85.058781,
          "velocity": 0.3937007874015748
        },
        {
          "duration": 0.529411500000009,
          "durationTicks": 576,
          "midi": 43,
          "name": "G2",
          "ticks": 92928,
          "time": 85.411722,
          "velocity": 0.3937007874015748
        },
        {
          "duration": 0.529411500000009,
          "durationTicks": 576,
          "midi": 44,
          "name": "G#2",
          "ticks": 92928,
          "time": 85.411722,
          "velocity": 0.3937007874015748
        },
        {
          "duration": 0.529411500000009,
          "durationTicks": 576,
          "midi": 41,
          "name": "F2",
          "ticks": 92928,
          "time": 85.411722,
          "velocity": 0.3937007874015748
        },
        {
          "duration": 0.17647049999999354,
          "durationTicks": 192,
          "midi": 43,
          "name": "G2",
          "ticks": 93504,
          "time": 85.9411335,
          "velocity": 0.3937007874015748
        },
        {
          "duration": 0.17647049999999354,
          "durationTicks": 192,
          "midi": 44,
          "name": "G#2",
          "ticks": 93504,
          "time": 85.9411335,
          "velocity": 0.3937007874015748
        },
        {
          "duration": 0.17647049999999354,
          "durationTicks": 192,
          "midi": 41,
          "name": "F2",
          "ticks": 93504,
          "time": 85.9411335,
          "velocity": 0.3937007874015748
        },
        {
          "duration": 0.17647050000000775,
          "durationTicks": 192,
          "midi": 36,
          "name": "C2",
          "ticks": 93696,
          "time": 86.117604,
          "velocity": 0.3937007874015748
        },
        {
          "duration": 0.17647050000000775,
          "durationTicks": 192,
          "midi": 35,
          "name": "B1",
          "ticks": 93696,
          "time": 86.117604,
          "velocity": 0.3937007874015748
        },
        {
          "duration": 0.17647050000000775,
          "durationTicks": 192,
          "midi": 38,
          "name": "D2",
          "ticks": 93696,
          "time": 86.117604,
          "velocity": 0.3937007874015748
        },
        {
          "duration": 0.17647049999999354,
          "durationTicks": 192,
          "midi": 43,
          "name": "G2",
          "ticks": 93888,
          "time": 86.29407450000001,
          "velocity": 0.3937007874015748
        },
        {
          "duration": 0.17647049999999354,
          "durationTicks": 192,
          "midi": 44,
          "name": "G#2",
          "ticks": 93888,
          "time": 86.29407450000001,
          "velocity": 0.3937007874015748
        },
        {
          "duration": 0.17647049999999354,
          "durationTicks": 192,
          "midi": 41,
          "name": "F2",
          "ticks": 93888,
          "time": 86.29407450000001,
          "velocity": 0.3937007874015748
        },
        {
          "duration": 0.3529410000000013,
          "durationTicks": 384,
          "midi": 36,
          "name": "C2",
          "ticks": 94080,
          "time": 86.470545,
          "velocity": 0.3937007874015748
        },
        {
          "duration": 0.3529410000000013,
          "durationTicks": 384,
          "midi": 35,
          "name": "B1",
          "ticks": 94080,
          "time": 86.470545,
          "velocity": 0.3937007874015748
        },
        {
          "duration": 0.3529410000000013,
          "durationTicks": 384,
          "midi": 38,
          "name": "D2",
          "ticks": 94080,
          "time": 86.470545,
          "velocity": 0.3937007874015748
        },
        {
          "duration": 0.5294114999999948,
          "durationTicks": 576,
          "midi": 43,
          "name": "G2",
          "ticks": 94464,
          "time": 86.823486,
          "velocity": 0.3937007874015748
        },
        {
          "duration": 0.5294114999999948,
          "durationTicks": 576,
          "midi": 44,
          "name": "G#2",
          "ticks": 94464,
          "time": 86.823486,
          "velocity": 0.3937007874015748
        },
        {
          "duration": 0.5294114999999948,
          "durationTicks": 576,
          "midi": 41,
          "name": "F2",
          "ticks": 94464,
          "time": 86.823486,
          "velocity": 0.3937007874015748
        },
        {
          "duration": 0.17647050000000775,
          "durationTicks": 192,
          "midi": 43,
          "name": "G2",
          "ticks": 95040,
          "time": 87.3528975,
          "velocity": 0.3937007874015748
        },
        {
          "duration": 0.17647050000000775,
          "durationTicks": 192,
          "midi": 44,
          "name": "G#2",
          "ticks": 95040,
          "time": 87.3528975,
          "velocity": 0.3937007874015748
        },
        {
          "duration": 0.17647050000000775,
          "durationTicks": 192,
          "midi": 41,
          "name": "F2",
          "ticks": 95040,
          "time": 87.3528975,
          "velocity": 0.3937007874015748
        },
        {
          "duration": 0.17647049999999354,
          "durationTicks": 192,
          "midi": 36,
          "name": "C2",
          "ticks": 95232,
          "time": 87.529368,
          "velocity": 0.3937007874015748
        },
        {
          "duration": 0.17647049999999354,
          "durationTicks": 192,
          "midi": 35,
          "name": "B1",
          "ticks": 95232,
          "time": 87.529368,
          "velocity": 0.3937007874015748
        },
        {
          "duration": 0.17647049999999354,
          "durationTicks": 192,
          "midi": 38,
          "name": "D2",
          "ticks": 95232,
          "time": 87.529368,
          "velocity": 0.3937007874015748
        },
        {
          "duration": 0.3529410000000013,
          "durationTicks": 384,
          "midi": 36,
          "name": "C2",
          "ticks": 95616,
          "time": 87.882309,
          "velocity": 0.3937007874015748
        },
        {
          "duration": 0.3529410000000013,
          "durationTicks": 384,
          "midi": 35,
          "name": "B1",
          "ticks": 95616,
          "time": 87.882309,
          "velocity": 0.3937007874015748
        },
        {
          "duration": 0.3529410000000013,
          "durationTicks": 384,
          "midi": 38,
          "name": "D2",
          "ticks": 95616,
          "time": 87.882309,
          "velocity": 0.3937007874015748
        },
        {
          "duration": 0.5294114999999948,
          "durationTicks": 576,
          "midi": 43,
          "name": "G2",
          "ticks": 96000,
          "time": 88.23525000000001,
          "velocity": 0.3937007874015748
        },
        {
          "duration": 0.5294114999999948,
          "durationTicks": 576,
          "midi": 44,
          "name": "G#2",
          "ticks": 96000,
          "time": 88.23525000000001,
          "velocity": 0.3937007874015748
        },
        {
          "duration": 0.5294114999999948,
          "durationTicks": 576,
          "midi": 41,
          "name": "F2",
          "ticks": 96000,
          "time": 88.23525000000001,
          "velocity": 0.3937007874015748
        },
        {
          "duration": 0.17647049999999354,
          "durationTicks": 192,
          "midi": 43,
          "name": "G2",
          "ticks": 96576,
          "time": 88.7646615,
          "velocity": 0.3937007874015748
        },
        {
          "duration": 0.17647049999999354,
          "durationTicks": 192,
          "midi": 44,
          "name": "G#2",
          "ticks": 96576,
          "time": 88.7646615,
          "velocity": 0.3937007874015748
        },
        {
          "duration": 0.17647049999999354,
          "durationTicks": 192,
          "midi": 41,
          "name": "F2",
          "ticks": 96576,
          "time": 88.7646615,
          "velocity": 0.3937007874015748
        },
        {
          "duration": 0.17647050000000775,
          "durationTicks": 192,
          "midi": 36,
          "name": "C2",
          "ticks": 96768,
          "time": 88.941132,
          "velocity": 0.3937007874015748
        },
        {
          "duration": 0.17647050000000775,
          "durationTicks": 192,
          "midi": 35,
          "name": "B1",
          "ticks": 96768,
          "time": 88.941132,
          "velocity": 0.3937007874015748
        },
        {
          "duration": 0.17647050000000775,
          "durationTicks": 192,
          "midi": 38,
          "name": "D2",
          "ticks": 96768,
          "time": 88.941132,
          "velocity": 0.3937007874015748
        },
        {
          "duration": 0.17647049999999354,
          "durationTicks": 192,
          "midi": 43,
          "name": "G2",
          "ticks": 96960,
          "time": 89.1176025,
          "velocity": 0.3937007874015748
        },
        {
          "duration": 0.17647049999999354,
          "durationTicks": 192,
          "midi": 44,
          "name": "G#2",
          "ticks": 96960,
          "time": 89.1176025,
          "velocity": 0.3937007874015748
        },
        {
          "duration": 0.17647049999999354,
          "durationTicks": 192,
          "midi": 41,
          "name": "F2",
          "ticks": 96960,
          "time": 89.1176025,
          "velocity": 0.3937007874015748
        },
        {
          "duration": 0.3529410000000013,
          "durationTicks": 384,
          "midi": 36,
          "name": "C2",
          "ticks": 97152,
          "time": 89.294073,
          "velocity": 0.3937007874015748
        },
        {
          "duration": 0.3529410000000013,
          "durationTicks": 384,
          "midi": 35,
          "name": "B1",
          "ticks": 97152,
          "time": 89.294073,
          "velocity": 0.3937007874015748
        },
        {
          "duration": 0.3529410000000013,
          "durationTicks": 384,
          "midi": 38,
          "name": "D2",
          "ticks": 97152,
          "time": 89.294073,
          "velocity": 0.3937007874015748
        },
        {
          "duration": 0.529411500000009,
          "durationTicks": 576,
          "midi": 43,
          "name": "G2",
          "ticks": 97536,
          "time": 89.647014,
          "velocity": 0.3937007874015748
        },
        {
          "duration": 0.529411500000009,
          "durationTicks": 576,
          "midi": 44,
          "name": "G#2",
          "ticks": 97536,
          "time": 89.647014,
          "velocity": 0.3937007874015748
        },
        {
          "duration": 0.529411500000009,
          "durationTicks": 576,
          "midi": 41,
          "name": "F2",
          "ticks": 97536,
          "time": 89.647014,
          "velocity": 0.3937007874015748
        },
        {
          "duration": 0.17647049999999354,
          "durationTicks": 192,
          "midi": 43,
          "name": "G2",
          "ticks": 98112,
          "time": 90.17642550000001,
          "velocity": 0.3937007874015748
        },
        {
          "duration": 0.17647049999999354,
          "durationTicks": 192,
          "midi": 44,
          "name": "G#2",
          "ticks": 98112,
          "time": 90.17642550000001,
          "velocity": 0.3937007874015748
        },
        {
          "duration": 0.17647049999999354,
          "durationTicks": 192,
          "midi": 41,
          "name": "F2",
          "ticks": 98112,
          "time": 90.17642550000001,
          "velocity": 0.3937007874015748
        },
        {
          "duration": 0.17647049999999354,
          "durationTicks": 192,
          "midi": 36,
          "name": "C2",
          "ticks": 98304,
          "time": 90.352896,
          "velocity": 0.3937007874015748
        },
        {
          "duration": 0.17647049999999354,
          "durationTicks": 192,
          "midi": 35,
          "name": "B1",
          "ticks": 98304,
          "time": 90.352896,
          "velocity": 0.3937007874015748
        },
        {
          "duration": 0.17647049999999354,
          "durationTicks": 192,
          "midi": 38,
          "name": "D2",
          "ticks": 98304,
          "time": 90.352896,
          "velocity": 0.3937007874015748
        },
        {
          "duration": 0.3529410000000013,
          "durationTicks": 384,
          "midi": 36,
          "name": "C2",
          "ticks": 98688,
          "time": 90.705837,
          "velocity": 0.3937007874015748
        },
        {
          "duration": 0.3529410000000013,
          "durationTicks": 384,
          "midi": 35,
          "name": "B1",
          "ticks": 98688,
          "time": 90.705837,
          "velocity": 0.3937007874015748
        },
        {
          "duration": 0.3529410000000013,
          "durationTicks": 384,
          "midi": 38,
          "name": "D2",
          "ticks": 98688,
          "time": 90.705837,
          "velocity": 0.3937007874015748
        },
        {
          "duration": 0.5294114999999948,
          "durationTicks": 576,
          "midi": 43,
          "name": "G2",
          "ticks": 99072,
          "time": 91.058778,
          "velocity": 0.3937007874015748
        },
        {
          "duration": 0.5294114999999948,
          "durationTicks": 576,
          "midi": 44,
          "name": "G#2",
          "ticks": 99072,
          "time": 91.058778,
          "velocity": 0.3937007874015748
        },
        {
          "duration": 0.5294114999999948,
          "durationTicks": 576,
          "midi": 41,
          "name": "F2",
          "ticks": 99072,
          "time": 91.058778,
          "velocity": 0.3937007874015748
        },
        {
          "duration": 0.17647050000000775,
          "durationTicks": 192,
          "midi": 43,
          "name": "G2",
          "ticks": 99648,
          "time": 91.5881895,
          "velocity": 0.3937007874015748
        },
        {
          "duration": 0.17647050000000775,
          "durationTicks": 192,
          "midi": 44,
          "name": "G#2",
          "ticks": 99648,
          "time": 91.5881895,
          "velocity": 0.3937007874015748
        },
        {
          "duration": 0.17647050000000775,
          "durationTicks": 192,
          "midi": 41,
          "name": "F2",
          "ticks": 99648,
          "time": 91.5881895,
          "velocity": 0.3937007874015748
        },
        {
          "duration": 0.17647049999999354,
          "durationTicks": 192,
          "midi": 36,
          "name": "C2",
          "ticks": 99840,
          "time": 91.76466,
          "velocity": 0.3937007874015748
        },
        {
          "duration": 0.17647049999999354,
          "durationTicks": 192,
          "midi": 35,
          "name": "B1",
          "ticks": 99840,
          "time": 91.76466,
          "velocity": 0.3937007874015748
        },
        {
          "duration": 0.17647049999999354,
          "durationTicks": 192,
          "midi": 38,
          "name": "D2",
          "ticks": 99840,
          "time": 91.76466,
          "velocity": 0.3937007874015748
        },
        {
          "duration": 0.17647050000000775,
          "durationTicks": 192,
          "midi": 43,
          "name": "G2",
          "ticks": 100032,
          "time": 91.9411305,
          "velocity": 0.3937007874015748
        },
        {
          "duration": 0.17647050000000775,
          "durationTicks": 192,
          "midi": 44,
          "name": "G#2",
          "ticks": 100032,
          "time": 91.9411305,
          "velocity": 0.3937007874015748
        },
        {
          "duration": 0.17647050000000775,
          "durationTicks": 192,
          "midi": 41,
          "name": "F2",
          "ticks": 100032,
          "time": 91.9411305,
          "velocity": 0.3937007874015748
        },
        {
          "duration": 0.35294099999998707,
          "durationTicks": 384,
          "midi": 36,
          "name": "C2",
          "ticks": 100224,
          "time": 92.11760100000001,
          "velocity": 0.3937007874015748
        },
        {
          "duration": 0.35294099999998707,
          "durationTicks": 384,
          "midi": 35,
          "name": "B1",
          "ticks": 100224,
          "time": 92.11760100000001,
          "velocity": 0.3937007874015748
        },
        {
          "duration": 0.35294099999998707,
          "durationTicks": 384,
          "midi": 38,
          "name": "D2",
          "ticks": 100224,
          "time": 92.11760100000001,
          "velocity": 0.3937007874015748
        },
        {
          "duration": 0.529411500000009,
          "durationTicks": 576,
          "midi": 43,
          "name": "G2",
          "ticks": 100608,
          "time": 92.470542,
          "velocity": 0.3937007874015748
        },
        {
          "duration": 0.529411500000009,
          "durationTicks": 576,
          "midi": 44,
          "name": "G#2",
          "ticks": 100608,
          "time": 92.470542,
          "velocity": 0.3937007874015748
        },
        {
          "duration": 0.529411500000009,
          "durationTicks": 576,
          "midi": 41,
          "name": "F2",
          "ticks": 100608,
          "time": 92.470542,
          "velocity": 0.3937007874015748
        },
        {
          "duration": 0.17647049999999354,
          "durationTicks": 192,
          "midi": 43,
          "name": "G2",
          "ticks": 101184,
          "time": 92.9999535,
          "velocity": 0.3937007874015748
        },
        {
          "duration": 0.17647049999999354,
          "durationTicks": 192,
          "midi": 44,
          "name": "G#2",
          "ticks": 101184,
          "time": 92.9999535,
          "velocity": 0.3937007874015748
        },
        {
          "duration": 0.17647049999999354,
          "durationTicks": 192,
          "midi": 41,
          "name": "F2",
          "ticks": 101184,
          "time": 92.9999535,
          "velocity": 0.3937007874015748
        },
        {
          "duration": 0.17647050000000775,
          "durationTicks": 192,
          "midi": 36,
          "name": "C2",
          "ticks": 101376,
          "time": 93.176424,
          "velocity": 0.3937007874015748
        },
        {
          "duration": 0.17647050000000775,
          "durationTicks": 192,
          "midi": 35,
          "name": "B1",
          "ticks": 101376,
          "time": 93.176424,
          "velocity": 0.3937007874015748
        },
        {
          "duration": 0.17647050000000775,
          "durationTicks": 192,
          "midi": 38,
          "name": "D2",
          "ticks": 101376,
          "time": 93.176424,
          "velocity": 0.3937007874015748
        },
        {
          "duration": 0.3529410000000013,
          "durationTicks": 384,
          "midi": 36,
          "name": "C2",
          "ticks": 101760,
          "time": 93.529365,
          "velocity": 0.3937007874015748
        },
        {
          "duration": 0.3529410000000013,
          "durationTicks": 384,
          "midi": 35,
          "name": "B1",
          "ticks": 101760,
          "time": 93.529365,
          "velocity": 0.3937007874015748
        },
        {
          "duration": 0.3529410000000013,
          "durationTicks": 384,
          "midi": 38,
          "name": "D2",
          "ticks": 101760,
          "time": 93.529365,
          "velocity": 0.3937007874015748
        },
        {
          "duration": 0.5294114999999948,
          "durationTicks": 576,
          "midi": 43,
          "name": "G2",
          "ticks": 102144,
          "time": 93.882306,
          "velocity": 0.3937007874015748
        },
        {
          "duration": 0.5294114999999948,
          "durationTicks": 576,
          "midi": 44,
          "name": "G#2",
          "ticks": 102144,
          "time": 93.882306,
          "velocity": 0.3937007874015748
        },
        {
          "duration": 0.5294114999999948,
          "durationTicks": 576,
          "midi": 41,
          "name": "F2",
          "ticks": 102144,
          "time": 93.882306,
          "velocity": 0.3937007874015748
        },
        {
          "duration": 0.17647050000000775,
          "durationTicks": 192,
          "midi": 43,
          "name": "G2",
          "ticks": 102720,
          "time": 94.4117175,
          "velocity": 0.3937007874015748
        },
        {
          "duration": 0.17647050000000775,
          "durationTicks": 192,
          "midi": 44,
          "name": "G#2",
          "ticks": 102720,
          "time": 94.4117175,
          "velocity": 0.3937007874015748
        },
        {
          "duration": 0.17647050000000775,
          "durationTicks": 192,
          "midi": 41,
          "name": "F2",
          "ticks": 102720,
          "time": 94.4117175,
          "velocity": 0.3937007874015748
        },
        {
          "duration": 0.17647049999999354,
          "durationTicks": 192,
          "midi": 36,
          "name": "C2",
          "ticks": 102912,
          "time": 94.588188,
          "velocity": 0.3937007874015748
        },
        {
          "duration": 0.17647049999999354,
          "durationTicks": 192,
          "midi": 35,
          "name": "B1",
          "ticks": 102912,
          "time": 94.588188,
          "velocity": 0.3937007874015748
        },
        {
          "duration": 0.17647049999999354,
          "durationTicks": 192,
          "midi": 38,
          "name": "D2",
          "ticks": 102912,
          "time": 94.588188,
          "velocity": 0.3937007874015748
        },
        {
          "duration": 0.17647050000000775,
          "durationTicks": 192,
          "midi": 43,
          "name": "G2",
          "ticks": 103104,
          "time": 94.7646585,
          "velocity": 0.3937007874015748
        },
        {
          "duration": 0.17647050000000775,
          "durationTicks": 192,
          "midi": 44,
          "name": "G#2",
          "ticks": 103104,
          "time": 94.7646585,
          "velocity": 0.3937007874015748
        },
        {
          "duration": 0.17647050000000775,
          "durationTicks": 192,
          "midi": 41,
          "name": "F2",
          "ticks": 103104,
          "time": 94.7646585,
          "velocity": 0.3937007874015748
        },
        {
          "duration": 0.3529410000000013,
          "durationTicks": 384,
          "midi": 36,
          "name": "C2",
          "ticks": 103296,
          "time": 94.941129,
          "velocity": 0.3937007874015748
        },
        {
          "duration": 0.3529410000000013,
          "durationTicks": 384,
          "midi": 35,
          "name": "B1",
          "ticks": 103296,
          "time": 94.941129,
          "velocity": 0.3937007874015748
        },
        {
          "duration": 0.3529410000000013,
          "durationTicks": 384,
          "midi": 38,
          "name": "D2",
          "ticks": 103296,
          "time": 94.941129,
          "velocity": 0.3937007874015748
        },
        {
          "duration": 0.5294114999999948,
          "durationTicks": 576,
          "midi": 43,
          "name": "G2",
          "ticks": 103680,
          "time": 95.29407,
          "velocity": 0.3937007874015748
        },
        {
          "duration": 0.5294114999999948,
          "durationTicks": 576,
          "midi": 44,
          "name": "G#2",
          "ticks": 103680,
          "time": 95.29407,
          "velocity": 0.3937007874015748
        },
        {
          "duration": 0.5294114999999948,
          "durationTicks": 576,
          "midi": 41,
          "name": "F2",
          "ticks": 103680,
          "time": 95.29407,
          "velocity": 0.3937007874015748
        },
        {
          "duration": 0.17647050000000775,
          "durationTicks": 192,
          "midi": 43,
          "name": "G2",
          "ticks": 104256,
          "time": 95.8234815,
          "velocity": 0.3937007874015748
        },
        {
          "duration": 0.17647050000000775,
          "durationTicks": 192,
          "midi": 44,
          "name": "G#2",
          "ticks": 104256,
          "time": 95.8234815,
          "velocity": 0.3937007874015748
        },
        {
          "duration": 0.17647050000000775,
          "durationTicks": 192,
          "midi": 41,
          "name": "F2",
          "ticks": 104256,
          "time": 95.8234815,
          "velocity": 0.3937007874015748
        },
        {
          "duration": 0.17647049999999354,
          "durationTicks": 192,
          "midi": 36,
          "name": "C2",
          "ticks": 104448,
          "time": 95.99995200000001,
          "velocity": 0.3937007874015748
        },
        {
          "duration": 0.17647049999999354,
          "durationTicks": 192,
          "midi": 35,
          "name": "B1",
          "ticks": 104448,
          "time": 95.99995200000001,
          "velocity": 0.3937007874015748
        },
        {
          "duration": 0.17647049999999354,
          "durationTicks": 192,
          "midi": 38,
          "name": "D2",
          "ticks": 104448,
          "time": 95.99995200000001,
          "velocity": 0.3937007874015748
        },
        {
          "duration": 0.3529410000000013,
          "durationTicks": 384,
          "midi": 36,
          "name": "C2",
          "ticks": 104832,
          "time": 96.352893,
          "velocity": 0.3937007874015748
        },
        {
          "duration": 0.3529410000000013,
          "durationTicks": 384,
          "midi": 35,
          "name": "B1",
          "ticks": 104832,
          "time": 96.352893,
          "velocity": 0.3937007874015748
        },
        {
          "duration": 0.3529410000000013,
          "durationTicks": 384,
          "midi": 38,
          "name": "D2",
          "ticks": 104832,
          "time": 96.352893,
          "velocity": 0.3937007874015748
        },
        {
          "duration": 0.529411500000009,
          "durationTicks": 576,
          "midi": 43,
          "name": "G2",
          "ticks": 105216,
          "time": 96.705834,
          "velocity": 0.3937007874015748
        },
        {
          "duration": 0.529411500000009,
          "durationTicks": 576,
          "midi": 44,
          "name": "G#2",
          "ticks": 105216,
          "time": 96.705834,
          "velocity": 0.3937007874015748
        },
        {
          "duration": 0.529411500000009,
          "durationTicks": 576,
          "midi": 41,
          "name": "F2",
          "ticks": 105216,
          "time": 96.705834,
          "velocity": 0.3937007874015748
        },
        {
          "duration": 0.17647049999999354,
          "durationTicks": 192,
          "midi": 43,
          "name": "G2",
          "ticks": 105792,
          "time": 97.2352455,
          "velocity": 0.3937007874015748
        },
        {
          "duration": 0.17647049999999354,
          "durationTicks": 192,
          "midi": 44,
          "name": "G#2",
          "ticks": 105792,
          "time": 97.2352455,
          "velocity": 0.3937007874015748
        },
        {
          "duration": 0.17647049999999354,
          "durationTicks": 192,
          "midi": 41,
          "name": "F2",
          "ticks": 105792,
          "time": 97.2352455,
          "velocity": 0.3937007874015748
        },
        {
          "duration": 0.17647050000000775,
          "durationTicks": 192,
          "midi": 36,
          "name": "C2",
          "ticks": 105984,
          "time": 97.411716,
          "velocity": 0.3937007874015748
        },
        {
          "duration": 0.17647050000000775,
          "durationTicks": 192,
          "midi": 35,
          "name": "B1",
          "ticks": 105984,
          "time": 97.411716,
          "velocity": 0.3937007874015748
        },
        {
          "duration": 0.17647050000000775,
          "durationTicks": 192,
          "midi": 38,
          "name": "D2",
          "ticks": 105984,
          "time": 97.411716,
          "velocity": 0.3937007874015748
        },
        {
          "duration": 0.17647049999999354,
          "durationTicks": 192,
          "midi": 43,
          "name": "G2",
          "ticks": 106176,
          "time": 97.5881865,
          "velocity": 0.3937007874015748
        },
        {
          "duration": 0.17647049999999354,
          "durationTicks": 192,
          "midi": 44,
          "name": "G#2",
          "ticks": 106176,
          "time": 97.5881865,
          "velocity": 0.3937007874015748
        },
        {
          "duration": 0.17647049999999354,
          "durationTicks": 192,
          "midi": 41,
          "name": "F2",
          "ticks": 106176,
          "time": 97.5881865,
          "velocity": 0.3937007874015748
        },
        {
          "duration": 0.3529410000000013,
          "durationTicks": 384,
          "midi": 36,
          "name": "C2",
          "ticks": 106368,
          "time": 97.764657,
          "velocity": 0.3937007874015748
        },
        {
          "duration": 0.3529410000000013,
          "durationTicks": 384,
          "midi": 35,
          "name": "B1",
          "ticks": 106368,
          "time": 97.764657,
          "velocity": 0.3937007874015748
        },
        {
          "duration": 0.3529410000000013,
          "durationTicks": 384,
          "midi": 38,
          "name": "D2",
          "ticks": 106368,
          "time": 97.764657,
          "velocity": 0.3937007874015748
        },
        {
          "duration": 0.5294114999999948,
          "durationTicks": 576,
          "midi": 43,
          "name": "G2",
          "ticks": 106752,
          "time": 98.117598,
          "velocity": 0.3937007874015748
        },
        {
          "duration": 0.5294114999999948,
          "durationTicks": 576,
          "midi": 44,
          "name": "G#2",
          "ticks": 106752,
          "time": 98.117598,
          "velocity": 0.3937007874015748
        },
        {
          "duration": 0.5294114999999948,
          "durationTicks": 576,
          "midi": 41,
          "name": "F2",
          "ticks": 106752,
          "time": 98.117598,
          "velocity": 0.3937007874015748
        },
        {
          "duration": 0.17647050000000775,
          "durationTicks": 192,
          "midi": 43,
          "name": "G2",
          "ticks": 107328,
          "time": 98.6470095,
          "velocity": 0.3937007874015748
        },
        {
          "duration": 0.17647050000000775,
          "durationTicks": 192,
          "midi": 44,
          "name": "G#2",
          "ticks": 107328,
          "time": 98.6470095,
          "velocity": 0.3937007874015748
        },
        {
          "duration": 0.17647050000000775,
          "durationTicks": 192,
          "midi": 41,
          "name": "F2",
          "ticks": 107328,
          "time": 98.6470095,
          "velocity": 0.3937007874015748
        },
        {
          "duration": 0.17647049999999354,
          "durationTicks": 192,
          "midi": 36,
          "name": "C2",
          "ticks": 107520,
          "time": 98.82348,
          "velocity": 0.3937007874015748
        },
        {
          "duration": 0.17647049999999354,
          "durationTicks": 192,
          "midi": 35,
          "name": "B1",
          "ticks": 107520,
          "time": 98.82348,
          "velocity": 0.3937007874015748
        },
        {
          "duration": 0.17647049999999354,
          "durationTicks": 192,
          "midi": 38,
          "name": "D2",
          "ticks": 107520,
          "time": 98.82348,
          "velocity": 0.3937007874015748
        },
        {
          "duration": 0.3529410000000013,
          "durationTicks": 384,
          "midi": 36,
          "name": "C2",
          "ticks": 107904,
          "time": 99.176421,
          "velocity": 0.3937007874015748
        },
        {
          "duration": 0.3529410000000013,
          "durationTicks": 384,
          "midi": 35,
          "name": "B1",
          "ticks": 107904,
          "time": 99.176421,
          "velocity": 0.3937007874015748
        },
        {
          "duration": 0.3529410000000013,
          "durationTicks": 384,
          "midi": 38,
          "name": "D2",
          "ticks": 107904,
          "time": 99.176421,
          "velocity": 0.3937007874015748
        },
        {
          "duration": 0.5294114999999948,
          "durationTicks": 576,
          "midi": 43,
          "name": "G2",
          "ticks": 108288,
          "time": 99.529362,
          "velocity": 0.3937007874015748
        },
        {
          "duration": 0.5294114999999948,
          "durationTicks": 576,
          "midi": 44,
          "name": "G#2",
          "ticks": 108288,
          "time": 99.529362,
          "velocity": 0.3937007874015748
        },
        {
          "duration": 0.5294114999999948,
          "durationTicks": 576,
          "midi": 41,
          "name": "F2",
          "ticks": 108288,
          "time": 99.529362,
          "velocity": 0.3937007874015748
        },
        {
          "duration": 0.17647049999999354,
          "durationTicks": 192,
          "midi": 43,
          "name": "G2",
          "ticks": 108864,
          "time": 100.0587735,
          "velocity": 0.3937007874015748
        },
        {
          "duration": 0.17647049999999354,
          "durationTicks": 192,
          "midi": 44,
          "name": "G#2",
          "ticks": 108864,
          "time": 100.0587735,
          "velocity": 0.3937007874015748
        },
        {
          "duration": 0.17647049999999354,
          "durationTicks": 192,
          "midi": 41,
          "name": "F2",
          "ticks": 108864,
          "time": 100.0587735,
          "velocity": 0.3937007874015748
        },
        {
          "duration": 0.17647050000000775,
          "durationTicks": 192,
          "midi": 36,
          "name": "C2",
          "ticks": 109056,
          "time": 100.235244,
          "velocity": 0.3937007874015748
        },
        {
          "duration": 0.17647050000000775,
          "durationTicks": 192,
          "midi": 35,
          "name": "B1",
          "ticks": 109056,
          "time": 100.235244,
          "velocity": 0.3937007874015748
        },
        {
          "duration": 0.17647050000000775,
          "durationTicks": 192,
          "midi": 38,
          "name": "D2",
          "ticks": 109056,
          "time": 100.235244,
          "velocity": 0.3937007874015748
        },
        {
          "duration": 0.17647049999999354,
          "durationTicks": 192,
          "midi": 43,
          "name": "G2",
          "ticks": 109248,
          "time": 100.4117145,
          "velocity": 0.3937007874015748
        },
        {
          "duration": 0.17647049999999354,
          "durationTicks": 192,
          "midi": 44,
          "name": "G#2",
          "ticks": 109248,
          "time": 100.4117145,
          "velocity": 0.3937007874015748
        },
        {
          "duration": 0.17647049999999354,
          "durationTicks": 192,
          "midi": 41,
          "name": "F2",
          "ticks": 109248,
          "time": 100.4117145,
          "velocity": 0.3937007874015748
        },
        {
          "duration": 0.3529410000000013,
          "durationTicks": 384,
          "midi": 36,
          "name": "C2",
          "ticks": 109440,
          "time": 100.588185,
          "velocity": 0.3937007874015748
        },
        {
          "duration": 0.3529410000000013,
          "durationTicks": 384,
          "midi": 35,
          "name": "B1",
          "ticks": 109440,
          "time": 100.588185,
          "velocity": 0.3937007874015748
        },
        {
          "duration": 0.3529410000000013,
          "durationTicks": 384,
          "midi": 38,
          "name": "D2",
          "ticks": 109440,
          "time": 100.588185,
          "velocity": 0.3937007874015748
        },
        {
          "duration": 0.529411500000009,
          "durationTicks": 576,
          "midi": 43,
          "name": "G2",
          "ticks": 109824,
          "time": 100.941126,
          "velocity": 0.3937007874015748
        },
        {
          "duration": 0.529411500000009,
          "durationTicks": 576,
          "midi": 44,
          "name": "G#2",
          "ticks": 109824,
          "time": 100.941126,
          "velocity": 0.3937007874015748
        },
        {
          "duration": 0.529411500000009,
          "durationTicks": 576,
          "midi": 41,
          "name": "F2",
          "ticks": 109824,
          "time": 100.941126,
          "velocity": 0.3937007874015748
        },
        {
          "duration": 0.17647049999999354,
          "durationTicks": 192,
          "midi": 43,
          "name": "G2",
          "ticks": 110400,
          "time": 101.4705375,
          "velocity": 0.3937007874015748
        },
        {
          "duration": 0.17647049999999354,
          "durationTicks": 192,
          "midi": 44,
          "name": "G#2",
          "ticks": 110400,
          "time": 101.4705375,
          "velocity": 0.3937007874015748
        },
        {
          "duration": 0.17647049999999354,
          "durationTicks": 192,
          "midi": 41,
          "name": "F2",
          "ticks": 110400,
          "time": 101.4705375,
          "velocity": 0.3937007874015748
        }
      ],
      "endOfTrackTicks": 110592
    }
  ]
}