{
  "header": {
    "keySignatures": [
      {
        "key": "C",
        "scale": "major",
        "ticks": 0
      }
    ],
    "meta": [
      {
        "text": "Popcorn by Hot Butter",
        "ticks": 0,
        "type": "marker"
      }
    ],
    "name": "untitled",
    "ppq": 120,
    "tempos": [
      {
        "bpm": 132.000132000132,
        "ticks": 0
      }
    ],
    "timeSignatures": [
      {
        "ticks": 0,
        "timeSignature": [
          4,
          4
        ],
        "measures": 0
      }
    ]
  },
  "tracks": [
    {
      "channel": 0,
      "controlChanges": {
        "7": [
          {
            "number": 7,
            "ticks": 0,
            "time": 0,
            "value": 0.8188976377952756
          }
        ],
        "10": [
          {
            "number": 10,
            "ticks": 0,
            "time": 0,
            "value": 0.5039370078740157
          }
        ],
        "91": [
          {
            "number": 91,
            "ticks": 166,
            "time": 0.62878725,
            "value": 0
          }
        ]
      },
      "pitchBends": [],
      "instrument": {
        "family": "bass",
        "number": 35,
        "name": "fretless bass"
      },
      "name": "Bass 1",
      "notes": [
        {
          "duration": 0.12121199999999943,
          "durationTicks": 32,
          "midi": 35,
          "name": "B1",
          "ticks": 962,
          "time": 3.6439357500000007,
          "velocity": 0.8188976377952756
        },
        {
          "duration": 0.10984837500000033,
          "durationTicks": 29,
          "midi": 47,
          "name": "B2",
          "ticks": 1023,
          "time": 3.8749961250000005,
          "velocity": 0.8188976377952756
        },
        {
          "duration": 0.109848374999999,
          "durationTicks": 29,
          "midi": 42,
          "name": "F#2",
          "ticks": 1052,
          "time": 3.984844500000001,
          "velocity": 0.8188976377952756
        },
        {
          "duration": 0.12121200000000076,
          "durationTicks": 32,
          "midi": 30,
          "name": "F#1",
          "ticks": 1081,
          "time": 4.094692875,
          "velocity": 0.8188976377952756
        },
        {
          "duration": 0.11742412499999944,
          "durationTicks": 31,
          "midi": 47,
          "name": "B2",
          "ticks": 1142,
          "time": 4.325753250000001,
          "velocity": 0.8188976377952756
        },
        {
          "duration": 0.10984837500000033,
          "durationTicks": 29,
          "midi": 42,
          "name": "F#2",
          "ticks": 1173,
          "time": 4.443177375,
          "velocity": 0.8188976377952756
        },
        {
          "duration": 0.12121199999999988,
          "durationTicks": 32,
          "midi": 35,
          "name": "B1",
          "ticks": 1202,
          "time": 4.553025750000001,
          "velocity": 0.8188976377952756
        },
        {
          "duration": 0.10984837499999944,
          "durationTicks": 29,
          "midi": 47,
          "name": "B2",
          "ticks": 1263,
          "time": 4.784086125000001,
          "velocity": 0.8188976377952756
        },
        {
          "duration": 0.12121199999999988,
          "durationTicks": 32,
          "midi": 42,
          "name": "F#2",
          "ticks": 1292,
          "time": 4.8939345,
          "velocity": 0.8188976377952756
        },
        {
          "duration": 0.10984837500000033,
          "durationTicks": 29,
          "midi": 30,
          "name": "F#1",
          "ticks": 1324,
          "time": 5.0151465,
          "velocity": 0.8188976377952756
        },
        {
          "duration": 0.10984837500000033,
          "durationTicks": 29,
          "midi": 38,
          "name": "D2",
          "ticks": 1353,
          "time": 5.1249948750000005,
          "velocity": 0.8188976377952756
        },
        {
          "duration": 0.10984837499999944,
          "durationTicks": 29,
          "midi": 42,
          "name": "F#2",
          "ticks": 1382,
          "time": 5.234843250000001,
          "velocity": 0.8188976377952756
        },
        {
          "duration": 0.12121199999999988,
          "durationTicks": 32,
          "midi": 47,
          "name": "B2",
          "ticks": 1411,
          "time": 5.344691625,
          "velocity": 0.8188976377952756
        },
        {
          "duration": 0.10984837500000033,
          "durationTicks": 29,
          "midi": 35,
          "name": "B1",
          "ticks": 1443,
          "time": 5.465903625,
          "velocity": 0.8188976377952756
        },
        {
          "duration": 0.10984837500000033,
          "durationTicks": 29,
          "midi": 47,
          "name": "B2",
          "ticks": 1503,
          "time": 5.693176125000001,
          "velocity": 0.8188976377952756
        },
        {
          "duration": 0.12121199999999899,
          "durationTicks": 32,
          "midi": 42,
          "name": "F#2",
          "ticks": 1532,
          "time": 5.803024500000001,
          "velocity": 0.8188976377952756
        },
        {
          "duration": 0.10984837500000033,
          "durationTicks": 29,
          "midi": 30,
          "name": "F#1",
          "ticks": 1564,
          "time": 5.9242365,
          "velocity": 0.8188976377952756
        },
        {
          "duration": 0.12121199999999988,
          "durationTicks": 32,
          "midi": 47,
          "name": "B2",
          "ticks": 1622,
          "time": 6.143933250000001,
          "velocity": 0.8188976377952756
        },
        {
          "duration": 0.10984837500000033,
          "durationTicks": 29,
          "midi": 42,
          "name": "F#2",
          "ticks": 1654,
          "time": 6.265145250000001,
          "velocity": 0.8188976377952756
        },
        {
          "duration": 0.10984837499999944,
          "durationTicks": 29,
          "midi": 35,
          "name": "B1",
          "ticks": 1683,
          "time": 6.374993625000001,
          "velocity": 0.8188976377952756
        },
        {
          "duration": 0.10984837500000033,
          "durationTicks": 29,
          "midi": 47,
          "name": "B2",
          "ticks": 1744,
          "time": 6.606054,
          "velocity": 0.8188976377952756
        },
        {
          "duration": 0.10984837500000033,
          "durationTicks": 29,
          "midi": 42,
          "name": "F#2",
          "ticks": 1773,
          "time": 6.715902375000001,
          "velocity": 0.8188976377952756
        },
        {
          "duration": 0.10984837500000033,
          "durationTicks": 29,
          "midi": 30,
          "name": "F#1",
          "ticks": 1804,
          "time": 6.8333265,
          "velocity": 0.8188976377952756
        },
        {
          "duration": 0.10984837500000033,
          "durationTicks": 29,
          "midi": 38,
          "name": "D2",
          "ticks": 1833,
          "time": 6.943174875,
          "velocity": 0.8188976377952756
        },
        {
          "duration": 0.12121199999999988,
          "durationTicks": 32,
          "midi": 42,
          "name": "F#2",
          "ticks": 1862,
          "time": 7.053023250000001,
          "velocity": 0.8188976377952756
        },
        {
          "duration": 0.0984847499999999,
          "durationTicks": 26,
          "midi": 47,
          "name": "B2",
          "ticks": 1894,
          "time": 7.174235250000001,
          "velocity": 0.8188976377952756
        },
        {
          "duration": 0.12121199999999988,
          "durationTicks": 32,
          "midi": 35,
          "name": "B1",
          "ticks": 1920,
          "time": 7.2727200000000005,
          "velocity": 0.8188976377952756
        },
        {
          "duration": 0.10984837499999855,
          "durationTicks": 29,
          "midi": 47,
          "name": "B2",
          "ticks": 1984,
          "time": 7.515144000000001,
          "velocity": 0.8188976377952756
        },
        {
          "duration": 0.10984837500000033,
          "durationTicks": 29,
          "midi": 42,
          "name": "F#2",
          "ticks": 2013,
          "time": 7.624992375,
          "velocity": 0.8188976377952756
        },
        {
          "duration": 0.12121200000000165,
          "durationTicks": 32,
          "midi": 30,
          "name": "F#1",
          "ticks": 2042,
          "time": 7.73484075,
          "velocity": 0.8188976377952756
        },
        {
          "duration": 0.10984837500000033,
          "durationTicks": 29,
          "midi": 47,
          "name": "B2",
          "ticks": 2103,
          "time": 7.965901125,
          "velocity": 0.8188976377952756
        },
        {
          "duration": 0.10227262499999945,
          "durationTicks": 27,
          "midi": 42,
          "name": "F#2",
          "ticks": 2134,
          "time": 8.083325250000001,
          "velocity": 0.8188976377952756
        },
        {
          "duration": 0.11742412499999944,
          "durationTicks": 31,
          "midi": 35,
          "name": "B1",
          "ticks": 2161,
          "time": 8.185597875000001,
          "velocity": 0.8188976377952756
        },
        {
          "duration": 0.10984837499999855,
          "durationTicks": 29,
          "midi": 47,
          "name": "B2",
          "ticks": 2224,
          "time": 8.424234000000002,
          "velocity": 0.8188976377952756
        },
        {
          "duration": 0.10227262499999945,
          "durationTicks": 27,
          "midi": 42,
          "name": "F#2",
          "ticks": 2253,
          "time": 8.534082375,
          "velocity": 0.8188976377952756
        },
        {
          "duration": 0.12121199999999988,
          "durationTicks": 32,
          "midi": 30,
          "name": "F#1",
          "ticks": 2282,
          "time": 8.64393075,
          "velocity": 0.8188976377952756
        },
        {
          "duration": 0.10984837499999855,
          "durationTicks": 29,
          "midi": 38,
          "name": "D2",
          "ticks": 2314,
          "time": 8.76514275,
          "velocity": 0.8188976377952756
        },
        {
          "duration": 0.10984837500000033,
          "durationTicks": 29,
          "midi": 42,
          "name": "F#2",
          "ticks": 2343,
          "time": 8.874991125,
          "velocity": 0.8188976377952756
        },
        {
          "duration": 0.12121200000000165,
          "durationTicks": 32,
          "midi": 47,
          "name": "B2",
          "ticks": 2372,
          "time": 8.9848395,
          "velocity": 0.8188976377952756
        },
        {
          "duration": 0.10984837499999855,
          "durationTicks": 29,
          "midi": 35,
          "name": "B1",
          "ticks": 2404,
          "time": 9.106051500000001,
          "velocity": 0.8188976377952756
        },
        {
          "duration": 0.11742412499999944,
          "durationTicks": 31,
          "midi": 47,
          "name": "B2",
          "ticks": 2462,
          "time": 9.32574825,
          "velocity": 0.8188976377952756
        },
        {
          "duration": 0.10984837500000033,
          "durationTicks": 29,
          "midi": 42,
          "name": "F#2",
          "ticks": 2493,
          "time": 9.443172375,
          "velocity": 0.8188976377952756
        },
        {
          "duration": 0.10984837500000033,
          "durationTicks": 29,
          "midi": 30,
          "name": "F#1",
          "ticks": 2522,
          "time": 9.55302075,
          "velocity": 0.8188976377952756
        },
        {
          "duration": 0.10984837500000033,
          "durationTicks": 29,
          "midi": 47,
          "name": "B2",
          "ticks": 2583,
          "time": 9.784081125,
          "velocity": 0.8188976377952756
        },
        {
          "duration": 0.12121200000000165,
          "durationTicks": 32,
          "midi": 42,
          "name": "F#2",
          "ticks": 2612,
          "time": 9.8939295,
          "velocity": 0.8188976377952756
        },
        {
          "duration": 0.10984837499999855,
          "durationTicks": 29,
          "midi": 35,
          "name": "B1",
          "ticks": 2644,
          "time": 10.015141500000002,
          "velocity": 0.8188976377952756
        },
        {
          "duration": 0.12121199999999988,
          "durationTicks": 32,
          "midi": 47,
          "name": "B2",
          "ticks": 2702,
          "time": 10.234838250000001,
          "velocity": 0.8188976377952756
        },
        {
          "duration": 0.10984837499999855,
          "durationTicks": 29,
          "midi": 42,
          "name": "F#2",
          "ticks": 2734,
          "time": 10.356050250000001,
          "velocity": 0.8188976377952756
        },
        {
          "duration": 0.10984837500000033,
          "durationTicks": 29,
          "midi": 30,
          "name": "F#1",
          "ticks": 2763,
          "time": 10.465898625,
          "velocity": 0.8188976377952756
        },
        {
          "duration": 0.08712112500000124,
          "durationTicks": 23,
          "midi": 38,
          "name": "D2",
          "ticks": 2792,
          "time": 10.575747,
          "velocity": 0.8188976377952756
        },
        {
          "duration": 0.12121199999999988,
          "durationTicks": 32,
          "midi": 42,
          "name": "F#2",
          "ticks": 2823,
          "time": 10.693171125000001,
          "velocity": 0.8188976377952756
        },
        {
          "duration": 0.10984837500000033,
          "durationTicks": 29,
          "midi": 47,
          "name": "B2",
          "ticks": 2852,
          "time": 10.8030195,
          "velocity": 0.8188976377952756
        },
        {
          "duration": 0.10984837499999855,
          "durationTicks": 29,
          "midi": 35,
          "name": "B1",
          "ticks": 2884,
          "time": 10.924231500000001,
          "velocity": 0.8188976377952756
        },
        {
          "duration": 0.12121200000000165,
          "durationTicks": 32,
          "midi": 47,
          "name": "B2",
          "ticks": 2942,
          "time": 11.14392825,
          "velocity": 0.8188976377952756
        },
        {
          "duration": 0.09848474999999901,
          "durationTicks": 26,
          "midi": 42,
          "name": "F#2",
          "ticks": 2974,
          "time": 11.265140250000002,
          "velocity": 0.8188976377952756
        },
        {
          "duration": 0.10984837500000033,
          "durationTicks": 29,
          "midi": 30,
          "name": "F#1",
          "ticks": 3003,
          "time": 11.374988625,
          "velocity": 0.8188976377952756
        },
        {
          "duration": 0.10984837499999855,
          "durationTicks": 29,
          "midi": 47,
          "name": "B2",
          "ticks": 3064,
          "time": 11.606049000000002,
          "velocity": 0.8188976377952756
        },
        {
          "duration": 0.10984837500000033,
          "durationTicks": 29,
          "midi": 42,
          "name": "F#2",
          "ticks": 3093,
          "time": 11.715897375,
          "velocity": 0.8110236220472441
        },
        {
          "duration": 0.10984837500000033,
          "durationTicks": 29,
          "midi": 35,
          "name": "B1",
          "ticks": 3122,
          "time": 11.825745750000001,
          "velocity": 0.8188976377952756
        },
        {
          "duration": 0.10984837500000033,
          "durationTicks": 29,
          "midi": 47,
          "name": "B2",
          "ticks": 3182,
          "time": 12.053018250000001,
          "velocity": 0.8188976377952756
        },
        {
          "duration": 0.09848475000000079,
          "durationTicks": 26,
          "midi": 42,
          "name": "F#2",
          "ticks": 3214,
          "time": 12.17423025,
          "velocity": 0.8188976377952756
        },
        {
          "duration": 0.113636249999999,
          "durationTicks": 30,
          "midi": 30,
          "name": "F#1",
          "ticks": 3240,
          "time": 12.272715000000002,
          "velocity": 0.8188976377952756
        },
        {
          "duration": 0.12121200000000165,
          "durationTicks": 32,
          "midi": 38,
          "name": "D2",
          "ticks": 3272,
          "time": 12.393927,
          "velocity": 0.8188976377952756
        },
        {
          "duration": 0.10984837499999855,
          "durationTicks": 29,
          "midi": 42,
          "name": "F#2",
          "ticks": 3304,
          "time": 12.515139000000001,
          "velocity": 0.8188976377952756
        },
        {
          "duration": 0.10984837500000033,
          "durationTicks": 29,
          "midi": 47,
          "name": "B2",
          "ticks": 3333,
          "time": 12.624987375,
          "velocity": 0.8188976377952756
        },
        {
          "duration": 0.10984837500000033,
          "durationTicks": 29,
          "midi": 35,
          "name": "B1",
          "ticks": 3362,
          "time": 12.73483575,
          "velocity": 0.8188976377952756
        },
        {
          "duration": 0.10984837500000033,
          "durationTicks": 29,
          "midi": 47,
          "name": "B2",
          "ticks": 3423,
          "time": 12.965896125,
          "velocity": 0.8188976377952756
        },
        {
          "duration": 0.10984837500000033,
          "durationTicks": 29,
          "midi": 42,
          "name": "F#2",
          "ticks": 3452,
          "time": 13.0757445,
          "velocity": 0.8188976377952756
        },
        {
          "duration": 0.11742412499999944,
          "durationTicks": 31,
          "midi": 30,
          "name": "F#1",
          "ticks": 3481,
          "time": 13.185592875000001,
          "velocity": 0.8188976377952756
        },
        {
          "duration": 0.12121199999999988,
          "durationTicks": 32,
          "midi": 47,
          "name": "B2",
          "ticks": 3541,
          "time": 13.412865375,
          "velocity": 0.8188976377952756
        },
        {
          "duration": 0.10227262499999945,
          "durationTicks": 27,
          "midi": 42,
          "name": "F#2",
          "ticks": 3573,
          "time": 13.534077375,
          "velocity": 0.8188976377952756
        },
        {
          "duration": 0.10984837500000033,
          "durationTicks": 29,
          "midi": 35,
          "name": "B1",
          "ticks": 3602,
          "time": 13.643925750000001,
          "velocity": 0.8188976377952756
        },
        {
          "duration": 0.10984837500000033,
          "durationTicks": 29,
          "midi": 47,
          "name": "B2",
          "ticks": 3663,
          "time": 13.874986125,
          "velocity": 0.8188976377952756
        },
        {
          "duration": 0.12121200000000165,
          "durationTicks": 32,
          "midi": 42,
          "name": "F#2",
          "ticks": 3692,
          "time": 13.9848345,
          "velocity": 0.8188976377952756
        },
        {
          "duration": 0.09848474999999901,
          "durationTicks": 26,
          "midi": 30,
          "name": "F#1",
          "ticks": 3724,
          "time": 14.106046500000001,
          "velocity": 0.8188976377952756
        },
        {
          "duration": 0.10984837500000033,
          "durationTicks": 29,
          "midi": 38,
          "name": "D2",
          "ticks": 3753,
          "time": 14.215894875,
          "velocity": 0.8188976377952756
        },
        {
          "duration": 0.11742412499999944,
          "durationTicks": 31,
          "midi": 42,
          "name": "F#2",
          "ticks": 3782,
          "time": 14.32574325,
          "velocity": 0.8188976377952756
        },
        {
          "duration": 0.10984837500000033,
          "durationTicks": 29,
          "midi": 47,
          "name": "B2",
          "ticks": 3813,
          "time": 14.443167375,
          "velocity": 0.8188976377952756
        },
        {
          "duration": 0.10984837500000033,
          "durationTicks": 29,
          "midi": 35,
          "name": "B1",
          "ticks": 3842,
          "time": 14.55301575,
          "velocity": 0.8188976377952756
        },
        {
          "duration": 0.12121199999999988,
          "durationTicks": 32,
          "midi": 47,
          "name": "B2",
          "ticks": 3903,
          "time": 14.784076125,
          "velocity": 0.8188976377952756
        },
        {
          "duration": 0.10984837500000033,
          "durationTicks": 29,
          "midi": 42,
          "name": "F#2",
          "ticks": 3932,
          "time": 14.8939245,
          "velocity": 0.8188976377952756
        },
        {
          "duration": 0.09848475000000079,
          "durationTicks": 26,
          "midi": 35,
          "name": "B1",
          "ticks": 3964,
          "time": 15.0151365,
          "velocity": 0.8188976377952756
        },
        {
          "duration": 0.10984837500000033,
          "durationTicks": 29,
          "midi": 38,
          "name": "D2",
          "ticks": 3993,
          "time": 15.124984875,
          "velocity": 0.8188976377952756
        },
        {
          "duration": 0.10984837500000033,
          "durationTicks": 29,
          "midi": 42,
          "name": "F#2",
          "ticks": 4022,
          "time": 15.234833250000001,
          "velocity": 0.8188976377952756
        },
        {
          "duration": 0.10984837499999855,
          "durationTicks": 29,
          "midi": 47,
          "name": "B2",
          "ticks": 4054,
          "time": 15.356045250000001,
          "velocity": 0.8188976377952756
        },
        {
          "duration": 0.10984837500000033,
          "durationTicks": 29,
          "midi": 33,
          "name": "A1",
          "ticks": 4083,
          "time": 15.465893625,
          "velocity": 0.8188976377952756
        },
        {
          "duration": 0.1212119999999981,
          "durationTicks": 32,
          "midi": 45,
          "name": "A2",
          "ticks": 4143,
          "time": 15.693166125000001,
          "velocity": 0.8188976377952756
        },
        {
          "duration": 0.10984837499999855,
          "durationTicks": 29,
          "midi": 40,
          "name": "E2",
          "ticks": 4172,
          "time": 15.803014500000002,
          "velocity": 0.8188976377952756
        },
        {
          "duration": 0.09848475000000079,
          "durationTicks": 26,
          "midi": 33,
          "name": "A1",
          "ticks": 4204,
          "time": 15.9242265,
          "velocity": 0.8188976377952756
        },
        {
          "duration": 0.12121199999999988,
          "durationTicks": 32,
          "midi": 37,
          "name": "C#2",
          "ticks": 4230,
          "time": 16.02271125,
          "velocity": 0.8188976377952756
        },
        {
          "duration": 0.12121199999999988,
          "durationTicks": 32,
          "midi": 40,
          "name": "E2",
          "ticks": 4262,
          "time": 16.14392325,
          "velocity": 0.8188976377952756
        },
        {
          "duration": 0.10984837500000211,
          "durationTicks": 29,
          "midi": 45,
          "name": "A2",
          "ticks": 4294,
          "time": 16.26513525,
          "velocity": 0.8188976377952756
        },
        {
          "duration": 0.10984837499999855,
          "durationTicks": 29,
          "midi": 31,
          "name": "G1",
          "ticks": 4323,
          "time": 16.374983625000002,
          "velocity": 0.8188976377952756
        },
        {
          "duration": 0.10984837499999855,
          "durationTicks": 29,
          "midi": 43,
          "name": "G2",
          "ticks": 4384,
          "time": 16.606044,
          "velocity": 0.8188976377952756
        },
        {
          "duration": 0.10984837500000211,
          "durationTicks": 29,
          "midi": 38,
          "name": "D2",
          "ticks": 4413,
          "time": 16.715892375,
          "velocity": 0.8188976377952756
        },
        {
          "duration": 0.11742412499999944,
          "durationTicks": 31,
          "midi": 31,
          "name": "G1",
          "ticks": 4442,
          "time": 16.82574075,
          "velocity": 0.8188976377952756
        },
        {
          "duration": 0.10984837499999855,
          "durationTicks": 29,
          "midi": 35,
          "name": "B1",
          "ticks": 4473,
          "time": 16.943164875,
          "velocity": 0.8188976377952756
        },
        {
          "duration": 0.10984837500000211,
          "durationTicks": 29,
          "midi": 38,
          "name": "D2",
          "ticks": 4502,
          "time": 17.05301325,
          "velocity": 0.8188976377952756
        },
        {
          "duration": 0.10984837499999855,
          "durationTicks": 29,
          "midi": 43,
          "name": "G2",
          "ticks": 4531,
          "time": 17.162861625,
          "velocity": 0.8188976377952756
        },
        {
          "duration": 0.12121199999999988,
          "durationTicks": 32,
          "midi": 35,
          "name": "B1",
          "ticks": 4560,
          "time": 17.27271,
          "velocity": 0.8188976377952756
        },
        {
          "duration": 0.10984837500000211,
          "durationTicks": 29,
          "midi": 47,
          "name": "B2",
          "ticks": 4624,
          "time": 17.515134,
          "velocity": 0.8188976377952756
        },
        {
          "duration": 0.10984837499999855,
          "durationTicks": 29,
          "midi": 42,
          "name": "F#2",
          "ticks": 4653,
          "time": 17.624982375000002,
          "velocity": 0.8188976377952756
        },
        {
          "duration": 0.12121199999999988,
          "durationTicks": 32,
          "midi": 35,
          "name": "B1",
          "ticks": 4682,
          "time": 17.73483075,
          "velocity": 0.8188976377952756
        },
        {
          "duration": 0.09848475000000079,
          "durationTicks": 26,
          "midi": 38,
          "name": "D2",
          "ticks": 4714,
          "time": 17.85604275,
          "velocity": 0.8188976377952756
        },
        {
          "duration": 0.10984837499999855,
          "durationTicks": 29,
          "midi": 42,
          "name": "F#2",
          "ticks": 4743,
          "time": 17.965891125000002,
          "velocity": 0.8188976377952756
        },
        {
          "duration": 0.11742412499999944,
          "durationTicks": 31,
          "midi": 47,
          "name": "B2",
          "ticks": 4772,
          "time": 18.0757395,
          "velocity": 0.8188976377952756
        },
        {
          "duration": 0.10984837500000211,
          "durationTicks": 29,
          "midi": 35,
          "name": "B1",
          "ticks": 4803,
          "time": 18.193163625,
          "velocity": 0.8188976377952756
        },
        {
          "duration": 0.12121199999999988,
          "durationTicks": 32,
          "midi": 47,
          "name": "B2",
          "ticks": 4861,
          "time": 18.412860375,
          "velocity": 0.8188976377952756
        },
        {
          "duration": 0.10984837499999855,
          "durationTicks": 29,
          "midi": 42,
          "name": "F#2",
          "ticks": 4893,
          "time": 18.534072375,
          "velocity": 0.8188976377952756
        },
        {
          "duration": 0.10984837500000211,
          "durationTicks": 29,
          "midi": 30,
          "name": "F#1",
          "ticks": 4922,
          "time": 18.64392075,
          "velocity": 0.8188976377952756
        },
        {
          "duration": 0.10984837499999855,
          "durationTicks": 29,
          "midi": 47,
          "name": "B2",
          "ticks": 4983,
          "time": 18.874981125,
          "velocity": 0.8188976377952756
        },
        {
          "duration": 0.10984837500000211,
          "durationTicks": 29,
          "midi": 42,
          "name": "F#2",
          "ticks": 5012,
          "time": 18.9848295,
          "velocity": 0.8188976377952756
        },
        {
          "duration": 0.10984837500000211,
          "durationTicks": 29,
          "midi": 35,
          "name": "B1",
          "ticks": 5044,
          "time": 19.1060415,
          "velocity": 0.8188976377952756
        },
        {
          "duration": 0.11742412499999944,
          "durationTicks": 31,
          "midi": 47,
          "name": "B2",
          "ticks": 5102,
          "time": 19.32573825,
          "velocity": 0.8188976377952756
        },
        {
          "duration": 0.10984837500000211,
          "durationTicks": 29,
          "midi": 42,
          "name": "F#2",
          "ticks": 5133,
          "time": 19.443162375,
          "velocity": 0.8188976377952756
        },
        {
          "duration": 0.10984837499999855,
          "durationTicks": 29,
          "midi": 30,
          "name": "F#1",
          "ticks": 5162,
          "time": 19.553010750000002,
          "velocity": 0.8188976377952756
        },
        {
          "duration": 0.10984837500000211,
          "durationTicks": 29,
          "midi": 38,
          "name": "D2",
          "ticks": 5191,
          "time": 19.662859125,
          "velocity": 0.8188976377952756
        },
        {
          "duration": 0.10984837500000211,
          "durationTicks": 29,
          "midi": 42,
          "name": "F#2",
          "ticks": 5223,
          "time": 19.784071125,
          "velocity": 0.7322834645669292
        },
        {
          "duration": 0.10984837499999855,
          "durationTicks": 29,
          "midi": 47,
          "name": "B2",
          "ticks": 5252,
          "time": 19.893919500000003,
          "velocity": 0.8188976377952756
        },
        {
          "duration": 0.10984837500000211,
          "durationTicks": 29,
          "midi": 35,
          "name": "B1",
          "ticks": 5284,
          "time": 20.0151315,
          "velocity": 0.8188976377952756
        },
        {
          "duration": 0.12121199999999988,
          "durationTicks": 32,
          "midi": 47,
          "name": "B2",
          "ticks": 5342,
          "time": 20.23482825,
          "velocity": 0.8188976377952756
        },
        {
          "duration": 0.09848475000000079,
          "durationTicks": 26,
          "midi": 42,
          "name": "F#2",
          "ticks": 5374,
          "time": 20.35604025,
          "velocity": 0.8188976377952756
        },
        {
          "duration": 0.10984837499999855,
          "durationTicks": 29,
          "midi": 30,
          "name": "F#1",
          "ticks": 5403,
          "time": 20.465888625,
          "velocity": 0.8188976377952756
        },
        {
          "duration": 0.10984837500000211,
          "durationTicks": 29,
          "midi": 47,
          "name": "B2",
          "ticks": 5463,
          "time": 20.693161125,
          "velocity": 0.8188976377952756
        },
        {
          "duration": 0.10984837499999855,
          "durationTicks": 29,
          "midi": 42,
          "name": "F#2",
          "ticks": 5492,
          "time": 20.8030095,
          "velocity": 0.8188976377952756
        },
        {
          "duration": 0.12121199999999988,
          "durationTicks": 32,
          "midi": 35,
          "name": "B1",
          "ticks": 5521,
          "time": 20.912857875,
          "velocity": 0.8188976377952756
        },
        {
          "duration": 0.10984837499999855,
          "durationTicks": 29,
          "midi": 47,
          "name": "B2",
          "ticks": 5582,
          "time": 21.143918250000002,
          "velocity": 0.8188976377952756
        },
        {
          "duration": 0.09848475000000079,
          "durationTicks": 26,
          "midi": 42,
          "name": "F#2",
          "ticks": 5614,
          "time": 21.265130250000002,
          "velocity": 0.8188976377952756
        },
        {
          "duration": 0.12121199999999988,
          "durationTicks": 32,
          "midi": 30,
          "name": "F#1",
          "ticks": 5640,
          "time": 21.363615000000003,
          "velocity": 0.8188976377952756
        },
        {
          "duration": 0.10984837499999855,
          "durationTicks": 29,
          "midi": 38,
          "name": "D2",
          "ticks": 5672,
          "time": 21.484827000000003,
          "velocity": 0.8188976377952756
        },
        {
          "duration": 0.10984837500000211,
          "durationTicks": 29,
          "midi": 42,
          "name": "F#2",
          "ticks": 5704,
          "time": 21.606039,
          "velocity": 0.8188976377952756
        },
        {
          "duration": 0.10984837499999855,
          "durationTicks": 29,
          "midi": 47,
          "name": "B2",
          "ticks": 5733,
          "time": 21.715887375,
          "velocity": 0.8188976377952756
        },
        {
          "duration": 0.11742412499999944,
          "durationTicks": 31,
          "midi": 35,
          "name": "B1",
          "ticks": 5762,
          "time": 21.82573575,
          "velocity": 0.8188976377952756
        },
        {
          "duration": 0.10984837499999855,
          "durationTicks": 29,
          "midi": 47,
          "name": "B2",
          "ticks": 5822,
          "time": 22.05300825,
          "velocity": 0.8188976377952756
        },
        {
          "duration": 0.10984837500000211,
          "durationTicks": 29,
          "midi": 42,
          "name": "F#2",
          "ticks": 5851,
          "time": 22.162856625,
          "velocity": 0.8188976377952756
        },
        {
          "duration": 0.12121199999999988,
          "durationTicks": 32,
          "midi": 35,
          "name": "B1",
          "ticks": 5883,
          "time": 22.284068625,
          "velocity": 0.8188976377952756
        },
        {
          "duration": 0.10984837499999855,
          "durationTicks": 29,
          "midi": 38,
          "name": "D2",
          "ticks": 5912,
          "time": 22.393917000000002,
          "velocity": 0.8188976377952756
        },
        {
          "duration": 0.10984837499999855,
          "durationTicks": 29,
          "midi": 42,
          "name": "F#2",
          "ticks": 5944,
          "time": 22.515129,
          "velocity": 0.8188976377952756
        },
        {
          "duration": 0.10984837500000211,
          "durationTicks": 29,
          "midi": 47,
          "name": "B2",
          "ticks": 5973,
          "time": 22.624977375,
          "velocity": 0.8188976377952756
        },
        {
          "duration": 0.10984837499999855,
          "durationTicks": 29,
          "midi": 33,
          "name": "A1",
          "ticks": 6002,
          "time": 22.734825750000002,
          "velocity": 0.8188976377952756
        },
        {
          "duration": 0.10984837500000211,
          "durationTicks": 29,
          "midi": 45,
          "name": "A2",
          "ticks": 6063,
          "time": 22.965886125,
          "velocity": 0.8188976377952756
        },
        {
          "duration": 0.10984837499999855,
          "durationTicks": 29,
          "midi": 40,
          "name": "E2",
          "ticks": 6092,
          "time": 23.075734500000003,
          "velocity": 0.8188976377952756
        },
        {
          "duration": 0.10984837499999855,
          "durationTicks": 29,
          "midi": 33,
          "name": "A1",
          "ticks": 6123,
          "time": 23.193158625000002,
          "velocity": 0.8188976377952756
        },
        {
          "duration": 0.10984837500000211,
          "durationTicks": 29,
          "midi": 37,
          "name": "C#2",
          "ticks": 6152,
          "time": 23.303007,
          "velocity": 0.8188976377952756
        },
        {
          "duration": 0.12121199999999632,
          "durationTicks": 32,
          "midi": 40,
          "name": "E2",
          "ticks": 6181,
          "time": 23.412855375000003,
          "velocity": 0.8188976377952756
        },
        {
          "duration": 0.10984837500000211,
          "durationTicks": 29,
          "midi": 45,
          "name": "A2",
          "ticks": 6213,
          "time": 23.534067375,
          "velocity": 0.8188976377952756
        },
        {
          "duration": 0.10984837499999855,
          "durationTicks": 29,
          "midi": 31,
          "name": "G1",
          "ticks": 6242,
          "time": 23.64391575,
          "velocity": 0.8188976377952756
        },
        {
          "duration": 0.10984837500000211,
          "durationTicks": 29,
          "midi": 43,
          "name": "G2",
          "ticks": 6303,
          "time": 23.874976125,
          "velocity": 0.8188976377952756
        },
        {
          "duration": 0.10984837499999855,
          "durationTicks": 29,
          "midi": 38,
          "name": "D2",
          "ticks": 6332,
          "time": 23.984824500000002,
          "velocity": 0.8188976377952756
        },
        {
          "duration": 0.12121199999999988,
          "durationTicks": 32,
          "midi": 31,
          "name": "G1",
          "ticks": 6361,
          "time": 24.094672875,
          "velocity": 0.8188976377952756
        },
        {
          "duration": 0.10984837500000211,
          "durationTicks": 29,
          "midi": 35,
          "name": "B1",
          "ticks": 6393,
          "time": 24.215884875,
          "velocity": 0.8188976377952756
        },
        {
          "duration": 0.11742412499999944,
          "durationTicks": 31,
          "midi": 38,
          "name": "D2",
          "ticks": 6422,
          "time": 24.325733250000003,
          "velocity": 0.8188976377952756
        },
        {
          "duration": 0.10227262500000123,
          "durationTicks": 27,
          "midi": 43,
          "name": "G2",
          "ticks": 6453,
          "time": 24.443157375000002,
          "velocity": 0.8188976377952756
        },
        {
          "duration": 0.11742412499999944,
          "durationTicks": 31,
          "midi": 35,
          "name": "B1",
          "ticks": 6480,
          "time": 24.545430000000003,
          "velocity": 0.8188976377952756
        },
        {
          "duration": 0.10984837499999855,
          "durationTicks": 29,
          "midi": 47,
          "name": "B2",
          "ticks": 6543,
          "time": 24.784066125000003,
          "velocity": 0.8188976377952756
        },
        {
          "duration": 0.10984837500000211,
          "durationTicks": 29,
          "midi": 42,
          "name": "F#2",
          "ticks": 6572,
          "time": 24.8939145,
          "velocity": 0.8188976377952756
        },
        {
          "duration": 0.10984837499999855,
          "durationTicks": 29,
          "midi": 35,
          "name": "B1",
          "ticks": 6604,
          "time": 25.0151265,
          "velocity": 0.8188976377952756
        },
        {
          "duration": 0.10984837500000211,
          "durationTicks": 29,
          "midi": 38,
          "name": "D2",
          "ticks": 6633,
          "time": 25.124974875,
          "velocity": 0.8188976377952756
        },
        {
          "duration": 0.12121199999999988,
          "durationTicks": 32,
          "midi": 42,
          "name": "F#2",
          "ticks": 6662,
          "time": 25.23482325,
          "velocity": 0.8188976377952756
        },
        {
          "duration": 0.10984837500000211,
          "durationTicks": 29,
          "midi": 47,
          "name": "B2",
          "ticks": 6691,
          "time": 25.344671625,
          "velocity": 0.8188976377952756
        },
        {
          "duration": 0.10984837499999855,
          "durationTicks": 29,
          "midi": 38,
          "name": "D2",
          "ticks": 6720,
          "time": 25.454520000000002,
          "velocity": 0.8188976377952756
        },
        {
          "duration": 0.10984837499999855,
          "durationTicks": 29,
          "midi": 50,
          "name": "D3",
          "ticks": 6783,
          "time": 25.693156125,
          "velocity": 0.8188976377952756
        },
        {
          "duration": 0.10984837500000211,
          "durationTicks": 29,
          "midi": 45,
          "name": "A2",
          "ticks": 6812,
          "time": 25.8030045,
          "velocity": 0.8188976377952756
        },
        {
          "duration": 0.10984837499999855,
          "durationTicks": 29,
          "midi": 33,
          "name": "A1",
          "ticks": 6841,
          "time": 25.912852875000002,
          "velocity": 0.8188976377952756
        },
        {
          "duration": 0.10984837500000211,
          "durationTicks": 29,
          "midi": 50,
          "name": "D3",
          "ticks": 6902,
          "time": 26.14391325,
          "velocity": 0.8188976377952756
        },
        {
          "duration": 0.10984837499999855,
          "durationTicks": 29,
          "midi": 45,
          "name": "A2",
          "ticks": 6931,
          "time": 26.253761625000003,
          "velocity": 0.8188976377952756
        },
        {
          "duration": 0.12121199999999988,
          "durationTicks": 32,
          "midi": 38,
          "name": "D2",
          "ticks": 6960,
          "time": 26.36361,
          "velocity": 0.8188976377952756
        },
        {
          "duration": 0.12121199999999632,
          "durationTicks": 32,
          "midi": 50,
          "name": "D3",
          "ticks": 7021,
          "time": 26.594670375000003,
          "velocity": 0.8188976377952756
        },
        {
          "duration": 0.10984837500000211,
          "durationTicks": 29,
          "midi": 45,
          "name": "A2",
          "ticks": 7053,
          "time": 26.715882375,
          "velocity": 0.8188976377952756
        },
        {
          "duration": 0.10984837499999855,
          "durationTicks": 29,
          "midi": 33,
          "name": "A1",
          "ticks": 7082,
          "time": 26.82573075,
          "velocity": 0.8188976377952756
        },
        {
          "duration": 0.10227262500000123,
          "durationTicks": 27,
          "midi": 42,
          "name": "F#2",
          "ticks": 7113,
          "time": 26.943154875,
          "velocity": 0.8188976377952756
        },
        {
          "duration": 0.10984837500000211,
          "durationTicks": 29,
          "midi": 45,
          "name": "A2",
          "ticks": 7142,
          "time": 27.05300325,
          "velocity": 0.8188976377952756
        },
        {
          "duration": 0.12121199999999988,
          "durationTicks": 32,
          "midi": 50,
          "name": "D3",
          "ticks": 7171,
          "time": 27.162851625000002,
          "velocity": 0.8188976377952756
        },
        {
          "duration": 0.10984837499999855,
          "durationTicks": 29,
          "midi": 38,
          "name": "D2",
          "ticks": 7203,
          "time": 27.284063625,
          "velocity": 0.8188976377952756
        },
        {
          "duration": 0.12121199999999988,
          "durationTicks": 32,
          "midi": 50,
          "name": "D3",
          "ticks": 7261,
          "time": 27.503760375000002,
          "velocity": 0.8188976377952756
        },
        {
          "duration": 0.10984837499999855,
          "durationTicks": 29,
          "midi": 45,
          "name": "A2",
          "ticks": 7293,
          "time": 27.624972375000002,
          "velocity": 0.8188976377952756
        },
        {
          "duration": 0.10984837500000211,
          "durationTicks": 29,
          "midi": 33,
          "name": "A1",
          "ticks": 7322,
          "time": 27.73482075,
          "velocity": 0.8188976377952756
        },
        {
          "duration": 0.10984837499999855,
          "durationTicks": 29,
          "midi": 50,
          "name": "D3",
          "ticks": 7383,
          "time": 27.965881125000003,
          "velocity": 0.8188976377952756
        },
        {
          "duration": 0.11742412499999944,
          "durationTicks": 31,
          "midi": 45,
          "name": "A2",
          "ticks": 7412,
          "time": 28.0757295,
          "velocity": 0.8188976377952756
        },
        {
          "duration": 0.10984837500000211,
          "durationTicks": 29,
          "midi": 38,
          "name": "D2",
          "ticks": 7443,
          "time": 28.193153625,
          "velocity": 0.8188976377952756
        },
        {
          "duration": 0.12121199999999988,
          "durationTicks": 32,
          "midi": 50,
          "name": "D3",
          "ticks": 7501,
          "time": 28.412850375,
          "velocity": 0.8188976377952756
        },
        {
          "duration": 0.10984837499999855,
          "durationTicks": 29,
          "midi": 45,
          "name": "A2",
          "ticks": 7533,
          "time": 28.534062375,
          "velocity": 0.8188976377952756
        },
        {
          "duration": 0.12121199999999988,
          "durationTicks": 32,
          "midi": 33,
          "name": "A1",
          "ticks": 7562,
          "time": 28.64391075,
          "velocity": 0.8188976377952756
        },
        {
          "duration": 0.12121199999999988,
          "durationTicks": 32,
          "midi": 42,
          "name": "F#2",
          "ticks": 7591,
          "time": 28.753759125000002,
          "velocity": 0.8188976377952756
        },
        {
          "duration": 0.10984837499999855,
          "durationTicks": 29,
          "midi": 45,
          "name": "A2",
          "ticks": 7623,
          "time": 28.874971125000002,
          "velocity": 0.8188976377952756
        },
        {
          "duration": 0.10984837500000566,
          "durationTicks": 29,
          "midi": 50,
          "name": "D3",
          "ticks": 7652,
          "time": 28.9848195,
          "velocity": 0.8188976377952756
        },
        {
          "duration": 0.09848475000000079,
          "durationTicks": 26,
          "midi": 42,
          "name": "F#2",
          "ticks": 7684,
          "time": 29.1060315,
          "velocity": 0.8188976377952756
        },
        {
          "duration": 0.11742412500000299,
          "durationTicks": 31,
          "midi": 54,
          "name": "F#3",
          "ticks": 7742,
          "time": 29.32572825,
          "velocity": 0.8188976377952756
        },
        {
          "duration": 0.10227262499999767,
          "durationTicks": 27,
          "midi": 49,
          "name": "C#3",
          "ticks": 7773,
          "time": 29.443152375000004,
          "velocity": 0.8188976377952756
        },
        {
          "duration": 0.11742412500000299,
          "durationTicks": 31,
          "midi": 42,
          "name": "F#2",
          "ticks": 7800,
          "time": 29.545425,
          "velocity": 0.8188976377952756
        },
        {
          "duration": 0.12121199999999988,
          "durationTicks": 32,
          "midi": 45,
          "name": "A2",
          "ticks": 7831,
          "time": 29.662849125000005,
          "velocity": 0.8188976377952756
        },
        {
          "duration": 0.10984837499999855,
          "durationTicks": 29,
          "midi": 49,
          "name": "C#3",
          "ticks": 7863,
          "time": 29.784061125000004,
          "velocity": 0.8188976377952756
        },
        {
          "duration": 0.10984837500000211,
          "durationTicks": 29,
          "midi": 54,
          "name": "F#3",
          "ticks": 7892,
          "time": 29.893909500000003,
          "velocity": 0.8188976377952756
        },
        {
          "duration": 0.10984837499999855,
          "durationTicks": 29,
          "midi": 40,
          "name": "E2",
          "ticks": 7921,
          "time": 30.003757875000005,
          "velocity": 0.8188976377952756
        },
        {
          "duration": 0.12121199999999988,
          "durationTicks": 32,
          "midi": 52,
          "name": "E3",
          "ticks": 7982,
          "time": 30.23481825,
          "velocity": 0.8188976377952756
        },
        {
          "duration": 0.109848374999995,
          "durationTicks": 29,
          "midi": 47,
          "name": "B2",
          "ticks": 8011,
          "time": 30.344666625000006,
          "velocity": 0.7559055118110236
        },
        {
          "duration": 0.12121199999999988,
          "durationTicks": 32,
          "midi": 40,
          "name": "E2",
          "ticks": 8040,
          "time": 30.454515,
          "velocity": 0.8188976377952756
        },
        {
          "duration": 0.11742412500000299,
          "durationTicks": 31,
          "midi": 44,
          "name": "G#2",
          "ticks": 8072,
          "time": 30.575727,
          "velocity": 0.8188976377952756
        },
        {
          "duration": 0.10227262499999767,
          "durationTicks": 27,
          "midi": 47,
          "name": "B2",
          "ticks": 8103,
          "time": 30.693151125000004,
          "velocity": 0.8188976377952756
        },
        {
          "duration": 0.10227262499999767,
          "durationTicks": 27,
          "midi": 52,
          "name": "E3",
          "ticks": 8132,
          "time": 30.802999500000002,
          "velocity": 0.8188976377952756
        },
        {
          "duration": 0.12121199999999988,
          "durationTicks": 32,
          "midi": 38,
          "name": "D2",
          "ticks": 8161,
          "time": 30.912847875000004,
          "velocity": 0.8188976377952756
        },
        {
          "duration": 0.12121199999999988,
          "durationTicks": 32,
          "midi": 50,
          "name": "D3",
          "ticks": 8222,
          "time": 31.143908250000003,
          "velocity": 0.8188976377952756
        },
        {
          "duration": 0.12121199999999988,
          "durationTicks": 32,
          "midi": 45,
          "name": "A2",
          "ticks": 8251,
          "time": 31.253756625000005,
          "velocity": 0.8188976377952756
        },
        {
          "duration": 0.10984837499999855,
          "durationTicks": 29,
          "midi": 38,
          "name": "D2",
          "ticks": 8283,
          "time": 31.374968625000005,
          "velocity": 0.8188976377952756
        },
        {
          "duration": 0.12121199999999988,
          "durationTicks": 32,
          "midi": 42,
          "name": "F#2",
          "ticks": 8312,
          "time": 31.484817000000003,
          "velocity": 0.8188976377952756
        },
        {
          "duration": 0.10984837499999855,
          "durationTicks": 29,
          "midi": 45,
          "name": "A2",
          "ticks": 8341,
          "time": 31.594665375000005,
          "velocity": 0.7322834645669292
        },
        {
          "duration": 0.12121199999999632,
          "durationTicks": 32,
          "midi": 50,
          "name": "D3",
          "ticks": 8370,
          "time": 31.704513750000004,
          "velocity": 0.8188976377952756
        },
        {
          "duration": 0.10984837500000566,
          "durationTicks": 29,
          "midi": 38,
          "name": "D2",
          "ticks": 8402,
          "time": 31.82572575,
          "velocity": 0.8188976377952756
        },
        {
          "duration": 0.10984837500000566,
          "durationTicks": 29,
          "midi": 50,
          "name": "D3",
          "ticks": 8462,
          "time": 32.05299825,
          "velocity": 0.8188976377952756
        },
        {
          "duration": 0.12121199999999988,
          "durationTicks": 32,
          "midi": 45,
          "name": "A2",
          "ticks": 8491,
          "time": 32.16284662500001,
          "velocity": 0.8188976377952756
        },
        {
          "duration": 0.10984837499999145,
          "durationTicks": 29,
          "midi": 38,
          "name": "D2",
          "ticks": 8523,
          "time": 32.28405862500001,
          "velocity": 0.8188976377952756
        },
        {
          "duration": 0.12121199999999988,
          "durationTicks": 32,
          "midi": 42,
          "name": "F#2",
          "ticks": 8552,
          "time": 32.393907,
          "velocity": 0.8188976377952756
        },
        {
          "duration": 0.12121199999999988,
          "durationTicks": 32,
          "midi": 45,
          "name": "A2",
          "ticks": 8581,
          "time": 32.503755375000004,
          "velocity": 0.7165354330708661
        },
        {
          "duration": 0.10984837499999855,
          "durationTicks": 29,
          "midi": 50,
          "name": "D3",
          "ticks": 8613,
          "time": 32.624967375000004,
          "velocity": 0.8188976377952756
        },
        {
          "duration": 0.10984837500000566,
          "durationTicks": 29,
          "midi": 38,
          "name": "D2",
          "ticks": 8642,
          "time": 32.73481575,
          "velocity": 0.8188976377952756
        },
        {
          "duration": 0.10984837499999145,
          "durationTicks": 29,
          "midi": 50,
          "name": "D3",
          "ticks": 8703,
          "time": 32.96587612500001,
          "velocity": 0.8188976377952756
        },
        {
          "duration": 0.10984837500000566,
          "durationTicks": 29,
          "midi": 45,
          "name": "A2",
          "ticks": 8732,
          "time": 33.0757245,
          "velocity": 0.8188976377952756
        },
        {
          "duration": 0.10984837499999855,
          "durationTicks": 29,
          "midi": 33,
          "name": "A1",
          "ticks": 8763,
          "time": 33.193148625000006,
          "velocity": 0.8188976377952756
        },
        {
          "duration": 0.12121199999999988,
          "durationTicks": 32,
          "midi": 50,
          "name": "D3",
          "ticks": 8821,
          "time": 33.412845375,
          "velocity": 0.8188976377952756
        },
        {
          "duration": 0.10984837499999855,
          "durationTicks": 29,
          "midi": 45,
          "name": "A2",
          "ticks": 8853,
          "time": 33.534057375,
          "velocity": 0.8188976377952756
        },
        {
          "duration": 0.10984837500000566,
          "durationTicks": 29,
          "midi": 38,
          "name": "D2",
          "ticks": 8882,
          "time": 33.64390575,
          "velocity": 0.8188976377952756
        },
        {
          "duration": 0.10984837499999145,
          "durationTicks": 29,
          "midi": 50,
          "name": "D3",
          "ticks": 8943,
          "time": 33.87496612500001,
          "velocity": 0.8188976377952756
        },
        {
          "duration": 0.10984837500000566,
          "durationTicks": 29,
          "midi": 45,
          "name": "A2",
          "ticks": 8972,
          "time": 33.9848145,
          "velocity": 0.8188976377952756
        },
        {
          "duration": 0.10984837499999855,
          "durationTicks": 29,
          "midi": 33,
          "name": "A1",
          "ticks": 9001,
          "time": 34.094662875000004,
          "velocity": 0.8188976377952756
        },
        {
          "duration": 0.12121199999999988,
          "durationTicks": 32,
          "midi": 42,
          "name": "F#2",
          "ticks": 9030,
          "time": 34.20451125,
          "velocity": 0.8188976377952756
        },
        {
          "duration": 0.10984837500000566,
          "durationTicks": 29,
          "midi": 45,
          "name": "A2",
          "ticks": 9062,
          "time": 34.32572325,
          "velocity": 0.8188976377952756
        },
        {
          "duration": 0.10227262499999767,
          "durationTicks": 27,
          "midi": 50,
          "name": "D3",
          "ticks": 9093,
          "time": 34.443147375,
          "velocity": 0.8188976377952756
        },
        {
          "duration": 0.10984837499999855,
          "durationTicks": 29,
          "midi": 38,
          "name": "D2",
          "ticks": 9120,
          "time": 34.54542,
          "velocity": 0.8188976377952756
        },
        {
          "duration": 0.10984837499999855,
          "durationTicks": 29,
          "midi": 50,
          "name": "D3",
          "ticks": 9183,
          "time": 34.784056125000006,
          "velocity": 0.8188976377952756
        },
        {
          "duration": 0.10984837499999855,
          "durationTicks": 29,
          "midi": 45,
          "name": "A2",
          "ticks": 9212,
          "time": 34.893904500000005,
          "velocity": 0.8188976377952756
        },
        {
          "duration": 0.12121199999999988,
          "durationTicks": 32,
          "midi": 33,
          "name": "A1",
          "ticks": 9241,
          "time": 35.003752875,
          "velocity": 0.8188976377952756
        },
        {
          "duration": 0.10984837500000566,
          "durationTicks": 29,
          "midi": 50,
          "name": "D3",
          "ticks": 9302,
          "time": 35.23481325,
          "velocity": 0.8188976377952756
        },
        {
          "duration": 0.12121199999999988,
          "durationTicks": 32,
          "midi": 45,
          "name": "A2",
          "ticks": 9331,
          "time": 35.34466162500001,
          "velocity": 0.8188976377952756
        },
        {
          "duration": 0.10984837499999145,
          "durationTicks": 29,
          "midi": 38,
          "name": "D2",
          "ticks": 9363,
          "time": 35.46587362500001,
          "velocity": 0.8188976377952756
        },
        {
          "duration": 0.11742412499999944,
          "durationTicks": 31,
          "midi": 50,
          "name": "D3",
          "ticks": 9421,
          "time": 35.685570375000005,
          "velocity": 0.8188976377952756
        },
        {
          "duration": 0.10984837499999855,
          "durationTicks": 29,
          "midi": 45,
          "name": "A2",
          "ticks": 9452,
          "time": 35.802994500000004,
          "velocity": 0.8188976377952756
        },
        {
          "duration": 0.12121199999999988,
          "durationTicks": 32,
          "midi": 33,
          "name": "A1",
          "ticks": 9481,
          "time": 35.912842875,
          "velocity": 0.8188976377952756
        },
        {
          "duration": 0.10227262499999767,
          "durationTicks": 27,
          "midi": 42,
          "name": "F#2",
          "ticks": 9513,
          "time": 36.034054875,
          "velocity": 0.8188976377952756
        },
        {
          "duration": 0.10984837500000566,
          "durationTicks": 29,
          "midi": 45,
          "name": "A2",
          "ticks": 9542,
          "time": 36.14390325,
          "velocity": 0.8188976377952756
        },
        {
          "duration": 0.12121199999999988,
          "durationTicks": 32,
          "midi": 50,
          "name": "D3",
          "ticks": 9571,
          "time": 36.25375162500001,
          "velocity": 0.8188976377952756
        },
        {
          "duration": 0.09848474999999013,
          "durationTicks": 26,
          "midi": 42,
          "name": "F#2",
          "ticks": 9603,
          "time": 36.37496362500001,
          "velocity": 0.8188976377952756
        },
        {
          "duration": 0.12121199999999988,
          "durationTicks": 32,
          "midi": 54,
          "name": "F#3",
          "ticks": 9661,
          "time": 36.594660375000004,
          "velocity": 0.8188976377952756
        },
        {
          "duration": 0.10984837499999855,
          "durationTicks": 29,
          "midi": 49,
          "name": "C#3",
          "ticks": 9693,
          "time": 36.715872375000004,
          "velocity": 0.8188976377952756
        },
        {
          "duration": 0.10984837500000566,
          "durationTicks": 29,
          "midi": 42,
          "name": "F#2",
          "ticks": 9722,
          "time": 36.82572075,
          "velocity": 0.8188976377952756
        },
        {
          "duration": 0.10984837499999145,
          "durationTicks": 29,
          "midi": 45,
          "name": "A2",
          "ticks": 9753,
          "time": 36.94314487500001,
          "velocity": 0.8188976377952756
        },
        {
          "duration": 0.12121199999999988,
          "durationTicks": 32,
          "midi": 49,
          "name": "C#3",
          "ticks": 9782,
          "time": 37.05299325,
          "velocity": 0.8188976377952756
        },
        {
          "duration": 0.12121199999999988,
          "durationTicks": 32,
          "midi": 54,
          "name": "F#3",
          "ticks": 9811,
          "time": 37.162841625000006,
          "velocity": 0.8188976377952756
        },
        {
          "duration": 0.10227262499999767,
          "durationTicks": 27,
          "midi": 40,
          "name": "E2",
          "ticks": 9843,
          "time": 37.284053625000006,
          "velocity": 0.8188976377952756
        },
        {
          "duration": 0.12121199999999988,
          "durationTicks": 32,
          "midi": 52,
          "name": "E3",
          "ticks": 9901,
          "time": 37.503750375,
          "velocity": 0.8188976377952756
        },
        {
          "duration": 0.09848474999999723,
          "durationTicks": 26,
          "midi": 47,
          "name": "B2",
          "ticks": 9933,
          "time": 37.624962375,
          "velocity": 0.8188976377952756
        },
        {
          "duration": 0.10984837500000566,
          "durationTicks": 29,
          "midi": 40,
          "name": "E2",
          "ticks": 9962,
          "time": 37.73481075,
          "velocity": 0.8188976377952756
        },
        {
          "duration": 0.12121199999999988,
          "durationTicks": 32,
          "midi": 44,
          "name": "G#2",
          "ticks": 9991,
          "time": 37.84465912500001,
          "velocity": 0.8188976377952756
        },
        {
          "duration": 0.11742412499999233,
          "durationTicks": 31,
          "midi": 47,
          "name": "B2",
          "ticks": 10023,
          "time": 37.96587112500001,
          "velocity": 0.8188976377952756
        },
        {
          "duration": 0.10984837499999855,
          "durationTicks": 29,
          "midi": 52,
          "name": "E3",
          "ticks": 10052,
          "time": 38.075719500000005,
          "velocity": 0.8188976377952756
        },
        {
          "duration": 0.10227262499999767,
          "durationTicks": 27,
          "midi": 38,
          "name": "D2",
          "ticks": 10083,
          "time": 38.193143625000005,
          "velocity": 0.8188976377952756
        },
        {
          "duration": 0.12121199999999988,
          "durationTicks": 32,
          "midi": 50,
          "name": "D3",
          "ticks": 10141,
          "time": 38.41284037500001,
          "velocity": 0.8188976377952756
        },
        {
          "duration": 0.10227262499999057,
          "durationTicks": 27,
          "midi": 45,
          "name": "A2",
          "ticks": 10173,
          "time": 38.53405237500001,
          "velocity": 0.8188976377952756
        },
        {
          "duration": 0.11742412500000654,
          "durationTicks": 31,
          "midi": 38,
          "name": "D2",
          "ticks": 10200,
          "time": 38.636325,
          "velocity": 0.8188976377952756
        },
        {
          "duration": 0.10984837499999855,
          "durationTicks": 29,
          "midi": 42,
          "name": "F#2",
          "ticks": 10231,
          "time": 38.753749125000006,
          "velocity": 0.8188976377952756
        },
        {
          "duration": 0.10984837499999855,
          "durationTicks": 29,
          "midi": 45,
          "name": "A2",
          "ticks": 10263,
          "time": 38.874961125000006,
          "velocity": 0.8188976377952756
        },
        {
          "duration": 0.10984837499999855,
          "durationTicks": 29,
          "midi": 50,
          "name": "D3",
          "ticks": 10292,
          "time": 38.984809500000004,
          "velocity": 0.8188976377952756
        },
        {
          "duration": 0.10984837499999855,
          "durationTicks": 29,
          "midi": 35,
          "name": "B1",
          "ticks": 10321,
          "time": 39.094657875,
          "velocity": 0.8188976377952756
        },
        {
          "duration": 0.10984837500000566,
          "durationTicks": 29,
          "midi": 47,
          "name": "B2",
          "ticks": 10382,
          "time": 39.32571825,
          "velocity": 0.8188976377952756
        },
        {
          "duration": 0.11742412499999233,
          "durationTicks": 31,
          "midi": 42,
          "name": "F#2",
          "ticks": 10411,
          "time": 39.43556662500001,
          "velocity": 0.8188976377952756
        },
        {
          "duration": 0.12878774999999365,
          "durationTicks": 34,
          "midi": 35,
          "name": "B1",
          "ticks": 10440,
          "time": 39.545415000000006,
          "velocity": 0.8188976377952756
        },
        {
          "duration": 0.12121199999999988,
          "durationTicks": 32,
          "midi": 38,
          "name": "D2",
          "ticks": 10471,
          "time": 39.662839125000005,
          "velocity": 0.8188976377952756
        },
        {
          "duration": 0.10984837499999855,
          "durationTicks": 29,
          "midi": 42,
          "name": "F#2",
          "ticks": 10503,
          "time": 39.784051125000005,
          "velocity": 0.8188976377952756
        },
        {
          "duration": 0.11742412500000654,
          "durationTicks": 31,
          "midi": 47,
          "name": "B2",
          "ticks": 10530,
          "time": 39.88632375,
          "velocity": 0.8188976377952756
        },
        {
          "duration": 0.12121199999999988,
          "durationTicks": 32,
          "midi": 35,
          "name": "B1",
          "ticks": 10561,
          "time": 40.00374787500001,
          "velocity": 0.8188976377952756
        },
        {
          "duration": 0.10984837500000566,
          "durationTicks": 29,
          "midi": 47,
          "name": "B2",
          "ticks": 10622,
          "time": 40.23480825,
          "velocity": 0.8188976377952756
        },
        {
          "duration": 0.12121199999999988,
          "durationTicks": 32,
          "midi": 42,
          "name": "F#2",
          "ticks": 10651,
          "time": 40.344656625000006,
          "velocity": 0.8188976377952756
        },
        {
          "duration": 0.10984837499999855,
          "durationTicks": 29,
          "midi": 30,
          "name": "F#1",
          "ticks": 10683,
          "time": 40.465868625000006,
          "velocity": 0.8188976377952756
        },
        {
          "duration": 0.10984837499999855,
          "durationTicks": 29,
          "midi": 47,
          "name": "B2",
          "ticks": 10741,
          "time": 40.685565375,
          "velocity": 0.8188976377952756
        },
        {
          "duration": 0.11742412500000654,
          "durationTicks": 31,
          "midi": 42,
          "name": "F#2",
          "ticks": 10770,
          "time": 40.79541375,
          "velocity": 0.8110236220472441
        },
        {
          "duration": 0.10984837499999145,
          "durationTicks": 29,
          "midi": 35,
          "name": "B1",
          "ticks": 10801,
          "time": 40.91283787500001,
          "velocity": 0.8188976377952756
        },
        {
          "duration": 0.10984837500000566,
          "durationTicks": 29,
          "midi": 47,
          "name": "B2",
          "ticks": 10862,
          "time": 41.14389825,
          "velocity": 0.8188976377952756
        },
        {
          "duration": 0.12121199999999988,
          "durationTicks": 32,
          "midi": 42,
          "name": "F#2",
          "ticks": 10891,
          "time": 41.253746625000005,
          "velocity": 0.8188976377952756
        },
        {
          "duration": 0.10984837499999855,
          "durationTicks": 29,
          "midi": 30,
          "name": "F#1",
          "ticks": 10923,
          "time": 41.374958625000005,
          "velocity": 0.8188976377952756
        },
        {
          "duration": 0.10984837500000566,
          "durationTicks": 29,
          "midi": 38,
          "name": "D2",
          "ticks": 10952,
          "time": 41.484807,
          "velocity": 0.8188976377952756
        },
        {
          "duration": 0.12121199999999988,
          "durationTicks": 32,
          "midi": 42,
          "name": "F#2",
          "ticks": 10981,
          "time": 41.59465537500001,
          "velocity": 0.8188976377952756
        },
        {
          "duration": 0.10984837499999145,
          "durationTicks": 29,
          "midi": 47,
          "name": "B2",
          "ticks": 11013,
          "time": 41.71586737500001,
          "velocity": 0.8188976377952756
        },
        {
          "duration": 0.10984837500000566,
          "durationTicks": 29,
          "midi": 35,
          "name": "B1",
          "ticks": 11042,
          "time": 41.82571575,
          "velocity": 0.8188976377952756
        },
        {
          "duration": 0.12878775000000076,
          "durationTicks": 34,
          "midi": 47,
          "name": "B2",
          "ticks": 11100,
          "time": 42.045412500000005,
          "velocity": 0.8188976377952756
        },
        {
          "duration": 0.10984837499999855,
          "durationTicks": 29,
          "midi": 42,
          "name": "F#2",
          "ticks": 11131,
          "time": 42.162836625000004,
          "velocity": 0.8188976377952756
        },
        {
          "duration": 0.10984837499999855,
          "durationTicks": 29,
          "midi": 30,
          "name": "F#1",
          "ticks": 11163,
          "time": 42.284048625000004,
          "velocity": 0.8188976377952756
        },
        {
          "duration": 0.10984837499999145,
          "durationTicks": 29,
          "midi": 47,
          "name": "B2",
          "ticks": 11221,
          "time": 42.50374537500001,
          "velocity": 0.8188976377952756
        },
        {
          "duration": 0.10984837499999145,
          "durationTicks": 29,
          "midi": 42,
          "name": "F#2",
          "ticks": 11253,
          "time": 42.62495737500001,
          "velocity": 0.8188976377952756
        },
        {
          "duration": 0.10984837500000566,
          "durationTicks": 29,
          "midi": 35,
          "name": "B1",
          "ticks": 11282,
          "time": 42.73480575,
          "velocity": 0.8188976377952756
        },
        {
          "duration": 0.10984837499999855,
          "durationTicks": 29,
          "midi": 47,
          "name": "B2",
          "ticks": 11343,
          "time": 42.965866125000005,
          "velocity": 0.8188976377952756
        },
        {
          "duration": 0.10984837500000566,
          "durationTicks": 29,
          "midi": 42,
          "name": "F#2",
          "ticks": 11372,
          "time": 43.075714500000004,
          "velocity": 0.8188976377952756
        },
        {
          "duration": 0.10984837499999145,
          "durationTicks": 29,
          "midi": 30,
          "name": "F#1",
          "ticks": 11401,
          "time": 43.18556287500001,
          "velocity": 0.8188976377952756
        },
        {
          "duration": 0.11742412500000654,
          "durationTicks": 31,
          "midi": 38,
          "name": "D2",
          "ticks": 11430,
          "time": 43.29541125,
          "velocity": 0.8188976377952756
        },
        {
          "duration": 0.12121199999999988,
          "durationTicks": 32,
          "midi": 42,
          "name": "F#2",
          "ticks": 11461,
          "time": 43.41283537500001,
          "velocity": 0.8188976377952756
        },
        {
          "duration": 0.113636249999999,
          "durationTicks": 30,
          "midi": 47,
          "name": "B2",
          "ticks": 11490,
          "time": 43.522683750000006,
          "velocity": 0.8188976377952756
        },
        {
          "duration": 0.10984837499999855,
          "durationTicks": 29,
          "midi": 35,
          "name": "B1",
          "ticks": 11520,
          "time": 43.636320000000005,
          "velocity": 0.8188976377952756
        },
        {
          "duration": 0.10984837499999855,
          "durationTicks": 29,
          "midi": 47,
          "name": "B2",
          "ticks": 11583,
          "time": 43.874956125000004,
          "velocity": 0.8188976377952756
        },
        {
          "duration": 0.10984837500000566,
          "durationTicks": 29,
          "midi": 42,
          "name": "F#2",
          "ticks": 11612,
          "time": 43.9848045,
          "velocity": 0.8188976377952756
        },
        {
          "duration": 0.10984837499999145,
          "durationTicks": 29,
          "midi": 35,
          "name": "B1",
          "ticks": 11641,
          "time": 44.09465287500001,
          "velocity": 0.8188976377952756
        },
        {
          "duration": 0.10984837499999145,
          "durationTicks": 29,
          "midi": 38,
          "name": "D2",
          "ticks": 11673,
          "time": 44.21586487500001,
          "velocity": 0.8188976377952756
        },
        {
          "duration": 0.10984837500000566,
          "durationTicks": 29,
          "midi": 42,
          "name": "F#2",
          "ticks": 11702,
          "time": 44.32571325,
          "velocity": 0.8188976377952756
        },
        {
          "duration": 0.11742412499999944,
          "durationTicks": 31,
          "midi": 47,
          "name": "B2",
          "ticks": 11731,
          "time": 44.435561625000005,
          "velocity": 0.8188976377952756
        },
        {
          "duration": 0.10984837499999855,
          "durationTicks": 29,
          "midi": 33,
          "name": "A1",
          "ticks": 11762,
          "time": 44.552985750000005,
          "velocity": 0.8188976377952756
        },
        {
          "duration": 0.12121199999999988,
          "durationTicks": 32,
          "midi": 45,
          "name": "A2",
          "ticks": 11820,
          "time": 44.7726825,
          "velocity": 0.8188976377952756
        },
        {
          "duration": 0.11742412500000654,
          "durationTicks": 31,
          "midi": 40,
          "name": "E2",
          "ticks": 11850,
          "time": 44.88631875,
          "velocity": 0.8188976377952756
        },
        {
          "duration": 0.12121199999999988,
          "durationTicks": 32,
          "midi": 33,
          "name": "A1",
          "ticks": 11881,
          "time": 45.00374287500001,
          "velocity": 0.8188976377952756
        },
        {
          "duration": 0.10984837499999855,
          "durationTicks": 29,
          "midi": 37,
          "name": "C#2",
          "ticks": 11913,
          "time": 45.12495487500001,
          "velocity": 0.8188976377952756
        },
        {
          "duration": 0.10984837499999855,
          "durationTicks": 29,
          "midi": 40,
          "name": "E2",
          "ticks": 11942,
          "time": 45.234803250000006,
          "velocity": 0.8188976377952756
        },
        {
          "duration": 0.12878775000000076,
          "durationTicks": 34,
          "midi": 45,
          "name": "A2",
          "ticks": 11971,
          "time": 45.344651625000004,
          "velocity": 0.8188976377952756
        },
        {
          "duration": 0.10984837499999855,
          "durationTicks": 29,
          "midi": 31,
          "name": "G1",
          "ticks": 12000,
          "time": 45.4545,
          "velocity": 0.8188976377952756
        },
        {
          "duration": 0.11742412499999233,
          "durationTicks": 31,
          "midi": 43,
          "name": "G2",
          "ticks": 12061,
          "time": 45.68556037500001,
          "velocity": 0.8188976377952756
        },
        {
          "duration": 0.10227262499999767,
          "durationTicks": 27,
          "midi": 38,
          "name": "D2",
          "ticks": 12092,
          "time": 45.8029845,
          "velocity": 0.8188976377952756
        },
        {
          "duration": 0.11742412500000654,
          "durationTicks": 31,
          "midi": 31,
          "name": "G1",
          "ticks": 12119,
          "time": 45.905257125,
          "velocity": 0.8188976377952756
        },
        {
          "duration": 0.10227262499999767,
          "durationTicks": 27,
          "midi": 35,
          "name": "B1",
          "ticks": 12153,
          "time": 46.034044875000006,
          "velocity": 0.8188976377952756
        },
        {
          "duration": 0.11742412499999944,
          "durationTicks": 31,
          "midi": 38,
          "name": "D2",
          "ticks": 12180,
          "time": 46.136317500000004,
          "velocity": 0.8188976377952756
        },
        {
          "duration": 0.10984837499999855,
          "durationTicks": 29,
          "midi": 43,
          "name": "G2",
          "ticks": 12211,
          "time": 46.253741625,
          "velocity": 0.8188976377952756
        },
        {
          "duration": 0.10984837499999855,
          "durationTicks": 29,
          "midi": 35,
          "name": "B1",
          "ticks": 12243,
          "time": 46.374953625,
          "velocity": 0.8188976377952756
        },
        {
          "duration": 0.12121199999999988,
          "durationTicks": 32,
          "midi": 47,
          "name": "B2",
          "ticks": 12301,
          "time": 46.59465037500001,
          "velocity": 0.8188976377952756
        },
        {
          "duration": 0.10984837499999855,
          "durationTicks": 29,
          "midi": 42,
          "name": "F#2",
          "ticks": 12333,
          "time": 46.71586237500001,
          "velocity": 0.8188976377952756
        },
        {
          "duration": 0.10984837499999855,
          "durationTicks": 29,
          "midi": 35,
          "name": "B1",
          "ticks": 12362,
          "time": 46.825710750000006,
          "velocity": 0.8188976377952756
        },
        {
          "duration": 0.11742412499999944,
          "durationTicks": 31,
          "midi": 38,
          "name": "D2",
          "ticks": 12391,
          "time": 46.935559125000005,
          "velocity": 0.8188976377952756
        },
        {
          "duration": 0.10984837500000566,
          "durationTicks": 29,
          "midi": 42,
          "name": "F#2",
          "ticks": 12422,
          "time": 47.052983250000004,
          "velocity": 0.8188976377952756
        },
        {
          "duration": 0.10984837499999145,
          "durationTicks": 29,
          "midi": 47,
          "name": "B2",
          "ticks": 12451,
          "time": 47.16283162500001,
          "velocity": 0.8188976377952756
        },
        {
          "duration": 0.09848474999999723,
          "durationTicks": 26,
          "midi": 35,
          "name": "B1",
          "ticks": 12486,
          "time": 47.295407250000004,
          "velocity": 0.8188976377952756
        },
        {
          "duration": 0.10984837499999855,
          "durationTicks": 29,
          "midi": 47,
          "name": "B2",
          "ticks": 12541,
          "time": 47.50374037500001,
          "velocity": 0.8188976377952756
        },
        {
          "duration": 0.10984837499999855,
          "durationTicks": 29,
          "midi": 42,
          "name": "F#2",
          "ticks": 12573,
          "time": 47.62495237500001,
          "velocity": 0.8188976377952756
        },
        {
          "duration": 0.10984837499999855,
          "durationTicks": 29,
          "midi": 30,
          "name": "F#1",
          "ticks": 12602,
          "time": 47.734800750000005,
          "velocity": 0.8188976377952756
        },
        {
          "duration": 0.10984837499999855,
          "durationTicks": 29,
          "midi": 47,
          "name": "B2",
          "ticks": 12663,
          "time": 47.965861125,
          "velocity": 0.8188976377952756
        },
        {
          "duration": 0.10984837500000566,
          "durationTicks": 29,
          "midi": 42,
          "name": "F#2",
          "ticks": 12692,
          "time": 48.0757095,
          "velocity": 0.8188976377952756
        },
        {
          "duration": 0.11742412499999233,
          "durationTicks": 31,
          "midi": 35,
          "name": "B1",
          "ticks": 12721,
          "time": 48.18555787500001,
          "velocity": 0.8188976377952756
        },
        {
          "duration": 0.10984837499999855,
          "durationTicks": 29,
          "midi": 47,
          "name": "B2",
          "ticks": 12781,
          "time": 48.412830375000006,
          "velocity": 0.8188976377952756
        },
        {
          "duration": 0.113636249999999,
          "durationTicks": 30,
          "midi": 42,
          "name": "F#2",
          "ticks": 12810,
          "time": 48.522678750000004,
          "velocity": 0.8188976377952756
        },
        {
          "duration": 0.11742412500000654,
          "durationTicks": 31,
          "midi": 30,
          "name": "F#1",
          "ticks": 12840,
          "time": 48.636315,
          "velocity": 0.8188976377952756
        },
        {
          "duration": 0.10984837499999145,
          "durationTicks": 29,
          "midi": 38,
          "name": "D2",
          "ticks": 12871,
          "time": 48.75373912500001,
          "velocity": 0.8188976377952756
        },
        {
          "duration": 0.10984837499999855,
          "durationTicks": 29,
          "midi": 42,
          "name": "F#2",
          "ticks": 12903,
          "time": 48.874951125,
          "velocity": 0.7322834645669292
        },
        {
          "duration": 0.10984837500000566,
          "durationTicks": 29,
          "midi": 47,
          "name": "B2",
          "ticks": 12932,
          "time": 48.9847995,
          "velocity": 0.8188976377952756
        },
        {
          "duration": 0.12121199999999988,
          "durationTicks": 32,
          "midi": 35,
          "name": "B1",
          "ticks": 12961,
          "time": 49.09464787500001,
          "velocity": 0.8188976377952756
        },
        {
          "duration": 0.10984837499999855,
          "durationTicks": 29,
          "midi": 47,
          "name": "B2",
          "ticks": 13022,
          "time": 49.325708250000005,
          "velocity": 0.8188976377952756
        },
        {
          "duration": 0.11742412499999944,
          "durationTicks": 31,
          "midi": 42,
          "name": "F#2",
          "ticks": 13051,
          "time": 49.435556625000004,
          "velocity": 0.8188976377952756
        },
        {
          "duration": 0.10984837500000566,
          "durationTicks": 29,
          "midi": 30,
          "name": "F#1",
          "ticks": 13082,
          "time": 49.55298075,
          "velocity": 0.8188976377952756
        },
        {
          "duration": 0.12121199999999988,
          "durationTicks": 32,
          "midi": 47,
          "name": "B2",
          "ticks": 13140,
          "time": 49.7726775,
          "velocity": 0.8188976377952756
        },
        {
          "duration": 0.10984837500000566,
          "durationTicks": 29,
          "midi": 42,
          "name": "F#2",
          "ticks": 13172,
          "time": 49.8938895,
          "velocity": 0.8188976377952756
        },
        {
          "duration": 0.10984837499999855,
          "durationTicks": 29,
          "midi": 35,
          "name": "B1",
          "ticks": 13201,
          "time": 50.003737875000006,
          "velocity": 0.8188976377952756
        },
        {
          "duration": 0.10984837500000566,
          "durationTicks": 29,
          "midi": 47,
          "name": "B2",
          "ticks": 13262,
          "time": 50.234798250000004,
          "velocity": 0.8188976377952756
        },
        {
          "duration": 0.12121199999999277,
          "durationTicks": 32,
          "midi": 42,
          "name": "F#2",
          "ticks": 13291,
          "time": 50.34464662500001,
          "velocity": 0.8188976377952756
        },
        {
          "duration": 0.10984837499999855,
          "durationTicks": 29,
          "midi": 30,
          "name": "F#1",
          "ticks": 13323,
          "time": 50.465858625,
          "velocity": 0.8188976377952756
        },
        {
          "duration": 0.10984837500000566,
          "durationTicks": 29,
          "midi": 38,
          "name": "D2",
          "ticks": 13352,
          "time": 50.575707,
          "velocity": 0.8188976377952756
        },
        {
          "duration": 0.11742412499999944,
          "durationTicks": 31,
          "midi": 42,
          "name": "F#2",
          "ticks": 13381,
          "time": 50.68555537500001,
          "velocity": 0.8188976377952756
        },
        {
          "duration": 0.10227262499999767,
          "durationTicks": 27,
          "midi": 47,
          "name": "B2",
          "ticks": 13412,
          "time": 50.802979500000006,
          "velocity": 0.8188976377952756
        },
        {
          "duration": 0.11742412499999944,
          "durationTicks": 31,
          "midi": 35,
          "name": "B1",
          "ticks": 13439,
          "time": 50.905252125000004,
          "velocity": 0.8188976377952756
        },
        {
          "duration": 0.11742412500000654,
          "durationTicks": 31,
          "midi": 47,
          "name": "B2",
          "ticks": 13500,
          "time": 51.1363125,
          "velocity": 0.8188976377952756
        },
        {
          "duration": 0.10984837499999145,
          "durationTicks": 29,
          "midi": 42,
          "name": "F#2",
          "ticks": 13531,
          "time": 51.25373662500001,
          "velocity": 0.8188976377952756
        },
        {
          "duration": 0.10984837499999145,
          "durationTicks": 29,
          "midi": 35,
          "name": "B1",
          "ticks": 13563,
          "time": 51.37494862500001,
          "velocity": 0.8188976377952756
        },
        {
          "duration": 0.10984837500000566,
          "durationTicks": 29,
          "midi": 38,
          "name": "D2",
          "ticks": 13592,
          "time": 51.484797,
          "velocity": 0.8188976377952756
        },
        {
          "duration": 0.12121199999999988,
          "durationTicks": 32,
          "midi": 42,
          "name": "F#2",
          "ticks": 13621,
          "time": 51.594645375000006,
          "velocity": 0.8188976377952756
        },
        {
          "duration": 0.10984837499999855,
          "durationTicks": 29,
          "midi": 47,
          "name": "B2",
          "ticks": 13653,
          "time": 51.715857375000006,
          "velocity": 0.8188976377952756
        },
        {
          "duration": 0.10984837500000566,
          "durationTicks": 29,
          "midi": 33,
          "name": "A1",
          "ticks": 13682,
          "time": 51.825705750000004,
          "velocity": 0.8188976377952756
        },
        {
          "duration": 0.10984837500000566,
          "durationTicks": 29,
          "midi": 45,
          "name": "A2",
          "ticks": 13742,
          "time": 52.05297825,
          "velocity": 0.8188976377952756
        },
        {
          "duration": 0.10984837499999855,
          "durationTicks": 29,
          "midi": 40,
          "name": "E2",
          "ticks": 13771,
          "time": 52.16282662500001,
          "velocity": 0.8188976377952756
        },
        {
          "duration": 0.12121199999999988,
          "durationTicks": 32,
          "midi": 33,
          "name": "A1",
          "ticks": 13800,
          "time": 52.27267500000001,
          "velocity": 0.8188976377952756
        },
        {
          "duration": 0.10984837499999855,
          "durationTicks": 29,
          "midi": 37,
          "name": "C#2",
          "ticks": 13832,
          "time": 52.39388700000001,
          "velocity": 0.8188976377952756
        },
        {
          "duration": 0.10984837499999855,
          "durationTicks": 29,
          "midi": 40,
          "name": "E2",
          "ticks": 13861,
          "time": 52.503735375000005,
          "velocity": 0.8188976377952756
        },
        {
          "duration": 0.10984837499999855,
          "durationTicks": 29,
          "midi": 45,
          "name": "A2",
          "ticks": 13893,
          "time": 52.624947375000005,
          "velocity": 0.8188976377952756
        },
        {
          "duration": 0.10984837500000566,
          "durationTicks": 29,
          "midi": 31,
          "name": "G1",
          "ticks": 13922,
          "time": 52.73479575,
          "velocity": 0.8188976377952756
        },
        {
          "duration": 0.10984837499999145,
          "durationTicks": 29,
          "midi": 43,
          "name": "G2",
          "ticks": 13983,
          "time": 52.96585612500001,
          "velocity": 0.8188976377952756
        },
        {
          "duration": 0.10984837500000566,
          "durationTicks": 29,
          "midi": 38,
          "name": "D2",
          "ticks": 14012,
          "time": 53.0757045,
          "velocity": 0.8188976377952756
        },
        {
          "duration": 0.11742412499999944,
          "durationTicks": 31,
          "midi": 31,
          "name": "G1",
          "ticks": 14041,
          "time": 53.185552875000006,
          "velocity": 0.8188976377952756
        },
        {
          "duration": 0.10984837499999855,
          "durationTicks": 29,
          "midi": 35,
          "name": "B1",
          "ticks": 14072,
          "time": 53.302977000000006,
          "velocity": 0.8188976377952756
        },
        {
          "duration": 0.10984837499999855,
          "durationTicks": 29,
          "midi": 38,
          "name": "D2",
          "ticks": 14101,
          "time": 53.412825375000004,
          "velocity": 0.8188976377952756
        },
        {
          "duration": 0.12121199999999988,
          "durationTicks": 32,
          "midi": 43,
          "name": "G2",
          "ticks": 14130,
          "time": 53.52267375,
          "velocity": 0.8188976377952756
        },
        {
          "duration": 0.10984837500000566,
          "durationTicks": 29,
          "midi": 35,
          "name": "B1",
          "ticks": 14162,
          "time": 53.64388575,
          "velocity": 0.8188976377952756
        },
        {
          "duration": 0.12121199999999988,
          "durationTicks": 32,
          "midi": 47,
          "name": "B2",
          "ticks": 14220,
          "time": 53.86358250000001,
          "velocity": 0.8188976377952756
        },
        {
          "duration": 0.10984837499999855,
          "durationTicks": 29,
          "midi": 42,
          "name": "F#2",
          "ticks": 14252,
          "time": 53.98479450000001,
          "velocity": 0.8188976377952756
        },
        {
          "duration": 0.12121199999999988,
          "durationTicks": 32,
          "midi": 35,
          "name": "B1",
          "ticks": 14281,
          "time": 54.094642875000005,
          "velocity": 0.8188976377952756
        },
        {
          "duration": 0.10984837499999855,
          "durationTicks": 29,
          "midi": 38,
          "name": "D2",
          "ticks": 14313,
          "time": 54.215854875000005,
          "velocity": 0.8188976377952756
        },
        {
          "duration": 0.10984837500000566,
          "durationTicks": 29,
          "midi": 42,
          "name": "F#2",
          "ticks": 14342,
          "time": 54.325703250000004,
          "velocity": 0.8188976377952756
        },
        {
          "duration": 0.11742412499999233,
          "durationTicks": 31,
          "midi": 47,
          "name": "B2",
          "ticks": 14371,
          "time": 54.43555162500001,
          "velocity": 0.8188976377952756
        },
        {
          "duration": 0.10984837500000566,
          "durationTicks": 29,
          "midi": 38,
          "name": "D2",
          "ticks": 14402,
          "time": 54.55297575,
          "velocity": 0.8188976377952756
        },
        {
          "duration": 0.12121199999999988,
          "durationTicks": 32,
          "midi": 50,
          "name": "D3",
          "ticks": 14460,
          "time": 54.772672500000006,
          "velocity": 0.8188976377952756
        },
        {
          "duration": 0.10984837499999855,
          "durationTicks": 29,
          "midi": 45,
          "name": "A2",
          "ticks": 14492,
          "time": 54.893884500000006,
          "velocity": 0.8188976377952756
        },
        {
          "duration": 0.10984837499999855,
          "durationTicks": 29,
          "midi": 33,
          "name": "A1",
          "ticks": 14521,
          "time": 55.003732875000004,
          "velocity": 0.8188976377952756
        },
        {
          "duration": 0.10984837500000566,
          "durationTicks": 29,
          "midi": 50,
          "name": "D3",
          "ticks": 14582,
          "time": 55.23479325,
          "velocity": 0.8188976377952756
        },
        {
          "duration": 0.10984837499999855,
          "durationTicks": 29,
          "midi": 45,
          "name": "A2",
          "ticks": 14611,
          "time": 55.34464162500001,
          "velocity": 0.8188976377952756
        },
        {
          "duration": 0.09848474999999013,
          "durationTicks": 26,
          "midi": 38,
          "name": "D2",
          "ticks": 14643,
          "time": 55.46585362500001,
          "velocity": 0.8188976377952756
        },
        {
          "duration": 0.11742412499999944,
          "durationTicks": 31,
          "midi": 50,
          "name": "D3",
          "ticks": 14701,
          "time": 55.685550375000005,
          "velocity": 0.8188976377952756
        },
        {
          "duration": 0.12121199999999988,
          "durationTicks": 32,
          "midi": 45,
          "name": "A2",
          "ticks": 14732,
          "time": 55.802974500000005,
          "velocity": 0.8188976377952756
        },
        {
          "duration": 0.11742412499999944,
          "durationTicks": 31,
          "midi": 33,
          "name": "A1",
          "ticks": 14759,
          "time": 55.905247125,
          "velocity": 0.8188976377952756
        },
        {
          "duration": 0.12121199999999988,
          "durationTicks": 32,
          "midi": 42,
          "name": "F#2",
          "ticks": 14790,
          "time": 56.02267125,
          "velocity": 0.8188976377952756
        },
        {
          "duration": 0.10984837500000566,
          "durationTicks": 29,
          "midi": 45,
          "name": "A2",
          "ticks": 14822,
          "time": 56.14388325,
          "velocity": 0.8188976377952756
        },
        {
          "duration": 0.10984837499999855,
          "durationTicks": 29,
          "midi": 50,
          "name": "D3",
          "ticks": 14851,
          "time": 56.25373162500001,
          "velocity": 0.8188976377952756
        },
        {
          "duration": 0.10984837499999855,
          "durationTicks": 29,
          "midi": 38,
          "name": "D2",
          "ticks": 14883,
          "time": 56.37494362500001,
          "velocity": 0.8188976377952756
        },
        {
          "duration": 0.12121199999999988,
          "durationTicks": 32,
          "midi": 50,
          "name": "D3",
          "ticks": 14941,
          "time": 56.594640375000004,
          "velocity": 0.8188976377952756
        },
        {
          "duration": 0.12121199999999988,
          "durationTicks": 32,
          "midi": 45,
          "name": "A2",
          "ticks": 14970,
          "time": 56.70448875,
          "velocity": 0.8188976377952756
        },
        {
          "duration": 0.10984837500000566,
          "durationTicks": 29,
          "midi": 33,
          "name": "A1",
          "ticks": 15002,
          "time": 56.82570075,
          "velocity": 0.8188976377952756
        },
        {
          "duration": 0.10227262499999767,
          "durationTicks": 27,
          "midi": 50,
          "name": "D3",
          "ticks": 15062,
          "time": 57.05297325,
          "velocity": 0.8188976377952756
        },
        {
          "duration": 0.10984837499999855,
          "durationTicks": 29,
          "midi": 45,
          "name": "A2",
          "ticks": 15091,
          "time": 57.16282162500001,
          "velocity": 0.8188976377952756
        },
        {
          "duration": 0.113636249999999,
          "durationTicks": 30,
          "midi": 38,
          "name": "D2",
          "ticks": 15120,
          "time": 57.272670000000005,
          "velocity": 0.8188976377952756
        },
        {
          "duration": 0.10984837499999145,
          "durationTicks": 29,
          "midi": 50,
          "name": "D3",
          "ticks": 15181,
          "time": 57.50373037500001,
          "velocity": 0.8188976377952756
        },
        {
          "duration": 0.12121199999999988,
          "durationTicks": 32,
          "midi": 45,
          "name": "A2",
          "ticks": 15210,
          "time": 57.61357875,
          "velocity": 0.8188976377952756
        },
        {
          "duration": 0.12121200000000698,
          "durationTicks": 32,
          "midi": 33,
          "name": "A1",
          "ticks": 15239,
          "time": 57.723427125,
          "velocity": 0.8188976377952756
        },
        {
          "duration": 0.10984837499999855,
          "durationTicks": 29,
          "midi": 42,
          "name": "F#2",
          "ticks": 15271,
          "time": 57.84463912500001,
          "velocity": 0.8188976377952756
        },
        {
          "duration": 0.10984837499999855,
          "durationTicks": 29,
          "midi": 45,
          "name": "A2",
          "ticks": 15303,
          "time": 57.96585112500001,
          "velocity": 0.8188976377952756
        },
        {
          "duration": 0.10984837499999145,
          "durationTicks": 29,
          "midi": 50,
          "name": "D3",
          "ticks": 15332,
          "time": 58.075699500000006,
          "velocity": 0.8188976377952756
        },
        {
          "duration": 0.11742412500001365,
          "durationTicks": 31,
          "midi": 42,
          "name": "F#2",
          "ticks": 15361,
          "time": 58.185547875,
          "velocity": 0.8188976377952756
        },
        {
          "duration": 0.10984837499999855,
          "durationTicks": 29,
          "midi": 54,
          "name": "F#3",
          "ticks": 15421,
          "time": 58.412820375,
          "velocity": 0.8188976377952756
        },
        {
          "duration": 0.12121200000000698,
          "durationTicks": 32,
          "midi": 49,
          "name": "C#3",
          "ticks": 15450,
          "time": 58.52266875,
          "velocity": 0.8188976377952756
        },
        {
          "duration": 0.10984837499999145,
          "durationTicks": 29,
          "midi": 42,
          "name": "F#2",
          "ticks": 15482,
          "time": 58.64388075000001,
          "velocity": 0.8188976377952756
        },
        {
          "duration": 0.12121200000000698,
          "durationTicks": 32,
          "midi": 45,
          "name": "A2",
          "ticks": 15511,
          "time": 58.753729125,
          "velocity": 0.8188976377952756
        },
        {
          "duration": 0.12121200000000698,
          "durationTicks": 32,
          "midi": 49,
          "name": "C#3",
          "ticks": 15540,
          "time": 58.863577500000005,
          "velocity": 0.8188976377952756
        },
        {
          "duration": 0.12121199999999277,
          "durationTicks": 32,
          "midi": 54,
          "name": "F#3",
          "ticks": 15572,
          "time": 58.98478950000001,
          "velocity": 0.8188976377952756
        },
        {
          "duration": 0.10984837499999855,
          "durationTicks": 29,
          "midi": 40,
          "name": "E2",
          "ticks": 15601,
          "time": 59.094637875000004,
          "velocity": 0.8188976377952756
        },
        {
          "duration": 0.11742412499999944,
          "durationTicks": 31,
          "midi": 52,
          "name": "E3",
          "ticks": 15662,
          "time": 59.32569825000001,
          "velocity": 0.8188976377952756
        },
        {
          "duration": 0.11742412500000654,
          "durationTicks": 31,
          "midi": 47,
          "name": "B2",
          "ticks": 15691,
          "time": 59.435546625,
          "velocity": 0.7559055118110236
        },
        {
          "duration": 0.10984837499999145,
          "durationTicks": 29,
          "midi": 40,
          "name": "E2",
          "ticks": 15722,
          "time": 59.55297075000001,
          "velocity": 0.8188976377952756
        },
        {
          "duration": 0.10984837500000566,
          "durationTicks": 29,
          "midi": 44,
          "name": "G#2",
          "ticks": 15751,
          "time": 59.662819125,
          "velocity": 0.8188976377952756
        },
        {
          "duration": 0.113636249999999,
          "durationTicks": 30,
          "midi": 47,
          "name": "B2",
          "ticks": 15780,
          "time": 59.772667500000004,
          "velocity": 0.8188976377952756
        },
        {
          "duration": 0.10227262499999767,
          "durationTicks": 27,
          "midi": 52,
          "name": "E3",
          "ticks": 15812,
          "time": 59.89387950000001,
          "velocity": 0.8188976377952756
        },
        {
          "duration": 0.11742412499999233,
          "durationTicks": 31,
          "midi": 38,
          "name": "D2",
          "ticks": 15839,
          "time": 59.99615212500001,
          "velocity": 0.8188976377952756
        },
        {
          "duration": 0.12121199999999277,
          "durationTicks": 32,
          "midi": 50,
          "name": "D3",
          "ticks": 15902,
          "time": 60.23478825000001,
          "velocity": 0.8188976377952756
        },
        {
          "duration": 0.10984837500000566,
          "durationTicks": 29,
          "midi": 45,
          "name": "A2",
          "ticks": 15931,
          "time": 60.344636625,
          "velocity": 0.8188976377952756
        },
        {
          "duration": 0.10984837500000566,
          "durationTicks": 29,
          "midi": 38,
          "name": "D2",
          "ticks": 15963,
          "time": 60.46584862500001,
          "velocity": 0.8188976377952756
        },
        {
          "duration": 0.11742412499999233,
          "durationTicks": 31,
          "midi": 42,
          "name": "F#2",
          "ticks": 15992,
          "time": 60.57569700000001,
          "velocity": 0.8188976377952756
        },
        {
          "duration": 0.10984837499999855,
          "durationTicks": 29,
          "midi": 45,
          "name": "A2",
          "ticks": 16021,
          "time": 60.685545375000004,
          "velocity": 0.7322834645669292
        },
        {
          "duration": 0.10227262499999767,
          "durationTicks": 27,
          "midi": 50,
          "name": "D3",
          "ticks": 16052,
          "time": 60.80296950000001,
          "velocity": 0.8188976377952756
        },
        {
          "duration": 0.11742412499999944,
          "durationTicks": 31,
          "midi": 38,
          "name": "D2",
          "ticks": 16079,
          "time": 60.90524212500001,
          "velocity": 0.8188976377952756
        },
        {
          "duration": 0.10984837499999145,
          "durationTicks": 29,
          "midi": 50,
          "name": "D3",
          "ticks": 16142,
          "time": 61.14387825000001,
          "velocity": 0.8188976377952756
        },
        {
          "duration": 0.10984837500000566,
          "durationTicks": 29,
          "midi": 45,
          "name": "A2",
          "ticks": 16171,
          "time": 61.253726625,
          "velocity": 0.8188976377952756
        },
        {
          "duration": 0.10984837500000566,
          "durationTicks": 29,
          "midi": 38,
          "name": "D2",
          "ticks": 16200,
          "time": 61.363575000000004,
          "velocity": 0.8188976377952756
        },
        {
          "duration": 0.10984837499999145,
          "durationTicks": 29,
          "midi": 42,
          "name": "F#2",
          "ticks": 16232,
          "time": 61.48478700000001,
          "velocity": 0.8188976377952756
        },
        {
          "duration": 0.10984837499999855,
          "durationTicks": 29,
          "midi": 45,
          "name": "A2",
          "ticks": 16261,
          "time": 61.594635375,
          "velocity": 0.7165354330708661
        },
        {
          "duration": 0.10984837499999855,
          "durationTicks": 29,
          "midi": 50,
          "name": "D3",
          "ticks": 16293,
          "time": 61.71584737500001,
          "velocity": 0.8188976377952756
        },
        {
          "duration": 0.10984837499999145,
          "durationTicks": 29,
          "midi": 38,
          "name": "D2",
          "ticks": 16322,
          "time": 61.82569575000001,
          "velocity": 0.8188976377952756
        },
        {
          "duration": 0.10984837499998434,
          "durationTicks": 29,
          "midi": 50,
          "name": "D3",
          "ticks": 16382,
          "time": 62.05296825000001,
          "velocity": 0.8188976377952756
        },
        {
          "duration": 0.10984837500000566,
          "durationTicks": 29,
          "midi": 45,
          "name": "A2",
          "ticks": 16411,
          "time": 62.162816625,
          "velocity": 0.8188976377952756
        },
        {
          "duration": 0.12121200000000698,
          "durationTicks": 32,
          "midi": 33,
          "name": "A1",
          "ticks": 16440,
          "time": 62.272665,
          "velocity": 0.8188976377952756
        },
        {
          "duration": 0.10984837500000566,
          "durationTicks": 29,
          "midi": 50,
          "name": "D3",
          "ticks": 16501,
          "time": 62.503725375,
          "velocity": 0.8188976377952756
        },
        {
          "duration": 0.12121199999999988,
          "durationTicks": 32,
          "midi": 45,
          "name": "A2",
          "ticks": 16530,
          "time": 62.61357375000001,
          "velocity": 0.8188976377952756
        },
        {
          "duration": 0.10984837499999145,
          "durationTicks": 29,
          "midi": 38,
          "name": "D2",
          "ticks": 16562,
          "time": 62.73478575000001,
          "velocity": 0.8188976377952756
        },
        {
          "duration": 0.12121200000000698,
          "durationTicks": 32,
          "midi": 50,
          "name": "D3",
          "ticks": 16620,
          "time": 62.954482500000005,
          "velocity": 0.8188976377952756
        },
        {
          "duration": 0.11742412499999233,
          "durationTicks": 31,
          "midi": 45,
          "name": "A2",
          "ticks": 16652,
          "time": 63.07569450000001,
          "velocity": 0.8188976377952756
        },
        {
          "duration": 0.10984837499999855,
          "durationTicks": 29,
          "midi": 33,
          "name": "A1",
          "ticks": 16681,
          "time": 63.185542875,
          "velocity": 0.8188976377952756
        },
        {
          "duration": 0.10984837499999145,
          "durationTicks": 29,
          "midi": 42,
          "name": "F#2",
          "ticks": 16712,
          "time": 63.30296700000001,
          "velocity": 0.8188976377952756
        },
        {
          "duration": 0.10984837500000566,
          "durationTicks": 29,
          "midi": 45,
          "name": "A2",
          "ticks": 16741,
          "time": 63.412815375,
          "velocity": 0.8188976377952756
        },
        {
          "duration": 0.12121200000000698,
          "durationTicks": 32,
          "midi": 50,
          "name": "D3",
          "ticks": 16770,
          "time": 63.52266375000001,
          "velocity": 0.8188976377952756
        },
        {
          "duration": 0.10984837499998434,
          "durationTicks": 29,
          "midi": 38,
          "name": "D2",
          "ticks": 16802,
          "time": 63.643875750000014,
          "velocity": 0.8188976377952756
        },
        {
          "duration": 0.12121200000000698,
          "durationTicks": 32,
          "midi": 50,
          "name": "D3",
          "ticks": 16860,
          "time": 63.863572500000004,
          "velocity": 0.8188976377952756
        },
        {
          "duration": 0.09848474999999013,
          "durationTicks": 26,
          "midi": 45,
          "name": "A2",
          "ticks": 16892,
          "time": 63.98478450000001,
          "velocity": 0.8188976377952756
        },
        {
          "duration": 0.12121199999999988,
          "durationTicks": 32,
          "midi": 33,
          "name": "A1",
          "ticks": 16918,
          "time": 64.08326925,
          "velocity": 0.8188976377952756
        },
        {
          "duration": 0.10984837499998434,
          "durationTicks": 29,
          "midi": 50,
          "name": "D3",
          "ticks": 16982,
          "time": 64.32569325000001,
          "velocity": 0.8188976377952756
        },
        {
          "duration": 0.10984837499999855,
          "durationTicks": 29,
          "midi": 45,
          "name": "A2",
          "ticks": 17011,
          "time": 64.435541625,
          "velocity": 0.8188976377952756
        },
        {
          "duration": 0.10227262499999767,
          "durationTicks": 27,
          "midi": 38,
          "name": "D2",
          "ticks": 17042,
          "time": 64.55296575000001,
          "velocity": 0.8188976377952756
        },
        {
          "duration": 0.12121199999999988,
          "durationTicks": 32,
          "midi": 50,
          "name": "D3",
          "ticks": 17100,
          "time": 64.77266250000001,
          "velocity": 0.8188976377952756
        },
        {
          "duration": 0.10227262499999767,
          "durationTicks": 27,
          "midi": 45,
          "name": "A2",
          "ticks": 17132,
          "time": 64.89387450000001,
          "velocity": 0.8188976377952756
        },
        {
          "duration": 0.11742412499999944,
          "durationTicks": 31,
          "midi": 33,
          "name": "A1",
          "ticks": 17159,
          "time": 64.99614712500001,
          "velocity": 0.8188976377952756
        },
        {
          "duration": 0.12121199999999988,
          "durationTicks": 32,
          "midi": 42,
          "name": "F#2",
          "ticks": 17190,
          "time": 65.11357125,
          "velocity": 0.8188976377952756
        },
        {
          "duration": 0.10984837499999855,
          "durationTicks": 29,
          "midi": 45,
          "name": "A2",
          "ticks": 17222,
          "time": 65.23478325,
          "velocity": 0.8188976377952756
        },
        {
          "duration": 0.10984837499999855,
          "durationTicks": 29,
          "midi": 50,
          "name": "D3",
          "ticks": 17251,
          "time": 65.344631625,
          "velocity": 0.8188976377952756
        },
        {
          "duration": 0.10984837499999855,
          "durationTicks": 29,
          "midi": 42,
          "name": "F#2",
          "ticks": 17283,
          "time": 65.465843625,
          "velocity": 0.8188976377952756
        },
        {
          "duration": 0.11742412500001365,
          "durationTicks": 31,
          "midi": 54,
          "name": "F#3",
          "ticks": 17341,
          "time": 65.685540375,
          "velocity": 0.8188976377952756
        },
        {
          "duration": 0.10984837500001277,
          "durationTicks": 29,
          "midi": 49,
          "name": "C#3",
          "ticks": 17370,
          "time": 65.79538875,
          "velocity": 0.8188976377952756
        },
        {
          "duration": 0.10984837499998434,
          "durationTicks": 29,
          "midi": 42,
          "name": "F#2",
          "ticks": 17399,
          "time": 65.90523712500001,
          "velocity": 0.8188976377952756
        },
        {
          "duration": 0.12121200000001409,
          "durationTicks": 32,
          "midi": 45,
          "name": "A2",
          "ticks": 17430,
          "time": 66.02266125,
          "velocity": 0.8188976377952756
        },
        {
          "duration": 0.10984837499998434,
          "durationTicks": 29,
          "midi": 49,
          "name": "C#3",
          "ticks": 17462,
          "time": 66.14387325000001,
          "velocity": 0.8188976377952756
        },
        {
          "duration": 0.10984837500001277,
          "durationTicks": 29,
          "midi": 54,
          "name": "F#3",
          "ticks": 17491,
          "time": 66.253721625,
          "velocity": 0.8188976377952756
        },
        {
          "duration": 0.12121199999999988,
          "durationTicks": 32,
          "midi": 40,
          "name": "E2",
          "ticks": 17520,
          "time": 66.36357000000001,
          "velocity": 0.8188976377952756
        },
        {
          "duration": 0.12121199999999988,
          "durationTicks": 32,
          "midi": 52,
          "name": "E3",
          "ticks": 17581,
          "time": 66.59463037500001,
          "velocity": 0.8188976377952756
        },
        {
          "duration": 0.12121199999999988,
          "durationTicks": 32,
          "midi": 47,
          "name": "B2",
          "ticks": 17610,
          "time": 66.70447875,
          "velocity": 0.8188976377952756
        },
        {
          "duration": 0.10984837499999855,
          "durationTicks": 29,
          "midi": 40,
          "name": "E2",
          "ticks": 17642,
          "time": 66.82569075,
          "velocity": 0.8188976377952756
        },
        {
          "duration": 0.11742412499999944,
          "durationTicks": 31,
          "midi": 44,
          "name": "G#2",
          "ticks": 17671,
          "time": 66.935539125,
          "velocity": 0.8188976377952756
        },
        {
          "duration": 0.10984837499999855,
          "durationTicks": 29,
          "midi": 47,
          "name": "B2",
          "ticks": 17700,
          "time": 67.0453875,
          "velocity": 0.8188976377952756
        },
        {
          "duration": 0.12878775000000076,
          "durationTicks": 34,
          "midi": 52,
          "name": "E3",
          "ticks": 17729,
          "time": 67.155235875,
          "velocity": 0.8188976377952756
        },
        {
          "duration": 0.113636249999999,
          "durationTicks": 30,
          "midi": 38,
          "name": "D2",
          "ticks": 17760,
          "time": 67.27266,
          "velocity": 0.8188976377952756
        },
        {
          "duration": 0.10984837499999855,
          "durationTicks": 29,
          "midi": 50,
          "name": "D3",
          "ticks": 17821,
          "time": 67.503720375,
          "velocity": 0.8188976377952756
        },
        {
          "duration": 0.10984837500001277,
          "durationTicks": 29,
          "midi": 45,
          "name": "A2",
          "ticks": 17850,
          "time": 67.61356875,
          "velocity": 0.8188976377952756
        },
        {
          "duration": 0.09848474999998302,
          "durationTicks": 26,
          "midi": 38,
          "name": "D2",
          "ticks": 17882,
          "time": 67.73478075000001,
          "velocity": 0.8188976377952756
        },
        {
          "duration": 0.10984837500001277,
          "durationTicks": 29,
          "midi": 42,
          "name": "F#2",
          "ticks": 17911,
          "time": 67.844629125,
          "velocity": 0.8188976377952756
        },
        {
          "duration": 0.12121199999999988,
          "durationTicks": 32,
          "midi": 45,
          "name": "A2",
          "ticks": 17940,
          "time": 67.95447750000001,
          "velocity": 0.8188976377952756
        },
        {
          "duration": 0.10984837499999855,
          "durationTicks": 29,
          "midi": 50,
          "name": "D3",
          "ticks": 17972,
          "time": 68.07568950000001,
          "velocity": 0.8188976377952756
        },
        {
          "duration": 0.10984837499999855,
          "durationTicks": 29,
          "midi": 35,
          "name": "B1",
          "ticks": 18001,
          "time": 68.18553787500001,
          "velocity": 0.8188976377952756
        },
        {
          "duration": 0.10984837499999855,
          "durationTicks": 29,
          "midi": 47,
          "name": "B2",
          "ticks": 18061,
          "time": 68.412810375,
          "velocity": 0.8188976377952756
        },
        {
          "duration": 0.113636249999999,
          "durationTicks": 30,
          "midi": 42,
          "name": "F#2",
          "ticks": 18090,
          "time": 68.52265875,
          "velocity": 0.8188976377952756
        },
        {
          "duration": 0.10984837499999855,
          "durationTicks": 29,
          "midi": 35,
          "name": "B1",
          "ticks": 18122,
          "time": 68.64387075,
          "velocity": 0.8188976377952756
        },
        {
          "duration": 0.10984837499999855,
          "durationTicks": 29,
          "midi": 38,
          "name": "D2",
          "ticks": 18151,
          "time": 68.753719125,
          "velocity": 0.8188976377952756
        },
        {
          "duration": 0.12121200000001409,
          "durationTicks": 32,
          "midi": 42,
          "name": "F#2",
          "ticks": 18180,
          "time": 68.8635675,
          "velocity": 0.8188976377952756
        },
        {
          "duration": 0.09848474999998302,
          "durationTicks": 26,
          "midi": 47,
          "name": "B2",
          "ticks": 18212,
          "time": 68.98477950000002,
          "velocity": 0.8188976377952756
        },
        {
          "duration": 0.11742412500001365,
          "durationTicks": 31,
          "midi": 35,
          "name": "B1",
          "ticks": 25921,
          "time": 98.185507875,
          "velocity": 0.8188976377952756
        },
        {
          "duration": 0.11742412499999944,
          "durationTicks": 31,
          "midi": 47,
          "name": "B2",
          "ticks": 25979,
          "time": 98.40520462500001,
          "velocity": 0.8188976377952756
        },
        {
          "duration": 0.113636249999999,
          "durationTicks": 30,
          "midi": 42,
          "name": "F#2",
          "ticks": 26010,
          "time": 98.52262875000001,
          "velocity": 0.8188976377952756
        },
        {
          "duration": 0.11742412499999944,
          "durationTicks": 31,
          "midi": 30,
          "name": "F#1",
          "ticks": 26040,
          "time": 98.63626500000001,
          "velocity": 0.8188976377952756
        },
        {
          "duration": 0.10984837499999855,
          "durationTicks": 29,
          "midi": 47,
          "name": "B2",
          "ticks": 26100,
          "time": 98.8635375,
          "velocity": 0.8188976377952756
        },
        {
          "duration": 0.12121199999999988,
          "durationTicks": 32,
          "midi": 42,
          "name": "F#2",
          "ticks": 26129,
          "time": 98.973385875,
          "velocity": 0.8110236220472441
        },
        {
          "duration": 0.09848474999999723,
          "durationTicks": 26,
          "midi": 35,
          "name": "B1",
          "ticks": 26161,
          "time": 99.094597875,
          "velocity": 0.8188976377952756
        },
        {
          "duration": 0.12121199999998566,
          "durationTicks": 32,
          "midi": 47,
          "name": "B2",
          "ticks": 26219,
          "time": 99.31429462500002,
          "velocity": 0.8188976377952756
        },
        {
          "duration": 0.10984837499999855,
          "durationTicks": 29,
          "midi": 42,
          "name": "F#2",
          "ticks": 26251,
          "time": 99.435506625,
          "velocity": 0.8188976377952756
        },
        {
          "duration": 0.10984837500001277,
          "durationTicks": 29,
          "midi": 30,
          "name": "F#1",
          "ticks": 26280,
          "time": 99.545355,
          "velocity": 0.8188976377952756
        },
        {
          "duration": 0.10227262499999767,
          "durationTicks": 27,
          "midi": 38,
          "name": "D2",
          "ticks": 26311,
          "time": 99.662779125,
          "velocity": 0.8188976377952756
        },
        {
          "duration": 0.12121200000001409,
          "durationTicks": 32,
          "midi": 42,
          "name": "F#2",
          "ticks": 26338,
          "time": 99.76505175,
          "velocity": 0.8188976377952756
        },
        {
          "duration": 0.11742412499998522,
          "durationTicks": 31,
          "midi": 47,
          "name": "B2",
          "ticks": 26370,
          "time": 99.88626375000001,
          "velocity": 0.8188976377952756
        },
        {
          "duration": 0.10984837500001277,
          "durationTicks": 29,
          "midi": 35,
          "name": "B1",
          "ticks": 26401,
          "time": 100.003687875,
          "velocity": 0.8188976377952756
        },
        {
          "duration": 0.12121199999999988,
          "durationTicks": 32,
          "midi": 47,
          "name": "B2",
          "ticks": 26459,
          "time": 100.22338462500001,
          "velocity": 0.8188976377952756
        },
        {
          "duration": 0.10984837499999855,
          "durationTicks": 29,
          "midi": 42,
          "name": "F#2",
          "ticks": 26491,
          "time": 100.34459662500001,
          "velocity": 0.8188976377952756
        },
        {
          "duration": 0.10984837499999855,
          "durationTicks": 29,
          "midi": 30,
          "name": "F#1",
          "ticks": 26520,
          "time": 100.454445,
          "velocity": 0.8188976377952756
        },
        {
          "duration": 0.10984837499999855,
          "durationTicks": 29,
          "midi": 47,
          "name": "B2",
          "ticks": 26581,
          "time": 100.685505375,
          "velocity": 0.8188976377952756
        },
        {
          "duration": 0.10984837500001277,
          "durationTicks": 29,
          "midi": 42,
          "name": "F#2",
          "ticks": 26610,
          "time": 100.79535375,
          "velocity": 0.8188976377952756
        },
        {
          "duration": 0.10227262499999767,
          "durationTicks": 27,
          "midi": 35,
          "name": "B1",
          "ticks": 26641,
          "time": 100.912777875,
          "velocity": 0.8188976377952756
        },
        {
          "duration": 0.10984837500001277,
          "durationTicks": 29,
          "midi": 47,
          "name": "B2",
          "ticks": 26700,
          "time": 101.1362625,
          "velocity": 0.8188976377952756
        },
        {
          "duration": 0.10984837500001277,
          "durationTicks": 29,
          "midi": 42,
          "name": "F#2",
          "ticks": 26731,
          "time": 101.253686625,
          "velocity": 0.8188976377952756
        },
        {
          "duration": 0.11742412500001365,
          "durationTicks": 31,
          "midi": 30,
          "name": "F#1",
          "ticks": 26758,
          "time": 101.35595925,
          "velocity": 0.8188976377952756
        },
        {
          "duration": 0.12121199999998566,
          "durationTicks": 32,
          "midi": 38,
          "name": "D2",
          "ticks": 26789,
          "time": 101.47338337500001,
          "velocity": 0.8188976377952756
        },
        {
          "duration": 0.10984837500001277,
          "durationTicks": 29,
          "midi": 42,
          "name": "F#2",
          "ticks": 26821,
          "time": 101.594595375,
          "velocity": 0.8188976377952756
        },
        {
          "duration": 0.10984837499999855,
          "durationTicks": 29,
          "midi": 47,
          "name": "B2",
          "ticks": 26850,
          "time": 101.70444375000001,
          "velocity": 0.8188976377952756
        },
        {
          "duration": 0.12121199999999988,
          "durationTicks": 32,
          "midi": 35,
          "name": "B1",
          "ticks": 26879,
          "time": 101.81429212500001,
          "velocity": 0.8188976377952756
        },
        {
          "duration": 0.10984837499999855,
          "durationTicks": 29,
          "midi": 47,
          "name": "B2",
          "ticks": 26940,
          "time": 102.0453525,
          "velocity": 0.8188976377952756
        },
        {
          "duration": 0.11742412499999944,
          "durationTicks": 31,
          "midi": 42,
          "name": "F#2",
          "ticks": 26969,
          "time": 102.155200875,
          "velocity": 0.8188976377952756
        },
        {
          "duration": 0.113636249999999,
          "durationTicks": 30,
          "midi": 35,
          "name": "B1",
          "ticks": 27000,
          "time": 102.272625,
          "velocity": 0.8188976377952756
        },
        {
          "duration": 0.10984837500001277,
          "durationTicks": 29,
          "midi": 38,
          "name": "D2",
          "ticks": 27030,
          "time": 102.38626125,
          "velocity": 0.8188976377952756
        },
        {
          "duration": 0.10227262499999767,
          "durationTicks": 27,
          "midi": 42,
          "name": "F#2",
          "ticks": 27061,
          "time": 102.503685375,
          "velocity": 0.8188976377952756
        },
        {
          "duration": 0.11742412500001365,
          "durationTicks": 31,
          "midi": 47,
          "name": "B2",
          "ticks": 27088,
          "time": 102.605958,
          "velocity": 0.8188976377952756
        },
        {
          "duration": 0.12121199999998566,
          "durationTicks": 32,
          "midi": 33,
          "name": "A1",
          "ticks": 27119,
          "time": 102.72338212500001,
          "velocity": 0.8188976377952756
        },
        {
          "duration": 0.10984837499999855,
          "durationTicks": 29,
          "midi": 45,
          "name": "A2",
          "ticks": 27180,
          "time": 102.95444250000001,
          "velocity": 0.8188976377952756
        },
        {
          "duration": 0.12121199999998566,
          "durationTicks": 32,
          "midi": 40,
          "name": "E2",
          "ticks": 27209,
          "time": 103.06429087500001,
          "velocity": 0.8188976377952756
        },
        {
          "duration": 0.10984837500001277,
          "durationTicks": 29,
          "midi": 33,
          "name": "A1",
          "ticks": 27241,
          "time": 103.185502875,
          "velocity": 0.8188976377952756
        },
        {
          "duration": 0.11742412499999944,
          "durationTicks": 31,
          "midi": 37,
          "name": "C#2",
          "ticks": 27270,
          "time": 103.29535125000001,
          "velocity": 0.8188976377952756
        },
        {
          "duration": 0.10984837499999855,
          "durationTicks": 29,
          "midi": 40,
          "name": "E2",
          "ticks": 27299,
          "time": 103.40519962500001,
          "velocity": 0.8188976377952756
        },
        {
          "duration": 0.12878775000000076,
          "durationTicks": 34,
          "midi": 45,
          "name": "A2",
          "ticks": 27328,
          "time": 103.51504800000001,
          "velocity": 0.8188976377952756
        },
        {
          "duration": 0.10984837499999855,
          "durationTicks": 29,
          "midi": 31,
          "name": "G1",
          "ticks": 27360,
          "time": 103.63626000000001,
          "velocity": 0.8188976377952756
        },
        {
          "duration": 0.11742412500001365,
          "durationTicks": 31,
          "midi": 43,
          "name": "G2",
          "ticks": 27418,
          "time": 103.85595675,
          "velocity": 0.8188976377952756
        },
        {
          "duration": 0.12121199999998566,
          "durationTicks": 32,
          "midi": 38,
          "name": "D2",
          "ticks": 27449,
          "time": 103.97338087500002,
          "velocity": 0.8188976377952756
        },
        {
          "duration": 0.10984837499999855,
          "durationTicks": 29,
          "midi": 31,
          "name": "G1",
          "ticks": 27481,
          "time": 104.094592875,
          "velocity": 0.8188976377952756
        },
        {
          "duration": 0.10984837500001277,
          "durationTicks": 29,
          "midi": 35,
          "name": "B1",
          "ticks": 27510,
          "time": 104.20444125,
          "velocity": 0.8188976377952756
        },
        {
          "duration": 0.12121199999998566,
          "durationTicks": 32,
          "midi": 38,
          "name": "D2",
          "ticks": 27539,
          "time": 104.31428962500001,
          "velocity": 0.8188976377952756
        },
        {
          "duration": 0.10984837500001277,
          "durationTicks": 29,
          "midi": 43,
          "name": "G2",
          "ticks": 27571,
          "time": 104.435501625,
          "velocity": 0.8188976377952756
        },
        {
          "duration": 0.10984837499999855,
          "durationTicks": 29,
          "midi": 35,
          "name": "B1",
          "ticks": 27600,
          "time": 104.54535000000001,
          "velocity": 0.8188976377952756
        },
        {
          "duration": 0.113636249999999,
          "durationTicks": 30,
          "midi": 47,
          "name": "B2",
          "ticks": 27660,
          "time": 104.77262250000001,
          "velocity": 0.8188976377952756
        },
        {
          "duration": 0.10984837499999855,
          "durationTicks": 29,
          "midi": 42,
          "name": "F#2",
          "ticks": 27690,
          "time": 104.88625875000001,
          "velocity": 0.8188976377952756
        },
        {
          "duration": 0.10984837499999855,
          "durationTicks": 29,
          "midi": 35,
          "name": "B1",
          "ticks": 27721,
          "time": 105.00368287500001,
          "velocity": 0.8188976377952756
        },
        {
          "duration": 0.10984837499999855,
          "durationTicks": 29,
          "midi": 38,
          "name": "D2",
          "ticks": 27750,
          "time": 105.11353125000001,
          "velocity": 0.8188976377952756
        },
        {
          "duration": 0.12121199999999988,
          "durationTicks": 32,
          "midi": 42,
          "name": "F#2",
          "ticks": 27779,
          "time": 105.223379625,
          "velocity": 0.8188976377952756
        },
        {
          "duration": 0.10984837499999855,
          "durationTicks": 29,
          "midi": 47,
          "name": "B2",
          "ticks": 27811,
          "time": 105.344591625,
          "velocity": 0.8188976377952756
        },
        {
          "duration": 0.10984837500001277,
          "durationTicks": 29,
          "midi": 35,
          "name": "B1",
          "ticks": 27840,
          "time": 105.45444,
          "velocity": 0.8188976377952756
        },
        {
          "duration": 0.10984837499999855,
          "durationTicks": 29,
          "midi": 47,
          "name": "B2",
          "ticks": 27901,
          "time": 105.685500375,
          "velocity": 0.8188976377952756
        },
        {
          "duration": 0.10984837500001277,
          "durationTicks": 29,
          "midi": 42,
          "name": "F#2",
          "ticks": 27930,
          "time": 105.79534875,
          "velocity": 0.8188976377952756
        },
        {
          "duration": 0.11742412499999944,
          "durationTicks": 31,
          "midi": 30,
          "name": "F#1",
          "ticks": 27959,
          "time": 105.90519712500002,
          "velocity": 0.8188976377952756
        },
        {
          "duration": 0.10984837499999855,
          "durationTicks": 29,
          "midi": 47,
          "name": "B2",
          "ticks": 28020,
          "time": 106.13625750000001,
          "velocity": 0.8188976377952756
        },
        {
          "duration": 0.10227262499999767,
          "durationTicks": 27,
          "midi": 42,
          "name": "F#2",
          "ticks": 28051,
          "time": 106.253681625,
          "velocity": 0.8188976377952756
        },
        {
          "duration": 0.11742412500001365,
          "durationTicks": 31,
          "midi": 35,
          "name": "B1",
          "ticks": 28078,
          "time": 106.35595425,
          "velocity": 0.8188976377952756
        },
        {
          "duration": 0.10984837499999855,
          "durationTicks": 29,
          "midi": 47,
          "name": "B2",
          "ticks": 28141,
          "time": 106.59459037500001,
          "velocity": 0.8188976377952756
        },
        {
          "duration": 0.10984837499999855,
          "durationTicks": 29,
          "midi": 42,
          "name": "F#2",
          "ticks": 28170,
          "time": 106.70443875000001,
          "velocity": 0.8188976377952756
        },
        {
          "duration": 0.12121199999999988,
          "durationTicks": 32,
          "midi": 30,
          "name": "F#1",
          "ticks": 28199,
          "time": 106.814287125,
          "velocity": 0.8188976377952756
        },
        {
          "duration": 0.10984837499999855,
          "durationTicks": 29,
          "midi": 38,
          "name": "D2",
          "ticks": 28231,
          "time": 106.935499125,
          "velocity": 0.8188976377952756
        },
        {
          "duration": 0.10984837499999855,
          "durationTicks": 29,
          "midi": 42,
          "name": "F#2",
          "ticks": 28260,
          "time": 107.0453475,
          "velocity": 0.7322834645669292
        },
        {
          "duration": 0.11742412499999944,
          "durationTicks": 31,
          "midi": 47,
          "name": "B2",
          "ticks": 28289,
          "time": 107.155195875,
          "velocity": 0.8188976377952756
        },
        {
          "duration": 0.113636249999999,
          "durationTicks": 30,
          "midi": 35,
          "name": "B1",
          "ticks": 28320,
          "time": 107.27262,
          "velocity": 0.8188976377952756
        },
        {
          "duration": 0.10984837499998434,
          "durationTicks": 29,
          "midi": 47,
          "name": "B2",
          "ticks": 28379,
          "time": 107.49610462500002,
          "velocity": 0.8188976377952756
        },
        {
          "duration": 0.11742412500001365,
          "durationTicks": 31,
          "midi": 42,
          "name": "F#2",
          "ticks": 28408,
          "time": 107.605953,
          "velocity": 0.8188976377952756
        },
        {
          "duration": 0.10984837499998434,
          "durationTicks": 29,
          "midi": 30,
          "name": "F#1",
          "ticks": 28439,
          "time": 107.72337712500001,
          "velocity": 0.8188976377952756
        },
        {
          "duration": 0.10984837499999855,
          "durationTicks": 29,
          "midi": 47,
          "name": "B2",
          "ticks": 28500,
          "time": 107.95443750000001,
          "velocity": 0.8188976377952756
        },
        {
          "duration": 0.12121199999999988,
          "durationTicks": 32,
          "midi": 42,
          "name": "F#2",
          "ticks": 28529,
          "time": 108.06428587500001,
          "velocity": 0.8188976377952756
        },
        {
          "duration": 0.10984837499999855,
          "durationTicks": 29,
          "midi": 35,
          "name": "B1",
          "ticks": 28561,
          "time": 108.18549787500001,
          "velocity": 0.8188976377952756
        },
        {
          "duration": 0.11742412499999944,
          "durationTicks": 31,
          "midi": 47,
          "name": "B2",
          "ticks": 28619,
          "time": 108.40519462500001,
          "velocity": 0.8188976377952756
        },
        {
          "duration": 0.113636249999999,
          "durationTicks": 30,
          "midi": 42,
          "name": "F#2",
          "ticks": 28650,
          "time": 108.52261875,
          "velocity": 0.8188976377952756
        },
        {
          "duration": 0.10984837499999855,
          "durationTicks": 29,
          "midi": 30,
          "name": "F#1",
          "ticks": 28680,
          "time": 108.636255,
          "velocity": 0.8188976377952756
        },
        {
          "duration": 0.10984837499999855,
          "durationTicks": 29,
          "midi": 38,
          "name": "D2",
          "ticks": 28709,
          "time": 108.746103375,
          "velocity": 0.8188976377952756
        },
        {
          "duration": 0.11742412500001365,
          "durationTicks": 31,
          "midi": 42,
          "name": "F#2",
          "ticks": 28738,
          "time": 108.85595175,
          "velocity": 0.8188976377952756
        },
        {
          "duration": 0.10984837499998434,
          "durationTicks": 29,
          "midi": 47,
          "name": "B2",
          "ticks": 28769,
          "time": 108.97337587500002,
          "velocity": 0.8188976377952756
        },
        {
          "duration": 0.10984837500001277,
          "durationTicks": 29,
          "midi": 35,
          "name": "B1",
          "ticks": 28801,
          "time": 109.094587875,
          "velocity": 0.8188976377952756
        },
        {
          "duration": 0.12121199999998566,
          "durationTicks": 32,
          "midi": 47,
          "name": "B2",
          "ticks": 28859,
          "time": 109.31428462500001,
          "velocity": 0.8188976377952756
        },
        {
          "duration": 0.10984837500001277,
          "durationTicks": 29,
          "midi": 42,
          "name": "F#2",
          "ticks": 28891,
          "time": 109.435496625,
          "velocity": 0.8188976377952756
        },
        {
          "duration": 0.10984837499999855,
          "durationTicks": 29,
          "midi": 35,
          "name": "B1",
          "ticks": 28920,
          "time": 109.54534500000001,
          "velocity": 0.8188976377952756
        },
        {
          "duration": 0.11742412499999944,
          "durationTicks": 31,
          "midi": 38,
          "name": "D2",
          "ticks": 28949,
          "time": 109.65519337500001,
          "velocity": 0.8188976377952756
        },
        {
          "duration": 0.113636249999999,
          "durationTicks": 30,
          "midi": 42,
          "name": "F#2",
          "ticks": 28980,
          "time": 109.77261750000001,
          "velocity": 0.8188976377952756
        },
        {
          "duration": 0.10984837499999855,
          "durationTicks": 29,
          "midi": 47,
          "name": "B2",
          "ticks": 29010,
          "time": 109.88625375000001,
          "velocity": 0.8188976377952756
        },
        {
          "duration": 0.10984837499999855,
          "durationTicks": 29,
          "midi": 33,
          "name": "A1",
          "ticks": 29041,
          "time": 110.00367787500001,
          "velocity": 0.8188976377952756
        },
        {
          "duration": 0.10984837499999855,
          "durationTicks": 29,
          "midi": 45,
          "name": "A2",
          "ticks": 29099,
          "time": 110.223374625,
          "velocity": 0.8188976377952756
        },
        {
          "duration": 0.10984837499999855,
          "durationTicks": 29,
          "midi": 40,
          "name": "E2",
          "ticks": 29131,
          "time": 110.344586625,
          "velocity": 0.8188976377952756
        },
        {
          "duration": 0.10984837500001277,
          "durationTicks": 29,
          "midi": 33,
          "name": "A1",
          "ticks": 29160,
          "time": 110.454435,
          "velocity": 0.8188976377952756
        },
        {
          "duration": 0.12121199999998566,
          "durationTicks": 32,
          "midi": 37,
          "name": "C#2",
          "ticks": 29189,
          "time": 110.56428337500002,
          "velocity": 0.8188976377952756
        },
        {
          "duration": 0.10984837500001277,
          "durationTicks": 29,
          "midi": 40,
          "name": "E2",
          "ticks": 29221,
          "time": 110.685495375,
          "velocity": 0.8188976377952756
        },
        {
          "duration": 0.10984837499999855,
          "durationTicks": 29,
          "midi": 45,
          "name": "A2",
          "ticks": 29250,
          "time": 110.79534375000001,
          "velocity": 0.8188976377952756
        },
        {
          "duration": 0.11742412499999944,
          "durationTicks": 31,
          "midi": 31,
          "name": "G1",
          "ticks": 29279,
          "time": 110.90519212500001,
          "velocity": 0.8188976377952756
        },
        {
          "duration": 0.10984837499999855,
          "durationTicks": 29,
          "midi": 43,
          "name": "G2",
          "ticks": 29340,
          "time": 111.13625250000001,
          "velocity": 0.8188976377952756
        },
        {
          "duration": 0.10984837499999855,
          "durationTicks": 29,
          "midi": 38,
          "name": "D2",
          "ticks": 29369,
          "time": 111.24610087500001,
          "velocity": 0.8188976377952756
        },
        {
          "duration": 0.11742412499999944,
          "durationTicks": 31,
          "midi": 31,
          "name": "G1",
          "ticks": 29398,
          "time": 111.35594925000001,
          "velocity": 0.8188976377952756
        },
        {
          "duration": 0.10984837499999855,
          "durationTicks": 29,
          "midi": 35,
          "name": "B1",
          "ticks": 29429,
          "time": 111.47337337500001,
          "velocity": 0.8188976377952756
        },
        {
          "duration": 0.10984837499999855,
          "durationTicks": 29,
          "midi": 38,
          "name": "D2",
          "ticks": 29461,
          "time": 111.59458537500001,
          "velocity": 0.8188976377952756
        },
        {
          "duration": 0.10984837499999855,
          "durationTicks": 29,
          "midi": 43,
          "name": "G2",
          "ticks": 29490,
          "time": 111.70443375,
          "velocity": 0.8188976377952756
        },
        {
          "duration": 0.12121199999999988,
          "durationTicks": 32,
          "midi": 35,
          "name": "B1",
          "ticks": 29519,
          "time": 111.814282125,
          "velocity": 0.8188976377952756
        },
        {
          "duration": 0.10984837500001277,
          "durationTicks": 29,
          "midi": 47,
          "name": "B2",
          "ticks": 29580,
          "time": 112.0453425,
          "velocity": 0.8188976377952756
        },
        {
          "duration": 0.11742412499998522,
          "durationTicks": 31,
          "midi": 42,
          "name": "F#2",
          "ticks": 29609,
          "time": 112.15519087500002,
          "velocity": 0.8188976377952756
        },
        {
          "duration": 0.1136362500000132,
          "durationTicks": 30,
          "midi": 35,
          "name": "B1",
          "ticks": 29640,
          "time": 112.272615,
          "velocity": 0.8188976377952756
        },
        {
          "duration": 0.10984837499999855,
          "durationTicks": 29,
          "midi": 38,
          "name": "D2",
          "ticks": 29670,
          "time": 112.38625125000002,
          "velocity": 0.8188976377952756
        },
        {
          "duration": 0.11742412499999944,
          "durationTicks": 31,
          "midi": 42,
          "name": "F#2",
          "ticks": 29699,
          "time": 112.49609962500001,
          "velocity": 0.8188976377952756
        },
        {
          "duration": 0.10984837499999855,
          "durationTicks": 29,
          "midi": 47,
          "name": "B2",
          "ticks": 29730,
          "time": 112.61352375000001,
          "velocity": 0.8188976377952756
        },
        {
          "duration": 0.10984837499998434,
          "durationTicks": 29,
          "midi": 38,
          "name": "D2",
          "ticks": 29759,
          "time": 112.72337212500001,
          "velocity": 0.8188976377952756
        },
        {
          "duration": 0.12121199999999988,
          "durationTicks": 32,
          "midi": 50,
          "name": "D3",
          "ticks": 29820,
          "time": 112.95443250000001,
          "velocity": 0.8188976377952756
        },
        {
          "duration": 0.12121199999999988,
          "durationTicks": 32,
          "midi": 45,
          "name": "A2",
          "ticks": 29849,
          "time": 113.06428087500001,
          "velocity": 0.8188976377952756
        },
        {
          "duration": 0.10984837499999855,
          "durationTicks": 29,
          "midi": 33,
          "name": "A1",
          "ticks": 29881,
          "time": 113.18549287500001,
          "velocity": 0.8188976377952756
        },
        {
          "duration": 0.10984837499999855,
          "durationTicks": 29,
          "midi": 50,
          "name": "D3",
          "ticks": 29939,
          "time": 113.405189625,
          "velocity": 0.8188976377952756
        },
        {
          "duration": 0.113636249999999,
          "durationTicks": 30,
          "midi": 45,
          "name": "A2",
          "ticks": 29970,
          "time": 113.52261375,
          "velocity": 0.8188976377952756
        },
        {
          "duration": 0.10984837500001277,
          "durationTicks": 29,
          "midi": 38,
          "name": "D2",
          "ticks": 30000,
          "time": 113.63625,
          "velocity": 0.8188976377952756
        },
        {
          "duration": 0.10984837500001277,
          "durationTicks": 29,
          "midi": 50,
          "name": "D3",
          "ticks": 30060,
          "time": 113.8635225,
          "velocity": 0.8188976377952756
        },
        {
          "duration": 0.12121199999998566,
          "durationTicks": 32,
          "midi": 45,
          "name": "A2",
          "ticks": 30089,
          "time": 113.97337087500001,
          "velocity": 0.8188976377952756
        },
        {
          "duration": 0.10984837500001277,
          "durationTicks": 29,
          "midi": 33,
          "name": "A1",
          "ticks": 30121,
          "time": 114.094582875,
          "velocity": 0.8188976377952756
        },
        {
          "duration": 0.10984837499999855,
          "durationTicks": 29,
          "midi": 42,
          "name": "F#2",
          "ticks": 30150,
          "time": 114.20443125000001,
          "velocity": 0.8188976377952756
        },
        {
          "duration": 0.12121199999999988,
          "durationTicks": 32,
          "midi": 45,
          "name": "A2",
          "ticks": 30179,
          "time": 114.31427962500001,
          "velocity": 0.8188976377952756
        },
        {
          "duration": 0.10984837499999855,
          "durationTicks": 29,
          "midi": 50,
          "name": "D3",
          "ticks": 30211,
          "time": 114.43549162500001,
          "velocity": 0.8188976377952756
        },
        {
          "duration": 0.10984837499999855,
          "durationTicks": 29,
          "midi": 38,
          "name": "D2",
          "ticks": 30240,
          "time": 114.54534000000001,
          "velocity": 0.8188976377952756
        },
        {
          "duration": 0.113636249999999,
          "durationTicks": 30,
          "midi": 50,
          "name": "D3",
          "ticks": 30300,
          "time": 114.77261250000001,
          "velocity": 0.8188976377952756
        },
        {
          "duration": 0.11742412499999944,
          "durationTicks": 31,
          "midi": 45,
          "name": "A2",
          "ticks": 30330,
          "time": 114.88624875000001,
          "velocity": 0.8188976377952756
        },
        {
          "duration": 0.10984837499999855,
          "durationTicks": 29,
          "midi": 33,
          "name": "A1",
          "ticks": 30361,
          "time": 115.003672875,
          "velocity": 0.8188976377952756
        },
        {
          "duration": 0.10984837499998434,
          "durationTicks": 29,
          "midi": 50,
          "name": "D3",
          "ticks": 30419,
          "time": 115.22336962500002,
          "velocity": 0.8188976377952756
        },
        {
          "duration": 0.12121199999999988,
          "durationTicks": 32,
          "midi": 45,
          "name": "A2",
          "ticks": 30448,
          "time": 115.333218,
          "velocity": 0.8188976377952756
        },
        {
          "duration": 0.10984837500001277,
          "durationTicks": 29,
          "midi": 38,
          "name": "D2",
          "ticks": 30480,
          "time": 115.45443,
          "velocity": 0.8188976377952756
        },
        {
          "duration": 0.12121200000001409,
          "durationTicks": 32,
          "midi": 50,
          "name": "D3",
          "ticks": 30538,
          "time": 115.67412675,
          "velocity": 0.8188976377952756
        },
        {
          "duration": 0.10984837499999855,
          "durationTicks": 29,
          "midi": 45,
          "name": "A2",
          "ticks": 30570,
          "time": 115.79533875000001,
          "velocity": 0.8188976377952756
        },
        {
          "duration": 0.11742412499999944,
          "durationTicks": 31,
          "midi": 33,
          "name": "A1",
          "ticks": 30599,
          "time": 115.90518712500001,
          "velocity": 0.8188976377952756
        },
        {
          "duration": 0.113636249999999,
          "durationTicks": 30,
          "midi": 42,
          "name": "F#2",
          "ticks": 30630,
          "time": 116.02261125000001,
          "velocity": 0.8188976377952756
        },
        {
          "duration": 0.10984837499999855,
          "durationTicks": 29,
          "midi": 45,
          "name": "A2",
          "ticks": 30660,
          "time": 116.13624750000001,
          "velocity": 0.8188976377952756
        },
        {
          "duration": 0.11742412499999944,
          "durationTicks": 31,
          "midi": 50,
          "name": "D3",
          "ticks": 30689,
          "time": 116.24609587500001,
          "velocity": 0.8188976377952756
        },
        {
          "duration": 0.10984837499999855,
          "durationTicks": 29,
          "midi": 42,
          "name": "F#2",
          "ticks": 30720,
          "time": 116.36352000000001,
          "velocity": 0.8188976377952756
        },
        {
          "duration": 0.12121199999998566,
          "durationTicks": 32,
          "midi": 54,
          "name": "F#3",
          "ticks": 30778,
          "time": 116.58321675000002,
          "velocity": 0.8188976377952756
        },
        {
          "duration": 0.10984837500001277,
          "durationTicks": 29,
          "midi": 49,
          "name": "C#3",
          "ticks": 30810,
          "time": 116.70442875,
          "velocity": 0.8188976377952756
        },
        {
          "duration": 0.10984837499999855,
          "durationTicks": 29,
          "midi": 42,
          "name": "F#2",
          "ticks": 30839,
          "time": 116.81427712500002,
          "velocity": 0.8188976377952756
        },
        {
          "duration": 0.10984837499999855,
          "durationTicks": 29,
          "midi": 45,
          "name": "A2",
          "ticks": 30871,
          "time": 116.935489125,
          "velocity": 0.8188976377952756
        },
        {
          "duration": 0.10984837500001277,
          "durationTicks": 29,
          "midi": 49,
          "name": "C#3",
          "ticks": 30900,
          "time": 117.0453375,
          "velocity": 0.8188976377952756
        },
        {
          "duration": 0.11742412499999944,
          "durationTicks": 31,
          "midi": 54,
          "name": "F#3",
          "ticks": 30929,
          "time": 117.15518587500002,
          "velocity": 0.8188976377952756
        },
        {
          "duration": 0.113636249999999,
          "durationTicks": 30,
          "midi": 40,
          "name": "E2",
          "ticks": 30960,
          "time": 117.27261000000001,
          "velocity": 0.8188976377952756
        },
        {
          "duration": 0.11742412499999944,
          "durationTicks": 31,
          "midi": 52,
          "name": "E3",
          "ticks": 31019,
          "time": 117.49609462500001,
          "velocity": 0.8188976377952756
        },
        {
          "duration": 0.10984837499999855,
          "durationTicks": 29,
          "midi": 47,
          "name": "B2",
          "ticks": 31050,
          "time": 117.61351875000001,
          "velocity": 0.7559055118110236
        },
        {
          "duration": 0.10984837499999855,
          "durationTicks": 29,
          "midi": 40,
          "name": "E2",
          "ticks": 31079,
          "time": 117.72336712500001,
          "velocity": 0.8188976377952756
        },
        {
          "duration": 0.12121199999999988,
          "durationTicks": 32,
          "midi": 44,
          "name": "G#2",
          "ticks": 31108,
          "time": 117.83321550000001,
          "velocity": 0.8188976377952756
        },
        {
          "duration": 0.10984837499999855,
          "durationTicks": 29,
          "midi": 47,
          "name": "B2",
          "ticks": 31140,
          "time": 117.95442750000001,
          "velocity": 0.8188976377952756
        },
        {
          "duration": 0.10984837500001277,
          "durationTicks": 29,
          "midi": 52,
          "name": "E3",
          "ticks": 31169,
          "time": 118.064275875,
          "velocity": 0.8188976377952756
        },
        {
          "duration": 0.10984837499999855,
          "durationTicks": 29,
          "midi": 38,
          "name": "D2",
          "ticks": 31201,
          "time": 118.185487875,
          "velocity": 0.8188976377952756
        },
        {
          "duration": 0.11742412499998522,
          "durationTicks": 31,
          "midi": 50,
          "name": "D3",
          "ticks": 31259,
          "time": 118.40518462500002,
          "velocity": 0.8188976377952756
        },
        {
          "duration": 0.10227262500001189,
          "durationTicks": 27,
          "midi": 45,
          "name": "A2",
          "ticks": 31290,
          "time": 118.52260875,
          "velocity": 0.8188976377952756
        },
        {
          "duration": 0.12121199999999988,
          "durationTicks": 32,
          "midi": 38,
          "name": "D2",
          "ticks": 31317,
          "time": 118.62488137500002,
          "velocity": 0.8188976377952756
        },
        {
          "duration": 0.11742412499999944,
          "durationTicks": 31,
          "midi": 42,
          "name": "F#2",
          "ticks": 31349,
          "time": 118.74609337500002,
          "velocity": 0.8188976377952756
        },
        {
          "duration": 0.10227262499999767,
          "durationTicks": 27,
          "midi": 45,
          "name": "A2",
          "ticks": 31380,
          "time": 118.86351750000001,
          "velocity": 0.7322834645669292
        },
        {
          "duration": 0.10984837499999855,
          "durationTicks": 29,
          "midi": 50,
          "name": "D3",
          "ticks": 31409,
          "time": 118.97336587500001,
          "velocity": 0.8188976377952756
        },
        {
          "duration": 0.12121199999999988,
          "durationTicks": 32,
          "midi": 38,
          "name": "D2",
          "ticks": 31438,
          "time": 119.08321425000001,
          "velocity": 0.8188976377952756
        },
        {
          "duration": 0.10984837499999855,
          "durationTicks": 29,
          "midi": 50,
          "name": "D3",
          "ticks": 31499,
          "time": 119.31427462500001,
          "velocity": 0.8188976377952756
        },
        {
          "duration": 0.10984837499999855,
          "durationTicks": 29,
          "midi": 45,
          "name": "A2",
          "ticks": 31531,
          "time": 119.43548662500001,
          "velocity": 0.8188976377952756
        },
        {
          "duration": 0.09848474999998302,
          "durationTicks": 26,
          "midi": 38,
          "name": "D2",
          "ticks": 31560,
          "time": 119.54533500000001,
          "velocity": 0.8188976377952756
        },
        {
          "duration": 0.11742412499999944,
          "durationTicks": 31,
          "midi": 42,
          "name": "F#2",
          "ticks": 31589,
          "time": 119.65518337500001,
          "velocity": 0.8188976377952756
        },
        {
          "duration": 0.113636249999999,
          "durationTicks": 30,
          "midi": 45,
          "name": "A2",
          "ticks": 31620,
          "time": 119.7726075,
          "velocity": 0.7165354330708661
        },
        {
          "duration": 0.10984837500001277,
          "durationTicks": 29,
          "midi": 50,
          "name": "D3",
          "ticks": 31650,
          "time": 119.88624375,
          "velocity": 0.8188976377952756
        },
        {
          "duration": 0.11742412499998522,
          "durationTicks": 31,
          "midi": 38,
          "name": "D2",
          "ticks": 31679,
          "time": 119.99609212500002,
          "velocity": 0.8188976377952756
        },
        {
          "duration": 0.12121199999998566,
          "durationTicks": 32,
          "midi": 50,
          "name": "D3",
          "ticks": 31739,
          "time": 120.22336462500002,
          "velocity": 0.8188976377952756
        },
        {
          "duration": 0.12121199999999988,
          "durationTicks": 32,
          "midi": 45,
          "name": "A2",
          "ticks": 31768,
          "time": 120.33321300000001,
          "velocity": 0.8188976377952756
        },
        {
          "duration": 0.10984837499999855,
          "durationTicks": 29,
          "midi": 33,
          "name": "A1",
          "ticks": 31800,
          "time": 120.45442500000001,
          "velocity": 0.8188976377952756
        },
        {
          "duration": 0.12121199999999988,
          "durationTicks": 32,
          "midi": 50,
          "name": "D3",
          "ticks": 31858,
          "time": 120.67412175000001,
          "velocity": 0.8188976377952756
        },
        {
          "duration": 0.11742412499999944,
          "durationTicks": 31,
          "midi": 45,
          "name": "A2",
          "ticks": 31890,
          "time": 120.79533375000001,
          "velocity": 0.8188976377952756
        },
        {
          "duration": 0.10984837499999855,
          "durationTicks": 29,
          "midi": 38,
          "name": "D2",
          "ticks": 31919,
          "time": 120.90518212500001,
          "velocity": 0.8188976377952756
        },
        {
          "duration": 0.10984837499999855,
          "durationTicks": 29,
          "midi": 50,
          "name": "D3",
          "ticks": 31980,
          "time": 121.13624250000001,
          "velocity": 0.8188976377952756
        },
        {
          "duration": 0.11742412499999944,
          "durationTicks": 31,
          "midi": 45,
          "name": "A2",
          "ticks": 32009,
          "time": 121.24609087500001,
          "velocity": 0.8188976377952756
        },
        {
          "duration": 0.10984837499999855,
          "durationTicks": 29,
          "midi": 33,
          "name": "A1",
          "ticks": 32040,
          "time": 121.363515,
          "velocity": 0.8188976377952756
        },
        {
          "duration": 0.10984837500001277,
          "durationTicks": 29,
          "midi": 42,
          "name": "F#2",
          "ticks": 32069,
          "time": 121.473363375,
          "velocity": 0.8188976377952756
        },
        {
          "duration": 0.12121199999998566,
          "durationTicks": 32,
          "midi": 45,
          "name": "A2",
          "ticks": 32098,
          "time": 121.58321175000002,
          "velocity": 0.8188976377952756
        },
        {
          "duration": 0.10984837500001277,
          "durationTicks": 29,
          "midi": 50,
          "name": "D3",
          "ticks": 32130,
          "time": 121.70442375,
          "velocity": 0.8188976377952756
        },
        {
          "duration": 0.10984837499999855,
          "durationTicks": 29,
          "midi": 38,
          "name": "D2",
          "ticks": 32159,
          "time": 121.81427212500002,
          "velocity": 0.8188976377952756
        },
        {
          "duration": 0.11742412499998522,
          "durationTicks": 31,
          "midi": 50,
          "name": "D3",
          "ticks": 32220,
          "time": 122.04533250000001,
          "velocity": 0.8188976377952756
        },
        {
          "duration": 0.11742412499999944,
          "durationTicks": 31,
          "midi": 45,
          "name": "A2",
          "ticks": 32249,
          "time": 122.15518087500001,
          "velocity": 0.8188976377952756
        },
        {
          "duration": 0.113636249999999,
          "durationTicks": 30,
          "midi": 33,
          "name": "A1",
          "ticks": 32280,
          "time": 122.27260500000001,
          "velocity": 0.8188976377952756
        },
        {
          "duration": 0.10984837499999855,
          "durationTicks": 29,
          "midi": 50,
          "name": "D3",
          "ticks": 32339,
          "time": 122.49608962500001,
          "velocity": 0.8188976377952756
        },
        {
          "duration": 0.10227262500001189,
          "durationTicks": 27,
          "midi": 45,
          "name": "A2",
          "ticks": 32370,
          "time": 122.61351375000001,
          "velocity": 0.8188976377952756
        },
        {
          "duration": 0.11742412499999944,
          "durationTicks": 31,
          "midi": 38,
          "name": "D2",
          "ticks": 32397,
          "time": 122.71578637500002,
          "velocity": 0.8188976377952756
        },
        {
          "duration": 0.10984837499999855,
          "durationTicks": 29,
          "midi": 50,
          "name": "D3",
          "ticks": 32460,
          "time": 122.9544225,
          "velocity": 0.8188976377952756
        },
        {
          "duration": 0.10984837500001277,
          "durationTicks": 29,
          "midi": 45,
          "name": "A2",
          "ticks": 32489,
          "time": 123.064270875,
          "velocity": 0.8188976377952756
        },
        {
          "duration": 0.10984837499999855,
          "durationTicks": 29,
          "midi": 33,
          "name": "A1",
          "ticks": 32521,
          "time": 123.185482875,
          "velocity": 0.8188976377952756
        },
        {
          "duration": 0.10984837500001277,
          "durationTicks": 29,
          "midi": 42,
          "name": "F#2",
          "ticks": 32550,
          "time": 123.29533125,
          "velocity": 0.8188976377952756
        },
        {
          "duration": 0.10984837499999855,
          "durationTicks": 29,
          "midi": 45,
          "name": "A2",
          "ticks": 32579,
          "time": 123.40517962500002,
          "velocity": 0.8188976377952756
        },
        {
          "duration": 0.10227262500001189,
          "durationTicks": 27,
          "midi": 50,
          "name": "D3",
          "ticks": 32610,
          "time": 123.52260375,
          "velocity": 0.8188976377952756
        },
        {
          "duration": 0.12121199999999988,
          "durationTicks": 32,
          "midi": 42,
          "name": "F#2",
          "ticks": 32637,
          "time": 123.62487637500001,
          "velocity": 0.8188976377952756
        },
        {
          "duration": 0.10984837499999855,
          "durationTicks": 29,
          "midi": 54,
          "name": "F#3",
          "ticks": 32700,
          "time": 123.86351250000001,
          "velocity": 0.8188976377952756
        },
        {
          "duration": 0.12121199999999988,
          "durationTicks": 32,
          "midi": 49,
          "name": "C#3",
          "ticks": 32729,
          "time": 123.97336087500001,
          "velocity": 0.8188976377952756
        },
        {
          "duration": 0.09848475000001145,
          "durationTicks": 26,
          "midi": 42,
          "name": "F#2",
          "ticks": 32761,
          "time": 124.09457287500001,
          "velocity": 0.8188976377952756
        },
        {
          "duration": 0.10984837499999855,
          "durationTicks": 29,
          "midi": 45,
          "name": "A2",
          "ticks": 32790,
          "time": 124.20442125000001,
          "velocity": 0.8188976377952756
        },
        {
          "duration": 0.10984837500001277,
          "durationTicks": 29,
          "midi": 49,
          "name": "C#3",
          "ticks": 32819,
          "time": 124.31426962500001,
          "velocity": 0.8188976377952756
        },
        {
          "duration": 0.12121199999998566,
          "durationTicks": 32,
          "midi": 54,
          "name": "F#3",
          "ticks": 32848,
          "time": 124.42411800000002,
          "velocity": 0.8188976377952756
        },
        {
          "duration": 0.12121199999998566,
          "durationTicks": 32,
          "midi": 40,
          "name": "E2",
          "ticks": 32877,
          "time": 124.53396637500002,
          "velocity": 0.8188976377952756
        },
        {
          "duration": 0.12878774999998654,
          "durationTicks": 34,
          "midi": 52,
          "name": "E3",
          "ticks": 32938,
          "time": 124.76502675000002,
          "velocity": 0.8188976377952756
        },
        {
          "duration": 0.12121199999999988,
          "durationTicks": 32,
          "midi": 47,
          "name": "B2",
          "ticks": 32967,
          "time": 124.87487512500002,
          "velocity": 0.8188976377952756
        },
        {
          "duration": 0.11742412499998522,
          "durationTicks": 31,
          "midi": 40,
          "name": "E2",
          "ticks": 32999,
          "time": 124.99608712500002,
          "velocity": 0.8188976377952756
        },
        {
          "duration": 0.10984837500001277,
          "durationTicks": 29,
          "midi": 44,
          "name": "G#2",
          "ticks": 33030,
          "time": 125.11351125,
          "velocity": 0.8188976377952756
        },
        {
          "duration": 0.10984837499999855,
          "durationTicks": 29,
          "midi": 47,
          "name": "B2",
          "ticks": 33059,
          "time": 125.22335962500001,
          "velocity": 0.8188976377952756
        },
        {
          "duration": 0.12121199999999988,
          "durationTicks": 32,
          "midi": 52,
          "name": "E3",
          "ticks": 33088,
          "time": 125.33320800000001,
          "velocity": 0.8188976377952756
        },
        {
          "duration": 0.10984837499999855,
          "durationTicks": 29,
          "midi": 38,
          "name": "D2",
          "ticks": 33120,
          "time": 125.45442000000001,
          "velocity": 0.8188976377952756
        },
        {
          "duration": 0.12121199999999988,
          "durationTicks": 32,
          "midi": 50,
          "name": "D3",
          "ticks": 33178,
          "time": 125.67411675000001,
          "velocity": 0.8188976377952756
        },
        {
          "duration": 0.10984837499999855,
          "durationTicks": 29,
          "midi": 45,
          "name": "A2",
          "ticks": 33210,
          "time": 125.79532875000001,
          "velocity": 0.8188976377952756
        },
        {
          "duration": 0.10984837500001277,
          "durationTicks": 29,
          "midi": 38,
          "name": "D2",
          "ticks": 33239,
          "time": 125.90517712500001,
          "velocity": 0.8188976377952756
        },
        {
          "duration": 0.10984837499999855,
          "durationTicks": 29,
          "midi": 42,
          "name": "F#2",
          "ticks": 33268,
          "time": 126.01502550000002,
          "velocity": 0.8188976377952756
        },
        {
          "duration": 0.12121199999998566,
          "durationTicks": 32,
          "midi": 45,
          "name": "A2",
          "ticks": 33297,
          "time": 126.12487387500002,
          "velocity": 0.8188976377952756
        },
        {
          "duration": 0.11742412499999944,
          "durationTicks": 31,
          "midi": 50,
          "name": "D3",
          "ticks": 33329,
          "time": 126.246085875,
          "velocity": 0.8188976377952756
        },
        {
          "duration": 0.10984837500001277,
          "durationTicks": 29,
          "midi": 35,
          "name": "B1",
          "ticks": 33360,
          "time": 126.36351,
          "velocity": 0.8188976377952756
        },
        {
          "duration": 0.12121199999998566,
          "durationTicks": 32,
          "midi": 47,
          "name": "B2",
          "ticks": 33418,
          "time": 126.58320675000002,
          "velocity": 0.8188976377952756
        },
        {
          "duration": 0.10984837500001277,
          "durationTicks": 29,
          "midi": 42,
          "name": "F#2",
          "ticks": 33450,
          "time": 126.70441875,
          "velocity": 0.8188976377952756
        },
        {
          "duration": 0.10984837499999855,
          "durationTicks": 29,
          "midi": 35,
          "name": "B1",
          "ticks": 33479,
          "time": 126.81426712500001,
          "velocity": 0.8188976377952756
        },
        {
          "duration": 0.12121199999999988,
          "durationTicks": 32,
          "midi": 38,
          "name": "D2",
          "ticks": 33508,
          "time": 126.92411550000001,
          "velocity": 0.8188976377952756
        },
        {
          "duration": 0.10984837499999855,
          "durationTicks": 29,
          "midi": 42,
          "name": "F#2",
          "ticks": 33540,
          "time": 127.04532750000001,
          "velocity": 0.8188976377952756
        },
        {
          "duration": 0.10984837499999855,
          "durationTicks": 29,
          "midi": 47,
          "name": "B2",
          "ticks": 33569,
          "time": 127.15517587500001,
          "velocity": 0.8188976377952756
        },
        {
          "duration": 0.113636249999999,
          "durationTicks": 30,
          "midi": 35,
          "name": "B1",
          "ticks": 33600,
          "time": 127.27260000000001,
          "velocity": 0.8188976377952756
        },
        {
          "duration": 0.11742412499999944,
          "durationTicks": 31,
          "midi": 47,
          "name": "B2",
          "ticks": 33659,
          "time": 127.49608462500001,
          "velocity": 0.8188976377952756
        },
        {
          "duration": 0.10227262500001189,
          "durationTicks": 27,
          "midi": 42,
          "name": "F#2",
          "ticks": 33690,
          "time": 127.61350875000001,
          "velocity": 0.8188976377952756
        },
        {
          "duration": 0.11742412499999944,
          "durationTicks": 31,
          "midi": 30,
          "name": "F#1",
          "ticks": 33717,
          "time": 127.71578137500002,
          "velocity": 0.8188976377952756
        },
        {
          "duration": 0.10984837500001277,
          "durationTicks": 29,
          "midi": 47,
          "name": "B2",
          "ticks": 33780,
          "time": 127.9544175,
          "velocity": 0.8188976377952756
        },
        {
          "duration": 0.10984837499998434,
          "durationTicks": 29,
          "midi": 42,
          "name": "F#2",
          "ticks": 33809,
          "time": 128.06426587500002,
          "velocity": 0.8110236220472441
        },
        {
          "duration": 0.12121200000001409,
          "durationTicks": 32,
          "midi": 35,
          "name": "B1",
          "ticks": 33838,
          "time": 128.17411425,
          "velocity": 0.8188976377952756
        },
        {
          "duration": 0.10984837500001277,
          "durationTicks": 29,
          "midi": 47,
          "name": "B2",
          "ticks": 33899,
          "time": 128.405174625,
          "velocity": 0.8188976377952756
        },
        {
          "duration": 0.10227262500001189,
          "durationTicks": 27,
          "midi": 42,
          "name": "F#2",
          "ticks": 33930,
          "time": 128.52259875000001,
          "velocity": 0.8188976377952756
        },
        {
          "duration": 0.12121199999998566,
          "durationTicks": 32,
          "midi": 30,
          "name": "F#1",
          "ticks": 33957,
          "time": 128.62487137500003,
          "velocity": 0.8188976377952756
        },
        {
          "duration": 0.10984837500001277,
          "durationTicks": 29,
          "midi": 38,
          "name": "D2",
          "ticks": 33989,
          "time": 128.746083375,
          "velocity": 0.8188976377952756
        },
        {
          "duration": 0.10227262500001189,
          "durationTicks": 27,
          "midi": 42,
          "name": "F#2",
          "ticks": 34020,
          "time": 128.8635075,
          "velocity": 0.8188976377952756
        },
        {
          "duration": 0.11742412500001365,
          "durationTicks": 31,
          "midi": 47,
          "name": "B2",
          "ticks": 34047,
          "time": 128.965780125,
          "velocity": 0.8188976377952756
        },
        {
          "duration": 0.12121199999998566,
          "durationTicks": 32,
          "midi": 35,
          "name": "B1",
          "ticks": 34078,
          "time": 129.08320425000002,
          "velocity": 0.8188976377952756
        },
        {
          "duration": 0.10984837499998434,
          "durationTicks": 29,
          "midi": 47,
          "name": "B2",
          "ticks": 34139,
          "time": 129.31426462500002,
          "velocity": 0.8188976377952756
        },
        {
          "duration": 0.12121200000001409,
          "durationTicks": 32,
          "midi": 42,
          "name": "F#2",
          "ticks": 34168,
          "time": 129.424113,
          "velocity": 0.8188976377952756
        },
        {
          "duration": 0.10984837499998434,
          "durationTicks": 29,
          "midi": 30,
          "name": "F#1",
          "ticks": 34200,
          "time": 129.54532500000002,
          "velocity": 0.8188976377952756
        },
        {
          "duration": 0.10984837500001277,
          "durationTicks": 29,
          "midi": 47,
          "name": "B2",
          "ticks": 34258,
          "time": 129.76502175000002,
          "velocity": 0.8188976377952756
        },
        {
          "duration": 0.12121199999998566,
          "durationTicks": 32,
          "midi": 42,
          "name": "F#2",
          "ticks": 34287,
          "time": 129.87487012500003,
          "velocity": 0.8188976377952756
        },
        {
          "duration": 0.10984837500001277,
          "durationTicks": 29,
          "midi": 35,
          "name": "B1",
          "ticks": 34319,
          "time": 129.99608212500002,
          "velocity": 0.8188976377952756
        },
        {
          "duration": 0.10984837500001277,
          "durationTicks": 29,
          "midi": 47,
          "name": "B2",
          "ticks": 34379,
          "time": 130.223354625,
          "velocity": 0.8188976377952756
        },
        {
          "duration": 0.12121199999998566,
          "durationTicks": 32,
          "midi": 42,
          "name": "F#2",
          "ticks": 34408,
          "time": 130.33320300000003,
          "velocity": 0.8188976377952756
        },
        {
          "duration": 0.10984837500001277,
          "durationTicks": 29,
          "midi": 30,
          "name": "F#1",
          "ticks": 34440,
          "time": 130.454415,
          "velocity": 0.8188976377952756
        },
        {
          "duration": 0.10984837499998434,
          "durationTicks": 29,
          "midi": 38,
          "name": "D2",
          "ticks": 34469,
          "time": 130.56426337500002,
          "velocity": 0.8188976377952756
        },
        {
          "duration": 0.12121200000001409,
          "durationTicks": 32,
          "midi": 42,
          "name": "F#2",
          "ticks": 34498,
          "time": 130.67411175,
          "velocity": 0.8188976377952756
        },
        {
          "duration": 0.10984837499998434,
          "durationTicks": 29,
          "midi": 47,
          "name": "B2",
          "ticks": 34530,
          "time": 130.79532375000002,
          "velocity": 0.8188976377952756
        },
        {
          "duration": 0.10984837500001277,
          "durationTicks": 29,
          "midi": 35,
          "name": "B1",
          "ticks": 34559,
          "time": 130.905172125,
          "velocity": 0.8188976377952756
        },
        {
          "duration": 0.12121199999998566,
          "durationTicks": 32,
          "midi": 47,
          "name": "B2",
          "ticks": 34617,
          "time": 131.12486887500003,
          "velocity": 0.8188976377952756
        },
        {
          "duration": 0.10984837499998434,
          "durationTicks": 29,
          "midi": 42,
          "name": "F#2",
          "ticks": 34649,
          "time": 131.24608087500002,
          "velocity": 0.8188976377952756
        },
        {
          "duration": 0.10984837500001277,
          "durationTicks": 29,
          "midi": 35,
          "name": "B1",
          "ticks": 34680,
          "time": 131.363505,
          "velocity": 0.8188976377952756
        },
        {
          "duration": 0.10984837500001277,
          "durationTicks": 29,
          "midi": 38,
          "name": "D2",
          "ticks": 34709,
          "time": 131.47335337500002,
          "velocity": 0.8188976377952756
        },
        {
          "duration": 0.12121199999998566,
          "durationTicks": 32,
          "midi": 42,
          "name": "F#2",
          "ticks": 34738,
          "time": 131.58320175000003,
          "velocity": 0.8188976377952756
        },
        {
          "duration": 0.10984837499998434,
          "durationTicks": 29,
          "midi": 47,
          "name": "B2",
          "ticks": 34770,
          "time": 131.70441375000001,
          "velocity": 0.8188976377952756
        },
        {
          "duration": 0.10984837500001277,
          "durationTicks": 29,
          "midi": 33,
          "name": "A1",
          "ticks": 34799,
          "time": 131.814262125,
          "velocity": 0.8188976377952756
        },
        {
          "duration": 0.10984837500001277,
          "durationTicks": 29,
          "midi": 45,
          "name": "A2",
          "ticks": 34860,
          "time": 132.0453225,
          "velocity": 0.8188976377952756
        },
        {
          "duration": 0.10984837500001277,
          "durationTicks": 29,
          "midi": 40,
          "name": "E2",
          "ticks": 34889,
          "time": 132.155170875,
          "velocity": 0.8188976377952756
        },
        {
          "duration": 0.1136362500000132,
          "durationTicks": 30,
          "midi": 33,
          "name": "A1",
          "ticks": 34920,
          "time": 132.272595,
          "velocity": 0.8188976377952756
        },
        {
          "duration": 0.10984837500001277,
          "durationTicks": 29,
          "midi": 37,
          "name": "C#2",
          "ticks": 34950,
          "time": 132.38623125,
          "velocity": 0.8188976377952756
        },
        {
          "duration": 0.10984837499998434,
          "durationTicks": 29,
          "midi": 40,
          "name": "E2",
          "ticks": 34979,
          "time": 132.49607962500002,
          "velocity": 0.8188976377952756
        },
        {
          "duration": 0.10227262500001189,
          "durationTicks": 27,
          "midi": 45,
          "name": "A2",
          "ticks": 35010,
          "time": 132.61350375,
          "velocity": 0.8188976377952756
        },
        {
          "duration": 0.11742412499998522,
          "durationTicks": 31,
          "midi": 31,
          "name": "G1",
          "ticks": 35037,
          "time": 132.71577637500002,
          "velocity": 0.8188976377952756
        },
        {
          "duration": 0.10984837499998434,
          "durationTicks": 29,
          "midi": 43,
          "name": "G2",
          "ticks": 35100,
          "time": 132.95441250000002,
          "velocity": 0.8188976377952756
        },
        {
          "duration": 0.10984837500001277,
          "durationTicks": 29,
          "midi": 38,
          "name": "D2",
          "ticks": 35129,
          "time": 133.064260875,
          "velocity": 0.8188976377952756
        },
        {
          "duration": 0.12121199999998566,
          "durationTicks": 32,
          "midi": 31,
          "name": "G1",
          "ticks": 35158,
          "time": 133.17410925000001,
          "velocity": 0.8188976377952756
        },
        {
          "duration": 0.10984837500001277,
          "durationTicks": 29,
          "midi": 35,
          "name": "B1",
          "ticks": 35190,
          "time": 133.29532125,
          "velocity": 0.8188976377952756
        },
        {
          "duration": 0.10984837500001277,
          "durationTicks": 29,
          "midi": 38,
          "name": "D2",
          "ticks": 35219,
          "time": 133.405169625,
          "velocity": 0.8188976377952756
        },
        {
          "duration": 0.12121199999998566,
          "durationTicks": 32,
          "midi": 43,
          "name": "G2",
          "ticks": 35248,
          "time": 133.51501800000003,
          "velocity": 0.8188976377952756
        },
        {
          "duration": 0.10984837500001277,
          "durationTicks": 29,
          "midi": 35,
          "name": "B1",
          "ticks": 35280,
          "time": 133.63623,
          "velocity": 0.8188976377952756
        },
        {
          "duration": 0.10984837500001277,
          "durationTicks": 29,
          "midi": 47,
          "name": "B2",
          "ticks": 35338,
          "time": 133.85592675,
          "velocity": 0.8188976377952756
        },
        {
          "duration": 0.11742412499998522,
          "durationTicks": 31,
          "midi": 42,
          "name": "F#2",
          "ticks": 35367,
          "time": 133.96577512500002,
          "velocity": 0.8188976377952756
        },
        {
          "duration": 0.12121200000001409,
          "durationTicks": 32,
          "midi": 35,
          "name": "B1",
          "ticks": 35398,
          "time": 134.08319925,
          "velocity": 0.8188976377952756
        },
        {
          "duration": 0.10984837499998434,
          "durationTicks": 29,
          "midi": 38,
          "name": "D2",
          "ticks": 35430,
          "time": 134.20441125000002,
          "velocity": 0.8188976377952756
        },
        {
          "duration": 0.10984837500001277,
          "durationTicks": 29,
          "midi": 42,
          "name": "F#2",
          "ticks": 35459,
          "time": 134.314259625,
          "velocity": 0.8188976377952756
        },
        {
          "duration": 0.12121199999998566,
          "durationTicks": 32,
          "midi": 47,
          "name": "B2",
          "ticks": 35488,
          "time": 134.42410800000002,
          "velocity": 0.8188976377952756
        },
        {
          "duration": 0.10984837500001277,
          "durationTicks": 29,
          "midi": 35,
          "name": "B1",
          "ticks": 35520,
          "time": 134.54532,
          "velocity": 0.8188976377952756
        },
        {
          "duration": 0.12121199999998566,
          "durationTicks": 32,
          "midi": 47,
          "name": "B2",
          "ticks": 35578,
          "time": 134.76501675000003,
          "velocity": 0.8188976377952756
        },
        {
          "duration": 0.10984837499998434,
          "durationTicks": 29,
          "midi": 42,
          "name": "F#2",
          "ticks": 35610,
          "time": 134.88622875000001,
          "velocity": 0.8188976377952756
        },
        {
          "duration": 0.10984837500001277,
          "durationTicks": 29,
          "midi": 30,
          "name": "F#1",
          "ticks": 35639,
          "time": 134.996077125,
          "velocity": 0.8188976377952756
        },
        {
          "duration": 0.11742412499998522,
          "durationTicks": 31,
          "midi": 47,
          "name": "B2",
          "ticks": 35697,
          "time": 135.21577387500002,
          "velocity": 0.8188976377952756
        },
        {
          "duration": 0.12121199999998566,
          "durationTicks": 32,
          "midi": 42,
          "name": "F#2",
          "ticks": 35728,
          "time": 135.333198,
          "velocity": 0.8188976377952756
        },
        {
          "duration": 0.10984837500001277,
          "durationTicks": 29,
          "midi": 35,
          "name": "B1",
          "ticks": 35760,
          "time": 135.45441,
          "velocity": 0.8188976377952756
        },
        {
          "duration": 0.12121199999998566,
          "durationTicks": 32,
          "midi": 47,
          "name": "B2",
          "ticks": 35818,
          "time": 135.67410675000002,
          "velocity": 0.8188976377952756
        },
        {
          "duration": 0.10984837500001277,
          "durationTicks": 29,
          "midi": 42,
          "name": "F#2",
          "ticks": 35850,
          "time": 135.79531875,
          "velocity": 0.8188976377952756
        },
        {
          "duration": 0.10984837499998434,
          "durationTicks": 29,
          "midi": 30,
          "name": "F#1",
          "ticks": 35879,
          "time": 135.90516712500002,
          "velocity": 0.8188976377952756
        },
        {
          "duration": 0.12121200000001409,
          "durationTicks": 32,
          "midi": 38,
          "name": "D2",
          "ticks": 35908,
          "time": 136.0150155,
          "velocity": 0.8188976377952756
        },
        {
          "duration": 0.10984837499998434,
          "durationTicks": 29,
          "midi": 42,
          "name": "F#2",
          "ticks": 35940,
          "time": 136.13622750000002,
          "velocity": 0.7322834645669292
        },
        {
          "duration": 0.10984837500001277,
          "durationTicks": 29,
          "midi": 47,
          "name": "B2",
          "ticks": 35969,
          "time": 136.246075875,
          "velocity": 0.8188976377952756
        },
        {
          "duration": 0.10984837499998434,
          "durationTicks": 29,
          "midi": 35,
          "name": "B1",
          "ticks": 36000,
          "time": 136.36350000000002,
          "velocity": 0.8188976377952756
        },
        {
          "duration": 0.12121199999998566,
          "durationTicks": 32,
          "midi": 47,
          "name": "B2",
          "ticks": 36058,
          "time": 136.58319675,
          "velocity": 0.8188976377952756
        },
        {
          "duration": 0.10984837500001277,
          "durationTicks": 29,
          "midi": 42,
          "name": "F#2",
          "ticks": 36090,
          "time": 136.70440875,
          "velocity": 0.8188976377952756
        },
        {
          "duration": 0.10984837500001277,
          "durationTicks": 29,
          "midi": 30,
          "name": "F#1",
          "ticks": 36119,
          "time": 136.814257125,
          "velocity": 0.8188976377952756
        },
        {
          "duration": 0.10984837500001277,
          "durationTicks": 29,
          "midi": 47,
          "name": "B2",
          "ticks": 36180,
          "time": 137.0453175,
          "velocity": 0.8188976377952756
        },
        {
          "duration": 0.10984837499998434,
          "durationTicks": 29,
          "midi": 42,
          "name": "F#2",
          "ticks": 36209,
          "time": 137.15516587500002,
          "velocity": 0.8188976377952756
        },
        {
          "duration": 0.12121200000001409,
          "durationTicks": 32,
          "midi": 35,
          "name": "B1",
          "ticks": 36238,
          "time": 137.26501425,
          "velocity": 0.8188976377952756
        },
        {
          "duration": 0.10984837500001277,
          "durationTicks": 29,
          "midi": 47,
          "name": "B2",
          "ticks": 36299,
          "time": 137.496074625,
          "velocity": 0.8188976377952756
        },
        {
          "duration": 0.10984837500001277,
          "durationTicks": 29,
          "midi": 42,
          "name": "F#2",
          "ticks": 36328,
          "time": 137.60592300000002,
          "velocity": 0.8188976377952756
        },
        {
          "duration": 0.11742412499998522,
          "durationTicks": 31,
          "midi": 30,
          "name": "F#1",
          "ticks": 36357,
          "time": 137.71577137500003,
          "velocity": 0.8188976377952756
        },
        {
          "duration": 0.10984837500001277,
          "durationTicks": 29,
          "midi": 38,
          "name": "D2",
          "ticks": 36388,
          "time": 137.83319550000002,
          "velocity": 0.8188976377952756
        },
        {
          "duration": 0.10984837500001277,
          "durationTicks": 29,
          "midi": 42,
          "name": "F#2",
          "ticks": 36420,
          "time": 137.9544075,
          "velocity": 0.8188976377952756
        },
        {
          "duration": 0.10984837500001277,
          "durationTicks": 29,
          "midi": 47,
          "name": "B2",
          "ticks": 36449,
          "time": 138.06425587500001,
          "velocity": 0.8188976377952756
        },
        {
          "duration": 0.12121199999998566,
          "durationTicks": 32,
          "midi": 35,
          "name": "B1",
          "ticks": 36478,
          "time": 138.17410425000003,
          "velocity": 0.8188976377952756
        },
        {
          "duration": 0.10984837499998434,
          "durationTicks": 29,
          "midi": 47,
          "name": "B2",
          "ticks": 36539,
          "time": 138.40516462500003,
          "velocity": 0.8188976377952756
        },
        {
          "duration": 0.12121199999998566,
          "durationTicks": 32,
          "midi": 42,
          "name": "F#2",
          "ticks": 36568,
          "time": 138.515013,
          "velocity": 0.8188976377952756
        },
        {
          "duration": 0.10984837500001277,
          "durationTicks": 29,
          "midi": 35,
          "name": "B1",
          "ticks": 36600,
          "time": 138.636225,
          "velocity": 0.8188976377952756
        },
        {
          "duration": 0.10984837500001277,
          "durationTicks": 29,
          "midi": 38,
          "name": "D2",
          "ticks": 36629,
          "time": 138.746073375,
          "velocity": 0.8188976377952756
        },
        {
          "duration": 0.10984837500001277,
          "durationTicks": 29,
          "midi": 42,
          "name": "F#2",
          "ticks": 36658,
          "time": 138.85592175000002,
          "velocity": 0.8188976377952756
        },
        {
          "duration": 0.11742412499998522,
          "durationTicks": 31,
          "midi": 47,
          "name": "B2",
          "ticks": 36687,
          "time": 138.96577012500003,
          "velocity": 0.8188976377952756
        },
        {
          "duration": 0.10984837500001277,
          "durationTicks": 29,
          "midi": 33,
          "name": "A1",
          "ticks": 36718,
          "time": 139.08319425000002,
          "velocity": 0.8188976377952756
        },
        {
          "duration": 0.10984837500001277,
          "durationTicks": 29,
          "midi": 45,
          "name": "A2",
          "ticks": 36779,
          "time": 139.31425462500002,
          "velocity": 0.8188976377952756
        },
        {
          "duration": 0.12121199999998566,
          "durationTicks": 32,
          "midi": 40,
          "name": "E2",
          "ticks": 36808,
          "time": 139.42410300000003,
          "velocity": 0.8188976377952756
        },
        {
          "duration": 0.10984837499998434,
          "durationTicks": 29,
          "midi": 33,
          "name": "A1",
          "ticks": 36840,
          "time": 139.54531500000002,
          "velocity": 0.8188976377952756
        },
        {
          "duration": 0.10984837500001277,
          "durationTicks": 29,
          "midi": 37,
          "name": "C#2",
          "ticks": 36869,
          "time": 139.655163375,
          "velocity": 0.8188976377952756
        },
        {
          "duration": 0.12121199999998566,
          "durationTicks": 32,
          "midi": 40,
          "name": "E2",
          "ticks": 36898,
          "time": 139.76501175,
          "velocity": 0.8188976377952756
        },
        {
          "duration": 0.10984837500001277,
          "durationTicks": 29,
          "midi": 45,
          "name": "A2",
          "ticks": 36930,
          "time": 139.88622375,
          "velocity": 0.8188976377952756
        },
        {
          "duration": 0.10984837500001277,
          "durationTicks": 29,
          "midi": 31,
          "name": "G1",
          "ticks": 36959,
          "time": 139.996072125,
          "velocity": 0.8188976377952756
        },
        {
          "duration": 0.11742412500001365,
          "durationTicks": 31,
          "midi": 43,
          "name": "G2",
          "ticks": 37017,
          "time": 140.215768875,
          "velocity": 0.8188976377952756
        },
        {
          "duration": 0.10984837499998434,
          "durationTicks": 29,
          "midi": 38,
          "name": "D2",
          "ticks": 37048,
          "time": 140.33319300000002,
          "velocity": 0.8188976377952756
        },
        {
          "duration": 0.10984837500001277,
          "durationTicks": 29,
          "midi": 31,
          "name": "G1",
          "ticks": 37080,
          "time": 140.454405,
          "velocity": 0.8188976377952756
        },
        {
          "duration": 0.10984837499998434,
          "durationTicks": 29,
          "midi": 35,
          "name": "B1",
          "ticks": 37109,
          "time": 140.56425337500002,
          "velocity": 0.8188976377952756
        },
        {
          "duration": 0.12121200000001409,
          "durationTicks": 32,
          "midi": 38,
          "name": "D2",
          "ticks": 37138,
          "time": 140.67410175,
          "velocity": 0.8188976377952756
        },
        {
          "duration": 0.10984837499998434,
          "durationTicks": 29,
          "midi": 43,
          "name": "G2",
          "ticks": 37170,
          "time": 140.79531375000002,
          "velocity": 0.8188976377952756
        },
        {
          "duration": 0.10984837500001277,
          "durationTicks": 29,
          "midi": 35,
          "name": "B1",
          "ticks": 37199,
          "time": 140.905162125,
          "velocity": 0.8188976377952756
        },
        {
          "duration": 0.10984837500001277,
          "durationTicks": 29,
          "midi": 47,
          "name": "B2",
          "ticks": 37260,
          "time": 141.1362225,
          "velocity": 0.8188976377952756
        },
        {
          "duration": 0.10984837500001277,
          "durationTicks": 29,
          "midi": 42,
          "name": "F#2",
          "ticks": 37289,
          "time": 141.24607087500002,
          "velocity": 0.8188976377952756
        },
        {
          "duration": 0.10984837499998434,
          "durationTicks": 29,
          "midi": 35,
          "name": "B1",
          "ticks": 37318,
          "time": 141.35591925000003,
          "velocity": 0.8188976377952756
        },
        {
          "duration": 0.11742412500001365,
          "durationTicks": 31,
          "midi": 38,
          "name": "D2",
          "ticks": 37347,
          "time": 141.465767625,
          "velocity": 0.8188976377952756
        },
        {
          "duration": 0.10984837499998434,
          "durationTicks": 29,
          "midi": 42,
          "name": "F#2",
          "ticks": 37378,
          "time": 141.58319175000003,
          "velocity": 0.8188976377952756
        },
        {
          "duration": 0.09090899999998214,
          "durationTicks": 24,
          "midi": 47,
          "name": "B2",
          "ticks": 37410,
          "time": 141.70440375,
          "velocity": 0.8188976377952756
        },
        {
          "duration": 0.10984837499998434,
          "durationTicks": 29,
          "midi": 35,
          "name": "B1",
          "ticks": 37439,
          "time": 141.81425212500002,
          "velocity": 0.8188976377952756
        },
        {
          "duration": 0.10984837499998434,
          "durationTicks": 29,
          "midi": 47,
          "name": "B2",
          "ticks": 37500,
          "time": 142.04531250000002,
          "velocity": 0.8188976377952756
        },
        {
          "duration": 0.10984837500001277,
          "durationTicks": 29,
          "midi": 42,
          "name": "F#2",
          "ticks": 37529,
          "time": 142.155160875,
          "velocity": 0.8188976377952756
        },
        {
          "duration": 0.23106037499999843,
          "durationTicks": 61,
          "midi": 30,
          "name": "F#1",
          "ticks": 37558,
          "time": 142.26500925000002,
          "velocity": 0.8188976377952756
        },
        {
          "duration": 0.10984837500001277,
          "durationTicks": 29,
          "midi": 47,
          "name": "B2",
          "ticks": 37619,
          "time": 142.49606962500002,
          "velocity": 0.8188976377952756
        },
        {
          "duration": 0.11742412499998522,
          "durationTicks": 31,
          "midi": 42,
          "name": "F#2",
          "ticks": 37648,
          "time": 142.60591800000003,
          "velocity": 0.8188976377952756
        },
        {
          "duration": 0.10984837500001277,
          "durationTicks": 29,
          "midi": 35,
          "name": "B1",
          "ticks": 37679,
          "time": 142.72334212500002,
          "velocity": 0.8188976377952756
        },
        {
          "duration": 0.12121200000001409,
          "durationTicks": 32,
          "midi": 47,
          "name": "B2",
          "ticks": 37737,
          "time": 142.943038875,
          "velocity": 0.8188976377952756
        },
        {
          "duration": 0.10984837499998434,
          "durationTicks": 29,
          "midi": 42,
          "name": "F#2",
          "ticks": 37769,
          "time": 143.06425087500003,
          "velocity": 0.8188976377952756
        },
        {
          "duration": 0.12121199999998566,
          "durationTicks": 32,
          "midi": 30,
          "name": "F#1",
          "ticks": 37798,
          "time": 143.17409925,
          "velocity": 0.8188976377952756
        },
        {
          "duration": 0.10984837500001277,
          "durationTicks": 29,
          "midi": 38,
          "name": "D2",
          "ticks": 37830,
          "time": 143.29531125,
          "velocity": 0.8188976377952756
        },
        {
          "duration": 0.10984837500001277,
          "durationTicks": 29,
          "midi": 42,
          "name": "F#2",
          "ticks": 37859,
          "time": 143.405159625,
          "velocity": 0.8188976377952756
        },
        {
          "duration": 0.12121199999998566,
          "durationTicks": 32,
          "midi": 47,
          "name": "B2",
          "ticks": 37888,
          "time": 143.51500800000002,
          "velocity": 0.8188976377952756
        },
        {
          "duration": 0.10984837500001277,
          "durationTicks": 29,
          "midi": 35,
          "name": "B1",
          "ticks": 37920,
          "time": 143.63622,
          "velocity": 0.8188976377952756
        },
        {
          "duration": 0.11742412500001365,
          "durationTicks": 31,
          "midi": 47,
          "name": "B2",
          "ticks": 37978,
          "time": 143.85591675,
          "velocity": 0.8188976377952756
        },
        {
          "duration": 0.10984837499998434,
          "durationTicks": 29,
          "midi": 42,
          "name": "F#2",
          "ticks": 38009,
          "time": 143.97334087500002,
          "velocity": 0.8188976377952756
        },
        {
          "duration": 0.23106037499999843,
          "durationTicks": 61,
          "midi": 30,
          "name": "F#1",
          "ticks": 38038,
          "time": 144.08318925,
          "velocity": 0.8188976377952756
        },
        {
          "duration": 0.10984837500001277,
          "durationTicks": 29,
          "midi": 47,
          "name": "B2",
          "ticks": 38099,
          "time": 144.314249625,
          "velocity": 0.8188976377952756
        },
        {
          "duration": 0.12121199999998566,
          "durationTicks": 32,
          "midi": 42,
          "name": "F#2",
          "ticks": 38128,
          "time": 144.42409800000001,
          "velocity": 0.8188976377952756
        },
        {
          "duration": 0.21969675000002553,
          "durationTicks": 58,
          "midi": 35,
          "name": "B1",
          "ticks": 38160,
          "time": 144.54531,
          "velocity": 0.8188976377952756
        },
        {
          "duration": 0.23106037499999843,
          "durationTicks": 61,
          "midi": 47,
          "name": "B2",
          "ticks": 38218,
          "time": 144.76500675000003,
          "velocity": 0.8188976377952756
        },
        {
          "duration": 0.10984837500001277,
          "durationTicks": 29,
          "midi": 42,
          "name": "F#2",
          "ticks": 38250,
          "time": 144.88621875,
          "velocity": 0.8188976377952756
        },
        {
          "duration": 0.10984837499998434,
          "durationTicks": 29,
          "midi": 30,
          "name": "F#1",
          "ticks": 38279,
          "time": 144.99606712500002,
          "velocity": 0.8188976377952756
        },
        {
          "duration": 0.11742412500001365,
          "durationTicks": 31,
          "midi": 38,
          "name": "D2",
          "ticks": 38308,
          "time": 145.1059155,
          "velocity": 0.8188976377952756
        },
        {
          "duration": 0.10984837499998434,
          "durationTicks": 29,
          "midi": 42,
          "name": "F#2",
          "ticks": 38339,
          "time": 145.22333962500002,
          "velocity": 0.8188976377952756
        },
        {
          "duration": 0.23106037499999843,
          "durationTicks": 61,
          "midi": 47,
          "name": "B2",
          "ticks": 38368,
          "time": 145.333188,
          "velocity": 0.8188976377952756
        },
        {
          "duration": 0.23106037499999843,
          "durationTicks": 61,
          "midi": 35,
          "name": "B1",
          "ticks": 38397,
          "time": 145.44303637500002,
          "velocity": 0.8188976377952756
        },
        {
          "duration": 0.12121199999998566,
          "durationTicks": 32,
          "midi": 42,
          "name": "F#2",
          "ticks": 38458,
          "time": 145.67409675000002,
          "velocity": 0.8188976377952756
        },
        {
          "duration": 0.10984837500001277,
          "durationTicks": 29,
          "midi": 38,
          "name": "D2",
          "ticks": 38490,
          "time": 145.79530875,
          "velocity": 0.8188976377952756
        },
        {
          "duration": 0.23106037499999843,
          "durationTicks": 61,
          "midi": 30,
          "name": "F#1",
          "ticks": 38519,
          "time": 145.90515712500002,
          "velocity": 0.8188976377952756
        },
        {
          "duration": 0.10984837500001277,
          "durationTicks": 29,
          "midi": 42,
          "name": "F#2",
          "ticks": 38580,
          "time": 146.13621750000001,
          "velocity": 0.8188976377952756
        },
        {
          "duration": 0.10984837499998434,
          "durationTicks": 29,
          "midi": 38,
          "name": "D2",
          "ticks": 38609,
          "time": 146.24606587500003,
          "velocity": 0.8188976377952756
        },
        {
          "duration": 0.11742412500001365,
          "durationTicks": 31,
          "midi": 35,
          "name": "B1",
          "ticks": 38638,
          "time": 146.35591425,
          "velocity": 0.8188976377952756
        },
        {
          "duration": 0.10984837500001277,
          "durationTicks": 29,
          "midi": 42,
          "name": "F#2",
          "ticks": 38698,
          "time": 146.58318675,
          "velocity": 0.8188976377952756
        },
        {
          "duration": 0.09848474999998302,
          "durationTicks": 26,
          "midi": 38,
          "name": "D2",
          "ticks": 38730,
          "time": 146.70439875000002,
          "velocity": 0.8188976377952756
        },
        {
          "duration": 0.12121200000001409,
          "durationTicks": 32,
          "midi": 30,
          "name": "F#1",
          "ticks": 38756,
          "time": 146.8028835,
          "velocity": 0.8188976377952756
        },
        {
          "duration": 0.12121199999998566,
          "durationTicks": 32,
          "midi": 42,
          "name": "F#2",
          "ticks": 38817,
          "time": 147.03394387500003,
          "velocity": 0.8188976377952756
        },
        {
          "duration": 0.10984837499998434,
          "durationTicks": 29,
          "midi": 38,
          "name": "D2",
          "ticks": 38849,
          "time": 147.15515587500002,
          "velocity": 0.8188976377952756
        },
        {
          "duration": 0.23106037499999843,
          "durationTicks": 61,
          "midi": 35,
          "name": "B1",
          "ticks": 38878,
          "time": 147.26500425,
          "velocity": 0.8188976377952756
        },
        {
          "duration": 0.10984837500001277,
          "durationTicks": 29,
          "midi": 42,
          "name": "F#2",
          "ticks": 38939,
          "time": 147.496064625,
          "velocity": 0.8188976377952756
        },
        {
          "duration": 0.11742412499998522,
          "durationTicks": 31,
          "midi": 38,
          "name": "D2",
          "ticks": 38968,
          "time": 147.60591300000002,
          "velocity": 0.8188976377952756
        },
        {
          "duration": 0.10984837500001277,
          "durationTicks": 29,
          "midi": 30,
          "name": "F#1",
          "ticks": 38999,
          "time": 147.723337125,
          "velocity": 0.8188976377952756
        },
        {
          "duration": 0.12121199999998566,
          "durationTicks": 32,
          "midi": 42,
          "name": "F#2",
          "ticks": 39057,
          "time": 147.94303387500003,
          "velocity": 0.8188976377952756
        },
        {
          "duration": 0.10984837500001277,
          "durationTicks": 29,
          "midi": 38,
          "name": "D2",
          "ticks": 39089,
          "time": 148.064245875,
          "velocity": 0.8188976377952756
        },
        {
          "duration": 0.10984837499998434,
          "durationTicks": 29,
          "midi": 35,
          "name": "B1",
          "ticks": 39118,
          "time": 148.17409425000002,
          "velocity": 0.8188976377952756
        },
        {
          "duration": 0.10984837499998434,
          "durationTicks": 29,
          "midi": 42,
          "name": "F#2",
          "ticks": 39179,
          "time": 148.40515462500002,
          "velocity": 0.8188976377952756
        },
        {
          "duration": 0.12121200000001409,
          "durationTicks": 32,
          "midi": 38,
          "name": "D2",
          "ticks": 39208,
          "time": 148.515003,
          "velocity": 0.8188976377952756
        },
        {
          "duration": 0.2196967499999971,
          "durationTicks": 58,
          "midi": 30,
          "name": "F#1",
          "ticks": 39240,
          "time": 148.63621500000002,
          "velocity": 0.8188976377952756
        },
        {
          "duration": 0.11742412499998522,
          "durationTicks": 31,
          "midi": 42,
          "name": "F#2",
          "ticks": 39298,
          "time": 148.85591175000002,
          "velocity": 0.8188976377952756
        },
        {
          "duration": 0.10984837500001277,
          "durationTicks": 29,
          "midi": 38,
          "name": "D2",
          "ticks": 39329,
          "time": 148.973335875,
          "velocity": 0.8188976377952756
        },
        {
          "duration": 0.23106037499999843,
          "durationTicks": 61,
          "midi": 35,
          "name": "B1",
          "ticks": 39358,
          "time": 149.08318425000002,
          "velocity": 0.8188976377952756
        },
        {
          "duration": 0.26136337499997353,
          "durationTicks": 69,
          "midi": 35,
          "name": "B1",
          "ticks": 39609,
          "time": 150.033940875,
          "velocity": 0.8188976377952756
        },
        {
          "duration": 0.28030274999997573,
          "durationTicks": 74,
          "midi": 35,
          "name": "B1",
          "ticks": 39886,
          "time": 151.08318225000002,
          "velocity": 0.8188976377952756
        },
        {
          "duration": 0.321969375000009,
          "durationTicks": 85,
          "midi": 35,
          "name": "B1",
          "ticks": 40195,
          "time": 152.25363562500002,
          "velocity": 0.8188976377952756
        },
        {
          "duration": 0.3522723750000125,
          "durationTicks": 93,
          "midi": 35,
          "name": "B1",
          "ticks": 40538,
          "time": 153.55287675,
          "velocity": 0.8188976377952756
        }
      ],
      "endOfTrackTicks": 40631
    },
    {
      "channel": 9,
      "controlChanges": {
        "7": [
          {
            "number": 7,
            "ticks": 0,
            "time": 0,
            "value": 0.8188976377952756
          }
        ],
        "10": [
          {
            "number": 10,
            "ticks": 0,
            "time": 0,
            "value": 0.5039370078740157
          }
        ],
        "91": [
          {
            "number": 91,
            "ticks": 0,
            "time": 0,
            "value": 0
          }
        ]
      },
      "pitchBends": [],
      "instrument": {
        "family": "drums",
        "number": 0,
        "name": "standard kit"
      },
      "name": "Drums",
      "notes": [
        {
          "duration": 0.10984837500000001,
          "durationTicks": 29,
          "midi": 54,
          "name": "F#3",
          "ticks": 0,
          "time": 0,
          "velocity": 0.8188976377952756
        },
        {
          "duration": 0.11742412500000005,
          "durationTicks": 31,
          "midi": 54,
          "name": "F#3",
          "ticks": 120,
          "time": 0.45454500000000003,
          "velocity": 0.8188976377952756
        },
        {
          "duration": 0.109848375,
          "durationTicks": 29,
          "midi": 54,
          "name": "F#3",
          "ticks": 240,
          "time": 0.9090900000000001,
          "velocity": 0.8188976377952756
        },
        {
          "duration": 0.12121199999999988,
          "durationTicks": 32,
          "midi": 54,
          "name": "F#3",
          "ticks": 360,
          "time": 1.3636350000000002,
          "velocity": 0.8188976377952756
        },
        {
          "duration": 0.09848475000000012,
          "durationTicks": 26,
          "midi": 54,
          "name": "F#3",
          "ticks": 480,
          "time": 1.8181800000000001,
          "velocity": 0.8188976377952756
        },
        {
          "duration": 0.12878774999999987,
          "durationTicks": 34,
          "midi": 54,
          "name": "F#3",
          "ticks": 600,
          "time": 2.2727250000000003,
          "velocity": 0.8188976377952756
        },
        {
          "duration": 0.12121199999999988,
          "durationTicks": 32,
          "midi": 54,
          "name": "F#3",
          "ticks": 720,
          "time": 2.7272700000000003,
          "velocity": 0.8188976377952756
        },
        {
          "duration": 0.12121199999999988,
          "durationTicks": 32,
          "midi": 54,
          "name": "F#3",
          "ticks": 840,
          "time": 3.1818150000000003,
          "velocity": 0.8188976377952756
        },
        {
          "duration": 0.12121200000000032,
          "durationTicks": 32,
          "midi": 54,
          "name": "F#3",
          "ticks": 960,
          "time": 3.6363600000000003,
          "velocity": 0.8188976377952756
        },
        {
          "duration": 0.11742412499999944,
          "durationTicks": 31,
          "midi": 54,
          "name": "F#3",
          "ticks": 1080,
          "time": 4.090905,
          "velocity": 0.8188976377952756
        },
        {
          "duration": 0.10984837500000033,
          "durationTicks": 29,
          "midi": 54,
          "name": "F#3",
          "ticks": 1200,
          "time": 4.545450000000001,
          "velocity": 0.8188976377952756
        },
        {
          "duration": 0.12121200000000076,
          "durationTicks": 32,
          "midi": 54,
          "name": "F#3",
          "ticks": 1320,
          "time": 4.999995,
          "velocity": 0.8188976377952756
        },
        {
          "duration": 0.11742412499999944,
          "durationTicks": 31,
          "midi": 54,
          "name": "F#3",
          "ticks": 1440,
          "time": 5.454540000000001,
          "velocity": 0.8188976377952756
        },
        {
          "duration": 0.12121200000000076,
          "durationTicks": 32,
          "midi": 54,
          "name": "F#3",
          "ticks": 1560,
          "time": 5.909085,
          "velocity": 0.8188976377952756
        },
        {
          "duration": 0.12121199999999988,
          "durationTicks": 32,
          "midi": 54,
          "name": "F#3",
          "ticks": 1680,
          "time": 6.363630000000001,
          "velocity": 0.8188976377952756
        },
        {
          "duration": 0.09848475000000079,
          "durationTicks": 26,
          "midi": 54,
          "name": "F#3",
          "ticks": 1800,
          "time": 6.818175,
          "velocity": 0.8188976377952756
        },
        {
          "duration": 0.10984837500000033,
          "durationTicks": 29,
          "midi": 54,
          "name": "F#3",
          "ticks": 1920,
          "time": 7.2727200000000005,
          "velocity": 0.8188976377952756
        },
        {
          "duration": 0.12878775000000076,
          "durationTicks": 34,
          "midi": 54,
          "name": "F#3",
          "ticks": 2040,
          "time": 7.727265000000001,
          "velocity": 0.8188976377952756
        },
        {
          "duration": 0.12121199999999988,
          "durationTicks": 32,
          "midi": 54,
          "name": "F#3",
          "ticks": 2160,
          "time": 8.18181,
          "velocity": 0.8188976377952756
        },
        {
          "duration": 0.12121199999999988,
          "durationTicks": 32,
          "midi": 54,
          "name": "F#3",
          "ticks": 2280,
          "time": 8.636355,
          "velocity": 0.8188976377952756
        },
        {
          "duration": 0.11742412499999944,
          "durationTicks": 31,
          "midi": 54,
          "name": "F#3",
          "ticks": 2400,
          "time": 9.090900000000001,
          "velocity": 0.8188976377952756
        },
        {
          "duration": 0.12121199999999988,
          "durationTicks": 32,
          "midi": 54,
          "name": "F#3",
          "ticks": 2520,
          "time": 9.545445,
          "velocity": 0.8188976377952756
        },
        {
          "duration": 0.10984837500000033,
          "durationTicks": 29,
          "midi": 54,
          "name": "F#3",
          "ticks": 2640,
          "time": 9.99999,
          "velocity": 0.8188976377952756
        },
        {
          "duration": 0.11742412500000121,
          "durationTicks": 31,
          "midi": 54,
          "name": "F#3",
          "ticks": 2760,
          "time": 10.454535,
          "velocity": 0.8188976377952756
        },
        {
          "duration": 0.10984837500000033,
          "durationTicks": 29,
          "midi": 54,
          "name": "F#3",
          "ticks": 2880,
          "time": 10.909080000000001,
          "velocity": 0.8188976377952756
        },
        {
          "duration": 0.12878775000000076,
          "durationTicks": 34,
          "midi": 54,
          "name": "F#3",
          "ticks": 3000,
          "time": 11.363625,
          "velocity": 0.8188976377952756
        },
        {
          "duration": 0.11742412500000121,
          "durationTicks": 31,
          "midi": 54,
          "name": "F#3",
          "ticks": 3120,
          "time": 11.81817,
          "velocity": 0.8188976377952756
        },
        {
          "duration": 0.10984837500000033,
          "durationTicks": 29,
          "midi": 54,
          "name": "F#3",
          "ticks": 3240,
          "time": 12.272715000000002,
          "velocity": 0.8188976377952756
        },
        {
          "duration": 0.12121199999999988,
          "durationTicks": 32,
          "midi": 54,
          "name": "F#3",
          "ticks": 3360,
          "time": 12.727260000000001,
          "velocity": 0.8188976377952756
        },
        {
          "duration": 0.12878775000000076,
          "durationTicks": 34,
          "midi": 54,
          "name": "F#3",
          "ticks": 3480,
          "time": 13.181805,
          "velocity": 0.8188976377952756
        },
        {
          "duration": 0.12121199999999988,
          "durationTicks": 32,
          "midi": 54,
          "name": "F#3",
          "ticks": 3600,
          "time": 13.63635,
          "velocity": 0.8188976377952756
        },
        {
          "duration": 0.10227262499999945,
          "durationTicks": 27,
          "midi": 54,
          "name": "F#3",
          "ticks": 3720,
          "time": 14.090895000000002,
          "velocity": 0.8188976377952756
        },
        {
          "duration": 0.12121199999999988,
          "durationTicks": 32,
          "midi": 54,
          "name": "F#3",
          "ticks": 3840,
          "time": 14.545440000000001,
          "velocity": 0.8188976377952756
        },
        {
          "duration": 0.10984837500000033,
          "durationTicks": 29,
          "midi": 54,
          "name": "F#3",
          "ticks": 3960,
          "time": 14.999985,
          "velocity": 0.8188976377952756
        },
        {
          "duration": 0.11742412499999944,
          "durationTicks": 31,
          "midi": 54,
          "name": "F#3",
          "ticks": 4080,
          "time": 15.454530000000002,
          "velocity": 0.8188976377952756
        },
        {
          "duration": 0.12121199999999988,
          "durationTicks": 32,
          "midi": 54,
          "name": "F#3",
          "ticks": 4200,
          "time": 15.909075000000001,
          "velocity": 0.8188976377952756
        },
        {
          "duration": 0.12121199999999988,
          "durationTicks": 32,
          "midi": 54,
          "name": "F#3",
          "ticks": 4320,
          "time": 16.36362,
          "velocity": 0.8188976377952756
        },
        {
          "duration": 0.12878775000000076,
          "durationTicks": 34,
          "midi": 54,
          "name": "F#3",
          "ticks": 4440,
          "time": 16.818165,
          "velocity": 0.8188976377952756
        },
        {
          "duration": 0.12121199999999988,
          "durationTicks": 32,
          "midi": 54,
          "name": "F#3",
          "ticks": 4560,
          "time": 17.27271,
          "velocity": 0.8188976377952756
        },
        {
          "duration": 0.12121199999999988,
          "durationTicks": 32,
          "midi": 54,
          "name": "F#3",
          "ticks": 4680,
          "time": 17.727255,
          "velocity": 0.8188976377952756
        },
        {
          "duration": 0.12121199999999988,
          "durationTicks": 32,
          "midi": 54,
          "name": "F#3",
          "ticks": 4800,
          "time": 18.181800000000003,
          "velocity": 0.8188976377952756
        },
        {
          "duration": 0.12121199999999988,
          "durationTicks": 32,
          "midi": 54,
          "name": "F#3",
          "ticks": 4920,
          "time": 18.636345000000002,
          "velocity": 0.8188976377952756
        },
        {
          "duration": 0.10227262500000123,
          "durationTicks": 27,
          "midi": 54,
          "name": "F#3",
          "ticks": 5040,
          "time": 19.09089,
          "velocity": 0.8188976377952756
        },
        {
          "duration": 0.12121199999999988,
          "durationTicks": 32,
          "midi": 54,
          "name": "F#3",
          "ticks": 5160,
          "time": 19.545435,
          "velocity": 0.8188976377952756
        },
        {
          "duration": 0.10984837500000211,
          "durationTicks": 29,
          "midi": 54,
          "name": "F#3",
          "ticks": 5280,
          "time": 19.99998,
          "velocity": 0.8188976377952756
        },
        {
          "duration": 0.12878775000000076,
          "durationTicks": 34,
          "midi": 54,
          "name": "F#3",
          "ticks": 5400,
          "time": 20.454525,
          "velocity": 0.8188976377952756
        },
        {
          "duration": 0.1325756250000012,
          "durationTicks": 35,
          "midi": 54,
          "name": "F#3",
          "ticks": 5520,
          "time": 20.90907,
          "velocity": 0.8188976377952756
        },
        {
          "duration": 0.10984837499999855,
          "durationTicks": 29,
          "midi": 54,
          "name": "F#3",
          "ticks": 5640,
          "time": 21.363615000000003,
          "velocity": 0.8188976377952756
        },
        {
          "duration": 0.11742412499999944,
          "durationTicks": 31,
          "midi": 54,
          "name": "F#3",
          "ticks": 5760,
          "time": 21.818160000000002,
          "velocity": 0.8188976377952756
        },
        {
          "duration": 0.1287877499999972,
          "durationTicks": 34,
          "midi": 54,
          "name": "F#3",
          "ticks": 5880,
          "time": 22.272705000000002,
          "velocity": 0.8188976377952756
        },
        {
          "duration": 0.12121199999999988,
          "durationTicks": 32,
          "midi": 54,
          "name": "F#3",
          "ticks": 6000,
          "time": 22.72725,
          "velocity": 0.8188976377952756
        },
        {
          "duration": 0.10984837500000211,
          "durationTicks": 29,
          "midi": 54,
          "name": "F#3",
          "ticks": 6120,
          "time": 23.181795,
          "velocity": 0.8188976377952756
        },
        {
          "duration": 0.12121199999999988,
          "durationTicks": 32,
          "midi": 54,
          "name": "F#3",
          "ticks": 6240,
          "time": 23.63634,
          "velocity": 0.8188976377952756
        },
        {
          "duration": 0.10227262500000123,
          "durationTicks": 27,
          "midi": 54,
          "name": "F#3",
          "ticks": 6360,
          "time": 24.090885,
          "velocity": 0.8188976377952756
        },
        {
          "duration": 0.12121199999999988,
          "durationTicks": 32,
          "midi": 54,
          "name": "F#3",
          "ticks": 6480,
          "time": 24.545430000000003,
          "velocity": 0.8188976377952756
        },
        {
          "duration": 0.12121199999999988,
          "durationTicks": 32,
          "midi": 54,
          "name": "F#3",
          "ticks": 6600,
          "time": 24.999975000000003,
          "velocity": 0.8188976377952756
        },
        {
          "duration": 0.11742412499999944,
          "durationTicks": 31,
          "midi": 54,
          "name": "F#3",
          "ticks": 6720,
          "time": 25.454520000000002,
          "velocity": 0.8188976377952756
        },
        {
          "duration": 0.13257562499999764,
          "durationTicks": 35,
          "midi": 54,
          "name": "F#3",
          "ticks": 6840,
          "time": 25.909065000000002,
          "velocity": 0.8188976377952756
        },
        {
          "duration": 0.10984837499999855,
          "durationTicks": 29,
          "midi": 42,
          "name": "F#2",
          "ticks": 6840,
          "time": 25.909065000000002,
          "velocity": 0.9448818897637795
        },
        {
          "duration": 0.12121199999999988,
          "durationTicks": 32,
          "midi": 54,
          "name": "F#3",
          "ticks": 6960,
          "time": 26.36361,
          "velocity": 0.8188976377952756
        },
        {
          "duration": 0.11742412499999944,
          "durationTicks": 31,
          "midi": 54,
          "name": "F#3",
          "ticks": 7080,
          "time": 26.818155,
          "velocity": 0.8188976377952756
        },
        {
          "duration": 0.10984837500000211,
          "durationTicks": 29,
          "midi": 54,
          "name": "F#3",
          "ticks": 7200,
          "time": 27.2727,
          "velocity": 0.8188976377952756
        },
        {
          "duration": 0.1287877499999972,
          "durationTicks": 34,
          "midi": 54,
          "name": "F#3",
          "ticks": 7320,
          "time": 27.727245000000003,
          "velocity": 0.8188976377952756
        },
        {
          "duration": 0.1704543749999985,
          "durationTicks": 45,
          "midi": 42,
          "name": "F#2",
          "ticks": 7320,
          "time": 27.727245000000003,
          "velocity": 0.9448818897637795
        },
        {
          "duration": 0.09848475000000079,
          "durationTicks": 26,
          "midi": 54,
          "name": "F#3",
          "ticks": 7440,
          "time": 28.181790000000003,
          "velocity": 0.8188976377952756
        },
        {
          "duration": 0.12121199999999988,
          "durationTicks": 32,
          "midi": 54,
          "name": "F#3",
          "ticks": 7560,
          "time": 28.636335000000003,
          "velocity": 0.8188976377952756
        },
        {
          "duration": 0.10227262499999767,
          "durationTicks": 27,
          "midi": 54,
          "name": "F#3",
          "ticks": 7680,
          "time": 29.090880000000002,
          "velocity": 0.8188976377952756
        },
        {
          "duration": 0.12121199999999988,
          "durationTicks": 32,
          "midi": 54,
          "name": "F#3",
          "ticks": 7800,
          "time": 29.545425,
          "velocity": 0.8188976377952756
        },
        {
          "duration": 0.17045437500000205,
          "durationTicks": 45,
          "midi": 42,
          "name": "F#2",
          "ticks": 7800,
          "time": 29.545425,
          "velocity": 0.9448818897637795
        },
        {
          "duration": 0.12121199999999988,
          "durationTicks": 32,
          "midi": 54,
          "name": "F#3",
          "ticks": 7920,
          "time": 29.99997,
          "velocity": 0.8188976377952756
        },
        {
          "duration": 0.10984837499999855,
          "durationTicks": 29,
          "midi": 54,
          "name": "F#3",
          "ticks": 8040,
          "time": 30.454515,
          "velocity": 0.8188976377952756
        },
        {
          "duration": 0.17045437500000205,
          "durationTicks": 45,
          "midi": 42,
          "name": "F#2",
          "ticks": 8040,
          "time": 30.454515,
          "velocity": 0.9448818897637795
        },
        {
          "duration": 0.109848374999995,
          "durationTicks": 29,
          "midi": 54,
          "name": "F#3",
          "ticks": 8160,
          "time": 30.909060000000004,
          "velocity": 0.8188976377952756
        },
        {
          "duration": 0.12121199999999988,
          "durationTicks": 32,
          "midi": 54,
          "name": "F#3",
          "ticks": 8280,
          "time": 31.363605000000003,
          "velocity": 0.8188976377952756
        },
        {
          "duration": 0.1287877499999972,
          "durationTicks": 34,
          "midi": 42,
          "name": "F#2",
          "ticks": 8280,
          "time": 31.363605000000003,
          "velocity": 0.9448818897637795
        },
        {
          "duration": 0.11742412500000299,
          "durationTicks": 31,
          "midi": 54,
          "name": "F#3",
          "ticks": 8400,
          "time": 31.818150000000003,
          "velocity": 0.8188976377952756
        },
        {
          "duration": 0.12121199999999988,
          "durationTicks": 32,
          "midi": 54,
          "name": "F#3",
          "ticks": 8520,
          "time": 32.272695,
          "velocity": 0.8188976377952756
        },
        {
          "duration": 0.12121199999999988,
          "durationTicks": 32,
          "midi": 54,
          "name": "F#3",
          "ticks": 8640,
          "time": 32.72724,
          "velocity": 0.8188976377952756
        },
        {
          "duration": 0.12121199999999988,
          "durationTicks": 32,
          "midi": 54,
          "name": "F#3",
          "ticks": 8760,
          "time": 33.181785000000005,
          "velocity": 0.8188976377952756
        },
        {
          "duration": 0.1704543749999985,
          "durationTicks": 45,
          "midi": 42,
          "name": "F#2",
          "ticks": 8760,
          "time": 33.181785000000005,
          "velocity": 0.9448818897637795
        },
        {
          "duration": 0.12121199999999988,
          "durationTicks": 32,
          "midi": 54,
          "name": "F#3",
          "ticks": 8880,
          "time": 33.63633,
          "velocity": 0.8188976377952756
        },
        {
          "duration": 0.12878775000000076,
          "durationTicks": 34,
          "midi": 54,
          "name": "F#3",
          "ticks": 9000,
          "time": 34.090875000000004,
          "velocity": 0.8188976377952756
        },
        {
          "duration": 0.12121199999999988,
          "durationTicks": 32,
          "midi": 54,
          "name": "F#3",
          "ticks": 9120,
          "time": 34.54542,
          "velocity": 0.8188976377952756
        },
        {
          "duration": 0.12121199999999988,
          "durationTicks": 32,
          "midi": 54,
          "name": "F#3",
          "ticks": 9240,
          "time": 34.999965,
          "velocity": 0.8188976377952756
        },
        {
          "duration": 0.1893937500000007,
          "durationTicks": 50,
          "midi": 42,
          "name": "F#2",
          "ticks": 9240,
          "time": 34.999965,
          "velocity": 0.9448818897637795
        },
        {
          "duration": 0.11742412500000654,
          "durationTicks": 31,
          "midi": 54,
          "name": "F#3",
          "ticks": 9360,
          "time": 35.45451,
          "velocity": 0.8188976377952756
        },
        {
          "duration": 0.10984837499999855,
          "durationTicks": 29,
          "midi": 54,
          "name": "F#3",
          "ticks": 9480,
          "time": 35.909055,
          "velocity": 0.8188976377952756
        },
        {
          "duration": 0.12121199999999988,
          "durationTicks": 32,
          "midi": 54,
          "name": "F#3",
          "ticks": 9600,
          "time": 36.363600000000005,
          "velocity": 0.8188976377952756
        },
        {
          "duration": 0.12878775000000076,
          "durationTicks": 34,
          "midi": 54,
          "name": "F#3",
          "ticks": 9720,
          "time": 36.818145,
          "velocity": 0.8188976377952756
        },
        {
          "duration": 0.12878775000000076,
          "durationTicks": 34,
          "midi": 42,
          "name": "F#2",
          "ticks": 9720,
          "time": 36.818145,
          "velocity": 0.9448818897637795
        },
        {
          "duration": 0.09848474999999723,
          "durationTicks": 26,
          "midi": 54,
          "name": "F#3",
          "ticks": 9840,
          "time": 37.272690000000004,
          "velocity": 0.8188976377952756
        },
        {
          "duration": 0.12878775000000076,
          "durationTicks": 34,
          "midi": 54,
          "name": "F#3",
          "ticks": 9960,
          "time": 37.727235,
          "velocity": 0.8188976377952756
        },
        {
          "duration": 0.1515150000000034,
          "durationTicks": 40,
          "midi": 42,
          "name": "F#2",
          "ticks": 9960,
          "time": 37.727235,
          "velocity": 0.9448818897637795
        },
        {
          "duration": 0.09848474999999723,
          "durationTicks": 26,
          "midi": 54,
          "name": "F#3",
          "ticks": 10080,
          "time": 38.18178,
          "velocity": 0.8188976377952756
        },
        {
          "duration": 0.12121199999999988,
          "durationTicks": 32,
          "midi": 54,
          "name": "F#3",
          "ticks": 10200,
          "time": 38.636325,
          "velocity": 0.8188976377952756
        },
        {
          "duration": 0.12121199999999988,
          "durationTicks": 32,
          "midi": 42,
          "name": "F#2",
          "ticks": 10200,
          "time": 38.636325,
          "velocity": 0.9448818897637795
        },
        {
          "duration": 0.037878749999997297,
          "durationTicks": 10,
          "midi": 38,
          "name": "D2",
          "ticks": 10260,
          "time": 38.863597500000004,
          "velocity": 0.6929133858267716
        },
        {
          "duration": 0.06060599999999994,
          "durationTicks": 16,
          "midi": 38,
          "name": "D2",
          "ticks": 10290,
          "time": 38.97723375,
          "velocity": 0.6929133858267716
        },
        {
          "duration": 0.12878775000000076,
          "durationTicks": 34,
          "midi": 54,
          "name": "F#3",
          "ticks": 10320,
          "time": 39.09087,
          "velocity": 0.8188976377952756
        },
        {
          "duration": 0.07196962500000126,
          "durationTicks": 19,
          "midi": 38,
          "name": "D2",
          "ticks": 10350,
          "time": 39.20450625,
          "velocity": 0.6929133858267716
        },
        {
          "duration": 0.04166662500000484,
          "durationTicks": 11,
          "midi": 38,
          "name": "D2",
          "ticks": 10410,
          "time": 39.43177875,
          "velocity": 0.6929133858267716
        },
        {
          "duration": 0.10984837499999145,
          "durationTicks": 29,
          "midi": 54,
          "name": "F#3",
          "ticks": 10440,
          "time": 39.545415000000006,
          "velocity": 0.8188976377952756
        },
        {
          "duration": 0.06060599999999994,
          "durationTicks": 16,
          "midi": 38,
          "name": "D2",
          "ticks": 10440,
          "time": 39.545415000000006,
          "velocity": 0.6929133858267716
        },
        {
          "duration": 0.030302999999996416,
          "durationTicks": 8,
          "midi": 38,
          "name": "D2",
          "ticks": 10500,
          "time": 39.7726875,
          "velocity": 0.6929133858267716
        },
        {
          "duration": 0.030302999999996416,
          "durationTicks": 8,
          "midi": 38,
          "name": "D2",
          "ticks": 10530,
          "time": 39.88632375,
          "velocity": 0.6929133858267716
        },
        {
          "duration": 0.12121199999999988,
          "durationTicks": 32,
          "midi": 54,
          "name": "F#3",
          "ticks": 10560,
          "time": 39.99996,
          "velocity": 0.8188976377952756
        },
        {
          "duration": 0.06818175000000082,
          "durationTicks": 18,
          "midi": 36,
          "name": "C2",
          "ticks": 10560,
          "time": 39.99996,
          "velocity": 0.7559055118110236
        },
        {
          "duration": 0.20075737500000201,
          "durationTicks": 53,
          "midi": 38,
          "name": "D2",
          "ticks": 10560,
          "time": 39.99996,
          "velocity": 0.6929133858267716
        },
        {
          "duration": 0.20075737500000201,
          "durationTicks": 53,
          "midi": 38,
          "name": "D2",
          "ticks": 10620,
          "time": 40.2272325,
          "velocity": 0.6929133858267716
        },
        {
          "duration": 0.12878775000000076,
          "durationTicks": 34,
          "midi": 54,
          "name": "F#3",
          "ticks": 10680,
          "time": 40.454505000000005,
          "velocity": 0.8188976377952756
        },
        {
          "duration": 0.06060599999999994,
          "durationTicks": 16,
          "midi": 36,
          "name": "C2",
          "ticks": 10680,
          "time": 40.454505000000005,
          "velocity": 0.7559055118110236
        },
        {
          "duration": 0.19696950000000157,
          "durationTicks": 52,
          "midi": 38,
          "name": "D2",
          "ticks": 10680,
          "time": 40.454505000000005,
          "velocity": 0.6929133858267716
        },
        {
          "duration": 0.07954537500000214,
          "durationTicks": 21,
          "midi": 38,
          "name": "D2",
          "ticks": 10740,
          "time": 40.6817775,
          "velocity": 0.6929133858267716
        },
        {
          "duration": 0.20075737500000201,
          "durationTicks": 53,
          "midi": 38,
          "name": "D2",
          "ticks": 10770,
          "time": 40.79541375,
          "velocity": 0.6929133858267716
        },
        {
          "duration": 0.10984837499999855,
          "durationTicks": 29,
          "midi": 54,
          "name": "F#3",
          "ticks": 10800,
          "time": 40.90905,
          "velocity": 0.8188976377952756
        },
        {
          "duration": 0.03030300000000352,
          "durationTicks": 8,
          "midi": 36,
          "name": "C2",
          "ticks": 10800,
          "time": 40.90905,
          "velocity": 0.7559055118110236
        },
        {
          "duration": 0.21969675000000422,
          "durationTicks": 58,
          "midi": 38,
          "name": "D2",
          "ticks": 10830,
          "time": 41.02268625,
          "velocity": 0.6929133858267716
        },
        {
          "duration": 0.06060599999999994,
          "durationTicks": 16,
          "midi": 38,
          "name": "D2",
          "ticks": 10890,
          "time": 41.249958750000005,
          "velocity": 0.6929133858267716
        },
        {
          "duration": 0.12121199999999988,
          "durationTicks": 32,
          "midi": 54,
          "name": "F#3",
          "ticks": 10920,
          "time": 41.363595000000004,
          "velocity": 0.8188976377952756
        },
        {
          "duration": 0.06060599999999994,
          "durationTicks": 16,
          "midi": 36,
          "name": "C2",
          "ticks": 10920,
          "time": 41.363595000000004,
          "velocity": 0.7559055118110236
        },
        {
          "duration": 0.2196967499999971,
          "durationTicks": 58,
          "midi": 38,
          "name": "D2",
          "ticks": 10920,
          "time": 41.363595000000004,
          "velocity": 0.6929133858267716
        },
        {
          "duration": 0.12121199999999988,
          "durationTicks": 32,
          "midi": 38,
          "name": "D2",
          "ticks": 10980,
          "time": 41.5908675,
          "velocity": 0.6929133858267716
        },
        {
          "duration": 0.07954537500000214,
          "durationTicks": 21,
          "midi": 38,
          "name": "D2",
          "ticks": 11010,
          "time": 41.70450375,
          "velocity": 0.6929133858267716
        },
        {
          "duration": 0.07954537500000214,
          "durationTicks": 21,
          "midi": 36,
          "name": "C2",
          "ticks": 11040,
          "time": 41.81814,
          "velocity": 0.7559055118110236
        },
        {
          "duration": 0.11742412500000654,
          "durationTicks": 31,
          "midi": 54,
          "name": "F#3",
          "ticks": 11040,
          "time": 41.81814,
          "velocity": 0.8188976377952756
        },
        {
          "duration": 0.20075737500000201,
          "durationTicks": 53,
          "midi": 38,
          "name": "D2",
          "ticks": 11040,
          "time": 41.81814,
          "velocity": 0.6929133858267716
        },
        {
          "duration": 0.1893937500000007,
          "durationTicks": 50,
          "midi": 38,
          "name": "D2",
          "ticks": 11100,
          "time": 42.045412500000005,
          "velocity": 0.6929133858267716
        },
        {
          "duration": 0.04924237499999862,
          "durationTicks": 13,
          "midi": 36,
          "name": "C2",
          "ticks": 11160,
          "time": 42.272685,
          "velocity": 0.7559055118110236
        },
        {
          "duration": 0.12121199999999988,
          "durationTicks": 32,
          "midi": 54,
          "name": "F#3",
          "ticks": 11160,
          "time": 42.272685,
          "velocity": 0.8188976377952756
        },
        {
          "duration": 0.20075737500000201,
          "durationTicks": 53,
          "midi": 38,
          "name": "D2",
          "ticks": 11160,
          "time": 42.272685,
          "velocity": 0.6929133858267716
        },
        {
          "duration": 0.10227262499999767,
          "durationTicks": 27,
          "midi": 38,
          "name": "D2",
          "ticks": 11220,
          "time": 42.4999575,
          "velocity": 0.6929133858267716
        },
        {
          "duration": 0.20075737500000201,
          "durationTicks": 53,
          "midi": 38,
          "name": "D2",
          "ticks": 11250,
          "time": 42.61359375,
          "velocity": 0.6929133858267716
        },
        {
          "duration": 0.04166662499999774,
          "durationTicks": 11,
          "midi": 36,
          "name": "C2",
          "ticks": 11280,
          "time": 42.727230000000006,
          "velocity": 0.7559055118110236
        },
        {
          "duration": 0.10984837499999145,
          "durationTicks": 29,
          "midi": 54,
          "name": "F#3",
          "ticks": 11280,
          "time": 42.727230000000006,
          "velocity": 0.8188976377952756
        },
        {
          "duration": 0.23106037499999843,
          "durationTicks": 61,
          "midi": 38,
          "name": "D2",
          "ticks": 11310,
          "time": 42.840866250000005,
          "velocity": 0.6929133858267716
        },
        {
          "duration": 0.06060599999999994,
          "durationTicks": 16,
          "midi": 38,
          "name": "D2",
          "ticks": 11370,
          "time": 43.06813875,
          "velocity": 0.6929133858267716
        },
        {
          "duration": 0.06060600000000704,
          "durationTicks": 16,
          "midi": 36,
          "name": "C2",
          "ticks": 11400,
          "time": 43.181775,
          "velocity": 0.7559055118110236
        },
        {
          "duration": 0.10984837499999855,
          "durationTicks": 29,
          "midi": 54,
          "name": "F#3",
          "ticks": 11400,
          "time": 43.181775,
          "velocity": 0.8188976377952756
        },
        {
          "duration": 0.1893937500000007,
          "durationTicks": 50,
          "midi": 38,
          "name": "D2",
          "ticks": 11400,
          "time": 43.181775,
          "velocity": 0.6929133858267716
        },
        {
          "duration": 0.1136362500000061,
          "durationTicks": 30,
          "midi": 38,
          "name": "D2",
          "ticks": 11460,
          "time": 43.4090475,
          "velocity": 0.6929133858267716
        },
        {
          "duration": 0.08712112499999591,
          "durationTicks": 23,
          "midi": 38,
          "name": "D2",
          "ticks": 11490,
          "time": 43.522683750000006,
          "velocity": 0.6929133858267716
        },
        {
          "duration": 0.06060599999999994,
          "durationTicks": 16,
          "midi": 36,
          "name": "C2",
          "ticks": 11520,
          "time": 43.636320000000005,
          "velocity": 0.7559055118110236
        },
        {
          "duration": 0.09848474999999723,
          "durationTicks": 26,
          "midi": 54,
          "name": "F#3",
          "ticks": 11520,
          "time": 43.636320000000005,
          "velocity": 0.8188976377952756
        },
        {
          "duration": 0.1893937500000007,
          "durationTicks": 50,
          "midi": 38,
          "name": "D2",
          "ticks": 11520,
          "time": 43.636320000000005,
          "velocity": 0.6929133858267716
        },
        {
          "duration": 0.20075737500000201,
          "durationTicks": 53,
          "midi": 38,
          "name": "D2",
          "ticks": 11580,
          "time": 43.8635925,
          "velocity": 0.6929133858267716
        },
        {
          "duration": 0.06060600000000704,
          "durationTicks": 16,
          "midi": 36,
          "name": "C2",
          "ticks": 11640,
          "time": 44.090865,
          "velocity": 0.7559055118110236
        },
        {
          "duration": 0.12121199999999988,
          "durationTicks": 32,
          "midi": 54,
          "name": "F#3",
          "ticks": 11640,
          "time": 44.090865,
          "velocity": 0.8188976377952756
        },
        {
          "duration": 0.1893937500000078,
          "durationTicks": 50,
          "midi": 38,
          "name": "D2",
          "ticks": 11640,
          "time": 44.090865,
          "velocity": 0.6929133858267716
        },
        {
          "duration": 0.09848474999999723,
          "durationTicks": 26,
          "midi": 38,
          "name": "D2",
          "ticks": 11700,
          "time": 44.318137500000006,
          "velocity": 0.6929133858267716
        },
        {
          "duration": 0.2083331249999958,
          "durationTicks": 55,
          "midi": 38,
          "name": "D2",
          "ticks": 11730,
          "time": 44.431773750000005,
          "velocity": 0.6929133858267716
        },
        {
          "duration": 0.06060599999999994,
          "durationTicks": 16,
          "midi": 36,
          "name": "C2",
          "ticks": 11760,
          "time": 44.545410000000004,
          "velocity": 0.7559055118110236
        },
        {
          "duration": 0.14015137500000208,
          "durationTicks": 37,
          "midi": 54,
          "name": "F#3",
          "ticks": 11760,
          "time": 44.545410000000004,
          "velocity": 0.8188976377952756
        },
        {
          "duration": 0.24242399999999975,
          "durationTicks": 64,
          "midi": 38,
          "name": "D2",
          "ticks": 11790,
          "time": 44.65904625,
          "velocity": 0.6929133858267716
        },
        {
          "duration": 0.04924237500000572,
          "durationTicks": 13,
          "midi": 38,
          "name": "D2",
          "ticks": 11850,
          "time": 44.88631875,
          "velocity": 0.6929133858267716
        },
        {
          "duration": 0.04924237500000572,
          "durationTicks": 13,
          "midi": 36,
          "name": "C2",
          "ticks": 11880,
          "time": 44.999955,
          "velocity": 0.7559055118110236
        },
        {
          "duration": 0.12121199999999988,
          "durationTicks": 32,
          "midi": 54,
          "name": "F#3",
          "ticks": 11880,
          "time": 44.999955,
          "velocity": 0.8188976377952756
        },
        {
          "duration": 0.21212100000000333,
          "durationTicks": 56,
          "midi": 38,
          "name": "D2",
          "ticks": 11880,
          "time": 44.999955,
          "velocity": 0.6929133858267716
        },
        {
          "duration": 0.10984837499999855,
          "durationTicks": 29,
          "midi": 38,
          "name": "D2",
          "ticks": 11940,
          "time": 45.227227500000005,
          "velocity": 0.6929133858267716
        },
        {
          "duration": 0.07954537499999503,
          "durationTicks": 21,
          "midi": 38,
          "name": "D2",
          "ticks": 11970,
          "time": 45.340863750000004,
          "velocity": 0.6929133858267716
        },
        {
          "duration": 0.06818175000000082,
          "durationTicks": 18,
          "midi": 36,
          "name": "C2",
          "ticks": 12000,
          "time": 45.4545,
          "velocity": 0.7559055118110236
        },
        {
          "duration": 0.10984837499999855,
          "durationTicks": 29,
          "midi": 54,
          "name": "F#3",
          "ticks": 12000,
          "time": 45.4545,
          "velocity": 0.8188976377952756
        },
        {
          "duration": 0.19696950000000157,
          "durationTicks": 52,
          "midi": 38,
          "name": "D2",
          "ticks": 12000,
          "time": 45.4545,
          "velocity": 0.6929133858267716
        },
        {
          "duration": 0.2083331250000029,
          "durationTicks": 55,
          "midi": 38,
          "name": "D2",
          "ticks": 12060,
          "time": 45.6817725,
          "velocity": 0.6929133858267716
        },
        {
          "duration": 0.04924237499999862,
          "durationTicks": 13,
          "midi": 36,
          "name": "C2",
          "ticks": 12120,
          "time": 45.909045000000006,
          "velocity": 0.7559055118110236
        },
        {
          "duration": 0.10984837499999145,
          "durationTicks": 29,
          "midi": 54,
          "name": "F#3",
          "ticks": 12120,
          "time": 45.909045000000006,
          "velocity": 0.8188976377952756
        },
        {
          "duration": 0.1893937500000007,
          "durationTicks": 50,
          "midi": 38,
          "name": "D2",
          "ticks": 12120,
          "time": 45.909045000000006,
          "velocity": 0.6929133858267716
        },
        {
          "duration": 0.10984837499999855,
          "durationTicks": 29,
          "midi": 38,
          "name": "D2",
          "ticks": 12180,
          "time": 46.136317500000004,
          "velocity": 0.6929133858267716
        },
        {
          "duration": 0.20075737500000201,
          "durationTicks": 53,
          "midi": 38,
          "name": "D2",
          "ticks": 12210,
          "time": 46.24995375,
          "velocity": 0.6929133858267716
        },
        {
          "duration": 0.037878749999997297,
          "durationTicks": 10,
          "midi": 36,
          "name": "C2",
          "ticks": 12240,
          "time": 46.36359,
          "velocity": 0.7559055118110236
        },
        {
          "duration": 0.10984837499999855,
          "durationTicks": 29,
          "midi": 54,
          "name": "F#3",
          "ticks": 12240,
          "time": 46.36359,
          "velocity": 0.8188976377952756
        },
        {
          "duration": 0.23106037500000554,
          "durationTicks": 61,
          "midi": 38,
          "name": "D2",
          "ticks": 12270,
          "time": 46.47722625,
          "velocity": 0.6929133858267716
        },
        {
          "duration": 0.06060599999999994,
          "durationTicks": 16,
          "midi": 38,
          "name": "D2",
          "ticks": 12330,
          "time": 46.704498750000006,
          "velocity": 0.6929133858267716
        },
        {
          "duration": 0.04924237499999862,
          "durationTicks": 13,
          "midi": 36,
          "name": "C2",
          "ticks": 12360,
          "time": 46.818135000000005,
          "velocity": 0.7559055118110236
        },
        {
          "duration": 0.12878775000000076,
          "durationTicks": 34,
          "midi": 54,
          "name": "F#3",
          "ticks": 12360,
          "time": 46.818135000000005,
          "velocity": 0.8188976377952756
        },
        {
          "duration": 0.2007573749999949,
          "durationTicks": 53,
          "midi": 38,
          "name": "D2",
          "ticks": 12360,
          "time": 46.818135000000005,
          "velocity": 0.6929133858267716
        },
        {
          "duration": 0.09848475000000434,
          "durationTicks": 26,
          "midi": 38,
          "name": "D2",
          "ticks": 12420,
          "time": 47.0454075,
          "velocity": 0.6929133858267716
        },
        {
          "duration": 0.08333325000000258,
          "durationTicks": 22,
          "midi": 38,
          "name": "D2",
          "ticks": 12450,
          "time": 47.15904375,
          "velocity": 0.6929133858267716
        },
        {
          "duration": 0.06060600000000704,
          "durationTicks": 16,
          "midi": 36,
          "name": "C2",
          "ticks": 12480,
          "time": 47.27268,
          "velocity": 0.7559055118110236
        },
        {
          "duration": 0.09848475000000434,
          "durationTicks": 26,
          "midi": 54,
          "name": "F#3",
          "ticks": 12480,
          "time": 47.27268,
          "velocity": 0.8188976377952756
        },
        {
          "duration": 0.1893937500000078,
          "durationTicks": 50,
          "midi": 38,
          "name": "D2",
          "ticks": 12480,
          "time": 47.27268,
          "velocity": 0.6929133858267716
        },
        {
          "duration": 0.2007573749999949,
          "durationTicks": 53,
          "midi": 38,
          "name": "D2",
          "ticks": 12540,
          "time": 47.499952500000006,
          "velocity": 0.6929133858267716
        },
        {
          "duration": 0.06060599999999994,
          "durationTicks": 16,
          "midi": 36,
          "name": "C2",
          "ticks": 12600,
          "time": 47.727225000000004,
          "velocity": 0.7559055118110236
        },
        {
          "duration": 0.10984837499999855,
          "durationTicks": 29,
          "midi": 54,
          "name": "F#3",
          "ticks": 12600,
          "time": 47.727225000000004,
          "velocity": 0.8188976377952756
        },
        {
          "duration": 0.2007573749999949,
          "durationTicks": 53,
          "midi": 38,
          "name": "D2",
          "ticks": 12600,
          "time": 47.727225000000004,
          "velocity": 0.6929133858267716
        },
        {
          "duration": 0.09848475000000434,
          "durationTicks": 26,
          "midi": 38,
          "name": "D2",
          "ticks": 12660,
          "time": 47.9544975,
          "velocity": 0.6929133858267716
        },
        {
          "duration": 0.20075737500000201,
          "durationTicks": 53,
          "midi": 38,
          "name": "D2",
          "ticks": 12690,
          "time": 48.06813375,
          "velocity": 0.6929133858267716
        },
        {
          "duration": 0.04924237500000572,
          "durationTicks": 13,
          "midi": 36,
          "name": "C2",
          "ticks": 12720,
          "time": 48.18177,
          "velocity": 0.7559055118110236
        },
        {
          "duration": 0.12878775000000076,
          "durationTicks": 34,
          "midi": 54,
          "name": "F#3",
          "ticks": 12720,
          "time": 48.18177,
          "velocity": 0.8188976377952756
        },
        {
          "duration": 0.2386361249999993,
          "durationTicks": 63,
          "midi": 38,
          "name": "D2",
          "ticks": 12750,
          "time": 48.295406250000006,
          "velocity": 0.6929133858267716
        },
        {
          "duration": 0.06060599999999994,
          "durationTicks": 16,
          "midi": 38,
          "name": "D2",
          "ticks": 12810,
          "time": 48.522678750000004,
          "velocity": 0.6929133858267716
        },
        {
          "duration": 0.04924237499999862,
          "durationTicks": 13,
          "midi": 36,
          "name": "C2",
          "ticks": 12840,
          "time": 48.636315,
          "velocity": 0.7559055118110236
        },
        {
          "duration": 0.12121199999999988,
          "durationTicks": 32,
          "midi": 54,
          "name": "F#3",
          "ticks": 12840,
          "time": 48.636315,
          "velocity": 0.8188976377952756
        },
        {
          "duration": 0.2007573749999949,
          "durationTicks": 53,
          "midi": 38,
          "name": "D2",
          "ticks": 12840,
          "time": 48.636315,
          "velocity": 0.6929133858267716
        },
        {
          "duration": 0.12121199999999988,
          "durationTicks": 32,
          "midi": 38,
          "name": "D2",
          "ticks": 12900,
          "time": 48.8635875,
          "velocity": 0.6929133858267716
        },
        {
          "duration": 0.07954537500000214,
          "durationTicks": 21,
          "midi": 38,
          "name": "D2",
          "ticks": 12930,
          "time": 48.97722375,
          "velocity": 0.6929133858267716
        },
        {
          "duration": 0.07954537499999503,
          "durationTicks": 21,
          "midi": 36,
          "name": "C2",
          "ticks": 12960,
          "time": 49.090860000000006,
          "velocity": 0.7559055118110236
        },
        {
          "duration": 0.12121199999999988,
          "durationTicks": 32,
          "midi": 54,
          "name": "F#3",
          "ticks": 12960,
          "time": 49.090860000000006,
          "velocity": 0.8188976377952756
        },
        {
          "duration": 0.1893937500000007,
          "durationTicks": 50,
          "midi": 38,
          "name": "D2",
          "ticks": 12960,
          "time": 49.090860000000006,
          "velocity": 0.6929133858267716
        },
        {
          "duration": 0.2007573749999949,
          "durationTicks": 53,
          "midi": 38,
          "name": "D2",
          "ticks": 13020,
          "time": 49.318132500000004,
          "velocity": 0.6929133858267716
        },
        {
          "duration": 0.04924237499999862,
          "durationTicks": 13,
          "midi": 36,
          "name": "C2",
          "ticks": 13080,
          "time": 49.545405,
          "velocity": 0.7559055118110236
        },
        {
          "duration": 0.09848475000000434,
          "durationTicks": 26,
          "midi": 54,
          "name": "F#3",
          "ticks": 13080,
          "time": 49.545405,
          "velocity": 0.8188976377952756
        },
        {
          "duration": 0.1893937500000007,
          "durationTicks": 50,
          "midi": 38,
          "name": "D2",
          "ticks": 13080,
          "time": 49.545405,
          "velocity": 0.6929133858267716
        },
        {
          "duration": 0.09848475000000434,
          "durationTicks": 26,
          "midi": 38,
          "name": "D2",
          "ticks": 13140,
          "time": 49.7726775,
          "velocity": 0.6929133858267716
        },
        {
          "duration": 0.1893937500000007,
          "durationTicks": 50,
          "midi": 38,
          "name": "D2",
          "ticks": 13170,
          "time": 49.88631375000001,
          "velocity": 0.6929133858267716
        },
        {
          "duration": 0.04166662499999774,
          "durationTicks": 11,
          "midi": 36,
          "name": "C2",
          "ticks": 13200,
          "time": 49.999950000000005,
          "velocity": 0.7559055118110236
        },
        {
          "duration": 0.12121199999999988,
          "durationTicks": 32,
          "midi": 54,
          "name": "F#3",
          "ticks": 13200,
          "time": 49.999950000000005,
          "velocity": 0.8188976377952756
        },
        {
          "duration": 0.2196967499999971,
          "durationTicks": 58,
          "midi": 38,
          "name": "D2",
          "ticks": 13230,
          "time": 50.113586250000004,
          "velocity": 0.6929133858267716
        },
        {
          "duration": 0.06060600000000704,
          "durationTicks": 16,
          "midi": 38,
          "name": "D2",
          "ticks": 13290,
          "time": 50.34085875,
          "velocity": 0.6929133858267716
        },
        {
          "duration": 0.04924237500000572,
          "durationTicks": 13,
          "midi": 36,
          "name": "C2",
          "ticks": 13320,
          "time": 50.454495,
          "velocity": 0.7559055118110236
        },
        {
          "duration": 0.10984837499999855,
          "durationTicks": 29,
          "midi": 54,
          "name": "F#3",
          "ticks": 13320,
          "time": 50.454495,
          "velocity": 0.8188976377952756
        },
        {
          "duration": 0.19696950000000157,
          "durationTicks": 52,
          "midi": 38,
          "name": "D2",
          "ticks": 13320,
          "time": 50.454495,
          "velocity": 0.6929133858267716
        },
        {
          "duration": 0.12878774999999365,
          "durationTicks": 34,
          "midi": 38,
          "name": "D2",
          "ticks": 13380,
          "time": 50.68176750000001,
          "velocity": 0.6929133858267716
        },
        {
          "duration": 0.07196962499999415,
          "durationTicks": 19,
          "midi": 38,
          "name": "D2",
          "ticks": 13410,
          "time": 50.795403750000006,
          "velocity": 0.6929133858267716
        },
        {
          "duration": 0.07196962500000126,
          "durationTicks": 19,
          "midi": 36,
          "name": "C2",
          "ticks": 13440,
          "time": 50.909040000000005,
          "velocity": 0.7559055118110236
        },
        {
          "duration": 0.10984837499999855,
          "durationTicks": 29,
          "midi": 54,
          "name": "F#3",
          "ticks": 13440,
          "time": 50.909040000000005,
          "velocity": 0.8188976377952756
        },
        {
          "duration": 0.1893937500000007,
          "durationTicks": 50,
          "midi": 38,
          "name": "D2",
          "ticks": 13440,
          "time": 50.909040000000005,
          "velocity": 0.6929133858267716
        },
        {
          "duration": 0.20075737500000201,
          "durationTicks": 53,
          "midi": 38,
          "name": "D2",
          "ticks": 13500,
          "time": 51.1363125,
          "velocity": 0.6929133858267716
        },
        {
          "duration": 0.06060600000000704,
          "durationTicks": 16,
          "midi": 36,
          "name": "C2",
          "ticks": 13560,
          "time": 51.363585,
          "velocity": 0.7559055118110236
        },
        {
          "duration": 0.10984837499999855,
          "durationTicks": 29,
          "midi": 54,
          "name": "F#3",
          "ticks": 13560,
          "time": 51.363585,
          "velocity": 0.8188976377952756
        },
        {
          "duration": 0.20075737500000201,
          "durationTicks": 53,
          "midi": 38,
          "name": "D2",
          "ticks": 13560,
          "time": 51.363585,
          "velocity": 0.6929133858267716
        },
        {
          "duration": 0.09848474999999723,
          "durationTicks": 26,
          "midi": 38,
          "name": "D2",
          "ticks": 13620,
          "time": 51.590857500000006,
          "velocity": 0.6929133858267716
        },
        {
          "duration": 0.2083331249999958,
          "durationTicks": 55,
          "midi": 38,
          "name": "D2",
          "ticks": 13650,
          "time": 51.704493750000005,
          "velocity": 0.6929133858267716
        },
        {
          "duration": 0.04924237499999862,
          "durationTicks": 13,
          "midi": 36,
          "name": "C2",
          "ticks": 13680,
          "time": 51.818130000000004,
          "velocity": 0.7559055118110236
        },
        {
          "duration": 0.10984837499999855,
          "durationTicks": 29,
          "midi": 54,
          "name": "F#3",
          "ticks": 13680,
          "time": 51.818130000000004,
          "velocity": 0.8188976377952756
        },
        {
          "duration": 0.23863612500000642,
          "durationTicks": 63,
          "midi": 38,
          "name": "D2",
          "ticks": 13710,
          "time": 51.93176625,
          "velocity": 0.6929133858267716
        },
        {
          "duration": 0.04924237500000572,
          "durationTicks": 13,
          "midi": 38,
          "name": "D2",
          "ticks": 13770,
          "time": 52.15903875,
          "velocity": 0.6929133858267716
        },
        {
          "duration": 0.04924237499999862,
          "durationTicks": 13,
          "midi": 36,
          "name": "C2",
          "ticks": 13800,
          "time": 52.27267500000001,
          "velocity": 0.7559055118110236
        },
        {
          "duration": 0.12121199999999988,
          "durationTicks": 32,
          "midi": 54,
          "name": "F#3",
          "ticks": 13800,
          "time": 52.27267500000001,
          "velocity": 0.8188976377952756
        },
        {
          "duration": 0.2007573749999949,
          "durationTicks": 53,
          "midi": 38,
          "name": "D2",
          "ticks": 13800,
          "time": 52.27267500000001,
          "velocity": 0.6929133858267716
        },
        {
          "duration": 0.10984837499999855,
          "durationTicks": 29,
          "midi": 38,
          "name": "D2",
          "ticks": 13860,
          "time": 52.499947500000005,
          "velocity": 0.6929133858267716
        },
        {
          "duration": 0.07954537500000214,
          "durationTicks": 21,
          "midi": 38,
          "name": "D2",
          "ticks": 13890,
          "time": 52.613583750000004,
          "velocity": 0.6929133858267716
        },
        {
          "duration": 0.06818175000000082,
          "durationTicks": 18,
          "midi": 36,
          "name": "C2",
          "ticks": 13920,
          "time": 52.72722,
          "velocity": 0.7559055118110236
        },
        {
          "duration": 0.10984837499999855,
          "durationTicks": 29,
          "midi": 54,
          "name": "F#3",
          "ticks": 13920,
          "time": 52.72722,
          "velocity": 0.8188976377952756
        },
        {
          "duration": 0.20075737500000201,
          "durationTicks": 53,
          "midi": 38,
          "name": "D2",
          "ticks": 13920,
          "time": 52.72722,
          "velocity": 0.6929133858267716
        },
        {
          "duration": 0.2083331250000029,
          "durationTicks": 55,
          "midi": 38,
          "name": "D2",
          "ticks": 13980,
          "time": 52.9544925,
          "velocity": 0.6929133858267716
        },
        {
          "duration": 0.05303024999999195,
          "durationTicks": 14,
          "midi": 36,
          "name": "C2",
          "ticks": 14040,
          "time": 53.181765000000006,
          "velocity": 0.7559055118110236
        },
        {
          "duration": 0.12121199999999988,
          "durationTicks": 32,
          "midi": 54,
          "name": "F#3",
          "ticks": 14040,
          "time": 53.181765000000006,
          "velocity": 0.8188976377952756
        },
        {
          "duration": 0.2007573749999949,
          "durationTicks": 53,
          "midi": 38,
          "name": "D2",
          "ticks": 14040,
          "time": 53.181765000000006,
          "velocity": 0.6929133858267716
        },
        {
          "duration": 0.09090900000000346,
          "durationTicks": 24,
          "midi": 38,
          "name": "D2",
          "ticks": 14100,
          "time": 53.409037500000004,
          "velocity": 0.6929133858267716
        },
        {
          "duration": 0.2083331249999958,
          "durationTicks": 55,
          "midi": 38,
          "name": "D2",
          "ticks": 14130,
          "time": 53.52267375,
          "velocity": 0.6929133858267716
        },
        {
          "duration": 0.04924237500000572,
          "durationTicks": 13,
          "midi": 36,
          "name": "C2",
          "ticks": 14160,
          "time": 53.63631,
          "velocity": 0.7559055118110236
        },
        {
          "duration": 0.14015137500000208,
          "durationTicks": 37,
          "midi": 54,
          "name": "F#3",
          "ticks": 14160,
          "time": 53.63631,
          "velocity": 0.8188976377952756
        },
        {
          "duration": 0.23106037500000554,
          "durationTicks": 61,
          "midi": 38,
          "name": "D2",
          "ticks": 14190,
          "time": 53.74994625,
          "velocity": 0.6929133858267716
        },
        {
          "duration": 0.06818175000000082,
          "durationTicks": 18,
          "midi": 38,
          "name": "D2",
          "ticks": 14250,
          "time": 53.977218750000006,
          "velocity": 0.6929133858267716
        },
        {
          "duration": 0.04924237499999862,
          "durationTicks": 13,
          "midi": 36,
          "name": "C2",
          "ticks": 14280,
          "time": 54.090855000000005,
          "velocity": 0.7559055118110236
        },
        {
          "duration": 0.12121199999999988,
          "durationTicks": 32,
          "midi": 54,
          "name": "F#3",
          "ticks": 14280,
          "time": 54.090855000000005,
          "velocity": 0.8188976377952756
        },
        {
          "duration": 0.2083331249999958,
          "durationTicks": 55,
          "midi": 38,
          "name": "D2",
          "ticks": 14280,
          "time": 54.090855000000005,
          "velocity": 0.6929133858267716
        },
        {
          "duration": 0.10984837499999855,
          "durationTicks": 29,
          "midi": 38,
          "name": "D2",
          "ticks": 14340,
          "time": 54.3181275,
          "velocity": 0.6929133858267716
        },
        {
          "duration": 0.07954537500000214,
          "durationTicks": 21,
          "midi": 38,
          "name": "D2",
          "ticks": 14370,
          "time": 54.43176375,
          "velocity": 0.6929133858267716
        },
        {
          "duration": 0.07196962500000126,
          "durationTicks": 19,
          "midi": 36,
          "name": "C2",
          "ticks": 14400,
          "time": 54.5454,
          "velocity": 0.7559055118110236
        },
        {
          "duration": 0.10984837499999855,
          "durationTicks": 29,
          "midi": 54,
          "name": "F#3",
          "ticks": 14400,
          "time": 54.5454,
          "velocity": 0.8188976377952756
        },
        {
          "duration": 0.20075737500000201,
          "durationTicks": 53,
          "midi": 38,
          "name": "D2",
          "ticks": 14400,
          "time": 54.5454,
          "velocity": 0.6929133858267716
        },
        {
          "duration": 0.2007573749999949,
          "durationTicks": 53,
          "midi": 38,
          "name": "D2",
          "ticks": 14460,
          "time": 54.772672500000006,
          "velocity": 0.6929133858267716
        },
        {
          "duration": 0.06060599999999994,
          "durationTicks": 16,
          "midi": 36,
          "name": "C2",
          "ticks": 14520,
          "time": 54.999945000000004,
          "velocity": 0.7559055118110236
        },
        {
          "duration": 0.12121199999999988,
          "durationTicks": 32,
          "midi": 54,
          "name": "F#3",
          "ticks": 14520,
          "time": 54.999945000000004,
          "velocity": 0.8188976377952756
        },
        {
          "duration": 0.2007573749999949,
          "durationTicks": 53,
          "midi": 38,
          "name": "D2",
          "ticks": 14520,
          "time": 54.999945000000004,
          "velocity": 0.6929133858267716
        },
        {
          "duration": 0.09848475000000434,
          "durationTicks": 26,
          "midi": 38,
          "name": "D2",
          "ticks": 14580,
          "time": 55.2272175,
          "velocity": 0.6929133858267716
        },
        {
          "duration": 0.20075737500000201,
          "durationTicks": 53,
          "midi": 38,
          "name": "D2",
          "ticks": 14610,
          "time": 55.34085375,
          "velocity": 0.6929133858267716
        },
        {
          "duration": 0.037878749999997297,
          "durationTicks": 10,
          "midi": 36,
          "name": "C2",
          "ticks": 14640,
          "time": 55.45449000000001,
          "velocity": 0.7559055118110236
        },
        {
          "duration": 0.10984837499999145,
          "durationTicks": 29,
          "midi": 54,
          "name": "F#3",
          "ticks": 14640,
          "time": 55.45449000000001,
          "velocity": 0.8188976377952756
        },
        {
          "duration": 0.227272499999998,
          "durationTicks": 60,
          "midi": 38,
          "name": "D2",
          "ticks": 14670,
          "time": 55.568126250000006,
          "velocity": 0.6929133858267716
        },
        {
          "duration": 0.06060599999999994,
          "durationTicks": 16,
          "midi": 38,
          "name": "D2",
          "ticks": 14730,
          "time": 55.795398750000004,
          "velocity": 0.6929133858267716
        },
        {
          "duration": 0.04924237499999862,
          "durationTicks": 13,
          "midi": 36,
          "name": "C2",
          "ticks": 14760,
          "time": 55.909035,
          "velocity": 0.7559055118110236
        },
        {
          "duration": 0.10984837499999855,
          "durationTicks": 29,
          "midi": 54,
          "name": "F#3",
          "ticks": 14760,
          "time": 55.909035,
          "velocity": 0.8188976377952756
        },
        {
          "duration": 0.1893937500000007,
          "durationTicks": 50,
          "midi": 38,
          "name": "D2",
          "ticks": 14760,
          "time": 55.909035,
          "velocity": 0.6929133858267716
        },
        {
          "duration": 0.10984837499999855,
          "durationTicks": 29,
          "midi": 38,
          "name": "D2",
          "ticks": 14820,
          "time": 56.1363075,
          "velocity": 0.6929133858267716
        },
        {
          "duration": 0.06818175000000082,
          "durationTicks": 18,
          "midi": 38,
          "name": "D2",
          "ticks": 14850,
          "time": 56.24994375000001,
          "velocity": 0.6929133858267716
        },
        {
          "duration": 0.06818175000000082,
          "durationTicks": 18,
          "midi": 36,
          "name": "C2",
          "ticks": 14880,
          "time": 56.363580000000006,
          "velocity": 0.7559055118110236
        },
        {
          "duration": 0.10984837499999145,
          "durationTicks": 29,
          "midi": 54,
          "name": "F#3",
          "ticks": 14880,
          "time": 56.363580000000006,
          "velocity": 0.8188976377952756
        },
        {
          "duration": 0.2007573749999949,
          "durationTicks": 53,
          "midi": 38,
          "name": "D2",
          "ticks": 14880,
          "time": 56.363580000000006,
          "velocity": 0.6929133858267716
        },
        {
          "duration": 0.2083331249999958,
          "durationTicks": 55,
          "midi": 38,
          "name": "D2",
          "ticks": 14940,
          "time": 56.590852500000004,
          "velocity": 0.6929133858267716
        },
        {
          "duration": 0.06060600000000704,
          "durationTicks": 16,
          "midi": 36,
          "name": "C2",
          "ticks": 15000,
          "time": 56.818125,
          "velocity": 0.7559055118110236
        },
        {
          "duration": 0.10984837499999855,
          "durationTicks": 29,
          "midi": 54,
          "name": "F#3",
          "ticks": 15000,
          "time": 56.818125,
          "velocity": 0.8188976377952756
        },
        {
          "duration": 0.2083331250000029,
          "durationTicks": 55,
          "midi": 38,
          "name": "D2",
          "ticks": 15000,
          "time": 56.818125,
          "velocity": 0.6929133858267716
        },
        {
          "duration": 0.10984837499999145,
          "durationTicks": 29,
          "midi": 38,
          "name": "D2",
          "ticks": 15060,
          "time": 57.04539750000001,
          "velocity": 0.6929133858267716
        },
        {
          "duration": 0.1893937500000007,
          "durationTicks": 50,
          "midi": 38,
          "name": "D2",
          "ticks": 15090,
          "time": 57.159033750000006,
          "velocity": 0.6929133858267716
        },
        {
          "duration": 0.04924237499999862,
          "durationTicks": 13,
          "midi": 36,
          "name": "C2",
          "ticks": 15120,
          "time": 57.272670000000005,
          "velocity": 0.7559055118110236
        },
        {
          "duration": 0.12878775000000076,
          "durationTicks": 34,
          "midi": 54,
          "name": "F#3",
          "ticks": 15120,
          "time": 57.272670000000005,
          "velocity": 0.8188976377952756
        },
        {
          "duration": 0.2196967499999971,
          "durationTicks": 58,
          "midi": 38,
          "name": "D2",
          "ticks": 15150,
          "time": 57.386306250000004,
          "velocity": 0.6929133858267716
        },
        {
          "duration": 0.06060600000000704,
          "durationTicks": 16,
          "midi": 38,
          "name": "D2",
          "ticks": 15210,
          "time": 57.61357875,
          "velocity": 0.6929133858267716
        },
        {
          "duration": 0.04924237500000572,
          "durationTicks": 13,
          "midi": 36,
          "name": "C2",
          "ticks": 15240,
          "time": 57.727215,
          "velocity": 0.7559055118110236
        },
        {
          "duration": 0.12121199999999988,
          "durationTicks": 32,
          "midi": 54,
          "name": "F#3",
          "ticks": 15240,
          "time": 57.727215,
          "velocity": 0.8188976377952756
        },
        {
          "duration": 0.20075737500000201,
          "durationTicks": 53,
          "midi": 38,
          "name": "D2",
          "ticks": 15240,
          "time": 57.727215,
          "velocity": 0.6929133858267716
        },
        {
          "duration": 0.10984837499999145,
          "durationTicks": 29,
          "midi": 38,
          "name": "D2",
          "ticks": 15300,
          "time": 57.954487500000006,
          "velocity": 0.6929133858267716
        },
        {
          "duration": 0.07954537499999503,
          "durationTicks": 21,
          "midi": 38,
          "name": "D2",
          "ticks": 15330,
          "time": 58.068123750000005,
          "velocity": 0.6929133858267716
        },
        {
          "duration": 0.07954537500000214,
          "durationTicks": 21,
          "midi": 36,
          "name": "C2",
          "ticks": 15360,
          "time": 58.181760000000004,
          "velocity": 0.7559055118110236
        },
        {
          "duration": 0.11742412499999944,
          "durationTicks": 31,
          "midi": 54,
          "name": "F#3",
          "ticks": 15360,
          "time": 58.181760000000004,
          "velocity": 0.8188976377952756
        },
        {
          "duration": 0.1893937499999936,
          "durationTicks": 50,
          "midi": 38,
          "name": "D2",
          "ticks": 15360,
          "time": 58.181760000000004,
          "velocity": 0.6929133858267716
        },
        {
          "duration": 0.1893937500000007,
          "durationTicks": 50,
          "midi": 38,
          "name": "D2",
          "ticks": 15420,
          "time": 58.4090325,
          "velocity": 0.6929133858267716
        },
        {
          "duration": 0.04924237499999151,
          "durationTicks": 13,
          "midi": 36,
          "name": "C2",
          "ticks": 15480,
          "time": 58.63630500000001,
          "velocity": 0.7559055118110236
        },
        {
          "duration": 0.09848474999999723,
          "durationTicks": 26,
          "midi": 54,
          "name": "F#3",
          "ticks": 15480,
          "time": 58.63630500000001,
          "velocity": 0.8188976377952756
        },
        {
          "duration": 0.1893937499999936,
          "durationTicks": 50,
          "midi": 38,
          "name": "D2",
          "ticks": 15480,
          "time": 58.63630500000001,
          "velocity": 0.6929133858267716
        },
        {
          "duration": 0.10227262499999767,
          "durationTicks": 27,
          "midi": 38,
          "name": "D2",
          "ticks": 15540,
          "time": 58.863577500000005,
          "velocity": 0.6929133858267716
        },
        {
          "duration": 0.2007573749999949,
          "durationTicks": 53,
          "midi": 38,
          "name": "D2",
          "ticks": 15570,
          "time": 58.977213750000004,
          "velocity": 0.6929133858267716
        },
        {
          "duration": 0.04166662500000484,
          "durationTicks": 11,
          "midi": 36,
          "name": "C2",
          "ticks": 15600,
          "time": 59.09085,
          "velocity": 0.7559055118110236
        },
        {
          "duration": 0.12121200000000698,
          "durationTicks": 32,
          "midi": 54,
          "name": "F#3",
          "ticks": 15600,
          "time": 59.09085,
          "velocity": 0.8188976377952756
        },
        {
          "duration": 0.2196967499999971,
          "durationTicks": 58,
          "midi": 38,
          "name": "D2",
          "ticks": 15630,
          "time": 59.20448625,
          "velocity": 0.6929133858267716
        },
        {
          "duration": 0.06060599999999283,
          "durationTicks": 16,
          "midi": 38,
          "name": "D2",
          "ticks": 15690,
          "time": 59.43175875000001,
          "velocity": 0.6929133858267716
        },
        {
          "duration": 0.04166662499999774,
          "durationTicks": 11,
          "midi": 36,
          "name": "C2",
          "ticks": 15720,
          "time": 59.545395000000006,
          "velocity": 0.7559055118110236
        },
        {
          "duration": 0.10984837499999855,
          "durationTicks": 29,
          "midi": 54,
          "name": "F#3",
          "ticks": 15720,
          "time": 59.545395000000006,
          "velocity": 0.8188976377952756
        },
        {
          "duration": 0.1893937499999936,
          "durationTicks": 50,
          "midi": 38,
          "name": "D2",
          "ticks": 15720,
          "time": 59.545395000000006,
          "velocity": 0.6929133858267716
        },
        {
          "duration": 0.12878775000000076,
          "durationTicks": 34,
          "midi": 38,
          "name": "D2",
          "ticks": 15780,
          "time": 59.772667500000004,
          "velocity": 0.6929133858267716
        },
        {
          "duration": 0.06060599999999994,
          "durationTicks": 16,
          "midi": 38,
          "name": "D2",
          "ticks": 15810,
          "time": 59.88630375,
          "velocity": 0.6929133858267716
        },
        {
          "duration": 0.06818175000000792,
          "durationTicks": 18,
          "midi": 36,
          "name": "C2",
          "ticks": 15840,
          "time": 59.99994,
          "velocity": 0.7559055118110236
        },
        {
          "duration": 0.10984837500000566,
          "durationTicks": 29,
          "midi": 54,
          "name": "F#3",
          "ticks": 15840,
          "time": 59.99994,
          "velocity": 0.8188976377952756
        },
        {
          "duration": 0.1893937500000007,
          "durationTicks": 50,
          "midi": 38,
          "name": "D2",
          "ticks": 15840,
          "time": 59.99994,
          "velocity": 0.6929133858267716
        },
        {
          "duration": 0.2007573749999949,
          "durationTicks": 53,
          "midi": 38,
          "name": "D2",
          "ticks": 15900,
          "time": 60.22721250000001,
          "velocity": 0.6929133858267716
        },
        {
          "duration": 0.06060599999999283,
          "durationTicks": 16,
          "midi": 36,
          "name": "C2",
          "ticks": 15960,
          "time": 60.454485000000005,
          "velocity": 0.7559055118110236
        },
        {
          "duration": 0.10984837500000566,
          "durationTicks": 29,
          "midi": 54,
          "name": "F#3",
          "ticks": 15960,
          "time": 60.454485000000005,
          "velocity": 0.8188976377952756
        },
        {
          "duration": 0.19696950000000157,
          "durationTicks": 52,
          "midi": 38,
          "name": "D2",
          "ticks": 15960,
          "time": 60.454485000000005,
          "velocity": 0.6929133858267716
        },
        {
          "duration": 0.09848475000000434,
          "durationTicks": 26,
          "midi": 38,
          "name": "D2",
          "ticks": 16020,
          "time": 60.6817575,
          "velocity": 0.6929133858267716
        },
        {
          "duration": 0.1893937500000007,
          "durationTicks": 50,
          "midi": 38,
          "name": "D2",
          "ticks": 16050,
          "time": 60.79539375,
          "velocity": 0.6929133858267716
        },
        {
          "duration": 0.03030300000000352,
          "durationTicks": 8,
          "midi": 36,
          "name": "C2",
          "ticks": 16080,
          "time": 60.90903,
          "velocity": 0.7559055118110236
        },
        {
          "duration": 0.10227262499999767,
          "durationTicks": 27,
          "midi": 54,
          "name": "F#3",
          "ticks": 16080,
          "time": 60.90903,
          "velocity": 0.8188976377952756
        },
        {
          "duration": 0.2386361249999993,
          "durationTicks": 63,
          "midi": 38,
          "name": "D2",
          "ticks": 16110,
          "time": 61.02266625000001,
          "velocity": 0.6929133858267716
        },
        {
          "duration": 0.04924237499999151,
          "durationTicks": 13,
          "midi": 38,
          "name": "D2",
          "ticks": 16170,
          "time": 61.249938750000005,
          "velocity": 0.6929133858267716
        },
        {
          "duration": 0.06060599999999994,
          "durationTicks": 16,
          "midi": 36,
          "name": "C2",
          "ticks": 16200,
          "time": 61.363575000000004,
          "velocity": 0.7559055118110236
        },
        {
          "duration": 0.12121200000000698,
          "durationTicks": 32,
          "midi": 54,
          "name": "F#3",
          "ticks": 16200,
          "time": 61.363575000000004,
          "velocity": 0.8188976377952756
        },
        {
          "duration": 0.1893937499999936,
          "durationTicks": 50,
          "midi": 38,
          "name": "D2",
          "ticks": 16200,
          "time": 61.363575000000004,
          "velocity": 0.6929133858267716
        },
        {
          "duration": 0.10984837500000566,
          "durationTicks": 29,
          "midi": 38,
          "name": "D2",
          "ticks": 16260,
          "time": 61.5908475,
          "velocity": 0.6929133858267716
        },
        {
          "duration": 0.07954537500000924,
          "durationTicks": 21,
          "midi": 38,
          "name": "D2",
          "ticks": 16290,
          "time": 61.70448375,
          "velocity": 0.6929133858267716
        },
        {
          "duration": 0.06818175000000082,
          "durationTicks": 18,
          "midi": 36,
          "name": "C2",
          "ticks": 16320,
          "time": 61.81812000000001,
          "velocity": 0.7559055118110236
        },
        {
          "duration": 0.10984837499999855,
          "durationTicks": 29,
          "midi": 54,
          "name": "F#3",
          "ticks": 16320,
          "time": 61.81812000000001,
          "velocity": 0.8188976377952756
        },
        {
          "duration": 0.2007573749999949,
          "durationTicks": 53,
          "midi": 38,
          "name": "D2",
          "ticks": 16320,
          "time": 61.81812000000001,
          "velocity": 0.6929133858267716
        },
        {
          "duration": 0.1893937499999936,
          "durationTicks": 50,
          "midi": 38,
          "name": "D2",
          "ticks": 16380,
          "time": 62.045392500000005,
          "velocity": 0.6929133858267716
        },
        {
          "duration": 0.0568181249999995,
          "durationTicks": 15,
          "midi": 36,
          "name": "C2",
          "ticks": 16440,
          "time": 62.272665,
          "velocity": 0.7559055118110236
        },
        {
          "duration": 0.12878775000000076,
          "durationTicks": 34,
          "midi": 54,
          "name": "F#3",
          "ticks": 16440,
          "time": 62.272665,
          "velocity": 0.8188976377952756
        },
        {
          "duration": 0.1893937499999936,
          "durationTicks": 50,
          "midi": 38,
          "name": "D2",
          "ticks": 16440,
          "time": 62.272665,
          "velocity": 0.6929133858267716
        },
        {
          "duration": 0.09090899999999635,
          "durationTicks": 24,
          "midi": 38,
          "name": "D2",
          "ticks": 16500,
          "time": 62.4999375,
          "velocity": 0.6929133858267716
        },
        {
          "duration": 0.2007573749999949,
          "durationTicks": 53,
          "midi": 38,
          "name": "D2",
          "ticks": 16530,
          "time": 62.61357375000001,
          "velocity": 0.6929133858267716
        },
        {
          "duration": 0.04166662499999774,
          "durationTicks": 11,
          "midi": 36,
          "name": "C2",
          "ticks": 16560,
          "time": 62.72721000000001,
          "velocity": 0.7559055118110236
        },
        {
          "duration": 0.12878774999999365,
          "durationTicks": 34,
          "midi": 54,
          "name": "F#3",
          "ticks": 16560,
          "time": 62.72721000000001,
          "velocity": 0.8188976377952756
        },
        {
          "duration": 0.23106037499999843,
          "durationTicks": 61,
          "midi": 38,
          "name": "D2",
          "ticks": 16590,
          "time": 62.840846250000006,
          "velocity": 0.6929133858267716
        },
        {
          "duration": 0.06060599999999994,
          "durationTicks": 16,
          "midi": 38,
          "name": "D2",
          "ticks": 16650,
          "time": 63.068118750000004,
          "velocity": 0.6929133858267716
        },
        {
          "duration": 0.04924237499999862,
          "durationTicks": 13,
          "midi": 36,
          "name": "C2",
          "ticks": 16680,
          "time": 63.181755,
          "velocity": 0.7559055118110236
        },
        {
          "duration": 0.11742412499999944,
          "durationTicks": 31,
          "midi": 54,
          "name": "F#3",
          "ticks": 16680,
          "time": 63.181755,
          "velocity": 0.8188976377952756
        },
        {
          "duration": 0.2083331250000029,
          "durationTicks": 55,
          "midi": 38,
          "name": "D2",
          "ticks": 16680,
          "time": 63.181755,
          "velocity": 0.6929133858267716
        },
        {
          "duration": 0.10227262499999767,
          "durationTicks": 27,
          "midi": 38,
          "name": "D2",
          "ticks": 16740,
          "time": 63.40902750000001,
          "velocity": 0.6929133858267716
        },
        {
          "duration": 0.08712112499999591,
          "durationTicks": 23,
          "midi": 38,
          "name": "D2",
          "ticks": 16770,
          "time": 63.52266375000001,
          "velocity": 0.6929133858267716
        },
        {
          "duration": 0.07954537500000214,
          "durationTicks": 21,
          "midi": 36,
          "name": "C2",
          "ticks": 16800,
          "time": 63.636300000000006,
          "velocity": 0.7559055118110236
        },
        {
          "duration": 0.10984837500000566,
          "durationTicks": 29,
          "midi": 54,
          "name": "F#3",
          "ticks": 16800,
          "time": 63.636300000000006,
          "velocity": 0.8188976377952756
        },
        {
          "duration": 0.2007573749999949,
          "durationTicks": 53,
          "midi": 38,
          "name": "D2",
          "ticks": 16800,
          "time": 63.636300000000006,
          "velocity": 0.6929133858267716
        },
        {
          "duration": 0.21212099999999623,
          "durationTicks": 56,
          "midi": 38,
          "name": "D2",
          "ticks": 16860,
          "time": 63.863572500000004,
          "velocity": 0.6929133858267716
        },
        {
          "duration": 0.04924237499999151,
          "durationTicks": 13,
          "midi": 36,
          "name": "C2",
          "ticks": 16920,
          "time": 64.090845,
          "velocity": 0.7559055118110236
        },
        {
          "duration": 0.10984837500001277,
          "durationTicks": 29,
          "midi": 54,
          "name": "F#3",
          "ticks": 16920,
          "time": 64.090845,
          "velocity": 0.8188976377952756
        },
        {
          "duration": 0.1893937499999936,
          "durationTicks": 50,
          "midi": 38,
          "name": "D2",
          "ticks": 16920,
          "time": 64.090845,
          "velocity": 0.6929133858267716
        },
        {
          "duration": 0.08712112500001012,
          "durationTicks": 23,
          "midi": 38,
          "name": "D2",
          "ticks": 16980,
          "time": 64.3181175,
          "velocity": 0.6929133858267716
        },
        {
          "duration": 0.20075737500000912,
          "durationTicks": 53,
          "midi": 38,
          "name": "D2",
          "ticks": 17010,
          "time": 64.43175375,
          "velocity": 0.6929133858267716
        },
        {
          "duration": 0.04166662500000484,
          "durationTicks": 11,
          "midi": 36,
          "name": "C2",
          "ticks": 17040,
          "time": 64.54539,
          "velocity": 0.7559055118110236
        },
        {
          "duration": 0.10984837500001277,
          "durationTicks": 29,
          "midi": 54,
          "name": "F#3",
          "ticks": 17040,
          "time": 64.54539,
          "velocity": 0.8188976377952756
        },
        {
          "duration": 0.22348462499999755,
          "durationTicks": 59,
          "midi": 38,
          "name": "D2",
          "ticks": 17070,
          "time": 64.65902625000001,
          "velocity": 0.6929133858267716
        },
        {
          "duration": 0.06818174999999371,
          "durationTicks": 18,
          "midi": 38,
          "name": "D2",
          "ticks": 17130,
          "time": 64.88629875000001,
          "velocity": 0.6929133858267716
        },
        {
          "duration": 0.0378787500000044,
          "durationTicks": 10,
          "midi": 36,
          "name": "C2",
          "ticks": 17160,
          "time": 64.99993500000001,
          "velocity": 0.7559055118110236
        },
        {
          "duration": 0.10984837499999855,
          "durationTicks": 29,
          "midi": 54,
          "name": "F#3",
          "ticks": 17160,
          "time": 64.99993500000001,
          "velocity": 0.8188976377952756
        },
        {
          "duration": 0.1893937499999936,
          "durationTicks": 50,
          "midi": 38,
          "name": "D2",
          "ticks": 17160,
          "time": 64.99993500000001,
          "velocity": 0.6929133858267716
        },
        {
          "duration": 0.10984837499999855,
          "durationTicks": 29,
          "midi": 38,
          "name": "D2",
          "ticks": 17220,
          "time": 65.2272075,
          "velocity": 0.6929133858267716
        },
        {
          "duration": 0.07954537500000924,
          "durationTicks": 21,
          "midi": 38,
          "name": "D2",
          "ticks": 17250,
          "time": 65.34084375,
          "velocity": 0.6929133858267716
        },
        {
          "duration": 0.06818175000000792,
          "durationTicks": 18,
          "midi": 36,
          "name": "C2",
          "ticks": 17280,
          "time": 65.45448,
          "velocity": 0.7559055118110236
        },
        {
          "duration": 0.10984837499999855,
          "durationTicks": 29,
          "midi": 54,
          "name": "F#3",
          "ticks": 17280,
          "time": 65.45448,
          "velocity": 0.8188976377952756
        },
        {
          "duration": 0.19696950000000868,
          "durationTicks": 52,
          "midi": 38,
          "name": "D2",
          "ticks": 17280,
          "time": 65.45448,
          "velocity": 0.6929133858267716
        },
        {
          "duration": 0.2007573749999949,
          "durationTicks": 53,
          "midi": 38,
          "name": "D2",
          "ticks": 17340,
          "time": 65.6817525,
          "velocity": 0.6929133858267716
        },
        {
          "duration": 0.04924237500000572,
          "durationTicks": 13,
          "midi": 36,
          "name": "C2",
          "ticks": 17400,
          "time": 65.909025,
          "velocity": 0.7559055118110236
        },
        {
          "duration": 0.10227262499999767,
          "durationTicks": 27,
          "midi": 54,
          "name": "F#3",
          "ticks": 17400,
          "time": 65.909025,
          "velocity": 0.8188976377952756
        },
        {
          "duration": 0.1893937499999936,
          "durationTicks": 50,
          "midi": 38,
          "name": "D2",
          "ticks": 17400,
          "time": 65.909025,
          "velocity": 0.6929133858267716
        },
        {
          "duration": 0.10984837500001277,
          "durationTicks": 29,
          "midi": 38,
          "name": "D2",
          "ticks": 17460,
          "time": 66.1362975,
          "velocity": 0.6929133858267716
        },
        {
          "duration": 0.1893937499999936,
          "durationTicks": 50,
          "midi": 38,
          "name": "D2",
          "ticks": 17490,
          "time": 66.24993375000001,
          "velocity": 0.6929133858267716
        },
        {
          "duration": 0.04924237499999151,
          "durationTicks": 13,
          "midi": 36,
          "name": "C2",
          "ticks": 17520,
          "time": 66.36357000000001,
          "velocity": 0.7559055118110236
        },
        {
          "duration": 0.12121199999999988,
          "durationTicks": 32,
          "midi": 54,
          "name": "F#3",
          "ticks": 17520,
          "time": 66.36357000000001,
          "velocity": 0.8188976377952756
        },
        {
          "duration": 0.23106037499999843,
          "durationTicks": 61,
          "midi": 38,
          "name": "D2",
          "ticks": 17550,
          "time": 66.47720625000001,
          "velocity": 0.6929133858267716
        },
        {
          "duration": 0.06060599999999283,
          "durationTicks": 16,
          "midi": 38,
          "name": "D2",
          "ticks": 17610,
          "time": 66.70447875,
          "velocity": 0.6929133858267716
        },
        {
          "duration": 0.04924237499999151,
          "durationTicks": 13,
          "midi": 36,
          "name": "C2",
          "ticks": 17640,
          "time": 66.818115,
          "velocity": 0.7559055118110236
        },
        {
          "duration": 0.12878775000000076,
          "durationTicks": 34,
          "midi": 54,
          "name": "F#3",
          "ticks": 17640,
          "time": 66.818115,
          "velocity": 0.8188976377952756
        },
        {
          "duration": 0.2007573749999949,
          "durationTicks": 53,
          "midi": 38,
          "name": "D2",
          "ticks": 17640,
          "time": 66.818115,
          "velocity": 0.6929133858267716
        },
        {
          "duration": 0.12121199999999988,
          "durationTicks": 32,
          "midi": 38,
          "name": "D2",
          "ticks": 17700,
          "time": 67.0453875,
          "velocity": 0.6929133858267716
        },
        {
          "duration": 0.07196962499999415,
          "durationTicks": 19,
          "midi": 38,
          "name": "D2",
          "ticks": 17730,
          "time": 67.15902375,
          "velocity": 0.6929133858267716
        },
        {
          "duration": 0.07954537500000924,
          "durationTicks": 21,
          "midi": 36,
          "name": "C2",
          "ticks": 17760,
          "time": 67.27266,
          "velocity": 0.7559055118110236
        },
        {
          "duration": 0.12878775000000076,
          "durationTicks": 34,
          "midi": 54,
          "name": "F#3",
          "ticks": 17760,
          "time": 67.27266,
          "velocity": 0.8188976377952756
        },
        {
          "duration": 0.1893937499999936,
          "durationTicks": 50,
          "midi": 38,
          "name": "D2",
          "ticks": 17760,
          "time": 67.27266,
          "velocity": 0.6929133858267716
        },
        {
          "duration": 0.1893937499999936,
          "durationTicks": 50,
          "midi": 38,
          "name": "D2",
          "ticks": 17820,
          "time": 67.4999325,
          "velocity": 0.6929133858267716
        },
        {
          "duration": 0.06060600000000704,
          "durationTicks": 16,
          "midi": 36,
          "name": "C2",
          "ticks": 17880,
          "time": 67.727205,
          "velocity": 0.7559055118110236
        },
        {
          "duration": 0.10984837500001277,
          "durationTicks": 29,
          "midi": 54,
          "name": "F#3",
          "ticks": 17880,
          "time": 67.727205,
          "velocity": 0.8188976377952756
        },
        {
          "duration": 0.20075737500000912,
          "durationTicks": 53,
          "midi": 38,
          "name": "D2",
          "ticks": 17880,
          "time": 67.727205,
          "velocity": 0.6929133858267716
        },
        {
          "duration": 0.10984837499999855,
          "durationTicks": 29,
          "midi": 38,
          "name": "D2",
          "ticks": 17940,
          "time": 67.95447750000001,
          "velocity": 0.6929133858267716
        },
        {
          "duration": 0.2007573749999949,
          "durationTicks": 53,
          "midi": 38,
          "name": "D2",
          "ticks": 17970,
          "time": 68.06811375000001,
          "velocity": 0.6929133858267716
        },
        {
          "duration": 0.0378787500000044,
          "durationTicks": 10,
          "midi": 36,
          "name": "C2",
          "ticks": 18000,
          "time": 68.18175000000001,
          "velocity": 0.7559055118110236
        },
        {
          "duration": 0.11742412499999944,
          "durationTicks": 31,
          "midi": 54,
          "name": "F#3",
          "ticks": 18000,
          "time": 68.18175000000001,
          "velocity": 0.8188976377952756
        },
        {
          "duration": 0.22348462499999755,
          "durationTicks": 59,
          "midi": 38,
          "name": "D2",
          "ticks": 18030,
          "time": 68.29538625,
          "velocity": 0.6929133858267716
        },
        {
          "duration": 0.0568181250000066,
          "durationTicks": 15,
          "midi": 38,
          "name": "D2",
          "ticks": 18090,
          "time": 68.52265875,
          "velocity": 0.6929133858267716
        },
        {
          "duration": 0.04924237499999151,
          "durationTicks": 13,
          "midi": 36,
          "name": "C2",
          "ticks": 18120,
          "time": 68.636295,
          "velocity": 0.7559055118110236
        },
        {
          "duration": 0.12121199999999988,
          "durationTicks": 32,
          "midi": 54,
          "name": "F#3",
          "ticks": 18120,
          "time": 68.636295,
          "velocity": 0.8188976377952756
        },
        {
          "duration": 0.2007573749999949,
          "durationTicks": 53,
          "midi": 38,
          "name": "D2",
          "ticks": 18120,
          "time": 68.636295,
          "velocity": 0.6929133858267716
        },
        {
          "duration": 0.12121200000001409,
          "durationTicks": 32,
          "midi": 38,
          "name": "D2",
          "ticks": 18180,
          "time": 68.8635675,
          "velocity": 0.6929133858267716
        },
        {
          "duration": 0.06818175000000792,
          "durationTicks": 18,
          "midi": 38,
          "name": "D2",
          "ticks": 18210,
          "time": 68.97720375,
          "velocity": 0.6929133858267716
        },
        {
          "duration": 0.06818175000000792,
          "durationTicks": 18,
          "midi": 36,
          "name": "C2",
          "ticks": 18240,
          "time": 69.09084,
          "velocity": 0.7559055118110236
        },
        {
          "duration": 0.10984837500001277,
          "durationTicks": 29,
          "midi": 54,
          "name": "F#3",
          "ticks": 18240,
          "time": 69.09084,
          "velocity": 0.8188976377952756
        },
        {
          "duration": 0.1893937499999936,
          "durationTicks": 50,
          "midi": 38,
          "name": "D2",
          "ticks": 18240,
          "time": 69.09084,
          "velocity": 0.6929133858267716
        },
        {
          "duration": 0.00378787500000044,
          "durationTicks": 1,
          "midi": 42,
          "name": "F#2",
          "ticks": 18240,
          "time": 69.09084,
          "velocity": 0.5984251968503937
        },
        {
          "duration": 0.03030300000000352,
          "durationTicks": 8,
          "midi": 42,
          "name": "F#2",
          "ticks": 18240,
          "time": 69.09084,
          "velocity": 0.5669291338582677
        },
        {
          "duration": 0.20075737500000912,
          "durationTicks": 53,
          "midi": 38,
          "name": "D2",
          "ticks": 18300,
          "time": 69.3181125,
          "velocity": 0.6929133858267716
        },
        {
          "duration": 0.07954537500000924,
          "durationTicks": 21,
          "midi": 42,
          "name": "F#2",
          "ticks": 18300,
          "time": 69.3181125,
          "velocity": 0.5984251968503937
        },
        {
          "duration": 0.06060599999999283,
          "durationTicks": 16,
          "midi": 36,
          "name": "C2",
          "ticks": 18360,
          "time": 69.54538500000001,
          "velocity": 0.7559055118110236
        },
        {
          "duration": 0.12121199999999988,
          "durationTicks": 32,
          "midi": 54,
          "name": "F#3",
          "ticks": 18360,
          "time": 69.54538500000001,
          "velocity": 0.8188976377952756
        },
        {
          "duration": 0.21212099999999623,
          "durationTicks": 56,
          "midi": 38,
          "name": "D2",
          "ticks": 18360,
          "time": 69.54538500000001,
          "velocity": 0.6929133858267716
        },
        {
          "duration": 0.12121199999999988,
          "durationTicks": 32,
          "midi": 51,
          "name": "D#3",
          "ticks": 18360,
          "time": 69.54538500000001,
          "velocity": 0.7874015748031497
        },
        {
          "duration": 0.09848474999999723,
          "durationTicks": 26,
          "midi": 38,
          "name": "D2",
          "ticks": 18420,
          "time": 69.77265750000001,
          "velocity": 0.6929133858267716
        },
        {
          "duration": 0.09848474999999723,
          "durationTicks": 26,
          "midi": 42,
          "name": "F#2",
          "ticks": 18420,
          "time": 69.77265750000001,
          "velocity": 0.5748031496062992
        },
        {
          "duration": 0.2007573749999949,
          "durationTicks": 53,
          "midi": 38,
          "name": "D2",
          "ticks": 18450,
          "time": 69.88629375000001,
          "velocity": 0.6929133858267716
        },
        {
          "duration": 0.04166662500000484,
          "durationTicks": 11,
          "midi": 36,
          "name": "C2",
          "ticks": 18480,
          "time": 69.99993,
          "velocity": 0.7559055118110236
        },
        {
          "duration": 0.10984837499999855,
          "durationTicks": 29,
          "midi": 54,
          "name": "F#3",
          "ticks": 18480,
          "time": 69.99993,
          "velocity": 0.8188976377952756
        },
        {
          "duration": 0.09090899999999635,
          "durationTicks": 24,
          "midi": 42,
          "name": "F#2",
          "ticks": 18480,
          "time": 69.99993,
          "velocity": 0.5984251968503937
        },
        {
          "duration": 0.23106037499999843,
          "durationTicks": 61,
          "midi": 38,
          "name": "D2",
          "ticks": 18510,
          "time": 70.11356625,
          "velocity": 0.6929133858267716
        },
        {
          "duration": 0.07954537500000924,
          "durationTicks": 21,
          "midi": 42,
          "name": "F#2",
          "ticks": 18540,
          "time": 70.2272025,
          "velocity": 0.6456692913385826
        },
        {
          "duration": 0.06060599999999283,
          "durationTicks": 16,
          "midi": 38,
          "name": "D2",
          "ticks": 18570,
          "time": 70.34083875,
          "velocity": 0.6929133858267716
        },
        {
          "duration": 0.06060599999999283,
          "durationTicks": 16,
          "midi": 36,
          "name": "C2",
          "ticks": 18600,
          "time": 70.454475,
          "velocity": 0.7559055118110236
        },
        {
          "duration": 0.12121200000001409,
          "durationTicks": 32,
          "midi": 54,
          "name": "F#3",
          "ticks": 18600,
          "time": 70.454475,
          "velocity": 0.8188976377952756
        },
        {
          "duration": 0.18181800000000692,
          "durationTicks": 48,
          "midi": 38,
          "name": "D2",
          "ticks": 18600,
          "time": 70.454475,
          "velocity": 0.6929133858267716
        },
        {
          "duration": 0.18181800000000692,
          "durationTicks": 48,
          "midi": 51,
          "name": "D#3",
          "ticks": 18600,
          "time": 70.454475,
          "velocity": 0.8110236220472441
        },
        {
          "duration": 0.10984837500001277,
          "durationTicks": 29,
          "midi": 38,
          "name": "D2",
          "ticks": 18660,
          "time": 70.6817475,
          "velocity": 0.6929133858267716
        },
        {
          "duration": 0.09090899999999635,
          "durationTicks": 24,
          "midi": 42,
          "name": "F#2",
          "ticks": 18660,
          "time": 70.6817475,
          "velocity": 0.6456692913385826
        },
        {
          "duration": 0.07954537500000924,
          "durationTicks": 21,
          "midi": 38,
          "name": "D2",
          "ticks": 18690,
          "time": 70.79538375,
          "velocity": 0.6929133858267716
        },
        {
          "duration": 0.07196962500000836,
          "durationTicks": 19,
          "midi": 36,
          "name": "C2",
          "ticks": 18720,
          "time": 70.90902,
          "velocity": 0.7559055118110236
        },
        {
          "duration": 0.12121200000001409,
          "durationTicks": 32,
          "midi": 54,
          "name": "F#3",
          "ticks": 18720,
          "time": 70.90902,
          "velocity": 0.8188976377952756
        },
        {
          "duration": 0.20075737500000912,
          "durationTicks": 53,
          "midi": 38,
          "name": "D2",
          "ticks": 18720,
          "time": 70.90902,
          "velocity": 0.6929133858267716
        },
        {
          "duration": 0.07196962500000836,
          "durationTicks": 19,
          "midi": 42,
          "name": "F#2",
          "ticks": 18720,
          "time": 70.90902,
          "velocity": 0.5669291338582677
        },
        {
          "duration": 0.2007573749999949,
          "durationTicks": 53,
          "midi": 38,
          "name": "D2",
          "ticks": 18780,
          "time": 71.13629250000001,
          "velocity": 0.6929133858267716
        },
        {
          "duration": 0.07954537499999503,
          "durationTicks": 21,
          "midi": 42,
          "name": "F#2",
          "ticks": 18780,
          "time": 71.13629250000001,
          "velocity": 0.5984251968503937
        },
        {
          "duration": 0.06060599999999283,
          "durationTicks": 16,
          "midi": 36,
          "name": "C2",
          "ticks": 18840,
          "time": 71.36356500000001,
          "velocity": 0.7559055118110236
        },
        {
          "duration": 0.12121199999999988,
          "durationTicks": 32,
          "midi": 54,
          "name": "F#3",
          "ticks": 18840,
          "time": 71.36356500000001,
          "velocity": 0.8188976377952756
        },
        {
          "duration": 0.21212099999999623,
          "durationTicks": 56,
          "midi": 38,
          "name": "D2",
          "ticks": 18840,
          "time": 71.36356500000001,
          "velocity": 0.6929133858267716
        },
        {
          "duration": 0.10984837499999855,
          "durationTicks": 29,
          "midi": 51,
          "name": "D#3",
          "ticks": 18840,
          "time": 71.36356500000001,
          "velocity": 0.7874015748031497
        },
        {
          "duration": 0.09848474999999723,
          "durationTicks": 26,
          "midi": 38,
          "name": "D2",
          "ticks": 18900,
          "time": 71.5908375,
          "velocity": 0.6929133858267716
        },
        {
          "duration": 0.09848474999999723,
          "durationTicks": 26,
          "midi": 42,
          "name": "F#2",
          "ticks": 18900,
          "time": 71.5908375,
          "velocity": 0.5748031496062992
        },
        {
          "duration": 0.1893937499999936,
          "durationTicks": 50,
          "midi": 38,
          "name": "D2",
          "ticks": 18930,
          "time": 71.70447375,
          "velocity": 0.6929133858267716
        },
        {
          "duration": 0.0378787500000044,
          "durationTicks": 10,
          "midi": 36,
          "name": "C2",
          "ticks": 18960,
          "time": 71.81811,
          "velocity": 0.7559055118110236
        },
        {
          "duration": 0.12878775000000076,
          "durationTicks": 34,
          "midi": 54,
          "name": "F#3",
          "ticks": 18960,
          "time": 71.81811,
          "velocity": 0.8188976377952756
        },
        {
          "duration": 0.07954537500000924,
          "durationTicks": 21,
          "midi": 42,
          "name": "F#2",
          "ticks": 18960,
          "time": 71.81811,
          "velocity": 0.5984251968503937
        },
        {
          "duration": 0.227272499999998,
          "durationTicks": 60,
          "midi": 38,
          "name": "D2",
          "ticks": 18990,
          "time": 71.93174625,
          "velocity": 0.6929133858267716
        },
        {
          "duration": 0.07954537500000924,
          "durationTicks": 21,
          "midi": 42,
          "name": "F#2",
          "ticks": 19020,
          "time": 72.0453825,
          "velocity": 0.6456692913385826
        },
        {
          "duration": 0.06060600000000704,
          "durationTicks": 16,
          "midi": 38,
          "name": "D2",
          "ticks": 19050,
          "time": 72.15901875,
          "velocity": 0.6929133858267716
        },
        {
          "duration": 0.04924237500000572,
          "durationTicks": 13,
          "midi": 36,
          "name": "C2",
          "ticks": 19080,
          "time": 72.272655,
          "velocity": 0.7559055118110236
        },
        {
          "duration": 0.11742412499999944,
          "durationTicks": 31,
          "midi": 54,
          "name": "F#3",
          "ticks": 19080,
          "time": 72.272655,
          "velocity": 0.8188976377952756
        },
        {
          "duration": 0.19696950000000868,
          "durationTicks": 52,
          "midi": 38,
          "name": "D2",
          "ticks": 19080,
          "time": 72.272655,
          "velocity": 0.6929133858267716
        },
        {
          "duration": 0.19696950000000868,
          "durationTicks": 52,
          "midi": 51,
          "name": "D#3",
          "ticks": 19080,
          "time": 72.272655,
          "velocity": 0.8110236220472441
        },
        {
          "duration": 0.10984837500001277,
          "durationTicks": 29,
          "midi": 38,
          "name": "D2",
          "ticks": 19140,
          "time": 72.4999275,
          "velocity": 0.6929133858267716
        },
        {
          "duration": 0.09090899999999635,
          "durationTicks": 24,
          "midi": 42,
          "name": "F#2",
          "ticks": 19140,
          "time": 72.4999275,
          "velocity": 0.6456692913385826
        },
        {
          "duration": 0.07954537499999503,
          "durationTicks": 21,
          "midi": 38,
          "name": "D2",
          "ticks": 19170,
          "time": 72.61356375000001,
          "velocity": 0.6929133858267716
        },
        {
          "duration": 0.06818174999999371,
          "durationTicks": 18,
          "midi": 36,
          "name": "C2",
          "ticks": 19200,
          "time": 72.72720000000001,
          "velocity": 0.7559055118110236
        },
        {
          "duration": 0.10984837499999855,
          "durationTicks": 29,
          "midi": 54,
          "name": "F#3",
          "ticks": 19200,
          "time": 72.72720000000001,
          "velocity": 0.8188976377952756
        },
        {
          "duration": 0.2007573749999949,
          "durationTicks": 53,
          "midi": 38,
          "name": "D2",
          "ticks": 19200,
          "time": 72.72720000000001,
          "velocity": 0.6929133858267716
        },
        {
          "duration": 0.06818174999999371,
          "durationTicks": 18,
          "midi": 42,
          "name": "F#2",
          "ticks": 19200,
          "time": 72.72720000000001,
          "velocity": 0.5669291338582677
        },
        {
          "duration": 0.2007573749999949,
          "durationTicks": 53,
          "midi": 38,
          "name": "D2",
          "ticks": 19260,
          "time": 72.95447250000001,
          "velocity": 0.6929133858267716
        },
        {
          "duration": 0.07954537499999503,
          "durationTicks": 21,
          "midi": 42,
          "name": "F#2",
          "ticks": 19260,
          "time": 72.95447250000001,
          "velocity": 0.5984251968503937
        },
        {
          "duration": 0.06060599999999283,
          "durationTicks": 16,
          "midi": 36,
          "name": "C2",
          "ticks": 19320,
          "time": 73.181745,
          "velocity": 0.7559055118110236
        },
        {
          "duration": 0.11742412499999944,
          "durationTicks": 31,
          "midi": 54,
          "name": "F#3",
          "ticks": 19320,
          "time": 73.181745,
          "velocity": 0.8188976377952756
        },
        {
          "duration": 0.2007573749999949,
          "durationTicks": 53,
          "midi": 38,
          "name": "D2",
          "ticks": 19320,
          "time": 73.181745,
          "velocity": 0.6929133858267716
        },
        {
          "duration": 0.12878775000000076,
          "durationTicks": 34,
          "midi": 51,
          "name": "D#3",
          "ticks": 19320,
          "time": 73.181745,
          "velocity": 0.7874015748031497
        },
        {
          "duration": 0.10227262499999767,
          "durationTicks": 27,
          "midi": 38,
          "name": "D2",
          "ticks": 19380,
          "time": 73.4090175,
          "velocity": 0.6929133858267716
        },
        {
          "duration": 0.10227262499999767,
          "durationTicks": 27,
          "midi": 42,
          "name": "F#2",
          "ticks": 19380,
          "time": 73.4090175,
          "velocity": 0.5748031496062992
        },
        {
          "duration": 0.1893937499999936,
          "durationTicks": 50,
          "midi": 38,
          "name": "D2",
          "ticks": 19410,
          "time": 73.52265375,
          "velocity": 0.6929133858267716
        },
        {
          "duration": 0.04166662500000484,
          "durationTicks": 11,
          "midi": 36,
          "name": "C2",
          "ticks": 19440,
          "time": 73.63629,
          "velocity": 0.7559055118110236
        },
        {
          "duration": 0.10984837500001277,
          "durationTicks": 29,
          "midi": 54,
          "name": "F#3",
          "ticks": 19440,
          "time": 73.63629,
          "velocity": 0.8188976377952756
        },
        {
          "duration": 0.07954537500000924,
          "durationTicks": 21,
          "midi": 42,
          "name": "F#2",
          "ticks": 19440,
          "time": 73.63629,
          "velocity": 0.5984251968503937
        },
        {
          "duration": 0.2196967499999971,
          "durationTicks": 58,
          "midi": 38,
          "name": "D2",
          "ticks": 19470,
          "time": 73.74992625,
          "velocity": 0.6929133858267716
        },
        {
          "duration": 0.07954537500000924,
          "durationTicks": 21,
          "midi": 42,
          "name": "F#2",
          "ticks": 19500,
          "time": 73.8635625,
          "velocity": 0.6456692913385826
        },
        {
          "duration": 0.07196962500000836,
          "durationTicks": 19,
          "midi": 38,
          "name": "D2",
          "ticks": 19530,
          "time": 73.97719875,
          "velocity": 0.6929133858267716
        },
        {
          "duration": 0.0378787500000044,
          "durationTicks": 10,
          "midi": 36,
          "name": "C2",
          "ticks": 19560,
          "time": 74.090835,
          "velocity": 0.7559055118110236
        },
        {
          "duration": 0.10984837500001277,
          "durationTicks": 29,
          "midi": 54,
          "name": "F#3",
          "ticks": 19560,
          "time": 74.090835,
          "velocity": 0.8188976377952756
        },
        {
          "duration": 0.1893937500000078,
          "durationTicks": 50,
          "midi": 38,
          "name": "D2",
          "ticks": 19560,
          "time": 74.090835,
          "velocity": 0.6929133858267716
        },
        {
          "duration": 0.1893937500000078,
          "durationTicks": 50,
          "midi": 51,
          "name": "D#3",
          "ticks": 19560,
          "time": 74.090835,
          "velocity": 0.8110236220472441
        },
        {
          "duration": 0.10984837499999855,
          "durationTicks": 29,
          "midi": 38,
          "name": "D2",
          "ticks": 19620,
          "time": 74.31810750000001,
          "velocity": 0.6929133858267716
        },
        {
          "duration": 0.08712112499999591,
          "durationTicks": 23,
          "midi": 42,
          "name": "F#2",
          "ticks": 19620,
          "time": 74.31810750000001,
          "velocity": 0.6456692913385826
        },
        {
          "duration": 0.07954537499999503,
          "durationTicks": 21,
          "midi": 38,
          "name": "D2",
          "ticks": 19650,
          "time": 74.43174375000001,
          "velocity": 0.6929133858267716
        },
        {
          "duration": 0.07196962499999415,
          "durationTicks": 19,
          "midi": 36,
          "name": "C2",
          "ticks": 19680,
          "time": 74.54538000000001,
          "velocity": 0.7559055118110236
        },
        {
          "duration": 0.10984837499999855,
          "durationTicks": 29,
          "midi": 54,
          "name": "F#3",
          "ticks": 19680,
          "time": 74.54538000000001,
          "velocity": 0.8188976377952756
        },
        {
          "duration": 0.2007573749999949,
          "durationTicks": 53,
          "midi": 38,
          "name": "D2",
          "ticks": 19680,
          "time": 74.54538000000001,
          "velocity": 0.6929133858267716
        },
        {
          "duration": 0.07196962499999415,
          "durationTicks": 19,
          "midi": 42,
          "name": "F#2",
          "ticks": 19680,
          "time": 74.54538000000001,
          "velocity": 0.5669291338582677
        },
        {
          "duration": 0.20833312500001,
          "durationTicks": 55,
          "midi": 38,
          "name": "D2",
          "ticks": 19740,
          "time": 74.7726525,
          "velocity": 0.6929133858267716
        },
        {
          "duration": 0.07954537500000924,
          "durationTicks": 21,
          "midi": 42,
          "name": "F#2",
          "ticks": 19740,
          "time": 74.7726525,
          "velocity": 0.5984251968503937
        },
        {
          "duration": 0.06060599999999283,
          "durationTicks": 16,
          "midi": 36,
          "name": "C2",
          "ticks": 19800,
          "time": 74.999925,
          "velocity": 0.7559055118110236
        },
        {
          "duration": 0.10984837499999855,
          "durationTicks": 29,
          "midi": 54,
          "name": "F#3",
          "ticks": 19800,
          "time": 74.999925,
          "velocity": 0.8188976377952756
        },
        {
          "duration": 0.2007573749999949,
          "durationTicks": 53,
          "midi": 38,
          "name": "D2",
          "ticks": 19800,
          "time": 74.999925,
          "velocity": 0.6929133858267716
        },
        {
          "duration": 0.1325756250000012,
          "durationTicks": 35,
          "midi": 51,
          "name": "D#3",
          "ticks": 19800,
          "time": 74.999925,
          "velocity": 0.7874015748031497
        },
        {
          "duration": 0.10984837500001277,
          "durationTicks": 29,
          "midi": 38,
          "name": "D2",
          "ticks": 19860,
          "time": 75.2271975,
          "velocity": 0.6929133858267716
        },
        {
          "duration": 0.10984837500001277,
          "durationTicks": 29,
          "midi": 42,
          "name": "F#2",
          "ticks": 19860,
          "time": 75.2271975,
          "velocity": 0.5748031496062992
        },
        {
          "duration": 0.1893937499999936,
          "durationTicks": 50,
          "midi": 38,
          "name": "D2",
          "ticks": 19890,
          "time": 75.34083375,
          "velocity": 0.6929133858267716
        },
        {
          "duration": 0.04924237500000572,
          "durationTicks": 13,
          "midi": 36,
          "name": "C2",
          "ticks": 19920,
          "time": 75.45447,
          "velocity": 0.7559055118110236
        },
        {
          "duration": 0.12121200000001409,
          "durationTicks": 32,
          "midi": 54,
          "name": "F#3",
          "ticks": 19920,
          "time": 75.45447,
          "velocity": 0.8188976377952756
        },
        {
          "duration": 0.07196962500000836,
          "durationTicks": 19,
          "midi": 42,
          "name": "F#2",
          "ticks": 19920,
          "time": 75.45447,
          "velocity": 0.5984251968503937
        },
        {
          "duration": 0.2196967499999971,
          "durationTicks": 58,
          "midi": 38,
          "name": "D2",
          "ticks": 19950,
          "time": 75.56810625,
          "velocity": 0.6929133858267716
        },
        {
          "duration": 0.07954537500000924,
          "durationTicks": 21,
          "midi": 42,
          "name": "F#2",
          "ticks": 19980,
          "time": 75.6817425,
          "velocity": 0.6456692913385826
        },
        {
          "duration": 0.06818174999999371,
          "durationTicks": 18,
          "midi": 38,
          "name": "D2",
          "ticks": 20010,
          "time": 75.79537875000001,
          "velocity": 0.6929133858267716
        },
        {
          "duration": 0.04924237499999151,
          "durationTicks": 13,
          "midi": 36,
          "name": "C2",
          "ticks": 20040,
          "time": 75.90901500000001,
          "velocity": 0.7559055118110236
        },
        {
          "duration": 0.10984837499999855,
          "durationTicks": 29,
          "midi": 54,
          "name": "F#3",
          "ticks": 20040,
          "time": 75.90901500000001,
          "velocity": 0.8188976377952756
        },
        {
          "duration": 0.1893937499999936,
          "durationTicks": 50,
          "midi": 38,
          "name": "D2",
          "ticks": 20040,
          "time": 75.90901500000001,
          "velocity": 0.6929133858267716
        },
        {
          "duration": 0.1893937499999936,
          "durationTicks": 50,
          "midi": 51,
          "name": "D#3",
          "ticks": 20040,
          "time": 75.90901500000001,
          "velocity": 0.8110236220472441
        },
        {
          "duration": 0.10984837499999855,
          "durationTicks": 29,
          "midi": 38,
          "name": "D2",
          "ticks": 20100,
          "time": 76.13628750000001,
          "velocity": 0.6929133858267716
        },
        {
          "duration": 0.07954537499999503,
          "durationTicks": 21,
          "midi": 42,
          "name": "F#2",
          "ticks": 20100,
          "time": 76.13628750000001,
          "velocity": 0.6456692913385826
        },
        {
          "duration": 0.07954537500000924,
          "durationTicks": 21,
          "midi": 38,
          "name": "D2",
          "ticks": 20130,
          "time": 76.24992375000001,
          "velocity": 0.6929133858267716
        },
        {
          "duration": 0.07954537500000924,
          "durationTicks": 21,
          "midi": 36,
          "name": "C2",
          "ticks": 20160,
          "time": 76.36356,
          "velocity": 0.7559055118110236
        },
        {
          "duration": 0.12121199999999988,
          "durationTicks": 32,
          "midi": 54,
          "name": "F#3",
          "ticks": 20160,
          "time": 76.36356,
          "velocity": 0.8188976377952756
        },
        {
          "duration": 0.1893937499999936,
          "durationTicks": 50,
          "midi": 38,
          "name": "D2",
          "ticks": 20160,
          "time": 76.36356,
          "velocity": 0.6929133858267716
        },
        {
          "duration": 0.05681812499999239,
          "durationTicks": 15,
          "midi": 42,
          "name": "F#2",
          "ticks": 20160,
          "time": 76.36356,
          "velocity": 0.5669291338582677
        },
        {
          "duration": 0.2007573749999949,
          "durationTicks": 53,
          "midi": 38,
          "name": "D2",
          "ticks": 20220,
          "time": 76.5908325,
          "velocity": 0.6929133858267716
        },
        {
          "duration": 0.09090899999999635,
          "durationTicks": 24,
          "midi": 42,
          "name": "F#2",
          "ticks": 20220,
          "time": 76.5908325,
          "velocity": 0.5984251968503937
        },
        {
          "duration": 0.06060599999999283,
          "durationTicks": 16,
          "midi": 36,
          "name": "C2",
          "ticks": 20280,
          "time": 76.818105,
          "velocity": 0.7559055118110236
        },
        {
          "duration": 0.10984837500001277,
          "durationTicks": 29,
          "midi": 54,
          "name": "F#3",
          "ticks": 20280,
          "time": 76.818105,
          "velocity": 0.8188976377952756
        },
        {
          "duration": 0.2007573749999949,
          "durationTicks": 53,
          "midi": 38,
          "name": "D2",
          "ticks": 20280,
          "time": 76.818105,
          "velocity": 0.6929133858267716
        },
        {
          "duration": 0.12878775000000076,
          "durationTicks": 34,
          "midi": 51,
          "name": "D#3",
          "ticks": 20280,
          "time": 76.818105,
          "velocity": 0.7874015748031497
        },
        {
          "duration": 0.09848475000001145,
          "durationTicks": 26,
          "midi": 38,
          "name": "D2",
          "ticks": 20340,
          "time": 77.0453775,
          "velocity": 0.6929133858267716
        },
        {
          "duration": 0.07954537500000924,
          "durationTicks": 21,
          "midi": 42,
          "name": "F#2",
          "ticks": 20340,
          "time": 77.0453775,
          "velocity": 0.5748031496062992
        },
        {
          "duration": 0.20075737500000912,
          "durationTicks": 53,
          "midi": 38,
          "name": "D2",
          "ticks": 20370,
          "time": 77.15901375,
          "velocity": 0.6929133858267716
        },
        {
          "duration": 0.0378787500000044,
          "durationTicks": 10,
          "midi": 36,
          "name": "C2",
          "ticks": 20400,
          "time": 77.27265,
          "velocity": 0.7559055118110236
        },
        {
          "duration": 0.11742412499999944,
          "durationTicks": 31,
          "midi": 54,
          "name": "F#3",
          "ticks": 20400,
          "time": 77.27265,
          "velocity": 0.8188976377952756
        },
        {
          "duration": 0.08712112500001012,
          "durationTicks": 23,
          "midi": 42,
          "name": "F#2",
          "ticks": 20400,
          "time": 77.27265,
          "velocity": 0.5984251968503937
        },
        {
          "duration": 0.2196967499999829,
          "durationTicks": 58,
          "midi": 38,
          "name": "D2",
          "ticks": 20430,
          "time": 77.38628625000001,
          "velocity": 0.6929133858267716
        },
        {
          "duration": 0.07196962499999415,
          "durationTicks": 19,
          "midi": 42,
          "name": "F#2",
          "ticks": 20460,
          "time": 77.49992250000001,
          "velocity": 0.6456692913385826
        },
        {
          "duration": 0.06060599999999283,
          "durationTicks": 16,
          "midi": 38,
          "name": "D2",
          "ticks": 20490,
          "time": 77.61355875000001,
          "velocity": 0.6929133858267716
        },
        {
          "duration": 0.04924237499999151,
          "durationTicks": 13,
          "midi": 36,
          "name": "C2",
          "ticks": 20520,
          "time": 77.72719500000001,
          "velocity": 0.7559055118110236
        },
        {
          "duration": 0.10984837499999855,
          "durationTicks": 29,
          "midi": 54,
          "name": "F#3",
          "ticks": 20520,
          "time": 77.72719500000001,
          "velocity": 0.8188976377952756
        },
        {
          "duration": 0.2007573749999949,
          "durationTicks": 53,
          "midi": 38,
          "name": "D2",
          "ticks": 20520,
          "time": 77.72719500000001,
          "velocity": 0.6929133858267716
        },
        {
          "duration": 0.1893937499999936,
          "durationTicks": 50,
          "midi": 51,
          "name": "D#3",
          "ticks": 20520,
          "time": 77.72719500000001,
          "velocity": 0.8110236220472441
        },
        {
          "duration": 0.12121199999999988,
          "durationTicks": 32,
          "midi": 38,
          "name": "D2",
          "ticks": 20580,
          "time": 77.9544675,
          "velocity": 0.6929133858267716
        },
        {
          "duration": 0.09090899999999635,
          "durationTicks": 24,
          "midi": 42,
          "name": "F#2",
          "ticks": 20580,
          "time": 77.9544675,
          "velocity": 0.6456692913385826
        },
        {
          "duration": 0.06818175000000792,
          "durationTicks": 18,
          "midi": 38,
          "name": "D2",
          "ticks": 20610,
          "time": 78.06810375,
          "velocity": 0.6929133858267716
        },
        {
          "duration": 0.07954537500000924,
          "durationTicks": 21,
          "midi": 36,
          "name": "C2",
          "ticks": 20640,
          "time": 78.18174,
          "velocity": 0.7559055118110236
        },
        {
          "duration": 0.11742412499999944,
          "durationTicks": 31,
          "midi": 54,
          "name": "F#3",
          "ticks": 20640,
          "time": 78.18174,
          "velocity": 0.8188976377952756
        },
        {
          "duration": 0.2007573749999949,
          "durationTicks": 53,
          "midi": 38,
          "name": "D2",
          "ticks": 20640,
          "time": 78.18174,
          "velocity": 0.6929133858267716
        },
        {
          "duration": 0.07954537500000924,
          "durationTicks": 21,
          "midi": 42,
          "name": "F#2",
          "ticks": 20640,
          "time": 78.18174,
          "velocity": 0.5669291338582677
        },
        {
          "duration": 0.2007573749999949,
          "durationTicks": 53,
          "midi": 38,
          "name": "D2",
          "ticks": 20700,
          "time": 78.4090125,
          "velocity": 0.6929133858267716
        },
        {
          "duration": 0.08333325000000968,
          "durationTicks": 22,
          "midi": 42,
          "name": "F#2",
          "ticks": 20700,
          "time": 78.4090125,
          "velocity": 0.5984251968503937
        },
        {
          "duration": 0.06818175000000792,
          "durationTicks": 18,
          "midi": 36,
          "name": "C2",
          "ticks": 20760,
          "time": 78.636285,
          "velocity": 0.7559055118110236
        },
        {
          "duration": 0.09848475000001145,
          "durationTicks": 26,
          "midi": 54,
          "name": "F#3",
          "ticks": 20760,
          "time": 78.636285,
          "velocity": 0.8188976377952756
        },
        {
          "duration": 0.1893937499999936,
          "durationTicks": 50,
          "midi": 38,
          "name": "D2",
          "ticks": 20760,
          "time": 78.636285,
          "velocity": 0.6929133858267716
        },
        {
          "duration": 0.12121200000001409,
          "durationTicks": 32,
          "midi": 51,
          "name": "D#3",
          "ticks": 20760,
          "time": 78.636285,
          "velocity": 0.7874015748031497
        },
        {
          "duration": 0.10227262499999767,
          "durationTicks": 27,
          "midi": 38,
          "name": "D2",
          "ticks": 20820,
          "time": 78.8635575,
          "velocity": 0.6929133858267716
        },
        {
          "duration": 0.10227262499999767,
          "durationTicks": 27,
          "midi": 42,
          "name": "F#2",
          "ticks": 20820,
          "time": 78.8635575,
          "velocity": 0.5748031496062992
        },
        {
          "duration": 0.2007573749999949,
          "durationTicks": 53,
          "midi": 38,
          "name": "D2",
          "ticks": 20850,
          "time": 78.97719375000001,
          "velocity": 0.6929133858267716
        },
        {
          "duration": 0.03030299999998931,
          "durationTicks": 8,
          "midi": 36,
          "name": "C2",
          "ticks": 20880,
          "time": 79.09083000000001,
          "velocity": 0.7559055118110236
        },
        {
          "duration": 0.10984837499999855,
          "durationTicks": 29,
          "midi": 54,
          "name": "F#3",
          "ticks": 20880,
          "time": 79.09083000000001,
          "velocity": 0.8188976377952756
        },
        {
          "duration": 0.06818174999999371,
          "durationTicks": 18,
          "midi": 42,
          "name": "F#2",
          "ticks": 20880,
          "time": 79.09083000000001,
          "velocity": 0.5984251968503937
        },
        {
          "duration": 0.2196967499999829,
          "durationTicks": 58,
          "midi": 38,
          "name": "D2",
          "ticks": 20910,
          "time": 79.20446625000001,
          "velocity": 0.6929133858267716
        },
        {
          "duration": 0.06818174999999371,
          "durationTicks": 18,
          "midi": 42,
          "name": "F#2",
          "ticks": 20940,
          "time": 79.31810250000001,
          "velocity": 0.6456692913385826
        },
        {
          "duration": 0.06060599999999283,
          "durationTicks": 16,
          "midi": 38,
          "name": "D2",
          "ticks": 20970,
          "time": 79.43173875000001,
          "velocity": 0.6929133858267716
        },
        {
          "duration": 0.06060599999999283,
          "durationTicks": 16,
          "midi": 36,
          "name": "C2",
          "ticks": 21000,
          "time": 79.545375,
          "velocity": 0.7559055118110236
        },
        {
          "duration": 0.11742412499999944,
          "durationTicks": 31,
          "midi": 54,
          "name": "F#3",
          "ticks": 21000,
          "time": 79.545375,
          "velocity": 0.8188976377952756
        },
        {
          "duration": 0.2007573749999949,
          "durationTicks": 53,
          "midi": 38,
          "name": "D2",
          "ticks": 21000,
          "time": 79.545375,
          "velocity": 0.6929133858267716
        },
        {
          "duration": 0.2007573749999949,
          "durationTicks": 53,
          "midi": 51,
          "name": "D#3",
          "ticks": 21000,
          "time": 79.545375,
          "velocity": 0.8110236220472441
        },
        {
          "duration": 0.10984837499999855,
          "durationTicks": 29,
          "midi": 38,
          "name": "D2",
          "ticks": 21060,
          "time": 79.7726475,
          "velocity": 0.6929133858267716
        },
        {
          "duration": 0.09848474999999723,
          "durationTicks": 26,
          "midi": 42,
          "name": "F#2",
          "ticks": 21060,
          "time": 79.7726475,
          "velocity": 0.6456692913385826
        },
        {
          "duration": 0.07954537500000924,
          "durationTicks": 21,
          "midi": 38,
          "name": "D2",
          "ticks": 21090,
          "time": 79.88628375,
          "velocity": 0.6929133858267716
        },
        {
          "duration": 0.07196962500000836,
          "durationTicks": 19,
          "midi": 36,
          "name": "C2",
          "ticks": 21120,
          "time": 79.99992,
          "velocity": 0.7559055118110236
        },
        {
          "duration": 0.12121200000001409,
          "durationTicks": 32,
          "midi": 54,
          "name": "F#3",
          "ticks": 21120,
          "time": 79.99992,
          "velocity": 0.8188976377952756
        },
        {
          "duration": 0.2007573749999949,
          "durationTicks": 53,
          "midi": 38,
          "name": "D2",
          "ticks": 21120,
          "time": 79.99992,
          "velocity": 0.6929133858267716
        },
        {
          "duration": 0.07196962500000836,
          "durationTicks": 19,
          "midi": 42,
          "name": "F#2",
          "ticks": 21120,
          "time": 79.99992,
          "velocity": 0.5669291338582677
        },
        {
          "duration": 0.20075737500000912,
          "durationTicks": 53,
          "midi": 38,
          "name": "D2",
          "ticks": 21180,
          "time": 80.2271925,
          "velocity": 0.6929133858267716
        },
        {
          "duration": 0.07954537500000924,
          "durationTicks": 21,
          "midi": 42,
          "name": "F#2",
          "ticks": 21180,
          "time": 80.2271925,
          "velocity": 0.5984251968503937
        },
        {
          "duration": 0.06060600000000704,
          "durationTicks": 16,
          "midi": 36,
          "name": "C2",
          "ticks": 21240,
          "time": 80.454465,
          "velocity": 0.7559055118110236
        },
        {
          "duration": 0.12121200000001409,
          "durationTicks": 32,
          "midi": 54,
          "name": "F#3",
          "ticks": 21240,
          "time": 80.454465,
          "velocity": 0.8188976377952756
        },
        {
          "duration": 0.20833312500001,
          "durationTicks": 55,
          "midi": 38,
          "name": "D2",
          "ticks": 21240,
          "time": 80.454465,
          "velocity": 0.6929133858267716
        },
        {
          "duration": 0.12121200000001409,
          "durationTicks": 32,
          "midi": 51,
          "name": "D#3",
          "ticks": 21240,
          "time": 80.454465,
          "velocity": 0.7874015748031497
        },
        {
          "duration": 0.09090899999999635,
          "durationTicks": 24,
          "midi": 38,
          "name": "D2",
          "ticks": 21300,
          "time": 80.68173750000001,
          "velocity": 0.6929133858267716
        },
        {
          "duration": 0.09090899999999635,
          "durationTicks": 24,
          "midi": 42,
          "name": "F#2",
          "ticks": 21300,
          "time": 80.68173750000001,
          "velocity": 0.5748031496062992
        },
        {
          "duration": 0.19318162499999403,
          "durationTicks": 51,
          "midi": 38,
          "name": "D2",
          "ticks": 21330,
          "time": 80.79537375000001,
          "velocity": 0.6929133858267716
        },
        {
          "duration": 0.04166662499999063,
          "durationTicks": 11,
          "midi": 36,
          "name": "C2",
          "ticks": 21360,
          "time": 80.90901000000001,
          "velocity": 0.7559055118110236
        },
        {
          "duration": 0.13257562499998699,
          "durationTicks": 35,
          "midi": 54,
          "name": "F#3",
          "ticks": 21360,
          "time": 80.90901000000001,
          "velocity": 0.8188976377952756
        },
        {
          "duration": 0.08333324999999547,
          "durationTicks": 22,
          "midi": 42,
          "name": "F#2",
          "ticks": 21360,
          "time": 80.90901000000001,
          "velocity": 0.5984251968503937
        },
        {
          "duration": 0.227272499999998,
          "durationTicks": 60,
          "midi": 38,
          "name": "D2",
          "ticks": 21390,
          "time": 81.02264625000001,
          "velocity": 0.6929133858267716
        },
        {
          "duration": 0.07954537500000924,
          "durationTicks": 21,
          "midi": 42,
          "name": "F#2",
          "ticks": 21420,
          "time": 81.13628250000001,
          "velocity": 0.6456692913385826
        },
        {
          "duration": 0.06060599999999283,
          "durationTicks": 16,
          "midi": 38,
          "name": "D2",
          "ticks": 21450,
          "time": 81.24991875,
          "velocity": 0.6929133858267716
        },
        {
          "duration": 0.04924237499999151,
          "durationTicks": 13,
          "midi": 36,
          "name": "C2",
          "ticks": 21480,
          "time": 81.363555,
          "velocity": 0.7559055118110236
        },
        {
          "duration": 0.12121199999999988,
          "durationTicks": 32,
          "midi": 54,
          "name": "F#3",
          "ticks": 21480,
          "time": 81.363555,
          "velocity": 0.8188976377952756
        },
        {
          "duration": 0.2007573749999949,
          "durationTicks": 53,
          "midi": 38,
          "name": "D2",
          "ticks": 21480,
          "time": 81.363555,
          "velocity": 0.6929133858267716
        },
        {
          "duration": 0.2007573749999949,
          "durationTicks": 53,
          "midi": 51,
          "name": "D#3",
          "ticks": 21480,
          "time": 81.363555,
          "velocity": 0.8110236220472441
        },
        {
          "duration": 0.10984837500001277,
          "durationTicks": 29,
          "midi": 38,
          "name": "D2",
          "ticks": 21540,
          "time": 81.5908275,
          "velocity": 0.6929133858267716
        },
        {
          "duration": 0.09090899999999635,
          "durationTicks": 24,
          "midi": 42,
          "name": "F#2",
          "ticks": 21540,
          "time": 81.5908275,
          "velocity": 0.6456692913385826
        },
        {
          "duration": 0.09090899999999635,
          "durationTicks": 24,
          "midi": 38,
          "name": "D2",
          "ticks": 21570,
          "time": 81.70446375,
          "velocity": 0.6929133858267716
        },
        {
          "duration": 0.07954537500000924,
          "durationTicks": 21,
          "midi": 36,
          "name": "C2",
          "ticks": 21600,
          "time": 81.8181,
          "velocity": 0.7559055118110236
        },
        {
          "duration": 0.10984837500001277,
          "durationTicks": 29,
          "midi": 54,
          "name": "F#3",
          "ticks": 21600,
          "time": 81.8181,
          "velocity": 0.8188976377952756
        },
        {
          "duration": 0.20075737500000912,
          "durationTicks": 53,
          "midi": 38,
          "name": "D2",
          "ticks": 21600,
          "time": 81.8181,
          "velocity": 0.6929133858267716
        },
        {
          "duration": 0.07954537500000924,
          "durationTicks": 21,
          "midi": 42,
          "name": "F#2",
          "ticks": 21600,
          "time": 81.8181,
          "velocity": 0.5669291338582677
        },
        {
          "duration": 0.20075737500000912,
          "durationTicks": 53,
          "midi": 38,
          "name": "D2",
          "ticks": 21660,
          "time": 82.0453725,
          "velocity": 0.6929133858267716
        },
        {
          "duration": 0.07954537500000924,
          "durationTicks": 21,
          "midi": 42,
          "name": "F#2",
          "ticks": 21660,
          "time": 82.0453725,
          "velocity": 0.5984251968503937
        },
        {
          "duration": 0.06818174999999371,
          "durationTicks": 18,
          "midi": 36,
          "name": "C2",
          "ticks": 21720,
          "time": 82.27264500000001,
          "velocity": 0.7559055118110236
        },
        {
          "duration": 0.11742412499998522,
          "durationTicks": 31,
          "midi": 54,
          "name": "F#3",
          "ticks": 21720,
          "time": 82.27264500000001,
          "velocity": 0.8188976377952756
        },
        {
          "duration": 0.19696949999999447,
          "durationTicks": 52,
          "midi": 38,
          "name": "D2",
          "ticks": 21720,
          "time": 82.27264500000001,
          "velocity": 0.6929133858267716
        },
        {
          "duration": 0.12878775000000076,
          "durationTicks": 34,
          "midi": 51,
          "name": "D#3",
          "ticks": 21720,
          "time": 82.27264500000001,
          "velocity": 0.7874015748031497
        },
        {
          "duration": 0.07954537499999503,
          "durationTicks": 21,
          "midi": 38,
          "name": "D2",
          "ticks": 21780,
          "time": 82.49991750000001,
          "velocity": 0.6929133858267716
        },
        {
          "duration": 0.07954537499999503,
          "durationTicks": 21,
          "midi": 42,
          "name": "F#2",
          "ticks": 21780,
          "time": 82.49991750000001,
          "velocity": 0.5748031496062992
        },
        {
          "duration": 0.2007573749999949,
          "durationTicks": 53,
          "midi": 38,
          "name": "D2",
          "ticks": 21810,
          "time": 82.61355375000001,
          "velocity": 0.6929133858267716
        },
        {
          "duration": 0.04166662500000484,
          "durationTicks": 11,
          "midi": 36,
          "name": "C2",
          "ticks": 21840,
          "time": 82.72719000000001,
          "velocity": 0.7559055118110236
        },
        {
          "duration": 0.09848474999999723,
          "durationTicks": 26,
          "midi": 54,
          "name": "F#3",
          "ticks": 21840,
          "time": 82.72719000000001,
          "velocity": 0.8188976377952756
        },
        {
          "duration": 0.06818175000000792,
          "durationTicks": 18,
          "midi": 42,
          "name": "F#2",
          "ticks": 21840,
          "time": 82.72719000000001,
          "velocity": 0.5984251968503937
        },
        {
          "duration": 0.23106037499999843,
          "durationTicks": 61,
          "midi": 38,
          "name": "D2",
          "ticks": 21870,
          "time": 82.84082625,
          "velocity": 0.6929133858267716
        },
        {
          "duration": 0.07954537500000924,
          "durationTicks": 21,
          "midi": 42,
          "name": "F#2",
          "ticks": 21900,
          "time": 82.9544625,
          "velocity": 0.6456692913385826
        },
        {
          "duration": 0.06060599999999283,
          "durationTicks": 16,
          "midi": 38,
          "name": "D2",
          "ticks": 21930,
          "time": 83.06809875,
          "velocity": 0.6929133858267716
        },
        {
          "duration": 0.04924237499999151,
          "durationTicks": 13,
          "midi": 36,
          "name": "C2",
          "ticks": 21960,
          "time": 83.181735,
          "velocity": 0.7559055118110236
        },
        {
          "duration": 0.11742412499999944,
          "durationTicks": 31,
          "midi": 54,
          "name": "F#3",
          "ticks": 21960,
          "time": 83.181735,
          "velocity": 0.8188976377952756
        },
        {
          "duration": 0.2007573749999949,
          "durationTicks": 53,
          "midi": 38,
          "name": "D2",
          "ticks": 21960,
          "time": 83.181735,
          "velocity": 0.6929133858267716
        },
        {
          "duration": 0.2007573749999949,
          "durationTicks": 53,
          "midi": 51,
          "name": "D#3",
          "ticks": 21960,
          "time": 83.181735,
          "velocity": 0.8110236220472441
        },
        {
          "duration": 0.113636249999999,
          "durationTicks": 30,
          "midi": 38,
          "name": "D2",
          "ticks": 22020,
          "time": 83.4090075,
          "velocity": 0.6929133858267716
        },
        {
          "duration": 0.09090899999999635,
          "durationTicks": 24,
          "midi": 42,
          "name": "F#2",
          "ticks": 22020,
          "time": 83.4090075,
          "velocity": 0.6456692913385826
        },
        {
          "duration": 0.07954537500000924,
          "durationTicks": 21,
          "midi": 38,
          "name": "D2",
          "ticks": 22050,
          "time": 83.52264375,
          "velocity": 0.6929133858267716
        },
        {
          "duration": 0.07196962500000836,
          "durationTicks": 19,
          "midi": 36,
          "name": "C2",
          "ticks": 22080,
          "time": 83.63628,
          "velocity": 0.7559055118110236
        },
        {
          "duration": 0.12121200000001409,
          "durationTicks": 32,
          "midi": 54,
          "name": "F#3",
          "ticks": 22080,
          "time": 83.63628,
          "velocity": 0.8188976377952756
        },
        {
          "duration": 0.20075737500000912,
          "durationTicks": 53,
          "midi": 38,
          "name": "D2",
          "ticks": 22080,
          "time": 83.63628,
          "velocity": 0.6929133858267716
        },
        {
          "duration": 0.04924237500000572,
          "durationTicks": 13,
          "midi": 51,
          "name": "D#3",
          "ticks": 22080,
          "time": 83.63628,
          "velocity": 0.8346456692913385
        },
        {
          "duration": 0.2007573749999949,
          "durationTicks": 53,
          "midi": 38,
          "name": "D2",
          "ticks": 22140,
          "time": 83.86355250000001,
          "velocity": 0.6929133858267716
        },
        {
          "duration": 0.04166662499999063,
          "durationTicks": 11,
          "midi": 51,
          "name": "D#3",
          "ticks": 22140,
          "time": 83.86355250000001,
          "velocity": 0.7480314960629921
        },
        {
          "duration": 0.04924237499999151,
          "durationTicks": 13,
          "midi": 36,
          "name": "C2",
          "ticks": 22200,
          "time": 84.09082500000001,
          "velocity": 0.7559055118110236
        },
        {
          "duration": 0.10984837499999855,
          "durationTicks": 29,
          "midi": 54,
          "name": "F#3",
          "ticks": 22200,
          "time": 84.09082500000001,
          "velocity": 0.8188976377952756
        },
        {
          "duration": 0.1893937499999936,
          "durationTicks": 50,
          "midi": 38,
          "name": "D2",
          "ticks": 22200,
          "time": 84.09082500000001,
          "velocity": 0.6929133858267716
        },
        {
          "duration": 0.0378787500000044,
          "durationTicks": 10,
          "midi": 51,
          "name": "D#3",
          "ticks": 22200,
          "time": 84.09082500000001,
          "velocity": 0.9212598425196851
        },
        {
          "duration": 0.08712112499999591,
          "durationTicks": 23,
          "midi": 38,
          "name": "D2",
          "ticks": 22260,
          "time": 84.31809750000001,
          "velocity": 0.6929133858267716
        },
        {
          "duration": 0.0378787500000044,
          "durationTicks": 10,
          "midi": 51,
          "name": "D#3",
          "ticks": 22260,
          "time": 84.31809750000001,
          "velocity": 0.7874015748031497
        },
        {
          "duration": 0.2007573749999949,
          "durationTicks": 53,
          "midi": 38,
          "name": "D2",
          "ticks": 22290,
          "time": 84.43173375,
          "velocity": 0.6929133858267716
        },
        {
          "duration": 0.04924237499999151,
          "durationTicks": 13,
          "midi": 36,
          "name": "C2",
          "ticks": 22320,
          "time": 84.54537,
          "velocity": 0.7559055118110236
        },
        {
          "duration": 0.11742412499999944,
          "durationTicks": 31,
          "midi": 54,
          "name": "F#3",
          "ticks": 22320,
          "time": 84.54537,
          "velocity": 0.8188976377952756
        },
        {
          "duration": 0.04924237499999151,
          "durationTicks": 13,
          "midi": 51,
          "name": "D#3",
          "ticks": 22320,
          "time": 84.54537,
          "velocity": 0.8582677165354331
        },
        {
          "duration": 0.22348462500001176,
          "durationTicks": 59,
          "midi": 38,
          "name": "D2",
          "ticks": 22350,
          "time": 84.65900625,
          "velocity": 0.6929133858267716
        },
        {
          "duration": 0.04924237499999151,
          "durationTicks": 13,
          "midi": 51,
          "name": "D#3",
          "ticks": 22380,
          "time": 84.7726425,
          "velocity": 0.8346456692913385
        },
        {
          "duration": 0.06818175000000792,
          "durationTicks": 18,
          "midi": 38,
          "name": "D2",
          "ticks": 22410,
          "time": 84.88627875,
          "velocity": 0.6929133858267716
        },
        {
          "duration": 0.04924237499999151,
          "durationTicks": 13,
          "midi": 36,
          "name": "C2",
          "ticks": 22440,
          "time": 84.999915,
          "velocity": 0.7559055118110236
        },
        {
          "duration": 0.12121200000001409,
          "durationTicks": 32,
          "midi": 54,
          "name": "F#3",
          "ticks": 22440,
          "time": 84.999915,
          "velocity": 0.8188976377952756
        },
        {
          "duration": 0.20075737500000912,
          "durationTicks": 53,
          "midi": 38,
          "name": "D2",
          "ticks": 22440,
          "time": 84.999915,
          "velocity": 0.6929133858267716
        },
        {
          "duration": 0.00378787500000044,
          "durationTicks": 1,
          "midi": 51,
          "name": "D#3",
          "ticks": 22440,
          "time": 84.999915,
          "velocity": 0.889763779527559
        },
        {
          "duration": 0.00378787500000044,
          "durationTicks": 1,
          "midi": 51,
          "name": "D#3",
          "ticks": 22440,
          "time": 84.999915,
          "velocity": 0.9606299212598425
        },
        {
          "duration": 0.022727250000016852,
          "durationTicks": 6,
          "midi": 51,
          "name": "D#3",
          "ticks": 22440,
          "time": 84.999915,
          "velocity": 0.5354330708661418
        },
        {
          "duration": 0.10984837500001277,
          "durationTicks": 29,
          "midi": 38,
          "name": "D2",
          "ticks": 22500,
          "time": 85.2271875,
          "velocity": 0.6929133858267716
        },
        {
          "duration": 0.06060600000000704,
          "durationTicks": 16,
          "midi": 51,
          "name": "D#3",
          "ticks": 22500,
          "time": 85.2271875,
          "velocity": 0.7637795275590551
        },
        {
          "duration": 0.07954537499999503,
          "durationTicks": 21,
          "midi": 38,
          "name": "D2",
          "ticks": 22530,
          "time": 85.34082375000001,
          "velocity": 0.6929133858267716
        },
        {
          "duration": 0.09090899999999635,
          "durationTicks": 24,
          "midi": 36,
          "name": "C2",
          "ticks": 22560,
          "time": 85.45446000000001,
          "velocity": 0.7559055118110236
        },
        {
          "duration": 0.12878774999998654,
          "durationTicks": 34,
          "midi": 54,
          "name": "F#3",
          "ticks": 22560,
          "time": 85.45446000000001,
          "velocity": 0.8188976377952756
        },
        {
          "duration": 0.1893937499999936,
          "durationTicks": 50,
          "midi": 38,
          "name": "D2",
          "ticks": 22560,
          "time": 85.45446000000001,
          "velocity": 0.6929133858267716
        },
        {
          "duration": 0.03030299999998931,
          "durationTicks": 8,
          "midi": 51,
          "name": "D#3",
          "ticks": 22560,
          "time": 85.45446000000001,
          "velocity": 0.8110236220472441
        },
        {
          "duration": 0.19318162500000824,
          "durationTicks": 51,
          "midi": 38,
          "name": "D2",
          "ticks": 22620,
          "time": 85.68173250000001,
          "velocity": 0.6929133858267716
        },
        {
          "duration": 0.03030299999998931,
          "durationTicks": 8,
          "midi": 51,
          "name": "D#3",
          "ticks": 22620,
          "time": 85.68173250000001,
          "velocity": 0.8346456692913385
        },
        {
          "duration": 0.06060599999999283,
          "durationTicks": 16,
          "midi": 36,
          "name": "C2",
          "ticks": 22680,
          "time": 85.90900500000001,
          "velocity": 0.7559055118110236
        },
        {
          "duration": 0.113636249999999,
          "durationTicks": 30,
          "midi": 54,
          "name": "F#3",
          "ticks": 22680,
          "time": 85.90900500000001,
          "velocity": 0.8188976377952756
        },
        {
          "duration": 0.2007573749999949,
          "durationTicks": 53,
          "midi": 38,
          "name": "D2",
          "ticks": 22680,
          "time": 85.90900500000001,
          "velocity": 0.6929133858267716
        },
        {
          "duration": 0.04166662500000484,
          "durationTicks": 11,
          "midi": 51,
          "name": "D#3",
          "ticks": 22680,
          "time": 85.90900500000001,
          "velocity": 0.889763779527559
        },
        {
          "duration": 0.10984837499999855,
          "durationTicks": 29,
          "midi": 38,
          "name": "D2",
          "ticks": 22740,
          "time": 86.1362775,
          "velocity": 0.6929133858267716
        },
        {
          "duration": 0.04924237499999151,
          "durationTicks": 13,
          "midi": 51,
          "name": "D#3",
          "ticks": 22740,
          "time": 86.1362775,
          "velocity": 0.8582677165354331
        },
        {
          "duration": 0.2007573749999949,
          "durationTicks": 53,
          "midi": 38,
          "name": "D2",
          "ticks": 22770,
          "time": 86.24991375,
          "velocity": 0.6929133858267716
        },
        {
          "duration": 0.04166662500000484,
          "durationTicks": 11,
          "midi": 36,
          "name": "C2",
          "ticks": 22800,
          "time": 86.36355,
          "velocity": 0.7559055118110236
        },
        {
          "duration": 0.12121200000001409,
          "durationTicks": 32,
          "midi": 54,
          "name": "F#3",
          "ticks": 22800,
          "time": 86.36355,
          "velocity": 0.8188976377952756
        },
        {
          "duration": 0.04924237499999151,
          "durationTicks": 13,
          "midi": 51,
          "name": "D#3",
          "ticks": 22800,
          "time": 86.36355,
          "velocity": 0.8582677165354331
        },
        {
          "duration": 0.2196967499999971,
          "durationTicks": 58,
          "midi": 38,
          "name": "D2",
          "ticks": 22830,
          "time": 86.47718625,
          "velocity": 0.6929133858267716
        },
        {
          "duration": 0.04166662500000484,
          "durationTicks": 11,
          "midi": 51,
          "name": "D#3",
          "ticks": 22860,
          "time": 86.5908225,
          "velocity": 0.8346456692913385
        },
        {
          "duration": 0.06060600000000704,
          "durationTicks": 16,
          "midi": 38,
          "name": "D2",
          "ticks": 22890,
          "time": 86.70445875,
          "velocity": 0.6929133858267716
        },
        {
          "duration": 0.04924237500000572,
          "durationTicks": 13,
          "midi": 36,
          "name": "C2",
          "ticks": 22920,
          "time": 86.818095,
          "velocity": 0.7559055118110236
        },
        {
          "duration": 0.10984837500001277,
          "durationTicks": 29,
          "midi": 54,
          "name": "F#3",
          "ticks": 22920,
          "time": 86.818095,
          "velocity": 0.8188976377952756
        },
        {
          "duration": 0.20075737500000912,
          "durationTicks": 53,
          "midi": 38,
          "name": "D2",
          "ticks": 22920,
          "time": 86.818095,
          "velocity": 0.6929133858267716
        },
        {
          "duration": 0.00378787500000044,
          "durationTicks": 1,
          "midi": 51,
          "name": "D#3",
          "ticks": 22920,
          "time": 86.818095,
          "velocity": 0.8346456692913385
        },
        {
          "duration": 0.0378787500000044,
          "durationTicks": 10,
          "midi": 51,
          "name": "D#3",
          "ticks": 22920,
          "time": 86.818095,
          "velocity": 0.889763779527559
        },
        {
          "duration": 0.10984837499999855,
          "durationTicks": 29,
          "midi": 38,
          "name": "D2",
          "ticks": 22980,
          "time": 87.04536750000001,
          "velocity": 0.6929133858267716
        },
        {
          "duration": 0.06060599999999283,
          "durationTicks": 16,
          "midi": 51,
          "name": "D#3",
          "ticks": 22980,
          "time": 87.04536750000001,
          "velocity": 0.8110236220472441
        },
        {
          "duration": 0.09090899999999635,
          "durationTicks": 24,
          "midi": 38,
          "name": "D2",
          "ticks": 23010,
          "time": 87.15900375000001,
          "velocity": 0.6929133858267716
        },
        {
          "duration": 0.07954537499999503,
          "durationTicks": 21,
          "midi": 36,
          "name": "C2",
          "ticks": 23040,
          "time": 87.27264000000001,
          "velocity": 0.7559055118110236
        },
        {
          "duration": 0.11742412499999944,
          "durationTicks": 31,
          "midi": 54,
          "name": "F#3",
          "ticks": 23040,
          "time": 87.27264000000001,
          "velocity": 0.8188976377952756
        },
        {
          "duration": 0.19696949999999447,
          "durationTicks": 52,
          "midi": 38,
          "name": "D2",
          "ticks": 23040,
          "time": 87.27264000000001,
          "velocity": 0.6929133858267716
        },
        {
          "duration": 0.0378787500000044,
          "durationTicks": 10,
          "midi": 51,
          "name": "D#3",
          "ticks": 23040,
          "time": 87.27264000000001,
          "velocity": 0.8346456692913385
        },
        {
          "duration": 0.2007573749999949,
          "durationTicks": 53,
          "midi": 38,
          "name": "D2",
          "ticks": 23100,
          "time": 87.49991250000001,
          "velocity": 0.6929133858267716
        },
        {
          "duration": 0.03030300000000352,
          "durationTicks": 8,
          "midi": 51,
          "name": "D#3",
          "ticks": 23100,
          "time": 87.49991250000001,
          "velocity": 0.7637795275590551
        },
        {
          "duration": 0.07196962499999415,
          "durationTicks": 19,
          "midi": 36,
          "name": "C2",
          "ticks": 23160,
          "time": 87.727185,
          "velocity": 0.7559055118110236
        },
        {
          "duration": 0.09848474999999723,
          "durationTicks": 26,
          "midi": 54,
          "name": "F#3",
          "ticks": 23160,
          "time": 87.727185,
          "velocity": 0.8188976377952756
        },
        {
          "duration": 0.1893937499999936,
          "durationTicks": 50,
          "midi": 38,
          "name": "D2",
          "ticks": 23160,
          "time": 87.727185,
          "velocity": 0.6929133858267716
        },
        {
          "duration": 0.0189393750000022,
          "durationTicks": 5,
          "midi": 51,
          "name": "D#3",
          "ticks": 23160,
          "time": 87.727185,
          "velocity": 0.8346456692913385
        },
        {
          "duration": 0.09848474999999723,
          "durationTicks": 26,
          "midi": 38,
          "name": "D2",
          "ticks": 23220,
          "time": 87.9544575,
          "velocity": 0.6929133858267716
        },
        {
          "duration": 0.04924237499999151,
          "durationTicks": 13,
          "midi": 51,
          "name": "D#3",
          "ticks": 23220,
          "time": 87.9544575,
          "velocity": 0.8110236220472441
        },
        {
          "duration": 0.2007573749999949,
          "durationTicks": 53,
          "midi": 38,
          "name": "D2",
          "ticks": 23250,
          "time": 88.06809375,
          "velocity": 0.6929133858267716
        },
        {
          "duration": 0.0378787500000044,
          "durationTicks": 10,
          "midi": 36,
          "name": "C2",
          "ticks": 23280,
          "time": 88.18173,
          "velocity": 0.7559055118110236
        },
        {
          "duration": 0.10984837500001277,
          "durationTicks": 29,
          "midi": 54,
          "name": "F#3",
          "ticks": 23280,
          "time": 88.18173,
          "velocity": 0.8188976377952756
        },
        {
          "duration": 0.0378787500000044,
          "durationTicks": 10,
          "midi": 51,
          "name": "D#3",
          "ticks": 23280,
          "time": 88.18173,
          "velocity": 0.8582677165354331
        },
        {
          "duration": 0.23106037499999843,
          "durationTicks": 61,
          "midi": 38,
          "name": "D2",
          "ticks": 23310,
          "time": 88.29536625,
          "velocity": 0.6929133858267716
        },
        {
          "duration": 0.04166662500000484,
          "durationTicks": 11,
          "midi": 51,
          "name": "D#3",
          "ticks": 23340,
          "time": 88.4090025,
          "velocity": 0.8582677165354331
        },
        {
          "duration": 0.05681812499999239,
          "durationTicks": 15,
          "midi": 38,
          "name": "D2",
          "ticks": 23370,
          "time": 88.52263875000001,
          "velocity": 0.6929133858267716
        },
        {
          "duration": 0.05681812499999239,
          "durationTicks": 15,
          "midi": 36,
          "name": "C2",
          "ticks": 23400,
          "time": 88.63627500000001,
          "velocity": 0.7559055118110236
        },
        {
          "duration": 0.11742412499998522,
          "durationTicks": 31,
          "midi": 54,
          "name": "F#3",
          "ticks": 23400,
          "time": 88.63627500000001,
          "velocity": 0.8188976377952756
        },
        {
          "duration": 0.17803012500000648,
          "durationTicks": 47,
          "midi": 38,
          "name": "D2",
          "ticks": 23400,
          "time": 88.63627500000001,
          "velocity": 0.6929133858267716
        },
        {
          "duration": 0.0037878749999862293,
          "durationTicks": 1,
          "midi": 51,
          "name": "D#3",
          "ticks": 23400,
          "time": 88.63627500000001,
          "velocity": 0.8346456692913385
        },
        {
          "duration": 0.03030299999998931,
          "durationTicks": 8,
          "midi": 51,
          "name": "D#3",
          "ticks": 23400,
          "time": 88.63627500000001,
          "velocity": 0.9606299212598425
        },
        {
          "duration": 0.10984837499999855,
          "durationTicks": 29,
          "midi": 38,
          "name": "D2",
          "ticks": 23460,
          "time": 88.86354750000001,
          "velocity": 0.6929133858267716
        },
        {
          "duration": 0.04924237499999151,
          "durationTicks": 13,
          "midi": 51,
          "name": "D#3",
          "ticks": 23460,
          "time": 88.86354750000001,
          "velocity": 0.889763779527559
        },
        {
          "duration": 0.07954537500000924,
          "durationTicks": 21,
          "midi": 38,
          "name": "D2",
          "ticks": 23490,
          "time": 88.97718375000001,
          "velocity": 0.6929133858267716
        },
        {
          "duration": 0.05681812499999239,
          "durationTicks": 15,
          "midi": 36,
          "name": "C2",
          "ticks": 23520,
          "time": 89.09082000000001,
          "velocity": 0.7559055118110236
        },
        {
          "duration": 0.10984837499999855,
          "durationTicks": 29,
          "midi": 54,
          "name": "F#3",
          "ticks": 23520,
          "time": 89.09082000000001,
          "velocity": 0.8188976377952756
        },
        {
          "duration": 0.1893937499999936,
          "durationTicks": 50,
          "midi": 38,
          "name": "D2",
          "ticks": 23520,
          "time": 89.09082000000001,
          "velocity": 0.6929133858267716
        },
        {
          "duration": 0.01893937499998799,
          "durationTicks": 5,
          "midi": 51,
          "name": "D#3",
          "ticks": 23520,
          "time": 89.09082000000001,
          "velocity": 0.889763779527559
        },
        {
          "duration": 0.2007573749999949,
          "durationTicks": 53,
          "midi": 38,
          "name": "D2",
          "ticks": 23580,
          "time": 89.3180925,
          "velocity": 0.6929133858267716
        },
        {
          "duration": 0.03030300000000352,
          "durationTicks": 8,
          "midi": 51,
          "name": "D#3",
          "ticks": 23580,
          "time": 89.3180925,
          "velocity": 0.9212598425196851
        },
        {
          "duration": 0.06060599999999283,
          "durationTicks": 16,
          "midi": 36,
          "name": "C2",
          "ticks": 23640,
          "time": 89.545365,
          "velocity": 0.7559055118110236
        },
        {
          "duration": 0.11742412499999944,
          "durationTicks": 31,
          "midi": 54,
          "name": "F#3",
          "ticks": 23640,
          "time": 89.545365,
          "velocity": 0.8188976377952756
        },
        {
          "duration": 0.20833312500001,
          "durationTicks": 55,
          "midi": 38,
          "name": "D2",
          "ticks": 23640,
          "time": 89.545365,
          "velocity": 0.6929133858267716
        },
        {
          "duration": 0.0189393750000022,
          "durationTicks": 5,
          "midi": 51,
          "name": "D#3",
          "ticks": 23640,
          "time": 89.545365,
          "velocity": 0.8346456692913385
        },
        {
          "duration": 0.09848475000001145,
          "durationTicks": 26,
          "midi": 38,
          "name": "D2",
          "ticks": 23700,
          "time": 89.7726375,
          "velocity": 0.6929133858267716
        },
        {
          "duration": 0.0378787500000044,
          "durationTicks": 10,
          "midi": 51,
          "name": "D#3",
          "ticks": 23700,
          "time": 89.7726375,
          "velocity": 0.8110236220472441
        },
        {
          "duration": 0.19696950000000868,
          "durationTicks": 52,
          "midi": 38,
          "name": "D2",
          "ticks": 23730,
          "time": 89.88627375,
          "velocity": 0.6929133858267716
        },
        {
          "duration": 0.04166662500000484,
          "durationTicks": 11,
          "midi": 36,
          "name": "C2",
          "ticks": 23760,
          "time": 89.99991,
          "velocity": 0.7559055118110236
        },
        {
          "duration": 0.10984837500001277,
          "durationTicks": 29,
          "midi": 54,
          "name": "F#3",
          "ticks": 23760,
          "time": 89.99991,
          "velocity": 0.8188976377952756
        },
        {
          "duration": 0.04166662500000484,
          "durationTicks": 11,
          "midi": 51,
          "name": "D#3",
          "ticks": 23760,
          "time": 89.99991,
          "velocity": 0.7637795275590551
        },
        {
          "duration": 0.23106037499998422,
          "durationTicks": 61,
          "midi": 38,
          "name": "D2",
          "ticks": 23790,
          "time": 90.11354625000001,
          "velocity": 0.6929133858267716
        },
        {
          "duration": 0.06060599999999283,
          "durationTicks": 16,
          "midi": 51,
          "name": "D#3",
          "ticks": 23820,
          "time": 90.22718250000001,
          "velocity": 0.8582677165354331
        },
        {
          "duration": 0.06060599999999283,
          "durationTicks": 16,
          "midi": 38,
          "name": "D2",
          "ticks": 23850,
          "time": 90.34081875000001,
          "velocity": 0.6929133858267716
        },
        {
          "duration": 0.04924237499999151,
          "durationTicks": 13,
          "midi": 36,
          "name": "C2",
          "ticks": 23880,
          "time": 90.45445500000001,
          "velocity": 0.7559055118110236
        },
        {
          "duration": 0.12878775000000076,
          "durationTicks": 34,
          "midi": 54,
          "name": "F#3",
          "ticks": 23880,
          "time": 90.45445500000001,
          "velocity": 0.8188976377952756
        },
        {
          "duration": 0.2007573749999949,
          "durationTicks": 53,
          "midi": 38,
          "name": "D2",
          "ticks": 23880,
          "time": 90.45445500000001,
          "velocity": 0.6929133858267716
        },
        {
          "duration": 0.0037878749999862293,
          "durationTicks": 1,
          "midi": 51,
          "name": "D#3",
          "ticks": 23880,
          "time": 90.45445500000001,
          "velocity": 0.8110236220472441
        },
        {
          "duration": 0.03030299999998931,
          "durationTicks": 8,
          "midi": 51,
          "name": "D#3",
          "ticks": 23880,
          "time": 90.45445500000001,
          "velocity": 0.889763779527559
        },
        {
          "duration": 0.10984837499999855,
          "durationTicks": 29,
          "midi": 38,
          "name": "D2",
          "ticks": 23940,
          "time": 90.68172750000001,
          "velocity": 0.6929133858267716
        },
        {
          "duration": 0.03030300000000352,
          "durationTicks": 8,
          "midi": 51,
          "name": "D#3",
          "ticks": 23940,
          "time": 90.68172750000001,
          "velocity": 0.9212598425196851
        },
        {
          "duration": 0.07196962499999415,
          "durationTicks": 19,
          "midi": 38,
          "name": "D2",
          "ticks": 23970,
          "time": 90.79536375,
          "velocity": 0.6929133858267716
        },
        {
          "duration": 0.07196962499999415,
          "durationTicks": 19,
          "midi": 36,
          "name": "C2",
          "ticks": 24000,
          "time": 90.909,
          "velocity": 0.7559055118110236
        },
        {
          "duration": 0.113636249999999,
          "durationTicks": 30,
          "midi": 54,
          "name": "F#3",
          "ticks": 24000,
          "time": 90.909,
          "velocity": 0.8188976377952756
        },
        {
          "duration": 0.2007573749999949,
          "durationTicks": 53,
          "midi": 38,
          "name": "D2",
          "ticks": 24000,
          "time": 90.909,
          "velocity": 0.6929133858267716
        },
        {
          "duration": 0.02272725000000264,
          "durationTicks": 6,
          "midi": 51,
          "name": "D#3",
          "ticks": 24000,
          "time": 90.909,
          "velocity": 0.8346456692913385
        },
        {
          "duration": 0.20833312500001,
          "durationTicks": 55,
          "midi": 38,
          "name": "D2",
          "ticks": 24060,
          "time": 91.1362725,
          "velocity": 0.6929133858267716
        },
        {
          "duration": 0.0378787500000044,
          "durationTicks": 10,
          "midi": 51,
          "name": "D#3",
          "ticks": 24060,
          "time": 91.1362725,
          "velocity": 0.8346456692913385
        },
        {
          "duration": 0.06060600000000704,
          "durationTicks": 16,
          "midi": 36,
          "name": "C2",
          "ticks": 24120,
          "time": 91.363545,
          "velocity": 0.7559055118110236
        },
        {
          "duration": 0.12121200000001409,
          "durationTicks": 32,
          "midi": 54,
          "name": "F#3",
          "ticks": 24120,
          "time": 91.363545,
          "velocity": 0.8188976377952756
        },
        {
          "duration": 0.20075737500000912,
          "durationTicks": 53,
          "midi": 38,
          "name": "D2",
          "ticks": 24120,
          "time": 91.363545,
          "velocity": 0.6929133858267716
        },
        {
          "duration": 0.04924237499999151,
          "durationTicks": 13,
          "midi": 51,
          "name": "D#3",
          "ticks": 24120,
          "time": 91.363545,
          "velocity": 0.9606299212598425
        },
        {
          "duration": 0.09090899999999635,
          "durationTicks": 24,
          "midi": 38,
          "name": "D2",
          "ticks": 24180,
          "time": 91.5908175,
          "velocity": 0.6929133858267716
        },
        {
          "duration": 0.04166662500000484,
          "durationTicks": 11,
          "midi": 51,
          "name": "D#3",
          "ticks": 24180,
          "time": 91.5908175,
          "velocity": 0.8110236220472441
        },
        {
          "duration": 0.2007573749999949,
          "durationTicks": 53,
          "midi": 38,
          "name": "D2",
          "ticks": 24210,
          "time": 91.70445375000001,
          "velocity": 0.6929133858267716
        },
        {
          "duration": 0.0378787500000044,
          "durationTicks": 10,
          "midi": 36,
          "name": "C2",
          "ticks": 24240,
          "time": 91.81809000000001,
          "velocity": 0.7559055118110236
        },
        {
          "duration": 0.10984837499999855,
          "durationTicks": 29,
          "midi": 54,
          "name": "F#3",
          "ticks": 24240,
          "time": 91.81809000000001,
          "velocity": 0.8188976377952756
        },
        {
          "duration": 0.06060599999999283,
          "durationTicks": 16,
          "midi": 51,
          "name": "D#3",
          "ticks": 24240,
          "time": 91.81809000000001,
          "velocity": 0.8582677165354331
        },
        {
          "duration": 0.227272499999998,
          "durationTicks": 60,
          "midi": 38,
          "name": "D2",
          "ticks": 24270,
          "time": 91.93172625000001,
          "velocity": 0.6929133858267716
        },
        {
          "duration": 0.0378787500000044,
          "durationTicks": 10,
          "midi": 51,
          "name": "D#3",
          "ticks": 24300,
          "time": 92.04536250000001,
          "velocity": 0.8110236220472441
        },
        {
          "duration": 0.05303025000000616,
          "durationTicks": 14,
          "midi": 38,
          "name": "D2",
          "ticks": 24330,
          "time": 92.15899875000001,
          "velocity": 0.6929133858267716
        },
        {
          "duration": 0.04924237499999151,
          "durationTicks": 13,
          "midi": 36,
          "name": "C2",
          "ticks": 24360,
          "time": 92.27263500000001,
          "velocity": 0.7559055118110236
        },
        {
          "duration": 0.11742412499999944,
          "durationTicks": 31,
          "midi": 54,
          "name": "F#3",
          "ticks": 24360,
          "time": 92.27263500000001,
          "velocity": 0.8188976377952756
        },
        {
          "duration": 0.19696949999999447,
          "durationTicks": 52,
          "midi": 38,
          "name": "D2",
          "ticks": 24360,
          "time": 92.27263500000001,
          "velocity": 0.6929133858267716
        },
        {
          "duration": 0.00378787500000044,
          "durationTicks": 1,
          "midi": 51,
          "name": "D#3",
          "ticks": 24360,
          "time": 92.27263500000001,
          "velocity": 0.8346456692913385
        },
        {
          "duration": 0.04924237499999151,
          "durationTicks": 13,
          "midi": 51,
          "name": "D#3",
          "ticks": 24360,
          "time": 92.27263500000001,
          "velocity": 0.8346456692913385
        },
        {
          "duration": 0.10984837499999855,
          "durationTicks": 29,
          "midi": 38,
          "name": "D2",
          "ticks": 24420,
          "time": 92.4999075,
          "velocity": 0.6929133858267716
        },
        {
          "duration": 0.06060599999999283,
          "durationTicks": 16,
          "midi": 51,
          "name": "D#3",
          "ticks": 24420,
          "time": 92.4999075,
          "velocity": 0.7874015748031497
        },
        {
          "duration": 0.07954537500000924,
          "durationTicks": 21,
          "midi": 38,
          "name": "D2",
          "ticks": 24450,
          "time": 92.61354375,
          "velocity": 0.6929133858267716
        },
        {
          "duration": 0.06818175000000792,
          "durationTicks": 18,
          "midi": 36,
          "name": "C2",
          "ticks": 24480,
          "time": 92.72718,
          "velocity": 0.7559055118110236
        },
        {
          "duration": 0.10984837500001277,
          "durationTicks": 29,
          "midi": 54,
          "name": "F#3",
          "ticks": 24480,
          "time": 92.72718,
          "velocity": 0.8188976377952756
        },
        {
          "duration": 0.2007573749999949,
          "durationTicks": 53,
          "midi": 38,
          "name": "D2",
          "ticks": 24480,
          "time": 92.72718,
          "velocity": 0.6929133858267716
        },
        {
          "duration": 0.0189393750000022,
          "durationTicks": 5,
          "midi": 51,
          "name": "D#3",
          "ticks": 24480,
          "time": 92.72718,
          "velocity": 0.7480314960629921
        },
        {
          "duration": 0.20075737500000912,
          "durationTicks": 53,
          "midi": 38,
          "name": "D2",
          "ticks": 24540,
          "time": 92.9544525,
          "velocity": 0.6929133858267716
        },
        {
          "duration": 0.03030300000000352,
          "durationTicks": 8,
          "midi": 51,
          "name": "D#3",
          "ticks": 24540,
          "time": 92.9544525,
          "velocity": 0.8346456692913385
        },
        {
          "duration": 0.06060600000000704,
          "durationTicks": 16,
          "midi": 36,
          "name": "C2",
          "ticks": 24600,
          "time": 93.181725,
          "velocity": 0.7559055118110236
        },
        {
          "duration": 0.11742412499999944,
          "durationTicks": 31,
          "midi": 54,
          "name": "F#3",
          "ticks": 24600,
          "time": 93.181725,
          "velocity": 0.8188976377952756
        },
        {
          "duration": 0.20075737500000912,
          "durationTicks": 53,
          "midi": 38,
          "name": "D2",
          "ticks": 24600,
          "time": 93.181725,
          "velocity": 0.6929133858267716
        },
        {
          "duration": 0.0378787500000044,
          "durationTicks": 10,
          "midi": 51,
          "name": "D#3",
          "ticks": 24600,
          "time": 93.181725,
          "velocity": 0.8346456692913385
        },
        {
          "duration": 0.09090899999998214,
          "durationTicks": 24,
          "midi": 38,
          "name": "D2",
          "ticks": 24660,
          "time": 93.40899750000001,
          "velocity": 0.6929133858267716
        },
        {
          "duration": 0.04166662499999063,
          "durationTicks": 11,
          "midi": 51,
          "name": "D#3",
          "ticks": 24660,
          "time": 93.40899750000001,
          "velocity": 0.889763779527559
        },
        {
          "duration": 0.19696949999999447,
          "durationTicks": 52,
          "midi": 38,
          "name": "D2",
          "ticks": 24690,
          "time": 93.52263375000001,
          "velocity": 0.6929133858267716
        },
        {
          "duration": 0.0378787500000044,
          "durationTicks": 10,
          "midi": 36,
          "name": "C2",
          "ticks": 24720,
          "time": 93.63627000000001,
          "velocity": 0.7559055118110236
        },
        {
          "duration": 0.11742412499999944,
          "durationTicks": 31,
          "midi": 54,
          "name": "F#3",
          "ticks": 24720,
          "time": 93.63627000000001,
          "velocity": 0.8188976377952756
        },
        {
          "duration": 0.05681812499999239,
          "durationTicks": 15,
          "midi": 51,
          "name": "D#3",
          "ticks": 24720,
          "time": 93.63627000000001,
          "velocity": 0.7874015748031497
        },
        {
          "duration": 0.2196967499999971,
          "durationTicks": 58,
          "midi": 38,
          "name": "D2",
          "ticks": 24750,
          "time": 93.74990625000001,
          "velocity": 0.6929133858267716
        },
        {
          "duration": 0.04166662500000484,
          "durationTicks": 11,
          "midi": 51,
          "name": "D#3",
          "ticks": 24780,
          "time": 93.86354250000001,
          "velocity": 0.8346456692913385
        },
        {
          "duration": 0.07196962499999415,
          "durationTicks": 19,
          "midi": 38,
          "name": "D2",
          "ticks": 24810,
          "time": 93.97717875000001,
          "velocity": 0.6929133858267716
        },
        {
          "duration": 0.06060599999999283,
          "durationTicks": 16,
          "midi": 36,
          "name": "C2",
          "ticks": 24840,
          "time": 94.090815,
          "velocity": 0.7559055118110236
        },
        {
          "duration": 0.12121199999999988,
          "durationTicks": 32,
          "midi": 54,
          "name": "F#3",
          "ticks": 24840,
          "time": 94.090815,
          "velocity": 0.8188976377952756
        },
        {
          "duration": 0.2007573749999949,
          "durationTicks": 53,
          "midi": 38,
          "name": "D2",
          "ticks": 24840,
          "time": 94.090815,
          "velocity": 0.6929133858267716
        },
        {
          "duration": 0.00378787500000044,
          "durationTicks": 1,
          "midi": 51,
          "name": "D#3",
          "ticks": 24840,
          "time": 94.090815,
          "velocity": 0.889763779527559
        },
        {
          "duration": 0.04166662500000484,
          "durationTicks": 11,
          "midi": 51,
          "name": "D#3",
          "ticks": 24840,
          "time": 94.090815,
          "velocity": 0.8582677165354331
        },
        {
          "duration": 0.10984837500001277,
          "durationTicks": 29,
          "midi": 38,
          "name": "D2",
          "ticks": 24900,
          "time": 94.3180875,
          "velocity": 0.6929133858267716
        },
        {
          "duration": 0.06060599999999283,
          "durationTicks": 16,
          "midi": 51,
          "name": "D#3",
          "ticks": 24900,
          "time": 94.3180875,
          "velocity": 0.8582677165354331
        },
        {
          "duration": 0.07954537500000924,
          "durationTicks": 21,
          "midi": 38,
          "name": "D2",
          "ticks": 24930,
          "time": 94.43172375,
          "velocity": 0.6929133858267716
        },
        {
          "duration": 0.07954537500000924,
          "durationTicks": 21,
          "midi": 36,
          "name": "C2",
          "ticks": 24960,
          "time": 94.54536,
          "velocity": 0.7559055118110236
        },
        {
          "duration": 0.11742412499999944,
          "durationTicks": 31,
          "midi": 54,
          "name": "F#3",
          "ticks": 24960,
          "time": 94.54536,
          "velocity": 0.8188976377952756
        },
        {
          "duration": 0.20075737500000912,
          "durationTicks": 53,
          "midi": 38,
          "name": "D2",
          "ticks": 24960,
          "time": 94.54536,
          "velocity": 0.6929133858267716
        },
        {
          "duration": 0.04166662500000484,
          "durationTicks": 11,
          "midi": 51,
          "name": "D#3",
          "ticks": 24960,
          "time": 94.54536,
          "velocity": 0.8582677165354331
        },
        {
          "duration": 0.19696950000000868,
          "durationTicks": 52,
          "midi": 38,
          "name": "D2",
          "ticks": 25020,
          "time": 94.7726325,
          "velocity": 0.6929133858267716
        },
        {
          "duration": 0.04924237500000572,
          "durationTicks": 13,
          "midi": 51,
          "name": "D#3",
          "ticks": 25020,
          "time": 94.7726325,
          "velocity": 0.889763779527559
        },
        {
          "duration": 0.06060599999999283,
          "durationTicks": 16,
          "midi": 36,
          "name": "C2",
          "ticks": 25080,
          "time": 94.99990500000001,
          "velocity": 0.7559055118110236
        },
        {
          "duration": 0.10984837499999855,
          "durationTicks": 29,
          "midi": 54,
          "name": "F#3",
          "ticks": 25080,
          "time": 94.99990500000001,
          "velocity": 0.8188976377952756
        },
        {
          "duration": 0.2007573749999949,
          "durationTicks": 53,
          "midi": 38,
          "name": "D2",
          "ticks": 25080,
          "time": 94.99990500000001,
          "velocity": 0.6929133858267716
        },
        {
          "duration": 0.04924237499999151,
          "durationTicks": 13,
          "midi": 51,
          "name": "D#3",
          "ticks": 25080,
          "time": 94.99990500000001,
          "velocity": 0.9606299212598425
        },
        {
          "duration": 0.10227262499999767,
          "durationTicks": 27,
          "midi": 38,
          "name": "D2",
          "ticks": 25140,
          "time": 95.22717750000001,
          "velocity": 0.6929133858267716
        },
        {
          "duration": 0.05303025000000616,
          "durationTicks": 14,
          "midi": 51,
          "name": "D#3",
          "ticks": 25140,
          "time": 95.22717750000001,
          "velocity": 0.9212598425196851
        },
        {
          "duration": 0.2007573749999949,
          "durationTicks": 53,
          "midi": 38,
          "name": "D2",
          "ticks": 25170,
          "time": 95.34081375000001,
          "velocity": 0.6929133858267716
        },
        {
          "duration": 0.04166662500000484,
          "durationTicks": 11,
          "midi": 36,
          "name": "C2",
          "ticks": 25200,
          "time": 95.45445000000001,
          "velocity": 0.7559055118110236
        },
        {
          "duration": 0.12878775000000076,
          "durationTicks": 34,
          "midi": 54,
          "name": "F#3",
          "ticks": 25200,
          "time": 95.45445000000001,
          "velocity": 0.8188976377952756
        },
        {
          "duration": 0.04924237499999151,
          "durationTicks": 13,
          "midi": 51,
          "name": "D#3",
          "ticks": 25200,
          "time": 95.45445000000001,
          "velocity": 0.9212598425196851
        },
        {
          "duration": 0.2386361249999993,
          "durationTicks": 63,
          "midi": 38,
          "name": "D2",
          "ticks": 25230,
          "time": 95.56808625000001,
          "velocity": 0.6929133858267716
        },
        {
          "duration": 0.04166662500000484,
          "durationTicks": 11,
          "midi": 51,
          "name": "D#3",
          "ticks": 25260,
          "time": 95.6817225,
          "velocity": 0.8582677165354331
        },
        {
          "duration": 0.05303025000000616,
          "durationTicks": 14,
          "midi": 38,
          "name": "D2",
          "ticks": 25290,
          "time": 95.79535875,
          "velocity": 0.6929133858267716
        },
        {
          "duration": 0.04166662500000484,
          "durationTicks": 11,
          "midi": 36,
          "name": "C2",
          "ticks": 25320,
          "time": 95.908995,
          "velocity": 0.7559055118110236
        },
        {
          "duration": 0.113636249999999,
          "durationTicks": 30,
          "midi": 54,
          "name": "F#3",
          "ticks": 25320,
          "time": 95.908995,
          "velocity": 0.8188976377952756
        },
        {
          "duration": 0.2007573749999949,
          "durationTicks": 53,
          "midi": 38,
          "name": "D2",
          "ticks": 25320,
          "time": 95.908995,
          "velocity": 0.6929133858267716
        },
        {
          "duration": 0.00378787500000044,
          "durationTicks": 1,
          "midi": 51,
          "name": "D#3",
          "ticks": 25320,
          "time": 95.908995,
          "velocity": 0.8582677165354331
        },
        {
          "duration": 0.04166662500000484,
          "durationTicks": 11,
          "midi": 51,
          "name": "D#3",
          "ticks": 25320,
          "time": 95.908995,
          "velocity": 0.889763779527559
        },
        {
          "duration": 0.11742412499999944,
          "durationTicks": 31,
          "midi": 38,
          "name": "D2",
          "ticks": 25380,
          "time": 96.1362675,
          "velocity": 0.6929133858267716
        },
        {
          "duration": 0.04924237499999151,
          "durationTicks": 13,
          "midi": 51,
          "name": "D#3",
          "ticks": 25380,
          "time": 96.1362675,
          "velocity": 0.9606299212598425
        },
        {
          "duration": 0.07954537500000924,
          "durationTicks": 21,
          "midi": 38,
          "name": "D2",
          "ticks": 25410,
          "time": 96.24990375,
          "velocity": 0.6929133858267716
        },
        {
          "duration": 0.07954537500000924,
          "durationTicks": 21,
          "midi": 36,
          "name": "C2",
          "ticks": 25440,
          "time": 96.36354,
          "velocity": 0.7559055118110236
        },
        {
          "duration": 0.12121200000001409,
          "durationTicks": 32,
          "midi": 54,
          "name": "F#3",
          "ticks": 25440,
          "time": 96.36354,
          "velocity": 0.8188976377952756
        },
        {
          "duration": 0.20075737500000912,
          "durationTicks": 53,
          "midi": 38,
          "name": "D2",
          "ticks": 25440,
          "time": 96.36354,
          "velocity": 0.6929133858267716
        },
        {
          "duration": 0.04166662500000484,
          "durationTicks": 11,
          "midi": 51,
          "name": "D#3",
          "ticks": 25440,
          "time": 96.36354,
          "velocity": 0.9212598425196851
        },
        {
          "duration": 0.2007573749999949,
          "durationTicks": 53,
          "midi": 38,
          "name": "D2",
          "ticks": 25500,
          "time": 96.59081250000001,
          "velocity": 0.6929133858267716
        },
        {
          "duration": 0.04924237499999151,
          "durationTicks": 13,
          "midi": 51,
          "name": "D#3",
          "ticks": 25500,
          "time": 96.59081250000001,
          "velocity": 0.9212598425196851
        },
        {
          "duration": 0.07196962499999415,
          "durationTicks": 19,
          "midi": 36,
          "name": "C2",
          "ticks": 25560,
          "time": 96.81808500000001,
          "velocity": 0.7559055118110236
        },
        {
          "duration": 0.10227262499999767,
          "durationTicks": 27,
          "midi": 54,
          "name": "F#3",
          "ticks": 25560,
          "time": 96.81808500000001,
          "velocity": 0.8188976377952756
        },
        {
          "duration": 0.19318162500000824,
          "durationTicks": 51,
          "midi": 38,
          "name": "D2",
          "ticks": 25560,
          "time": 96.81808500000001,
          "velocity": 0.6929133858267716
        },
        {
          "duration": 0.04166662499999063,
          "durationTicks": 11,
          "midi": 51,
          "name": "D#3",
          "ticks": 25560,
          "time": 96.81808500000001,
          "velocity": 0.889763779527559
        },
        {
          "duration": 0.09848474999999723,
          "durationTicks": 26,
          "midi": 38,
          "name": "D2",
          "ticks": 25620,
          "time": 97.04535750000001,
          "velocity": 0.6929133858267716
        },
        {
          "duration": 0.0378787500000044,
          "durationTicks": 10,
          "midi": 51,
          "name": "D#3",
          "ticks": 25620,
          "time": 97.04535750000001,
          "velocity": 0.9212598425196851
        },
        {
          "duration": 0.2007573749999949,
          "durationTicks": 53,
          "midi": 38,
          "name": "D2",
          "ticks": 25650,
          "time": 97.15899375000001,
          "velocity": 0.6929133858267716
        },
        {
          "duration": 0.03030300000000352,
          "durationTicks": 8,
          "midi": 36,
          "name": "C2",
          "ticks": 25680,
          "time": 97.27263,
          "velocity": 0.7559055118110236
        },
        {
          "duration": 0.10984837499999855,
          "durationTicks": 29,
          "midi": 54,
          "name": "F#3",
          "ticks": 25680,
          "time": 97.27263,
          "velocity": 0.8188976377952756
        },
        {
          "duration": 0.04166662500000484,
          "durationTicks": 11,
          "midi": 51,
          "name": "D#3",
          "ticks": 25680,
          "time": 97.27263,
          "velocity": 0.889763779527559
        },
        {
          "duration": 0.2196967499999971,
          "durationTicks": 58,
          "midi": 38,
          "name": "D2",
          "ticks": 25710,
          "time": 97.38626625,
          "velocity": 0.6929133858267716
        },
        {
          "duration": 0.04924237499999151,
          "durationTicks": 13,
          "midi": 51,
          "name": "D#3",
          "ticks": 25740,
          "time": 97.4999025,
          "velocity": 0.9606299212598425
        },
        {
          "duration": 0.06060599999999283,
          "durationTicks": 16,
          "midi": 38,
          "name": "D2",
          "ticks": 25770,
          "time": 97.61353875,
          "velocity": 0.6929133858267716
        },
        {
          "duration": 0.06060600000000704,
          "durationTicks": 16,
          "midi": 36,
          "name": "C2",
          "ticks": 25800,
          "time": 97.727175,
          "velocity": 0.7559055118110236
        },
        {
          "duration": 0.12121200000001409,
          "durationTicks": 32,
          "midi": 54,
          "name": "F#3",
          "ticks": 25800,
          "time": 97.727175,
          "velocity": 0.8188976377952756
        },
        {
          "duration": 0.17803012500000648,
          "durationTicks": 47,
          "midi": 38,
          "name": "D2",
          "ticks": 25800,
          "time": 97.727175,
          "velocity": 0.6929133858267716
        },
        {
          "duration": 0.00378787500000044,
          "durationTicks": 1,
          "midi": 51,
          "name": "D#3",
          "ticks": 25800,
          "time": 97.727175,
          "velocity": 0.9212598425196851
        },
        {
          "duration": 0.03030300000000352,
          "durationTicks": 8,
          "midi": 51,
          "name": "D#3",
          "ticks": 25800,
          "time": 97.727175,
          "velocity": 0.9212598425196851
        },
        {
          "duration": 0.10984837500001277,
          "durationTicks": 29,
          "midi": 38,
          "name": "D2",
          "ticks": 25860,
          "time": 97.9544475,
          "velocity": 0.6929133858267716
        },
        {
          "duration": 0.04166662500000484,
          "durationTicks": 11,
          "midi": 51,
          "name": "D#3",
          "ticks": 25860,
          "time": 97.9544475,
          "velocity": 0.9606299212598425
        },
        {
          "duration": 0.07954537499999503,
          "durationTicks": 21,
          "midi": 38,
          "name": "D2",
          "ticks": 25890,
          "time": 98.06808375000001,
          "velocity": 0.6929133858267716
        },
        {
          "duration": 0.06060599999999283,
          "durationTicks": 16,
          "midi": 36,
          "name": "C2",
          "ticks": 25920,
          "time": 98.18172000000001,
          "velocity": 0.7559055118110236
        },
        {
          "duration": 0.10984837499999855,
          "durationTicks": 29,
          "midi": 54,
          "name": "F#3",
          "ticks": 25920,
          "time": 98.18172000000001,
          "velocity": 0.8188976377952756
        },
        {
          "duration": 0.19318162499999403,
          "durationTicks": 51,
          "midi": 38,
          "name": "D2",
          "ticks": 25920,
          "time": 98.18172000000001,
          "velocity": 0.6929133858267716
        },
        {
          "duration": 0.2007573749999949,
          "durationTicks": 53,
          "midi": 38,
          "name": "D2",
          "ticks": 25980,
          "time": 98.40899250000001,
          "velocity": 0.6929133858267716
        },
        {
          "duration": 0.05681812499999239,
          "durationTicks": 15,
          "midi": 36,
          "name": "C2",
          "ticks": 26040,
          "time": 98.63626500000001,
          "velocity": 0.7559055118110236
        },
        {
          "duration": 0.11742412499999944,
          "durationTicks": 31,
          "midi": 54,
          "name": "F#3",
          "ticks": 26040,
          "time": 98.63626500000001,
          "velocity": 0.8188976377952756
        },
        {
          "duration": 0.2083331249999958,
          "durationTicks": 55,
          "midi": 38,
          "name": "D2",
          "ticks": 26040,
          "time": 98.63626500000001,
          "velocity": 0.6929133858267716
        },
        {
          "duration": 0.10227262499999767,
          "durationTicks": 27,
          "midi": 38,
          "name": "D2",
          "ticks": 26100,
          "time": 98.8635375,
          "velocity": 0.6929133858267716
        },
        {
          "duration": 0.21212099999999623,
          "durationTicks": 56,
          "midi": 38,
          "name": "D2",
          "ticks": 26130,
          "time": 98.97717375,
          "velocity": 0.6929133858267716
        },
        {
          "duration": 0.04166662500000484,
          "durationTicks": 11,
          "midi": 36,
          "name": "C2",
          "ticks": 26160,
          "time": 99.09081,
          "velocity": 0.7559055118110236
        },
        {
          "duration": 0.10984837500001277,
          "durationTicks": 29,
          "midi": 54,
          "name": "F#3",
          "ticks": 26160,
          "time": 99.09081,
          "velocity": 0.8188976377952756
        },
        {
          "duration": 0.23106037499999843,
          "durationTicks": 61,
          "midi": 38,
          "name": "D2",
          "ticks": 26190,
          "time": 99.20444625,
          "velocity": 0.6929133858267716
        },
        {
          "duration": 0.06060600000000704,
          "durationTicks": 16,
          "midi": 38,
          "name": "D2",
          "ticks": 26250,
          "time": 99.43171875,
          "velocity": 0.6929133858267716
        },
        {
          "duration": 0.04924237500000572,
          "durationTicks": 13,
          "midi": 36,
          "name": "C2",
          "ticks": 26280,
          "time": 99.545355,
          "velocity": 0.7559055118110236
        },
        {
          "duration": 0.11742412499999944,
          "durationTicks": 31,
          "midi": 54,
          "name": "F#3",
          "ticks": 26280,
          "time": 99.545355,
          "velocity": 0.8188976377952756
        },
        {
          "duration": 0.20075737500000912,
          "durationTicks": 53,
          "midi": 38,
          "name": "D2",
          "ticks": 26280,
          "time": 99.545355,
          "velocity": 0.6929133858267716
        },
        {
          "duration": 0.10227262499999767,
          "durationTicks": 27,
          "midi": 38,
          "name": "D2",
          "ticks": 26340,
          "time": 99.77262750000001,
          "velocity": 0.6929133858267716
        },
        {
          "duration": 0.07954537499999503,
          "durationTicks": 21,
          "midi": 38,
          "name": "D2",
          "ticks": 26370,
          "time": 99.88626375000001,
          "velocity": 0.6929133858267716
        },
        {
          "duration": 0.07954537499999503,
          "durationTicks": 21,
          "midi": 36,
          "name": "C2",
          "ticks": 26400,
          "time": 99.99990000000001,
          "velocity": 0.7559055118110236
        },
        {
          "duration": 0.11742412499999944,
          "durationTicks": 31,
          "midi": 54,
          "name": "F#3",
          "ticks": 26400,
          "time": 99.99990000000001,
          "velocity": 0.8188976377952756
        },
        {
          "duration": 0.2083331249999958,
          "durationTicks": 55,
          "midi": 38,
          "name": "D2",
          "ticks": 26400,
          "time": 99.99990000000001,
          "velocity": 0.6929133858267716
        },
        {
          "duration": 0.21212099999999623,
          "durationTicks": 56,
          "midi": 38,
          "name": "D2",
          "ticks": 26460,
          "time": 100.22717250000001,
          "velocity": 0.6929133858267716
        },
        {
          "duration": 0.06060599999999283,
          "durationTicks": 16,
          "midi": 36,
          "name": "C2",
          "ticks": 26520,
          "time": 100.454445,
          "velocity": 0.7559055118110236
        },
        {
          "duration": 0.12121199999999988,
          "durationTicks": 32,
          "midi": 54,
          "name": "F#3",
          "ticks": 26520,
          "time": 100.454445,
          "velocity": 0.8188976377952756
        },
        {
          "duration": 0.2007573749999949,
          "durationTicks": 53,
          "midi": 38,
          "name": "D2",
          "ticks": 26520,
          "time": 100.454445,
          "velocity": 0.6929133858267716
        },
        {
          "duration": 0.10984837500001277,
          "durationTicks": 29,
          "midi": 38,
          "name": "D2",
          "ticks": 26580,
          "time": 100.6817175,
          "velocity": 0.6929133858267716
        },
        {
          "duration": 0.19318162500000824,
          "durationTicks": 51,
          "midi": 38,
          "name": "D2",
          "ticks": 26610,
          "time": 100.79535375,
          "velocity": 0.6929133858267716
        },
        {
          "duration": 0.04924237499999151,
          "durationTicks": 13,
          "midi": 36,
          "name": "C2",
          "ticks": 26640,
          "time": 100.90899,
          "velocity": 0.7559055118110236
        },
        {
          "duration": 0.10227262499999767,
          "durationTicks": 27,
          "midi": 54,
          "name": "F#3",
          "ticks": 26640,
          "time": 100.90899,
          "velocity": 0.8188976377952756
        },
        {
          "duration": 0.23863612500001352,
          "durationTicks": 63,
          "midi": 38,
          "name": "D2",
          "ticks": 26670,
          "time": 101.02262625,
          "velocity": 0.6929133858267716
        },
        {
          "duration": 0.0378787500000044,
          "durationTicks": 10,
          "midi": 38,
          "name": "D2",
          "ticks": 26730,
          "time": 101.24989875000001,
          "velocity": 0.6929133858267716
        },
        {
          "duration": 0.0378787500000044,
          "durationTicks": 10,
          "midi": 36,
          "name": "C2",
          "ticks": 26760,
          "time": 101.36353500000001,
          "velocity": 0.7559055118110236
        },
        {
          "duration": 0.10984837499999855,
          "durationTicks": 29,
          "midi": 54,
          "name": "F#3",
          "ticks": 26760,
          "time": 101.36353500000001,
          "velocity": 0.8188976377952756
        },
        {
          "duration": 0.1893937499999936,
          "durationTicks": 50,
          "midi": 38,
          "name": "D2",
          "ticks": 26760,
          "time": 101.36353500000001,
          "velocity": 0.6929133858267716
        },
        {
          "duration": 0.10984837499999855,
          "durationTicks": 29,
          "midi": 38,
          "name": "D2",
          "ticks": 26820,
          "time": 101.59080750000001,
          "velocity": 0.6929133858267716
        },
        {
          "duration": 0.07954537500000924,
          "durationTicks": 21,
          "midi": 38,
          "name": "D2",
          "ticks": 26850,
          "time": 101.70444375000001,
          "velocity": 0.6929133858267716
        },
        {
          "duration": 0.07954537500000924,
          "durationTicks": 21,
          "midi": 36,
          "name": "C2",
          "ticks": 26880,
          "time": 101.81808000000001,
          "velocity": 0.7559055118110236
        },
        {
          "duration": 0.10227262499999767,
          "durationTicks": 27,
          "midi": 54,
          "name": "F#3",
          "ticks": 26880,
          "time": 101.81808000000001,
          "velocity": 0.8188976377952756
        },
        {
          "duration": 0.18181800000000692,
          "durationTicks": 48,
          "midi": 38,
          "name": "D2",
          "ticks": 26880,
          "time": 101.81808000000001,
          "velocity": 0.6929133858267716
        },
        {
          "duration": 0.2007573749999949,
          "durationTicks": 53,
          "midi": 38,
          "name": "D2",
          "ticks": 26940,
          "time": 102.0453525,
          "velocity": 0.6929133858267716
        },
        {
          "duration": 0.06818175000000792,
          "durationTicks": 18,
          "midi": 36,
          "name": "C2",
          "ticks": 27000,
          "time": 102.272625,
          "velocity": 0.7559055118110236
        },
        {
          "duration": 0.12878775000000076,
          "durationTicks": 34,
          "midi": 54,
          "name": "F#3",
          "ticks": 27000,
          "time": 102.272625,
          "velocity": 0.8188976377952756
        },
        {
          "duration": 0.20833312500001,
          "durationTicks": 55,
          "midi": 38,
          "name": "D2",
          "ticks": 27000,
          "time": 102.272625,
          "velocity": 0.6929133858267716
        },
        {
          "duration": 0.09090899999999635,
          "durationTicks": 24,
          "midi": 38,
          "name": "D2",
          "ticks": 27060,
          "time": 102.4998975,
          "velocity": 0.6929133858267716
        },
        {
          "duration": 0.20075737500000912,
          "durationTicks": 53,
          "midi": 38,
          "name": "D2",
          "ticks": 27090,
          "time": 102.61353375,
          "velocity": 0.6929133858267716
        },
        {
          "duration": 0.04166662500000484,
          "durationTicks": 11,
          "midi": 36,
          "name": "C2",
          "ticks": 27120,
          "time": 102.72717,
          "velocity": 0.7559055118110236
        },
        {
          "duration": 0.12121200000001409,
          "durationTicks": 32,
          "midi": 54,
          "name": "F#3",
          "ticks": 27120,
          "time": 102.72717,
          "velocity": 0.8188976377952756
        },
        {
          "duration": 0.2196967499999829,
          "durationTicks": 58,
          "midi": 38,
          "name": "D2",
          "ticks": 27150,
          "time": 102.84080625000001,
          "velocity": 0.6929133858267716
        },
        {
          "duration": 0.06060599999999283,
          "durationTicks": 16,
          "midi": 38,
          "name": "D2",
          "ticks": 27210,
          "time": 103.06807875000001,
          "velocity": 0.6929133858267716
        },
        {
          "duration": 0.04924237499999151,
          "durationTicks": 13,
          "midi": 36,
          "name": "C2",
          "ticks": 27240,
          "time": 103.18171500000001,
          "velocity": 0.7559055118110236
        },
        {
          "duration": 0.10984837499999855,
          "durationTicks": 29,
          "midi": 54,
          "name": "F#3",
          "ticks": 27240,
          "time": 103.18171500000001,
          "velocity": 0.8188976377952756
        },
        {
          "duration": 0.2007573749999949,
          "durationTicks": 53,
          "midi": 38,
          "name": "D2",
          "ticks": 27240,
          "time": 103.18171500000001,
          "velocity": 0.6929133858267716
        },
        {
          "duration": 0.12878775000000076,
          "durationTicks": 34,
          "midi": 38,
          "name": "D2",
          "ticks": 27300,
          "time": 103.40898750000001,
          "velocity": 0.6929133858267716
        },
        {
          "duration": 0.07196962499999415,
          "durationTicks": 19,
          "midi": 38,
          "name": "D2",
          "ticks": 27330,
          "time": 103.52262375000001,
          "velocity": 0.6929133858267716
        },
        {
          "duration": 0.07954537500000924,
          "durationTicks": 21,
          "midi": 36,
          "name": "C2",
          "ticks": 27360,
          "time": 103.63626000000001,
          "velocity": 0.7559055118110236
        },
        {
          "duration": 0.11742412499999944,
          "durationTicks": 31,
          "midi": 54,
          "name": "F#3",
          "ticks": 27360,
          "time": 103.63626000000001,
          "velocity": 0.8188976377952756
        },
        {
          "duration": 0.19696950000000868,
          "durationTicks": 52,
          "midi": 38,
          "name": "D2",
          "ticks": 27360,
          "time": 103.63626000000001,
          "velocity": 0.6929133858267716
        },
        {
          "duration": 0.1893937499999936,
          "durationTicks": 50,
          "midi": 38,
          "name": "D2",
          "ticks": 27420,
          "time": 103.8635325,
          "velocity": 0.6929133858267716
        },
        {
          "duration": 0.06060600000000704,
          "durationTicks": 16,
          "midi": 36,
          "name": "C2",
          "ticks": 27480,
          "time": 104.090805,
          "velocity": 0.7559055118110236
        },
        {
          "duration": 0.10984837500001277,
          "durationTicks": 29,
          "midi": 54,
          "name": "F#3",
          "ticks": 27480,
          "time": 104.090805,
          "velocity": 0.8188976377952756
        },
        {
          "duration": 0.20075737500000912,
          "durationTicks": 53,
          "midi": 38,
          "name": "D2",
          "ticks": 27480,
          "time": 104.090805,
          "velocity": 0.6929133858267716
        },
        {
          "duration": 0.09848475000001145,
          "durationTicks": 26,
          "midi": 38,
          "name": "D2",
          "ticks": 27540,
          "time": 104.3180775,
          "velocity": 0.6929133858267716
        },
        {
          "duration": 0.2007573749999949,
          "durationTicks": 53,
          "midi": 38,
          "name": "D2",
          "ticks": 27570,
          "time": 104.43171375000001,
          "velocity": 0.6929133858267716
        },
        {
          "duration": 0.04924237499999151,
          "durationTicks": 13,
          "midi": 36,
          "name": "C2",
          "ticks": 27600,
          "time": 104.54535000000001,
          "velocity": 0.7559055118110236
        },
        {
          "duration": 0.12878774999998654,
          "durationTicks": 34,
          "midi": 54,
          "name": "F#3",
          "ticks": 27600,
          "time": 104.54535000000001,
          "velocity": 0.8188976377952756
        },
        {
          "duration": 0.23106037499999843,
          "durationTicks": 61,
          "midi": 38,
          "name": "D2",
          "ticks": 27630,
          "time": 104.65898625000001,
          "velocity": 0.6929133858267716
        },
        {
          "duration": 0.05681812499999239,
          "durationTicks": 15,
          "midi": 38,
          "name": "D2",
          "ticks": 27690,
          "time": 104.88625875000001,
          "velocity": 0.6929133858267716
        },
        {
          "duration": 0.03030300000000352,
          "durationTicks": 8,
          "midi": 36,
          "name": "C2",
          "ticks": 27720,
          "time": 104.99989500000001,
          "velocity": 0.7559055118110236
        },
        {
          "duration": 0.10984837499999855,
          "durationTicks": 29,
          "midi": 54,
          "name": "F#3",
          "ticks": 27720,
          "time": 104.99989500000001,
          "velocity": 0.8188976377952756
        },
        {
          "duration": 0.1893937499999936,
          "durationTicks": 50,
          "midi": 38,
          "name": "D2",
          "ticks": 27720,
          "time": 104.99989500000001,
          "velocity": 0.6929133858267716
        },
        {
          "duration": 0.12121199999999988,
          "durationTicks": 32,
          "midi": 38,
          "name": "D2",
          "ticks": 27780,
          "time": 105.22716750000001,
          "velocity": 0.6929133858267716
        },
        {
          "duration": 0.07954537500000924,
          "durationTicks": 21,
          "midi": 38,
          "name": "D2",
          "ticks": 27810,
          "time": 105.34080375,
          "velocity": 0.6929133858267716
        },
        {
          "duration": 0.07954537500000924,
          "durationTicks": 21,
          "midi": 36,
          "name": "C2",
          "ticks": 27840,
          "time": 105.45444,
          "velocity": 0.7559055118110236
        },
        {
          "duration": 0.12121200000001409,
          "durationTicks": 32,
          "midi": 54,
          "name": "F#3",
          "ticks": 27840,
          "time": 105.45444,
          "velocity": 0.8188976377952756
        },
        {
          "duration": 0.2007573749999949,
          "durationTicks": 53,
          "midi": 38,
          "name": "D2",
          "ticks": 27840,
          "time": 105.45444,
          "velocity": 0.6929133858267716
        },
        {
          "duration": 0.20075737500000912,
          "durationTicks": 53,
          "midi": 38,
          "name": "D2",
          "ticks": 27900,
          "time": 105.6817125,
          "velocity": 0.6929133858267716
        },
        {
          "duration": 0.06818175000000792,
          "durationTicks": 18,
          "midi": 36,
          "name": "C2",
          "ticks": 27960,
          "time": 105.908985,
          "velocity": 0.7559055118110236
        },
        {
          "duration": 0.12878775000000076,
          "durationTicks": 34,
          "midi": 54,
          "name": "F#3",
          "ticks": 27960,
          "time": 105.908985,
          "velocity": 0.8188976377952756
        },
        {
          "duration": 0.20833312500001,
          "durationTicks": 55,
          "midi": 38,
          "name": "D2",
          "ticks": 27960,
          "time": 105.908985,
          "velocity": 0.6929133858267716
        },
        {
          "duration": 0.09848474999999723,
          "durationTicks": 26,
          "midi": 38,
          "name": "D2",
          "ticks": 28020,
          "time": 106.13625750000001,
          "velocity": 0.6929133858267716
        },
        {
          "duration": 0.2007573749999949,
          "durationTicks": 53,
          "midi": 38,
          "name": "D2",
          "ticks": 28050,
          "time": 106.24989375000001,
          "velocity": 0.6929133858267716
        },
        {
          "duration": 0.03030299999998931,
          "durationTicks": 8,
          "midi": 36,
          "name": "C2",
          "ticks": 28080,
          "time": 106.36353000000001,
          "velocity": 0.7559055118110236
        },
        {
          "duration": 0.09848474999999723,
          "durationTicks": 26,
          "midi": 54,
          "name": "F#3",
          "ticks": 28080,
          "time": 106.36353000000001,
          "velocity": 0.8188976377952756
        },
        {
          "duration": 0.23106037499999843,
          "durationTicks": 61,
          "midi": 38,
          "name": "D2",
          "ticks": 28110,
          "time": 106.47716625000001,
          "velocity": 0.6929133858267716
        },
        {
          "duration": 0.06060599999999283,
          "durationTicks": 16,
          "midi": 38,
          "name": "D2",
          "ticks": 28170,
          "time": 106.70443875000001,
          "velocity": 0.6929133858267716
        },
        {
          "duration": 0.04924237499999151,
          "durationTicks": 13,
          "midi": 36,
          "name": "C2",
          "ticks": 28200,
          "time": 106.81807500000001,
          "velocity": 0.7559055118110236
        },
        {
          "duration": 0.12121199999999988,
          "durationTicks": 32,
          "midi": 54,
          "name": "F#3",
          "ticks": 28200,
          "time": 106.81807500000001,
          "velocity": 0.8188976377952756
        },
        {
          "duration": 0.19318162500000824,
          "durationTicks": 51,
          "midi": 38,
          "name": "D2",
          "ticks": 28200,
          "time": 106.81807500000001,
          "velocity": 0.6929133858267716
        },
        {
          "duration": 0.10984837499999855,
          "durationTicks": 29,
          "midi": 38,
          "name": "D2",
          "ticks": 28260,
          "time": 107.0453475,
          "velocity": 0.6929133858267716
        },
        {
          "duration": 0.07954537500000924,
          "durationTicks": 21,
          "midi": 38,
          "name": "D2",
          "ticks": 28290,
          "time": 107.15898375,
          "velocity": 0.6929133858267716
        },
        {
          "duration": 0.07954537500000924,
          "durationTicks": 21,
          "midi": 36,
          "name": "C2",
          "ticks": 28320,
          "time": 107.27262,
          "velocity": 0.7559055118110236
        },
        {
          "duration": 0.12878775000000076,
          "durationTicks": 34,
          "midi": 54,
          "name": "F#3",
          "ticks": 28320,
          "time": 107.27262,
          "velocity": 0.8188976377952756
        },
        {
          "duration": 0.20833312500001,
          "durationTicks": 55,
          "midi": 38,
          "name": "D2",
          "ticks": 28320,
          "time": 107.27262,
          "velocity": 0.6929133858267716
        },
        {
          "duration": 0.20075737500000912,
          "durationTicks": 53,
          "midi": 38,
          "name": "D2",
          "ticks": 28380,
          "time": 107.4998925,
          "velocity": 0.6929133858267716
        },
        {
          "duration": 0.06060599999999283,
          "durationTicks": 16,
          "midi": 36,
          "name": "C2",
          "ticks": 28440,
          "time": 107.72716500000001,
          "velocity": 0.7559055118110236
        },
        {
          "duration": 0.12121199999999988,
          "durationTicks": 32,
          "midi": 54,
          "name": "F#3",
          "ticks": 28440,
          "time": 107.72716500000001,
          "velocity": 0.8188976377952756
        },
        {
          "duration": 0.2007573749999949,
          "durationTicks": 53,
          "midi": 38,
          "name": "D2",
          "ticks": 28440,
          "time": 107.72716500000001,
          "velocity": 0.6929133858267716
        },
        {
          "duration": 0.09848474999999723,
          "durationTicks": 26,
          "midi": 38,
          "name": "D2",
          "ticks": 28500,
          "time": 107.95443750000001,
          "velocity": 0.6929133858267716
        },
        {
          "duration": 0.21212099999999623,
          "durationTicks": 56,
          "midi": 38,
          "name": "D2",
          "ticks": 28530,
          "time": 108.06807375000001,
          "velocity": 0.6929133858267716
        },
        {
          "duration": 0.0378787500000044,
          "durationTicks": 10,
          "midi": 36,
          "name": "C2",
          "ticks": 28560,
          "time": 108.18171000000001,
          "velocity": 0.7559055118110236
        },
        {
          "duration": 0.10984837499999855,
          "durationTicks": 29,
          "midi": 54,
          "name": "F#3",
          "ticks": 28560,
          "time": 108.18171000000001,
          "velocity": 0.8188976377952756
        },
        {
          "duration": 0.2196967499999971,
          "durationTicks": 58,
          "midi": 38,
          "name": "D2",
          "ticks": 28590,
          "time": 108.29534625000001,
          "velocity": 0.6929133858267716
        },
        {
          "duration": 0.06818175000000792,
          "durationTicks": 18,
          "midi": 38,
          "name": "D2",
          "ticks": 28650,
          "time": 108.52261875,
          "velocity": 0.6929133858267716
        },
        {
          "duration": 0.04924237499999151,
          "durationTicks": 13,
          "midi": 36,
          "name": "C2",
          "ticks": 28680,
          "time": 108.636255,
          "velocity": 0.7559055118110236
        },
        {
          "duration": 0.11742412499999944,
          "durationTicks": 31,
          "midi": 54,
          "name": "F#3",
          "ticks": 28680,
          "time": 108.636255,
          "velocity": 0.8188976377952756
        },
        {
          "duration": 0.19696950000000868,
          "durationTicks": 52,
          "midi": 38,
          "name": "D2",
          "ticks": 28680,
          "time": 108.636255,
          "velocity": 0.6929133858267716
        },
        {
          "duration": 0.09848475000001145,
          "durationTicks": 26,
          "midi": 38,
          "name": "D2",
          "ticks": 28740,
          "time": 108.8635275,
          "velocity": 0.6929133858267716
        },
        {
          "duration": 0.07954537500000924,
          "durationTicks": 21,
          "midi": 38,
          "name": "D2",
          "ticks": 28770,
          "time": 108.97716375,
          "velocity": 0.6929133858267716
        },
        {
          "duration": 0.07954537500000924,
          "durationTicks": 21,
          "midi": 36,
          "name": "C2",
          "ticks": 28800,
          "time": 109.0908,
          "velocity": 0.7559055118110236
        },
        {
          "duration": 0.12121200000001409,
          "durationTicks": 32,
          "midi": 54,
          "name": "F#3",
          "ticks": 28800,
          "time": 109.0908,
          "velocity": 0.8188976377952756
        },
        {
          "duration": 0.21212100000001044,
          "durationTicks": 56,
          "midi": 38,
          "name": "D2",
          "ticks": 28800,
          "time": 109.0908,
          "velocity": 0.6929133858267716
        },
        {
          "duration": 0.21212099999999623,
          "durationTicks": 56,
          "midi": 38,
          "name": "D2",
          "ticks": 28860,
          "time": 109.31807250000001,
          "velocity": 0.6929133858267716
        },
        {
          "duration": 0.06060599999999283,
          "durationTicks": 16,
          "midi": 36,
          "name": "C2",
          "ticks": 28920,
          "time": 109.54534500000001,
          "velocity": 0.7559055118110236
        },
        {
          "duration": 0.12878775000000076,
          "durationTicks": 34,
          "midi": 54,
          "name": "F#3",
          "ticks": 28920,
          "time": 109.54534500000001,
          "velocity": 0.8188976377952756
        },
        {
          "duration": 0.2007573749999949,
          "durationTicks": 53,
          "midi": 38,
          "name": "D2",
          "ticks": 28920,
          "time": 109.54534500000001,
          "velocity": 0.6929133858267716
        },
        {
          "duration": 0.09090899999999635,
          "durationTicks": 24,
          "midi": 38,
          "name": "D2",
          "ticks": 28980,
          "time": 109.77261750000001,
          "velocity": 0.6929133858267716
        },
        {
          "duration": 0.1893937499999936,
          "durationTicks": 50,
          "midi": 38,
          "name": "D2",
          "ticks": 29010,
          "time": 109.88625375000001,
          "velocity": 0.6929133858267716
        },
        {
          "duration": 0.0378787500000044,
          "durationTicks": 10,
          "midi": 36,
          "name": "C2",
          "ticks": 29040,
          "time": 109.99989000000001,
          "velocity": 0.7559055118110236
        },
        {
          "duration": 0.09848474999999723,
          "durationTicks": 26,
          "midi": 54,
          "name": "F#3",
          "ticks": 29040,
          "time": 109.99989000000001,
          "velocity": 0.8188976377952756
        },
        {
          "duration": 0.23106037499999843,
          "durationTicks": 61,
          "midi": 38,
          "name": "D2",
          "ticks": 29070,
          "time": 110.11352625,
          "velocity": 0.6929133858267716
        },
        {
          "duration": 0.04924237499999151,
          "durationTicks": 13,
          "midi": 38,
          "name": "D2",
          "ticks": 29130,
          "time": 110.34079875,
          "velocity": 0.6929133858267716
        },
        {
          "duration": 0.04924237499999151,
          "durationTicks": 13,
          "midi": 36,
          "name": "C2",
          "ticks": 29160,
          "time": 110.454435,
          "velocity": 0.7559055118110236
        },
        {
          "duration": 0.12121200000001409,
          "durationTicks": 32,
          "midi": 54,
          "name": "F#3",
          "ticks": 29160,
          "time": 110.454435,
          "velocity": 0.8188976377952756
        },
        {
          "duration": 0.20075737500000912,
          "durationTicks": 53,
          "midi": 38,
          "name": "D2",
          "ticks": 29160,
          "time": 110.454435,
          "velocity": 0.6929133858267716
        },
        {
          "duration": 0.10984837500001277,
          "durationTicks": 29,
          "midi": 38,
          "name": "D2",
          "ticks": 29220,
          "time": 110.6817075,
          "velocity": 0.6929133858267716
        },
        {
          "duration": 0.07954537499999503,
          "durationTicks": 21,
          "midi": 38,
          "name": "D2",
          "ticks": 29250,
          "time": 110.79534375000001,
          "velocity": 0.6929133858267716
        },
        {
          "duration": 0.07954537499999503,
          "durationTicks": 21,
          "midi": 36,
          "name": "C2",
          "ticks": 29280,
          "time": 110.90898000000001,
          "velocity": 0.7559055118110236
        },
        {
          "duration": 0.10227262499999767,
          "durationTicks": 27,
          "midi": 54,
          "name": "F#3",
          "ticks": 29280,
          "time": 110.90898000000001,
          "velocity": 0.8188976377952756
        },
        {
          "duration": 0.1818179999999927,
          "durationTicks": 48,
          "midi": 38,
          "name": "D2",
          "ticks": 29280,
          "time": 110.90898000000001,
          "velocity": 0.6929133858267716
        },
        {
          "duration": 0.1893937499999936,
          "durationTicks": 50,
          "midi": 38,
          "name": "D2",
          "ticks": 29340,
          "time": 111.13625250000001,
          "velocity": 0.6929133858267716
        },
        {
          "duration": 0.06818174999999371,
          "durationTicks": 18,
          "midi": 36,
          "name": "C2",
          "ticks": 29400,
          "time": 111.36352500000001,
          "velocity": 0.7559055118110236
        },
        {
          "duration": 0.12878775000000076,
          "durationTicks": 34,
          "midi": 54,
          "name": "F#3",
          "ticks": 29400,
          "time": 111.36352500000001,
          "velocity": 0.8188976377952756
        },
        {
          "duration": 0.2083331249999958,
          "durationTicks": 55,
          "midi": 38,
          "name": "D2",
          "ticks": 29400,
          "time": 111.36352500000001,
          "velocity": 0.6929133858267716
        },
        {
          "duration": 0.09090899999999635,
          "durationTicks": 24,
          "midi": 38,
          "name": "D2",
          "ticks": 29460,
          "time": 111.59079750000001,
          "velocity": 0.6929133858267716
        },
        {
          "duration": 0.2007573749999949,
          "durationTicks": 53,
          "midi": 38,
          "name": "D2",
          "ticks": 29490,
          "time": 111.70443375,
          "velocity": 0.6929133858267716
        },
        {
          "duration": 0.04166662500000484,
          "durationTicks": 11,
          "midi": 36,
          "name": "C2",
          "ticks": 29520,
          "time": 111.81807,
          "velocity": 0.7559055118110236
        },
        {
          "duration": 0.12121200000001409,
          "durationTicks": 32,
          "midi": 54,
          "name": "F#3",
          "ticks": 29520,
          "time": 111.81807,
          "velocity": 0.8188976377952756
        },
        {
          "duration": 0.2196967499999971,
          "durationTicks": 58,
          "midi": 38,
          "name": "D2",
          "ticks": 29550,
          "time": 111.93170625,
          "velocity": 0.6929133858267716
        },
        {
          "duration": 0.06060600000000704,
          "durationTicks": 16,
          "midi": 38,
          "name": "D2",
          "ticks": 29610,
          "time": 112.15897875,
          "velocity": 0.6929133858267716
        },
        {
          "duration": 0.04166662500000484,
          "durationTicks": 11,
          "midi": 36,
          "name": "C2",
          "ticks": 29640,
          "time": 112.272615,
          "velocity": 0.7559055118110236
        },
        {
          "duration": 0.10984837500001277,
          "durationTicks": 29,
          "midi": 54,
          "name": "F#3",
          "ticks": 29640,
          "time": 112.272615,
          "velocity": 0.8188976377952756
        },
        {
          "duration": 0.1893937500000078,
          "durationTicks": 50,
          "midi": 38,
          "name": "D2",
          "ticks": 29640,
          "time": 112.272615,
          "velocity": 0.6929133858267716
        },
        {
          "duration": 0.09848474999999723,
          "durationTicks": 26,
          "midi": 38,
          "name": "D2",
          "ticks": 29700,
          "time": 112.49988750000001,
          "velocity": 0.6929133858267716
        },
        {
          "duration": 0.07954537499999503,
          "durationTicks": 21,
          "midi": 38,
          "name": "D2",
          "ticks": 29730,
          "time": 112.61352375000001,
          "velocity": 0.6929133858267716
        },
        {
          "duration": 0.07954537499999503,
          "durationTicks": 21,
          "midi": 36,
          "name": "C2",
          "ticks": 29760,
          "time": 112.72716000000001,
          "velocity": 0.7559055118110236
        },
        {
          "duration": 0.12121199999999988,
          "durationTicks": 32,
          "midi": 54,
          "name": "F#3",
          "ticks": 29760,
          "time": 112.72716000000001,
          "velocity": 0.8188976377952756
        },
        {
          "duration": 0.2007573749999949,
          "durationTicks": 53,
          "midi": 38,
          "name": "D2",
          "ticks": 29760,
          "time": 112.72716000000001,
          "velocity": 0.6929133858267716
        },
        {
          "duration": 0.2007573749999949,
          "durationTicks": 53,
          "midi": 38,
          "name": "D2",
          "ticks": 29820,
          "time": 112.95443250000001,
          "velocity": 0.6929133858267716
        },
        {
          "duration": 0.06060599999999283,
          "durationTicks": 16,
          "midi": 36,
          "name": "C2",
          "ticks": 29880,
          "time": 113.18170500000001,
          "velocity": 0.7559055118110236
        },
        {
          "duration": 0.10984837499999855,
          "durationTicks": 29,
          "midi": 54,
          "name": "F#3",
          "ticks": 29880,
          "time": 113.18170500000001,
          "velocity": 0.8188976377952756
        },
        {
          "duration": 0.2007573749999949,
          "durationTicks": 53,
          "midi": 38,
          "name": "D2",
          "ticks": 29880,
          "time": 113.18170500000001,
          "velocity": 0.6929133858267716
        },
        {
          "duration": 0.09090899999999635,
          "durationTicks": 24,
          "midi": 43,
          "name": "G2",
          "ticks": 29880,
          "time": 113.18170500000001,
          "velocity": 0.6929133858267716
        },
        {
          "duration": 0.09848474999999723,
          "durationTicks": 26,
          "midi": 38,
          "name": "D2",
          "ticks": 29940,
          "time": 113.4089775,
          "velocity": 0.6929133858267716
        },
        {
          "duration": 0.1893937499999936,
          "durationTicks": 50,
          "midi": 38,
          "name": "D2",
          "ticks": 29970,
          "time": 113.52261375,
          "velocity": 0.6929133858267716
        },
        {
          "duration": 0.0378787500000044,
          "durationTicks": 10,
          "midi": 36,
          "name": "C2",
          "ticks": 30000,
          "time": 113.63625,
          "velocity": 0.7559055118110236
        },
        {
          "duration": 0.11742412499999944,
          "durationTicks": 31,
          "midi": 54,
          "name": "F#3",
          "ticks": 30000,
          "time": 113.63625,
          "velocity": 0.8188976377952756
        },
        {
          "duration": 0.23863612500001352,
          "durationTicks": 63,
          "midi": 38,
          "name": "D2",
          "ticks": 30030,
          "time": 113.74988625,
          "velocity": 0.6929133858267716
        },
        {
          "duration": 0.04924237499999151,
          "durationTicks": 13,
          "midi": 38,
          "name": "D2",
          "ticks": 30090,
          "time": 113.97715875000002,
          "velocity": 0.6929133858267716
        },
        {
          "duration": 0.04166662499999063,
          "durationTicks": 11,
          "midi": 36,
          "name": "C2",
          "ticks": 30120,
          "time": 114.09079500000001,
          "velocity": 0.7559055118110236
        },
        {
          "duration": 0.10984837499999855,
          "durationTicks": 29,
          "midi": 54,
          "name": "F#3",
          "ticks": 30120,
          "time": 114.09079500000001,
          "velocity": 0.8188976377952756
        },
        {
          "duration": 0.2007573749999949,
          "durationTicks": 53,
          "midi": 38,
          "name": "D2",
          "ticks": 30120,
          "time": 114.09079500000001,
          "velocity": 0.6929133858267716
        },
        {
          "duration": 0.09848474999999723,
          "durationTicks": 26,
          "midi": 43,
          "name": "G2",
          "ticks": 30120,
          "time": 114.09079500000001,
          "velocity": 0.6929133858267716
        },
        {
          "duration": 0.12121199999999988,
          "durationTicks": 32,
          "midi": 38,
          "name": "D2",
          "ticks": 30180,
          "time": 114.31806750000001,
          "velocity": 0.6929133858267716
        },
        {
          "duration": 0.07954537500000924,
          "durationTicks": 21,
          "midi": 38,
          "name": "D2",
          "ticks": 30210,
          "time": 114.43170375000001,
          "velocity": 0.6929133858267716
        },
        {
          "duration": 0.06818174999999371,
          "durationTicks": 18,
          "midi": 36,
          "name": "C2",
          "ticks": 30240,
          "time": 114.54534000000001,
          "velocity": 0.7559055118110236
        },
        {
          "duration": 0.11742412499999944,
          "durationTicks": 31,
          "midi": 54,
          "name": "F#3",
          "ticks": 30240,
          "time": 114.54534000000001,
          "velocity": 0.8188976377952756
        },
        {
          "duration": 0.2083331249999958,
          "durationTicks": 55,
          "midi": 38,
          "name": "D2",
          "ticks": 30240,
          "time": 114.54534000000001,
          "velocity": 0.6929133858267716
        },
        {
          "duration": 0.19696950000000868,
          "durationTicks": 52,
          "midi": 38,
          "name": "D2",
          "ticks": 30300,
          "time": 114.77261250000001,
          "velocity": 0.6929133858267716
        },
        {
          "duration": 0.06060599999999283,
          "durationTicks": 16,
          "midi": 36,
          "name": "C2",
          "ticks": 30360,
          "time": 114.999885,
          "velocity": 0.7559055118110236
        },
        {
          "duration": 0.12121200000001409,
          "durationTicks": 32,
          "midi": 54,
          "name": "F#3",
          "ticks": 30360,
          "time": 114.999885,
          "velocity": 0.8188976377952756
        },
        {
          "duration": 0.2007573749999949,
          "durationTicks": 53,
          "midi": 38,
          "name": "D2",
          "ticks": 30360,
          "time": 114.999885,
          "velocity": 0.6929133858267716
        },
        {
          "duration": 0.12121200000001409,
          "durationTicks": 32,
          "midi": 43,
          "name": "G2",
          "ticks": 30360,
          "time": 114.999885,
          "velocity": 0.6929133858267716
        },
        {
          "duration": 0.10227262499999767,
          "durationTicks": 27,
          "midi": 38,
          "name": "D2",
          "ticks": 30420,
          "time": 115.2271575,
          "velocity": 0.6929133858267716
        },
        {
          "duration": 0.20075737500000912,
          "durationTicks": 53,
          "midi": 38,
          "name": "D2",
          "ticks": 30450,
          "time": 115.34079375,
          "velocity": 0.6929133858267716
        },
        {
          "duration": 0.04166662500000484,
          "durationTicks": 11,
          "midi": 36,
          "name": "C2",
          "ticks": 30480,
          "time": 115.45443,
          "velocity": 0.7559055118110236
        },
        {
          "duration": 0.12878775000000076,
          "durationTicks": 34,
          "midi": 54,
          "name": "F#3",
          "ticks": 30480,
          "time": 115.45443,
          "velocity": 0.8188976377952756
        },
        {
          "duration": 0.23106037499998422,
          "durationTicks": 61,
          "midi": 38,
          "name": "D2",
          "ticks": 30510,
          "time": 115.56806625000002,
          "velocity": 0.6929133858267716
        },
        {
          "duration": 0.06060599999999283,
          "durationTicks": 16,
          "midi": 38,
          "name": "D2",
          "ticks": 30570,
          "time": 115.79533875000001,
          "velocity": 0.6929133858267716
        },
        {
          "duration": 0.04924237499999151,
          "durationTicks": 13,
          "midi": 36,
          "name": "C2",
          "ticks": 30600,
          "time": 115.90897500000001,
          "velocity": 0.7559055118110236
        },
        {
          "duration": 0.12121199999999988,
          "durationTicks": 32,
          "midi": 54,
          "name": "F#3",
          "ticks": 30600,
          "time": 115.90897500000001,
          "velocity": 0.8188976377952756
        },
        {
          "duration": 0.2083331249999958,
          "durationTicks": 55,
          "midi": 38,
          "name": "D2",
          "ticks": 30600,
          "time": 115.90897500000001,
          "velocity": 0.6929133858267716
        },
        {
          "duration": 0.10984837499999855,
          "durationTicks": 29,
          "midi": 43,
          "name": "G2",
          "ticks": 30600,
          "time": 115.90897500000001,
          "velocity": 0.6929133858267716
        },
        {
          "duration": 0.10984837499999855,
          "durationTicks": 29,
          "midi": 38,
          "name": "D2",
          "ticks": 30660,
          "time": 116.13624750000001,
          "velocity": 0.6929133858267716
        },
        {
          "duration": 0.07196962499999415,
          "durationTicks": 19,
          "midi": 38,
          "name": "D2",
          "ticks": 30690,
          "time": 116.24988375000001,
          "velocity": 0.6929133858267716
        },
        {
          "duration": 0.06060599999999283,
          "durationTicks": 16,
          "midi": 36,
          "name": "C2",
          "ticks": 30720,
          "time": 116.36352000000001,
          "velocity": 0.7559055118110236
        },
        {
          "duration": 0.10984837499999855,
          "durationTicks": 29,
          "midi": 54,
          "name": "F#3",
          "ticks": 30720,
          "time": 116.36352000000001,
          "velocity": 0.8188976377952756
        },
        {
          "duration": 0.1893937500000078,
          "durationTicks": 50,
          "midi": 38,
          "name": "D2",
          "ticks": 30720,
          "time": 116.36352000000001,
          "velocity": 0.6929133858267716
        },
        {
          "duration": 0.2007573749999949,
          "durationTicks": 53,
          "midi": 38,
          "name": "D2",
          "ticks": 30780,
          "time": 116.5907925,
          "velocity": 0.6929133858267716
        },
        {
          "duration": 0.06060600000000704,
          "durationTicks": 16,
          "midi": 36,
          "name": "C2",
          "ticks": 30840,
          "time": 116.818065,
          "velocity": 0.7559055118110236
        },
        {
          "duration": 0.12121199999999988,
          "durationTicks": 32,
          "midi": 54,
          "name": "F#3",
          "ticks": 30840,
          "time": 116.818065,
          "velocity": 0.8188976377952756
        },
        {
          "duration": 0.21212099999999623,
          "durationTicks": 56,
          "midi": 38,
          "name": "D2",
          "ticks": 30840,
          "time": 116.818065,
          "velocity": 0.6929133858267716
        },
        {
          "duration": 0.14015137500000208,
          "durationTicks": 37,
          "midi": 43,
          "name": "G2",
          "ticks": 30840,
          "time": 116.818065,
          "velocity": 0.6929133858267716
        },
        {
          "duration": 0.09848474999999723,
          "durationTicks": 26,
          "midi": 38,
          "name": "D2",
          "ticks": 30900,
          "time": 117.0453375,
          "velocity": 0.6929133858267716
        },
        {
          "duration": 0.2083331249999958,
          "durationTicks": 55,
          "midi": 38,
          "name": "D2",
          "ticks": 30930,
          "time": 117.15897375,
          "velocity": 0.6929133858267716
        },
        {
          "duration": 0.03030299999998931,
          "durationTicks": 8,
          "midi": 36,
          "name": "C2",
          "ticks": 30960,
          "time": 117.27261000000001,
          "velocity": 0.7559055118110236
        },
        {
          "duration": 0.10984837499999855,
          "durationTicks": 29,
          "midi": 54,
          "name": "F#3",
          "ticks": 30960,
          "time": 117.27261000000001,
          "velocity": 0.8188976377952756
        },
        {
          "duration": 0.23106037499999843,
          "durationTicks": 61,
          "midi": 38,
          "name": "D2",
          "ticks": 30990,
          "time": 117.38624625000001,
          "velocity": 0.6929133858267716
        },
        {
          "duration": 0.04924237500000572,
          "durationTicks": 13,
          "midi": 38,
          "name": "D2",
          "ticks": 31050,
          "time": 117.61351875000001,
          "velocity": 0.6929133858267716
        },
        {
          "duration": 0.05303025000000616,
          "durationTicks": 14,
          "midi": 36,
          "name": "C2",
          "ticks": 31080,
          "time": 117.72715500000001,
          "velocity": 0.7559055118110236
        },
        {
          "duration": 0.12121199999998566,
          "durationTicks": 32,
          "midi": 54,
          "name": "F#3",
          "ticks": 31080,
          "time": 117.72715500000001,
          "velocity": 0.8188976377952756
        },
        {
          "duration": 0.10984837499999855,
          "durationTicks": 29,
          "midi": 43,
          "name": "G2",
          "ticks": 31080,
          "time": 117.72715500000001,
          "velocity": 0.6929133858267716
        },
        {
          "duration": 0.2007573749999949,
          "durationTicks": 53,
          "midi": 38,
          "name": "D2",
          "ticks": 31080,
          "time": 117.72715500000001,
          "velocity": 0.6929133858267716
        },
        {
          "duration": 0.10984837499999855,
          "durationTicks": 29,
          "midi": 38,
          "name": "D2",
          "ticks": 31140,
          "time": 117.95442750000001,
          "velocity": 0.6929133858267716
        },
        {
          "duration": 0.07954537500000924,
          "durationTicks": 21,
          "midi": 38,
          "name": "D2",
          "ticks": 31170,
          "time": 118.06806375000001,
          "velocity": 0.6929133858267716
        },
        {
          "duration": 0.06818174999999371,
          "durationTicks": 18,
          "midi": 36,
          "name": "C2",
          "ticks": 31200,
          "time": 118.1817,
          "velocity": 0.7559055118110236
        },
        {
          "duration": 0.10984837499999855,
          "durationTicks": 29,
          "midi": 54,
          "name": "F#3",
          "ticks": 31200,
          "time": 118.1817,
          "velocity": 0.8188976377952756
        },
        {
          "duration": 0.2007573749999949,
          "durationTicks": 53,
          "midi": 38,
          "name": "D2",
          "ticks": 31200,
          "time": 118.1817,
          "velocity": 0.6929133858267716
        },
        {
          "duration": 0.2083331249999958,
          "durationTicks": 55,
          "midi": 38,
          "name": "D2",
          "ticks": 31260,
          "time": 118.4089725,
          "velocity": 0.6929133858267716
        },
        {
          "duration": 0.04924237500001993,
          "durationTicks": 13,
          "midi": 36,
          "name": "C2",
          "ticks": 31320,
          "time": 118.636245,
          "velocity": 0.7559055118110236
        },
        {
          "duration": 0.10227262500001189,
          "durationTicks": 27,
          "midi": 54,
          "name": "F#3",
          "ticks": 31320,
          "time": 118.636245,
          "velocity": 0.8188976377952756
        },
        {
          "duration": 0.1893937500000078,
          "durationTicks": 50,
          "midi": 38,
          "name": "D2",
          "ticks": 31320,
          "time": 118.636245,
          "velocity": 0.6929133858267716
        },
        {
          "duration": 0.10227262500001189,
          "durationTicks": 27,
          "midi": 43,
          "name": "G2",
          "ticks": 31320,
          "time": 118.636245,
          "velocity": 0.6929133858267716
        },
        {
          "duration": 0.09090899999998214,
          "durationTicks": 24,
          "midi": 38,
          "name": "D2",
          "ticks": 31380,
          "time": 118.86351750000001,
          "velocity": 0.6929133858267716
        },
        {
          "duration": 0.1893937500000078,
          "durationTicks": 50,
          "midi": 38,
          "name": "D2",
          "ticks": 31410,
          "time": 118.97715375000001,
          "velocity": 0.6929133858267716
        },
        {
          "duration": 0.05303025000000616,
          "durationTicks": 14,
          "midi": 36,
          "name": "C2",
          "ticks": 31440,
          "time": 119.09079000000001,
          "velocity": 0.7559055118110236
        },
        {
          "duration": 0.09848474999998302,
          "durationTicks": 26,
          "midi": 54,
          "name": "F#3",
          "ticks": 31440,
          "time": 119.09079000000001,
          "velocity": 0.8188976377952756
        },
        {
          "duration": 0.23106037499999843,
          "durationTicks": 61,
          "midi": 38,
          "name": "D2",
          "ticks": 31470,
          "time": 119.20442625000001,
          "velocity": 0.6929133858267716
        },
        {
          "duration": 0.06060599999999283,
          "durationTicks": 16,
          "midi": 38,
          "name": "D2",
          "ticks": 31530,
          "time": 119.43169875000001,
          "velocity": 0.6929133858267716
        },
        {
          "duration": 0.04924237500000572,
          "durationTicks": 13,
          "midi": 36,
          "name": "C2",
          "ticks": 31560,
          "time": 119.54533500000001,
          "velocity": 0.7559055118110236
        },
        {
          "duration": 0.10984837499999855,
          "durationTicks": 29,
          "midi": 54,
          "name": "F#3",
          "ticks": 31560,
          "time": 119.54533500000001,
          "velocity": 0.8188976377952756
        },
        {
          "duration": 0.2007573749999949,
          "durationTicks": 53,
          "midi": 38,
          "name": "D2",
          "ticks": 31560,
          "time": 119.54533500000001,
          "velocity": 0.6929133858267716
        },
        {
          "duration": 0.12878775000001497,
          "durationTicks": 34,
          "midi": 43,
          "name": "G2",
          "ticks": 31560,
          "time": 119.54533500000001,
          "velocity": 0.6929133858267716
        },
        {
          "duration": 0.12878775000001497,
          "durationTicks": 34,
          "midi": 38,
          "name": "D2",
          "ticks": 31620,
          "time": 119.7726075,
          "velocity": 0.6929133858267716
        },
        {
          "duration": 0.07954537500000924,
          "durationTicks": 21,
          "midi": 38,
          "name": "D2",
          "ticks": 31650,
          "time": 119.88624375,
          "velocity": 0.6929133858267716
        },
        {
          "duration": 0.08712112499999591,
          "durationTicks": 23,
          "midi": 36,
          "name": "C2",
          "ticks": 31680,
          "time": 119.99988,
          "velocity": 0.7559055118110236
        },
        {
          "duration": 0.09848474999999723,
          "durationTicks": 26,
          "midi": 54,
          "name": "F#3",
          "ticks": 31680,
          "time": 119.99988,
          "velocity": 0.8188976377952756
        },
        {
          "duration": 0.17803012499999227,
          "durationTicks": 47,
          "midi": 38,
          "name": "D2",
          "ticks": 31680,
          "time": 119.99988,
          "velocity": 0.6929133858267716
        },
        {
          "duration": 0.1893937500000078,
          "durationTicks": 50,
          "midi": 38,
          "name": "D2",
          "ticks": 31740,
          "time": 120.2271525,
          "velocity": 0.6929133858267716
        },
        {
          "duration": 0.07196962500000836,
          "durationTicks": 19,
          "midi": 36,
          "name": "C2",
          "ticks": 31800,
          "time": 120.45442500000001,
          "velocity": 0.7559055118110236
        },
        {
          "duration": 0.12878775000000076,
          "durationTicks": 34,
          "midi": 54,
          "name": "F#3",
          "ticks": 31800,
          "time": 120.45442500000001,
          "velocity": 0.8188976377952756
        },
        {
          "duration": 0.2007573749999949,
          "durationTicks": 53,
          "midi": 38,
          "name": "D2",
          "ticks": 31800,
          "time": 120.45442500000001,
          "velocity": 0.6929133858267716
        },
        {
          "duration": 0.12878775000000076,
          "durationTicks": 34,
          "midi": 43,
          "name": "G2",
          "ticks": 31800,
          "time": 120.45442500000001,
          "velocity": 0.6929133858267716
        },
        {
          "duration": 0.09090899999999635,
          "durationTicks": 24,
          "midi": 38,
          "name": "D2",
          "ticks": 31860,
          "time": 120.68169750000001,
          "velocity": 0.6929133858267716
        },
        {
          "duration": 0.2007573749999949,
          "durationTicks": 53,
          "midi": 38,
          "name": "D2",
          "ticks": 31890,
          "time": 120.79533375000001,
          "velocity": 0.6929133858267716
        },
        {
          "duration": 0.03787874999999019,
          "durationTicks": 10,
          "midi": 36,
          "name": "C2",
          "ticks": 31920,
          "time": 120.90897000000001,
          "velocity": 0.7559055118110236
        },
        {
          "duration": 0.12121199999998566,
          "durationTicks": 32,
          "midi": 54,
          "name": "F#3",
          "ticks": 31920,
          "time": 120.90897000000001,
          "velocity": 0.8188976377952756
        },
        {
          "duration": 0.21969675000001132,
          "durationTicks": 58,
          "midi": 38,
          "name": "D2",
          "ticks": 31950,
          "time": 121.02260625000001,
          "velocity": 0.6929133858267716
        },
        {
          "duration": 0.0568181250000066,
          "durationTicks": 15,
          "midi": 38,
          "name": "D2",
          "ticks": 32010,
          "time": 121.24987875000001,
          "velocity": 0.6929133858267716
        },
        {
          "duration": 0.03787874999999019,
          "durationTicks": 10,
          "midi": 36,
          "name": "C2",
          "ticks": 32040,
          "time": 121.363515,
          "velocity": 0.7559055118110236
        },
        {
          "duration": 0.10984837499999855,
          "durationTicks": 29,
          "midi": 54,
          "name": "F#3",
          "ticks": 32040,
          "time": 121.363515,
          "velocity": 0.8188976377952756
        },
        {
          "duration": 0.1893937500000078,
          "durationTicks": 50,
          "midi": 38,
          "name": "D2",
          "ticks": 32040,
          "time": 121.363515,
          "velocity": 0.6929133858267716
        },
        {
          "duration": 0.09848474999998302,
          "durationTicks": 26,
          "midi": 43,
          "name": "G2",
          "ticks": 32040,
          "time": 121.363515,
          "velocity": 0.6929133858267716
        },
        {
          "duration": 0.10984837500001277,
          "durationTicks": 29,
          "midi": 38,
          "name": "D2",
          "ticks": 32100,
          "time": 121.5907875,
          "velocity": 0.6929133858267716
        },
        {
          "duration": 0.07954537500000924,
          "durationTicks": 21,
          "midi": 38,
          "name": "D2",
          "ticks": 32130,
          "time": 121.70442375,
          "velocity": 0.6929133858267716
        },
        {
          "duration": 0.07954537500000924,
          "durationTicks": 21,
          "midi": 36,
          "name": "C2",
          "ticks": 32160,
          "time": 121.81806,
          "velocity": 0.7559055118110236
        },
        {
          "duration": 0.12121199999999988,
          "durationTicks": 32,
          "midi": 54,
          "name": "F#3",
          "ticks": 32160,
          "time": 121.81806,
          "velocity": 0.8188976377952756
        },
        {
          "duration": 0.20075737500000912,
          "durationTicks": 53,
          "midi": 38,
          "name": "D2",
          "ticks": 32160,
          "time": 121.81806,
          "velocity": 0.6929133858267716
        },
        {
          "duration": 0.2007573749999949,
          "durationTicks": 53,
          "midi": 38,
          "name": "D2",
          "ticks": 32220,
          "time": 122.04533250000001,
          "velocity": 0.6929133858267716
        },
        {
          "duration": 0.04924237500000572,
          "durationTicks": 13,
          "midi": 36,
          "name": "C2",
          "ticks": 32280,
          "time": 122.27260500000001,
          "velocity": 0.7559055118110236
        },
        {
          "duration": 0.10984837499999855,
          "durationTicks": 29,
          "midi": 54,
          "name": "F#3",
          "ticks": 32280,
          "time": 122.27260500000001,
          "velocity": 0.8188976377952756
        },
        {
          "duration": 0.1893937500000078,
          "durationTicks": 50,
          "midi": 38,
          "name": "D2",
          "ticks": 32280,
          "time": 122.27260500000001,
          "velocity": 0.6929133858267716
        },
        {
          "duration": 0.09090899999999635,
          "durationTicks": 24,
          "midi": 43,
          "name": "G2",
          "ticks": 32280,
          "time": 122.27260500000001,
          "velocity": 0.6929133858267716
        },
        {
          "duration": 0.09848474999998302,
          "durationTicks": 26,
          "midi": 38,
          "name": "D2",
          "ticks": 32340,
          "time": 122.49987750000001,
          "velocity": 0.6929133858267716
        },
        {
          "duration": 0.2007573749999949,
          "durationTicks": 53,
          "midi": 38,
          "name": "D2",
          "ticks": 32370,
          "time": 122.61351375000001,
          "velocity": 0.6929133858267716
        },
        {
          "duration": 0.04166662499999063,
          "durationTicks": 11,
          "midi": 36,
          "name": "C2",
          "ticks": 32400,
          "time": 122.72715000000001,
          "velocity": 0.7559055118110236
        },
        {
          "duration": 0.10984837499999855,
          "durationTicks": 29,
          "midi": 54,
          "name": "F#3",
          "ticks": 32400,
          "time": 122.72715000000001,
          "velocity": 0.8188976377952756
        },
        {
          "duration": 0.23106037499999843,
          "durationTicks": 61,
          "midi": 38,
          "name": "D2",
          "ticks": 32430,
          "time": 122.84078625000001,
          "velocity": 0.6929133858267716
        },
        {
          "duration": 0.06060599999999283,
          "durationTicks": 16,
          "midi": 38,
          "name": "D2",
          "ticks": 32490,
          "time": 123.06805875,
          "velocity": 0.6929133858267716
        },
        {
          "duration": 0.06060600000000704,
          "durationTicks": 16,
          "midi": 36,
          "name": "C2",
          "ticks": 32520,
          "time": 123.181695,
          "velocity": 0.7559055118110236
        },
        {
          "duration": 0.10227262500001189,
          "durationTicks": 27,
          "midi": 54,
          "name": "F#3",
          "ticks": 32520,
          "time": 123.181695,
          "velocity": 0.8188976377952756
        },
        {
          "duration": 0.19318162500000824,
          "durationTicks": 51,
          "midi": 38,
          "name": "D2",
          "ticks": 32520,
          "time": 123.181695,
          "velocity": 0.6929133858267716
        },
        {
          "duration": 0.09090899999999635,
          "durationTicks": 24,
          "midi": 43,
          "name": "G2",
          "ticks": 32520,
          "time": 123.181695,
          "velocity": 0.6929133858267716
        },
        {
          "duration": 0.12878775000001497,
          "durationTicks": 34,
          "midi": 38,
          "name": "D2",
          "ticks": 32580,
          "time": 123.4089675,
          "velocity": 0.6929133858267716
        },
        {
          "duration": 0.07196962500002257,
          "durationTicks": 19,
          "midi": 38,
          "name": "D2",
          "ticks": 32610,
          "time": 123.52260375,
          "velocity": 0.6929133858267716
        },
        {
          "duration": 0.06060599999999283,
          "durationTicks": 16,
          "midi": 36,
          "name": "C2",
          "ticks": 32640,
          "time": 123.63624000000002,
          "velocity": 0.7559055118110236
        },
        {
          "duration": 0.10227262499999767,
          "durationTicks": 27,
          "midi": 54,
          "name": "F#3",
          "ticks": 32640,
          "time": 123.63624000000002,
          "velocity": 0.8188976377952756
        },
        {
          "duration": 0.1893937500000078,
          "durationTicks": 50,
          "midi": 38,
          "name": "D2",
          "ticks": 32640,
          "time": 123.63624000000002,
          "velocity": 0.6929133858267716
        },
        {
          "duration": 0.1893937500000078,
          "durationTicks": 50,
          "midi": 38,
          "name": "D2",
          "ticks": 32700,
          "time": 123.86351250000001,
          "velocity": 0.6929133858267716
        },
        {
          "duration": 0.04924237500000572,
          "durationTicks": 13,
          "midi": 36,
          "name": "C2",
          "ticks": 32760,
          "time": 124.09078500000001,
          "velocity": 0.7559055118110236
        },
        {
          "duration": 0.10984837499999855,
          "durationTicks": 29,
          "midi": 54,
          "name": "F#3",
          "ticks": 32760,
          "time": 124.09078500000001,
          "velocity": 0.8188976377952756
        },
        {
          "duration": 0.2007573749999949,
          "durationTicks": 53,
          "midi": 38,
          "name": "D2",
          "ticks": 32760,
          "time": 124.09078500000001,
          "velocity": 0.6929133858267716
        },
        {
          "duration": 0.12878775000001497,
          "durationTicks": 34,
          "midi": 43,
          "name": "G2",
          "ticks": 32760,
          "time": 124.09078500000001,
          "velocity": 0.6929133858267716
        },
        {
          "duration": 0.10984837499999855,
          "durationTicks": 29,
          "midi": 38,
          "name": "D2",
          "ticks": 32820,
          "time": 124.31805750000001,
          "velocity": 0.6929133858267716
        },
        {
          "duration": 0.2007573749999949,
          "durationTicks": 53,
          "midi": 38,
          "name": "D2",
          "ticks": 32850,
          "time": 124.43169375000001,
          "velocity": 0.6929133858267716
        },
        {
          "duration": 0.03787874999999019,
          "durationTicks": 10,
          "midi": 36,
          "name": "C2",
          "ticks": 32880,
          "time": 124.54533,
          "velocity": 0.7559055118110236
        },
        {
          "duration": 0.12878775000001497,
          "durationTicks": 34,
          "midi": 54,
          "name": "F#3",
          "ticks": 32880,
          "time": 124.54533,
          "velocity": 0.8188976377952756
        },
        {
          "duration": 0.2386361249999993,
          "durationTicks": 63,
          "midi": 38,
          "name": "D2",
          "ticks": 32910,
          "time": 124.65896625,
          "velocity": 0.6929133858267716
        },
        {
          "duration": 0.04924237500000572,
          "durationTicks": 13,
          "midi": 38,
          "name": "D2",
          "ticks": 32970,
          "time": 124.88623875,
          "velocity": 0.6929133858267716
        },
        {
          "duration": 0.04924237500001993,
          "durationTicks": 13,
          "midi": 36,
          "name": "C2",
          "ticks": 33000,
          "time": 124.999875,
          "velocity": 0.7559055118110236
        },
        {
          "duration": 0.12878775000001497,
          "durationTicks": 34,
          "midi": 54,
          "name": "F#3",
          "ticks": 33000,
          "time": 124.999875,
          "velocity": 0.8188976377952756
        },
        {
          "duration": 0.2083331249999958,
          "durationTicks": 55,
          "midi": 38,
          "name": "D2",
          "ticks": 33000,
          "time": 124.999875,
          "velocity": 0.6929133858267716
        },
        {
          "duration": 0.10984837500001277,
          "durationTicks": 29,
          "midi": 43,
          "name": "G2",
          "ticks": 33000,
          "time": 124.999875,
          "velocity": 0.6929133858267716
        },
        {
          "duration": 0.09848474999998302,
          "durationTicks": 26,
          "midi": 38,
          "name": "D2",
          "ticks": 33060,
          "time": 125.22714750000002,
          "velocity": 0.6929133858267716
        },
        {
          "duration": 0.07954537499999503,
          "durationTicks": 21,
          "midi": 38,
          "name": "D2",
          "ticks": 33090,
          "time": 125.34078375000001,
          "velocity": 0.6929133858267716
        },
        {
          "duration": 0.07196962500000836,
          "durationTicks": 19,
          "midi": 36,
          "name": "C2",
          "ticks": 33120,
          "time": 125.45442000000001,
          "velocity": 0.7559055118110236
        },
        {
          "duration": 0.10984837499999855,
          "durationTicks": 29,
          "midi": 54,
          "name": "F#3",
          "ticks": 33120,
          "time": 125.45442000000001,
          "velocity": 0.8188976377952756
        },
        {
          "duration": 0.2007573749999949,
          "durationTicks": 53,
          "midi": 38,
          "name": "D2",
          "ticks": 33120,
          "time": 125.45442000000001,
          "velocity": 0.6929133858267716
        },
        {
          "duration": 0.21212099999998202,
          "durationTicks": 56,
          "midi": 38,
          "name": "D2",
          "ticks": 33180,
          "time": 125.68169250000001,
          "velocity": 0.6929133858267716
        },
        {
          "duration": 0.06060599999999283,
          "durationTicks": 16,
          "midi": 36,
          "name": "C2",
          "ticks": 33240,
          "time": 125.90896500000001,
          "velocity": 0.7559055118110236
        },
        {
          "duration": 0.12878775000001497,
          "durationTicks": 34,
          "midi": 54,
          "name": "F#3",
          "ticks": 33240,
          "time": 125.90896500000001,
          "velocity": 0.8188976377952756
        },
        {
          "duration": 0.2007573749999949,
          "durationTicks": 53,
          "midi": 38,
          "name": "D2",
          "ticks": 33240,
          "time": 125.90896500000001,
          "velocity": 0.6929133858267716
        },
        {
          "duration": 0.12878775000001497,
          "durationTicks": 34,
          "midi": 43,
          "name": "G2",
          "ticks": 33240,
          "time": 125.90896500000001,
          "velocity": 0.6929133858267716
        },
        {
          "duration": 0.09090899999999635,
          "durationTicks": 24,
          "midi": 38,
          "name": "D2",
          "ticks": 33300,
          "time": 126.13623750000001,
          "velocity": 0.6929133858267716
        },
        {
          "duration": 0.2083331249999958,
          "durationTicks": 55,
          "midi": 38,
          "name": "D2",
          "ticks": 33330,
          "time": 126.24987375,
          "velocity": 0.6929133858267716
        },
        {
          "duration": 0.03030300000000352,
          "durationTicks": 8,
          "midi": 36,
          "name": "C2",
          "ticks": 33360,
          "time": 126.36351,
          "velocity": 0.7559055118110236
        },
        {
          "duration": 0.09848474999999723,
          "durationTicks": 26,
          "midi": 54,
          "name": "F#3",
          "ticks": 33360,
          "time": 126.36351,
          "velocity": 0.8188976377952756
        },
        {
          "duration": 0.23106037499999843,
          "durationTicks": 61,
          "midi": 38,
          "name": "D2",
          "ticks": 33390,
          "time": 126.47714625,
          "velocity": 0.6929133858267716
        },
        {
          "duration": 0.06060600000000704,
          "durationTicks": 16,
          "midi": 38,
          "name": "D2",
          "ticks": 33450,
          "time": 126.70441875,
          "velocity": 0.6929133858267716
        },
        {
          "duration": 0.04924237500000572,
          "durationTicks": 13,
          "midi": 36,
          "name": "C2",
          "ticks": 33480,
          "time": 126.81805500000002,
          "velocity": 0.7559055118110236
        },
        {
          "duration": 0.12878775000000076,
          "durationTicks": 34,
          "midi": 54,
          "name": "F#3",
          "ticks": 33480,
          "time": 126.81805500000002,
          "velocity": 0.8188976377952756
        },
        {
          "duration": 0.09848474999998302,
          "durationTicks": 26,
          "midi": 43,
          "name": "G2",
          "ticks": 33480,
          "time": 126.81805500000002,
          "velocity": 0.6929133858267716
        },
        {
          "duration": 0.2007573749999949,
          "durationTicks": 53,
          "midi": 38,
          "name": "D2",
          "ticks": 33480,
          "time": 126.81805500000002,
          "velocity": 0.6929133858267716
        },
        {
          "duration": 0.10984837499999855,
          "durationTicks": 29,
          "midi": 38,
          "name": "D2",
          "ticks": 33540,
          "time": 127.04532750000001,
          "velocity": 0.6929133858267716
        },
        {
          "duration": 0.07954537499999503,
          "durationTicks": 21,
          "midi": 38,
          "name": "D2",
          "ticks": 33570,
          "time": 127.15896375000001,
          "velocity": 0.6929133858267716
        },
        {
          "duration": 0.06060599999999283,
          "durationTicks": 16,
          "midi": 36,
          "name": "C2",
          "ticks": 33600,
          "time": 127.27260000000001,
          "velocity": 0.7559055118110236
        },
        {
          "duration": 0.10227262500001189,
          "durationTicks": 27,
          "midi": 54,
          "name": "F#3",
          "ticks": 33600,
          "time": 127.27260000000001,
          "velocity": 0.8188976377952756
        },
        {
          "duration": 0.04166662499999063,
          "durationTicks": 11,
          "midi": 50,
          "name": "D3",
          "ticks": 33600,
          "time": 127.27260000000001,
          "velocity": 0.6929133858267716
        },
        {
          "duration": 0.0568181250000066,
          "durationTicks": 15,
          "midi": 50,
          "name": "D3",
          "ticks": 33660,
          "time": 127.49987250000001,
          "velocity": 0.6929133858267716
        },
        {
          "duration": 0.04924237500000572,
          "durationTicks": 13,
          "midi": 36,
          "name": "C2",
          "ticks": 33720,
          "time": 127.72714500000001,
          "velocity": 0.7559055118110236
        },
        {
          "duration": 0.10984837499999855,
          "durationTicks": 29,
          "midi": 54,
          "name": "F#3",
          "ticks": 33720,
          "time": 127.72714500000001,
          "velocity": 0.8188976377952756
        },
        {
          "duration": 0.04924237500000572,
          "durationTicks": 13,
          "midi": 43,
          "name": "G2",
          "ticks": 33720,
          "time": 127.72714500000001,
          "velocity": 0.6929133858267716
        },
        {
          "duration": 0.04924237500000572,
          "durationTicks": 13,
          "midi": 50,
          "name": "D3",
          "ticks": 33780,
          "time": 127.9544175,
          "velocity": 0.6929133858267716
        },
        {
          "duration": 0.06060599999997862,
          "durationTicks": 16,
          "midi": 50,
          "name": "D3",
          "ticks": 33810,
          "time": 128.06805375000002,
          "velocity": 0.6929133858267716
        },
        {
          "duration": 0.04924237500000572,
          "durationTicks": 13,
          "midi": 36,
          "name": "C2",
          "ticks": 33840,
          "time": 128.18169,
          "velocity": 0.7559055118110236
        },
        {
          "duration": 0.12121199999998566,
          "durationTicks": 32,
          "midi": 54,
          "name": "F#3",
          "ticks": 33840,
          "time": 128.18169,
          "velocity": 0.8188976377952756
        },
        {
          "duration": 0.06060599999997862,
          "durationTicks": 16,
          "midi": 50,
          "name": "D3",
          "ticks": 33870,
          "time": 128.29532625000002,
          "velocity": 0.6929133858267716
        },
        {
          "duration": 0.0568181250000066,
          "durationTicks": 15,
          "midi": 50,
          "name": "D3",
          "ticks": 33930,
          "time": 128.52259875000001,
          "velocity": 0.6929133858267716
        },
        {
          "duration": 0.04166662500000484,
          "durationTicks": 11,
          "midi": 36,
          "name": "C2",
          "ticks": 33960,
          "time": 128.636235,
          "velocity": 0.7559055118110236
        },
        {
          "duration": 0.10227262500001189,
          "durationTicks": 27,
          "midi": 54,
          "name": "F#3",
          "ticks": 33960,
          "time": 128.636235,
          "velocity": 0.8188976377952756
        },
        {
          "duration": 0.06060600000000704,
          "durationTicks": 16,
          "midi": 47,
          "name": "B2",
          "ticks": 33960,
          "time": 128.636235,
          "velocity": 0.6929133858267716
        },
        {
          "duration": 0.04924237500000572,
          "durationTicks": 13,
          "midi": 43,
          "name": "G2",
          "ticks": 34020,
          "time": 128.8635075,
          "velocity": 0.6929133858267716
        },
        {
          "duration": 0.06060600000000704,
          "durationTicks": 16,
          "midi": 43,
          "name": "G2",
          "ticks": 34050,
          "time": 128.97714375,
          "velocity": 0.6929133858267716
        },
        {
          "duration": 0.07954537500000924,
          "durationTicks": 21,
          "midi": 36,
          "name": "C2",
          "ticks": 34080,
          "time": 129.09078,
          "velocity": 0.7559055118110236
        },
        {
          "duration": 0.12121200000001409,
          "durationTicks": 32,
          "midi": 54,
          "name": "F#3",
          "ticks": 34080,
          "time": 129.09078,
          "velocity": 0.8188976377952756
        },
        {
          "duration": 0.0378787500000044,
          "durationTicks": 10,
          "midi": 50,
          "name": "D3",
          "ticks": 34080,
          "time": 129.09078,
          "velocity": 0.6929133858267716
        },
        {
          "duration": 0.06060599999997862,
          "durationTicks": 16,
          "midi": 50,
          "name": "D3",
          "ticks": 34140,
          "time": 129.31805250000002,
          "velocity": 0.6929133858267716
        },
        {
          "duration": 0.06060599999997862,
          "durationTicks": 16,
          "midi": 36,
          "name": "C2",
          "ticks": 34200,
          "time": 129.54532500000002,
          "velocity": 0.7559055118110236
        },
        {
          "duration": 0.11742412499998522,
          "durationTicks": 31,
          "midi": 54,
          "name": "F#3",
          "ticks": 34200,
          "time": 129.54532500000002,
          "velocity": 0.8188976377952756
        },
        {
          "duration": 0.04924237500000572,
          "durationTicks": 13,
          "midi": 43,
          "name": "G2",
          "ticks": 34200,
          "time": 129.54532500000002,
          "velocity": 0.6929133858267716
        },
        {
          "duration": 0.04924237500000572,
          "durationTicks": 13,
          "midi": 50,
          "name": "D3",
          "ticks": 34260,
          "time": 129.77259750000002,
          "velocity": 0.6929133858267716
        },
        {
          "duration": 0.04924237500000572,
          "durationTicks": 13,
          "midi": 50,
          "name": "D3",
          "ticks": 34290,
          "time": 129.88623375,
          "velocity": 0.6929133858267716
        },
        {
          "duration": 0.03787874999997598,
          "durationTicks": 10,
          "midi": 36,
          "name": "C2",
          "ticks": 34320,
          "time": 129.99987000000002,
          "velocity": 0.7559055118110236
        },
        {
          "duration": 0.11742412499998522,
          "durationTicks": 31,
          "midi": 54,
          "name": "F#3",
          "ticks": 34320,
          "time": 129.99987000000002,
          "velocity": 0.8188976377952756
        },
        {
          "duration": 0.06060600000000704,
          "durationTicks": 16,
          "midi": 50,
          "name": "D3",
          "ticks": 34350,
          "time": 130.11350625,
          "velocity": 0.6929133858267716
        },
        {
          "duration": 0.06060600000000704,
          "durationTicks": 16,
          "midi": 50,
          "name": "D3",
          "ticks": 34410,
          "time": 130.34077875,
          "velocity": 0.6929133858267716
        },
        {
          "duration": 0.04924237500000572,
          "durationTicks": 13,
          "midi": 36,
          "name": "C2",
          "ticks": 34440,
          "time": 130.454415,
          "velocity": 0.7559055118110236
        },
        {
          "duration": 0.10984837500001277,
          "durationTicks": 29,
          "midi": 54,
          "name": "F#3",
          "ticks": 34440,
          "time": 130.454415,
          "velocity": 0.8188976377952756
        },
        {
          "duration": 0.07196962500000836,
          "durationTicks": 19,
          "midi": 47,
          "name": "B2",
          "ticks": 34440,
          "time": 130.454415,
          "velocity": 0.6929133858267716
        },
        {
          "duration": 0.07196962500000836,
          "durationTicks": 19,
          "midi": 43,
          "name": "G2",
          "ticks": 34500,
          "time": 130.6816875,
          "velocity": 0.6929133858267716
        },
        {
          "duration": 0.0681817499999795,
          "durationTicks": 18,
          "midi": 43,
          "name": "G2",
          "ticks": 34530,
          "time": 130.79532375000002,
          "velocity": 0.6929133858267716
        },
        {
          "duration": 0.07954537500000924,
          "durationTicks": 21,
          "midi": 36,
          "name": "C2",
          "ticks": 34560,
          "time": 130.90896,
          "velocity": 0.7559055118110236
        },
        {
          "duration": 0.12121199999998566,
          "durationTicks": 32,
          "midi": 54,
          "name": "F#3",
          "ticks": 34560,
          "time": 130.90896,
          "velocity": 0.8188976377952756
        },
        {
          "duration": 0.06060600000000704,
          "durationTicks": 16,
          "midi": 50,
          "name": "D3",
          "ticks": 34560,
          "time": 130.90896,
          "velocity": 0.6929133858267716
        },
        {
          "duration": 0.04166662500000484,
          "durationTicks": 11,
          "midi": 50,
          "name": "D3",
          "ticks": 34620,
          "time": 131.1362325,
          "velocity": 0.6929133858267716
        },
        {
          "duration": 0.04924237500000572,
          "durationTicks": 13,
          "midi": 36,
          "name": "C2",
          "ticks": 34680,
          "time": 131.363505,
          "velocity": 0.7559055118110236
        },
        {
          "duration": 0.12121199999998566,
          "durationTicks": 32,
          "midi": 54,
          "name": "F#3",
          "ticks": 34680,
          "time": 131.363505,
          "velocity": 0.8188976377952756
        },
        {
          "duration": 0.04924237500000572,
          "durationTicks": 13,
          "midi": 43,
          "name": "G2",
          "ticks": 34680,
          "time": 131.363505,
          "velocity": 0.6929133858267716
        },
        {
          "duration": 0.06060600000000704,
          "durationTicks": 16,
          "midi": 50,
          "name": "D3",
          "ticks": 34740,
          "time": 131.5907775,
          "velocity": 0.6929133858267716
        },
        {
          "duration": 0.04924237500000572,
          "durationTicks": 13,
          "midi": 50,
          "name": "D3",
          "ticks": 34770,
          "time": 131.70441375000001,
          "velocity": 0.6929133858267716
        },
        {
          "duration": 0.04166662500000484,
          "durationTicks": 11,
          "midi": 36,
          "name": "C2",
          "ticks": 34800,
          "time": 131.81805,
          "velocity": 0.7559055118110236
        },
        {
          "duration": 0.12121200000001409,
          "durationTicks": 32,
          "midi": 54,
          "name": "F#3",
          "ticks": 34800,
          "time": 131.81805,
          "velocity": 0.8188976377952756
        },
        {
          "duration": 0.06060600000000704,
          "durationTicks": 16,
          "midi": 50,
          "name": "D3",
          "ticks": 34830,
          "time": 131.93168625,
          "velocity": 0.6929133858267716
        },
        {
          "duration": 0.0681817499999795,
          "durationTicks": 18,
          "midi": 50,
          "name": "D3",
          "ticks": 34890,
          "time": 132.15895875,
          "velocity": 0.6929133858267716
        },
        {
          "duration": 0.06060600000000704,
          "durationTicks": 16,
          "midi": 36,
          "name": "C2",
          "ticks": 34920,
          "time": 132.272595,
          "velocity": 0.7559055118110236
        },
        {
          "duration": 0.10984837500001277,
          "durationTicks": 29,
          "midi": 54,
          "name": "F#3",
          "ticks": 34920,
          "time": 132.272595,
          "velocity": 0.8188976377952756
        },
        {
          "duration": 0.06060600000000704,
          "durationTicks": 16,
          "midi": 47,
          "name": "B2",
          "ticks": 34920,
          "time": 132.272595,
          "velocity": 0.6929133858267716
        },
        {
          "duration": 0.0681817499999795,
          "durationTicks": 18,
          "midi": 43,
          "name": "G2",
          "ticks": 34980,
          "time": 132.49986750000002,
          "velocity": 0.6929133858267716
        },
        {
          "duration": 0.06060600000000704,
          "durationTicks": 16,
          "midi": 43,
          "name": "G2",
          "ticks": 35010,
          "time": 132.61350375,
          "velocity": 0.6929133858267716
        },
        {
          "duration": 0.06060599999997862,
          "durationTicks": 16,
          "midi": 36,
          "name": "C2",
          "ticks": 35040,
          "time": 132.72714000000002,
          "velocity": 0.7559055118110236
        },
        {
          "duration": 0.10984837499998434,
          "durationTicks": 29,
          "midi": 54,
          "name": "F#3",
          "ticks": 35040,
          "time": 132.72714000000002,
          "velocity": 0.8188976377952756
        },
        {
          "duration": 0.04924237500000572,
          "durationTicks": 13,
          "midi": 50,
          "name": "D3",
          "ticks": 35040,
          "time": 132.72714000000002,
          "velocity": 0.6929133858267716
        },
        {
          "duration": 0.06060599999997862,
          "durationTicks": 16,
          "midi": 50,
          "name": "D3",
          "ticks": 35100,
          "time": 132.95441250000002,
          "velocity": 0.6929133858267716
        },
        {
          "duration": 0.06060599999997862,
          "durationTicks": 16,
          "midi": 36,
          "name": "C2",
          "ticks": 35160,
          "time": 133.18168500000002,
          "velocity": 0.7559055118110236
        },
        {
          "duration": 0.12121199999998566,
          "durationTicks": 32,
          "midi": 54,
          "name": "F#3",
          "ticks": 35160,
          "time": 133.18168500000002,
          "velocity": 0.8188976377952756
        },
        {
          "duration": 0.04166662499997642,
          "durationTicks": 11,
          "midi": 43,
          "name": "G2",
          "ticks": 35160,
          "time": 133.18168500000002,
          "velocity": 0.6929133858267716
        },
        {
          "duration": 0.04924237500000572,
          "durationTicks": 13,
          "midi": 50,
          "name": "D3",
          "ticks": 35220,
          "time": 133.4089575,
          "velocity": 0.6929133858267716
        },
        {
          "duration": 0.04924237500000572,
          "durationTicks": 13,
          "midi": 50,
          "name": "D3",
          "ticks": 35250,
          "time": 133.52259375,
          "velocity": 0.6929133858267716
        },
        {
          "duration": 0.04924237500000572,
          "durationTicks": 13,
          "midi": 36,
          "name": "C2",
          "ticks": 35280,
          "time": 133.63623,
          "velocity": 0.7559055118110236
        },
        {
          "duration": 0.14015137499998787,
          "durationTicks": 37,
          "midi": 54,
          "name": "F#3",
          "ticks": 35280,
          "time": 133.63623,
          "velocity": 0.8188976377952756
        },
        {
          "duration": 0.0568181250000066,
          "durationTicks": 15,
          "midi": 50,
          "name": "D3",
          "ticks": 35310,
          "time": 133.74986625,
          "velocity": 0.6929133858267716
        },
        {
          "duration": 0.04924237500000572,
          "durationTicks": 13,
          "midi": 50,
          "name": "D3",
          "ticks": 35370,
          "time": 133.97713875000002,
          "velocity": 0.6929133858267716
        },
        {
          "duration": 0.05303025000000616,
          "durationTicks": 14,
          "midi": 36,
          "name": "C2",
          "ticks": 35400,
          "time": 134.090775,
          "velocity": 0.7559055118110236
        },
        {
          "duration": 0.12121199999998566,
          "durationTicks": 32,
          "midi": 54,
          "name": "F#3",
          "ticks": 35400,
          "time": 134.090775,
          "velocity": 0.8188976377952756
        },
        {
          "duration": 0.07954537500000924,
          "durationTicks": 21,
          "midi": 47,
          "name": "B2",
          "ticks": 35400,
          "time": 134.090775,
          "velocity": 0.6929133858267716
        },
        {
          "duration": 0.07196962500000836,
          "durationTicks": 19,
          "midi": 43,
          "name": "G2",
          "ticks": 35460,
          "time": 134.3180475,
          "velocity": 0.6929133858267716
        },
        {
          "duration": 0.07196962500000836,
          "durationTicks": 19,
          "midi": 43,
          "name": "G2",
          "ticks": 35490,
          "time": 134.43168375000002,
          "velocity": 0.6929133858267716
        },
        {
          "duration": 0.06818175000000792,
          "durationTicks": 18,
          "midi": 36,
          "name": "C2",
          "ticks": 35520,
          "time": 134.54532,
          "velocity": 0.7559055118110236
        },
        {
          "duration": 0.10984837500001277,
          "durationTicks": 29,
          "midi": 54,
          "name": "F#3",
          "ticks": 35520,
          "time": 134.54532,
          "velocity": 0.8188976377952756
        },
        {
          "duration": 0.04924237500000572,
          "durationTicks": 13,
          "midi": 50,
          "name": "D3",
          "ticks": 35520,
          "time": 134.54532,
          "velocity": 0.6929133858267716
        },
        {
          "duration": 0.06060600000000704,
          "durationTicks": 16,
          "midi": 50,
          "name": "D3",
          "ticks": 35580,
          "time": 134.7725925,
          "velocity": 0.6929133858267716
        },
        {
          "duration": 0.0568181250000066,
          "durationTicks": 15,
          "midi": 36,
          "name": "C2",
          "ticks": 35640,
          "time": 134.999865,
          "velocity": 0.7559055118110236
        },
        {
          "duration": 0.12878775000001497,
          "durationTicks": 34,
          "midi": 54,
          "name": "F#3",
          "ticks": 35640,
          "time": 134.999865,
          "velocity": 0.8188976377952756
        },
        {
          "duration": 0.0568181250000066,
          "durationTicks": 15,
          "midi": 43,
          "name": "G2",
          "ticks": 35640,
          "time": 134.999865,
          "velocity": 0.6929133858267716
        },
        {
          "duration": 0.04924237500000572,
          "durationTicks": 13,
          "midi": 50,
          "name": "D3",
          "ticks": 35700,
          "time": 135.2271375,
          "velocity": 0.6929133858267716
        },
        {
          "duration": 0.06060600000000704,
          "durationTicks": 16,
          "midi": 50,
          "name": "D3",
          "ticks": 35730,
          "time": 135.34077375,
          "velocity": 0.6929133858267716
        },
        {
          "duration": 0.04166662500000484,
          "durationTicks": 11,
          "midi": 36,
          "name": "C2",
          "ticks": 35760,
          "time": 135.45441,
          "velocity": 0.7559055118110236
        },
        {
          "duration": 0.10984837500001277,
          "durationTicks": 29,
          "midi": 54,
          "name": "F#3",
          "ticks": 35760,
          "time": 135.45441,
          "velocity": 0.8188976377952756
        },
        {
          "duration": 0.06060600000000704,
          "durationTicks": 16,
          "midi": 50,
          "name": "D3",
          "ticks": 35790,
          "time": 135.56804625,
          "velocity": 0.6929133858267716
        },
        {
          "duration": 0.06060600000000704,
          "durationTicks": 16,
          "midi": 50,
          "name": "D3",
          "ticks": 35850,
          "time": 135.79531875,
          "velocity": 0.6929133858267716
        },
        {
          "duration": 0.04924237500000572,
          "durationTicks": 13,
          "midi": 36,
          "name": "C2",
          "ticks": 35880,
          "time": 135.90895500000002,
          "velocity": 0.7559055118110236
        },
        {
          "duration": 0.12121199999998566,
          "durationTicks": 32,
          "midi": 54,
          "name": "F#3",
          "ticks": 35880,
          "time": 135.90895500000002,
          "velocity": 0.8188976377952756
        },
        {
          "duration": 0.07954537499998082,
          "durationTicks": 21,
          "midi": 47,
          "name": "B2",
          "ticks": 35880,
          "time": 135.90895500000002,
          "velocity": 0.6929133858267716
        },
        {
          "duration": 0.04924237500000572,
          "durationTicks": 13,
          "midi": 43,
          "name": "G2",
          "ticks": 35940,
          "time": 136.13622750000002,
          "velocity": 0.6929133858267716
        },
        {
          "duration": 0.06818175000000792,
          "durationTicks": 18,
          "midi": 43,
          "name": "G2",
          "ticks": 35970,
          "time": 136.24986375,
          "velocity": 0.6929133858267716
        },
        {
          "duration": 0.06060599999997862,
          "durationTicks": 16,
          "midi": 36,
          "name": "C2",
          "ticks": 36000,
          "time": 136.36350000000002,
          "velocity": 0.7559055118110236
        },
        {
          "duration": 0.09848474999998302,
          "durationTicks": 26,
          "midi": 54,
          "name": "F#3",
          "ticks": 36000,
          "time": 136.36350000000002,
          "velocity": 0.8188976377952756
        },
        {
          "duration": 0.03787874999997598,
          "durationTicks": 10,
          "midi": 50,
          "name": "D3",
          "ticks": 36000,
          "time": 136.36350000000002,
          "velocity": 0.6929133858267716
        },
        {
          "duration": 0.06060599999997862,
          "durationTicks": 16,
          "midi": 50,
          "name": "D3",
          "ticks": 36060,
          "time": 136.5907725,
          "velocity": 0.6929133858267716
        },
        {
          "duration": 0.06060600000000704,
          "durationTicks": 16,
          "midi": 36,
          "name": "C2",
          "ticks": 36120,
          "time": 136.818045,
          "velocity": 0.7559055118110236
        },
        {
          "duration": 0.12121199999998566,
          "durationTicks": 32,
          "midi": 54,
          "name": "F#3",
          "ticks": 36120,
          "time": 136.818045,
          "velocity": 0.8188976377952756
        },
        {
          "duration": 0.06060600000000704,
          "durationTicks": 16,
          "midi": 43,
          "name": "G2",
          "ticks": 36120,
          "time": 136.818045,
          "velocity": 0.6929133858267716
        },
        {
          "duration": 0.04924237500000572,
          "durationTicks": 13,
          "midi": 50,
          "name": "D3",
          "ticks": 36180,
          "time": 137.0453175,
          "velocity": 0.6929133858267716
        },
        {
          "duration": 0.06060599999997862,
          "durationTicks": 16,
          "midi": 50,
          "name": "D3",
          "ticks": 36210,
          "time": 137.15895375000002,
          "velocity": 0.6929133858267716
        },
        {
          "duration": 0.04924237500000572,
          "durationTicks": 13,
          "midi": 36,
          "name": "C2",
          "ticks": 36240,
          "time": 137.27259,
          "velocity": 0.7559055118110236
        },
        {
          "duration": 0.12878775000001497,
          "durationTicks": 34,
          "midi": 54,
          "name": "F#3",
          "ticks": 36240,
          "time": 137.27259,
          "velocity": 0.8188976377952756
        },
        {
          "duration": 0.04924237500000572,
          "durationTicks": 13,
          "midi": 50,
          "name": "D3",
          "ticks": 36270,
          "time": 137.38622625000002,
          "velocity": 0.6929133858267716
        },
        {
          "duration": 0.04924237500000572,
          "durationTicks": 13,
          "midi": 50,
          "name": "D3",
          "ticks": 36330,
          "time": 137.61349875000002,
          "velocity": 0.6929133858267716
        },
        {
          "duration": 0.05303025000000616,
          "durationTicks": 14,
          "midi": 36,
          "name": "C2",
          "ticks": 36360,
          "time": 137.727135,
          "velocity": 0.7559055118110236
        },
        {
          "duration": 0.12121199999998566,
          "durationTicks": 32,
          "midi": 54,
          "name": "F#3",
          "ticks": 36360,
          "time": 137.727135,
          "velocity": 0.8188976377952756
        },
        {
          "duration": 0.07196962500000836,
          "durationTicks": 19,
          "midi": 47,
          "name": "B2",
          "ticks": 36360,
          "time": 137.727135,
          "velocity": 0.6929133858267716
        },
        {
          "duration": 0.06060600000000704,
          "durationTicks": 16,
          "midi": 43,
          "name": "G2",
          "ticks": 36420,
          "time": 137.9544075,
          "velocity": 0.6929133858267716
        },
        {
          "duration": 0.07196962500000836,
          "durationTicks": 19,
          "midi": 43,
          "name": "G2",
          "ticks": 36450,
          "time": 138.06804375000002,
          "velocity": 0.6929133858267716
        },
        {
          "duration": 0.07954537500000924,
          "durationTicks": 21,
          "midi": 36,
          "name": "C2",
          "ticks": 36480,
          "time": 138.18168,
          "velocity": 0.7559055118110236
        },
        {
          "duration": 0.12121200000001409,
          "durationTicks": 32,
          "midi": 54,
          "name": "F#3",
          "ticks": 36480,
          "time": 138.18168,
          "velocity": 0.8188976377952756
        },
        {
          "duration": 0.04166662500000484,
          "durationTicks": 11,
          "midi": 50,
          "name": "D3",
          "ticks": 36480,
          "time": 138.18168,
          "velocity": 0.6929133858267716
        },
        {
          "duration": 0.06060600000000704,
          "durationTicks": 16,
          "midi": 50,
          "name": "D3",
          "ticks": 36540,
          "time": 138.4089525,
          "velocity": 0.6929133858267716
        },
        {
          "duration": 0.06060600000000704,
          "durationTicks": 16,
          "midi": 36,
          "name": "C2",
          "ticks": 36600,
          "time": 138.636225,
          "velocity": 0.7559055118110236
        },
        {
          "duration": 0.10984837500001277,
          "durationTicks": 29,
          "midi": 54,
          "name": "F#3",
          "ticks": 36600,
          "time": 138.636225,
          "velocity": 0.8188976377952756
        },
        {
          "duration": 0.04166662500000484,
          "durationTicks": 11,
          "midi": 43,
          "name": "G2",
          "ticks": 36600,
          "time": 138.636225,
          "velocity": 0.6929133858267716
        },
        {
          "duration": 0.06060599999997862,
          "durationTicks": 16,
          "midi": 50,
          "name": "D3",
          "ticks": 36660,
          "time": 138.86349750000002,
          "velocity": 0.6929133858267716
        },
        {
          "duration": 0.04166662499997642,
          "durationTicks": 11,
          "midi": 50,
          "name": "D3",
          "ticks": 36690,
          "time": 138.97713375,
          "velocity": 0.6929133858267716
        },
        {
          "duration": 0.04166662499997642,
          "durationTicks": 11,
          "midi": 36,
          "name": "C2",
          "ticks": 36720,
          "time": 139.09077000000002,
          "velocity": 0.7559055118110236
        },
        {
          "duration": 0.12121199999998566,
          "durationTicks": 32,
          "midi": 54,
          "name": "F#3",
          "ticks": 36720,
          "time": 139.09077000000002,
          "velocity": 0.8188976377952756
        },
        {
          "duration": 0.04924237500000572,
          "durationTicks": 13,
          "midi": 50,
          "name": "D3",
          "ticks": 36750,
          "time": 139.20440625,
          "velocity": 0.6929133858267716
        },
        {
          "duration": 0.06060600000000704,
          "durationTicks": 16,
          "midi": 50,
          "name": "D3",
          "ticks": 36810,
          "time": 139.43167875,
          "velocity": 0.6929133858267716
        },
        {
          "duration": 0.04924237500000572,
          "durationTicks": 13,
          "midi": 36,
          "name": "C2",
          "ticks": 36840,
          "time": 139.54531500000002,
          "velocity": 0.7559055118110236
        },
        {
          "duration": 0.10984837499998434,
          "durationTicks": 29,
          "midi": 54,
          "name": "F#3",
          "ticks": 36840,
          "time": 139.54531500000002,
          "velocity": 0.8188976377952756
        },
        {
          "duration": 0.0681817499999795,
          "durationTicks": 18,
          "midi": 47,
          "name": "B2",
          "ticks": 36840,
          "time": 139.54531500000002,
          "velocity": 0.6929133858267716
        },
        {
          "duration": 0.0681817499999795,
          "durationTicks": 18,
          "midi": 43,
          "name": "G2",
          "ticks": 36900,
          "time": 139.77258750000001,
          "velocity": 0.6929133858267716
        },
        {
          "duration": 0.06060600000000704,
          "durationTicks": 16,
          "midi": 43,
          "name": "G2",
          "ticks": 36930,
          "time": 139.88622375,
          "velocity": 0.6929133858267716
        },
        {
          "duration": 0.11742412499998522,
          "durationTicks": 31,
          "midi": 54,
          "name": "F#3",
          "ticks": 36960,
          "time": 139.99986,
          "velocity": 0.8188976377952756
        },
        {
          "duration": 0.0568181250000066,
          "durationTicks": 15,
          "midi": 50,
          "name": "D3",
          "ticks": 36960,
          "time": 139.99986,
          "velocity": 0.6929133858267716
        },
        {
          "duration": 0.04166662499997642,
          "durationTicks": 11,
          "midi": 50,
          "name": "D3",
          "ticks": 37020,
          "time": 140.2271325,
          "velocity": 0.6929133858267716
        },
        {
          "duration": 0.10984837500001277,
          "durationTicks": 29,
          "midi": 54,
          "name": "F#3",
          "ticks": 37080,
          "time": 140.454405,
          "velocity": 0.8188976377952756
        },
        {
          "duration": 0.04924237500000572,
          "durationTicks": 13,
          "midi": 43,
          "name": "G2",
          "ticks": 37080,
          "time": 140.454405,
          "velocity": 0.6929133858267716
        },
        {
          "duration": 0.06060600000000704,
          "durationTicks": 16,
          "midi": 50,
          "name": "D3",
          "ticks": 37140,
          "time": 140.6816775,
          "velocity": 0.6929133858267716
        },
        {
          "duration": 0.04924237500000572,
          "durationTicks": 13,
          "midi": 50,
          "name": "D3",
          "ticks": 37170,
          "time": 140.79531375000002,
          "velocity": 0.6929133858267716
        },
        {
          "duration": 0.10984837500001277,
          "durationTicks": 29,
          "midi": 54,
          "name": "F#3",
          "ticks": 37200,
          "time": 140.90895,
          "velocity": 0.8188976377952756
        },
        {
          "duration": 0.06060599999997862,
          "durationTicks": 16,
          "midi": 50,
          "name": "D3",
          "ticks": 37230,
          "time": 141.02258625000002,
          "velocity": 0.6929133858267716
        },
        {
          "duration": 0.0568181250000066,
          "durationTicks": 15,
          "midi": 50,
          "name": "D3",
          "ticks": 37290,
          "time": 141.24985875000002,
          "velocity": 0.6929133858267716
        },
        {
          "duration": 0.12878775000001497,
          "durationTicks": 34,
          "midi": 54,
          "name": "F#3",
          "ticks": 37320,
          "time": 141.363495,
          "velocity": 0.8188976377952756
        },
        {
          "duration": 0.06060600000000704,
          "durationTicks": 16,
          "midi": 47,
          "name": "B2",
          "ticks": 37320,
          "time": 141.363495,
          "velocity": 0.6929133858267716
        },
        {
          "duration": 0.07196962500003679,
          "durationTicks": 19,
          "midi": 43,
          "name": "G2",
          "ticks": 37380,
          "time": 141.5907675,
          "velocity": 0.6929133858267716
        },
        {
          "duration": 0.07196962500000836,
          "durationTicks": 19,
          "midi": 43,
          "name": "G2",
          "ticks": 37410,
          "time": 141.70440375,
          "velocity": 0.6929133858267716
        },
        {
          "duration": 0.12121200000001409,
          "durationTicks": 32,
          "midi": 54,
          "name": "F#3",
          "ticks": 37440,
          "time": 141.81804,
          "velocity": 0.8188976377952756
        },
        {
          "duration": 0.06060600000000704,
          "durationTicks": 16,
          "midi": 50,
          "name": "D3",
          "ticks": 37440,
          "time": 141.81804,
          "velocity": 0.6929133858267716
        },
        {
          "duration": 0.04924237500000572,
          "durationTicks": 13,
          "midi": 50,
          "name": "D3",
          "ticks": 37500,
          "time": 142.04531250000002,
          "velocity": 0.6929133858267716
        },
        {
          "duration": 0.06060599999997862,
          "durationTicks": 16,
          "midi": 43,
          "name": "G2",
          "ticks": 37560,
          "time": 142.27258500000002,
          "velocity": 0.6929133858267716
        },
        {
          "duration": 0.04924237500000572,
          "durationTicks": 13,
          "midi": 50,
          "name": "D3",
          "ticks": 37620,
          "time": 142.49985750000002,
          "velocity": 0.6929133858267716
        },
        {
          "duration": 0.04924237500000572,
          "durationTicks": 13,
          "midi": 50,
          "name": "D3",
          "ticks": 37650,
          "time": 142.61349375,
          "velocity": 0.6929133858267716
        },
        {
          "duration": 0.06060600000000704,
          "durationTicks": 16,
          "midi": 50,
          "name": "D3",
          "ticks": 37710,
          "time": 142.84076625,
          "velocity": 0.6929133858267716
        },
        {
          "duration": 0.06060600000000704,
          "durationTicks": 16,
          "midi": 50,
          "name": "D3",
          "ticks": 37770,
          "time": 143.06803875,
          "velocity": 0.6929133858267716
        },
        {
          "duration": 0.07954537500000924,
          "durationTicks": 21,
          "midi": 47,
          "name": "B2",
          "ticks": 37800,
          "time": 143.181675,
          "velocity": 0.6929133858267716
        },
        {
          "duration": 0.0681817499999795,
          "durationTicks": 18,
          "midi": 43,
          "name": "G2",
          "ticks": 37860,
          "time": 143.4089475,
          "velocity": 0.6929133858267716
        },
        {
          "duration": 0.07954537499998082,
          "durationTicks": 21,
          "midi": 43,
          "name": "G2",
          "ticks": 37890,
          "time": 143.52258375000002,
          "velocity": 0.6929133858267716
        },
        {
          "duration": 0.04166662499997642,
          "durationTicks": 11,
          "midi": 50,
          "name": "D3",
          "ticks": 37920,
          "time": 143.63622,
          "velocity": 0.6929133858267716
        },
        {
          "duration": 0.06060600000000704,
          "durationTicks": 16,
          "midi": 50,
          "name": "D3",
          "ticks": 37973,
          "time": 143.836977375,
          "velocity": 0.6929133858267716
        },
        {
          "duration": 0.06060599999997862,
          "durationTicks": 16,
          "midi": 43,
          "name": "G2",
          "ticks": 38031,
          "time": 144.05667412500003,
          "velocity": 0.6929133858267716
        },
        {
          "duration": 0.06060600000000704,
          "durationTicks": 16,
          "midi": 50,
          "name": "D3",
          "ticks": 38092,
          "time": 144.2877345,
          "velocity": 0.6929133858267716
        },
        {
          "duration": 0.06060600000000704,
          "durationTicks": 16,
          "midi": 50,
          "name": "D3",
          "ticks": 38121,
          "time": 144.397582875,
          "velocity": 0.6929133858267716
        },
        {
          "duration": 0.06060600000000704,
          "durationTicks": 16,
          "midi": 50,
          "name": "D3",
          "ticks": 38182,
          "time": 144.62864325,
          "velocity": 0.6929133858267716
        },
        {
          "duration": 0.0568181250000066,
          "durationTicks": 15,
          "midi": 50,
          "name": "D3",
          "ticks": 38243,
          "time": 144.859703625,
          "velocity": 0.6929133858267716
        },
        {
          "duration": 0.07196962500003679,
          "durationTicks": 19,
          "midi": 47,
          "name": "B2",
          "ticks": 38274,
          "time": 144.97712775,
          "velocity": 0.6929133858267716
        },
        {
          "duration": 0.04924237500000572,
          "durationTicks": 13,
          "midi": 43,
          "name": "G2",
          "ticks": 38335,
          "time": 145.208188125,
          "velocity": 0.6929133858267716
        },
        {
          "duration": 0.07196962500000836,
          "durationTicks": 19,
          "midi": 43,
          "name": "G2",
          "ticks": 38361,
          "time": 145.306672875,
          "velocity": 0.6929133858267716
        }
      ],
      "endOfTrackTicks": 38380
    },
    {
      "channel": 8,
      "controlChanges": {
        "7": [
          {
            "number": 7,
            "ticks": 0,
            "time": 0,
            "value": 0.8188976377952756
          }
        ],
        "10": [
          {
            "number": 10,
            "ticks": 0,
            "time": 0,
            "value": 0.7086614173228346
          }
        ],
        "64": [
          {
            "number": 64,
            "ticks": 240,
            "time": 0.9090900000000001,
            "value": 0
          },
          {
            "number": 64,
            "ticks": 240,
            "time": 0.9090900000000001,
            "value": 0
          },
          {
            "number": 64,
            "ticks": 240,
            "time": 0.9090900000000001,
            "value": 0
          },
          {
            "number": 64,
            "ticks": 240,
            "time": 0.9090900000000001,
            "value": 0
          },
          {
            "number": 64,
            "ticks": 240,
            "time": 0.9090900000000001,
            "value": 0
          },
          {
            "number": 64,
            "ticks": 242,
            "time": 0.9166657500000001,
            "value": 0
          },
          {
            "number": 64,
            "ticks": 242,
            "time": 0.9166657500000001,
            "value": 0
          },
          {
            "number": 64,
            "ticks": 242,
            "time": 0.9166657500000001,
            "value": 0
          },
          {
            "number": 64,
            "ticks": 242,
            "time": 0.9166657500000001,
            "value": 0
          },
          {
            "number": 64,
            "ticks": 242,
            "time": 0.9166657500000001,
            "value": 0
          },
          {
            "number": 64,
            "ticks": 242,
            "time": 0.9166657500000001,
            "value": 0
          },
          {
            "number": 64,
            "ticks": 242,
            "time": 0.9166657500000001,
            "value": 0
          },
          {
            "number": 64,
            "ticks": 245,
            "time": 0.928029375,
            "value": 0
          },
          {
            "number": 64,
            "ticks": 245,
            "time": 0.928029375,
            "value": 0
          },
          {
            "number": 64,
            "ticks": 245,
            "time": 0.928029375,
            "value": 0
          },
          {
            "number": 64,
            "ticks": 245,
            "time": 0.928029375,
            "value": 0
          }
        ]
      },
      "pitchBends": [],
      "instrument": {
        "family": "bass",
        "number": 38,
        "name": "synth bass 1"
      },
      "name": "Synth Bass",
      "notes": [
        {
          "duration": 0.21969674999999889,
          "durationTicks": 58,
          "midi": 47,
          "name": "B2",
          "ticks": 2885,
          "time": 10.928019375000002,
          "velocity": 0.8188976377952756
        },
        {
          "duration": 0.22727250000000154,
          "durationTicks": 60,
          "midi": 42,
          "name": "F#2",
          "ticks": 3004,
          "time": 11.3787765,
          "velocity": 0.8188976377952756
        },
        {
          "duration": 0.21969674999999889,
          "durationTicks": 58,
          "midi": 47,
          "name": "B2",
          "ticks": 3125,
          "time": 11.837109375,
          "velocity": 0.8188976377952756
        },
        {
          "duration": 0.2310603750000002,
          "durationTicks": 61,
          "midi": 42,
          "name": "F#2",
          "ticks": 3244,
          "time": 12.287866500000002,
          "velocity": 0.8188976377952756
        },
        {
          "duration": 0.21969674999999889,
          "durationTicks": 58,
          "midi": 47,
          "name": "B2",
          "ticks": 3365,
          "time": 12.746199375000002,
          "velocity": 0.8188976377952756
        },
        {
          "duration": 0.24242399999999975,
          "durationTicks": 64,
          "midi": 42,
          "name": "F#2",
          "ticks": 3481,
          "time": 13.185592875000001,
          "velocity": 0.8188976377952756
        },
        {
          "duration": 0.23106037500000198,
          "durationTicks": 61,
          "midi": 47,
          "name": "B2",
          "ticks": 3603,
          "time": 13.647713625,
          "velocity": 0.8188976377952756
        },
        {
          "duration": 0.2310603750000002,
          "durationTicks": 61,
          "midi": 42,
          "name": "F#2",
          "ticks": 3724,
          "time": 14.106046500000001,
          "velocity": 0.8188976377952756
        },
        {
          "duration": 0.21969675000000066,
          "durationTicks": 58,
          "midi": 47,
          "name": "B2",
          "ticks": 3843,
          "time": 14.556803625,
          "velocity": 0.8188976377952756
        },
        {
          "duration": 0.21969675000000066,
          "durationTicks": 58,
          "midi": 47,
          "name": "B2",
          "ticks": 3965,
          "time": 15.018924375,
          "velocity": 0.8188976377952756
        },
        {
          "duration": 0.21969675000000066,
          "durationTicks": 58,
          "midi": 45,
          "name": "A2",
          "ticks": 4083,
          "time": 15.465893625,
          "velocity": 0.8188976377952756
        },
        {
          "duration": 0.2310603750000002,
          "durationTicks": 61,
          "midi": 45,
          "name": "A2",
          "ticks": 4202,
          "time": 15.91665075,
          "velocity": 0.8188976377952756
        },
        {
          "duration": 0.3371208750000001,
          "durationTicks": 89,
          "midi": 43,
          "name": "G2",
          "ticks": 4324,
          "time": 16.3787715,
          "velocity": 0.8188976377952756
        },
        {
          "duration": 0.21969675000000066,
          "durationTicks": 58,
          "midi": 43,
          "name": "G2",
          "ticks": 4445,
          "time": 16.837104375,
          "velocity": 0.8188976377952756
        },
        {
          "duration": 0.23106037499999843,
          "durationTicks": 61,
          "midi": 47,
          "name": "B2",
          "ticks": 4564,
          "time": 17.2878615,
          "velocity": 0.8188976377952756
        },
        {
          "duration": 0.22727250000000154,
          "durationTicks": 60,
          "midi": 42,
          "name": "F#2",
          "ticks": 4683,
          "time": 17.738618625,
          "velocity": 0.8188976377952756
        },
        {
          "duration": 0.23106037499999843,
          "durationTicks": 61,
          "midi": 47,
          "name": "B2",
          "ticks": 4804,
          "time": 18.1969515,
          "velocity": 0.8188976377952756
        },
        {
          "duration": 0.23106037500000198,
          "durationTicks": 61,
          "midi": 42,
          "name": "F#2",
          "ticks": 4923,
          "time": 18.647708625,
          "velocity": 0.8188976377952756
        },
        {
          "duration": 0.21969675000000066,
          "durationTicks": 58,
          "midi": 47,
          "name": "B2",
          "ticks": 5044,
          "time": 19.1060415,
          "velocity": 0.8188976377952756
        },
        {
          "duration": 0.23106037500000198,
          "durationTicks": 61,
          "midi": 42,
          "name": "F#2",
          "ticks": 5163,
          "time": 19.556798625,
          "velocity": 0.8188976377952756
        },
        {
          "duration": 0.23106037499999843,
          "durationTicks": 61,
          "midi": 47,
          "name": "B2",
          "ticks": 5282,
          "time": 20.00755575,
          "velocity": 0.8188976377952756
        },
        {
          "duration": 0.23106037499999843,
          "durationTicks": 61,
          "midi": 42,
          "name": "F#2",
          "ticks": 5403,
          "time": 20.465888625,
          "velocity": 0.8188976377952756
        },
        {
          "duration": 0.2196967499999971,
          "durationTicks": 58,
          "midi": 47,
          "name": "B2",
          "ticks": 5525,
          "time": 20.928009375000002,
          "velocity": 0.8188976377952756
        },
        {
          "duration": 0.227272499999998,
          "durationTicks": 60,
          "midi": 42,
          "name": "F#2",
          "ticks": 5644,
          "time": 21.3787665,
          "velocity": 0.8188976377952756
        },
        {
          "duration": 0.21969675000000066,
          "durationTicks": 58,
          "midi": 47,
          "name": "B2",
          "ticks": 5765,
          "time": 21.837099375,
          "velocity": 0.8188976377952756
        },
        {
          "duration": 0.23106037500000198,
          "durationTicks": 61,
          "midi": 47,
          "name": "B2",
          "ticks": 5884,
          "time": 22.2878565,
          "velocity": 0.8188976377952756
        },
        {
          "duration": 0.33712087500000365,
          "durationTicks": 89,
          "midi": 45,
          "name": "A2",
          "ticks": 6003,
          "time": 22.738613625,
          "velocity": 0.8188976377952756
        },
        {
          "duration": 0.3522723749999983,
          "durationTicks": 93,
          "midi": 45,
          "name": "A2",
          "ticks": 6121,
          "time": 23.185582875,
          "velocity": 0.8188976377952756
        },
        {
          "duration": 0.34090875000000054,
          "durationTicks": 90,
          "midi": 43,
          "name": "G2",
          "ticks": 6243,
          "time": 23.647703625000002,
          "velocity": 0.8188976377952756
        },
        {
          "duration": 0.21969675000000066,
          "durationTicks": 58,
          "midi": 45,
          "name": "A2",
          "ticks": 6364,
          "time": 24.106036500000002,
          "velocity": 0.8188976377952756
        },
        {
          "duration": 0.23106037499999843,
          "durationTicks": 61,
          "midi": 50,
          "name": "D3",
          "ticks": 6483,
          "time": 24.556793625,
          "velocity": 0.8188976377952756
        },
        {
          "duration": 0.21969675000000066,
          "durationTicks": 58,
          "midi": 45,
          "name": "A2",
          "ticks": 6605,
          "time": 25.018914375,
          "velocity": 0.8188976377952756
        },
        {
          "duration": 0.23106037500000198,
          "durationTicks": 61,
          "midi": 50,
          "name": "D3",
          "ticks": 6723,
          "time": 25.465883625,
          "velocity": 0.8188976377952756
        },
        {
          "duration": 0.21969675000000066,
          "durationTicks": 58,
          "midi": 45,
          "name": "A2",
          "ticks": 6845,
          "time": 25.928004375,
          "velocity": 0.8188976377952756
        },
        {
          "duration": 0.22727250000000154,
          "durationTicks": 60,
          "midi": 50,
          "name": "D3",
          "ticks": 6964,
          "time": 26.3787615,
          "velocity": 0.8188976377952756
        },
        {
          "duration": 0.23106037499999843,
          "durationTicks": 61,
          "midi": 45,
          "name": "A2",
          "ticks": 7082,
          "time": 26.82573075,
          "velocity": 0.8188976377952756
        },
        {
          "duration": 0.23106037499999843,
          "durationTicks": 61,
          "midi": 50,
          "name": "D3",
          "ticks": 7204,
          "time": 27.287851500000002,
          "velocity": 0.8188976377952756
        },
        {
          "duration": 0.22727250000000154,
          "durationTicks": 60,
          "midi": 45,
          "name": "A2",
          "ticks": 7323,
          "time": 27.738608625,
          "velocity": 0.8188976377952756
        },
        {
          "duration": 0.21969675000000066,
          "durationTicks": 58,
          "midi": 50,
          "name": "D3",
          "ticks": 7444,
          "time": 28.1969415,
          "velocity": 0.8188976377952756
        },
        {
          "duration": 0.23106037500000198,
          "durationTicks": 61,
          "midi": 45,
          "name": "A2",
          "ticks": 7563,
          "time": 28.647698625,
          "velocity": 0.8188976377952756
        },
        {
          "duration": 0.227272499999998,
          "durationTicks": 60,
          "midi": 54,
          "name": "F#3",
          "ticks": 7682,
          "time": 29.098455750000003,
          "velocity": 0.8188976377952756
        },
        {
          "duration": 0.23106037499999843,
          "durationTicks": 61,
          "midi": 54,
          "name": "F#3",
          "ticks": 7803,
          "time": 29.556788625000003,
          "velocity": 0.8188976377952756
        },
        {
          "duration": 0.21969675000000066,
          "durationTicks": 58,
          "midi": 52,
          "name": "E3",
          "ticks": 7925,
          "time": 30.018909375000003,
          "velocity": 0.8188976377952756
        },
        {
          "duration": 0.23106037499999488,
          "durationTicks": 61,
          "midi": 52,
          "name": "E3",
          "ticks": 8043,
          "time": 30.465878625000006,
          "velocity": 0.8188976377952756
        },
        {
          "duration": 0.23106037500000198,
          "durationTicks": 61,
          "midi": 50,
          "name": "D3",
          "ticks": 8162,
          "time": 30.91663575,
          "velocity": 0.8188976377952756
        },
        {
          "duration": 0.22727250000000154,
          "durationTicks": 60,
          "midi": 45,
          "name": "A2",
          "ticks": 8284,
          "time": 31.3787565,
          "velocity": 0.8188976377952756
        },
        {
          "duration": 0.23106037500000198,
          "durationTicks": 61,
          "midi": 50,
          "name": "D3",
          "ticks": 8402,
          "time": 31.82572575,
          "velocity": 0.8188976377952756
        },
        {
          "duration": 0.21969675000000422,
          "durationTicks": 58,
          "midi": 45,
          "name": "A2",
          "ticks": 8524,
          "time": 32.2878465,
          "velocity": 0.8188976377952756
        },
        {
          "duration": 0.2272725000000051,
          "durationTicks": 60,
          "midi": 50,
          "name": "D3",
          "ticks": 8643,
          "time": 32.738603625,
          "velocity": 0.8188976377952756
        },
        {
          "duration": 0.23106037499999843,
          "durationTicks": 61,
          "midi": 45,
          "name": "A2",
          "ticks": 8761,
          "time": 33.185572875000005,
          "velocity": 0.8188976377952756
        },
        {
          "duration": 0.21969675000000422,
          "durationTicks": 58,
          "midi": 50,
          "name": "D3",
          "ticks": 8883,
          "time": 33.647693625,
          "velocity": 0.8188976377952756
        },
        {
          "duration": 0.21969675000000422,
          "durationTicks": 58,
          "midi": 45,
          "name": "A2",
          "ticks": 9004,
          "time": 34.1060265,
          "velocity": 0.8188976377952756
        },
        {
          "duration": 0.23106037499999132,
          "durationTicks": 61,
          "midi": 50,
          "name": "D3",
          "ticks": 9123,
          "time": 34.55678362500001,
          "velocity": 0.8188976377952756
        },
        {
          "duration": 0.2196967499999971,
          "durationTicks": 58,
          "midi": 45,
          "name": "A2",
          "ticks": 9245,
          "time": 35.018904375000005,
          "velocity": 0.8188976377952756
        },
        {
          "duration": 0.340908749999997,
          "durationTicks": 90,
          "midi": 50,
          "name": "D3",
          "ticks": 9363,
          "time": 35.46587362500001,
          "velocity": 0.8188976377952756
        },
        {
          "duration": 0.23106037500000554,
          "durationTicks": 61,
          "midi": 45,
          "name": "A2",
          "ticks": 9482,
          "time": 35.91663075,
          "velocity": 0.8188976377952756
        },
        {
          "duration": 0.23106037499999843,
          "durationTicks": 61,
          "midi": 54,
          "name": "F#3",
          "ticks": 9601,
          "time": 36.367387875000006,
          "velocity": 0.8188976377952756
        },
        {
          "duration": 0.23106037500000554,
          "durationTicks": 61,
          "midi": 54,
          "name": "F#3",
          "ticks": 9722,
          "time": 36.82572075,
          "velocity": 0.8188976377952756
        },
        {
          "duration": 0.3409087500000041,
          "durationTicks": 90,
          "midi": 52,
          "name": "E3",
          "ticks": 9844,
          "time": 37.2878415,
          "velocity": 0.8188976377952756
        },
        {
          "duration": 0.227272499999998,
          "durationTicks": 60,
          "midi": 52,
          "name": "E3",
          "ticks": 9963,
          "time": 37.73859862500001,
          "velocity": 0.8188976377952756
        },
        {
          "duration": 0.3522723749999983,
          "durationTicks": 93,
          "midi": 50,
          "name": "D3",
          "ticks": 10081,
          "time": 38.185567875000004,
          "velocity": 0.8188976377952756
        },
        {
          "duration": 0.34848449999999787,
          "durationTicks": 92,
          "midi": 50,
          "name": "D3",
          "ticks": 10203,
          "time": 38.64768862500001,
          "velocity": 0.8188976377952756
        },
        {
          "duration": 0.2196967499999971,
          "durationTicks": 58,
          "midi": 47,
          "name": "B2",
          "ticks": 10324,
          "time": 39.106021500000004,
          "velocity": 0.8188976377952756
        },
        {
          "duration": 0.23106037499999843,
          "durationTicks": 61,
          "midi": 47,
          "name": "B2",
          "ticks": 10443,
          "time": 39.55677862500001,
          "velocity": 0.8188976377952756
        },
        {
          "duration": 0.21969675000000422,
          "durationTicks": 58,
          "midi": 47,
          "name": "B2",
          "ticks": 10565,
          "time": 40.018899375000004,
          "velocity": 0.8188976377952756
        },
        {
          "duration": 0.23106037499999843,
          "durationTicks": 61,
          "midi": 42,
          "name": "F#2",
          "ticks": 10683,
          "time": 40.465868625000006,
          "velocity": 0.8188976377952756
        },
        {
          "duration": 0.21969675000000422,
          "durationTicks": 58,
          "midi": 47,
          "name": "B2",
          "ticks": 10802,
          "time": 40.91662575,
          "velocity": 0.8188976377952756
        },
        {
          "duration": 0.2196967499999971,
          "durationTicks": 58,
          "midi": 42,
          "name": "F#2",
          "ticks": 10924,
          "time": 41.378746500000005,
          "velocity": 0.8188976377952756
        },
        {
          "duration": 0.23106037500000554,
          "durationTicks": 61,
          "midi": 47,
          "name": "B2",
          "ticks": 11042,
          "time": 41.82571575,
          "velocity": 0.8188976377952756
        },
        {
          "duration": 0.23106037499999843,
          "durationTicks": 61,
          "midi": 42,
          "name": "F#2",
          "ticks": 11161,
          "time": 42.276472875,
          "velocity": 0.8188976377952756
        },
        {
          "duration": 0.2196967499999971,
          "durationTicks": 58,
          "midi": 47,
          "name": "B2",
          "ticks": 11283,
          "time": 42.73859362500001,
          "velocity": 0.8188976377952756
        },
        {
          "duration": 0.2196967499999971,
          "durationTicks": 58,
          "midi": 42,
          "name": "F#2",
          "ticks": 11404,
          "time": 43.196926500000004,
          "velocity": 0.8188976377952756
        },
        {
          "duration": 0.2196967499999971,
          "durationTicks": 58,
          "midi": 47,
          "name": "B2",
          "ticks": 11523,
          "time": 43.647683625000006,
          "velocity": 0.8188976377952756
        },
        {
          "duration": 0.23106037500000554,
          "durationTicks": 61,
          "midi": 47,
          "name": "B2",
          "ticks": 11644,
          "time": 44.1060165,
          "velocity": 0.8188976377952756
        },
        {
          "duration": 0.21969675000000422,
          "durationTicks": 58,
          "midi": 45,
          "name": "A2",
          "ticks": 11763,
          "time": 44.556773625000005,
          "velocity": 0.8188976377952756
        },
        {
          "duration": 0.23106037500000554,
          "durationTicks": 61,
          "midi": 45,
          "name": "A2",
          "ticks": 11882,
          "time": 45.00753075,
          "velocity": 0.8188976377952756
        },
        {
          "duration": 0.32954512499999566,
          "durationTicks": 87,
          "midi": 43,
          "name": "G2",
          "ticks": 12003,
          "time": 45.465863625000004,
          "velocity": 0.8188976377952756
        },
        {
          "duration": 0.23106037500000554,
          "durationTicks": 61,
          "midi": 43,
          "name": "G2",
          "ticks": 12122,
          "time": 45.91662075,
          "velocity": 0.8188976377952756
        },
        {
          "duration": 0.2196967499999971,
          "durationTicks": 58,
          "midi": 47,
          "name": "B2",
          "ticks": 12244,
          "time": 46.378741500000004,
          "velocity": 0.8188976377952756
        },
        {
          "duration": 0.23106037499999843,
          "durationTicks": 61,
          "midi": 42,
          "name": "F#2",
          "ticks": 12362,
          "time": 46.825710750000006,
          "velocity": 0.8188976377952756
        },
        {
          "duration": 0.23106037499999132,
          "durationTicks": 61,
          "midi": 47,
          "name": "B2",
          "ticks": 12481,
          "time": 47.27646787500001,
          "velocity": 0.8188976377952756
        },
        {
          "duration": 0.227272499999998,
          "durationTicks": 60,
          "midi": 42,
          "name": "F#2",
          "ticks": 12603,
          "time": 47.738588625000006,
          "velocity": 0.8188976377952756
        },
        {
          "duration": 0.21969675000000422,
          "durationTicks": 58,
          "midi": 47,
          "name": "B2",
          "ticks": 12724,
          "time": 48.1969215,
          "velocity": 0.8188976377952756
        },
        {
          "duration": 0.23106037499999843,
          "durationTicks": 61,
          "midi": 42,
          "name": "F#2",
          "ticks": 12843,
          "time": 48.647678625000005,
          "velocity": 0.8188976377952756
        },
        {
          "duration": 0.21969675000000422,
          "durationTicks": 58,
          "midi": 47,
          "name": "B2",
          "ticks": 12964,
          "time": 49.1060115,
          "velocity": 0.8188976377952756
        },
        {
          "duration": 0.23106037499999843,
          "durationTicks": 61,
          "midi": 42,
          "name": "F#2",
          "ticks": 13083,
          "time": 49.556768625000004,
          "velocity": 0.8188976377952756
        },
        {
          "duration": 0.23106037499999843,
          "durationTicks": 61,
          "midi": 47,
          "name": "B2",
          "ticks": 13202,
          "time": 50.007525750000006,
          "velocity": 0.8188976377952756
        },
        {
          "duration": 0.23106037499999843,
          "durationTicks": 61,
          "midi": 42,
          "name": "F#2",
          "ticks": 13323,
          "time": 50.465858625,
          "velocity": 0.8188976377952756
        },
        {
          "duration": 0.2196967499999971,
          "durationTicks": 58,
          "midi": 47,
          "name": "B2",
          "ticks": 13442,
          "time": 50.916615750000005,
          "velocity": 0.8188976377952756
        },
        {
          "duration": 0.23106037499999843,
          "durationTicks": 61,
          "midi": 47,
          "name": "B2",
          "ticks": 13561,
          "time": 51.36737287500001,
          "velocity": 0.8188976377952756
        },
        {
          "duration": 0.340908749999997,
          "durationTicks": 90,
          "midi": 45,
          "name": "A2",
          "ticks": 13682,
          "time": 51.825705750000004,
          "velocity": 0.8188976377952756
        },
        {
          "duration": 0.3409087500000041,
          "durationTicks": 90,
          "midi": 45,
          "name": "A2",
          "ticks": 13804,
          "time": 52.2878265,
          "velocity": 0.8188976377952756
        },
        {
          "duration": 0.33712087499999654,
          "durationTicks": 89,
          "midi": 43,
          "name": "G2",
          "ticks": 13923,
          "time": 52.738583625000004,
          "velocity": 0.8188976377952756
        },
        {
          "duration": 0.23106037500000554,
          "durationTicks": 61,
          "midi": 45,
          "name": "A2",
          "ticks": 14044,
          "time": 53.1969165,
          "velocity": 0.8188976377952756
        },
        {
          "duration": 0.21969675000000422,
          "durationTicks": 58,
          "midi": 50,
          "name": "D3",
          "ticks": 14163,
          "time": 53.647673625,
          "velocity": 0.8188976377952756
        },
        {
          "duration": 0.227272499999998,
          "durationTicks": 60,
          "midi": 45,
          "name": "A2",
          "ticks": 14282,
          "time": 54.098430750000006,
          "velocity": 0.8188976377952756
        },
        {
          "duration": 0.2196967499999971,
          "durationTicks": 58,
          "midi": 50,
          "name": "D3",
          "ticks": 14403,
          "time": 54.55676362500001,
          "velocity": 0.8188976377952756
        },
        {
          "duration": 0.23106037499999843,
          "durationTicks": 61,
          "midi": 45,
          "name": "A2",
          "ticks": 14522,
          "time": 55.007520750000005,
          "velocity": 0.8188976377952756
        },
        {
          "duration": 0.2196967499999971,
          "durationTicks": 58,
          "midi": 50,
          "name": "D3",
          "ticks": 14643,
          "time": 55.46585362500001,
          "velocity": 0.8188976377952756
        },
        {
          "duration": 0.23106037500000554,
          "durationTicks": 61,
          "midi": 45,
          "name": "A2",
          "ticks": 14762,
          "time": 55.916610750000004,
          "velocity": 0.8188976377952756
        },
        {
          "duration": 0.23106037499999843,
          "durationTicks": 61,
          "midi": 50,
          "name": "D3",
          "ticks": 14881,
          "time": 56.36736787500001,
          "velocity": 0.8188976377952756
        },
        {
          "duration": 0.23106037500000554,
          "durationTicks": 61,
          "midi": 45,
          "name": "A2",
          "ticks": 15002,
          "time": 56.82570075,
          "velocity": 0.8188976377952756
        },
        {
          "duration": 0.21969675000000422,
          "durationTicks": 58,
          "midi": 50,
          "name": "D3",
          "ticks": 15124,
          "time": 57.2878215,
          "velocity": 0.8188976377952756
        },
        {
          "duration": 0.227272499999998,
          "durationTicks": 60,
          "midi": 45,
          "name": "A2",
          "ticks": 15243,
          "time": 57.73857862500001,
          "velocity": 0.8188976377952756
        },
        {
          "duration": 0.21969675000000422,
          "durationTicks": 58,
          "midi": 54,
          "name": "F#3",
          "ticks": 15364,
          "time": 58.196911500000006,
          "velocity": 0.8188976377952756
        },
        {
          "duration": 0.23106037499999132,
          "durationTicks": 61,
          "midi": 54,
          "name": "F#3",
          "ticks": 15483,
          "time": 58.64766862500001,
          "velocity": 0.8188976377952756
        },
        {
          "duration": 0.21969674999999,
          "durationTicks": 58,
          "midi": 52,
          "name": "E3",
          "ticks": 15602,
          "time": 59.09842575000001,
          "velocity": 0.8188976377952756
        },
        {
          "duration": 0.23106037499999843,
          "durationTicks": 61,
          "midi": 52,
          "name": "E3",
          "ticks": 15723,
          "time": 59.55675862500001,
          "velocity": 0.8188976377952756
        },
        {
          "duration": 0.2196967499999971,
          "durationTicks": 58,
          "midi": 50,
          "name": "D3",
          "ticks": 15842,
          "time": 60.00751575000001,
          "velocity": 0.8188976377952756
        },
        {
          "duration": 0.2272725000000051,
          "durationTicks": 60,
          "midi": 45,
          "name": "A2",
          "ticks": 15961,
          "time": 60.458272875,
          "velocity": 0.8188976377952756
        },
        {
          "duration": 0.2196967499999971,
          "durationTicks": 58,
          "midi": 50,
          "name": "D3",
          "ticks": 16082,
          "time": 60.91660575000001,
          "velocity": 0.8188976377952756
        },
        {
          "duration": 0.21969675000000422,
          "durationTicks": 58,
          "midi": 45,
          "name": "A2",
          "ticks": 16204,
          "time": 61.378726500000006,
          "velocity": 0.8188976377952756
        },
        {
          "duration": 0.23106037499999843,
          "durationTicks": 61,
          "midi": 50,
          "name": "D3",
          "ticks": 16322,
          "time": 61.82569575000001,
          "velocity": 0.8188976377952756
        },
        {
          "duration": 0.23106037500000554,
          "durationTicks": 61,
          "midi": 45,
          "name": "A2",
          "ticks": 16441,
          "time": 62.276452875000004,
          "velocity": 0.8188976377952756
        },
        {
          "duration": 0.21969674999999,
          "durationTicks": 58,
          "midi": 50,
          "name": "D3",
          "ticks": 16563,
          "time": 62.73857362500001,
          "velocity": 0.8188976377952756
        },
        {
          "duration": 0.23106037500000554,
          "durationTicks": 61,
          "midi": 45,
          "name": "A2",
          "ticks": 16681,
          "time": 63.185542875,
          "velocity": 0.8188976377952756
        },
        {
          "duration": 0.2196967499999971,
          "durationTicks": 58,
          "midi": 50,
          "name": "D3",
          "ticks": 16803,
          "time": 63.64766362500001,
          "velocity": 0.8188976377952756
        },
        {
          "duration": 0.21969675000001132,
          "durationTicks": 58,
          "midi": 45,
          "name": "A2",
          "ticks": 16924,
          "time": 64.1059965,
          "velocity": 0.8188976377952756
        },
        {
          "duration": 0.3522723750000125,
          "durationTicks": 93,
          "midi": 50,
          "name": "D3",
          "ticks": 17040,
          "time": 64.54539,
          "velocity": 0.8188976377952756
        },
        {
          "duration": 0.23106037499999843,
          "durationTicks": 61,
          "midi": 45,
          "name": "A2",
          "ticks": 17162,
          "time": 65.00751075000001,
          "velocity": 0.8188976377952756
        },
        {
          "duration": 0.227272499999998,
          "durationTicks": 60,
          "midi": 54,
          "name": "F#3",
          "ticks": 17281,
          "time": 65.458267875,
          "velocity": 0.8188976377952756
        },
        {
          "duration": 0.23106037499999843,
          "durationTicks": 61,
          "midi": 54,
          "name": "F#3",
          "ticks": 17402,
          "time": 65.91660075000001,
          "velocity": 0.8188976377952756
        },
        {
          "duration": 0.3295451250000099,
          "durationTicks": 87,
          "midi": 52,
          "name": "E3",
          "ticks": 17524,
          "time": 66.3787215,
          "velocity": 0.8188976377952756
        },
        {
          "duration": 0.23106037499999843,
          "durationTicks": 61,
          "midi": 52,
          "name": "E3",
          "ticks": 17642,
          "time": 66.82569075,
          "velocity": 0.8188976377952756
        },
        {
          "duration": 0.340908749999997,
          "durationTicks": 90,
          "midi": 50,
          "name": "D3",
          "ticks": 17761,
          "time": 67.276447875,
          "velocity": 0.8188976377952756
        },
        {
          "duration": 0.3484845000000121,
          "durationTicks": 92,
          "midi": 50,
          "name": "D3",
          "ticks": 17880,
          "time": 67.727205,
          "velocity": 0.8188976377952756
        },
        {
          "duration": 0.22348462499999755,
          "durationTicks": 59,
          "midi": 47,
          "name": "B2",
          "ticks": 18001,
          "time": 68.18553787500001,
          "velocity": 0.8188976377952756
        },
        {
          "duration": 0.2196967499999971,
          "durationTicks": 58,
          "midi": 47,
          "name": "B2",
          "ticks": 18123,
          "time": 68.647658625,
          "velocity": 0.8188976377952756
        },
        {
          "duration": 0.2386361249999993,
          "durationTicks": 63,
          "midi": 47,
          "name": "B2",
          "ticks": 18239,
          "time": 69.08705212500001,
          "velocity": 0.8188976377952756
        },
        {
          "duration": 0.2196967499999829,
          "durationTicks": 58,
          "midi": 42,
          "name": "F#2",
          "ticks": 18363,
          "time": 69.55674862500001,
          "velocity": 0.8188976377952756
        },
        {
          "duration": 0.2196967499999971,
          "durationTicks": 58,
          "midi": 47,
          "name": "B2",
          "ticks": 18482,
          "time": 70.00750575,
          "velocity": 0.8188976377952756
        },
        {
          "duration": 0.2196967499999971,
          "durationTicks": 58,
          "midi": 42,
          "name": "F#2",
          "ticks": 18603,
          "time": 70.465838625,
          "velocity": 0.8188976377952756
        },
        {
          "duration": 0.23106037499999843,
          "durationTicks": 61,
          "midi": 47,
          "name": "B2",
          "ticks": 18722,
          "time": 70.91659575000001,
          "velocity": 0.8188976377952756
        },
        {
          "duration": 0.23106037500001264,
          "durationTicks": 61,
          "midi": 42,
          "name": "F#2",
          "ticks": 18841,
          "time": 71.367352875,
          "velocity": 0.8188976377952756
        },
        {
          "duration": 0.2386361249999993,
          "durationTicks": 63,
          "midi": 47,
          "name": "B2",
          "ticks": 18960,
          "time": 71.81811,
          "velocity": 0.8188976377952756
        },
        {
          "duration": 0.23106037500001264,
          "durationTicks": 61,
          "midi": 42,
          "name": "F#2",
          "ticks": 19081,
          "time": 72.276442875,
          "velocity": 0.8188976377952756
        },
        {
          "duration": 0.2196967499999829,
          "durationTicks": 58,
          "midi": 47,
          "name": "B2",
          "ticks": 19203,
          "time": 72.73856362500001,
          "velocity": 0.8188976377952756
        },
        {
          "duration": 0.23106037499999843,
          "durationTicks": 61,
          "midi": 47,
          "name": "B2",
          "ticks": 19321,
          "time": 73.185532875,
          "velocity": 0.8188976377952756
        },
        {
          "duration": 0.2083331249999958,
          "durationTicks": 55,
          "midi": 45,
          "name": "A2",
          "ticks": 19443,
          "time": 73.647653625,
          "velocity": 0.8188976377952756
        },
        {
          "duration": 0.2386361249999993,
          "durationTicks": 63,
          "midi": 45,
          "name": "A2",
          "ticks": 19559,
          "time": 74.08704712500001,
          "velocity": 0.8188976377952756
        },
        {
          "duration": 0.340908749999997,
          "durationTicks": 90,
          "midi": 43,
          "name": "G2",
          "ticks": 19680,
          "time": 74.54538000000001,
          "velocity": 0.8188976377952756
        },
        {
          "duration": 0.23106037499999843,
          "durationTicks": 61,
          "midi": 43,
          "name": "G2",
          "ticks": 19802,
          "time": 75.00750075,
          "velocity": 0.8188976377952756
        },
        {
          "duration": 0.227272499999998,
          "durationTicks": 60,
          "midi": 47,
          "name": "B2",
          "ticks": 19921,
          "time": 75.458257875,
          "velocity": 0.8188976377952756
        },
        {
          "duration": 0.23106037499999843,
          "durationTicks": 61,
          "midi": 42,
          "name": "F#2",
          "ticks": 20042,
          "time": 75.91659075000001,
          "velocity": 0.8188976377952756
        },
        {
          "duration": 0.23106037499999843,
          "durationTicks": 61,
          "midi": 47,
          "name": "B2",
          "ticks": 20161,
          "time": 76.36734787500001,
          "velocity": 0.8188976377952756
        },
        {
          "duration": 0.2196967499999829,
          "durationTicks": 58,
          "midi": 42,
          "name": "F#2",
          "ticks": 20282,
          "time": 76.82568075000002,
          "velocity": 0.8188976377952756
        },
        {
          "duration": 0.23106037500001264,
          "durationTicks": 61,
          "midi": 47,
          "name": "B2",
          "ticks": 20401,
          "time": 77.276437875,
          "velocity": 0.8188976377952756
        },
        {
          "duration": 0.2196967499999971,
          "durationTicks": 58,
          "midi": 42,
          "name": "F#2",
          "ticks": 20523,
          "time": 77.73855862500001,
          "velocity": 0.8188976377952756
        },
        {
          "duration": 0.23106037500001264,
          "durationTicks": 61,
          "midi": 47,
          "name": "B2",
          "ticks": 20641,
          "time": 78.185527875,
          "velocity": 0.8188976377952756
        },
        {
          "duration": 0.2196967499999971,
          "durationTicks": 58,
          "midi": 42,
          "name": "F#2",
          "ticks": 20763,
          "time": 78.647648625,
          "velocity": 0.8188976377952756
        },
        {
          "duration": 0.2386361249999993,
          "durationTicks": 63,
          "midi": 47,
          "name": "B2",
          "ticks": 20879,
          "time": 79.08704212500001,
          "velocity": 0.8188976377952756
        },
        {
          "duration": 0.23106037499999843,
          "durationTicks": 61,
          "midi": 42,
          "name": "F#2",
          "ticks": 21003,
          "time": 79.55673862500001,
          "velocity": 0.8188976377952756
        },
        {
          "duration": 0.2196967499999829,
          "durationTicks": 58,
          "midi": 47,
          "name": "B2",
          "ticks": 21122,
          "time": 80.00749575000002,
          "velocity": 0.8188976377952756
        },
        {
          "duration": 0.227272499999998,
          "durationTicks": 60,
          "midi": 47,
          "name": "B2",
          "ticks": 21241,
          "time": 80.458252875,
          "velocity": 0.8188976377952756
        },
        {
          "duration": 0.33712087499999654,
          "durationTicks": 89,
          "midi": 45,
          "name": "A2",
          "ticks": 21360,
          "time": 80.90901000000001,
          "velocity": 0.8188976377952756
        },
        {
          "duration": 0.340908749999997,
          "durationTicks": 90,
          "midi": 45,
          "name": "A2",
          "ticks": 21481,
          "time": 81.367342875,
          "velocity": 0.8188976377952756
        },
        {
          "duration": 0.3333329999999961,
          "durationTicks": 88,
          "midi": 43,
          "name": "G2",
          "ticks": 21602,
          "time": 81.82567575000002,
          "velocity": 0.8188976377952756
        },
        {
          "duration": 0.23106037500001264,
          "durationTicks": 61,
          "midi": 45,
          "name": "A2",
          "ticks": 21721,
          "time": 82.276432875,
          "velocity": 0.8188976377952756
        },
        {
          "duration": 0.23106037499999843,
          "durationTicks": 61,
          "midi": 50,
          "name": "D3",
          "ticks": 21840,
          "time": 82.72719000000001,
          "velocity": 0.8188976377952756
        },
        {
          "duration": 0.23106037500001264,
          "durationTicks": 61,
          "midi": 45,
          "name": "A2",
          "ticks": 21961,
          "time": 83.185522875,
          "velocity": 0.8188976377952756
        },
        {
          "duration": 0.2196967499999829,
          "durationTicks": 58,
          "midi": 50,
          "name": "D3",
          "ticks": 22083,
          "time": 83.64764362500001,
          "velocity": 0.8188976377952756
        },
        {
          "duration": 0.2386361249999993,
          "durationTicks": 63,
          "midi": 45,
          "name": "A2",
          "ticks": 22199,
          "time": 84.08703712500001,
          "velocity": 0.8188976377952756
        },
        {
          "duration": 0.23106037499999843,
          "durationTicks": 61,
          "midi": 50,
          "name": "D3",
          "ticks": 22320,
          "time": 84.54537,
          "velocity": 0.8188976377952756
        },
        {
          "duration": 0.23106037499999843,
          "durationTicks": 61,
          "midi": 45,
          "name": "A2",
          "ticks": 22442,
          "time": 85.00749075000002,
          "velocity": 0.8188976377952756
        },
        {
          "duration": 0.227272499999998,
          "durationTicks": 60,
          "midi": 50,
          "name": "D3",
          "ticks": 22561,
          "time": 85.458247875,
          "velocity": 0.8188976377952756
        },
        {
          "duration": 0.2196967499999971,
          "durationTicks": 58,
          "midi": 45,
          "name": "A2",
          "ticks": 22682,
          "time": 85.91658075000001,
          "velocity": 0.8188976377952756
        },
        {
          "duration": 0.23106037500001264,
          "durationTicks": 61,
          "midi": 50,
          "name": "D3",
          "ticks": 22801,
          "time": 86.367337875,
          "velocity": 0.8188976377952756
        },
        {
          "duration": 0.2196967499999971,
          "durationTicks": 58,
          "midi": 45,
          "name": "A2",
          "ticks": 22922,
          "time": 86.82567075000001,
          "velocity": 0.8188976377952756
        },
        {
          "duration": 0.21969675000001132,
          "durationTicks": 58,
          "midi": 54,
          "name": "F#3",
          "ticks": 23041,
          "time": 87.276427875,
          "velocity": 0.8188976377952756
        },
        {
          "duration": 0.21212099999999623,
          "durationTicks": 56,
          "midi": 54,
          "name": "F#3",
          "ticks": 23165,
          "time": 87.74612437500001,
          "velocity": 0.8188976377952756
        },
        {
          "duration": 0.23106037500001264,
          "durationTicks": 61,
          "midi": 52,
          "name": "E3",
          "ticks": 23281,
          "time": 88.185517875,
          "velocity": 0.8188976377952756
        },
        {
          "duration": 0.2196967499999829,
          "durationTicks": 58,
          "midi": 52,
          "name": "E3",
          "ticks": 23403,
          "time": 88.64763862500001,
          "velocity": 0.8188976377952756
        },
        {
          "duration": 0.2386361249999993,
          "durationTicks": 63,
          "midi": 50,
          "name": "D3",
          "ticks": 23519,
          "time": 89.08703212500001,
          "velocity": 0.8188976377952756
        },
        {
          "duration": 0.23106037499999843,
          "durationTicks": 61,
          "midi": 45,
          "name": "A2",
          "ticks": 23640,
          "time": 89.545365,
          "velocity": 0.8188976377952756
        },
        {
          "duration": 0.2196967499999971,
          "durationTicks": 58,
          "midi": 50,
          "name": "D3",
          "ticks": 23762,
          "time": 90.00748575000001,
          "velocity": 0.8188976377952756
        },
        {
          "duration": 0.2272725000000122,
          "durationTicks": 60,
          "midi": 45,
          "name": "A2",
          "ticks": 23881,
          "time": 90.458242875,
          "velocity": 0.8188976377952756
        },
        {
          "duration": 0.2196967499999971,
          "durationTicks": 58,
          "midi": 50,
          "name": "D3",
          "ticks": 24002,
          "time": 90.91657575,
          "velocity": 0.8188976377952756
        },
        {
          "duration": 0.23106037500001264,
          "durationTicks": 61,
          "midi": 45,
          "name": "A2",
          "ticks": 24121,
          "time": 91.367332875,
          "velocity": 0.8188976377952756
        },
        {
          "duration": 0.227272499999998,
          "durationTicks": 60,
          "midi": 50,
          "name": "D3",
          "ticks": 24240,
          "time": 91.81809000000001,
          "velocity": 0.8188976377952756
        },
        {
          "duration": 0.2196967499999971,
          "durationTicks": 58,
          "midi": 45,
          "name": "A2",
          "ticks": 24361,
          "time": 92.27642287500001,
          "velocity": 0.8188976377952756
        },
        {
          "duration": 0.2196967499999971,
          "durationTicks": 58,
          "midi": 50,
          "name": "D3",
          "ticks": 24483,
          "time": 92.738543625,
          "velocity": 0.8188976377952756
        },
        {
          "duration": 0.23106037500001264,
          "durationTicks": 61,
          "midi": 45,
          "name": "A2",
          "ticks": 24601,
          "time": 93.185512875,
          "velocity": 0.8188976377952756
        },
        {
          "duration": 0.340908749999997,
          "durationTicks": 90,
          "midi": 50,
          "name": "D3",
          "ticks": 24720,
          "time": 93.63627000000001,
          "velocity": 0.8188976377952756
        },
        {
          "duration": 0.2272725000000122,
          "durationTicks": 60,
          "midi": 45,
          "name": "A2",
          "ticks": 24842,
          "time": 94.09839075000001,
          "velocity": 0.8188976377952756
        },
        {
          "duration": 0.23106037499999843,
          "durationTicks": 61,
          "midi": 54,
          "name": "F#3",
          "ticks": 24960,
          "time": 94.54536,
          "velocity": 0.8188976377952756
        },
        {
          "duration": 0.2196967499999971,
          "durationTicks": 58,
          "midi": 54,
          "name": "F#3",
          "ticks": 25082,
          "time": 95.00748075000001,
          "velocity": 0.8188976377952756
        },
        {
          "duration": 0.33712087499999654,
          "durationTicks": 89,
          "midi": 52,
          "name": "E3",
          "ticks": 25201,
          "time": 95.45823787500001,
          "velocity": 0.8188976377952756
        },
        {
          "duration": 0.2196967499999829,
          "durationTicks": 58,
          "midi": 52,
          "name": "E3",
          "ticks": 25322,
          "time": 95.91657075000002,
          "velocity": 0.8188976377952756
        },
        {
          "duration": 0.340908749999997,
          "durationTicks": 90,
          "midi": 50,
          "name": "D3",
          "ticks": 25441,
          "time": 96.367327875,
          "velocity": 0.8188976377952756
        },
        {
          "duration": 0.340908749999997,
          "durationTicks": 90,
          "midi": 50,
          "name": "D3",
          "ticks": 25562,
          "time": 96.82566075000001,
          "velocity": 0.8188976377952756
        },
        {
          "duration": 0.23106037500001264,
          "durationTicks": 61,
          "midi": 47,
          "name": "B2",
          "ticks": 25681,
          "time": 97.276417875,
          "velocity": 0.8188976377952756
        },
        {
          "duration": 0.23106037499999843,
          "durationTicks": 61,
          "midi": 47,
          "name": "B2",
          "ticks": 25800,
          "time": 97.727175,
          "velocity": 0.8188976377952756
        },
        {
          "duration": 0.23106037500001264,
          "durationTicks": 61,
          "midi": 47,
          "name": "B2",
          "ticks": 25921,
          "time": 98.185507875,
          "velocity": 0.8188976377952756
        },
        {
          "duration": 0.23106037499999843,
          "durationTicks": 61,
          "midi": 42,
          "name": "F#2",
          "ticks": 26040,
          "time": 98.63626500000001,
          "velocity": 0.8188976377952756
        },
        {
          "duration": 0.2196967499999829,
          "durationTicks": 58,
          "midi": 47,
          "name": "B2",
          "ticks": 26162,
          "time": 99.09838575000002,
          "velocity": 0.8188976377952756
        },
        {
          "duration": 0.23106037499999843,
          "durationTicks": 61,
          "midi": 42,
          "name": "F#2",
          "ticks": 26280,
          "time": 99.545355,
          "velocity": 0.8188976377952756
        },
        {
          "duration": 0.2196967499999971,
          "durationTicks": 58,
          "midi": 47,
          "name": "B2",
          "ticks": 26402,
          "time": 100.00747575000001,
          "velocity": 0.8188976377952756
        },
        {
          "duration": 0.227272499999998,
          "durationTicks": 60,
          "midi": 42,
          "name": "F#2",
          "ticks": 26521,
          "time": 100.45823287500001,
          "velocity": 0.8188976377952756
        },
        {
          "duration": 0.227272499999998,
          "durationTicks": 60,
          "midi": 47,
          "name": "B2",
          "ticks": 26640,
          "time": 100.90899,
          "velocity": 0.8188976377952756
        },
        {
          "duration": 0.23106037500001264,
          "durationTicks": 61,
          "midi": 42,
          "name": "F#2",
          "ticks": 26761,
          "time": 101.367322875,
          "velocity": 0.8188976377952756
        },
        {
          "duration": 0.2196967499999971,
          "durationTicks": 58,
          "midi": 47,
          "name": "B2",
          "ticks": 26882,
          "time": 101.82565575000001,
          "velocity": 0.8188976377952756
        },
        {
          "duration": 0.23106037500001264,
          "durationTicks": 61,
          "midi": 47,
          "name": "B2",
          "ticks": 27001,
          "time": 102.276412875,
          "velocity": 0.8188976377952756
        },
        {
          "duration": 0.23106037499999843,
          "durationTicks": 61,
          "midi": 45,
          "name": "A2",
          "ticks": 27120,
          "time": 102.72717,
          "velocity": 0.8188976377952756
        },
        {
          "duration": 0.23106037500001264,
          "durationTicks": 61,
          "midi": 45,
          "name": "A2",
          "ticks": 27241,
          "time": 103.185502875,
          "velocity": 0.8188976377952756
        },
        {
          "duration": 0.340908749999997,
          "durationTicks": 90,
          "midi": 43,
          "name": "G2",
          "ticks": 27360,
          "time": 103.63626000000001,
          "velocity": 0.8188976377952756
        },
        {
          "duration": 0.227272499999998,
          "durationTicks": 60,
          "midi": 43,
          "name": "G2",
          "ticks": 27482,
          "time": 104.09838075000002,
          "velocity": 0.8188976377952756
        },
        {
          "duration": 0.22348462499999755,
          "durationTicks": 59,
          "midi": 47,
          "name": "B2",
          "ticks": 27600,
          "time": 104.54535000000001,
          "velocity": 0.8188976377952756
        },
        {
          "duration": 0.23106037499999843,
          "durationTicks": 61,
          "midi": 42,
          "name": "F#2",
          "ticks": 27719,
          "time": 104.99610712500001,
          "velocity": 0.8188976377952756
        },
        {
          "duration": 0.227272499999998,
          "durationTicks": 60,
          "midi": 47,
          "name": "B2",
          "ticks": 27841,
          "time": 105.458227875,
          "velocity": 0.8188976377952756
        },
        {
          "duration": 0.23106037499999843,
          "durationTicks": 61,
          "midi": 42,
          "name": "F#2",
          "ticks": 27962,
          "time": 105.91656075000002,
          "velocity": 0.8188976377952756
        },
        {
          "duration": 0.23106037500001264,
          "durationTicks": 61,
          "midi": 47,
          "name": "B2",
          "ticks": 28081,
          "time": 106.367317875,
          "velocity": 0.8188976377952756
        },
        {
          "duration": 0.227272499999998,
          "durationTicks": 60,
          "midi": 42,
          "name": "F#2",
          "ticks": 28200,
          "time": 106.81807500000001,
          "velocity": 0.8188976377952756
        },
        {
          "duration": 0.23106037500001264,
          "durationTicks": 61,
          "midi": 47,
          "name": "B2",
          "ticks": 28321,
          "time": 107.276407875,
          "velocity": 0.8188976377952756
        },
        {
          "duration": 0.23106037499998422,
          "durationTicks": 61,
          "midi": 42,
          "name": "F#2",
          "ticks": 28440,
          "time": 107.72716500000001,
          "velocity": 0.8188976377952756
        },
        {
          "duration": 0.22348462499999755,
          "durationTicks": 59,
          "midi": 47,
          "name": "B2",
          "ticks": 28561,
          "time": 108.18549787500001,
          "velocity": 0.8188976377952756
        },
        {
          "duration": 0.23106037499999843,
          "durationTicks": 61,
          "midi": 42,
          "name": "F#2",
          "ticks": 28680,
          "time": 108.636255,
          "velocity": 0.8188976377952756
        },
        {
          "duration": 0.2196967499999971,
          "durationTicks": 58,
          "midi": 47,
          "name": "B2",
          "ticks": 28802,
          "time": 109.09837575000002,
          "velocity": 0.8188976377952756
        },
        {
          "duration": 0.23106037499999843,
          "durationTicks": 61,
          "midi": 47,
          "name": "B2",
          "ticks": 28920,
          "time": 109.54534500000001,
          "velocity": 0.8188976377952756
        },
        {
          "duration": 0.3409087500000112,
          "durationTicks": 90,
          "midi": 45,
          "name": "A2",
          "ticks": 29042,
          "time": 110.00746575000001,
          "velocity": 0.8188976377952756
        },
        {
          "duration": 0.33712087500001076,
          "durationTicks": 89,
          "midi": 45,
          "name": "A2",
          "ticks": 29161,
          "time": 110.458222875,
          "velocity": 0.8188976377952756
        },
        {
          "duration": 0.340908749999997,
          "durationTicks": 90,
          "midi": 43,
          "name": "G2",
          "ticks": 29282,
          "time": 110.91655575000001,
          "velocity": 0.8188976377952756
        },
        {
          "duration": 0.23106037499999843,
          "durationTicks": 61,
          "midi": 45,
          "name": "A2",
          "ticks": 29401,
          "time": 111.36731287500001,
          "velocity": 0.8188976377952756
        },
        {
          "duration": 0.227272499999998,
          "durationTicks": 60,
          "midi": 50,
          "name": "D3",
          "ticks": 29520,
          "time": 111.81807,
          "velocity": 0.8188976377952756
        },
        {
          "duration": 0.21969675000001132,
          "durationTicks": 58,
          "midi": 45,
          "name": "A2",
          "ticks": 29641,
          "time": 112.276402875,
          "velocity": 0.8188976377952756
        },
        {
          "duration": 0.23106037499999843,
          "durationTicks": 61,
          "midi": 50,
          "name": "D3",
          "ticks": 29760,
          "time": 112.72716000000001,
          "velocity": 0.8188976377952756
        },
        {
          "duration": 0.22348462499999755,
          "durationTicks": 59,
          "midi": 45,
          "name": "A2",
          "ticks": 29881,
          "time": 113.18549287500001,
          "velocity": 0.8188976377952756
        },
        {
          "duration": 0.2196967499999971,
          "durationTicks": 58,
          "midi": 50,
          "name": "D3",
          "ticks": 30000,
          "time": 113.63625,
          "velocity": 0.8188976377952756
        },
        {
          "duration": 0.23106037499999843,
          "durationTicks": 61,
          "midi": 45,
          "name": "A2",
          "ticks": 30119,
          "time": 114.08700712500001,
          "velocity": 0.8188976377952756
        },
        {
          "duration": 0.23106037499999843,
          "durationTicks": 61,
          "midi": 50,
          "name": "D3",
          "ticks": 30240,
          "time": 114.54534000000001,
          "velocity": 0.8188976377952756
        },
        {
          "duration": 0.2196967499999829,
          "durationTicks": 58,
          "midi": 45,
          "name": "A2",
          "ticks": 30362,
          "time": 115.00746075000002,
          "velocity": 0.8188976377952756
        },
        {
          "duration": 0.21969675000001132,
          "durationTicks": 58,
          "midi": 50,
          "name": "D3",
          "ticks": 30481,
          "time": 115.458217875,
          "velocity": 0.8188976377952756
        },
        {
          "duration": 0.227272499999998,
          "durationTicks": 60,
          "midi": 45,
          "name": "A2",
          "ticks": 30600,
          "time": 115.90897500000001,
          "velocity": 0.8188976377952756
        },
        {
          "duration": 0.23106037499999843,
          "durationTicks": 61,
          "midi": 54,
          "name": "F#3",
          "ticks": 30721,
          "time": 116.36730787500001,
          "velocity": 0.8188976377952756
        },
        {
          "duration": 0.227272499999998,
          "durationTicks": 60,
          "midi": 54,
          "name": "F#3",
          "ticks": 30840,
          "time": 116.818065,
          "velocity": 0.8188976377952756
        },
        {
          "duration": 0.21969675000001132,
          "durationTicks": 58,
          "midi": 52,
          "name": "E3",
          "ticks": 30961,
          "time": 117.276397875,
          "velocity": 0.8188976377952756
        },
        {
          "duration": 0.23106037499999843,
          "durationTicks": 61,
          "midi": 52,
          "name": "E3",
          "ticks": 31080,
          "time": 117.72715500000001,
          "velocity": 0.8188976377952756
        },
        {
          "duration": 0.22348462499999755,
          "durationTicks": 59,
          "midi": 50,
          "name": "D3",
          "ticks": 31201,
          "time": 118.185487875,
          "velocity": 0.8188976377952756
        },
        {
          "duration": 0.23106037499999843,
          "durationTicks": 61,
          "midi": 45,
          "name": "A2",
          "ticks": 31320,
          "time": 118.636245,
          "velocity": 0.8188976377952756
        },
        {
          "duration": 0.2083331250000242,
          "durationTicks": 55,
          "midi": 50,
          "name": "D3",
          "ticks": 31442,
          "time": 119.09836575,
          "velocity": 0.8188976377952756
        },
        {
          "duration": 0.22348462499999755,
          "durationTicks": 59,
          "midi": 45,
          "name": "A2",
          "ticks": 31560,
          "time": 119.54533500000001,
          "velocity": 0.8188976377952756
        },
        {
          "duration": 0.2196967499999971,
          "durationTicks": 58,
          "midi": 50,
          "name": "D3",
          "ticks": 31682,
          "time": 120.00745575,
          "velocity": 0.8188976377952756
        },
        {
          "duration": 0.227272499999998,
          "durationTicks": 60,
          "midi": 45,
          "name": "A2",
          "ticks": 31801,
          "time": 120.458212875,
          "velocity": 0.8188976377952756
        },
        {
          "duration": 0.227272499999998,
          "durationTicks": 60,
          "midi": 50,
          "name": "D3",
          "ticks": 31920,
          "time": 120.90897000000001,
          "velocity": 0.8188976377952756
        },
        {
          "duration": 0.21969675000001132,
          "durationTicks": 58,
          "midi": 45,
          "name": "A2",
          "ticks": 32041,
          "time": 121.36730287500001,
          "velocity": 0.8188976377952756
        },
        {
          "duration": 0.2272725000000122,
          "durationTicks": 60,
          "midi": 50,
          "name": "D3",
          "ticks": 32160,
          "time": 121.81806,
          "velocity": 0.8188976377952756
        },
        {
          "duration": 0.21969675000001132,
          "durationTicks": 58,
          "midi": 45,
          "name": "A2",
          "ticks": 32281,
          "time": 122.276392875,
          "velocity": 0.8188976377952756
        },
        {
          "duration": 0.340908749999997,
          "durationTicks": 90,
          "midi": 50,
          "name": "D3",
          "ticks": 32400,
          "time": 122.72715000000001,
          "velocity": 0.8188976377952756
        },
        {
          "duration": 0.23106037499998422,
          "durationTicks": 61,
          "midi": 45,
          "name": "A2",
          "ticks": 32519,
          "time": 123.17790712500002,
          "velocity": 0.8188976377952756
        },
        {
          "duration": 0.23106037499998422,
          "durationTicks": 61,
          "midi": 54,
          "name": "F#3",
          "ticks": 32640,
          "time": 123.63624000000002,
          "velocity": 0.8188976377952756
        },
        {
          "duration": 0.227272499999998,
          "durationTicks": 60,
          "midi": 54,
          "name": "F#3",
          "ticks": 32762,
          "time": 124.09836075,
          "velocity": 0.8188976377952756
        },
        {
          "duration": 0.340908749999997,
          "durationTicks": 90,
          "midi": 52,
          "name": "E3",
          "ticks": 32880,
          "time": 124.54533,
          "velocity": 0.8188976377952756
        },
        {
          "duration": 0.24242399999998554,
          "durationTicks": 64,
          "midi": 52,
          "name": "E3",
          "ticks": 32999,
          "time": 124.99608712500002,
          "velocity": 0.8188976377952756
        },
        {
          "duration": 0.33712087500001076,
          "durationTicks": 89,
          "midi": 50,
          "name": "D3",
          "ticks": 33121,
          "time": 125.458207875,
          "velocity": 0.8188976377952756
        },
        {
          "duration": 0.34848449999999787,
          "durationTicks": 92,
          "midi": 50,
          "name": "D3",
          "ticks": 33240,
          "time": 125.90896500000001,
          "velocity": 0.8188976377952756
        },
        {
          "duration": 0.21969675000001132,
          "durationTicks": 58,
          "midi": 47,
          "name": "B2",
          "ticks": 33361,
          "time": 126.367297875,
          "velocity": 0.8188976377952756
        },
        {
          "duration": 0.227272499999998,
          "durationTicks": 60,
          "midi": 47,
          "name": "B2",
          "ticks": 33480,
          "time": 126.81805500000002,
          "velocity": 0.8188976377952756
        },
        {
          "duration": 0.0037878749999862293,
          "durationTicks": 1,
          "midi": 47,
          "name": "B2",
          "ticks": 33601,
          "time": 127.27638787500001,
          "velocity": 0.8188976377952756
        },
        {
          "duration": 0.10984837499999855,
          "durationTicks": 29,
          "midi": 42,
          "name": "F#2",
          "ticks": 33720,
          "time": 127.72714500000001,
          "velocity": 0.8188976377952756
        },
        {
          "duration": 0.10984837500001277,
          "durationTicks": 29,
          "midi": 47,
          "name": "B2",
          "ticks": 33841,
          "time": 128.185477875,
          "velocity": 0.8188976377952756
        },
        {
          "duration": 0.10984837500001277,
          "durationTicks": 29,
          "midi": 42,
          "name": "F#2",
          "ticks": 33960,
          "time": 128.636235,
          "velocity": 0.8188976377952756
        },
        {
          "duration": 0.09848475000001145,
          "durationTicks": 26,
          "midi": 47,
          "name": "B2",
          "ticks": 34082,
          "time": 129.09835575,
          "velocity": 0.8188976377952756
        },
        {
          "duration": 0.11363624999998478,
          "durationTicks": 30,
          "midi": 42,
          "name": "F#2",
          "ticks": 34200,
          "time": 129.54532500000002,
          "velocity": 0.8188976377952756
        },
        {
          "duration": 0.12121199999998566,
          "durationTicks": 32,
          "midi": 47,
          "name": "B2",
          "ticks": 34319,
          "time": 129.99608212500002,
          "velocity": 0.8188976377952756
        },
        {
          "duration": 0.10984837499998434,
          "durationTicks": 29,
          "midi": 42,
          "name": "F#2",
          "ticks": 34441,
          "time": 130.458202875,
          "velocity": 0.8188976377952756
        },
        {
          "duration": 0.11742412499998522,
          "durationTicks": 31,
          "midi": 47,
          "name": "B2",
          "ticks": 34560,
          "time": 130.90896,
          "velocity": 0.8188976377952756
        },
        {
          "duration": 0.10984837500001277,
          "durationTicks": 29,
          "midi": 47,
          "name": "B2",
          "ticks": 34681,
          "time": 131.367292875,
          "velocity": 0.8188976377952756
        },
        {
          "duration": 0.10984837500001277,
          "durationTicks": 29,
          "midi": 45,
          "name": "A2",
          "ticks": 34800,
          "time": 131.81805,
          "velocity": 0.8188976377952756
        },
        {
          "duration": 0.10984837500001277,
          "durationTicks": 29,
          "midi": 45,
          "name": "A2",
          "ticks": 34921,
          "time": 132.276382875,
          "velocity": 0.8188976377952756
        },
        {
          "duration": 0.10984837499998434,
          "durationTicks": 29,
          "midi": 43,
          "name": "G2",
          "ticks": 35040,
          "time": 132.72714000000002,
          "velocity": 0.8188976377952756
        },
        {
          "duration": 0.10984837499998434,
          "durationTicks": 29,
          "midi": 43,
          "name": "G2",
          "ticks": 35161,
          "time": 133.18547287500002,
          "velocity": 0.8188976377952756
        },
        {
          "duration": 0.10984837500001277,
          "durationTicks": 29,
          "midi": 47,
          "name": "B2",
          "ticks": 35280,
          "time": 133.63623,
          "velocity": 0.8188976377952756
        },
        {
          "duration": 0.12121199999998566,
          "durationTicks": 32,
          "midi": 42,
          "name": "F#2",
          "ticks": 35399,
          "time": 134.086987125,
          "velocity": 0.8188976377952756
        },
        {
          "duration": 0.1136362500000132,
          "durationTicks": 30,
          "midi": 47,
          "name": "B2",
          "ticks": 35520,
          "time": 134.54532,
          "velocity": 0.8188976377952756
        },
        {
          "duration": 0.12121200000001409,
          "durationTicks": 32,
          "midi": 42,
          "name": "F#2",
          "ticks": 35639,
          "time": 134.996077125,
          "velocity": 0.8188976377952756
        },
        {
          "duration": 0.10984837500001277,
          "durationTicks": 29,
          "midi": 47,
          "name": "B2",
          "ticks": 35761,
          "time": 135.458197875,
          "velocity": 0.8188976377952756
        },
        {
          "duration": 0.10984837499998434,
          "durationTicks": 29,
          "midi": 42,
          "name": "F#2",
          "ticks": 35880,
          "time": 135.90895500000002,
          "velocity": 0.8188976377952756
        },
        {
          "duration": 0.10984837499998434,
          "durationTicks": 29,
          "midi": 47,
          "name": "B2",
          "ticks": 36001,
          "time": 136.36728787500002,
          "velocity": 0.8188976377952756
        },
        {
          "duration": 0.10984837500001277,
          "durationTicks": 29,
          "midi": 42,
          "name": "F#2",
          "ticks": 36120,
          "time": 136.818045,
          "velocity": 0.8188976377952756
        },
        {
          "duration": 0.10984837500001277,
          "durationTicks": 29,
          "midi": 47,
          "name": "B2",
          "ticks": 36241,
          "time": 137.276377875,
          "velocity": 0.8188976377952756
        },
        {
          "duration": 0.10984837500001277,
          "durationTicks": 29,
          "midi": 42,
          "name": "F#2",
          "ticks": 36360,
          "time": 137.727135,
          "velocity": 0.8188976377952756
        },
        {
          "duration": 0.10984837500001277,
          "durationTicks": 29,
          "midi": 47,
          "name": "B2",
          "ticks": 36481,
          "time": 138.185467875,
          "velocity": 0.8188976377952756
        },
        {
          "duration": 0.10984837500001277,
          "durationTicks": 29,
          "midi": 47,
          "name": "B2",
          "ticks": 36600,
          "time": 138.636225,
          "velocity": 0.8188976377952756
        },
        {
          "duration": 0.12121199999998566,
          "durationTicks": 32,
          "midi": 45,
          "name": "A2",
          "ticks": 36719,
          "time": 139.08698212500002,
          "velocity": 0.8188976377952756
        },
        {
          "duration": 0.11363624999998478,
          "durationTicks": 30,
          "midi": 45,
          "name": "A2",
          "ticks": 36840,
          "time": 139.54531500000002,
          "velocity": 0.8188976377952756
        },
        {
          "duration": 0.12121199999998566,
          "durationTicks": 32,
          "midi": 43,
          "name": "G2",
          "ticks": 36959,
          "time": 139.996072125,
          "velocity": 0.8188976377952756
        },
        {
          "duration": 0.12121200000001409,
          "durationTicks": 32,
          "midi": 43,
          "name": "G2",
          "ticks": 37078,
          "time": 140.44682925,
          "velocity": 0.8188976377952756
        },
        {
          "duration": 0.10984837500001277,
          "durationTicks": 29,
          "midi": 47,
          "name": "B2",
          "ticks": 37200,
          "time": 140.90895,
          "velocity": 0.8188976377952756
        },
        {
          "duration": 0.10984837500001277,
          "durationTicks": 29,
          "midi": 42,
          "name": "F#2",
          "ticks": 37321,
          "time": 141.367282875,
          "velocity": 0.8188976377952756
        },
        {
          "duration": 0.11742412500001365,
          "durationTicks": 31,
          "midi": 47,
          "name": "B2",
          "ticks": 37440,
          "time": 141.81804,
          "velocity": 0.8188976377952756
        },
        {
          "duration": 0.11742412499998522,
          "durationTicks": 31,
          "midi": 42,
          "name": "F#2",
          "ticks": 37559,
          "time": 142.26879712500002,
          "velocity": 0.8188976377952756
        },
        {
          "duration": 0.10984837499998434,
          "durationTicks": 29,
          "midi": 47,
          "name": "B2",
          "ticks": 37680,
          "time": 142.72713000000002,
          "velocity": 0.8188976377952756
        },
        {
          "duration": 0.11742412499998522,
          "durationTicks": 31,
          "midi": 42,
          "name": "F#2",
          "ticks": 37799,
          "time": 143.177887125,
          "velocity": 0.8188976377952756
        },
        {
          "duration": 0.12121199999998566,
          "durationTicks": 32,
          "midi": 47,
          "name": "B2",
          "ticks": 37920,
          "time": 143.63622,
          "velocity": 0.8188976377952756
        },
        {
          "duration": 0.12121200000001409,
          "durationTicks": 32,
          "midi": 42,
          "name": "F#2",
          "ticks": 38039,
          "time": 144.086977125,
          "velocity": 0.8188976377952756
        },
        {
          "duration": 0.1136362500000132,
          "durationTicks": 30,
          "midi": 47,
          "name": "B2",
          "ticks": 38160,
          "time": 144.54531,
          "velocity": 0.8188976377952756
        },
        {
          "duration": 0.12121199999998566,
          "durationTicks": 32,
          "midi": 42,
          "name": "F#2",
          "ticks": 38279,
          "time": 144.99606712500002,
          "velocity": 0.8188976377952756
        },
        {
          "duration": 0.10984837500001277,
          "durationTicks": 29,
          "midi": 47,
          "name": "B2",
          "ticks": 38401,
          "time": 145.458187875,
          "velocity": 0.8188976377952756
        },
        {
          "duration": 0.11742412499998522,
          "durationTicks": 31,
          "midi": 35,
          "name": "B1",
          "ticks": 38520,
          "time": 145.90894500000002,
          "velocity": 0.8188976377952756
        },
        {
          "duration": 0.10984837499998434,
          "durationTicks": 29,
          "midi": 47,
          "name": "B2",
          "ticks": 38641,
          "time": 146.367277875,
          "velocity": 0.8188976377952756
        },
        {
          "duration": 0.10984837500001277,
          "durationTicks": 29,
          "midi": 35,
          "name": "B1",
          "ticks": 38760,
          "time": 146.818035,
          "velocity": 0.8188976377952756
        },
        {
          "duration": 0.11742412500001365,
          "durationTicks": 31,
          "midi": 47,
          "name": "B2",
          "ticks": 38879,
          "time": 147.268792125,
          "velocity": 0.8188976377952756
        },
        {
          "duration": 0.12121200000001409,
          "durationTicks": 32,
          "midi": 35,
          "name": "B1",
          "ticks": 39000,
          "time": 147.727125,
          "velocity": 0.8188976377952756
        },
        {
          "duration": 0.11742412499998522,
          "durationTicks": 31,
          "midi": 47,
          "name": "B2",
          "ticks": 39119,
          "time": 148.17788212500002,
          "velocity": 0.8188976377952756
        },
        {
          "duration": 0.10984837499998434,
          "durationTicks": 29,
          "midi": 35,
          "name": "B1",
          "ticks": 39240,
          "time": 148.63621500000002,
          "velocity": 0.8188976377952756
        },
        {
          "duration": 0.12121199999998566,
          "durationTicks": 32,
          "midi": 35,
          "name": "B1",
          "ticks": 39359,
          "time": 149.08697212500002,
          "velocity": 0.8188976377952756
        },
        {
          "duration": 0.13257562499998699,
          "durationTicks": 35,
          "midi": 35,
          "name": "B1",
          "ticks": 39612,
          "time": 150.04530450000001,
          "velocity": 0.8188976377952756
        },
        {
          "duration": 0.1401513750000163,
          "durationTicks": 37,
          "midi": 35,
          "name": "B1",
          "ticks": 39887,
          "time": 151.086970125,
          "velocity": 0.8188976377952756
        },
        {
          "duration": 0.1704543750000198,
          "durationTicks": 45,
          "midi": 35,
          "name": "B1",
          "ticks": 40196,
          "time": 152.2574235,
          "velocity": 0.8188976377952756
        },
        {
          "duration": 0.3522723750000125,
          "durationTicks": 93,
          "midi": 35,
          "name": "B1",
          "ticks": 40539,
          "time": 153.556664625,
          "velocity": 0.8188976377952756
        }
      ],
      "endOfTrackTicks": 40632
    },
    {
      "channel": 1,
      "controlChanges": {
        "7": [
          {
            "number": 7,
            "ticks": 0,
            "time": 0,
            "value": 0.6220472440944882
          }
        ],
        "10": [
          {
            "number": 10,
            "ticks": 0,
            "time": 0,
            "value": 0.31496062992125984
          }
        ],
        "64": [
          {
            "number": 64,
            "ticks": 184,
            "time": 0.6969690000000001,
            "value": 0
          }
        ],
        "91": [
          {
            "number": 91,
            "ticks": 184,
            "time": 0.6969690000000001,
            "value": 0.47244094488188976
          }
        ]
      },
      "pitchBends": [],
      "instrument": {
        "family": "ensemble",
        "number": 52,
        "name": "choir aahs"
      },
      "name": "Melody 2",
      "notes": [
        {
          "duration": 3.5302995,
          "durationTicks": 932,
          "midi": 59,
          "name": "B3",
          "ticks": 2880,
          "time": 10.909080000000001,
          "velocity": 0.6220472440944882
        },
        {
          "duration": 0.2310603750000002,
          "durationTicks": 61,
          "midi": 61,
          "name": "C#4",
          "ticks": 3780,
          "time": 14.318167500000001,
          "velocity": 0.6220472440944882
        },
        {
          "duration": 0.9090899999999991,
          "durationTicks": 240,
          "midi": 62,
          "name": "D4",
          "ticks": 3841,
          "time": 14.549227875000001,
          "velocity": 0.6220472440944882
        },
        {
          "duration": 0.9090900000000008,
          "durationTicks": 240,
          "midi": 61,
          "name": "C#4",
          "ticks": 4081,
          "time": 15.458317875,
          "velocity": 0.6220472440944882
        },
        {
          "duration": 5.2234796249999995,
          "durationTicks": 1379,
          "midi": 59,
          "name": "B3",
          "ticks": 4321,
          "time": 16.367407875,
          "velocity": 0.6220472440944882
        },
        {
          "duration": 0.22727250000000154,
          "durationTicks": 60,
          "midi": 61,
          "name": "C#4",
          "ticks": 5700,
          "time": 21.5908875,
          "velocity": 0.6220472440944882
        },
        {
          "duration": 0.9090899999999991,
          "durationTicks": 240,
          "midi": 62,
          "name": "D4",
          "ticks": 5760,
          "time": 21.818160000000002,
          "velocity": 0.6220472440944882
        },
        {
          "duration": 0.9128778749999995,
          "durationTicks": 241,
          "midi": 61,
          "name": "C#4",
          "ticks": 6000,
          "time": 22.72725,
          "velocity": 0.6220472440944882
        },
        {
          "duration": 1.8181800000000017,
          "durationTicks": 480,
          "midi": 59,
          "name": "B3",
          "ticks": 6241,
          "time": 23.640127875,
          "velocity": 0.6220472440944882
        },
        {
          "duration": 1.5795438749999988,
          "durationTicks": 417,
          "midi": 69,
          "name": "A4",
          "ticks": 6721,
          "time": 25.458307875000003,
          "velocity": 0.6220472440944882
        },
        {
          "duration": 0.23106037499999843,
          "durationTicks": 61,
          "midi": 67,
          "name": "G4",
          "ticks": 7141,
          "time": 27.049215375000003,
          "velocity": 0.6220472440944882
        },
        {
          "duration": 0.4469692500000022,
          "durationTicks": 118,
          "midi": 69,
          "name": "A4",
          "ticks": 7202,
          "time": 27.28027575,
          "velocity": 0.6220472440944882
        },
        {
          "duration": 0.9128778749999995,
          "durationTicks": 241,
          "midi": 66,
          "name": "F#4",
          "ticks": 7320,
          "time": 27.727245000000003,
          "velocity": 0.6220472440944882
        },
        {
          "duration": 0.21969675000000066,
          "durationTicks": 58,
          "midi": 69,
          "name": "A4",
          "ticks": 7561,
          "time": 28.640122875000003,
          "velocity": 0.6220472440944882
        },
        {
          "duration": 0.23106037499999843,
          "durationTicks": 61,
          "midi": 71,
          "name": "B4",
          "ticks": 7619,
          "time": 28.859819625000004,
          "velocity": 0.6220472440944882
        },
        {
          "duration": 0.6780296249999971,
          "durationTicks": 179,
          "midi": 73,
          "name": "C#5",
          "ticks": 7680,
          "time": 29.090880000000002,
          "velocity": 0.6220472440944882
        },
        {
          "duration": 0.23106037500000198,
          "durationTicks": 61,
          "midi": 69,
          "name": "A4",
          "ticks": 7859,
          "time": 29.768909625,
          "velocity": 0.6220472440944882
        },
        {
          "duration": 0.689393250000002,
          "durationTicks": 182,
          "midi": 71,
          "name": "B4",
          "ticks": 7920,
          "time": 29.99997,
          "velocity": 0.6220472440944882
        },
        {
          "duration": 0.2083331249999958,
          "durationTicks": 55,
          "midi": 68,
          "name": "G#4",
          "ticks": 8102,
          "time": 30.689363250000003,
          "velocity": 0.6220472440944882
        },
        {
          "duration": 0.9204536250000039,
          "durationTicks": 243,
          "midi": 69,
          "name": "A4",
          "ticks": 8157,
          "time": 30.897696375,
          "velocity": 0.6220472440944882
        },
        {
          "duration": 0.9090899999999991,
          "durationTicks": 240,
          "midi": 66,
          "name": "F#4",
          "ticks": 8400,
          "time": 31.818150000000003,
          "velocity": 0.6220472440944882
        },
        {
          "duration": 1.5909075000000001,
          "durationTicks": 420,
          "midi": 69,
          "name": "A4",
          "ticks": 8640,
          "time": 32.72724,
          "velocity": 0.6220472440944882
        },
        {
          "duration": 0.23106037500000554,
          "durationTicks": 61,
          "midi": 67,
          "name": "G4",
          "ticks": 9060,
          "time": 34.3181475,
          "velocity": 0.6220472440944882
        },
        {
          "duration": 0.45075712499999554,
          "durationTicks": 119,
          "midi": 69,
          "name": "A4",
          "ticks": 9121,
          "time": 34.54920787500001,
          "velocity": 0.6220472440944882
        },
        {
          "duration": 0.9204536250000004,
          "durationTicks": 243,
          "midi": 66,
          "name": "F#4",
          "ticks": 9240,
          "time": 34.999965,
          "velocity": 0.6220472440944882
        },
        {
          "duration": 0.32954512499999566,
          "durationTicks": 87,
          "midi": 69,
          "name": "A4",
          "ticks": 9483,
          "time": 35.920418625,
          "velocity": 0.6220472440944882
        },
        {
          "duration": 0.2386361249999993,
          "durationTicks": 63,
          "midi": 71,
          "name": "B4",
          "ticks": 9538,
          "time": 36.128751750000006,
          "velocity": 0.6220472440944882
        },
        {
          "duration": 0.6704538749999998,
          "durationTicks": 177,
          "midi": 73,
          "name": "C#5",
          "ticks": 9601,
          "time": 36.367387875000006,
          "velocity": 0.6220472440944882
        },
        {
          "duration": 0.24242399999999975,
          "durationTicks": 64,
          "midi": 69,
          "name": "A4",
          "ticks": 9778,
          "time": 37.037841750000005,
          "velocity": 0.6220472440944882
        },
        {
          "duration": 0.6704538749999926,
          "durationTicks": 177,
          "midi": 71,
          "name": "B4",
          "ticks": 9842,
          "time": 37.280265750000005,
          "velocity": 0.6220472440944882
        },
        {
          "duration": 0.2272725000000051,
          "durationTicks": 60,
          "midi": 68,
          "name": "G#4",
          "ticks": 10019,
          "time": 37.950719625,
          "velocity": 0.6220472440944882
        },
        {
          "duration": 0.9128778749999995,
          "durationTicks": 241,
          "midi": 69,
          "name": "A4",
          "ticks": 10079,
          "time": 38.177992125,
          "velocity": 0.6220472440944882
        },
        {
          "duration": 0.8863627500000035,
          "durationTicks": 234,
          "midi": 66,
          "name": "F#4",
          "ticks": 10320,
          "time": 39.09087,
          "velocity": 0.6220472440944882
        },
        {
          "duration": 3.518935874999997,
          "durationTicks": 929,
          "midi": 59,
          "name": "B3",
          "ticks": 10560,
          "time": 39.99996,
          "velocity": 0.6220472440944882
        },
        {
          "duration": 0.21969675000000422,
          "durationTicks": 58,
          "midi": 61,
          "name": "C#4",
          "ticks": 11460,
          "time": 43.4090475,
          "velocity": 0.6220472440944882
        },
        {
          "duration": 0.9090899999999991,
          "durationTicks": 240,
          "midi": 62,
          "name": "D4",
          "ticks": 11518,
          "time": 43.628744250000004,
          "velocity": 0.6220472440944882
        },
        {
          "duration": 0.9204536250000004,
          "durationTicks": 243,
          "midi": 61,
          "name": "C#4",
          "ticks": 11758,
          "time": 44.53783425,
          "velocity": 0.6220472440944882
        },
        {
          "duration": 5.2196917499999955,
          "durationTicks": 1378,
          "midi": 59,
          "name": "B3",
          "ticks": 12001,
          "time": 45.458287875,
          "velocity": 0.6220472440944882
        },
        {
          "duration": 0.21969675000000422,
          "durationTicks": 58,
          "midi": 61,
          "name": "C#4",
          "ticks": 13379,
          "time": 50.677979625,
          "velocity": 0.6220472440944882
        },
        {
          "duration": 0.8977263749999977,
          "durationTicks": 237,
          "midi": 62,
          "name": "D4",
          "ticks": 13443,
          "time": 50.920403625000006,
          "velocity": 0.6220472440944882
        },
        {
          "duration": 0.9090899999999991,
          "durationTicks": 240,
          "midi": 61,
          "name": "C#4",
          "ticks": 13680,
          "time": 51.818130000000004,
          "velocity": 0.6220472440944882
        },
        {
          "duration": 1.8219678750000057,
          "durationTicks": 481,
          "midi": 59,
          "name": "B3",
          "ticks": 13920,
          "time": 52.72722,
          "velocity": 0.6220472440944882
        },
        {
          "duration": 1.5795438749999988,
          "durationTicks": 417,
          "midi": 69,
          "name": "A4",
          "ticks": 14401,
          "time": 54.54918787500001,
          "velocity": 0.6220472440944882
        },
        {
          "duration": 0.2196967499999971,
          "durationTicks": 58,
          "midi": 67,
          "name": "G4",
          "ticks": 14818,
          "time": 56.12873175000001,
          "velocity": 0.6220472440944882
        },
        {
          "duration": 0.46969649999999774,
          "durationTicks": 124,
          "midi": 69,
          "name": "A4",
          "ticks": 14876,
          "time": 56.348428500000004,
          "velocity": 0.6220472440944882
        },
        {
          "duration": 0.9090899999999991,
          "durationTicks": 240,
          "midi": 66,
          "name": "F#4",
          "ticks": 15000,
          "time": 56.818125,
          "velocity": 0.6220472440944882
        },
        {
          "duration": 0.23106037500000554,
          "durationTicks": 61,
          "midi": 69,
          "name": "A4",
          "ticks": 15240,
          "time": 57.727215,
          "velocity": 0.6220472440944882
        },
        {
          "duration": 0.2196967499999971,
          "durationTicks": 58,
          "midi": 71,
          "name": "B4",
          "ticks": 15301,
          "time": 57.95827537500001,
          "velocity": 0.6220472440944882
        },
        {
          "duration": 0.6818175000000011,
          "durationTicks": 180,
          "midi": 73,
          "name": "C#5",
          "ticks": 15359,
          "time": 58.177972125000004,
          "velocity": 0.6220472440944882
        },
        {
          "duration": 0.23106037499999843,
          "durationTicks": 61,
          "midi": 69,
          "name": "A4",
          "ticks": 15539,
          "time": 58.859789625000005,
          "velocity": 0.6220472440944882
        },
        {
          "duration": 0.6780296250000077,
          "durationTicks": 179,
          "midi": 71,
          "name": "B4",
          "ticks": 15600,
          "time": 59.09085,
          "velocity": 0.6220472440944882
        },
        {
          "duration": 0.21969674999999,
          "durationTicks": 58,
          "midi": 68,
          "name": "G#4",
          "ticks": 15779,
          "time": 59.76887962500001,
          "velocity": 0.6220472440944882
        },
        {
          "duration": 0.8901506249999898,
          "durationTicks": 235,
          "midi": 69,
          "name": "A4",
          "ticks": 15842,
          "time": 60.00751575000001,
          "velocity": 0.6220472440944882
        },
        {
          "duration": 0.9204536250000075,
          "durationTicks": 243,
          "midi": 66,
          "name": "F#4",
          "ticks": 16077,
          "time": 60.897666375,
          "velocity": 0.6220472440944882
        },
        {
          "duration": 1.5795438749999917,
          "durationTicks": 417,
          "midi": 69,
          "name": "A4",
          "ticks": 16320,
          "time": 61.81812000000001,
          "velocity": 0.6220472440944882
        },
        {
          "duration": 0.21969675000001132,
          "durationTicks": 58,
          "midi": 67,
          "name": "G4",
          "ticks": 16737,
          "time": 63.397663875,
          "velocity": 0.6220472440944882
        },
        {
          "duration": 0.48106012500000617,
          "durationTicks": 127,
          "midi": 69,
          "name": "A4",
          "ticks": 16795,
          "time": 63.61736062500001,
          "velocity": 0.6220472440944882
        },
        {
          "duration": 0.8901506249999898,
          "durationTicks": 235,
          "midi": 66,
          "name": "F#4",
          "ticks": 16922,
          "time": 64.09842075000002,
          "velocity": 0.6220472440944882
        },
        {
          "duration": 0.3333329999999961,
          "durationTicks": 88,
          "midi": 69,
          "name": "A4",
          "ticks": 17162,
          "time": 65.00751075000001,
          "velocity": 0.6220472440944882
        },
        {
          "duration": 0.21212099999999623,
          "durationTicks": 56,
          "midi": 71,
          "name": "B4",
          "ticks": 17220,
          "time": 65.2272075,
          "velocity": 0.6220472440944882
        },
        {
          "duration": 0.6893932499999949,
          "durationTicks": 182,
          "midi": 73,
          "name": "C#5",
          "ticks": 17276,
          "time": 65.4393285,
          "velocity": 0.6220472440944882
        },
        {
          "duration": 0.23106037500001264,
          "durationTicks": 61,
          "midi": 69,
          "name": "A4",
          "ticks": 17458,
          "time": 66.12872175,
          "velocity": 0.6220472440944882
        },
        {
          "duration": 0.6893932499999949,
          "durationTicks": 182,
          "midi": 71,
          "name": "B4",
          "ticks": 17519,
          "time": 66.35978212500001,
          "velocity": 0.6220472440944882
        },
        {
          "duration": 0.2196967499999971,
          "durationTicks": 58,
          "midi": 68,
          "name": "G#4",
          "ticks": 17701,
          "time": 67.049175375,
          "velocity": 0.6220472440944882
        },
        {
          "duration": 0.9090900000000062,
          "durationTicks": 240,
          "midi": 69,
          "name": "A4",
          "ticks": 17759,
          "time": 67.268872125,
          "velocity": 0.6220472440944882
        },
        {
          "duration": 0.8901506249999898,
          "durationTicks": 235,
          "midi": 66,
          "name": "F#4",
          "ticks": 17999,
          "time": 68.17796212500001,
          "velocity": 0.6220472440944882
        },
        {
          "duration": 3.5302995000000124,
          "durationTicks": 932,
          "midi": 59,
          "name": "B3",
          "ticks": 18237,
          "time": 69.079476375,
          "velocity": 0.6220472440944882
        },
        {
          "duration": 0.21969675000001132,
          "durationTicks": 58,
          "midi": 61,
          "name": "C#4",
          "ticks": 19137,
          "time": 72.488563875,
          "velocity": 0.6220472440944882
        },
        {
          "duration": 0.9318172499999946,
          "durationTicks": 246,
          "midi": 62,
          "name": "D4",
          "ticks": 19195,
          "time": 72.70826062500001,
          "velocity": 0.6220472440944882
        },
        {
          "duration": 0.9128778749999924,
          "durationTicks": 241,
          "midi": 61,
          "name": "C#4",
          "ticks": 19435,
          "time": 73.61735062500001,
          "velocity": 0.6220472440944882
        },
        {
          "duration": 5.238631124999998,
          "durationTicks": 1383,
          "midi": 59,
          "name": "B3",
          "ticks": 19676,
          "time": 74.5302285,
          "velocity": 0.6220472440944882
        },
        {
          "duration": 0.23106037499999843,
          "durationTicks": 61,
          "midi": 61,
          "name": "C#4",
          "ticks": 21059,
          "time": 79.768859625,
          "velocity": 0.6220472440944882
        },
        {
          "duration": 0.9090900000000062,
          "durationTicks": 240,
          "midi": 62,
          "name": "D4",
          "ticks": 21120,
          "time": 79.99992,
          "velocity": 0.6220472440944882
        },
        {
          "duration": 0.890150625000004,
          "durationTicks": 235,
          "midi": 61,
          "name": "C#4",
          "ticks": 21360,
          "time": 80.90901000000001,
          "velocity": 0.6220472440944882
        },
        {
          "duration": 1.8181799999999981,
          "durationTicks": 480,
          "midi": 59,
          "name": "B3",
          "ticks": 21595,
          "time": 81.79916062500001,
          "velocity": 0.6220472440944882
        },
        {
          "duration": 1.5909075000000001,
          "durationTicks": 420,
          "midi": 69,
          "name": "A4",
          "ticks": 22075,
          "time": 83.61734062500001,
          "velocity": 0.6220472440944882
        },
        {
          "duration": 0.24242399999999975,
          "durationTicks": 64,
          "midi": 67,
          "name": "G4",
          "ticks": 22495,
          "time": 85.20824812500001,
          "velocity": 0.6220472440944882
        },
        {
          "duration": 0.4583328749999964,
          "durationTicks": 121,
          "midi": 69,
          "name": "A4",
          "ticks": 22559,
          "time": 85.45067212500001,
          "velocity": 0.6220472440944882
        },
        {
          "duration": 0.890150625000004,
          "durationTicks": 235,
          "midi": 66,
          "name": "F#4",
          "ticks": 22680,
          "time": 85.90900500000001,
          "velocity": 0.6220472440944882
        },
        {
          "duration": 0.2386361249999851,
          "durationTicks": 63,
          "midi": 69,
          "name": "A4",
          "ticks": 22915,
          "time": 86.79915562500001,
          "velocity": 0.6220472440944882
        },
        {
          "duration": 0.23106037500001264,
          "durationTicks": 61,
          "midi": 71,
          "name": "B4",
          "ticks": 22978,
          "time": 87.03779175,
          "velocity": 0.6220472440944882
        },
        {
          "duration": 0.681817499999994,
          "durationTicks": 180,
          "midi": 73,
          "name": "C#5",
          "ticks": 23039,
          "time": 87.26885212500001,
          "velocity": 0.6220472440944882
        },
        {
          "duration": 0.2272725000000122,
          "durationTicks": 60,
          "midi": 69,
          "name": "A4",
          "ticks": 23219,
          "time": 87.950669625,
          "velocity": 0.6220472440944882
        },
        {
          "duration": 0.681817499999994,
          "durationTicks": 180,
          "midi": 71,
          "name": "B4",
          "ticks": 23279,
          "time": 88.17794212500002,
          "velocity": 0.6220472440944882
        },
        {
          "duration": 0.2196967499999971,
          "durationTicks": 58,
          "midi": 68,
          "name": "G#4",
          "ticks": 23459,
          "time": 88.85975962500001,
          "velocity": 0.6220472440944882
        },
        {
          "duration": 0.9204536249999933,
          "durationTicks": 243,
          "midi": 69,
          "name": "A4",
          "ticks": 23517,
          "time": 89.079456375,
          "velocity": 0.6220472440944882
        },
        {
          "duration": 0.890150625000004,
          "durationTicks": 235,
          "midi": 66,
          "name": "F#4",
          "ticks": 23760,
          "time": 89.99991,
          "velocity": 0.6220472440944882
        },
        {
          "duration": 1.598483250000001,
          "durationTicks": 422,
          "midi": 69,
          "name": "A4",
          "ticks": 23995,
          "time": 90.890060625,
          "velocity": 0.6220472440944882
        },
        {
          "duration": 0.21969675000001132,
          "durationTicks": 58,
          "midi": 67,
          "name": "G4",
          "ticks": 24417,
          "time": 92.488543875,
          "velocity": 0.6220472440944882
        },
        {
          "duration": 0.45075712499998133,
          "durationTicks": 119,
          "midi": 69,
          "name": "A4",
          "ticks": 24475,
          "time": 92.70824062500002,
          "velocity": 0.6220472440944882
        },
        {
          "duration": 0.9204536250000075,
          "durationTicks": 243,
          "midi": 66,
          "name": "F#4",
          "ticks": 24594,
          "time": 93.15899775,
          "velocity": 0.6220472440944882
        },
        {
          "duration": 0.3484845000000121,
          "durationTicks": 92,
          "midi": 69,
          "name": "A4",
          "ticks": 24837,
          "time": 94.079451375,
          "velocity": 0.6220472440944882
        },
        {
          "duration": 0.2386361249999851,
          "durationTicks": 63,
          "midi": 71,
          "name": "B4",
          "ticks": 24895,
          "time": 94.29914812500002,
          "velocity": 0.6220472440944882
        },
        {
          "duration": 0.681817499999994,
          "durationTicks": 180,
          "midi": 73,
          "name": "C#5",
          "ticks": 24958,
          "time": 94.53778425,
          "velocity": 0.6220472440944882
        },
        {
          "duration": 0.23106037500001264,
          "durationTicks": 61,
          "midi": 69,
          "name": "A4",
          "ticks": 25138,
          "time": 95.21960175,
          "velocity": 0.6220472440944882
        },
        {
          "duration": 0.6780296249999935,
          "durationTicks": 179,
          "midi": 71,
          "name": "B4",
          "ticks": 25199,
          "time": 95.45066212500001,
          "velocity": 0.6220472440944882
        },
        {
          "duration": 0.23106037500001264,
          "durationTicks": 61,
          "midi": 68,
          "name": "G#4",
          "ticks": 25378,
          "time": 96.12869175,
          "velocity": 0.6220472440944882
        },
        {
          "duration": 0.8977263749999906,
          "durationTicks": 237,
          "midi": 69,
          "name": "A4",
          "ticks": 25439,
          "time": 96.35975212500001,
          "velocity": 0.6220472440944882
        },
        {
          "duration": 0.890150625000004,
          "durationTicks": 235,
          "midi": 66,
          "name": "F#4",
          "ticks": 25676,
          "time": 97.2574785,
          "velocity": 0.6220472440944882
        },
        {
          "duration": 1.5909075000000001,
          "durationTicks": 420,
          "midi": 69,
          "name": "A4",
          "ticks": 29758,
          "time": 112.71958425,
          "velocity": 0.6220472440944882
        },
        {
          "duration": 0.227272499999998,
          "durationTicks": 60,
          "midi": 67,
          "name": "G4",
          "ticks": 30178,
          "time": 114.31049175,
          "velocity": 0.6220472440944882
        },
        {
          "duration": 0.43939350000000843,
          "durationTicks": 116,
          "midi": 69,
          "name": "A4",
          "ticks": 30238,
          "time": 114.53776425,
          "velocity": 0.6220472440944882
        },
        {
          "duration": 0.9204536250000075,
          "durationTicks": 243,
          "midi": 66,
          "name": "F#4",
          "ticks": 30354,
          "time": 114.97715775,
          "velocity": 0.6220472440944882
        },
        {
          "duration": 0.2196967499999971,
          "durationTicks": 58,
          "midi": 69,
          "name": "A4",
          "ticks": 30597,
          "time": 115.89761137500001,
          "velocity": 0.6220472440944882
        },
        {
          "duration": 0.2083331249999958,
          "durationTicks": 55,
          "midi": 71,
          "name": "B4",
          "ticks": 30661,
          "time": 116.14003537500001,
          "velocity": 0.6220472440944882
        },
        {
          "duration": 0.6893932500000091,
          "durationTicks": 182,
          "midi": 73,
          "name": "C#5",
          "ticks": 30716,
          "time": 116.3483685,
          "velocity": 0.6220472440944882
        },
        {
          "duration": 0.2196967499999829,
          "durationTicks": 58,
          "midi": 69,
          "name": "A4",
          "ticks": 30898,
          "time": 117.03776175000002,
          "velocity": 0.6220472440944882
        },
        {
          "duration": 0.6931811250000095,
          "durationTicks": 183,
          "midi": 71,
          "name": "B4",
          "ticks": 30956,
          "time": 117.2574585,
          "velocity": 0.6220472440944882
        },
        {
          "duration": 0.2083331249999958,
          "durationTicks": 55,
          "midi": 68,
          "name": "G#4",
          "ticks": 31139,
          "time": 117.95063962500001,
          "velocity": 0.6220472440944882
        },
        {
          "duration": 0.9204536250000217,
          "durationTicks": 243,
          "midi": 69,
          "name": "A4",
          "ticks": 31194,
          "time": 118.15897275,
          "velocity": 0.6220472440944882
        },
        {
          "duration": 0.909089999999992,
          "durationTicks": 240,
          "midi": 66,
          "name": "F#4",
          "ticks": 31437,
          "time": 119.07942637500003,
          "velocity": 0.6220472440944882
        },
        {
          "duration": 1.5795438749999846,
          "durationTicks": 417,
          "midi": 69,
          "name": "A4",
          "ticks": 31677,
          "time": 119.98851637500002,
          "velocity": 0.6220472440944882
        },
        {
          "duration": 0.24242400000001396,
          "durationTicks": 64,
          "midi": 67,
          "name": "G4",
          "ticks": 32094,
          "time": 121.56806025,
          "velocity": 0.6220472440944882
        },
        {
          "duration": 0.4469692499999809,
          "durationTicks": 118,
          "midi": 69,
          "name": "A4",
          "ticks": 32158,
          "time": 121.81048425000002,
          "velocity": 0.6220472440944882
        },
        {
          "duration": 0.9128778750000208,
          "durationTicks": 241,
          "midi": 66,
          "name": "F#4",
          "ticks": 32276,
          "time": 122.2574535,
          "velocity": 0.6220472440944882
        },
        {
          "duration": 0.227272499999998,
          "durationTicks": 60,
          "midi": 69,
          "name": "A4",
          "ticks": 32517,
          "time": 123.17033137500002,
          "velocity": 0.6220472440944882
        },
        {
          "duration": 0.2196967499999829,
          "durationTicks": 58,
          "midi": 71,
          "name": "B4",
          "ticks": 32577,
          "time": 123.39760387500002,
          "velocity": 0.6220472440944882
        },
        {
          "duration": 0.6931811250000237,
          "durationTicks": 183,
          "midi": 73,
          "name": "C#5",
          "ticks": 32635,
          "time": 123.617300625,
          "velocity": 0.6220472440944882
        },
        {
          "duration": 0.227272499999998,
          "durationTicks": 60,
          "midi": 69,
          "name": "A4",
          "ticks": 32818,
          "time": 124.31048175000002,
          "velocity": 0.6220472440944882
        },
        {
          "duration": 0.6704538749999784,
          "durationTicks": 177,
          "midi": 71,
          "name": "B4",
          "ticks": 32878,
          "time": 124.53775425000002,
          "velocity": 0.6220472440944882
        },
        {
          "duration": 0.22348462499999755,
          "durationTicks": 59,
          "midi": 68,
          "name": "G#4",
          "ticks": 33060,
          "time": 125.22714750000002,
          "velocity": 0.6220472440944882
        },
        {
          "duration": 1.1287867500000033,
          "durationTicks": 298,
          "midi": 69,
          "name": "A4",
          "ticks": 33119,
          "time": 125.45063212500001,
          "velocity": 0.6220472440944882
        }
      ],
      "endOfTrackTicks": 33417
    },
    {
      "channel": 7,
      "controlChanges": {
        "7": [
          {
            "number": 7,
            "ticks": 0,
            "time": 0,
            "value": 0
          },
          {
            "number": 7,
            "ticks": 2,
            "time": 0.00757575,
            "value": 0.07086614173228346
          },
          {
            "number": 7,
            "ticks": 6,
            "time": 0.022727250000000004,
            "value": 0.08661417322834646
          },
          {
            "number": 7,
            "ticks": 8,
            "time": 0.030303,
            "value": 0.11023622047244094
          },
          {
            "number": 7,
            "ticks": 10,
            "time": 0.03787875,
            "value": 0.11811023622047244
          },
          {
            "number": 7,
            "ticks": 14,
            "time": 0.05303025000000001,
            "value": 0.13385826771653545
          },
          {
            "number": 7,
            "ticks": 16,
            "time": 0.060606,
            "value": 0.14960629921259844
          },
          {
            "number": 7,
            "ticks": 20,
            "time": 0.0757575,
            "value": 0.16535433070866143
          },
          {
            "number": 7,
            "ticks": 22,
            "time": 0.08333325,
            "value": 0.18110236220472442
          },
          {
            "number": 7,
            "ticks": 24,
            "time": 0.09090900000000002,
            "value": 0.1889763779527559
          },
          {
            "number": 7,
            "ticks": 28,
            "time": 0.10606050000000002,
            "value": 0.2047244094488189
          },
          {
            "number": 7,
            "ticks": 32,
            "time": 0.121212,
            "value": 0.2125984251968504
          },
          {
            "number": 7,
            "ticks": 36,
            "time": 0.1363635,
            "value": 0.2283464566929134
          },
          {
            "number": 7,
            "ticks": 40,
            "time": 0.151515,
            "value": 0.2440944881889764
          },
          {
            "number": 7,
            "ticks": 44,
            "time": 0.1666665,
            "value": 0.25984251968503935
          },
          {
            "number": 7,
            "ticks": 48,
            "time": 0.18181800000000004,
            "value": 0.2677165354330709
          },
          {
            "number": 7,
            "ticks": 52,
            "time": 0.19696950000000002,
            "value": 0.28346456692913385
          },
          {
            "number": 7,
            "ticks": 64,
            "time": 0.242424,
            "value": 0.33070866141732286
          },
          {
            "number": 7,
            "ticks": 76,
            "time": 0.2878785,
            "value": 0.3464566929133858
          },
          {
            "number": 7,
            "ticks": 80,
            "time": 0.30303,
            "value": 0.36220472440944884
          },
          {
            "number": 7,
            "ticks": 84,
            "time": 0.3181815,
            "value": 0.3779527559055118
          },
          {
            "number": 7,
            "ticks": 96,
            "time": 0.36363600000000007,
            "value": 0.3937007874015748
          },
          {
            "number": 7,
            "ticks": 100,
            "time": 0.37878750000000005,
            "value": 0.4094488188976378
          },
          {
            "number": 7,
            "ticks": 112,
            "time": 0.42424200000000006,
            "value": 0.4566929133858268
          },
          {
            "number": 7,
            "ticks": 116,
            "time": 0.43939350000000005,
            "value": 0.4645669291338583
          },
          {
            "number": 7,
            "ticks": 118,
            "time": 0.44696925,
            "value": 0.48031496062992124
          },
          {
            "number": 7,
            "ticks": 122,
            "time": 0.46212075,
            "value": 0.49606299212598426
          },
          {
            "number": 7,
            "ticks": 126,
            "time": 0.47727225000000006,
            "value": 0.5118110236220472
          },
          {
            "number": 7,
            "ticks": 128,
            "time": 0.484848,
            "value": 0.5196850393700787
          },
          {
            "number": 7,
            "ticks": 130,
            "time": 0.49242375,
            "value": 0.5354330708661418
          },
          {
            "number": 7,
            "ticks": 134,
            "time": 0.50757525,
            "value": 0.5511811023622047
          },
          {
            "number": 7,
            "ticks": 138,
            "time": 0.52272675,
            "value": 0.5748031496062992
          },
          {
            "number": 7,
            "ticks": 140,
            "time": 0.5303025000000001,
            "value": 0.5826771653543307
          },
          {
            "number": 7,
            "ticks": 142,
            "time": 0.53787825,
            "value": 0.5905511811023622
          },
          {
            "number": 7,
            "ticks": 144,
            "time": 0.545454,
            "value": 0.6062992125984252
          },
          {
            "number": 7,
            "ticks": 146,
            "time": 0.55302975,
            "value": 0.6220472440944882
          },
          {
            "number": 7,
            "ticks": 150,
            "time": 0.5681812500000001,
            "value": 0.6377952755905512
          },
          {
            "number": 7,
            "ticks": 152,
            "time": 0.575757,
            "value": 0.6456692913385826
          },
          {
            "number": 7,
            "ticks": 154,
            "time": 0.5833327500000001,
            "value": 0.6614173228346457
          },
          {
            "number": 7,
            "ticks": 156,
            "time": 0.5909085000000001,
            "value": 0.6692913385826772
          },
          {
            "number": 7,
            "ticks": 158,
            "time": 0.59848425,
            "value": 0.6850393700787402
          },
          {
            "number": 7,
            "ticks": 2294,
            "time": 8.68938525,
            "value": 0.7165354330708661
          },
          {
            "number": 7,
            "ticks": 2298,
            "time": 8.70453675,
            "value": 0.7007874015748031
          },
          {
            "number": 7,
            "ticks": 2314,
            "time": 8.76514275,
            "value": 0.6929133858267716
          },
          {
            "number": 7,
            "ticks": 2334,
            "time": 8.84090025,
            "value": 0.6850393700787402
          },
          {
            "number": 7,
            "ticks": 2354,
            "time": 8.91665775,
            "value": 0.6377952755905512
          },
          {
            "number": 7,
            "ticks": 2370,
            "time": 8.97726375,
            "value": 0.6299212598425197
          },
          {
            "number": 7,
            "ticks": 2382,
            "time": 9.02271825,
            "value": 0.6141732283464567
          },
          {
            "number": 7,
            "ticks": 2398,
            "time": 9.08332425,
            "value": 0.5984251968503937
          },
          {
            "number": 7,
            "ticks": 2418,
            "time": 9.15908175,
            "value": 0.5826771653543307
          },
          {
            "number": 7,
            "ticks": 2434,
            "time": 9.219687750000002,
            "value": 0.5669291338582677
          },
          {
            "number": 7,
            "ticks": 2450,
            "time": 9.280293750000002,
            "value": 0.5511811023622047
          },
          {
            "number": 7,
            "ticks": 2466,
            "time": 9.34089975,
            "value": 0.5354330708661418
          },
          {
            "number": 7,
            "ticks": 2478,
            "time": 9.38635425,
            "value": 0.5275590551181102
          },
          {
            "number": 7,
            "ticks": 2490,
            "time": 9.43180875,
            "value": 0.5196850393700787
          },
          {
            "number": 7,
            "ticks": 2506,
            "time": 9.49241475,
            "value": 0.5039370078740157
          },
          {
            "number": 7,
            "ticks": 2526,
            "time": 9.568172250000002,
            "value": 0.4566929133858268
          },
          {
            "number": 7,
            "ticks": 2546,
            "time": 9.64392975,
            "value": 0.4094488188976378
          },
          {
            "number": 7,
            "ticks": 2570,
            "time": 9.734838750000002,
            "value": 0.3937007874015748
          },
          {
            "number": 7,
            "ticks": 2586,
            "time": 9.795444750000001,
            "value": 0.3464566929133858
          },
          {
            "number": 7,
            "ticks": 2602,
            "time": 9.856050750000001,
            "value": 0.33070866141732286
          },
          {
            "number": 7,
            "ticks": 2618,
            "time": 9.916656750000001,
            "value": 0.31496062992125984
          },
          {
            "number": 7,
            "ticks": 2634,
            "time": 9.97726275,
            "value": 0.2677165354330709
          },
          {
            "number": 7,
            "ticks": 2650,
            "time": 10.03786875,
            "value": 0.25196850393700787
          },
          {
            "number": 7,
            "ticks": 2666,
            "time": 10.09847475,
            "value": 0.23622047244094488
          },
          {
            "number": 7,
            "ticks": 2682,
            "time": 10.159080750000001,
            "value": 0.2204724409448819
          },
          {
            "number": 7,
            "ticks": 2702,
            "time": 10.234838250000001,
            "value": 0.1732283464566929
          },
          {
            "number": 7,
            "ticks": 2718,
            "time": 10.295444250000001,
            "value": 0.15748031496062992
          },
          {
            "number": 7,
            "ticks": 2730,
            "time": 10.340898750000001,
            "value": 0.14173228346456693
          },
          {
            "number": 7,
            "ticks": 2742,
            "time": 10.38635325,
            "value": 0.13385826771653545
          },
          {
            "number": 7,
            "ticks": 2754,
            "time": 10.43180775,
            "value": 0.11811023622047244
          },
          {
            "number": 7,
            "ticks": 2758,
            "time": 10.44695925,
            "value": 0.11023622047244094
          },
          {
            "number": 7,
            "ticks": 2762,
            "time": 10.46211075,
            "value": 0.10236220472440945
          },
          {
            "number": 7,
            "ticks": 2766,
            "time": 10.47726225,
            "value": 0.09448818897637795
          },
          {
            "number": 7,
            "ticks": 2770,
            "time": 10.49241375,
            "value": 0.08661417322834646
          },
          {
            "number": 7,
            "ticks": 2774,
            "time": 10.50756525,
            "value": 0.07874015748031496
          },
          {
            "number": 7,
            "ticks": 2778,
            "time": 10.52271675,
            "value": 0.07086614173228346
          },
          {
            "number": 7,
            "ticks": 2794,
            "time": 10.58332275,
            "value": 0.05511811023622047
          },
          {
            "number": 7,
            "ticks": 2806,
            "time": 10.62877725,
            "value": 0.03937007874015748
          },
          {
            "number": 7,
            "ticks": 2818,
            "time": 10.67423175,
            "value": 0.031496062992125984
          },
          {
            "number": 7,
            "ticks": 2822,
            "time": 10.68938325,
            "value": 0.015748031496062992
          },
          {
            "number": 7,
            "ticks": 2830,
            "time": 10.71968625,
            "value": 0.007874015748031496
          },
          {
            "number": 7,
            "ticks": 2834,
            "time": 10.73483775,
            "value": 0
          },
          {
            "number": 7,
            "ticks": 2838,
            "time": 10.74998925,
            "value": 0
          }
        ],
        "10": [
          {
            "number": 10,
            "ticks": 0,
            "time": 0,
            "value": 0.5039370078740157
          }
        ]
      },
      "pitchBends": [],
      "instrument": {
        "family": "synth lead",
        "number": 84,
        "name": "lead 5 (charang)"
      },
      "name": "High Note",
      "notes": [
        {
          "duration": 10.31059575,
          "durationTicks": 2722,
          "midi": 83,
          "name": "B5",
          "ticks": 4,
          "time": 0.0151515,
          "velocity": 0.6614173228346457
        }
      ],
      "endOfTrackTicks": 2838
    },
    {
      "channel": 5,
      "controlChanges": {
        "7": [
          {
            "number": 7,
            "ticks": 0,
            "time": 0,
            "value": 0.8818897637795275
          }
        ],
        "10": [
          {
            "number": 10,
            "ticks": 0,
            "time": 0,
            "value": 0.5039370078740157
          }
        ],
        "64": [
          {
            "number": 64,
            "ticks": 116,
            "time": 0.43939350000000005,
            "value": 0
          },
          {
            "number": 64,
            "ticks": 118,
            "time": 0.44696925,
            "value": 0
          },
          {
            "number": 64,
            "ticks": 121,
            "time": 0.45833287500000003,
            "value": 0
          },
          {
            "number": 64,
            "ticks": 121,
            "time": 0.45833287500000003,
            "value": 0
          },
          {
            "number": 64,
            "ticks": 121,
            "time": 0.45833287500000003,
            "value": 0
          },
          {
            "number": 64,
            "ticks": 121,
            "time": 0.45833287500000003,
            "value": 0
          },
          {
            "number": 64,
            "ticks": 121,
            "time": 0.45833287500000003,
            "value": 0
          },
          {
            "number": 64,
            "ticks": 121,
            "time": 0.45833287500000003,
            "value": 0
          },
          {
            "number": 64,
            "ticks": 121,
            "time": 0.45833287500000003,
            "value": 0
          },
          {
            "number": 64,
            "ticks": 121,
            "time": 0.45833287500000003,
            "value": 0
          },
          {
            "number": 64,
            "ticks": 121,
            "time": 0.45833287500000003,
            "value": 0
          },
          {
            "number": 64,
            "ticks": 121,
            "time": 0.45833287500000003,
            "value": 0
          },
          {
            "number": 64,
            "ticks": 126,
            "time": 0.47727225000000006,
            "value": 0
          },
          {
            "number": 64,
            "ticks": 126,
            "time": 0.47727225000000006,
            "value": 0
          },
          {
            "number": 64,
            "ticks": 126,
            "time": 0.47727225000000006,
            "value": 0
          },
          {
            "number": 64,
            "ticks": 126,
            "time": 0.47727225000000006,
            "value": 0
          }
        ]
      },
      "pitchBends": [],
      "instrument": {
        "family": "pipe",
        "number": 79,
        "name": "ocarina"
      },
      "name": "Popcorn",
      "notes": [
        {
          "duration": 0.07954537500000036,
          "durationTicks": 21,
          "midi": 83,
          "name": "B5",
          "ticks": 2760,
          "time": 10.454535,
          "velocity": 0.8818897637795275
        },
        {
          "duration": 0.08333324999999903,
          "durationTicks": 22,
          "midi": 81,
          "name": "A5",
          "ticks": 2820,
          "time": 10.681807500000001,
          "velocity": 0.8818897637795275
        },
        {
          "duration": 0.07954537500000036,
          "durationTicks": 21,
          "midi": 83,
          "name": "B5",
          "ticks": 2881,
          "time": 10.912867875,
          "velocity": 0.8818897637795275
        },
        {
          "duration": 0.06818175000000082,
          "durationTicks": 18,
          "midi": 78,
          "name": "F#5",
          "ticks": 2942,
          "time": 11.14392825,
          "velocity": 0.8818897637795275
        },
        {
          "duration": 0.06818175000000082,
          "durationTicks": 18,
          "midi": 74,
          "name": "D5",
          "ticks": 3003,
          "time": 11.374988625,
          "velocity": 0.8818897637795275
        },
        {
          "duration": 0.07954537500000036,
          "durationTicks": 21,
          "midi": 78,
          "name": "F#5",
          "ticks": 3061,
          "time": 11.594685375000001,
          "velocity": 0.8818897637795275
        },
        {
          "duration": 0.0833332500000008,
          "durationTicks": 22,
          "midi": 71,
          "name": "B4",
          "ticks": 3121,
          "time": 11.821957875,
          "velocity": 0.8818897637795275
        },
        {
          "duration": 0.0681817500000026,
          "durationTicks": 18,
          "midi": 83,
          "name": "B5",
          "ticks": 3243,
          "time": 12.284078625,
          "velocity": 0.8818897637795275
        },
        {
          "duration": 0.07954537500000036,
          "durationTicks": 21,
          "midi": 81,
          "name": "A5",
          "ticks": 3301,
          "time": 12.503775375,
          "velocity": 0.8818897637795275
        },
        {
          "duration": 0.06818175000000082,
          "durationTicks": 18,
          "midi": 83,
          "name": "B5",
          "ticks": 3362,
          "time": 12.73483575,
          "velocity": 0.8818897637795275
        },
        {
          "duration": 0.07196962500000126,
          "durationTicks": 19,
          "midi": 78,
          "name": "F#5",
          "ticks": 3422,
          "time": 12.96210825,
          "velocity": 0.8818897637795275
        },
        {
          "duration": 0.0833332500000008,
          "durationTicks": 22,
          "midi": 74,
          "name": "D5",
          "ticks": 3480,
          "time": 13.181805,
          "velocity": 0.8818897637795275
        },
        {
          "duration": 0.07954537500000036,
          "durationTicks": 21,
          "midi": 78,
          "name": "F#5",
          "ticks": 3541,
          "time": 13.412865375,
          "velocity": 0.8818897637795275
        },
        {
          "duration": 0.06818175000000082,
          "durationTicks": 18,
          "midi": 71,
          "name": "B4",
          "ticks": 3602,
          "time": 13.643925750000001,
          "velocity": 0.8818897637795275
        },
        {
          "duration": 0.06818175000000082,
          "durationTicks": 18,
          "midi": 83,
          "name": "B5",
          "ticks": 3721,
          "time": 14.094682875,
          "velocity": 0.8818897637795275
        },
        {
          "duration": 0.07196962500000126,
          "durationTicks": 19,
          "midi": 85,
          "name": "C#6",
          "ticks": 3781,
          "time": 14.321955375,
          "velocity": 0.8818897637795275
        },
        {
          "duration": 0.07196962499999948,
          "durationTicks": 19,
          "midi": 86,
          "name": "D6",
          "ticks": 3842,
          "time": 14.55301575,
          "velocity": 0.8818897637795275
        },
        {
          "duration": 0.07954537499999859,
          "durationTicks": 21,
          "midi": 85,
          "name": "C#6",
          "ticks": 3900,
          "time": 14.7727125,
          "velocity": 0.8818897637795275
        },
        {
          "duration": 0.07954537499999859,
          "durationTicks": 21,
          "midi": 86,
          "name": "D6",
          "ticks": 3961,
          "time": 15.003772875000001,
          "velocity": 0.8818897637795275
        },
        {
          "duration": 0.06818174999999904,
          "durationTicks": 18,
          "midi": 83,
          "name": "B5",
          "ticks": 4022,
          "time": 15.234833250000001,
          "velocity": 0.8818897637795275
        },
        {
          "duration": 0.07196962499999948,
          "durationTicks": 19,
          "midi": 85,
          "name": "C#6",
          "ticks": 4082,
          "time": 15.462105750000001,
          "velocity": 0.8818897637795275
        },
        {
          "duration": 0.08333324999999725,
          "durationTicks": 22,
          "midi": 83,
          "name": "B5",
          "ticks": 4140,
          "time": 15.681802500000002,
          "velocity": 0.8818897637795275
        },
        {
          "duration": 0.07954537500000036,
          "durationTicks": 21,
          "midi": 85,
          "name": "C#6",
          "ticks": 4201,
          "time": 15.912862875,
          "velocity": 0.8818897637795275
        },
        {
          "duration": 0.06818175000000082,
          "durationTicks": 18,
          "midi": 81,
          "name": "A5",
          "ticks": 4262,
          "time": 16.14392325,
          "velocity": 0.8818897637795275
        },
        {
          "duration": 0.06818174999999727,
          "durationTicks": 18,
          "midi": 83,
          "name": "B5",
          "ticks": 4323,
          "time": 16.374983625000002,
          "velocity": 0.8818897637795275
        },
        {
          "duration": 0.07954537499999859,
          "durationTicks": 21,
          "midi": 81,
          "name": "A5",
          "ticks": 4381,
          "time": 16.594680375,
          "velocity": 0.8818897637795275
        },
        {
          "duration": 0.0719696249999977,
          "durationTicks": 19,
          "midi": 83,
          "name": "B5",
          "ticks": 4441,
          "time": 16.821952875,
          "velocity": 0.8818897637795275
        },
        {
          "duration": 0.07196962500000126,
          "durationTicks": 19,
          "midi": 79,
          "name": "G5",
          "ticks": 4502,
          "time": 17.05301325,
          "velocity": 0.8818897637795275
        },
        {
          "duration": 0.07954537499999859,
          "durationTicks": 21,
          "midi": 83,
          "name": "B5",
          "ticks": 4560,
          "time": 17.27271,
          "velocity": 0.8818897637795275
        },
        {
          "duration": 0.06818175000000082,
          "durationTicks": 18,
          "midi": 83,
          "name": "B5",
          "ticks": 4682,
          "time": 17.73483075,
          "velocity": 0.8818897637795275
        },
        {
          "duration": 0.0719696249999977,
          "durationTicks": 19,
          "midi": 81,
          "name": "A5",
          "ticks": 4742,
          "time": 17.962103250000002,
          "velocity": 0.8818897637795275
        },
        {
          "duration": 0.08333324999999547,
          "durationTicks": 22,
          "midi": 83,
          "name": "B5",
          "ticks": 4800,
          "time": 18.181800000000003,
          "velocity": 0.8818897637795275
        },
        {
          "duration": 0.07954537499999859,
          "durationTicks": 21,
          "midi": 78,
          "name": "F#5",
          "ticks": 4861,
          "time": 18.412860375,
          "velocity": 0.8818897637795275
        },
        {
          "duration": 0.06818175000000082,
          "durationTicks": 18,
          "midi": 74,
          "name": "D5",
          "ticks": 4922,
          "time": 18.64392075,
          "velocity": 0.8818897637795275
        },
        {
          "duration": 0.07954537499999859,
          "durationTicks": 21,
          "midi": 78,
          "name": "F#5",
          "ticks": 4980,
          "time": 18.8636175,
          "velocity": 0.8818897637795275
        },
        {
          "duration": 0.07954537499999859,
          "durationTicks": 21,
          "midi": 71,
          "name": "B4",
          "ticks": 5041,
          "time": 19.094677875000002,
          "velocity": 0.8818897637795275
        },
        {
          "duration": 0.0719696249999977,
          "durationTicks": 19,
          "midi": 83,
          "name": "B5",
          "ticks": 5162,
          "time": 19.553010750000002,
          "velocity": 0.8818897637795275
        },
        {
          "duration": 0.07954537499999859,
          "durationTicks": 21,
          "midi": 81,
          "name": "A5",
          "ticks": 5220,
          "time": 19.772707500000003,
          "velocity": 0.8818897637795275
        },
        {
          "duration": 0.07954537499999859,
          "durationTicks": 21,
          "midi": 83,
          "name": "B5",
          "ticks": 5281,
          "time": 20.003767875,
          "velocity": 0.8818897637795275
        },
        {
          "duration": 0.06818175000000082,
          "durationTicks": 18,
          "midi": 78,
          "name": "F#5",
          "ticks": 5342,
          "time": 20.23482825,
          "velocity": 0.8818897637795275
        },
        {
          "duration": 0.0719696249999977,
          "durationTicks": 19,
          "midi": 74,
          "name": "D5",
          "ticks": 5402,
          "time": 20.46210075,
          "velocity": 0.8818897637795275
        },
        {
          "duration": 0.08333324999999903,
          "durationTicks": 22,
          "midi": 78,
          "name": "F#5",
          "ticks": 5460,
          "time": 20.681797500000002,
          "velocity": 0.8818897637795275
        },
        {
          "duration": 0.07196962500000126,
          "durationTicks": 19,
          "midi": 71,
          "name": "B4",
          "ticks": 5521,
          "time": 20.912857875,
          "velocity": 0.8818897637795275
        },
        {
          "duration": 0.07954537499999859,
          "durationTicks": 21,
          "midi": 83,
          "name": "B5",
          "ticks": 5640,
          "time": 21.363615000000003,
          "velocity": 0.8818897637795275
        },
        {
          "duration": 0.07954537499999859,
          "durationTicks": 21,
          "midi": 85,
          "name": "C#6",
          "ticks": 5701,
          "time": 21.594675375,
          "velocity": 0.8818897637795275
        },
        {
          "duration": 0.0719696249999977,
          "durationTicks": 19,
          "midi": 86,
          "name": "D6",
          "ticks": 5761,
          "time": 21.821947875000003,
          "velocity": 0.8818897637795275
        },
        {
          "duration": 0.0719696249999977,
          "durationTicks": 19,
          "midi": 85,
          "name": "C#6",
          "ticks": 5822,
          "time": 22.05300825,
          "velocity": 0.8818897637795275
        },
        {
          "duration": 0.07954537499999859,
          "durationTicks": 21,
          "midi": 86,
          "name": "D6",
          "ticks": 5880,
          "time": 22.272705000000002,
          "velocity": 0.8818897637795275
        },
        {
          "duration": 0.07954537499999859,
          "durationTicks": 21,
          "midi": 83,
          "name": "B5",
          "ticks": 5941,
          "time": 22.503765375,
          "velocity": 0.8818897637795275
        },
        {
          "duration": 0.06818174999999727,
          "durationTicks": 18,
          "midi": 85,
          "name": "C#6",
          "ticks": 6002,
          "time": 22.734825750000002,
          "velocity": 0.8818897637795275
        },
        {
          "duration": 0.07954537499999859,
          "durationTicks": 21,
          "midi": 83,
          "name": "B5",
          "ticks": 6060,
          "time": 22.954522500000003,
          "velocity": 0.8818897637795275
        },
        {
          "duration": 0.08333324999999903,
          "durationTicks": 22,
          "midi": 85,
          "name": "C#6",
          "ticks": 6120,
          "time": 23.181795,
          "velocity": 0.8818897637795275
        },
        {
          "duration": 0.0719696249999977,
          "durationTicks": 19,
          "midi": 81,
          "name": "A5",
          "ticks": 6181,
          "time": 23.412855375000003,
          "velocity": 0.8818897637795275
        },
        {
          "duration": 0.06818175000000082,
          "durationTicks": 18,
          "midi": 83,
          "name": "B5",
          "ticks": 6242,
          "time": 23.64391575,
          "velocity": 0.8818897637795275
        },
        {
          "duration": 0.07954537499999859,
          "durationTicks": 21,
          "midi": 81,
          "name": "A5",
          "ticks": 6300,
          "time": 23.863612500000002,
          "velocity": 0.8818897637795275
        },
        {
          "duration": 0.07954537499999859,
          "durationTicks": 21,
          "midi": 83,
          "name": "B5",
          "ticks": 6361,
          "time": 24.094672875,
          "velocity": 0.8818897637795275
        },
        {
          "duration": 0.0719696249999977,
          "durationTicks": 19,
          "midi": 85,
          "name": "C#6",
          "ticks": 6421,
          "time": 24.321945375000002,
          "velocity": 0.8818897637795275
        },
        {
          "duration": 0.07196962500000126,
          "durationTicks": 19,
          "midi": 86,
          "name": "D6",
          "ticks": 6482,
          "time": 24.55300575,
          "velocity": 0.8818897637795275
        },
        {
          "duration": 0.07954537499999859,
          "durationTicks": 21,
          "midi": 90,
          "name": "F#6",
          "ticks": 6601,
          "time": 25.003762875000003,
          "velocity": 0.8818897637795275
        },
        {
          "duration": 0.06818175000000082,
          "durationTicks": 18,
          "midi": 88,
          "name": "E6",
          "ticks": 6662,
          "time": 25.23482325,
          "velocity": 0.8818897637795275
        },
        {
          "duration": 0.0719696249999977,
          "durationTicks": 19,
          "midi": 90,
          "name": "F#6",
          "ticks": 6722,
          "time": 25.462095750000003,
          "velocity": 0.8818897637795275
        },
        {
          "duration": 0.08333324999999903,
          "durationTicks": 22,
          "midi": 86,
          "name": "D6",
          "ticks": 6780,
          "time": 25.6817925,
          "velocity": 0.8818897637795275
        },
        {
          "duration": 0.0719696249999977,
          "durationTicks": 19,
          "midi": 81,
          "name": "A5",
          "ticks": 6841,
          "time": 25.912852875000002,
          "velocity": 0.8818897637795275
        },
        {
          "duration": 0.06818175000000082,
          "durationTicks": 18,
          "midi": 86,
          "name": "D6",
          "ticks": 6902,
          "time": 26.14391325,
          "velocity": 0.8818897637795275
        },
        {
          "duration": 0.07954537499999859,
          "durationTicks": 21,
          "midi": 78,
          "name": "F#5",
          "ticks": 6960,
          "time": 26.36361,
          "velocity": 0.8818897637795275
        },
        {
          "duration": 0.07196962500000126,
          "durationTicks": 19,
          "midi": 90,
          "name": "F#6",
          "ticks": 7081,
          "time": 26.821942875,
          "velocity": 0.8818897637795275
        },
        {
          "duration": 0.07196962500000126,
          "durationTicks": 19,
          "midi": 88,
          "name": "E6",
          "ticks": 7142,
          "time": 27.05300325,
          "velocity": 0.8818897637795275
        },
        {
          "duration": 0.07954537499999859,
          "durationTicks": 21,
          "midi": 90,
          "name": "F#6",
          "ticks": 7200,
          "time": 27.2727,
          "velocity": 0.8818897637795275
        },
        {
          "duration": 0.07954537499999859,
          "durationTicks": 21,
          "midi": 86,
          "name": "D6",
          "ticks": 7261,
          "time": 27.503760375000002,
          "velocity": 0.8818897637795275
        },
        {
          "duration": 0.06818175000000082,
          "durationTicks": 18,
          "midi": 81,
          "name": "A5",
          "ticks": 7322,
          "time": 27.73482075,
          "velocity": 0.8818897637795275
        },
        {
          "duration": 0.07954537499999859,
          "durationTicks": 21,
          "midi": 86,
          "name": "D6",
          "ticks": 7380,
          "time": 27.9545175,
          "velocity": 0.8818897637795275
        },
        {
          "duration": 0.08333324999999903,
          "durationTicks": 22,
          "midi": 78,
          "name": "F#5",
          "ticks": 7440,
          "time": 28.181790000000003,
          "velocity": 0.8818897637795275
        },
        {
          "duration": 0.07954537499999859,
          "durationTicks": 21,
          "midi": 90,
          "name": "F#6",
          "ticks": 7559,
          "time": 28.632547125000002,
          "velocity": 0.8818897637795275
        },
        {
          "duration": 0.07954537499999859,
          "durationTicks": 21,
          "midi": 92,
          "name": "G#6",
          "ticks": 7620,
          "time": 28.8636075,
          "velocity": 0.8818897637795275
        },
        {
          "duration": 0.07954537499999859,
          "durationTicks": 21,
          "midi": 93,
          "name": "A6",
          "ticks": 7681,
          "time": 29.094667875000006,
          "velocity": 0.8818897637795275
        },
        {
          "duration": 0.07196962500000126,
          "durationTicks": 19,
          "midi": 92,
          "name": "G#6",
          "ticks": 7741,
          "time": 29.321940375000004,
          "velocity": 0.8818897637795275
        },
        {
          "duration": 0.0719696249999977,
          "durationTicks": 19,
          "midi": 93,
          "name": "A6",
          "ticks": 7802,
          "time": 29.553000750000002,
          "velocity": 0.8818897637795275
        },
        {
          "duration": 0.07954537499999859,
          "durationTicks": 21,
          "midi": 90,
          "name": "F#6",
          "ticks": 7860,
          "time": 29.772697500000003,
          "velocity": 0.8818897637795275
        },
        {
          "duration": 0.06818174999999727,
          "durationTicks": 18,
          "midi": 92,
          "name": "G#6",
          "ticks": 7921,
          "time": 30.003757875000005,
          "velocity": 0.8818897637795275
        },
        {
          "duration": 0.06818175000000437,
          "durationTicks": 18,
          "midi": 90,
          "name": "F#6",
          "ticks": 7982,
          "time": 30.23481825,
          "velocity": 0.8818897637795275
        },
        {
          "duration": 0.07954537499999859,
          "durationTicks": 21,
          "midi": 92,
          "name": "G#6",
          "ticks": 8040,
          "time": 30.454515,
          "velocity": 0.8818897637795275
        },
        {
          "duration": 0.08333325000000258,
          "durationTicks": 22,
          "midi": 88,
          "name": "E6",
          "ticks": 8100,
          "time": 30.681787500000002,
          "velocity": 0.8818897637795275
        },
        {
          "duration": 0.07196962500000126,
          "durationTicks": 19,
          "midi": 90,
          "name": "F#6",
          "ticks": 8161,
          "time": 30.912847875000004,
          "velocity": 0.8818897637795275
        },
        {
          "duration": 0.06818175000000082,
          "durationTicks": 18,
          "midi": 88,
          "name": "E6",
          "ticks": 8222,
          "time": 31.143908250000003,
          "velocity": 0.8818897637795275
        },
        {
          "duration": 0.07954537499999859,
          "durationTicks": 21,
          "midi": 90,
          "name": "F#6",
          "ticks": 8280,
          "time": 31.363605000000003,
          "velocity": 0.8818897637795275
        },
        {
          "duration": 0.07954537499999859,
          "durationTicks": 21,
          "midi": 86,
          "name": "D6",
          "ticks": 8341,
          "time": 31.594665375000005,
          "velocity": 0.8818897637795275
        },
        {
          "duration": 0.0719696249999977,
          "durationTicks": 19,
          "midi": 90,
          "name": "F#6",
          "ticks": 8401,
          "time": 31.821937875000007,
          "velocity": 0.8818897637795275
        },
        {
          "duration": 0.07196962500000126,
          "durationTicks": 19,
          "midi": 90,
          "name": "F#6",
          "ticks": 8520,
          "time": 32.272695,
          "velocity": 0.8818897637795275
        },
        {
          "duration": 0.06818174999999371,
          "durationTicks": 18,
          "midi": 88,
          "name": "E6",
          "ticks": 8581,
          "time": 32.503755375000004,
          "velocity": 0.8818897637795275
        },
        {
          "duration": 0.06818175000000082,
          "durationTicks": 18,
          "midi": 90,
          "name": "F#6",
          "ticks": 8642,
          "time": 32.73481575,
          "velocity": 0.8818897637795275
        },
        {
          "duration": 0.07954537500000214,
          "durationTicks": 21,
          "midi": 86,
          "name": "D6",
          "ticks": 8700,
          "time": 32.9545125,
          "velocity": 0.8818897637795275
        },
        {
          "duration": 0.08333325000000258,
          "durationTicks": 22,
          "midi": 81,
          "name": "A5",
          "ticks": 8760,
          "time": 33.181785000000005,
          "velocity": 0.8818897637795275
        },
        {
          "duration": 0.07196962500000126,
          "durationTicks": 19,
          "midi": 86,
          "name": "D6",
          "ticks": 8821,
          "time": 33.412845375,
          "velocity": 0.8818897637795275
        },
        {
          "duration": 0.06818175000000082,
          "durationTicks": 18,
          "midi": 78,
          "name": "F#5",
          "ticks": 8882,
          "time": 33.64390575,
          "velocity": 0.8818897637795275
        },
        {
          "duration": 0.07954537500000214,
          "durationTicks": 21,
          "midi": 90,
          "name": "F#6",
          "ticks": 9001,
          "time": 34.094662875000004,
          "velocity": 0.8818897637795275
        },
        {
          "duration": 0.07196962500000126,
          "durationTicks": 19,
          "midi": 88,
          "name": "E6",
          "ticks": 9061,
          "time": 34.321935375,
          "velocity": 0.8818897637795275
        },
        {
          "duration": 0.07196962500000126,
          "durationTicks": 19,
          "midi": 90,
          "name": "F#6",
          "ticks": 9122,
          "time": 34.55299575,
          "velocity": 0.8818897637795275
        },
        {
          "duration": 0.07954537499999503,
          "durationTicks": 21,
          "midi": 86,
          "name": "D6",
          "ticks": 9180,
          "time": 34.772692500000005,
          "velocity": 0.8818897637795275
        },
        {
          "duration": 0.06818175000000082,
          "durationTicks": 18,
          "midi": 81,
          "name": "A5",
          "ticks": 9241,
          "time": 35.003752875,
          "velocity": 0.8818897637795275
        },
        {
          "duration": 0.06818175000000082,
          "durationTicks": 18,
          "midi": 86,
          "name": "D6",
          "ticks": 9302,
          "time": 35.23481325,
          "velocity": 0.8818897637795275
        },
        {
          "duration": 0.07954537500000214,
          "durationTicks": 21,
          "midi": 78,
          "name": "F#5",
          "ticks": 9360,
          "time": 35.45451,
          "velocity": 0.8818897637795275
        },
        {
          "duration": 0.07196962500000126,
          "durationTicks": 19,
          "midi": 90,
          "name": "F#6",
          "ticks": 9481,
          "time": 35.912842875,
          "velocity": 0.8818897637795275
        },
        {
          "duration": 0.06818175000000082,
          "durationTicks": 18,
          "midi": 92,
          "name": "G#6",
          "ticks": 9542,
          "time": 36.14390325,
          "velocity": 0.8818897637795275
        },
        {
          "duration": 0.06818175000000082,
          "durationTicks": 18,
          "midi": 93,
          "name": "A6",
          "ticks": 9600,
          "time": 36.363600000000005,
          "velocity": 0.8818897637795275
        },
        {
          "duration": 0.06818175000000082,
          "durationTicks": 18,
          "midi": 92,
          "name": "G#6",
          "ticks": 9661,
          "time": 36.594660375000004,
          "velocity": 0.8818897637795275
        },
        {
          "duration": 0.07196962499999415,
          "durationTicks": 19,
          "midi": 93,
          "name": "A6",
          "ticks": 9721,
          "time": 36.82193287500001,
          "velocity": 0.8818897637795275
        },
        {
          "duration": 0.07954537500000214,
          "durationTicks": 21,
          "midi": 90,
          "name": "F#6",
          "ticks": 9780,
          "time": 37.0454175,
          "velocity": 0.8818897637795275
        },
        {
          "duration": 0.07954537499999503,
          "durationTicks": 21,
          "midi": 92,
          "name": "G#6",
          "ticks": 9840,
          "time": 37.272690000000004,
          "velocity": 0.8818897637795275
        },
        {
          "duration": 0.06818175000000082,
          "durationTicks": 18,
          "midi": 90,
          "name": "F#6",
          "ticks": 9901,
          "time": 37.503750375,
          "velocity": 0.8818897637795275
        },
        {
          "duration": 0.06818175000000082,
          "durationTicks": 18,
          "midi": 92,
          "name": "G#6",
          "ticks": 9962,
          "time": 37.73481075,
          "velocity": 0.8818897637795275
        },
        {
          "duration": 0.07954537499999503,
          "durationTicks": 21,
          "midi": 88,
          "name": "E6",
          "ticks": 10020,
          "time": 37.954507500000005,
          "velocity": 0.8818897637795275
        },
        {
          "duration": 0.08333325000000258,
          "durationTicks": 22,
          "midi": 90,
          "name": "F#6",
          "ticks": 10080,
          "time": 38.18178,
          "velocity": 0.8818897637795275
        },
        {
          "duration": 0.07196962499999415,
          "durationTicks": 19,
          "midi": 88,
          "name": "E6",
          "ticks": 10141,
          "time": 38.41284037500001,
          "velocity": 0.8818897637795275
        },
        {
          "duration": 0.06818175000000792,
          "durationTicks": 18,
          "midi": 85,
          "name": "C#6",
          "ticks": 10202,
          "time": 38.64390075,
          "velocity": 0.8818897637795275
        },
        {
          "duration": 0.06818175000000082,
          "durationTicks": 18,
          "midi": 88,
          "name": "E6",
          "ticks": 10260,
          "time": 38.863597500000004,
          "velocity": 0.8818897637795275
        },
        {
          "duration": 0.06818175000000082,
          "durationTicks": 18,
          "midi": 90,
          "name": "F#6",
          "ticks": 10321,
          "time": 39.094657875,
          "velocity": 0.8818897637795275
        },
        {
          "duration": 0.07954537499999503,
          "durationTicks": 21,
          "midi": 83,
          "name": "B5",
          "ticks": 10440,
          "time": 39.545415000000006,
          "velocity": 0.8818897637795275
        },
        {
          "duration": 0.07954537499999503,
          "durationTicks": 21,
          "midi": 81,
          "name": "A5",
          "ticks": 10500,
          "time": 39.7726875,
          "velocity": 0.8818897637795275
        },
        {
          "duration": 0.06818174999999371,
          "durationTicks": 18,
          "midi": 83,
          "name": "B5",
          "ticks": 10561,
          "time": 40.00374787500001,
          "velocity": 0.8818897637795275
        },
        {
          "duration": 0.06818175000000792,
          "durationTicks": 18,
          "midi": 78,
          "name": "F#5",
          "ticks": 10622,
          "time": 40.23480825,
          "velocity": 0.8818897637795275
        },
        {
          "duration": 0.07954537499999503,
          "durationTicks": 21,
          "midi": 74,
          "name": "D5",
          "ticks": 10680,
          "time": 40.454505000000005,
          "velocity": 0.8818897637795275
        },
        {
          "duration": 0.07196962500000126,
          "durationTicks": 19,
          "midi": 78,
          "name": "F#5",
          "ticks": 10711,
          "time": 40.571929125000004,
          "velocity": 0.8818897637795275
        },
        {
          "duration": 0.07954537500000214,
          "durationTicks": 21,
          "midi": 71,
          "name": "B4",
          "ticks": 10770,
          "time": 40.79541375,
          "velocity": 0.8818897637795275
        },
        {
          "duration": 0.07954537499999503,
          "durationTicks": 21,
          "midi": 83,
          "name": "B5",
          "ticks": 10920,
          "time": 41.363595000000004,
          "velocity": 0.8818897637795275
        },
        {
          "duration": 0.06818174999999371,
          "durationTicks": 18,
          "midi": 81,
          "name": "A5",
          "ticks": 10981,
          "time": 41.59465537500001,
          "velocity": 0.8818897637795275
        },
        {
          "duration": 0.07196962500000126,
          "durationTicks": 19,
          "midi": 83,
          "name": "B5",
          "ticks": 11041,
          "time": 41.82192787500001,
          "velocity": 0.8818897637795275
        },
        {
          "duration": 0.07954537499999503,
          "durationTicks": 21,
          "midi": 78,
          "name": "F#5",
          "ticks": 11100,
          "time": 42.045412500000005,
          "velocity": 0.8818897637795275
        },
        {
          "duration": 0.07954537500000214,
          "durationTicks": 21,
          "midi": 74,
          "name": "D5",
          "ticks": 11160,
          "time": 42.272685,
          "velocity": 0.8818897637795275
        },
        {
          "duration": 0.07954537500000214,
          "durationTicks": 21,
          "midi": 78,
          "name": "F#5",
          "ticks": 11189,
          "time": 42.382533375,
          "velocity": 0.8818897637795275
        },
        {
          "duration": 0.07954537500000214,
          "durationTicks": 21,
          "midi": 71,
          "name": "B4",
          "ticks": 11250,
          "time": 42.61359375,
          "velocity": 0.8818897637795275
        },
        {
          "duration": 0.08333325000000258,
          "durationTicks": 22,
          "midi": 83,
          "name": "B5",
          "ticks": 11400,
          "time": 43.181775,
          "velocity": 0.8818897637795275
        },
        {
          "duration": 0.07196962500000126,
          "durationTicks": 19,
          "midi": 85,
          "name": "C#6",
          "ticks": 11461,
          "time": 43.41283537500001,
          "velocity": 0.8818897637795275
        },
        {
          "duration": 0.06818175000000082,
          "durationTicks": 18,
          "midi": 86,
          "name": "D6",
          "ticks": 11522,
          "time": 43.643895750000006,
          "velocity": 0.8818897637795275
        },
        {
          "duration": 0.07954537500000214,
          "durationTicks": 21,
          "midi": 85,
          "name": "C#6",
          "ticks": 11580,
          "time": 43.8635925,
          "velocity": 0.8818897637795275
        },
        {
          "duration": 0.07954537500000214,
          "durationTicks": 21,
          "midi": 86,
          "name": "D6",
          "ticks": 11609,
          "time": 43.973440875,
          "velocity": 0.8818897637795275
        },
        {
          "duration": 0.07954537500000214,
          "durationTicks": 21,
          "midi": 86,
          "name": "D6",
          "ticks": 11670,
          "time": 44.20450125,
          "velocity": 0.8818897637795275
        },
        {
          "duration": 0.07196962499999415,
          "durationTicks": 19,
          "midi": 83,
          "name": "B5",
          "ticks": 11730,
          "time": 44.431773750000005,
          "velocity": 0.8818897637795275
        },
        {
          "duration": 0.07954537499999503,
          "durationTicks": 21,
          "midi": 85,
          "name": "C#6",
          "ticks": 11760,
          "time": 44.545410000000004,
          "velocity": 0.8818897637795275
        },
        {
          "duration": 0.07954537500000214,
          "durationTicks": 21,
          "midi": 83,
          "name": "B5",
          "ticks": 11820,
          "time": 44.7726825,
          "velocity": 0.8818897637795275
        },
        {
          "duration": 0.07954537500000214,
          "durationTicks": 21,
          "midi": 85,
          "name": "C#6",
          "ticks": 11849,
          "time": 44.882530875,
          "velocity": 0.8818897637795275
        },
        {
          "duration": 0.07954537499999503,
          "durationTicks": 21,
          "midi": 85,
          "name": "C#6",
          "ticks": 11910,
          "time": 45.113591250000006,
          "velocity": 0.8818897637795275
        },
        {
          "duration": 0.06818175000000082,
          "durationTicks": 18,
          "midi": 81,
          "name": "A5",
          "ticks": 11971,
          "time": 45.344651625000004,
          "velocity": 0.8818897637795275
        },
        {
          "duration": 0.07954537500000214,
          "durationTicks": 21,
          "midi": 83,
          "name": "B5",
          "ticks": 12000,
          "time": 45.4545,
          "velocity": 0.8818897637795275
        },
        {
          "duration": 0.07196962500000126,
          "durationTicks": 19,
          "midi": 81,
          "name": "A5",
          "ticks": 12060,
          "time": 45.6817725,
          "velocity": 0.8818897637795275
        },
        {
          "duration": 0.06818175000000792,
          "durationTicks": 18,
          "midi": 83,
          "name": "B5",
          "ticks": 12090,
          "time": 45.79540875,
          "velocity": 0.8818897637795275
        },
        {
          "duration": 0.07954537499999503,
          "durationTicks": 21,
          "midi": 83,
          "name": "B5",
          "ticks": 12150,
          "time": 46.022681250000005,
          "velocity": 0.8818897637795275
        },
        {
          "duration": 0.06818175000000082,
          "durationTicks": 18,
          "midi": 79,
          "name": "G5",
          "ticks": 12211,
          "time": 46.253741625,
          "velocity": 0.8818897637795275
        },
        {
          "duration": 0.07954537500000214,
          "durationTicks": 21,
          "midi": 83,
          "name": "B5",
          "ticks": 12240,
          "time": 46.36359,
          "velocity": 0.8818897637795275
        },
        {
          "duration": 0.07954537500000924,
          "durationTicks": 21,
          "midi": 83,
          "name": "B5",
          "ticks": 12359,
          "time": 46.814347125,
          "velocity": 0.8818897637795275
        },
        {
          "duration": 0.07954537500000214,
          "durationTicks": 21,
          "midi": 81,
          "name": "A5",
          "ticks": 12420,
          "time": 47.0454075,
          "velocity": 0.8818897637795275
        },
        {
          "duration": 0.07954537500000214,
          "durationTicks": 21,
          "midi": 83,
          "name": "B5",
          "ticks": 12480,
          "time": 47.27268,
          "velocity": 0.8818897637795275
        },
        {
          "duration": 0.06818174999999371,
          "durationTicks": 18,
          "midi": 78,
          "name": "F#5",
          "ticks": 12541,
          "time": 47.50374037500001,
          "velocity": 0.8818897637795275
        },
        {
          "duration": 0.06818175000000082,
          "durationTicks": 18,
          "midi": 74,
          "name": "D5",
          "ticks": 12602,
          "time": 47.734800750000005,
          "velocity": 0.8818897637795275
        },
        {
          "duration": 0.06818175000000082,
          "durationTicks": 18,
          "midi": 78,
          "name": "F#5",
          "ticks": 12631,
          "time": 47.844649125000004,
          "velocity": 0.8818897637795275
        },
        {
          "duration": 0.07196962499999415,
          "durationTicks": 19,
          "midi": 71,
          "name": "B4",
          "ticks": 12691,
          "time": 48.07192162500001,
          "velocity": 0.8818897637795275
        },
        {
          "duration": 0.07954537500000214,
          "durationTicks": 21,
          "midi": 83,
          "name": "B5",
          "ticks": 12839,
          "time": 48.632527125,
          "velocity": 0.8818897637795275
        },
        {
          "duration": 0.07954537500000214,
          "durationTicks": 21,
          "midi": 81,
          "name": "A5",
          "ticks": 12900,
          "time": 48.8635875,
          "velocity": 0.8818897637795275
        },
        {
          "duration": 0.06818174999999371,
          "durationTicks": 18,
          "midi": 83,
          "name": "B5",
          "ticks": 12961,
          "time": 49.09464787500001,
          "velocity": 0.8818897637795275
        },
        {
          "duration": 0.07196962500000126,
          "durationTicks": 19,
          "midi": 78,
          "name": "F#5",
          "ticks": 13021,
          "time": 49.321920375000005,
          "velocity": 0.8818897637795275
        },
        {
          "duration": 0.07954537500000214,
          "durationTicks": 21,
          "midi": 74,
          "name": "D5",
          "ticks": 13080,
          "time": 49.545405,
          "velocity": 0.8818897637795275
        },
        {
          "duration": 0.07196962499999415,
          "durationTicks": 19,
          "midi": 78,
          "name": "F#5",
          "ticks": 13111,
          "time": 49.66282912500001,
          "velocity": 0.8818897637795275
        },
        {
          "duration": 0.07954537500000924,
          "durationTicks": 21,
          "midi": 71,
          "name": "B4",
          "ticks": 13169,
          "time": 49.882525875,
          "velocity": 0.8818897637795275
        },
        {
          "duration": 0.07954537500000214,
          "durationTicks": 21,
          "midi": 83,
          "name": "B5",
          "ticks": 13320,
          "time": 50.454495,
          "velocity": 0.8818897637795275
        },
        {
          "duration": 0.07196962499999415,
          "durationTicks": 19,
          "midi": 85,
          "name": "C#6",
          "ticks": 13380,
          "time": 50.68176750000001,
          "velocity": 0.8818897637795275
        },
        {
          "duration": 0.07196962500000126,
          "durationTicks": 19,
          "midi": 86,
          "name": "D6",
          "ticks": 13441,
          "time": 50.912827875000005,
          "velocity": 0.8818897637795275
        },
        {
          "duration": 0.07954537500000214,
          "durationTicks": 21,
          "midi": 85,
          "name": "C#6",
          "ticks": 13499,
          "time": 51.132524625,
          "velocity": 0.8818897637795275
        },
        {
          "duration": 0.06818174999999371,
          "durationTicks": 18,
          "midi": 86,
          "name": "D6",
          "ticks": 13531,
          "time": 51.25373662500001,
          "velocity": 0.8818897637795275
        },
        {
          "duration": 0.07954537500000924,
          "durationTicks": 21,
          "midi": 86,
          "name": "D6",
          "ticks": 13589,
          "time": 51.473433375,
          "velocity": 0.8818897637795275
        },
        {
          "duration": 0.07954537499999503,
          "durationTicks": 21,
          "midi": 83,
          "name": "B5",
          "ticks": 13650,
          "time": 51.704493750000005,
          "velocity": 0.8818897637795275
        },
        {
          "duration": 0.07196962500000126,
          "durationTicks": 19,
          "midi": 85,
          "name": "C#6",
          "ticks": 13681,
          "time": 51.821917875000004,
          "velocity": 0.8818897637795275
        },
        {
          "duration": 0.07954537500000214,
          "durationTicks": 21,
          "midi": 83,
          "name": "B5",
          "ticks": 13740,
          "time": 52.0454025,
          "velocity": 0.8818897637795275
        },
        {
          "duration": 0.07196962500000126,
          "durationTicks": 19,
          "midi": 85,
          "name": "C#6",
          "ticks": 13771,
          "time": 52.16282662500001,
          "velocity": 0.8818897637795275
        },
        {
          "duration": 0.07954537500000924,
          "durationTicks": 21,
          "midi": 85,
          "name": "C#6",
          "ticks": 13829,
          "time": 52.382523375,
          "velocity": 0.8818897637795275
        },
        {
          "duration": 0.07954537500000214,
          "durationTicks": 21,
          "midi": 81,
          "name": "A5",
          "ticks": 13890,
          "time": 52.613583750000004,
          "velocity": 0.8818897637795275
        },
        {
          "duration": 0.06818175000000082,
          "durationTicks": 18,
          "midi": 83,
          "name": "B5",
          "ticks": 13922,
          "time": 52.73479575,
          "velocity": 0.8818897637795275
        },
        {
          "duration": 0.07954537500000214,
          "durationTicks": 21,
          "midi": 81,
          "name": "A5",
          "ticks": 13980,
          "time": 52.9544925,
          "velocity": 0.8818897637795275
        },
        {
          "duration": 0.07196962500000126,
          "durationTicks": 19,
          "midi": 83,
          "name": "B5",
          "ticks": 14011,
          "time": 53.07191662500001,
          "velocity": 0.8818897637795275
        },
        {
          "duration": 0.06818175000000082,
          "durationTicks": 18,
          "midi": 83,
          "name": "B5",
          "ticks": 14070,
          "time": 53.295401250000005,
          "velocity": 0.8818897637795275
        },
        {
          "duration": 0.07196962500000126,
          "durationTicks": 19,
          "midi": 85,
          "name": "C#6",
          "ticks": 14130,
          "time": 53.52267375,
          "velocity": 0.8818897637795275
        },
        {
          "duration": 0.07954537500000214,
          "durationTicks": 21,
          "midi": 86,
          "name": "D6",
          "ticks": 14159,
          "time": 53.632522125,
          "velocity": 0.8818897637795275
        },
        {
          "duration": 0.06818175000000082,
          "durationTicks": 18,
          "midi": 90,
          "name": "F#6",
          "ticks": 14281,
          "time": 54.094642875000005,
          "velocity": 0.8818897637795275
        },
        {
          "duration": 0.07196962499999415,
          "durationTicks": 19,
          "midi": 88,
          "name": "E6",
          "ticks": 14341,
          "time": 54.32191537500001,
          "velocity": 0.8818897637795275
        },
        {
          "duration": 0.07954537500000214,
          "durationTicks": 21,
          "midi": 90,
          "name": "F#6",
          "ticks": 14400,
          "time": 54.5454,
          "velocity": 0.8818897637795275
        },
        {
          "duration": 0.07196962499999415,
          "durationTicks": 19,
          "midi": 86,
          "name": "D6",
          "ticks": 14460,
          "time": 54.772672500000006,
          "velocity": 0.8818897637795275
        },
        {
          "duration": 0.06818175000000082,
          "durationTicks": 18,
          "midi": 81,
          "name": "A5",
          "ticks": 14521,
          "time": 55.003732875000004,
          "velocity": 0.8818897637795275
        },
        {
          "duration": 0.07954537500000214,
          "durationTicks": 21,
          "midi": 86,
          "name": "D6",
          "ticks": 14550,
          "time": 55.11358125,
          "velocity": 0.8818897637795275
        },
        {
          "duration": 0.06818174999999371,
          "durationTicks": 18,
          "midi": 78,
          "name": "F#5",
          "ticks": 14611,
          "time": 55.34464162500001,
          "velocity": 0.8818897637795275
        },
        {
          "duration": 0.07196962499999415,
          "durationTicks": 19,
          "midi": 90,
          "name": "F#6",
          "ticks": 14761,
          "time": 55.91282287500001,
          "velocity": 0.8818897637795275
        },
        {
          "duration": 0.07954537500000214,
          "durationTicks": 21,
          "midi": 88,
          "name": "E6",
          "ticks": 14819,
          "time": 56.132519625,
          "velocity": 0.8818897637795275
        },
        {
          "duration": 0.07954537499999503,
          "durationTicks": 21,
          "midi": 90,
          "name": "F#6",
          "ticks": 14880,
          "time": 56.363580000000006,
          "velocity": 0.8818897637795275
        },
        {
          "duration": 0.06818175000000082,
          "durationTicks": 18,
          "midi": 86,
          "name": "D6",
          "ticks": 14941,
          "time": 56.594640375000004,
          "velocity": 0.8818897637795275
        },
        {
          "duration": 0.07196962499999415,
          "durationTicks": 19,
          "midi": 81,
          "name": "A5",
          "ticks": 15001,
          "time": 56.82191287500001,
          "velocity": 0.8818897637795275
        },
        {
          "duration": 0.07196962500000126,
          "durationTicks": 19,
          "midi": 86,
          "name": "D6",
          "ticks": 15030,
          "time": 56.93176125,
          "velocity": 0.8818897637795275
        },
        {
          "duration": 0.07196962500000126,
          "durationTicks": 19,
          "midi": 78,
          "name": "F#5",
          "ticks": 15091,
          "time": 57.16282162500001,
          "velocity": 0.8818897637795275
        },
        {
          "duration": 0.07954537500000214,
          "durationTicks": 21,
          "midi": 90,
          "name": "F#6",
          "ticks": 15239,
          "time": 57.723427125,
          "velocity": 0.8818897637795275
        },
        {
          "duration": 0.07954537499999503,
          "durationTicks": 21,
          "midi": 92,
          "name": "G#6",
          "ticks": 15300,
          "time": 57.954487500000006,
          "velocity": 0.8818897637795275
        },
        {
          "duration": 0.07196962500000126,
          "durationTicks": 19,
          "midi": 93,
          "name": "A6",
          "ticks": 15360,
          "time": 58.181760000000004,
          "velocity": 0.8818897637795275
        },
        {
          "duration": 0.07196962499999415,
          "durationTicks": 19,
          "midi": 92,
          "name": "G#6",
          "ticks": 15421,
          "time": 58.412820375,
          "velocity": 0.8818897637795275
        },
        {
          "duration": 0.07196962500000126,
          "durationTicks": 19,
          "midi": 93,
          "name": "A6",
          "ticks": 15450,
          "time": 58.52266875,
          "velocity": 0.8818897637795275
        },
        {
          "duration": 0.06818175000000082,
          "durationTicks": 18,
          "midi": 93,
          "name": "A6",
          "ticks": 15511,
          "time": 58.753729125,
          "velocity": 0.8818897637795275
        },
        {
          "duration": 0.07196962499999415,
          "durationTicks": 19,
          "midi": 90,
          "name": "F#6",
          "ticks": 15569,
          "time": 58.97342587500001,
          "velocity": 0.8818897637795275
        },
        {
          "duration": 0.06818175000000082,
          "durationTicks": 18,
          "midi": 92,
          "name": "G#6",
          "ticks": 15601,
          "time": 59.094637875000004,
          "velocity": 0.8818897637795275
        },
        {
          "duration": 0.07954537499999503,
          "durationTicks": 21,
          "midi": 90,
          "name": "F#6",
          "ticks": 15659,
          "time": 59.31433462500001,
          "velocity": 0.8818897637795275
        },
        {
          "duration": 0.07196962499999415,
          "durationTicks": 19,
          "midi": 92,
          "name": "G#6",
          "ticks": 15690,
          "time": 59.43175875000001,
          "velocity": 0.8818897637795275
        },
        {
          "duration": 0.07196962500000126,
          "durationTicks": 19,
          "midi": 92,
          "name": "G#6",
          "ticks": 15751,
          "time": 59.662819125,
          "velocity": 0.8818897637795275
        },
        {
          "duration": 0.07196962499999415,
          "durationTicks": 19,
          "midi": 88,
          "name": "E6",
          "ticks": 15809,
          "time": 59.88251587500001,
          "velocity": 0.8818897637795275
        },
        {
          "duration": 0.06818175000000082,
          "durationTicks": 18,
          "midi": 90,
          "name": "F#6",
          "ticks": 15841,
          "time": 60.003727875,
          "velocity": 0.8818897637795275
        },
        {
          "duration": 0.07954537499999503,
          "durationTicks": 21,
          "midi": 88,
          "name": "E6",
          "ticks": 15899,
          "time": 60.22342462500001,
          "velocity": 0.8818897637795275
        },
        {
          "duration": 0.06818175000000082,
          "durationTicks": 18,
          "midi": 90,
          "name": "F#6",
          "ticks": 15931,
          "time": 60.344636625,
          "velocity": 0.8818897637795275
        },
        {
          "duration": 0.07954537499998793,
          "durationTicks": 21,
          "midi": 90,
          "name": "F#6",
          "ticks": 15989,
          "time": 60.56433337500001,
          "velocity": 0.8818897637795275
        },
        {
          "duration": 0.07954537500000924,
          "durationTicks": 21,
          "midi": 86,
          "name": "D6",
          "ticks": 16050,
          "time": 60.79539375,
          "velocity": 0.8818897637795275
        },
        {
          "duration": 0.07196962500000126,
          "durationTicks": 19,
          "midi": 90,
          "name": "F#6",
          "ticks": 16081,
          "time": 60.912817875,
          "velocity": 0.8818897637795275
        },
        {
          "duration": 0.06818175000000082,
          "durationTicks": 18,
          "midi": 90,
          "name": "F#6",
          "ticks": 16200,
          "time": 61.363575000000004,
          "velocity": 0.8818897637795275
        },
        {
          "duration": 0.07954537500000214,
          "durationTicks": 21,
          "midi": 88,
          "name": "E6",
          "ticks": 16258,
          "time": 61.58327175,
          "velocity": 0.8818897637795275
        },
        {
          "duration": 0.07196962500000126,
          "durationTicks": 19,
          "midi": 90,
          "name": "F#6",
          "ticks": 16321,
          "time": 61.821907875,
          "velocity": 0.8818897637795275
        },
        {
          "duration": 0.07954537500000214,
          "durationTicks": 21,
          "midi": 86,
          "name": "D6",
          "ticks": 16380,
          "time": 62.045392500000005,
          "velocity": 0.8818897637795275
        },
        {
          "duration": 0.07196962500000126,
          "durationTicks": 19,
          "midi": 81,
          "name": "A5",
          "ticks": 16440,
          "time": 62.272665,
          "velocity": 0.8818897637795275
        },
        {
          "duration": 0.07954537499998793,
          "durationTicks": 21,
          "midi": 86,
          "name": "D6",
          "ticks": 16469,
          "time": 62.38251337500001,
          "velocity": 0.8818897637795275
        },
        {
          "duration": 0.06818175000000082,
          "durationTicks": 18,
          "midi": 78,
          "name": "F#5",
          "ticks": 16530,
          "time": 62.61357375000001,
          "velocity": 0.8818897637795275
        },
        {
          "duration": 0.07196962500000126,
          "durationTicks": 19,
          "midi": 90,
          "name": "F#6",
          "ticks": 16680,
          "time": 63.181755,
          "velocity": 0.8818897637795275
        },
        {
          "duration": 0.07196962500000126,
          "durationTicks": 19,
          "midi": 88,
          "name": "E6",
          "ticks": 16741,
          "time": 63.412815375,
          "velocity": 0.8818897637795275
        },
        {
          "duration": 0.07954537499999503,
          "durationTicks": 21,
          "midi": 90,
          "name": "F#6",
          "ticks": 16799,
          "time": 63.632512125000005,
          "velocity": 0.8818897637795275
        },
        {
          "duration": 0.06818175000000082,
          "durationTicks": 18,
          "midi": 86,
          "name": "D6",
          "ticks": 16860,
          "time": 63.863572500000004,
          "velocity": 0.8818897637795275
        },
        {
          "duration": 0.06818175000000792,
          "durationTicks": 18,
          "midi": 81,
          "name": "A5",
          "ticks": 16921,
          "time": 64.094632875,
          "velocity": 0.8818897637795275
        },
        {
          "duration": 0.07954537500000924,
          "durationTicks": 21,
          "midi": 86,
          "name": "D6",
          "ticks": 16950,
          "time": 64.20448125,
          "velocity": 0.8818897637795275
        },
        {
          "duration": 0.07196962500000836,
          "durationTicks": 19,
          "midi": 78,
          "name": "F#5",
          "ticks": 17010,
          "time": 64.43175375,
          "velocity": 0.8818897637795275
        },
        {
          "duration": 0.06818174999999371,
          "durationTicks": 18,
          "midi": 90,
          "name": "F#6",
          "ticks": 17161,
          "time": 65.00372287500001,
          "velocity": 0.8818897637795275
        },
        {
          "duration": 0.07196962500000836,
          "durationTicks": 19,
          "midi": 92,
          "name": "G#6",
          "ticks": 17219,
          "time": 65.223419625,
          "velocity": 0.8818897637795275
        },
        {
          "duration": 0.07954537500000924,
          "durationTicks": 21,
          "midi": 93,
          "name": "A6",
          "ticks": 17280,
          "time": 65.45448,
          "velocity": 0.8818897637795275
        },
        {
          "duration": 0.07196962500000836,
          "durationTicks": 19,
          "midi": 92,
          "name": "G#6",
          "ticks": 17340,
          "time": 65.6817525,
          "velocity": 0.8818897637795275
        },
        {
          "duration": 0.07954537500000924,
          "durationTicks": 21,
          "midi": 93,
          "name": "A6",
          "ticks": 17370,
          "time": 65.79538875,
          "velocity": 0.8818897637795275
        },
        {
          "duration": 0.07196962500000836,
          "durationTicks": 19,
          "midi": 93,
          "name": "A6",
          "ticks": 17430,
          "time": 66.02266125,
          "velocity": 0.8818897637795275
        },
        {
          "duration": 0.06818175000000792,
          "durationTicks": 18,
          "midi": 90,
          "name": "F#6",
          "ticks": 17491,
          "time": 66.253721625,
          "velocity": 0.8818897637795275
        },
        {
          "duration": 0.06818174999999371,
          "durationTicks": 18,
          "midi": 92,
          "name": "G#6",
          "ticks": 17520,
          "time": 66.36357000000001,
          "velocity": 0.8818897637795275
        },
        {
          "duration": 0.06818174999999371,
          "durationTicks": 18,
          "midi": 90,
          "name": "F#6",
          "ticks": 17581,
          "time": 66.59463037500001,
          "velocity": 0.8818897637795275
        },
        {
          "duration": 0.07954537500000924,
          "durationTicks": 21,
          "midi": 92,
          "name": "G#6",
          "ticks": 17610,
          "time": 66.70447875,
          "velocity": 0.8818897637795275
        },
        {
          "duration": 0.07196962499999415,
          "durationTicks": 19,
          "midi": 92,
          "name": "G#6",
          "ticks": 17670,
          "time": 66.93175125,
          "velocity": 0.8818897637795275
        },
        {
          "duration": 0.06818175000000792,
          "durationTicks": 18,
          "midi": 88,
          "name": "E6",
          "ticks": 17729,
          "time": 67.155235875,
          "velocity": 0.8818897637795275
        },
        {
          "duration": 0.07196962500000836,
          "durationTicks": 19,
          "midi": 90,
          "name": "F#6",
          "ticks": 17760,
          "time": 67.27266,
          "velocity": 0.8818897637795275
        },
        {
          "duration": 0.07954537500000924,
          "durationTicks": 21,
          "midi": 88,
          "name": "E6",
          "ticks": 17818,
          "time": 67.49235675,
          "velocity": 0.8818897637795275
        },
        {
          "duration": 0.06818175000000792,
          "durationTicks": 18,
          "midi": 85,
          "name": "C#6",
          "ticks": 17850,
          "time": 67.61356875,
          "velocity": 0.8818897637795275
        },
        {
          "duration": 0.06818175000000792,
          "durationTicks": 18,
          "midi": 85,
          "name": "C#6",
          "ticks": 17911,
          "time": 67.844629125,
          "velocity": 0.8818897637795275
        },
        {
          "duration": 0.06818174999999371,
          "durationTicks": 18,
          "midi": 88,
          "name": "E6",
          "ticks": 17940,
          "time": 67.95447750000001,
          "velocity": 0.8818897637795275
        },
        {
          "duration": 0.07196962499999415,
          "durationTicks": 19,
          "midi": 90,
          "name": "F#6",
          "ticks": 18000,
          "time": 68.18175000000001,
          "velocity": 0.8818897637795275
        },
        {
          "duration": 0.07196962499999415,
          "durationTicks": 19,
          "midi": 83,
          "name": "B5",
          "ticks": 25799,
          "time": 97.72338712500002,
          "velocity": 0.8818897637795275
        },
        {
          "duration": 0.06818175000000792,
          "durationTicks": 18,
          "midi": 81,
          "name": "A5",
          "ticks": 25860,
          "time": 97.9544475,
          "velocity": 0.8818897637795275
        },
        {
          "duration": 0.07954537500000924,
          "durationTicks": 21,
          "midi": 83,
          "name": "B5",
          "ticks": 25918,
          "time": 98.17414425,
          "velocity": 0.8818897637795275
        },
        {
          "duration": 0.07954537499999503,
          "durationTicks": 21,
          "midi": 78,
          "name": "F#5",
          "ticks": 25979,
          "time": 98.40520462500001,
          "velocity": 0.8818897637795275
        },
        {
          "duration": 0.07196962500000836,
          "durationTicks": 19,
          "midi": 74,
          "name": "D5",
          "ticks": 26039,
          "time": 98.63247712500001,
          "velocity": 0.8818897637795275
        },
        {
          "duration": 0.07954537499999503,
          "durationTicks": 21,
          "midi": 78,
          "name": "F#5",
          "ticks": 26068,
          "time": 98.7423255,
          "velocity": 0.8818897637795275
        },
        {
          "duration": 0.07196962500000836,
          "durationTicks": 19,
          "midi": 71,
          "name": "B4",
          "ticks": 26129,
          "time": 98.973385875,
          "velocity": 0.8818897637795275
        },
        {
          "duration": 0.06818175000000792,
          "durationTicks": 18,
          "midi": 83,
          "name": "B5",
          "ticks": 26280,
          "time": 99.545355,
          "velocity": 0.8818897637795275
        },
        {
          "duration": 0.07954537500000924,
          "durationTicks": 21,
          "midi": 81,
          "name": "A5",
          "ticks": 26338,
          "time": 99.76505175,
          "velocity": 0.8818897637795275
        },
        {
          "duration": 0.07954537500000924,
          "durationTicks": 21,
          "midi": 83,
          "name": "B5",
          "ticks": 26398,
          "time": 99.99232425,
          "velocity": 0.8818897637795275
        },
        {
          "duration": 0.07196962500000836,
          "durationTicks": 19,
          "midi": 78,
          "name": "F#5",
          "ticks": 26459,
          "time": 100.22338462500001,
          "velocity": 0.8818897637795275
        },
        {
          "duration": 0.07954537500000924,
          "durationTicks": 21,
          "midi": 74,
          "name": "D5",
          "ticks": 26517,
          "time": 100.443081375,
          "velocity": 0.8818897637795275
        },
        {
          "duration": 0.06818175000000792,
          "durationTicks": 18,
          "midi": 78,
          "name": "F#5",
          "ticks": 26549,
          "time": 100.564293375,
          "velocity": 0.8818897637795275
        },
        {
          "duration": 0.06818175000000792,
          "durationTicks": 18,
          "midi": 71,
          "name": "B4",
          "ticks": 26610,
          "time": 100.79535375,
          "velocity": 0.8818897637795275
        },
        {
          "duration": 0.06818174999999371,
          "durationTicks": 18,
          "midi": 83,
          "name": "B5",
          "ticks": 26760,
          "time": 101.36353500000001,
          "velocity": 0.8818897637795275
        },
        {
          "duration": 0.07954537500000924,
          "durationTicks": 21,
          "midi": 85,
          "name": "C#6",
          "ticks": 26818,
          "time": 101.58323175,
          "velocity": 0.8818897637795275
        },
        {
          "duration": 0.06818175000000792,
          "durationTicks": 18,
          "midi": 86,
          "name": "D6",
          "ticks": 26879,
          "time": 101.81429212500001,
          "velocity": 0.8818897637795275
        },
        {
          "duration": 0.06818175000000792,
          "durationTicks": 18,
          "midi": 85,
          "name": "C#6",
          "ticks": 26940,
          "time": 102.0453525,
          "velocity": 0.8818897637795275
        },
        {
          "duration": 0.07954537499999503,
          "durationTicks": 21,
          "midi": 86,
          "name": "D6",
          "ticks": 26969,
          "time": 102.155200875,
          "velocity": 0.8818897637795275
        },
        {
          "duration": 0.07196962499999415,
          "durationTicks": 19,
          "midi": 86,
          "name": "D6",
          "ticks": 27029,
          "time": 102.38247337500002,
          "velocity": 0.8818897637795275
        },
        {
          "duration": 0.07954537500000924,
          "durationTicks": 21,
          "midi": 83,
          "name": "B5",
          "ticks": 27087,
          "time": 102.602170125,
          "velocity": 0.8818897637795275
        },
        {
          "duration": 0.07196962499999415,
          "durationTicks": 19,
          "midi": 85,
          "name": "C#6",
          "ticks": 27119,
          "time": 102.72338212500001,
          "velocity": 0.8818897637795275
        },
        {
          "duration": 0.06818174999999371,
          "durationTicks": 18,
          "midi": 83,
          "name": "B5",
          "ticks": 27180,
          "time": 102.95444250000001,
          "velocity": 0.8818897637795275
        },
        {
          "duration": 0.06818175000000792,
          "durationTicks": 18,
          "midi": 85,
          "name": "C#6",
          "ticks": 27209,
          "time": 103.06429087500001,
          "velocity": 0.8818897637795275
        },
        {
          "duration": 0.06818174999999371,
          "durationTicks": 18,
          "midi": 85,
          "name": "C#6",
          "ticks": 27270,
          "time": 103.29535125000001,
          "velocity": 0.8818897637795275
        },
        {
          "duration": 0.07954537499999503,
          "durationTicks": 21,
          "midi": 81,
          "name": "A5",
          "ticks": 27328,
          "time": 103.51504800000001,
          "velocity": 0.8818897637795275
        },
        {
          "duration": 0.07196962500000836,
          "durationTicks": 19,
          "midi": 83,
          "name": "B5",
          "ticks": 27359,
          "time": 103.632472125,
          "velocity": 0.8818897637795275
        },
        {
          "duration": 0.07954537500000924,
          "durationTicks": 21,
          "midi": 81,
          "name": "A5",
          "ticks": 27417,
          "time": 103.852168875,
          "velocity": 0.8818897637795275
        },
        {
          "duration": 0.07196962499999415,
          "durationTicks": 19,
          "midi": 83,
          "name": "B5",
          "ticks": 27449,
          "time": 103.97338087500002,
          "velocity": 0.8818897637795275
        },
        {
          "duration": 0.06818175000000792,
          "durationTicks": 18,
          "midi": 83,
          "name": "B5",
          "ticks": 27510,
          "time": 104.20444125,
          "velocity": 0.8818897637795275
        },
        {
          "duration": 0.07954537500000924,
          "durationTicks": 21,
          "midi": 79,
          "name": "G5",
          "ticks": 27568,
          "time": 104.424138,
          "velocity": 0.8818897637795275
        },
        {
          "duration": 0.06818174999999371,
          "durationTicks": 18,
          "midi": 83,
          "name": "B5",
          "ticks": 27600,
          "time": 104.54535000000001,
          "velocity": 0.8818897637795275
        },
        {
          "duration": 0.07954537499999503,
          "durationTicks": 21,
          "midi": 83,
          "name": "B5",
          "ticks": 27718,
          "time": 104.99231925000001,
          "velocity": 0.8818897637795275
        },
        {
          "duration": 0.07196962500000836,
          "durationTicks": 19,
          "midi": 81,
          "name": "A5",
          "ticks": 27779,
          "time": 105.223379625,
          "velocity": 0.8818897637795275
        },
        {
          "duration": 0.07954537500000924,
          "durationTicks": 21,
          "midi": 83,
          "name": "B5",
          "ticks": 27837,
          "time": 105.443076375,
          "velocity": 0.8818897637795275
        },
        {
          "duration": 0.07954537500000924,
          "durationTicks": 21,
          "midi": 78,
          "name": "F#5",
          "ticks": 27898,
          "time": 105.67413675,
          "velocity": 0.8818897637795275
        },
        {
          "duration": 0.06818174999999371,
          "durationTicks": 18,
          "midi": 74,
          "name": "D5",
          "ticks": 27959,
          "time": 105.90519712500002,
          "velocity": 0.8818897637795275
        },
        {
          "duration": 0.07954537500000924,
          "durationTicks": 21,
          "midi": 78,
          "name": "F#5",
          "ticks": 27988,
          "time": 106.0150455,
          "velocity": 0.8818897637795275
        },
        {
          "duration": 0.07954537500000924,
          "durationTicks": 21,
          "midi": 71,
          "name": "B4",
          "ticks": 28048,
          "time": 106.242318,
          "velocity": 0.8818897637795275
        },
        {
          "duration": 0.06818175000000792,
          "durationTicks": 18,
          "midi": 83,
          "name": "B5",
          "ticks": 28199,
          "time": 106.814287125,
          "velocity": 0.8818897637795275
        },
        {
          "duration": 0.06818175000000792,
          "durationTicks": 18,
          "midi": 81,
          "name": "A5",
          "ticks": 28260,
          "time": 107.0453475,
          "velocity": 0.8818897637795275
        },
        {
          "duration": 0.07954537500000924,
          "durationTicks": 21,
          "midi": 83,
          "name": "B5",
          "ticks": 28318,
          "time": 107.26504425,
          "velocity": 0.8818897637795275
        },
        {
          "duration": 0.07954537500000924,
          "durationTicks": 21,
          "midi": 78,
          "name": "F#5",
          "ticks": 28378,
          "time": 107.49231675,
          "velocity": 0.8818897637795275
        },
        {
          "duration": 0.07196962499999415,
          "durationTicks": 19,
          "midi": 74,
          "name": "D5",
          "ticks": 28439,
          "time": 107.72337712500001,
          "velocity": 0.8818897637795275
        },
        {
          "duration": 0.07954537500000924,
          "durationTicks": 21,
          "midi": 78,
          "name": "F#5",
          "ticks": 28468,
          "time": 107.8332255,
          "velocity": 0.8818897637795275
        },
        {
          "duration": 0.06818175000000792,
          "durationTicks": 18,
          "midi": 71,
          "name": "B4",
          "ticks": 28529,
          "time": 108.06428587500001,
          "velocity": 0.8818897637795275
        },
        {
          "duration": 0.07196962500000836,
          "durationTicks": 19,
          "midi": 83,
          "name": "B5",
          "ticks": 28679,
          "time": 108.632467125,
          "velocity": 0.8818897637795275
        },
        {
          "duration": 0.07954537500000924,
          "durationTicks": 21,
          "midi": 85,
          "name": "C#6",
          "ticks": 28737,
          "time": 108.852163875,
          "velocity": 0.8818897637795275
        },
        {
          "duration": 0.07954537500000924,
          "durationTicks": 21,
          "midi": 86,
          "name": "D6",
          "ticks": 28798,
          "time": 109.08322425,
          "velocity": 0.8818897637795275
        },
        {
          "duration": 0.06818174999999371,
          "durationTicks": 18,
          "midi": 85,
          "name": "C#6",
          "ticks": 28859,
          "time": 109.31428462500001,
          "velocity": 0.8818897637795275
        },
        {
          "duration": 0.07954537500000924,
          "durationTicks": 21,
          "midi": 86,
          "name": "D6",
          "ticks": 28888,
          "time": 109.424133,
          "velocity": 0.8818897637795275
        },
        {
          "duration": 0.06818175000000792,
          "durationTicks": 18,
          "midi": 86,
          "name": "D6",
          "ticks": 28949,
          "time": 109.65519337500001,
          "velocity": 0.8818897637795275
        },
        {
          "duration": 0.07196962500000836,
          "durationTicks": 19,
          "midi": 83,
          "name": "B5",
          "ticks": 29009,
          "time": 109.88246587500001,
          "velocity": 0.8818897637795275
        },
        {
          "duration": 0.07954537499999503,
          "durationTicks": 21,
          "midi": 85,
          "name": "C#6",
          "ticks": 29038,
          "time": 109.99231425,
          "velocity": 0.8818897637795275
        },
        {
          "duration": 0.07196962500000836,
          "durationTicks": 19,
          "midi": 83,
          "name": "B5",
          "ticks": 29099,
          "time": 110.223374625,
          "velocity": 0.8818897637795275
        },
        {
          "duration": 0.07954537500000924,
          "durationTicks": 21,
          "midi": 85,
          "name": "C#6",
          "ticks": 29128,
          "time": 110.333223,
          "velocity": 0.8818897637795275
        },
        {
          "duration": 0.06818174999999371,
          "durationTicks": 18,
          "midi": 85,
          "name": "C#6",
          "ticks": 29189,
          "time": 110.56428337500002,
          "velocity": 0.8818897637795275
        },
        {
          "duration": 0.06818174999999371,
          "durationTicks": 18,
          "midi": 81,
          "name": "A5",
          "ticks": 29250,
          "time": 110.79534375000001,
          "velocity": 0.8818897637795275
        },
        {
          "duration": 0.06818174999999371,
          "durationTicks": 18,
          "midi": 83,
          "name": "B5",
          "ticks": 29279,
          "time": 110.90519212500001,
          "velocity": 0.8818897637795275
        },
        {
          "duration": 0.07196962499999415,
          "durationTicks": 19,
          "midi": 81,
          "name": "A5",
          "ticks": 29339,
          "time": 111.13246462500001,
          "velocity": 0.8818897637795275
        },
        {
          "duration": 0.07196962500002257,
          "durationTicks": 19,
          "midi": 83,
          "name": "B5",
          "ticks": 29368,
          "time": 111.242313,
          "velocity": 0.8818897637795275
        },
        {
          "duration": 0.07196962500000836,
          "durationTicks": 19,
          "midi": 83,
          "name": "B5",
          "ticks": 29429,
          "time": 111.47337337500001,
          "velocity": 0.8818897637795275
        },
        {
          "duration": 0.07954537500000924,
          "durationTicks": 21,
          "midi": 85,
          "name": "C#6",
          "ticks": 29487,
          "time": 111.693070125,
          "velocity": 0.8818897637795275
        },
        {
          "duration": 0.06818175000000792,
          "durationTicks": 18,
          "midi": 86,
          "name": "D6",
          "ticks": 29519,
          "time": 111.814282125,
          "velocity": 0.8818897637795275
        },
        {
          "duration": 0.07954537500000924,
          "durationTicks": 21,
          "midi": 90,
          "name": "F#6",
          "ticks": 29638,
          "time": 112.26503925,
          "velocity": 0.8818897637795275
        },
        {
          "duration": 0.07196962500000836,
          "durationTicks": 19,
          "midi": 88,
          "name": "E6",
          "ticks": 29698,
          "time": 112.49231175,
          "velocity": 0.8818897637795275
        },
        {
          "duration": 0.07196962499999415,
          "durationTicks": 19,
          "midi": 90,
          "name": "F#6",
          "ticks": 29759,
          "time": 112.72337212500001,
          "velocity": 0.8818897637795275
        },
        {
          "duration": 0.07954537499999503,
          "durationTicks": 21,
          "midi": 86,
          "name": "D6",
          "ticks": 29817,
          "time": 112.94306887500001,
          "velocity": 0.8818897637795275
        },
        {
          "duration": 0.07954537499999503,
          "durationTicks": 21,
          "midi": 81,
          "name": "A5",
          "ticks": 29878,
          "time": 113.17412925000001,
          "velocity": 0.8818897637795275
        },
        {
          "duration": 0.07954537500000924,
          "durationTicks": 21,
          "midi": 86,
          "name": "D6",
          "ticks": 29907,
          "time": 113.283977625,
          "velocity": 0.8818897637795275
        },
        {
          "duration": 0.07954537500000924,
          "durationTicks": 21,
          "midi": 78,
          "name": "F#5",
          "ticks": 29968,
          "time": 113.515038,
          "velocity": 0.8818897637795275
        },
        {
          "duration": 0.07954537500000924,
          "durationTicks": 21,
          "midi": 90,
          "name": "F#6",
          "ticks": 30118,
          "time": 114.08321925,
          "velocity": 0.8818897637795275
        },
        {
          "duration": 0.06818175000000792,
          "durationTicks": 18,
          "midi": 88,
          "name": "E6",
          "ticks": 30179,
          "time": 114.31427962500001,
          "velocity": 0.8818897637795275
        },
        {
          "duration": 0.06818174999999371,
          "durationTicks": 18,
          "midi": 90,
          "name": "F#6",
          "ticks": 30240,
          "time": 114.54534000000001,
          "velocity": 0.8818897637795275
        },
        {
          "duration": 0.06818174999999371,
          "durationTicks": 18,
          "midi": 86,
          "name": "D6",
          "ticks": 30298,
          "time": 114.76503675000001,
          "velocity": 0.8818897637795275
        },
        {
          "duration": 0.07196962500000836,
          "durationTicks": 19,
          "midi": 81,
          "name": "A5",
          "ticks": 30358,
          "time": 114.99230925,
          "velocity": 0.8818897637795275
        },
        {
          "duration": 0.07954537500000924,
          "durationTicks": 21,
          "midi": 86,
          "name": "D6",
          "ticks": 30387,
          "time": 115.102157625,
          "velocity": 0.8818897637795275
        },
        {
          "duration": 0.07954537500000924,
          "durationTicks": 21,
          "midi": 78,
          "name": "F#5",
          "ticks": 30448,
          "time": 115.333218,
          "velocity": 0.8818897637795275
        },
        {
          "duration": 0.06818175000000792,
          "durationTicks": 18,
          "midi": 90,
          "name": "F#6",
          "ticks": 30599,
          "time": 115.90518712500001,
          "velocity": 0.8818897637795275
        },
        {
          "duration": 0.07196962499999415,
          "durationTicks": 19,
          "midi": 92,
          "name": "G#6",
          "ticks": 30659,
          "time": 116.13245962500001,
          "velocity": 0.8818897637795275
        },
        {
          "duration": 0.07954537499999503,
          "durationTicks": 21,
          "midi": 93,
          "name": "A6",
          "ticks": 30717,
          "time": 116.352156375,
          "velocity": 0.8818897637795275
        },
        {
          "duration": 0.07954537499999503,
          "durationTicks": 21,
          "midi": 92,
          "name": "G#6",
          "ticks": 30778,
          "time": 116.58321675000002,
          "velocity": 0.8818897637795275
        },
        {
          "duration": 0.07954537499998082,
          "durationTicks": 21,
          "midi": 93,
          "name": "A6",
          "ticks": 30807,
          "time": 116.69306512500002,
          "velocity": 0.8818897637795275
        },
        {
          "duration": 0.07954537500000924,
          "durationTicks": 21,
          "midi": 93,
          "name": "A6",
          "ticks": 30868,
          "time": 116.92412550000002,
          "velocity": 0.8818897637795275
        },
        {
          "duration": 0.07954537499999503,
          "durationTicks": 21,
          "midi": 90,
          "name": "F#6",
          "ticks": 30926,
          "time": 117.14382225,
          "velocity": 0.8818897637795275
        },
        {
          "duration": 0.07954537500000924,
          "durationTicks": 21,
          "midi": 92,
          "name": "G#6",
          "ticks": 30958,
          "time": 117.26503425000001,
          "velocity": 0.8818897637795275
        },
        {
          "duration": 0.07196962499999415,
          "durationTicks": 19,
          "midi": 90,
          "name": "F#6",
          "ticks": 31018,
          "time": 117.49230675000001,
          "velocity": 0.8818897637795275
        },
        {
          "duration": 0.07954537499996661,
          "durationTicks": 21,
          "midi": 92,
          "name": "G#6",
          "ticks": 31047,
          "time": 117.60215512500002,
          "velocity": 0.8818897637795275
        },
        {
          "duration": 0.07954537500000924,
          "durationTicks": 21,
          "midi": 92,
          "name": "G#6",
          "ticks": 31108,
          "time": 117.83321550000001,
          "velocity": 0.8818897637795275
        },
        {
          "duration": 0.06818174999999371,
          "durationTicks": 18,
          "midi": 88,
          "name": "E6",
          "ticks": 31169,
          "time": 118.064275875,
          "velocity": 0.8818897637795275
        },
        {
          "duration": 0.07954537499999503,
          "durationTicks": 21,
          "midi": 90,
          "name": "F#6",
          "ticks": 31198,
          "time": 118.17412425000002,
          "velocity": 0.8818897637795275
        },
        {
          "duration": 0.0681817499999795,
          "durationTicks": 18,
          "midi": 88,
          "name": "E6",
          "ticks": 31259,
          "time": 118.40518462500002,
          "velocity": 0.8818897637795275
        },
        {
          "duration": 0.07954537500000924,
          "durationTicks": 21,
          "midi": 90,
          "name": "F#6",
          "ticks": 31288,
          "time": 118.51503300000002,
          "velocity": 0.8818897637795275
        },
        {
          "duration": 0.07196962499997994,
          "durationTicks": 19,
          "midi": 90,
          "name": "F#6",
          "ticks": 31348,
          "time": 118.74230550000001,
          "velocity": 0.8818897637795275
        },
        {
          "duration": 0.07196962499997994,
          "durationTicks": 19,
          "midi": 86,
          "name": "D6",
          "ticks": 31409,
          "time": 118.97336587500001,
          "velocity": 0.8818897637795275
        },
        {
          "duration": 0.07196962499999415,
          "durationTicks": 19,
          "midi": 90,
          "name": "F#6",
          "ticks": 31438,
          "time": 119.08321425000001,
          "velocity": 0.8818897637795275
        },
        {
          "duration": 0.07954537499998082,
          "durationTicks": 21,
          "midi": 90,
          "name": "F#6",
          "ticks": 31557,
          "time": 119.53397137500002,
          "velocity": 0.8818897637795275
        },
        {
          "duration": 0.07954537499999503,
          "durationTicks": 21,
          "midi": 88,
          "name": "E6",
          "ticks": 31618,
          "time": 119.76503175000002,
          "velocity": 0.8818897637795275
        },
        {
          "duration": 0.07196962499997994,
          "durationTicks": 19,
          "midi": 90,
          "name": "F#6",
          "ticks": 31678,
          "time": 119.99230425000002,
          "velocity": 0.8818897637795275
        },
        {
          "duration": 0.07196962499997994,
          "durationTicks": 19,
          "midi": 86,
          "name": "D6",
          "ticks": 31739,
          "time": 120.22336462500002,
          "velocity": 0.8818897637795275
        },
        {
          "duration": 0.07954537499998082,
          "durationTicks": 21,
          "midi": 81,
          "name": "A5",
          "ticks": 31797,
          "time": 120.44306137500001,
          "velocity": 0.8818897637795275
        },
        {
          "duration": 0.06818174999999371,
          "durationTicks": 18,
          "midi": 86,
          "name": "D6",
          "ticks": 31829,
          "time": 120.56427337500001,
          "velocity": 0.8818897637795275
        },
        {
          "duration": 0.07954537499996661,
          "durationTicks": 21,
          "midi": 78,
          "name": "F#5",
          "ticks": 31887,
          "time": 120.78397012500002,
          "velocity": 0.8818897637795275
        },
        {
          "duration": 0.07954537499998082,
          "durationTicks": 21,
          "midi": 90,
          "name": "F#6",
          "ticks": 32037,
          "time": 121.35215137500002,
          "velocity": 0.8818897637795275
        },
        {
          "duration": 0.07196962499997994,
          "durationTicks": 19,
          "midi": 88,
          "name": "E6",
          "ticks": 32098,
          "time": 121.58321175000002,
          "velocity": 0.8818897637795275
        },
        {
          "duration": 0.0681817499999795,
          "durationTicks": 18,
          "midi": 90,
          "name": "F#6",
          "ticks": 32159,
          "time": 121.81427212500002,
          "velocity": 0.8818897637795275
        },
        {
          "duration": 0.07954537499998082,
          "durationTicks": 21,
          "midi": 86,
          "name": "D6",
          "ticks": 32217,
          "time": 122.03396887500001,
          "velocity": 0.8818897637795275
        },
        {
          "duration": 0.07954537500000924,
          "durationTicks": 21,
          "midi": 81,
          "name": "A5",
          "ticks": 32278,
          "time": 122.26502925000001,
          "velocity": 0.8818897637795275
        },
        {
          "duration": 0.07954537499996661,
          "durationTicks": 21,
          "midi": 86,
          "name": "D6",
          "ticks": 32307,
          "time": 122.37487762500002,
          "velocity": 0.8818897637795275
        },
        {
          "duration": 0.07954537499998082,
          "durationTicks": 21,
          "midi": 78,
          "name": "F#5",
          "ticks": 32367,
          "time": 122.60215012500002,
          "velocity": 0.8818897637795275
        },
        {
          "duration": 0.07954537500000924,
          "durationTicks": 21,
          "midi": 90,
          "name": "F#6",
          "ticks": 32518,
          "time": 123.17411925000002,
          "velocity": 0.8818897637795275
        },
        {
          "duration": 0.0681817499999795,
          "durationTicks": 18,
          "midi": 92,
          "name": "G#6",
          "ticks": 32579,
          "time": 123.40517962500002,
          "velocity": 0.8818897637795275
        },
        {
          "duration": 0.07196962499997994,
          "durationTicks": 19,
          "midi": 93,
          "name": "A6",
          "ticks": 32639,
          "time": 123.63245212500001,
          "velocity": 0.8818897637795275
        },
        {
          "duration": 0.07954537499996661,
          "durationTicks": 21,
          "midi": 92,
          "name": "G#6",
          "ticks": 32697,
          "time": 123.85214887500003,
          "velocity": 0.8818897637795275
        },
        {
          "duration": 0.07196962499997994,
          "durationTicks": 19,
          "midi": 93,
          "name": "A6",
          "ticks": 32729,
          "time": 123.97336087500001,
          "velocity": 0.8818897637795275
        },
        {
          "duration": 0.07196962499997994,
          "durationTicks": 19,
          "midi": 93,
          "name": "A6",
          "ticks": 32787,
          "time": 124.19305762500002,
          "velocity": 0.8818897637795275
        },
        {
          "duration": 0.07954537499999503,
          "durationTicks": 21,
          "midi": 90,
          "name": "F#6",
          "ticks": 32848,
          "time": 124.42411800000002,
          "velocity": 0.8818897637795275
        },
        {
          "duration": 0.07954537499998082,
          "durationTicks": 21,
          "midi": 92,
          "name": "G#6",
          "ticks": 32877,
          "time": 124.53396637500002,
          "velocity": 0.8818897637795275
        },
        {
          "duration": 0.07954537500000924,
          "durationTicks": 21,
          "midi": 90,
          "name": "F#6",
          "ticks": 32938,
          "time": 124.76502675000002,
          "velocity": 0.8818897637795275
        },
        {
          "duration": 0.07954537499998082,
          "durationTicks": 21,
          "midi": 92,
          "name": "G#6",
          "ticks": 32967,
          "time": 124.87487512500002,
          "velocity": 0.8818897637795275
        },
        {
          "duration": 0.07954537499998082,
          "durationTicks": 21,
          "midi": 92,
          "name": "G#6",
          "ticks": 33027,
          "time": 125.10214762500001,
          "velocity": 0.8818897637795275
        },
        {
          "duration": 0.07196962499999415,
          "durationTicks": 19,
          "midi": 88,
          "name": "E6",
          "ticks": 33088,
          "time": 125.33320800000001,
          "velocity": 0.8818897637795275
        },
        {
          "duration": 0.07954537499996661,
          "durationTicks": 21,
          "midi": 90,
          "name": "F#6",
          "ticks": 33117,
          "time": 125.44305637500003,
          "velocity": 0.8818897637795275
        },
        {
          "duration": 0.07954537500000924,
          "durationTicks": 21,
          "midi": 88,
          "name": "E6",
          "ticks": 33178,
          "time": 125.67411675000001,
          "velocity": 0.8818897637795275
        },
        {
          "duration": 0.07954537499998082,
          "durationTicks": 21,
          "midi": 85,
          "name": "C#6",
          "ticks": 33207,
          "time": 125.78396512500002,
          "velocity": 0.8818897637795275
        },
        {
          "duration": 0.07954537499999503,
          "durationTicks": 21,
          "midi": 85,
          "name": "C#6",
          "ticks": 33268,
          "time": 126.01502550000002,
          "velocity": 0.8818897637795275
        },
        {
          "duration": 0.07954537499998082,
          "durationTicks": 21,
          "midi": 88,
          "name": "E6",
          "ticks": 33297,
          "time": 126.12487387500002,
          "velocity": 0.8818897637795275
        },
        {
          "duration": 0.07954537499998082,
          "durationTicks": 21,
          "midi": 90,
          "name": "F#6",
          "ticks": 33357,
          "time": 126.35214637500002,
          "velocity": 0.8818897637795275
        },
        {
          "duration": 0.07954537500000924,
          "durationTicks": 21,
          "midi": 83,
          "name": "B5",
          "ticks": 33476,
          "time": 126.8029035,
          "velocity": 0.8818897637795275
        },
        {
          "duration": 0.07954537499996661,
          "durationTicks": 21,
          "midi": 81,
          "name": "A5",
          "ticks": 33537,
          "time": 127.03396387500003,
          "velocity": 0.8818897637795275
        },
        {
          "duration": 0.07954537500000924,
          "durationTicks": 21,
          "midi": 83,
          "name": "B5",
          "ticks": 33598,
          "time": 127.26502425000001,
          "velocity": 0.8818897637795275
        },
        {
          "duration": 0.07196962499997994,
          "durationTicks": 19,
          "midi": 78,
          "name": "F#5",
          "ticks": 33658,
          "time": 127.49229675000002,
          "velocity": 0.8818897637795275
        },
        {
          "duration": 0.07196962499999415,
          "durationTicks": 19,
          "midi": 74,
          "name": "D5",
          "ticks": 33719,
          "time": 127.723357125,
          "velocity": 0.8818897637795275
        },
        {
          "duration": 0.07954537499996661,
          "durationTicks": 21,
          "midi": 78,
          "name": "F#5",
          "ticks": 33777,
          "time": 127.94305387500002,
          "velocity": 0.8818897637795275
        },
        {
          "duration": 0.06818175000000792,
          "durationTicks": 18,
          "midi": 71,
          "name": "B4",
          "ticks": 33838,
          "time": 128.17411425,
          "velocity": 0.8818897637795275
        },
        {
          "duration": 0.07196962500000836,
          "durationTicks": 19,
          "midi": 83,
          "name": "B5",
          "ticks": 33959,
          "time": 128.632447125,
          "velocity": 0.8818897637795275
        },
        {
          "duration": 0.07954537499998082,
          "durationTicks": 21,
          "midi": 81,
          "name": "A5",
          "ticks": 34017,
          "time": 128.85214387500002,
          "velocity": 0.8818897637795275
        },
        {
          "duration": 0.07196962499997994,
          "durationTicks": 19,
          "midi": 83,
          "name": "B5",
          "ticks": 34078,
          "time": 129.08320425000002,
          "velocity": 0.8818897637795275
        },
        {
          "duration": 0.0681817499999795,
          "durationTicks": 18,
          "midi": 78,
          "name": "F#5",
          "ticks": 34139,
          "time": 129.31426462500002,
          "velocity": 0.8818897637795275
        },
        {
          "duration": 0.07954537499998082,
          "durationTicks": 21,
          "midi": 74,
          "name": "D5",
          "ticks": 34197,
          "time": 129.53396137500002,
          "velocity": 0.8818897637795275
        },
        {
          "duration": 0.07954537500000924,
          "durationTicks": 21,
          "midi": 78,
          "name": "F#5",
          "ticks": 34258,
          "time": 129.76502175000002,
          "velocity": 0.8818897637795275
        },
        {
          "duration": 0.07196962499997994,
          "durationTicks": 19,
          "midi": 71,
          "name": "B4",
          "ticks": 34318,
          "time": 129.99229425000001,
          "velocity": 0.8818897637795275
        },
        {
          "duration": 0.07954537499998082,
          "durationTicks": 21,
          "midi": 83,
          "name": "B5",
          "ticks": 34437,
          "time": 130.443051375,
          "velocity": 0.8818897637795275
        },
        {
          "duration": 0.06818175000000792,
          "durationTicks": 18,
          "midi": 85,
          "name": "C#6",
          "ticks": 34498,
          "time": 130.67411175,
          "velocity": 0.8818897637795275
        },
        {
          "duration": 0.06818175000000792,
          "durationTicks": 18,
          "midi": 86,
          "name": "D6",
          "ticks": 34559,
          "time": 130.905172125,
          "velocity": 0.8818897637795275
        },
        {
          "duration": 0.0795453749999524,
          "durationTicks": 21,
          "midi": 85,
          "name": "C#6",
          "ticks": 34617,
          "time": 131.12486887500003,
          "velocity": 0.8818897637795275
        },
        {
          "duration": 0.07196962499997994,
          "durationTicks": 19,
          "midi": 86,
          "name": "D6",
          "ticks": 34648,
          "time": 131.24229300000002,
          "velocity": 0.8818897637795275
        },
        {
          "duration": 0.07196962499997994,
          "durationTicks": 19,
          "midi": 86,
          "name": "D6",
          "ticks": 34709,
          "time": 131.47335337500002,
          "velocity": 0.8818897637795275
        },
        {
          "duration": 0.07954537499998082,
          "durationTicks": 21,
          "midi": 83,
          "name": "B5",
          "ticks": 34767,
          "time": 131.693050125,
          "velocity": 0.8818897637795275
        },
        {
          "duration": 0.07954537500000924,
          "durationTicks": 21,
          "midi": 85,
          "name": "C#6",
          "ticks": 34796,
          "time": 131.8028985,
          "velocity": 0.8818897637795275
        },
        {
          "duration": 0.07954537499998082,
          "durationTicks": 21,
          "midi": 83,
          "name": "B5",
          "ticks": 34857,
          "time": 132.03395887500002,
          "velocity": 0.8818897637795275
        },
        {
          "duration": 0.0681817499999795,
          "durationTicks": 18,
          "midi": 85,
          "name": "C#6",
          "ticks": 34889,
          "time": 132.155170875,
          "velocity": 0.8818897637795275
        },
        {
          "duration": 0.07954537499998082,
          "durationTicks": 21,
          "midi": 85,
          "name": "C#6",
          "ticks": 34947,
          "time": 132.374867625,
          "velocity": 0.8818897637795275
        },
        {
          "duration": 0.0795453749999524,
          "durationTicks": 21,
          "midi": 81,
          "name": "A5",
          "ticks": 35007,
          "time": 132.60214012500003,
          "velocity": 0.8818897637795275
        },
        {
          "duration": 0.07196962499997994,
          "durationTicks": 19,
          "midi": 83,
          "name": "B5",
          "ticks": 35039,
          "time": 132.72335212500002,
          "velocity": 0.8818897637795275
        },
        {
          "duration": 0.07954537499998082,
          "durationTicks": 21,
          "midi": 81,
          "name": "A5",
          "ticks": 35097,
          "time": 132.94304887500002,
          "velocity": 0.8818897637795275
        },
        {
          "duration": 0.06818175000000792,
          "durationTicks": 18,
          "midi": 83,
          "name": "B5",
          "ticks": 35129,
          "time": 133.064260875,
          "velocity": 0.8818897637795275
        },
        {
          "duration": 0.07954537499998082,
          "durationTicks": 21,
          "midi": 83,
          "name": "B5",
          "ticks": 35187,
          "time": 133.28395762500003,
          "velocity": 0.8818897637795275
        },
        {
          "duration": 0.07954537500000924,
          "durationTicks": 21,
          "midi": 81,
          "name": "A5",
          "ticks": 35248,
          "time": 133.51501800000003,
          "velocity": 0.8818897637795275
        },
        {
          "duration": 0.07954537499998082,
          "durationTicks": 21,
          "midi": 83,
          "name": "B5",
          "ticks": 35277,
          "time": 133.624866375,
          "velocity": 0.8818897637795275
        },
        {
          "duration": 0.07196962500000836,
          "durationTicks": 19,
          "midi": 83,
          "name": "B5",
          "ticks": 35398,
          "time": 134.08319925,
          "velocity": 0.8818897637795275
        },
        {
          "duration": 0.06818175000000792,
          "durationTicks": 18,
          "midi": 81,
          "name": "A5",
          "ticks": 35459,
          "time": 134.314259625,
          "velocity": 0.8818897637795275
        },
        {
          "duration": 0.07954537499998082,
          "durationTicks": 21,
          "midi": 83,
          "name": "B5",
          "ticks": 35517,
          "time": 134.53395637500003,
          "velocity": 0.8818897637795275
        },
        {
          "duration": 0.0681817499999795,
          "durationTicks": 18,
          "midi": 78,
          "name": "F#5",
          "ticks": 35578,
          "time": 134.76501675000003,
          "velocity": 0.8818897637795275
        },
        {
          "duration": 0.07196962499997994,
          "durationTicks": 19,
          "midi": 74,
          "name": "D5",
          "ticks": 35638,
          "time": 134.99228925000003,
          "velocity": 0.8818897637795275
        },
        {
          "duration": 0.08333325000000968,
          "durationTicks": 22,
          "midi": 78,
          "name": "F#5",
          "ticks": 35696,
          "time": 135.211986,
          "velocity": 0.8818897637795275
        },
        {
          "duration": 0.07954537499998082,
          "durationTicks": 21,
          "midi": 71,
          "name": "B4",
          "ticks": 35757,
          "time": 135.44304637500002,
          "velocity": 0.8818897637795275
        },
        {
          "duration": 0.0681817499999795,
          "durationTicks": 18,
          "midi": 83,
          "name": "B5",
          "ticks": 35879,
          "time": 135.90516712500002,
          "velocity": 0.8818897637795275
        },
        {
          "duration": 0.07954537499998082,
          "durationTicks": 21,
          "midi": 81,
          "name": "A5",
          "ticks": 35937,
          "time": 136.12486387500002,
          "velocity": 0.8818897637795275
        },
        {
          "duration": 0.07954537499998082,
          "durationTicks": 21,
          "midi": 83,
          "name": "B5",
          "ticks": 35997,
          "time": 136.35213637500001,
          "velocity": 0.8818897637795275
        },
        {
          "duration": 0.07196962499997994,
          "durationTicks": 19,
          "midi": 78,
          "name": "F#5",
          "ticks": 36058,
          "time": 136.58319675,
          "velocity": 0.8818897637795275
        },
        {
          "duration": 0.0681817499999795,
          "durationTicks": 18,
          "midi": 74,
          "name": "D5",
          "ticks": 36119,
          "time": 136.814257125,
          "velocity": 0.8818897637795275
        },
        {
          "duration": 0.06818175000000792,
          "durationTicks": 18,
          "midi": 78,
          "name": "F#5",
          "ticks": 36177,
          "time": 137.033953875,
          "velocity": 0.8818897637795275
        },
        {
          "duration": 0.06818175000000792,
          "durationTicks": 18,
          "midi": 71,
          "name": "B4",
          "ticks": 36238,
          "time": 137.26501425,
          "velocity": 0.8818897637795275
        },
        {
          "duration": 0.08333325000000968,
          "durationTicks": 22,
          "midi": 83,
          "name": "B5",
          "ticks": 36356,
          "time": 137.7119835,
          "velocity": 0.8818897637795275
        },
        {
          "duration": 0.07954537499998082,
          "durationTicks": 21,
          "midi": 85,
          "name": "C#6",
          "ticks": 36417,
          "time": 137.94304387500003,
          "velocity": 0.8818897637795275
        },
        {
          "duration": 0.0681817499999795,
          "durationTicks": 18,
          "midi": 86,
          "name": "D6",
          "ticks": 36478,
          "time": 138.17410425000003,
          "velocity": 0.8818897637795275
        },
        {
          "duration": 0.0681817499999795,
          "durationTicks": 18,
          "midi": 85,
          "name": "C#6",
          "ticks": 36539,
          "time": 138.40516462500003,
          "velocity": 0.8818897637795275
        },
        {
          "duration": 0.06818175000000792,
          "durationTicks": 18,
          "midi": 86,
          "name": "D6",
          "ticks": 36568,
          "time": 138.515013,
          "velocity": 0.8818897637795275
        },
        {
          "duration": 0.07954537500000924,
          "durationTicks": 21,
          "midi": 86,
          "name": "D6",
          "ticks": 36626,
          "time": 138.73470975,
          "velocity": 0.8818897637795275
        },
        {
          "duration": 0.08333324999998126,
          "durationTicks": 22,
          "midi": 83,
          "name": "B5",
          "ticks": 36686,
          "time": 138.96198225,
          "velocity": 0.8818897637795275
        },
        {
          "duration": 0.07196962499997994,
          "durationTicks": 19,
          "midi": 85,
          "name": "C#6",
          "ticks": 36718,
          "time": 139.08319425000002,
          "velocity": 0.8818897637795275
        },
        {
          "duration": 0.07954537500000924,
          "durationTicks": 21,
          "midi": 83,
          "name": "B5",
          "ticks": 36776,
          "time": 139.302891,
          "velocity": 0.8818897637795275
        },
        {
          "duration": 0.0681817499999795,
          "durationTicks": 18,
          "midi": 85,
          "name": "C#6",
          "ticks": 36808,
          "time": 139.42410300000003,
          "velocity": 0.8818897637795275
        },
        {
          "duration": 0.06818175000000792,
          "durationTicks": 18,
          "midi": 85,
          "name": "C#6",
          "ticks": 36869,
          "time": 139.655163375,
          "velocity": 0.8818897637795275
        },
        {
          "duration": 0.07954537499998082,
          "durationTicks": 21,
          "midi": 81,
          "name": "A5",
          "ticks": 36927,
          "time": 139.87486012500003,
          "velocity": 0.8818897637795275
        },
        {
          "duration": 0.07196962499997994,
          "durationTicks": 19,
          "midi": 83,
          "name": "B5",
          "ticks": 36958,
          "time": 139.99228425,
          "velocity": 0.8818897637795275
        },
        {
          "duration": 0.08333324999998126,
          "durationTicks": 22,
          "midi": 81,
          "name": "A5",
          "ticks": 37016,
          "time": 140.211981,
          "velocity": 0.8818897637795275
        },
        {
          "duration": 0.07196962499997994,
          "durationTicks": 19,
          "midi": 83,
          "name": "B5",
          "ticks": 37048,
          "time": 140.33319300000002,
          "velocity": 0.8818897637795275
        },
        {
          "duration": 0.07954537500000924,
          "durationTicks": 21,
          "midi": 83,
          "name": "B5",
          "ticks": 37106,
          "time": 140.55288975,
          "velocity": 0.8818897637795275
        },
        {
          "duration": 0.07954537499998082,
          "durationTicks": 21,
          "midi": 81,
          "name": "A5",
          "ticks": 37167,
          "time": 140.78395012500002,
          "velocity": 0.8818897637795275
        },
        {
          "duration": 0.06818175000000792,
          "durationTicks": 18,
          "midi": 83,
          "name": "B5",
          "ticks": 37199,
          "time": 140.905162125,
          "velocity": 0.8818897637795275
        },
        {
          "duration": 0.07954537499998082,
          "durationTicks": 21,
          "midi": 83,
          "name": "B5",
          "ticks": 37317,
          "time": 141.35213137500003,
          "velocity": 0.8818897637795275
        },
        {
          "duration": 0.07196962499997994,
          "durationTicks": 19,
          "midi": 81,
          "name": "A5",
          "ticks": 37378,
          "time": 141.58319175000003,
          "velocity": 0.8818897637795275
        },
        {
          "duration": 0.0681817499999795,
          "durationTicks": 18,
          "midi": 83,
          "name": "B5",
          "ticks": 37439,
          "time": 141.81425212500002,
          "velocity": 0.8818897637795275
        },
        {
          "duration": 0.06818175000000792,
          "durationTicks": 18,
          "midi": 83,
          "name": "B5",
          "ticks": 37798,
          "time": 143.17409925,
          "velocity": 0.8818897637795275
        },
        {
          "duration": 0.0681817499999795,
          "durationTicks": 18,
          "midi": 81,
          "name": "A5",
          "ticks": 37859,
          "time": 143.405159625,
          "velocity": 0.8818897637795275
        },
        {
          "duration": 0.06818175000000792,
          "durationTicks": 18,
          "midi": 83,
          "name": "B5",
          "ticks": 37917,
          "time": 143.624856375,
          "velocity": 0.8818897637795275
        },
        {
          "duration": 0.07196962499997994,
          "durationTicks": 19,
          "midi": 83,
          "name": "B5",
          "ticks": 38278,
          "time": 144.99227925000002,
          "velocity": 0.8818897637795275
        },
        {
          "duration": 0.08333325000000968,
          "durationTicks": 22,
          "midi": 81,
          "name": "A5",
          "ticks": 38336,
          "time": 145.211976,
          "velocity": 0.8818897637795275
        },
        {
          "duration": 0.07954537499998082,
          "durationTicks": 21,
          "midi": 83,
          "name": "B5",
          "ticks": 38397,
          "time": 145.44303637500002,
          "velocity": 0.8818897637795275
        },
        {
          "duration": 0.07196962500000836,
          "durationTicks": 19,
          "midi": 83,
          "name": "B5",
          "ticks": 38637,
          "time": 146.352126375,
          "velocity": 0.8818897637795275
        },
        {
          "duration": 0.06818175000000792,
          "durationTicks": 18,
          "midi": 83,
          "name": "B5",
          "ticks": 38878,
          "time": 147.26500425,
          "velocity": 0.8818897637795275
        },
        {
          "duration": 0.0681817499999795,
          "durationTicks": 18,
          "midi": 83,
          "name": "B5",
          "ticks": 39118,
          "time": 148.17409425000002,
          "velocity": 0.8818897637795275
        },
        {
          "duration": 0.07196962499997994,
          "durationTicks": 19,
          "midi": 71,
          "name": "B4",
          "ticks": 39358,
          "time": 149.08318425000002,
          "velocity": 0.8818897637795275
        }
      ],
      "endOfTrackTicks": 39377
    },
    {
      "channel": 0,
      "controlChanges": {
        "7": [
          {
            "number": 7,
            "ticks": 0,
            "time": 0,
            "value": 0.8818897637795275
          }
        ],
        "10": [
          {
            "number": 10,
            "ticks": 0,
            "time": 0,
            "value": 0
          }
        ]
      },
      "pitchBends": [],
      "instrument": {
        "family": "organ",
        "number": 16,
        "name": "drawbar organ"
      },
      "name": "Organ",
      "notes": [],
      "endOfTrackTicks": 25857
    },
    {
      "channel": 6,
      "controlChanges": {
        "64": [
          {
            "number": 64,
            "ticks": 190,
            "time": 0.71969625,
            "value": 0
          },
          {
            "number": 64,
            "ticks": 190,
            "time": 0.71969625,
            "value": 0
          },
          {
            "number": 64,
            "ticks": 190,
            "time": 0.71969625,
            "value": 0
          },
          {
            "number": 64,
            "ticks": 192,
            "time": 0.7272720000000001,
            "value": 0
          },
          {
            "number": 64,
            "ticks": 192,
            "time": 0.7272720000000001,
            "value": 0
          },
          {
            "number": 64,
            "ticks": 192,
            "time": 0.7272720000000001,
            "value": 0
          },
          {
            "number": 64,
            "ticks": 192,
            "time": 0.7272720000000001,
            "value": 0
          },
          {
            "number": 64,
            "ticks": 192,
            "time": 0.7272720000000001,
            "value": 0
          },
          {
            "number": 64,
            "ticks": 192,
            "time": 0.7272720000000001,
            "value": 0
          },
          {
            "number": 64,
            "ticks": 192,
            "time": 0.7272720000000001,
            "value": 0
          },
          {
            "number": 64,
            "ticks": 195,
            "time": 0.738635625,
            "value": 0
          },
          {
            "number": 64,
            "ticks": 195,
            "time": 0.738635625,
            "value": 0
          },
          {
            "number": 64,
            "ticks": 195,
            "time": 0.738635625,
            "value": 0
          },
          {
            "number": 64,
            "ticks": 195,
            "time": 0.738635625,
            "value": 0
          },
          {
            "number": 64,
            "ticks": 195,
            "time": 0.738635625,
            "value": 0
          },
          {
            "number": 64,
            "ticks": 195,
            "time": 0.738635625,
            "value": 0
          }
        ]
      },
      "pitchBends": [],
      "instrument": {
        "family": "organ",
        "number": 17,
        "name": "percussive organ"
      },
      "name": "",
      "notes": [
        {
          "duration": 1.8181799999999981,
          "durationTicks": 480,
          "midi": 62,
          "name": "D4",
          "ticks": 18240,
          "time": 69.09084,
          "velocity": 0.8818897637795275
        },
        {
          "duration": 1.3522713750000008,
          "durationTicks": 357,
          "midi": 59,
          "name": "B3",
          "ticks": 18720,
          "time": 70.90902,
          "velocity": 0.8818897637795275
        },
        {
          "duration": 0.3484845000000121,
          "durationTicks": 92,
          "midi": 62,
          "name": "D4",
          "ticks": 19080,
          "time": 72.272655,
          "velocity": 0.8818897637795275
        },
        {
          "duration": 0.2196967499999971,
          "durationTicks": 58,
          "midi": 64,
          "name": "E4",
          "ticks": 19140,
          "time": 72.4999275,
          "velocity": 0.8818897637795275
        },
        {
          "duration": 0.8977263749999906,
          "durationTicks": 237,
          "midi": 66,
          "name": "F#4",
          "ticks": 19200,
          "time": 72.72720000000001,
          "velocity": 0.8818897637795275
        },
        {
          "duration": 0.9128778749999924,
          "durationTicks": 241,
          "midi": 64,
          "name": "E4",
          "ticks": 19440,
          "time": 73.63629,
          "velocity": 0.8818897637795275
        },
        {
          "duration": 1.8068163749999968,
          "durationTicks": 477,
          "midi": 62,
          "name": "D4",
          "ticks": 19680,
          "time": 74.54538000000001,
          "velocity": 0.8818897637795275
        },
        {
          "duration": 1.8106042499999973,
          "durationTicks": 478,
          "midi": 62,
          "name": "D4",
          "ticks": 20160,
          "time": 76.36356,
          "velocity": 0.8818897637795275
        },
        {
          "duration": 1.3598471250000017,
          "durationTicks": 359,
          "midi": 59,
          "name": "B3",
          "ticks": 20640,
          "time": 78.18174,
          "velocity": 0.8818897637795275
        },
        {
          "duration": 0.227272499999998,
          "durationTicks": 60,
          "midi": 62,
          "name": "D4",
          "ticks": 21000,
          "time": 79.545375,
          "velocity": 0.8818897637795275
        },
        {
          "duration": 0.2196967499999971,
          "durationTicks": 58,
          "midi": 64,
          "name": "E4",
          "ticks": 21060,
          "time": 79.7726475,
          "velocity": 0.8818897637795275
        },
        {
          "duration": 0.9015142499999911,
          "durationTicks": 238,
          "midi": 66,
          "name": "F#4",
          "ticks": 21120,
          "time": 79.99992,
          "velocity": 0.8818897637795275
        },
        {
          "duration": 0.9015142499999911,
          "durationTicks": 238,
          "midi": 64,
          "name": "E4",
          "ticks": 21360,
          "time": 80.90901000000001,
          "velocity": 0.8818897637795275
        },
        {
          "duration": 1.8068163749999968,
          "durationTicks": 477,
          "midi": 62,
          "name": "D4",
          "ticks": 21600,
          "time": 81.8181,
          "velocity": 0.8818897637795275
        },
        {
          "duration": 1.8106042499999973,
          "durationTicks": 478,
          "midi": 69,
          "name": "A4",
          "ticks": 22080,
          "time": 83.63628,
          "velocity": 0.8818897637795275
        },
        {
          "duration": 1.3598471250000017,
          "durationTicks": 359,
          "midi": 66,
          "name": "F#4",
          "ticks": 22560,
          "time": 85.45446000000001,
          "velocity": 0.8818897637795275
        },
        {
          "duration": 0.23106037499999843,
          "durationTicks": 61,
          "midi": 69,
          "name": "A4",
          "ticks": 22920,
          "time": 86.818095,
          "velocity": 0.8818897637795275
        },
        {
          "duration": 0.227272499999998,
          "durationTicks": 60,
          "midi": 71,
          "name": "B4",
          "ticks": 22980,
          "time": 87.04536750000001,
          "velocity": 0.8818897637795275
        },
        {
          "duration": 0.9128778749999924,
          "durationTicks": 241,
          "midi": 73,
          "name": "C#5",
          "ticks": 23040,
          "time": 87.27264000000001,
          "velocity": 0.8818897637795275
        },
        {
          "duration": 0.8977263750000049,
          "durationTicks": 237,
          "midi": 71,
          "name": "B4",
          "ticks": 23280,
          "time": 88.18173,
          "velocity": 0.8818897637795275
        },
        {
          "duration": 1.7007558749999987,
          "durationTicks": 449,
          "midi": 69,
          "name": "A4",
          "ticks": 23520,
          "time": 89.09082000000001,
          "velocity": 0.8818897637795275
        },
        {
          "duration": 1.8181799999999981,
          "durationTicks": 480,
          "midi": 69,
          "name": "A4",
          "ticks": 24000,
          "time": 90.909,
          "velocity": 0.8818897637795275
        },
        {
          "duration": 1.2499987500000032,
          "durationTicks": 330,
          "midi": 66,
          "name": "F#4",
          "ticks": 24480,
          "time": 92.72718,
          "velocity": 0.8818897637795275
        },
        {
          "duration": 0.2196967499999971,
          "durationTicks": 58,
          "midi": 69,
          "name": "A4",
          "ticks": 24840,
          "time": 94.090815,
          "velocity": 0.8818897637795275
        },
        {
          "duration": 0.23106037499999843,
          "durationTicks": 61,
          "midi": 71,
          "name": "B4",
          "ticks": 24900,
          "time": 94.3180875,
          "velocity": 0.8818897637795275
        },
        {
          "duration": 0.8977263750000049,
          "durationTicks": 237,
          "midi": 73,
          "name": "C#5",
          "ticks": 24960,
          "time": 94.54536,
          "velocity": 0.8818897637795275
        },
        {
          "duration": 0.9204536250000075,
          "durationTicks": 243,
          "midi": 71,
          "name": "B4",
          "ticks": 25200,
          "time": 95.45445000000001,
          "velocity": 0.8818897637795275
        },
        {
          "duration": 1.5795438749999988,
          "durationTicks": 417,
          "midi": 69,
          "name": "A4",
          "ticks": 25440,
          "time": 96.36354,
          "velocity": 0.8818897637795275
        }
      ]
    },
    {
      "channel": 0,
      "controlChanges": {
        "0": [
          {
            "number": 0,
            "ticks": 1,
            "time": 0.003787875,
            "value": 0
          }
        ],
        "7": [
          {
            "number": 7,
            "ticks": 0,
            "time": 0,
            "value": 0.7559055118110236
          }
        ],
        "10": [
          {
            "number": 10,
            "ticks": 0,
            "time": 0,
            "value": 0.7086614173228346
          }
        ],
        "32": [
          {
            "number": 32,
            "ticks": 1,
            "time": 0.003787875,
            "value": 0.015748031496062992
          }
        ]
      },
      "pitchBends": [],
      "instrument": {
        "family": "piano",
        "number": 0,
        "name": "acoustic grand piano"
      },
      "name": "Arpeggio",
      "notes": [],
      "endOfTrackTicks": 25922
    },
    {
      "channel": 2,
      "controlChanges": {
        "64": [
          {
            "number": 64,
            "ticks": 137,
            "time": 0.518938875,
            "value": 0
          },
          {
            "number": 64,
            "ticks": 137,
            "time": 0.518938875,
            "value": 0
          },
          {
            "number": 64,
            "ticks": 137,
            "time": 0.518938875,
            "value": 0
          },
          {
            "number": 64,
            "ticks": 137,
            "time": 0.518938875,
            "value": 0
          },
          {
            "number": 64,
            "ticks": 137,
            "time": 0.518938875,
            "value": 0
          },
          {
            "number": 64,
            "ticks": 137,
            "time": 0.518938875,
            "value": 0
          },
          {
            "number": 64,
            "ticks": 137,
            "time": 0.518938875,
            "value": 0
          },
          {
            "number": 64,
            "ticks": 139,
            "time": 0.5265146250000001,
            "value": 0
          },
          {
            "number": 64,
            "ticks": 139,
            "time": 0.5265146250000001,
            "value": 0
          },
          {
            "number": 64,
            "ticks": 139,
            "time": 0.5265146250000001,
            "value": 0
          },
          {
            "number": 64,
            "ticks": 139,
            "time": 0.5265146250000001,
            "value": 0
          },
          {
            "number": 64,
            "ticks": 139,
            "time": 0.5265146250000001,
            "value": 0
          },
          {
            "number": 64,
            "ticks": 139,
            "time": 0.5265146250000001,
            "value": 0
          },
          {
            "number": 64,
            "ticks": 139,
            "time": 0.5265146250000001,
            "value": 0
          },
          {
            "number": 64,
            "ticks": 142,
            "time": 0.53787825,
            "value": 0
          },
          {
            "number": 64,
            "ticks": 142,
            "time": 0.53787825,
            "value": 0
          }
        ]
      },
      "pitchBends": [],
      "instrument": {
        "family": "synth effects",
        "number": 102,
        "name": "fx 7 (echoes)"
      },
      "name": "",
      "notes": [
        {
          "duration": 0.12121199999999988,
          "durationTicks": 32,
          "midi": 66,
          "name": "F#4",
          "ticks": 18250,
          "time": 69.12871875,
          "velocity": 0.7559055118110236
        },
        {
          "duration": 0.10984837499999855,
          "durationTicks": 29,
          "midi": 71,
          "name": "B4",
          "ticks": 18282,
          "time": 69.24993075,
          "velocity": 0.7559055118110236
        },
        {
          "duration": 0.10984837500001277,
          "durationTicks": 29,
          "midi": 74,
          "name": "D5",
          "ticks": 18311,
          "time": 69.359779125,
          "velocity": 0.7559055118110236
        },
        {
          "duration": 0.12121199999998566,
          "durationTicks": 32,
          "midi": 78,
          "name": "F#5",
          "ticks": 18340,
          "time": 69.46962750000002,
          "velocity": 0.7559055118110236
        },
        {
          "duration": 0.10984837499999855,
          "durationTicks": 29,
          "midi": 83,
          "name": "B5",
          "ticks": 18372,
          "time": 69.5908395,
          "velocity": 0.7559055118110236
        },
        {
          "duration": 0.11742412499999944,
          "durationTicks": 31,
          "midi": 78,
          "name": "F#5",
          "ticks": 18401,
          "time": 69.700687875,
          "velocity": 0.7559055118110236
        },
        {
          "duration": 0.11742412499999944,
          "durationTicks": 31,
          "midi": 74,
          "name": "D5",
          "ticks": 18430,
          "time": 69.81053625000001,
          "velocity": 0.7559055118110236
        },
        {
          "duration": 0.10984837499999855,
          "durationTicks": 29,
          "midi": 71,
          "name": "B4",
          "ticks": 18461,
          "time": 69.92796037500001,
          "velocity": 0.7559055118110236
        },
        {
          "duration": 0.12121199999998566,
          "durationTicks": 32,
          "midi": 66,
          "name": "F#4",
          "ticks": 18490,
          "time": 70.03780875000001,
          "velocity": 0.7559055118110236
        },
        {
          "duration": 0.10984837500001277,
          "durationTicks": 29,
          "midi": 71,
          "name": "B4",
          "ticks": 18522,
          "time": 70.15902075,
          "velocity": 0.7559055118110236
        },
        {
          "duration": 0.10984837499999855,
          "durationTicks": 29,
          "midi": 74,
          "name": "D5",
          "ticks": 18551,
          "time": 70.26886912500001,
          "velocity": 0.7559055118110236
        },
        {
          "duration": 0.12121199999999988,
          "durationTicks": 32,
          "midi": 78,
          "name": "F#5",
          "ticks": 18580,
          "time": 70.37871750000001,
          "velocity": 0.7559055118110236
        },
        {
          "duration": 0.10984837499999855,
          "durationTicks": 29,
          "midi": 83,
          "name": "B5",
          "ticks": 18612,
          "time": 70.49992950000001,
          "velocity": 0.7559055118110236
        },
        {
          "duration": 0.10984837499999855,
          "durationTicks": 29,
          "midi": 78,
          "name": "F#5",
          "ticks": 18641,
          "time": 70.609777875,
          "velocity": 0.7559055118110236
        },
        {
          "duration": 0.10984837499999855,
          "durationTicks": 29,
          "midi": 74,
          "name": "D5",
          "ticks": 18670,
          "time": 70.71962625,
          "velocity": 0.7559055118110236
        },
        {
          "duration": 0.11742412499999944,
          "durationTicks": 31,
          "midi": 71,
          "name": "B4",
          "ticks": 18702,
          "time": 70.84083825,
          "velocity": 0.7559055118110236
        },
        {
          "duration": 0.10984837500001277,
          "durationTicks": 29,
          "midi": 66,
          "name": "F#4",
          "ticks": 18731,
          "time": 70.950686625,
          "velocity": 0.7559055118110236
        },
        {
          "duration": 0.11742412499998522,
          "durationTicks": 31,
          "midi": 71,
          "name": "B4",
          "ticks": 18760,
          "time": 71.06053500000002,
          "velocity": 0.7559055118110236
        },
        {
          "duration": 0.10984837500001277,
          "durationTicks": 29,
          "midi": 74,
          "name": "D5",
          "ticks": 18791,
          "time": 71.177959125,
          "velocity": 0.7559055118110236
        },
        {
          "duration": 0.12121199999998566,
          "durationTicks": 32,
          "midi": 78,
          "name": "F#5",
          "ticks": 18820,
          "time": 71.28780750000001,
          "velocity": 0.7559055118110236
        },
        {
          "duration": 0.10984837500001277,
          "durationTicks": 29,
          "midi": 83,
          "name": "B5",
          "ticks": 18852,
          "time": 71.4090195,
          "velocity": 0.7559055118110236
        },
        {
          "duration": 0.10984837499999855,
          "durationTicks": 29,
          "midi": 78,
          "name": "F#5",
          "ticks": 18881,
          "time": 71.51886787500001,
          "velocity": 0.7559055118110236
        },
        {
          "duration": 0.12121199999998566,
          "durationTicks": 32,
          "midi": 74,
          "name": "D5",
          "ticks": 18910,
          "time": 71.62871625000001,
          "velocity": 0.7559055118110236
        },
        {
          "duration": 0.10984837500001277,
          "durationTicks": 29,
          "midi": 71,
          "name": "B4",
          "ticks": 18942,
          "time": 71.74992825,
          "velocity": 0.7559055118110236
        },
        {
          "duration": 0.10984837499999855,
          "durationTicks": 29,
          "midi": 66,
          "name": "F#4",
          "ticks": 18971,
          "time": 71.85977662500001,
          "velocity": 0.7559055118110236
        },
        {
          "duration": 0.12121199999999988,
          "durationTicks": 32,
          "midi": 71,
          "name": "B4",
          "ticks": 19000,
          "time": 71.96962500000001,
          "velocity": 0.7559055118110236
        },
        {
          "duration": 0.10984837499999855,
          "durationTicks": 29,
          "midi": 74,
          "name": "D5",
          "ticks": 19032,
          "time": 72.09083700000001,
          "velocity": 0.7559055118110236
        },
        {
          "duration": 0.11742412499999944,
          "durationTicks": 31,
          "midi": 78,
          "name": "F#5",
          "ticks": 19061,
          "time": 72.200685375,
          "velocity": 0.7559055118110236
        },
        {
          "duration": 0.10227262499999767,
          "durationTicks": 27,
          "midi": 83,
          "name": "B5",
          "ticks": 19092,
          "time": 72.3181095,
          "velocity": 0.7559055118110236
        },
        {
          "duration": 0.12878775000000076,
          "durationTicks": 34,
          "midi": 78,
          "name": "F#5",
          "ticks": 19119,
          "time": 72.420382125,
          "velocity": 0.7559055118110236
        },
        {
          "duration": 0.10984837499999855,
          "durationTicks": 29,
          "midi": 74,
          "name": "D5",
          "ticks": 19150,
          "time": 72.53780625,
          "velocity": 0.7559055118110236
        },
        {
          "duration": 0.10984837499999855,
          "durationTicks": 29,
          "midi": 71,
          "name": "B4",
          "ticks": 19182,
          "time": 72.65901825,
          "velocity": 0.7559055118110236
        },
        {
          "duration": 0.09848475000001145,
          "durationTicks": 26,
          "midi": 66,
          "name": "F#4",
          "ticks": 19211,
          "time": 72.768866625,
          "velocity": 0.7559055118110236
        },
        {
          "duration": 0.12121199999998566,
          "durationTicks": 32,
          "midi": 71,
          "name": "B4",
          "ticks": 19240,
          "time": 72.87871500000001,
          "velocity": 0.7559055118110236
        },
        {
          "duration": 0.10984837500001277,
          "durationTicks": 29,
          "midi": 74,
          "name": "D5",
          "ticks": 19272,
          "time": 72.999927,
          "velocity": 0.7559055118110236
        },
        {
          "duration": 0.10984837499999855,
          "durationTicks": 29,
          "midi": 78,
          "name": "F#5",
          "ticks": 19301,
          "time": 73.10977537500001,
          "velocity": 0.7559055118110236
        },
        {
          "duration": 0.12121199999998566,
          "durationTicks": 32,
          "midi": 83,
          "name": "B5",
          "ticks": 19330,
          "time": 73.21962375000001,
          "velocity": 0.7559055118110236
        },
        {
          "duration": 0.10984837500001277,
          "durationTicks": 29,
          "midi": 78,
          "name": "F#5",
          "ticks": 19362,
          "time": 73.34083575,
          "velocity": 0.7559055118110236
        },
        {
          "duration": 0.10984837499999855,
          "durationTicks": 29,
          "midi": 74,
          "name": "D5",
          "ticks": 19391,
          "time": 73.45068412500001,
          "velocity": 0.7559055118110236
        },
        {
          "duration": 0.11742412499999944,
          "durationTicks": 31,
          "midi": 71,
          "name": "B4",
          "ticks": 19420,
          "time": 73.56053250000001,
          "velocity": 0.7559055118110236
        },
        {
          "duration": 0.07954537500000924,
          "durationTicks": 21,
          "midi": 64,
          "name": "E4",
          "ticks": 19451,
          "time": 73.67795662500001,
          "velocity": 0.7559055118110236
        },
        {
          "duration": 0.10984837499999855,
          "durationTicks": 29,
          "midi": 69,
          "name": "A4",
          "ticks": 19480,
          "time": 73.787805,
          "velocity": 0.7559055118110236
        },
        {
          "duration": 0.10984837499999855,
          "durationTicks": 29,
          "midi": 73,
          "name": "C#5",
          "ticks": 19512,
          "time": 73.909017,
          "velocity": 0.7559055118110236
        },
        {
          "duration": 0.10984837499999855,
          "durationTicks": 29,
          "midi": 76,
          "name": "E5",
          "ticks": 19541,
          "time": 74.018865375,
          "velocity": 0.7559055118110236
        },
        {
          "duration": 0.12121199999999988,
          "durationTicks": 32,
          "midi": 81,
          "name": "A5",
          "ticks": 19570,
          "time": 74.12871375,
          "velocity": 0.7559055118110236
        },
        {
          "duration": 0.10984837499999855,
          "durationTicks": 29,
          "midi": 76,
          "name": "E5",
          "ticks": 19602,
          "time": 74.24992575,
          "velocity": 0.7559055118110236
        },
        {
          "duration": 0.10984837500001277,
          "durationTicks": 29,
          "midi": 73,
          "name": "C#5",
          "ticks": 19631,
          "time": 74.359774125,
          "velocity": 0.7559055118110236
        },
        {
          "duration": 0.12121199999998566,
          "durationTicks": 32,
          "midi": 69,
          "name": "A4",
          "ticks": 19660,
          "time": 74.46962250000001,
          "velocity": 0.7559055118110236
        },
        {
          "duration": 0.10984837500001277,
          "durationTicks": 29,
          "midi": 62,
          "name": "D4",
          "ticks": 19692,
          "time": 74.5908345,
          "velocity": 0.7559055118110236
        },
        {
          "duration": 0.10984837499999855,
          "durationTicks": 29,
          "midi": 67,
          "name": "G4",
          "ticks": 19721,
          "time": 74.70068287500001,
          "velocity": 0.7559055118110236
        },
        {
          "duration": 0.10984837499998434,
          "durationTicks": 29,
          "midi": 71,
          "name": "B4",
          "ticks": 19750,
          "time": 74.81053125000001,
          "velocity": 0.7559055118110236
        },
        {
          "duration": 0.11742412500001365,
          "durationTicks": 31,
          "midi": 74,
          "name": "D5",
          "ticks": 19779,
          "time": 74.920379625,
          "velocity": 0.7559055118110236
        },
        {
          "duration": 0.10984837499998434,
          "durationTicks": 29,
          "midi": 79,
          "name": "G5",
          "ticks": 19810,
          "time": 75.03780375000001,
          "velocity": 0.7559055118110236
        },
        {
          "duration": 0.10984837499999855,
          "durationTicks": 29,
          "midi": 74,
          "name": "D5",
          "ticks": 19842,
          "time": 75.15901575000001,
          "velocity": 0.7559055118110236
        },
        {
          "duration": 0.10984837499999855,
          "durationTicks": 29,
          "midi": 71,
          "name": "B4",
          "ticks": 19871,
          "time": 75.26886412500001,
          "velocity": 0.7559055118110236
        },
        {
          "duration": 0.12121199999999988,
          "durationTicks": 32,
          "midi": 67,
          "name": "G4",
          "ticks": 19900,
          "time": 75.3787125,
          "velocity": 0.7559055118110236
        },
        {
          "duration": 0.10984837499999855,
          "durationTicks": 29,
          "midi": 66,
          "name": "F#4",
          "ticks": 19932,
          "time": 75.4999245,
          "velocity": 0.7559055118110236
        },
        {
          "duration": 0.10984837499999855,
          "durationTicks": 29,
          "midi": 71,
          "name": "B4",
          "ticks": 19961,
          "time": 75.609772875,
          "velocity": 0.7559055118110236
        },
        {
          "duration": 0.12121199999999988,
          "durationTicks": 32,
          "midi": 74,
          "name": "D5",
          "ticks": 19990,
          "time": 75.71962125,
          "velocity": 0.7559055118110236
        },
        {
          "duration": 0.10984837499999855,
          "durationTicks": 29,
          "midi": 78,
          "name": "F#5",
          "ticks": 20022,
          "time": 75.84083325,
          "velocity": 0.7559055118110236
        },
        {
          "duration": 0.10984837500001277,
          "durationTicks": 29,
          "midi": 83,
          "name": "B5",
          "ticks": 20051,
          "time": 75.950681625,
          "velocity": 0.7559055118110236
        },
        {
          "duration": 0.11742412499998522,
          "durationTicks": 31,
          "midi": 78,
          "name": "F#5",
          "ticks": 20080,
          "time": 76.06053000000001,
          "velocity": 0.7559055118110236
        },
        {
          "duration": 0.10984837500001277,
          "durationTicks": 29,
          "midi": 74,
          "name": "D5",
          "ticks": 20111,
          "time": 76.177954125,
          "velocity": 0.7559055118110236
        },
        {
          "duration": 0.10984837499998434,
          "durationTicks": 29,
          "midi": 71,
          "name": "B4",
          "ticks": 20140,
          "time": 76.28780250000001,
          "velocity": 0.7559055118110236
        },
        {
          "duration": 0.10984837500001277,
          "durationTicks": 29,
          "midi": 66,
          "name": "F#4",
          "ticks": 20172,
          "time": 76.4090145,
          "velocity": 0.7559055118110236
        },
        {
          "duration": 0.10984837499999855,
          "durationTicks": 29,
          "midi": 71,
          "name": "B4",
          "ticks": 20201,
          "time": 76.51886287500001,
          "velocity": 0.7559055118110236
        },
        {
          "duration": 0.12121199999999988,
          "durationTicks": 32,
          "midi": 74,
          "name": "D5",
          "ticks": 20230,
          "time": 76.62871125000001,
          "velocity": 0.7559055118110236
        },
        {
          "duration": 0.10984837499999855,
          "durationTicks": 29,
          "midi": 78,
          "name": "F#5",
          "ticks": 20262,
          "time": 76.74992325000001,
          "velocity": 0.7559055118110236
        },
        {
          "duration": 0.10984837499999855,
          "durationTicks": 29,
          "midi": 83,
          "name": "B5",
          "ticks": 20291,
          "time": 76.85977162500001,
          "velocity": 0.7559055118110236
        },
        {
          "duration": 0.12121199999999988,
          "durationTicks": 32,
          "midi": 78,
          "name": "F#5",
          "ticks": 20320,
          "time": 76.96962,
          "velocity": 0.7559055118110236
        },
        {
          "duration": 0.10984837499999855,
          "durationTicks": 29,
          "midi": 74,
          "name": "D5",
          "ticks": 20352,
          "time": 77.090832,
          "velocity": 0.7559055118110236
        },
        {
          "duration": 0.10984837499999855,
          "durationTicks": 29,
          "midi": 71,
          "name": "B4",
          "ticks": 20381,
          "time": 77.200680375,
          "velocity": 0.7559055118110236
        },
        {
          "duration": 0.10984837499999855,
          "durationTicks": 29,
          "midi": 66,
          "name": "F#4",
          "ticks": 20412,
          "time": 77.3181045,
          "velocity": 0.7559055118110236
        },
        {
          "duration": 0.10984837500001277,
          "durationTicks": 29,
          "midi": 71,
          "name": "B4",
          "ticks": 20441,
          "time": 77.427952875,
          "velocity": 0.7559055118110236
        },
        {
          "duration": 0.10984837499998434,
          "durationTicks": 29,
          "midi": 74,
          "name": "D5",
          "ticks": 20470,
          "time": 77.53780125000002,
          "velocity": 0.7559055118110236
        },
        {
          "duration": 0.10984837499999855,
          "durationTicks": 29,
          "midi": 78,
          "name": "F#5",
          "ticks": 20502,
          "time": 77.65901325,
          "velocity": 0.7559055118110236
        },
        {
          "duration": 0.10984837500001277,
          "durationTicks": 29,
          "midi": 83,
          "name": "B5",
          "ticks": 20531,
          "time": 77.768861625,
          "velocity": 0.7559055118110236
        },
        {
          "duration": 0.12121199999998566,
          "durationTicks": 32,
          "midi": 78,
          "name": "F#5",
          "ticks": 20560,
          "time": 77.87871000000001,
          "velocity": 0.7559055118110236
        },
        {
          "duration": 0.10984837500001277,
          "durationTicks": 29,
          "midi": 74,
          "name": "D5",
          "ticks": 20592,
          "time": 77.999922,
          "velocity": 0.7559055118110236
        },
        {
          "duration": 0.10984837499999855,
          "durationTicks": 29,
          "midi": 71,
          "name": "B4",
          "ticks": 20621,
          "time": 78.10977037500001,
          "velocity": 0.7559055118110236
        },
        {
          "duration": 0.12121199999999988,
          "durationTicks": 32,
          "midi": 66,
          "name": "F#4",
          "ticks": 20650,
          "time": 78.21961875000001,
          "velocity": 0.7559055118110236
        },
        {
          "duration": 0.10984837499999855,
          "durationTicks": 29,
          "midi": 71,
          "name": "B4",
          "ticks": 20682,
          "time": 78.34083075000001,
          "velocity": 0.7559055118110236
        },
        {
          "duration": 0.10984837499999855,
          "durationTicks": 29,
          "midi": 74,
          "name": "D5",
          "ticks": 20711,
          "time": 78.45067912500001,
          "velocity": 0.7559055118110236
        },
        {
          "duration": 0.11742412499999944,
          "durationTicks": 31,
          "midi": 78,
          "name": "F#5",
          "ticks": 20740,
          "time": 78.5605275,
          "velocity": 0.7559055118110236
        },
        {
          "duration": 0.10984837499999855,
          "durationTicks": 29,
          "midi": 83,
          "name": "B5",
          "ticks": 20771,
          "time": 78.677951625,
          "velocity": 0.7559055118110236
        },
        {
          "duration": 0.10984837499999855,
          "durationTicks": 29,
          "midi": 78,
          "name": "F#5",
          "ticks": 20800,
          "time": 78.7878,
          "velocity": 0.7559055118110236
        },
        {
          "duration": 0.10984837499999855,
          "durationTicks": 29,
          "midi": 74,
          "name": "D5",
          "ticks": 20832,
          "time": 78.909012,
          "velocity": 0.7559055118110236
        },
        {
          "duration": 0.10984837500001277,
          "durationTicks": 29,
          "midi": 71,
          "name": "B4",
          "ticks": 20861,
          "time": 79.018860375,
          "velocity": 0.7559055118110236
        },
        {
          "duration": 0.12121199999998566,
          "durationTicks": 32,
          "midi": 66,
          "name": "F#4",
          "ticks": 20890,
          "time": 79.12870875000002,
          "velocity": 0.7559055118110236
        },
        {
          "duration": 0.10984837499999855,
          "durationTicks": 29,
          "midi": 71,
          "name": "B4",
          "ticks": 20922,
          "time": 79.24992075,
          "velocity": 0.7559055118110236
        },
        {
          "duration": 0.10984837500001277,
          "durationTicks": 29,
          "midi": 74,
          "name": "D5",
          "ticks": 20951,
          "time": 79.359769125,
          "velocity": 0.7559055118110236
        },
        {
          "duration": 0.12121199999998566,
          "durationTicks": 32,
          "midi": 78,
          "name": "F#5",
          "ticks": 20980,
          "time": 79.46961750000001,
          "velocity": 0.7559055118110236
        },
        {
          "duration": 0.10984837500001277,
          "durationTicks": 29,
          "midi": 83,
          "name": "B5",
          "ticks": 21012,
          "time": 79.5908295,
          "velocity": 0.7559055118110236
        },
        {
          "duration": 0.10984837499999855,
          "durationTicks": 29,
          "midi": 78,
          "name": "F#5",
          "ticks": 21041,
          "time": 79.70067787500001,
          "velocity": 0.7559055118110236
        },
        {
          "duration": 0.11742412499999944,
          "durationTicks": 31,
          "midi": 74,
          "name": "D5",
          "ticks": 21070,
          "time": 79.81052625000001,
          "velocity": 0.7559055118110236
        },
        {
          "duration": 0.10984837499999855,
          "durationTicks": 29,
          "midi": 71,
          "name": "B4",
          "ticks": 21101,
          "time": 79.92795037500001,
          "velocity": 0.7559055118110236
        },
        {
          "duration": 0.10984837499999855,
          "durationTicks": 29,
          "midi": 66,
          "name": "F#4",
          "ticks": 21130,
          "time": 80.03779875000001,
          "velocity": 0.7559055118110236
        },
        {
          "duration": 0.12121199999999988,
          "durationTicks": 32,
          "midi": 71,
          "name": "B4",
          "ticks": 21159,
          "time": 80.147647125,
          "velocity": 0.7559055118110236
        },
        {
          "duration": 0.10984837499999855,
          "durationTicks": 29,
          "midi": 74,
          "name": "D5",
          "ticks": 21191,
          "time": 80.268859125,
          "velocity": 0.7559055118110236
        },
        {
          "duration": 0.10984837499999855,
          "durationTicks": 29,
          "midi": 78,
          "name": "F#5",
          "ticks": 21220,
          "time": 80.3787075,
          "velocity": 0.7559055118110236
        },
        {
          "duration": 0.10984837499999855,
          "durationTicks": 29,
          "midi": 83,
          "name": "B5",
          "ticks": 21252,
          "time": 80.4999195,
          "velocity": 0.7559055118110236
        },
        {
          "duration": 0.10984837500001277,
          "durationTicks": 29,
          "midi": 78,
          "name": "F#5",
          "ticks": 21281,
          "time": 80.609767875,
          "velocity": 0.7559055118110236
        },
        {
          "duration": 0.12121199999998566,
          "durationTicks": 32,
          "midi": 74,
          "name": "D5",
          "ticks": 21310,
          "time": 80.71961625000002,
          "velocity": 0.7559055118110236
        },
        {
          "duration": 0.10984837499999855,
          "durationTicks": 29,
          "midi": 71,
          "name": "B4",
          "ticks": 21342,
          "time": 80.84082825,
          "velocity": 0.7559055118110236
        },
        {
          "duration": 0.09848475000001145,
          "durationTicks": 26,
          "midi": 64,
          "name": "E4",
          "ticks": 21371,
          "time": 80.950676625,
          "velocity": 0.7559055118110236
        },
        {
          "duration": 0.11742412499999944,
          "durationTicks": 31,
          "midi": 69,
          "name": "A4",
          "ticks": 21400,
          "time": 81.06052500000001,
          "velocity": 0.7559055118110236
        },
        {
          "duration": 0.10984837499999855,
          "durationTicks": 29,
          "midi": 73,
          "name": "C#5",
          "ticks": 21431,
          "time": 81.17794912500001,
          "velocity": 0.7559055118110236
        },
        {
          "duration": 0.10984837499998434,
          "durationTicks": 29,
          "midi": 76,
          "name": "E5",
          "ticks": 21460,
          "time": 81.28779750000001,
          "velocity": 0.7559055118110236
        },
        {
          "duration": 0.10984837500001277,
          "durationTicks": 29,
          "midi": 81,
          "name": "A5",
          "ticks": 21492,
          "time": 81.4090095,
          "velocity": 0.7559055118110236
        },
        {
          "duration": 0.10984837499999855,
          "durationTicks": 29,
          "midi": 76,
          "name": "E5",
          "ticks": 21521,
          "time": 81.51885787500001,
          "velocity": 0.7559055118110236
        },
        {
          "duration": 0.10984837499999855,
          "durationTicks": 29,
          "midi": 73,
          "name": "C#5",
          "ticks": 21550,
          "time": 81.62870625000001,
          "velocity": 0.7559055118110236
        },
        {
          "duration": 0.10984837499999855,
          "durationTicks": 29,
          "midi": 69,
          "name": "A4",
          "ticks": 21582,
          "time": 81.74991825000001,
          "velocity": 0.7559055118110236
        },
        {
          "duration": 0.10984837499999855,
          "durationTicks": 29,
          "midi": 62,
          "name": "D4",
          "ticks": 21611,
          "time": 81.859766625,
          "velocity": 0.7559055118110236
        },
        {
          "duration": 0.12121199999999988,
          "durationTicks": 32,
          "midi": 67,
          "name": "G4",
          "ticks": 21640,
          "time": 81.969615,
          "velocity": 0.7559055118110236
        },
        {
          "duration": 0.10984837499999855,
          "durationTicks": 29,
          "midi": 71,
          "name": "B4",
          "ticks": 21672,
          "time": 82.090827,
          "velocity": 0.7559055118110236
        },
        {
          "duration": 0.10984837500001277,
          "durationTicks": 29,
          "midi": 74,
          "name": "D5",
          "ticks": 21701,
          "time": 82.200675375,
          "velocity": 0.7559055118110236
        },
        {
          "duration": 0.11742412499998522,
          "durationTicks": 31,
          "midi": 79,
          "name": "G5",
          "ticks": 21730,
          "time": 82.31052375000002,
          "velocity": 0.7559055118110236
        },
        {
          "duration": 0.10984837500001277,
          "durationTicks": 29,
          "midi": 74,
          "name": "D5",
          "ticks": 21761,
          "time": 82.427947875,
          "velocity": 0.7559055118110236
        },
        {
          "duration": 0.10984837499998434,
          "durationTicks": 29,
          "midi": 71,
          "name": "B4",
          "ticks": 21790,
          "time": 82.53779625000001,
          "velocity": 0.7559055118110236
        },
        {
          "duration": 0.10984837500001277,
          "durationTicks": 29,
          "midi": 67,
          "name": "G4",
          "ticks": 21819,
          "time": 82.647644625,
          "velocity": 0.7559055118110236
        },
        {
          "duration": 0.10984837499999855,
          "durationTicks": 29,
          "midi": 66,
          "name": "F#4",
          "ticks": 21851,
          "time": 82.76885662500001,
          "velocity": 0.7559055118110236
        },
        {
          "duration": 0.10984837499998434,
          "durationTicks": 29,
          "midi": 71,
          "name": "B4",
          "ticks": 21880,
          "time": 82.87870500000001,
          "velocity": 0.7559055118110236
        },
        {
          "duration": 0.10984837500001277,
          "durationTicks": 29,
          "midi": 74,
          "name": "D5",
          "ticks": 21912,
          "time": 82.999917,
          "velocity": 0.7559055118110236
        },
        {
          "duration": 0.10984837499999855,
          "durationTicks": 29,
          "midi": 78,
          "name": "F#5",
          "ticks": 21941,
          "time": 83.10976537500001,
          "velocity": 0.7559055118110236
        },
        {
          "duration": 0.12121199999999988,
          "durationTicks": 32,
          "midi": 83,
          "name": "B5",
          "ticks": 21970,
          "time": 83.21961375000001,
          "velocity": 0.7559055118110236
        },
        {
          "duration": 0.10984837499999855,
          "durationTicks": 29,
          "midi": 78,
          "name": "F#5",
          "ticks": 22002,
          "time": 83.34082575000001,
          "velocity": 0.7559055118110236
        },
        {
          "duration": 0.10984837499999855,
          "durationTicks": 29,
          "midi": 74,
          "name": "D5",
          "ticks": 22031,
          "time": 83.450674125,
          "velocity": 0.7559055118110236
        },
        {
          "duration": 0.11742412499999944,
          "durationTicks": 31,
          "midi": 71,
          "name": "B4",
          "ticks": 22060,
          "time": 83.5605225,
          "velocity": 0.7559055118110236
        },
        {
          "duration": 0.10984837500001277,
          "durationTicks": 29,
          "midi": 69,
          "name": "A4",
          "ticks": 22091,
          "time": 83.677946625,
          "velocity": 0.7559055118110236
        },
        {
          "duration": 0.12121199999998566,
          "durationTicks": 32,
          "midi": 74,
          "name": "D5",
          "ticks": 22120,
          "time": 83.78779500000002,
          "velocity": 0.7559055118110236
        },
        {
          "duration": 0.12121199999999988,
          "durationTicks": 32,
          "midi": 78,
          "name": "F#5",
          "ticks": 22149,
          "time": 83.897643375,
          "velocity": 0.7559055118110236
        },
        {
          "duration": 0.10984837500001277,
          "durationTicks": 29,
          "midi": 81,
          "name": "A5",
          "ticks": 22181,
          "time": 84.018855375,
          "velocity": 0.7559055118110236
        },
        {
          "duration": 0.10984837499998434,
          "durationTicks": 29,
          "midi": 86,
          "name": "D6",
          "ticks": 22210,
          "time": 84.12870375000001,
          "velocity": 0.7559055118110236
        },
        {
          "duration": 0.10984837500001277,
          "durationTicks": 29,
          "midi": 81,
          "name": "A5",
          "ticks": 22242,
          "time": 84.24991575,
          "velocity": 0.7559055118110236
        },
        {
          "duration": 0.10984837499999855,
          "durationTicks": 29,
          "midi": 78,
          "name": "F#5",
          "ticks": 22271,
          "time": 84.35976412500001,
          "velocity": 0.7559055118110236
        },
        {
          "duration": 0.12121199999998566,
          "durationTicks": 32,
          "midi": 74,
          "name": "D5",
          "ticks": 22300,
          "time": 84.46961250000001,
          "velocity": 0.7559055118110236
        },
        {
          "duration": 0.10984837500001277,
          "durationTicks": 29,
          "midi": 69,
          "name": "A4",
          "ticks": 22332,
          "time": 84.5908245,
          "velocity": 0.7559055118110236
        },
        {
          "duration": 0.10984837499999855,
          "durationTicks": 29,
          "midi": 74,
          "name": "D5",
          "ticks": 22361,
          "time": 84.70067287500001,
          "velocity": 0.7559055118110236
        },
        {
          "duration": 0.11742412499999944,
          "durationTicks": 31,
          "midi": 78,
          "name": "F#5",
          "ticks": 22390,
          "time": 84.81052125000001,
          "velocity": 0.7559055118110236
        },
        {
          "duration": 0.10984837499999855,
          "durationTicks": 29,
          "midi": 81,
          "name": "A5",
          "ticks": 22421,
          "time": 84.92794537500001,
          "velocity": 0.7559055118110236
        },
        {
          "duration": 0.10984837499999855,
          "durationTicks": 29,
          "midi": 86,
          "name": "D6",
          "ticks": 22450,
          "time": 85.03779375,
          "velocity": 0.7559055118110236
        },
        {
          "duration": 0.12121199999999988,
          "durationTicks": 32,
          "midi": 81,
          "name": "A5",
          "ticks": 22479,
          "time": 85.147642125,
          "velocity": 0.7559055118110236
        },
        {
          "duration": 0.10984837500001277,
          "durationTicks": 29,
          "midi": 78,
          "name": "F#5",
          "ticks": 22511,
          "time": 85.268854125,
          "velocity": 0.7559055118110236
        },
        {
          "duration": 0.10984837499998434,
          "durationTicks": 29,
          "midi": 74,
          "name": "D5",
          "ticks": 22540,
          "time": 85.37870250000002,
          "velocity": 0.7559055118110236
        },
        {
          "duration": 0.10984837499999855,
          "durationTicks": 29,
          "midi": 69,
          "name": "A4",
          "ticks": 22572,
          "time": 85.4999145,
          "velocity": 0.7559055118110236
        },
        {
          "duration": 0.11742412499999944,
          "durationTicks": 31,
          "midi": 74,
          "name": "D5",
          "ticks": 22601,
          "time": 85.609762875,
          "velocity": 0.7559055118110236
        },
        {
          "duration": 0.10984837499998434,
          "durationTicks": 29,
          "midi": 78,
          "name": "F#5",
          "ticks": 22630,
          "time": 85.71961125000001,
          "velocity": 0.7559055118110236
        },
        {
          "duration": 0.10984837500001277,
          "durationTicks": 29,
          "midi": 81,
          "name": "A5",
          "ticks": 22662,
          "time": 85.84082325,
          "velocity": 0.7559055118110236
        },
        {
          "duration": 0.10984837499999855,
          "durationTicks": 29,
          "midi": 86,
          "name": "D6",
          "ticks": 22691,
          "time": 85.95067162500001,
          "velocity": 0.7559055118110236
        },
        {
          "duration": 0.11742412499999944,
          "durationTicks": 31,
          "midi": 81,
          "name": "A5",
          "ticks": 22720,
          "time": 86.06052000000001,
          "velocity": 0.7559055118110236
        },
        {
          "duration": 0.10984837499999855,
          "durationTicks": 29,
          "midi": 78,
          "name": "F#5",
          "ticks": 22751,
          "time": 86.17794412500001,
          "velocity": 0.7559055118110236
        },
        {
          "duration": 0.10984837499999855,
          "durationTicks": 29,
          "midi": 74,
          "name": "D5",
          "ticks": 22780,
          "time": 86.28779250000001,
          "velocity": 0.7559055118110236
        },
        {
          "duration": 0.12121199999999988,
          "durationTicks": 32,
          "midi": 69,
          "name": "A4",
          "ticks": 22809,
          "time": 86.39764087500001,
          "velocity": 0.7559055118110236
        },
        {
          "duration": 0.10984837499999855,
          "durationTicks": 29,
          "midi": 74,
          "name": "D5",
          "ticks": 22841,
          "time": 86.51885287500001,
          "velocity": 0.7559055118110236
        },
        {
          "duration": 0.10984837499999855,
          "durationTicks": 29,
          "midi": 78,
          "name": "F#5",
          "ticks": 22870,
          "time": 86.62870125,
          "velocity": 0.7559055118110236
        },
        {
          "duration": 0.10984837499999855,
          "durationTicks": 29,
          "midi": 81,
          "name": "A5",
          "ticks": 22902,
          "time": 86.74991325,
          "velocity": 0.7559055118110236
        },
        {
          "duration": 0.10984837500001277,
          "durationTicks": 29,
          "midi": 86,
          "name": "D6",
          "ticks": 22931,
          "time": 86.859761625,
          "velocity": 0.7559055118110236
        },
        {
          "duration": 0.12121199999998566,
          "durationTicks": 32,
          "midi": 81,
          "name": "A5",
          "ticks": 22960,
          "time": 86.96961000000002,
          "velocity": 0.7559055118110236
        },
        {
          "duration": 0.10984837499999855,
          "durationTicks": 29,
          "midi": 78,
          "name": "F#5",
          "ticks": 22992,
          "time": 87.090822,
          "velocity": 0.7559055118110236
        },
        {
          "duration": 0.10984837500001277,
          "durationTicks": 29,
          "midi": 74,
          "name": "D5",
          "ticks": 23021,
          "time": 87.200670375,
          "velocity": 0.7559055118110236
        },
        {
          "duration": 0.10984837499998434,
          "durationTicks": 29,
          "midi": 73,
          "name": "C#5",
          "ticks": 23050,
          "time": 87.31051875000001,
          "velocity": 0.7559055118110236
        },
        {
          "duration": 0.10984837499999855,
          "durationTicks": 29,
          "midi": 78,
          "name": "F#5",
          "ticks": 23081,
          "time": 87.42794287500001,
          "velocity": 0.7559055118110236
        },
        {
          "duration": 0.10984837499998434,
          "durationTicks": 29,
          "midi": 81,
          "name": "A5",
          "ticks": 23110,
          "time": 87.53779125000001,
          "velocity": 0.7559055118110236
        },
        {
          "duration": 0.12121200000001409,
          "durationTicks": 32,
          "midi": 85,
          "name": "C#6",
          "ticks": 23139,
          "time": 87.647639625,
          "velocity": 0.7559055118110236
        },
        {
          "duration": 0.10984837499999855,
          "durationTicks": 29,
          "midi": 90,
          "name": "F#6",
          "ticks": 23171,
          "time": 87.76885162500001,
          "velocity": 0.7559055118110236
        },
        {
          "duration": 0.10984837499999855,
          "durationTicks": 29,
          "midi": 85,
          "name": "C#6",
          "ticks": 23200,
          "time": 87.87870000000001,
          "velocity": 0.7559055118110236
        },
        {
          "duration": 0.09848474999999723,
          "durationTicks": 26,
          "midi": 81,
          "name": "A5",
          "ticks": 23232,
          "time": 87.99991200000001,
          "velocity": 0.7559055118110236
        },
        {
          "duration": 0.12121199999999988,
          "durationTicks": 32,
          "midi": 78,
          "name": "F#5",
          "ticks": 23258,
          "time": 88.09839675,
          "velocity": 0.7559055118110236
        },
        {
          "duration": 0.10984837499999855,
          "durationTicks": 29,
          "midi": 71,
          "name": "B4",
          "ticks": 23290,
          "time": 88.21960875,
          "velocity": 0.7559055118110236
        },
        {
          "duration": 0.10984837499999855,
          "durationTicks": 29,
          "midi": 76,
          "name": "E5",
          "ticks": 23322,
          "time": 88.34082075,
          "velocity": 0.7559055118110236
        },
        {
          "duration": 0.10984837500001277,
          "durationTicks": 29,
          "midi": 80,
          "name": "G#5",
          "ticks": 23351,
          "time": 88.450669125,
          "velocity": 0.7559055118110236
        },
        {
          "duration": 0.11742412499998522,
          "durationTicks": 31,
          "midi": 83,
          "name": "B5",
          "ticks": 23380,
          "time": 88.56051750000002,
          "velocity": 0.7559055118110236
        },
        {
          "duration": 0.10984837500001277,
          "durationTicks": 29,
          "midi": 88,
          "name": "E6",
          "ticks": 23411,
          "time": 88.677941625,
          "velocity": 0.7559055118110236
        },
        {
          "duration": 0.10984837499998434,
          "durationTicks": 29,
          "midi": 83,
          "name": "B5",
          "ticks": 23440,
          "time": 88.78779000000002,
          "velocity": 0.7559055118110236
        },
        {
          "duration": 0.12121200000001409,
          "durationTicks": 32,
          "midi": 80,
          "name": "G#5",
          "ticks": 23469,
          "time": 88.897638375,
          "velocity": 0.7559055118110236
        },
        {
          "duration": 0.10984837499999855,
          "durationTicks": 29,
          "midi": 76,
          "name": "E5",
          "ticks": 23501,
          "time": 89.01885037500001,
          "velocity": 0.7559055118110236
        },
        {
          "duration": 0.10984837499998434,
          "durationTicks": 29,
          "midi": 69,
          "name": "A4",
          "ticks": 23530,
          "time": 89.12869875000001,
          "velocity": 0.7559055118110236
        },
        {
          "duration": 0.12121200000001409,
          "durationTicks": 32,
          "midi": 74,
          "name": "D5",
          "ticks": 23559,
          "time": 89.238547125,
          "velocity": 0.7559055118110236
        },
        {
          "duration": 0.10984837499999855,
          "durationTicks": 29,
          "midi": 78,
          "name": "F#5",
          "ticks": 23591,
          "time": 89.35975912500001,
          "velocity": 0.7559055118110236
        },
        {
          "duration": 0.10984837499999855,
          "durationTicks": 29,
          "midi": 81,
          "name": "A5",
          "ticks": 23620,
          "time": 89.46960750000001,
          "velocity": 0.7559055118110236
        },
        {
          "duration": 0.10984837499999855,
          "durationTicks": 29,
          "midi": 86,
          "name": "D6",
          "ticks": 23652,
          "time": 89.59081950000001,
          "velocity": 0.7559055118110236
        },
        {
          "duration": 0.10984837499999855,
          "durationTicks": 29,
          "midi": 81,
          "name": "A5",
          "ticks": 23681,
          "time": 89.70066787500001,
          "velocity": 0.7559055118110236
        },
        {
          "duration": 0.10984837499999855,
          "durationTicks": 29,
          "midi": 78,
          "name": "F#5",
          "ticks": 23710,
          "time": 89.81051625,
          "velocity": 0.7559055118110236
        },
        {
          "duration": 0.10984837499999855,
          "durationTicks": 29,
          "midi": 74,
          "name": "D5",
          "ticks": 23741,
          "time": 89.927940375,
          "velocity": 0.7559055118110236
        },
        {
          "duration": 0.10984837499999855,
          "durationTicks": 29,
          "midi": 69,
          "name": "A4",
          "ticks": 23770,
          "time": 90.03778875,
          "velocity": 0.7559055118110236
        },
        {
          "duration": 0.12121199999999988,
          "durationTicks": 32,
          "midi": 74,
          "name": "D5",
          "ticks": 23799,
          "time": 90.147637125,
          "velocity": 0.7559055118110236
        },
        {
          "duration": 0.10984837500001277,
          "durationTicks": 29,
          "midi": 78,
          "name": "F#5",
          "ticks": 23831,
          "time": 90.268849125,
          "velocity": 0.7559055118110236
        },
        {
          "duration": 0.10984837499998434,
          "durationTicks": 29,
          "midi": 81,
          "name": "A5",
          "ticks": 23860,
          "time": 90.37869750000002,
          "velocity": 0.7559055118110236
        },
        {
          "duration": 0.09848474999999723,
          "durationTicks": 26,
          "midi": 86,
          "name": "D6",
          "ticks": 23892,
          "time": 90.4999095,
          "velocity": 0.7559055118110236
        },
        {
          "duration": 0.12878775000000076,
          "durationTicks": 34,
          "midi": 81,
          "name": "A5",
          "ticks": 23918,
          "time": 90.59839425,
          "velocity": 0.7559055118110236
        },
        {
          "duration": 0.10984837499998434,
          "durationTicks": 29,
          "midi": 78,
          "name": "F#5",
          "ticks": 23950,
          "time": 90.71960625000001,
          "velocity": 0.7559055118110236
        },
        {
          "duration": 0.10984837500001277,
          "durationTicks": 29,
          "midi": 74,
          "name": "D5",
          "ticks": 23982,
          "time": 90.84081825,
          "velocity": 0.7559055118110236
        },
        {
          "duration": 0.10984837499999855,
          "durationTicks": 29,
          "midi": 69,
          "name": "A4",
          "ticks": 24011,
          "time": 90.95066662500001,
          "velocity": 0.7559055118110236
        },
        {
          "duration": 0.11742412499999944,
          "durationTicks": 31,
          "midi": 74,
          "name": "D5",
          "ticks": 24040,
          "time": 91.06051500000001,
          "velocity": 0.7559055118110236
        },
        {
          "duration": 0.10984837499999855,
          "durationTicks": 29,
          "midi": 78,
          "name": "F#5",
          "ticks": 24071,
          "time": 91.17793912500001,
          "velocity": 0.7559055118110236
        },
        {
          "duration": 0.10984837499999855,
          "durationTicks": 29,
          "midi": 81,
          "name": "A5",
          "ticks": 24100,
          "time": 91.28778750000001,
          "velocity": 0.7559055118110236
        },
        {
          "duration": 0.12121199999999988,
          "durationTicks": 32,
          "midi": 86,
          "name": "D6",
          "ticks": 24129,
          "time": 91.397635875,
          "velocity": 0.7559055118110236
        },
        {
          "duration": 0.10984837499999855,
          "durationTicks": 29,
          "midi": 81,
          "name": "A5",
          "ticks": 24161,
          "time": 91.518847875,
          "velocity": 0.7559055118110236
        },
        {
          "duration": 0.10984837499999855,
          "durationTicks": 29,
          "midi": 78,
          "name": "F#5",
          "ticks": 24190,
          "time": 91.62869625,
          "velocity": 0.7559055118110236
        },
        {
          "duration": 0.12121199999999988,
          "durationTicks": 32,
          "midi": 74,
          "name": "D5",
          "ticks": 24219,
          "time": 91.738544625,
          "velocity": 0.7559055118110236
        },
        {
          "duration": 0.10984837500001277,
          "durationTicks": 29,
          "midi": 69,
          "name": "A4",
          "ticks": 24251,
          "time": 91.859756625,
          "velocity": 0.7559055118110236
        },
        {
          "duration": 0.12121199999998566,
          "durationTicks": 32,
          "midi": 74,
          "name": "D5",
          "ticks": 24280,
          "time": 91.96960500000002,
          "velocity": 0.7559055118110236
        },
        {
          "duration": 0.12121200000001409,
          "durationTicks": 32,
          "midi": 78,
          "name": "F#5",
          "ticks": 24309,
          "time": 92.079453375,
          "velocity": 0.7559055118110236
        },
        {
          "duration": 0.10984837499999855,
          "durationTicks": 29,
          "midi": 81,
          "name": "A5",
          "ticks": 24341,
          "time": 92.20066537500001,
          "velocity": 0.7559055118110236
        },
        {
          "duration": 0.11742412499999944,
          "durationTicks": 31,
          "midi": 86,
          "name": "D6",
          "ticks": 24370,
          "time": 92.31051375000001,
          "velocity": 0.7559055118110236
        },
        {
          "duration": 0.10984837499999855,
          "durationTicks": 29,
          "midi": 81,
          "name": "A5",
          "ticks": 24401,
          "time": 92.42793787500001,
          "velocity": 0.7559055118110236
        },
        {
          "duration": 0.10984837499998434,
          "durationTicks": 29,
          "midi": 78,
          "name": "F#5",
          "ticks": 24430,
          "time": 92.53778625000001,
          "velocity": 0.7559055118110236
        },
        {
          "duration": 0.12121200000001409,
          "durationTicks": 32,
          "midi": 74,
          "name": "D5",
          "ticks": 24459,
          "time": 92.647634625,
          "velocity": 0.7559055118110236
        },
        {
          "duration": 0.10984837499999855,
          "durationTicks": 29,
          "midi": 69,
          "name": "A4",
          "ticks": 24491,
          "time": 92.76884662500001,
          "velocity": 0.7559055118110236
        },
        {
          "duration": 0.12121199999999988,
          "durationTicks": 32,
          "midi": 74,
          "name": "D5",
          "ticks": 24520,
          "time": 92.87869500000001,
          "velocity": 0.7559055118110236
        },
        {
          "duration": 0.12121199999999988,
          "durationTicks": 32,
          "midi": 78,
          "name": "F#5",
          "ticks": 24549,
          "time": 92.988543375,
          "velocity": 0.7559055118110236
        },
        {
          "duration": 0.10984837499999855,
          "durationTicks": 29,
          "midi": 81,
          "name": "A5",
          "ticks": 24581,
          "time": 93.109755375,
          "velocity": 0.7559055118110236
        },
        {
          "duration": 0.10984837499999855,
          "durationTicks": 29,
          "midi": 86,
          "name": "D6",
          "ticks": 24610,
          "time": 93.21960375,
          "velocity": 0.7559055118110236
        },
        {
          "duration": 0.10984837499999855,
          "durationTicks": 29,
          "midi": 81,
          "name": "A5",
          "ticks": 24642,
          "time": 93.34081575,
          "velocity": 0.7559055118110236
        },
        {
          "duration": 0.10984837500001277,
          "durationTicks": 29,
          "midi": 78,
          "name": "F#5",
          "ticks": 24671,
          "time": 93.450664125,
          "velocity": 0.7559055118110236
        },
        {
          "duration": 0.11742412499998522,
          "durationTicks": 31,
          "midi": 74,
          "name": "D5",
          "ticks": 24700,
          "time": 93.56051250000002,
          "velocity": 0.7559055118110236
        },
        {
          "duration": 0.10984837500001277,
          "durationTicks": 29,
          "midi": 69,
          "name": "A4",
          "ticks": 24731,
          "time": 93.677936625,
          "velocity": 0.7559055118110236
        },
        {
          "duration": 0.10984837499998434,
          "durationTicks": 29,
          "midi": 74,
          "name": "D5",
          "ticks": 24760,
          "time": 93.78778500000001,
          "velocity": 0.7559055118110236
        },
        {
          "duration": 0.12121200000001409,
          "durationTicks": 32,
          "midi": 78,
          "name": "F#5",
          "ticks": 24789,
          "time": 93.897633375,
          "velocity": 0.7559055118110236
        },
        {
          "duration": 0.10984837499999855,
          "durationTicks": 29,
          "midi": 81,
          "name": "A5",
          "ticks": 24821,
          "time": 94.01884537500001,
          "velocity": 0.7559055118110236
        },
        {
          "duration": 0.10984837499998434,
          "durationTicks": 29,
          "midi": 86,
          "name": "D6",
          "ticks": 24850,
          "time": 94.12869375000001,
          "velocity": 0.7559055118110236
        },
        {
          "duration": 0.12121200000001409,
          "durationTicks": 32,
          "midi": 81,
          "name": "A5",
          "ticks": 24879,
          "time": 94.238542125,
          "velocity": 0.7559055118110236
        },
        {
          "duration": 0.10984837499999855,
          "durationTicks": 29,
          "midi": 78,
          "name": "F#5",
          "ticks": 24911,
          "time": 94.35975412500001,
          "velocity": 0.7559055118110236
        },
        {
          "duration": 0.10984837499999855,
          "durationTicks": 29,
          "midi": 74,
          "name": "D5",
          "ticks": 24940,
          "time": 94.46960250000001,
          "velocity": 0.7559055118110236
        },
        {
          "duration": 0.10984837499999855,
          "durationTicks": 29,
          "midi": 73,
          "name": "C#5",
          "ticks": 24972,
          "time": 94.59081450000001,
          "velocity": 0.7559055118110236
        },
        {
          "duration": 0.11742412499999944,
          "durationTicks": 31,
          "midi": 78,
          "name": "F#5",
          "ticks": 25001,
          "time": 94.700662875,
          "velocity": 0.7559055118110236
        },
        {
          "duration": 0.11742412499999944,
          "durationTicks": 31,
          "midi": 81,
          "name": "A5",
          "ticks": 25030,
          "time": 94.81051125,
          "velocity": 0.7559055118110236
        },
        {
          "duration": 0.10984837500001277,
          "durationTicks": 29,
          "midi": 85,
          "name": "C#6",
          "ticks": 25061,
          "time": 94.927935375,
          "velocity": 0.7559055118110236
        },
        {
          "duration": 0.10984837499998434,
          "durationTicks": 29,
          "midi": 90,
          "name": "F#6",
          "ticks": 25090,
          "time": 95.03778375000002,
          "velocity": 0.7559055118110236
        },
        {
          "duration": 0.12121199999999988,
          "durationTicks": 32,
          "midi": 85,
          "name": "C#6",
          "ticks": 25119,
          "time": 95.147632125,
          "velocity": 0.7559055118110236
        },
        {
          "duration": 0.20833312500001,
          "durationTicks": 55,
          "midi": 81,
          "name": "A5",
          "ticks": 25151,
          "time": 95.268844125,
          "velocity": 0.7559055118110236
        },
        {
          "duration": 0.10984837499998434,
          "durationTicks": 29,
          "midi": 78,
          "name": "F#5",
          "ticks": 25180,
          "time": 95.37869250000001,
          "velocity": 0.7559055118110236
        },
        {
          "duration": 0.10984837500001277,
          "durationTicks": 29,
          "midi": 71,
          "name": "B4",
          "ticks": 25209,
          "time": 95.488540875,
          "velocity": 0.7559055118110236
        },
        {
          "duration": 0.10984837499999855,
          "durationTicks": 29,
          "midi": 76,
          "name": "E5",
          "ticks": 25241,
          "time": 95.60975287500001,
          "velocity": 0.7559055118110236
        },
        {
          "duration": 0.10984837499998434,
          "durationTicks": 29,
          "midi": 80,
          "name": "G#5",
          "ticks": 25270,
          "time": 95.71960125000001,
          "velocity": 0.7559055118110236
        },
        {
          "duration": 0.09848474999999723,
          "durationTicks": 26,
          "midi": 83,
          "name": "B5",
          "ticks": 25302,
          "time": 95.84081325000001,
          "velocity": 0.7559055118110236
        },
        {
          "duration": 0.10984837499999855,
          "durationTicks": 29,
          "midi": 88,
          "name": "E6",
          "ticks": 25331,
          "time": 95.95066162500001,
          "velocity": 0.7559055118110236
        },
        {
          "duration": 0.11742412499999944,
          "durationTicks": 31,
          "midi": 83,
          "name": "B5",
          "ticks": 25360,
          "time": 96.06051000000001,
          "velocity": 0.7559055118110236
        },
        {
          "duration": 0.10984837499999855,
          "durationTicks": 29,
          "midi": 80,
          "name": "G#5",
          "ticks": 25391,
          "time": 96.17793412500001,
          "velocity": 0.7559055118110236
        },
        {
          "duration": 0.10984837499999855,
          "durationTicks": 29,
          "midi": 76,
          "name": "E5",
          "ticks": 25420,
          "time": 96.2877825,
          "velocity": 0.7559055118110236
        },
        {
          "duration": 0.10984837499999855,
          "durationTicks": 29,
          "midi": 69,
          "name": "A4",
          "ticks": 25452,
          "time": 96.4089945,
          "velocity": 0.7559055118110236
        },
        {
          "duration": 0.10984837500001277,
          "durationTicks": 29,
          "midi": 74,
          "name": "D5",
          "ticks": 25481,
          "time": 96.518842875,
          "velocity": 0.7559055118110236
        },
        {
          "duration": 0.10984837499998434,
          "durationTicks": 29,
          "midi": 78,
          "name": "F#5",
          "ticks": 25510,
          "time": 96.62869125000002,
          "velocity": 0.7559055118110236
        },
        {
          "duration": 0.10984837499999855,
          "durationTicks": 29,
          "midi": 81,
          "name": "A5",
          "ticks": 25539,
          "time": 96.738539625,
          "velocity": 0.7559055118110236
        },
        {
          "duration": 0.10984837500001277,
          "durationTicks": 29,
          "midi": 86,
          "name": "D6",
          "ticks": 25571,
          "time": 96.859751625,
          "velocity": 0.7559055118110236
        },
        {
          "duration": 0.10984837499998434,
          "durationTicks": 29,
          "midi": 81,
          "name": "A5",
          "ticks": 25600,
          "time": 96.96960000000001,
          "velocity": 0.7559055118110236
        },
        {
          "duration": 0.12121200000001409,
          "durationTicks": 32,
          "midi": 78,
          "name": "F#5",
          "ticks": 25629,
          "time": 97.079448375,
          "velocity": 0.7559055118110236
        },
        {
          "duration": 0.11742412499998522,
          "durationTicks": 31,
          "midi": 74,
          "name": "D5",
          "ticks": 25661,
          "time": 97.20066037500001,
          "velocity": 0.7559055118110236
        },
        {
          "duration": 0.10984837499998434,
          "durationTicks": 29,
          "midi": 66,
          "name": "F#4",
          "ticks": 25690,
          "time": 97.31050875000001,
          "velocity": 0.7559055118110236
        },
        {
          "duration": 0.10984837499999855,
          "durationTicks": 29,
          "midi": 71,
          "name": "B4",
          "ticks": 25721,
          "time": 97.42793287500001,
          "velocity": 0.7559055118110236
        },
        {
          "duration": 0.10984837499999855,
          "durationTicks": 29,
          "midi": 74,
          "name": "D5",
          "ticks": 25750,
          "time": 97.53778125000001,
          "velocity": 0.7559055118110236
        },
        {
          "duration": 0.12121199999999988,
          "durationTicks": 32,
          "midi": 78,
          "name": "F#5",
          "ticks": 25779,
          "time": 97.64762962500001,
          "velocity": 0.7559055118110236
        },
        {
          "duration": 0.10984837499999855,
          "durationTicks": 29,
          "midi": 83,
          "name": "B5",
          "ticks": 25811,
          "time": 97.76884162500001,
          "velocity": 0.7559055118110236
        },
        {
          "duration": 0.10984837499999855,
          "durationTicks": 29,
          "midi": 78,
          "name": "F#5",
          "ticks": 25840,
          "time": 97.87869,
          "velocity": 0.7559055118110236
        },
        {
          "duration": 0.12121199999999988,
          "durationTicks": 32,
          "midi": 74,
          "name": "D5",
          "ticks": 25869,
          "time": 97.988538375,
          "velocity": 0.7559055118110236
        },
        {
          "duration": 0.07954537500000924,
          "durationTicks": 21,
          "midi": 71,
          "name": "B4",
          "ticks": 25901,
          "time": 98.109750375,
          "velocity": 0.7559055118110236
        }
      ]
    },
    {
      "channel": 4,
      "controlChanges": {
        "7": [
          {
            "number": 7,
            "ticks": 0,
            "time": 0,
            "value": 0.7559055118110236
          }
        ],
        "10": [
          {
            "number": 10,
            "ticks": 0,
            "time": 0,
            "value": 0.15748031496062992
          }
        ],
        "64": [
          {
            "number": 64,
            "ticks": 166,
            "time": 0.62878725,
            "value": 0
          },
          {
            "number": 64,
            "ticks": 166,
            "time": 0.62878725,
            "value": 0
          },
          {
            "number": 64,
            "ticks": 166,
            "time": 0.62878725,
            "value": 0
          },
          {
            "number": 64,
            "ticks": 166,
            "time": 0.62878725,
            "value": 0
          },
          {
            "number": 64,
            "ticks": 166,
            "time": 0.62878725,
            "value": 0
          },
          {
            "number": 64,
            "ticks": 166,
            "time": 0.62878725,
            "value": 0
          },
          {
            "number": 64,
            "ticks": 171,
            "time": 0.6477266250000001,
            "value": 0
          },
          {
            "number": 64,
            "ticks": 171,
            "time": 0.6477266250000001,
            "value": 0
          },
          {
            "number": 64,
            "ticks": 171,
            "time": 0.6477266250000001,
            "value": 0
          },
          {
            "number": 64,
            "ticks": 171,
            "time": 0.6477266250000001,
            "value": 0
          },
          {
            "number": 64,
            "ticks": 171,
            "time": 0.6477266250000001,
            "value": 0
          },
          {
            "number": 64,
            "ticks": 171,
            "time": 0.6477266250000001,
            "value": 0
          },
          {
            "number": 64,
            "ticks": 171,
            "time": 0.6477266250000001,
            "value": 0
          },
          {
            "number": 64,
            "ticks": 171,
            "time": 0.6477266250000001,
            "value": 0
          },
          {
            "number": 64,
            "ticks": 171,
            "time": 0.6477266250000001,
            "value": 0
          },
          {
            "number": 64,
            "ticks": 171,
            "time": 0.6477266250000001,
            "value": 0
          }
        ]
      },
      "pitchBends": [],
      "instrument": {
        "family": "organ",
        "number": 20,
        "name": "reed organ"
      },
      "name": "End Part",
      "notes": [
        {
          "duration": 0.10227262500001189,
          "durationTicks": 27,
          "midi": 78,
          "name": "F#5",
          "ticks": 37442,
          "time": 141.82561575,
          "velocity": 0.7559055118110236
        },
        {
          "duration": 0.10984837499998434,
          "durationTicks": 29,
          "midi": 74,
          "name": "D5",
          "ticks": 37500,
          "time": 142.04531250000002,
          "velocity": 0.7559055118110236
        },
        {
          "duration": 0.10984837500001277,
          "durationTicks": 29,
          "midi": 78,
          "name": "F#5",
          "ticks": 37561,
          "time": 142.276372875,
          "velocity": 0.7559055118110236
        },
        {
          "duration": 0.10984837500001277,
          "durationTicks": 29,
          "midi": 74,
          "name": "D5",
          "ticks": 37622,
          "time": 142.50743325,
          "velocity": 0.7559055118110236
        },
        {
          "duration": 0.11742412499998522,
          "durationTicks": 31,
          "midi": 78,
          "name": "F#5",
          "ticks": 37680,
          "time": 142.72713000000002,
          "velocity": 0.7559055118110236
        },
        {
          "duration": 0.11363624999998478,
          "durationTicks": 30,
          "midi": 74,
          "name": "D5",
          "ticks": 37740,
          "time": 142.95440250000001,
          "velocity": 0.7559055118110236
        },
        {
          "duration": 0.11742412499998522,
          "durationTicks": 31,
          "midi": 78,
          "name": "F#5",
          "ticks": 37799,
          "time": 143.177887125,
          "velocity": 0.7559055118110236
        },
        {
          "duration": 0.09848475000001145,
          "durationTicks": 26,
          "midi": 74,
          "name": "D5",
          "ticks": 37862,
          "time": 143.41652325,
          "velocity": 0.7559055118110236
        },
        {
          "duration": 0.10984837500001277,
          "durationTicks": 29,
          "midi": 78,
          "name": "F#5",
          "ticks": 37920,
          "time": 143.63622,
          "velocity": 0.7559055118110236
        },
        {
          "duration": 0.10984837500001277,
          "durationTicks": 29,
          "midi": 74,
          "name": "D5",
          "ticks": 37981,
          "time": 143.867280375,
          "velocity": 0.7559055118110236
        },
        {
          "duration": 0.10984837500001277,
          "durationTicks": 29,
          "midi": 78,
          "name": "F#5",
          "ticks": 38041,
          "time": 144.094552875,
          "velocity": 0.7559055118110236
        },
        {
          "duration": 0.10984837500001277,
          "durationTicks": 29,
          "midi": 74,
          "name": "D5",
          "ticks": 38100,
          "time": 144.3180375,
          "velocity": 0.7559055118110236
        },
        {
          "duration": 0.10984837500001277,
          "durationTicks": 29,
          "midi": 78,
          "name": "F#5",
          "ticks": 38160,
          "time": 144.54531,
          "velocity": 0.7559055118110236
        },
        {
          "duration": 0.10984837500001277,
          "durationTicks": 29,
          "midi": 74,
          "name": "D5",
          "ticks": 38221,
          "time": 144.776370375,
          "velocity": 0.7559055118110236
        },
        {
          "duration": 0.12121199999998566,
          "durationTicks": 32,
          "midi": 78,
          "name": "F#5",
          "ticks": 38279,
          "time": 144.99606712500002,
          "velocity": 0.7559055118110236
        },
        {
          "duration": 0.11742412499998522,
          "durationTicks": 31,
          "midi": 74,
          "name": "D5",
          "ticks": 38340,
          "time": 145.22712750000002,
          "velocity": 0.7559055118110236
        },
        {
          "duration": 0.11363624999998478,
          "durationTicks": 30,
          "midi": 71,
          "name": "B4",
          "ticks": 38400,
          "time": 145.45440000000002,
          "velocity": 0.7559055118110236
        },
        {
          "duration": 0.11742412499998522,
          "durationTicks": 31,
          "midi": 74,
          "name": "D5",
          "ticks": 38459,
          "time": 145.67788462500002,
          "velocity": 0.7559055118110236
        },
        {
          "duration": 0.10984837500001277,
          "durationTicks": 29,
          "midi": 71,
          "name": "B4",
          "ticks": 38522,
          "time": 145.91652075,
          "velocity": 0.7559055118110236
        },
        {
          "duration": 0.12121199999998566,
          "durationTicks": 32,
          "midi": 74,
          "name": "D5",
          "ticks": 38580,
          "time": 146.13621750000001,
          "velocity": 0.7559055118110236
        },
        {
          "duration": 0.10984837499998434,
          "durationTicks": 29,
          "midi": 71,
          "name": "B4",
          "ticks": 38641,
          "time": 146.367277875,
          "velocity": 0.7559055118110236
        },
        {
          "duration": 0.10984837500001277,
          "durationTicks": 29,
          "midi": 74,
          "name": "D5",
          "ticks": 38701,
          "time": 146.594550375,
          "velocity": 0.7559055118110236
        },
        {
          "duration": 0.11742412499998522,
          "durationTicks": 31,
          "midi": 71,
          "name": "B4",
          "ticks": 38760,
          "time": 146.818035,
          "velocity": 0.7559055118110236
        },
        {
          "duration": 0.10984837500001277,
          "durationTicks": 29,
          "midi": 74,
          "name": "D5",
          "ticks": 38820,
          "time": 147.0453075,
          "velocity": 0.7559055118110236
        },
        {
          "duration": 0.09848475000001145,
          "durationTicks": 26,
          "midi": 71,
          "name": "B4",
          "ticks": 38881,
          "time": 147.276367875,
          "velocity": 0.7559055118110236
        },
        {
          "duration": 0.10984837500001277,
          "durationTicks": 29,
          "midi": 74,
          "name": "D5",
          "ticks": 38942,
          "time": 147.50742825,
          "velocity": 0.7559055118110236
        },
        {
          "duration": 0.11742412500001365,
          "durationTicks": 31,
          "midi": 71,
          "name": "B4",
          "ticks": 39000,
          "time": 147.727125,
          "velocity": 0.7559055118110236
        },
        {
          "duration": 0.1136362500000132,
          "durationTicks": 30,
          "midi": 74,
          "name": "D5",
          "ticks": 39060,
          "time": 147.9543975,
          "velocity": 0.7559055118110236
        },
        {
          "duration": 0.10984837500001277,
          "durationTicks": 29,
          "midi": 71,
          "name": "B4",
          "ticks": 39121,
          "time": 148.185457875,
          "velocity": 0.7559055118110236
        },
        {
          "duration": 0.10984837499998434,
          "durationTicks": 29,
          "midi": 74,
          "name": "D5",
          "ticks": 39179,
          "time": 148.40515462500002,
          "velocity": 0.7559055118110236
        },
        {
          "duration": 0.10984837499998434,
          "durationTicks": 29,
          "midi": 71,
          "name": "B4",
          "ticks": 39240,
          "time": 148.63621500000002,
          "velocity": 0.7559055118110236
        },
        {
          "duration": 0.10984837499998434,
          "durationTicks": 29,
          "midi": 74,
          "name": "D5",
          "ticks": 39301,
          "time": 148.86727537500002,
          "velocity": 0.7559055118110236
        },
        {
          "duration": 0.10984837499998434,
          "durationTicks": 29,
          "midi": 71,
          "name": "B4",
          "ticks": 39361,
          "time": 149.09454787500002,
          "velocity": 0.7559055118110236
        },
        {
          "duration": 0.12121200000001409,
          "durationTicks": 32,
          "midi": 74,
          "name": "D5",
          "ticks": 39422,
          "time": 149.32560825000002,
          "velocity": 0.7559055118110236
        },
        {
          "duration": 0.12121200000004251,
          "durationTicks": 32,
          "midi": 71,
          "name": "B4",
          "ticks": 39483,
          "time": 149.556668625,
          "velocity": 0.7559055118110236
        },
        {
          "duration": 0.13257562499998699,
          "durationTicks": 35,
          "midi": 74,
          "name": "D5",
          "ticks": 39546,
          "time": 149.79530475,
          "velocity": 0.7559055118110236
        },
        {
          "duration": 0.13257562499998699,
          "durationTicks": 35,
          "midi": 71,
          "name": "B4",
          "ticks": 39612,
          "time": 150.04530450000001,
          "velocity": 0.7559055118110236
        },
        {
          "duration": 0.1325756250000154,
          "durationTicks": 35,
          "midi": 74,
          "name": "D5",
          "ticks": 39678,
          "time": 150.29530425,
          "velocity": 0.7559055118110236
        },
        {
          "duration": 0.12878774999998654,
          "durationTicks": 34,
          "midi": 71,
          "name": "B4",
          "ticks": 39747,
          "time": 150.55666762500002,
          "velocity": 0.7559055118110236
        },
        {
          "duration": 0.13636350000001585,
          "durationTicks": 36,
          "midi": 74,
          "name": "D5",
          "ticks": 39816,
          "time": 150.81803100000002,
          "velocity": 0.7559055118110236
        },
        {
          "duration": 0.13257562499998699,
          "durationTicks": 35,
          "midi": 71,
          "name": "B4",
          "ticks": 39889,
          "time": 151.09454587500002,
          "velocity": 0.7559055118110236
        },
        {
          "duration": 0.14772712500001717,
          "durationTicks": 39,
          "midi": 74,
          "name": "D5",
          "ticks": 39961,
          "time": 151.367272875,
          "velocity": 0.7559055118110236
        },
        {
          "duration": 0.1515150000000176,
          "durationTicks": 40,
          "midi": 71,
          "name": "B4",
          "ticks": 40037,
          "time": 151.655151375,
          "velocity": 0.7559055118110236
        },
        {
          "duration": 0.15151499999998919,
          "durationTicks": 40,
          "midi": 74,
          "name": "D5",
          "ticks": 40116,
          "time": 151.9543935,
          "velocity": 0.7559055118110236
        },
        {
          "duration": 0.1628786249999905,
          "durationTicks": 43,
          "midi": 71,
          "name": "B4",
          "ticks": 40198,
          "time": 152.26499925000002,
          "velocity": 0.7559055118110236
        },
        {
          "duration": 0.15909074999999007,
          "durationTicks": 42,
          "midi": 74,
          "name": "D5",
          "ticks": 40280,
          "time": 152.57560500000002,
          "velocity": 0.7559055118110236
        },
        {
          "duration": 0.1704543750000198,
          "durationTicks": 45,
          "midi": 71,
          "name": "B4",
          "ticks": 40365,
          "time": 152.897574375,
          "velocity": 0.7559055118110236
        },
        {
          "duration": 0.15909074999999007,
          "durationTicks": 42,
          "midi": 74,
          "name": "D5",
          "ticks": 40452,
          "time": 153.22711950000001,
          "velocity": 0.7559055118110236
        },
        {
          "duration": 0.17803012499999227,
          "durationTicks": 47,
          "midi": 71,
          "name": "B4",
          "ticks": 40539,
          "time": 153.556664625,
          "velocity": 0.7559055118110236
        }
      ],
      "endOfTrackTicks": 40586
    }
  ]
}